%TF.GenerationSoftware,KiCad,Pcbnew,9.0.9-9.0.9~ubuntu24.04.1*%
%TF.CreationDate,2026-10-05T04:16:12+00:00*%
%TF.ProjectId,rk3576-sbc,726b3335-3736-42d7-9362-632e6b696361,rev?*%
%TF.SameCoordinates,Original*%
%TF.FileFunction,Copper,L3,Inr*%
%TF.FilePolarity,Positive*%
%FSLAX46Y46*%
G04 Gerber Fmt 4.6, Leading zero omitted, Abs format (unit mm)*
G04 Created by KiCad (PCBNEW 9.0.9-9.0.9~ubuntu24.04.1) date 2026-10-05 04:16:12*
%MOMM*%
%LPD*%
G01*
G04 APERTURE LIST*
G04 Aperture macros list*
%AMRoundRect*
0 Rectangle with rounded corners*
0 $1 Rounding radius*
0 $2 $3 $4 $5 $6 $7 $8 $9 X,Y pos of 4 corners*
0 Add a 4 corners polygon primitive as box body*
4,1,4,$2,$3,$4,$5,$6,$7,$8,$9,$2,$3,0*
0 Add four circle primitives for the rounded corners*
1,1,$1+$1,$2,$3*
1,1,$1+$1,$4,$5*
1,1,$1+$1,$6,$7*
1,1,$1+$1,$8,$9*
0 Add four rect primitives between the rounded corners*
20,1,$1+$1,$2,$3,$4,$5,0*
20,1,$1+$1,$4,$5,$6,$7,0*
20,1,$1+$1,$6,$7,$8,$9,0*
20,1,$1+$1,$8,$9,$2,$3,0*%
G04 Aperture macros list end*
%TA.AperFunction,ComponentPad*%
%ADD10C,0.800000*%
%TD*%
%TA.AperFunction,ComponentPad*%
%ADD11C,5.400000*%
%TD*%
%TA.AperFunction,HeatsinkPad*%
%ADD12O,1.000000X2.100000*%
%TD*%
%TA.AperFunction,HeatsinkPad*%
%ADD13O,1.000000X1.600000*%
%TD*%
%TA.AperFunction,ComponentPad*%
%ADD14O,1.500000X3.300000*%
%TD*%
%TA.AperFunction,ComponentPad*%
%ADD15O,1.500000X2.300000*%
%TD*%
%TA.AperFunction,ComponentPad*%
%ADD16C,1.700000*%
%TD*%
%TA.AperFunction,ComponentPad*%
%ADD17R,1.524000X1.524000*%
%TD*%
%TA.AperFunction,ComponentPad*%
%ADD18C,1.524000*%
%TD*%
%TA.AperFunction,ComponentPad*%
%ADD19C,2.159000*%
%TD*%
%TA.AperFunction,ComponentPad*%
%ADD20R,1.700000X1.700000*%
%TD*%
%TA.AperFunction,HeatsinkPad*%
%ADD21C,0.500000*%
%TD*%
%TA.AperFunction,ComponentPad*%
%ADD22RoundRect,0.250000X0.350000X-0.350000X0.350000X0.350000X-0.350000X0.350000X-0.350000X-0.350000X0*%
%TD*%
%TA.AperFunction,ComponentPad*%
%ADD23C,1.200000*%
%TD*%
%TA.AperFunction,ComponentPad*%
%ADD24O,2.400000X1.200000*%
%TD*%
%TA.AperFunction,ComponentPad*%
%ADD25O,2.100000X1.200000*%
%TD*%
%TA.AperFunction,ComponentPad*%
%ADD26R,1.500000X1.500000*%
%TD*%
%TA.AperFunction,ComponentPad*%
%ADD27C,1.500000*%
%TD*%
%TA.AperFunction,ComponentPad*%
%ADD28C,3.500000*%
%TD*%
%TA.AperFunction,ViaPad*%
%ADD29C,0.350000*%
%TD*%
%TA.AperFunction,ViaPad*%
%ADD30C,0.250000*%
%TD*%
%TA.AperFunction,ViaPad*%
%ADD31C,0.300000*%
%TD*%
%TA.AperFunction,Conductor*%
%ADD32C,0.200000*%
%TD*%
%TA.AperFunction,Conductor*%
%ADD33C,0.100000*%
%TD*%
%TA.AperFunction,Conductor*%
%ADD34C,0.090000*%
%TD*%
%TA.AperFunction,Conductor*%
%ADD35C,0.110000*%
%TD*%
G04 APERTURE END LIST*
D10*
%TO.N,GND*%
%TO.C,H1202*%
X94475000Y-3500000D03*
X95068109Y-2068109D03*
X95068109Y-4931891D03*
X96500000Y-1475000D03*
D11*
X96500000Y-3500000D03*
D10*
X96500000Y-5525000D03*
X97931891Y-2068109D03*
X97931891Y-4931891D03*
X98525000Y-3500000D03*
%TD*%
%TO.N,GND*%
%TO.C,H1204*%
X94475000Y-68500000D03*
X95068109Y-67068109D03*
X95068109Y-69931891D03*
X96500000Y-66475000D03*
D11*
X96500000Y-68500000D03*
D10*
X96500000Y-70525000D03*
X97931891Y-67068109D03*
X97931891Y-69931891D03*
X98525000Y-68500000D03*
%TD*%
%TO.N,GND*%
%TO.C,H1203*%
X1475000Y-68500000D03*
X2068109Y-67068109D03*
X2068109Y-69931891D03*
X3500000Y-66475000D03*
D11*
X3500000Y-68500000D03*
D10*
X3500000Y-70525000D03*
X4931891Y-67068109D03*
X4931891Y-69931891D03*
X5525000Y-68500000D03*
%TD*%
D12*
%TO.N,GND*%
%TO.C,J101*%
X7680000Y-65675000D03*
D13*
X7680000Y-69855000D03*
D12*
X16320000Y-65675000D03*
D13*
X16320000Y-69855000D03*
%TD*%
D14*
%TO.N,GND*%
%TO.C,J901*%
X41250000Y-61900000D03*
X26750000Y-61900000D03*
D15*
X41250000Y-67860000D03*
X26750000Y-67860000D03*
%TD*%
D16*
%TO.N,ETH_LED_G_A*%
%TO.C,J1301*%
X95855000Y-62600000D03*
%TO.N,GND*%
X95855000Y-60060000D03*
%TO.N,ETH_LED_Y_A*%
X95855000Y-51940000D03*
%TO.N,PHY_LED2*%
X95855000Y-49400000D03*
D17*
%TO.N,ETH_CT_A*%
X82015000Y-61720000D03*
D18*
%TO.N,ETH_MDI0_P*%
X84555000Y-60450000D03*
%TO.N,ETH_MDI0_N*%
X82015000Y-59180000D03*
%TO.N,ETH_MDI1_P*%
X84555000Y-57910000D03*
%TO.N,ETH_MDI2_P*%
X82015000Y-56640000D03*
%TO.N,ETH_MDI2_N*%
X84555000Y-55370000D03*
%TO.N,ETH_MDI1_N*%
X82015000Y-54090000D03*
%TO.N,ETH_MDI3_P*%
X84555000Y-52830000D03*
%TO.N,ETH_MDI3_N*%
X82015000Y-51560000D03*
%TO.N,ETH_CT_B*%
X84555000Y-50290000D03*
D19*
%TO.N,GND*%
X87855000Y-48250000D03*
X87855000Y-63750000D03*
%TD*%
D20*
%TO.N,GND*%
%TO.C,J501*%
X50000000Y-68600000D03*
D16*
%TO.N,DBG_UART_TX*%
X52540000Y-68600000D03*
%TO.N,DBG_UART_RX*%
X55080000Y-68600000D03*
%TD*%
D10*
%TO.N,GND*%
%TO.C,H1201*%
X1475000Y-3500000D03*
X2068109Y-2068109D03*
X2068109Y-4931891D03*
X3500000Y-1475000D03*
D11*
X3500000Y-3500000D03*
D10*
X3500000Y-5525000D03*
X4931891Y-2068109D03*
X4931891Y-4931891D03*
X5525000Y-3500000D03*
%TD*%
D21*
%TO.N,GND*%
%TO.C,U201*%
X42650000Y-9650000D03*
X42650000Y-10825000D03*
X42650000Y-12000000D03*
X42650000Y-13175000D03*
X42650000Y-14350000D03*
X43825000Y-9650000D03*
X43825000Y-10825000D03*
X43825000Y-12000000D03*
X43825000Y-13175000D03*
X43825000Y-14350000D03*
X45000000Y-9650000D03*
X45000000Y-10825000D03*
X45000000Y-12000000D03*
X45000000Y-13175000D03*
X45000000Y-14350000D03*
X46175000Y-9650000D03*
X46175000Y-10825000D03*
X46175000Y-12000000D03*
X46175000Y-13175000D03*
X46175000Y-14350000D03*
X47350000Y-9650000D03*
X47350000Y-10825000D03*
X47350000Y-12000000D03*
X47350000Y-13175000D03*
X47350000Y-14350000D03*
%TD*%
D22*
%TO.N,VBUS_USB3A*%
%TO.C,J1001*%
X89655000Y-19500000D03*
D23*
%TO.N,USB3A_DM*%
X89655000Y-17000000D03*
%TO.N,USB3A_DP*%
X89655000Y-15000000D03*
%TO.N,GND*%
X89655000Y-12500000D03*
%TO.N,USB3_RXN*%
X88155000Y-12000000D03*
%TO.N,USB3_RXP*%
X88155000Y-14000000D03*
%TO.N,GND*%
X88155000Y-16000000D03*
%TO.N,USB3A_SSTXN*%
X88155000Y-18000000D03*
%TO.N,USB3A_SSTXP*%
X88155000Y-20000000D03*
D24*
%TO.N,GND*%
X88905000Y-22400000D03*
D25*
X97405000Y-22400000D03*
D24*
X88905000Y-9600000D03*
D25*
X97405000Y-9600000D03*
%TD*%
D26*
%TO.N,VBUS_USB2A*%
%TO.C,J1401*%
X88445000Y-38300000D03*
D27*
%TO.N,USBA1_DM*%
X88445000Y-35800000D03*
%TO.N,USBA1_DP*%
X88445000Y-33800000D03*
%TO.N,GND*%
X88445000Y-31300000D03*
%TO.N,VBUS_USB2A*%
X85825000Y-38300000D03*
%TO.N,USBA2_DM*%
X85825000Y-35800000D03*
%TO.N,USBA2_DP*%
X85825000Y-33800000D03*
%TO.N,GND*%
X85825000Y-31300000D03*
D28*
X91155000Y-41370000D03*
X91155000Y-28230000D03*
X85475000Y-41370000D03*
X85475000Y-28230000D03*
%TD*%
D29*
%TO.N,BUCK_2V0_SW*%
X5568300Y-20436600D03*
X7941200Y-24171300D03*
%TO.N,BUCK_M2_SW*%
X59773200Y-55732500D03*
X57292800Y-55279800D03*
%TO.N,BUCK_VDD2L_SW*%
X5673000Y-34156900D03*
X6732700Y-36323400D03*
D30*
%TO.N,DBG_UART_RX*%
X52150000Y-35750000D03*
%TO.N,DBG_UART_TX*%
X51600000Y-35400000D03*
D29*
%TO.N,DCPHY_VREG*%
X42479500Y-24063100D03*
X40868400Y-16261400D03*
D30*
X45330000Y-36900000D03*
D29*
%TO.N,DDR_RESET_L*%
X20312200Y-45334600D03*
D31*
X19400000Y-30900000D03*
D30*
X40200000Y-35400000D03*
%TO.N,DDR_ZQ_A*%
X40800000Y-34200000D03*
D29*
X41221900Y-51559100D03*
D30*
%TO.N,DDR_ZQ_B*%
X40800000Y-30600000D03*
D29*
X45179400Y-49063900D03*
D30*
%TO.N,EMMC_CLK*%
X51000000Y-29400000D03*
D29*
%TO.N,EMMC_CMD*%
X67001600Y-22878600D03*
D30*
X50400000Y-28800000D03*
%TO.N,EMMC_DAT0*%
X52150000Y-26950000D03*
D29*
%TO.N,EMMC_DAT1*%
X64847800Y-16701900D03*
D30*
X52700000Y-26950000D03*
D29*
%TO.N,EMMC_DAT2*%
X49038600Y-20274300D03*
D30*
X51600000Y-27000000D03*
D29*
X62182500Y-22748000D03*
D30*
%TO.N,EMMC_DAT3*%
X52150000Y-27500000D03*
%TO.N,EMMC_DAT4*%
X51600000Y-27600000D03*
%TO.N,EMMC_DAT5*%
X52150000Y-28050000D03*
%TO.N,EMMC_DAT6*%
X52150000Y-26400000D03*
%TO.N,EMMC_DAT7*%
X51600000Y-26400000D03*
%TO.N,EMMC_DS*%
X51000000Y-28800000D03*
D29*
%TO.N,EMMC_RSTN*%
X66039500Y-21710200D03*
D30*
X51000000Y-27600000D03*
D29*
%TO.N,ETH_CT_B*%
X86853000Y-64730000D03*
D30*
%TO.N,ETH_MDC*%
X41400000Y-25800000D03*
D29*
%TO.N,ETH_MDI0_N*%
X70882400Y-63522100D03*
%TO.N,ETH_MDI0_P*%
X69750800Y-62403500D03*
%TO.N,ETH_MDI1_N*%
X72270400Y-64008100D03*
%TO.N,ETH_MDI2_P*%
X73152200Y-63791100D03*
%TO.N,ETH_MDI3_N*%
X74314600Y-62607000D03*
%TO.N,ETH_MDIO*%
X64970200Y-62439900D03*
D30*
X41700000Y-24750000D03*
D29*
X63999700Y-25523900D03*
X75180600Y-60616500D03*
D31*
%TO.N,GND*%
X22600000Y-35800000D03*
D30*
X39600000Y-30600000D03*
D29*
X56017400Y-23962600D03*
X26900000Y-5075000D03*
D31*
X22600000Y-38600000D03*
D30*
X39000000Y-28800000D03*
X47280000Y-40150000D03*
D29*
X57129000Y-21854600D03*
X21975000Y-60000000D03*
D30*
X40800000Y-35400000D03*
D29*
X15200000Y-29000000D03*
X32629600Y-23354000D03*
X63240000Y-12500000D03*
X50980000Y-47260000D03*
X10780000Y-62305000D03*
X35335600Y-19355600D03*
D31*
X25000000Y-36500000D03*
D30*
X45980000Y-29750000D03*
D31*
X25000000Y-34400000D03*
X22600000Y-27400000D03*
D30*
X51600000Y-30000000D03*
D31*
X20200000Y-28100000D03*
D29*
X57129600Y-3354000D03*
D30*
X49200000Y-31200000D03*
X40800000Y-36000000D03*
X44020000Y-34950000D03*
D29*
X73661700Y-61661700D03*
D31*
X19400000Y-28800000D03*
D30*
X38400000Y-35400000D03*
D29*
X56345200Y-27337900D03*
D30*
X46800000Y-27000000D03*
D31*
X25000000Y-33700000D03*
D29*
X58358200Y-25215800D03*
D30*
X51600000Y-38400000D03*
D29*
X23221400Y-45794700D03*
D31*
X30600000Y-28800000D03*
D29*
X38740000Y-56925000D03*
D30*
X46800000Y-28200000D03*
X39600000Y-39000000D03*
D29*
X69517400Y-65037400D03*
X17429100Y-31654100D03*
X75770800Y-56202100D03*
X35480000Y-36960000D03*
X59240000Y-23000000D03*
X22442600Y-21462600D03*
X48770800Y-21702100D03*
D30*
X46630000Y-34950000D03*
D31*
X26600000Y-31600000D03*
D29*
X77740000Y-57500000D03*
D30*
X46630000Y-40150000D03*
D31*
X20200000Y-29500000D03*
D29*
X36182100Y-39790800D03*
D30*
X38950000Y-24750000D03*
X40800000Y-38400000D03*
X41430000Y-36900000D03*
D31*
X22600000Y-26000000D03*
D30*
X38400000Y-37800000D03*
D29*
X61740000Y-23000000D03*
X72780900Y-10330900D03*
X43608100Y-24047100D03*
D30*
X49200000Y-38400000D03*
D29*
X67625000Y-2500000D03*
X56689200Y-47702100D03*
X50689200Y-48797900D03*
X29240000Y-44000000D03*
X60700000Y-1500000D03*
D30*
X45980000Y-36900000D03*
D31*
X24200000Y-28100000D03*
X27400000Y-40000000D03*
D29*
X7975000Y-33050000D03*
X34620900Y-23345900D03*
D31*
X27400000Y-38600000D03*
D29*
X48840000Y-55000000D03*
D30*
X40800000Y-31200000D03*
X43380000Y-29750000D03*
X51600000Y-28200000D03*
D29*
X59017400Y-42037400D03*
X77218800Y-42018700D03*
X30075000Y-6050000D03*
X76750000Y-43350000D03*
D30*
X49800000Y-29400000D03*
D29*
X41280000Y-56925000D03*
X19980000Y-44760000D03*
X50980000Y-44260000D03*
D31*
X21800000Y-34400000D03*
D30*
X44670000Y-29100000D03*
D29*
X78682100Y-56290800D03*
D30*
X38400000Y-32400000D03*
X46630000Y-36250000D03*
D29*
X32500000Y-21374300D03*
D30*
X41430000Y-39500000D03*
X45980000Y-31700000D03*
D29*
X38000000Y-58240000D03*
X12700000Y-23000000D03*
D30*
X51000000Y-30600000D03*
D29*
X37270800Y-18702100D03*
X40900000Y-5075000D03*
X17429100Y-33654100D03*
X26929100Y-21154100D03*
X7975000Y-26050000D03*
D31*
X24200000Y-31600000D03*
D29*
X72050000Y-65650000D03*
D30*
X49800000Y-33000000D03*
D29*
X55480000Y-34990000D03*
X23740000Y-23500000D03*
D31*
X26600000Y-34400000D03*
X29000000Y-31600000D03*
D29*
X39480000Y-17260000D03*
D30*
X37300000Y-24750000D03*
X40200000Y-28800000D03*
X38400000Y-30000000D03*
X51000000Y-39600000D03*
D31*
X29000000Y-34400000D03*
X20200000Y-36500000D03*
D29*
X14740000Y-17500000D03*
X76400000Y-46750000D03*
X60780000Y-20000000D03*
D30*
X42600000Y-27000000D03*
X42730000Y-31700000D03*
D31*
X25000000Y-32300000D03*
D30*
X40200000Y-37200000D03*
D31*
X23400000Y-30900000D03*
X23400000Y-34400000D03*
D30*
X38400000Y-28200000D03*
D31*
X23400000Y-37900000D03*
D30*
X40200000Y-36600000D03*
X44670000Y-40150000D03*
X45980000Y-34300000D03*
X49800000Y-28800000D03*
D31*
X29800000Y-33000000D03*
D29*
X63275000Y-30425000D03*
X36980000Y-48760000D03*
D30*
X44670000Y-30400000D03*
D31*
X28200000Y-30900000D03*
D30*
X37800000Y-36600000D03*
D31*
X24200000Y-37900000D03*
D29*
X49017400Y-50037400D03*
D30*
X52700000Y-33000000D03*
D29*
X6525000Y-14475000D03*
D30*
X41150000Y-41250000D03*
X49200000Y-31800000D03*
D29*
X36442600Y-15962600D03*
X63240000Y-1500000D03*
X59480000Y-22260000D03*
X36096400Y-34433700D03*
X59517400Y-34037400D03*
D30*
X45980000Y-40150000D03*
X44670000Y-31700000D03*
D29*
X16980000Y-37740000D03*
D30*
X47930000Y-39500000D03*
D29*
X74438000Y-44152500D03*
D30*
X38400000Y-27000000D03*
D29*
X66780000Y-55500000D03*
X69510000Y-31920000D03*
X70240000Y-34000000D03*
X15780000Y-62305000D03*
D30*
X41430000Y-34950000D03*
D29*
X52929100Y-19654100D03*
X41182100Y-43790800D03*
D31*
X29800000Y-28100000D03*
D29*
X5421000Y-37854600D03*
X36671600Y-23108500D03*
D30*
X51600000Y-29400000D03*
D29*
X29200000Y-13000000D03*
D30*
X40200000Y-39000000D03*
X51600000Y-31200000D03*
D29*
X70200000Y-55500000D03*
D30*
X43380000Y-33000000D03*
X47280000Y-34950000D03*
X49200000Y-33000000D03*
X39000000Y-36600000D03*
X39600000Y-37200000D03*
D29*
X53346300Y-23139200D03*
X56280000Y-39000000D03*
D31*
X25000000Y-28800000D03*
X22600000Y-40000000D03*
D30*
X40800000Y-33600000D03*
D29*
X35189200Y-23797900D03*
D30*
X52700000Y-28050000D03*
X45980000Y-34950000D03*
D29*
X26740000Y-7000000D03*
X20942600Y-21462600D03*
D30*
X45330000Y-40150000D03*
D29*
X66732000Y-21651300D03*
D30*
X50400000Y-33600000D03*
D29*
X5780000Y-32500000D03*
D30*
X39000000Y-30000000D03*
D29*
X26182100Y-23790800D03*
X43017400Y-18537400D03*
D31*
X23400000Y-28100000D03*
D29*
X70240000Y-37000000D03*
D31*
X29000000Y-37200000D03*
D30*
X49200000Y-28800000D03*
X39600000Y-31800000D03*
X38400000Y-30600000D03*
D29*
X70629000Y-13354600D03*
D30*
X40200000Y-31800000D03*
X42080000Y-34950000D03*
D29*
X12740000Y-40000000D03*
X24961900Y-21375900D03*
X78780000Y-14000000D03*
X28838700Y-21889900D03*
D30*
X46630000Y-29750000D03*
D29*
X71480000Y-41740000D03*
X76600000Y-42250000D03*
D31*
X28200000Y-31600000D03*
D29*
X15240000Y-37000000D03*
D30*
X49200000Y-39600000D03*
X46630000Y-36900000D03*
D29*
X67740000Y-4500000D03*
X4150000Y-56855000D03*
D30*
X52700000Y-24750000D03*
D31*
X30600000Y-33000000D03*
D29*
X80770800Y-34702100D03*
D30*
X41430000Y-29100000D03*
X47930000Y-30400000D03*
D29*
X37980000Y-44240000D03*
X55270800Y-19702100D03*
X90175000Y-66500000D03*
X6525000Y-11525000D03*
D31*
X30600000Y-31600000D03*
D30*
X39000000Y-33600000D03*
X46630000Y-39500000D03*
D29*
X21240000Y-42500000D03*
D30*
X37800000Y-34200000D03*
D29*
X66740000Y-57000000D03*
X13629000Y-20854600D03*
X21770800Y-24202100D03*
X66262800Y-20988000D03*
D30*
X51600000Y-31800000D03*
D29*
X58120900Y-8154100D03*
D30*
X45000000Y-28200000D03*
D29*
X33647300Y-17862700D03*
D30*
X38400000Y-26400000D03*
D29*
X14240000Y-31500000D03*
D30*
X48580000Y-37550000D03*
D31*
X25000000Y-38600000D03*
D29*
X68429100Y-8154100D03*
D31*
X29800000Y-36500000D03*
D29*
X39942600Y-45537400D03*
D30*
X52150000Y-34100000D03*
X39600000Y-32400000D03*
X40800000Y-32400000D03*
X47280000Y-39500000D03*
X44020000Y-32350000D03*
D29*
X16689200Y-23797900D03*
D30*
X46630000Y-35600000D03*
X39600000Y-27000000D03*
D29*
X59975000Y-4500000D03*
D30*
X46630000Y-31700000D03*
D31*
X25800000Y-28100000D03*
D30*
X44670000Y-38850000D03*
X40800000Y-36600000D03*
D31*
X21000000Y-30900000D03*
D29*
X14200000Y-25000000D03*
D30*
X44450000Y-41250000D03*
X52700000Y-40150000D03*
D31*
X19400000Y-33000000D03*
D29*
X74629600Y-12354000D03*
D31*
X28200000Y-35100000D03*
D30*
X43380000Y-32350000D03*
D29*
X5834700Y-19475700D03*
X33900000Y-5075000D03*
X81200000Y-44000000D03*
X70182100Y-35790800D03*
D30*
X41430000Y-37550000D03*
D29*
X57980000Y-27790000D03*
D31*
X25000000Y-31600000D03*
D29*
X65539400Y-30399100D03*
D30*
X47280000Y-33650000D03*
D29*
X15780000Y-22000000D03*
X59517400Y-30962600D03*
D30*
X38400000Y-34200000D03*
D29*
X66750000Y-60950000D03*
D30*
X43380000Y-39500000D03*
D29*
X69035600Y-10449700D03*
D31*
X25000000Y-26700000D03*
X22600000Y-33000000D03*
D29*
X1965500Y-15955500D03*
X72740000Y-7500000D03*
D30*
X49800000Y-31800000D03*
X40800000Y-28800000D03*
D29*
X43304700Y-52711400D03*
X63740000Y-26000000D03*
D30*
X49200000Y-32400000D03*
D29*
X33500000Y-62890000D03*
D30*
X39600000Y-37800000D03*
X44670000Y-36250000D03*
D29*
X43698800Y-19225700D03*
X55837500Y-44090100D03*
X45770800Y-21202100D03*
X11652500Y-29296900D03*
D30*
X40800000Y-31800000D03*
D29*
X56275000Y-31875000D03*
X51804700Y-14288600D03*
X16503400Y-20152800D03*
D30*
X44670000Y-29750000D03*
D29*
X58129000Y-20354600D03*
D30*
X38400000Y-36000000D03*
D31*
X29000000Y-28800000D03*
D30*
X48580000Y-36250000D03*
D29*
X8480000Y-37760000D03*
D30*
X42730000Y-40150000D03*
X45330000Y-29750000D03*
D31*
X25000000Y-29500000D03*
D29*
X50980000Y-45760000D03*
D30*
X44020000Y-33650000D03*
D29*
X30682100Y-23790800D03*
D30*
X51000000Y-28200000D03*
X38400000Y-25800000D03*
D29*
X70200000Y-46000000D03*
D31*
X19400000Y-37200000D03*
D30*
X45330000Y-38200000D03*
D29*
X81200000Y-8000000D03*
D30*
X38400000Y-37200000D03*
D29*
X49017400Y-18537400D03*
X30629600Y-21354000D03*
X28740000Y-42500000D03*
D30*
X49200000Y-37200000D03*
D29*
X13392500Y-57597500D03*
D30*
X48580000Y-29750000D03*
D29*
X60620900Y-34345900D03*
X13280000Y-62305000D03*
D31*
X26600000Y-35100000D03*
D30*
X44020000Y-34300000D03*
D29*
X74438000Y-51168300D03*
D31*
X25000000Y-37200000D03*
D29*
X35629000Y-29145400D03*
X38050000Y-5075000D03*
X76400000Y-49750000D03*
X36500000Y-62890000D03*
X38535600Y-21949700D03*
X39108100Y-21852900D03*
X40740000Y-50500000D03*
X76740000Y-66500000D03*
X62393900Y-30658900D03*
D30*
X51000000Y-38400000D03*
D31*
X27400000Y-35800000D03*
D29*
X52775000Y-17925000D03*
D30*
X40200000Y-28200000D03*
D29*
X54275000Y-47925000D03*
D30*
X41430000Y-35600000D03*
X49800000Y-32400000D03*
X47930000Y-38200000D03*
D31*
X23400000Y-35100000D03*
D29*
X35000000Y-62890000D03*
D30*
X45330000Y-39500000D03*
D31*
X25800000Y-32300000D03*
D29*
X56182100Y-34790800D03*
X68510000Y-24770000D03*
X65307800Y-30967200D03*
D30*
X43380000Y-40150000D03*
X47280000Y-30400000D03*
X41430000Y-34300000D03*
D29*
X28275000Y-23925000D03*
D31*
X25000000Y-30900000D03*
X29800000Y-37900000D03*
D29*
X74780000Y-17500000D03*
D30*
X47930000Y-36250000D03*
D29*
X23740000Y-42500000D03*
X25200000Y-18000000D03*
X43078800Y-22184300D03*
X40740000Y-49000000D03*
D30*
X49800000Y-30000000D03*
X47930000Y-34300000D03*
D29*
X37902200Y-19789700D03*
D30*
X43380000Y-36250000D03*
X46630000Y-37550000D03*
D29*
X70200000Y-44000000D03*
D30*
X37300000Y-41250000D03*
D29*
X35280000Y-49000000D03*
X56017400Y-18037400D03*
D30*
X51600000Y-28800000D03*
X45000000Y-27000000D03*
X39600000Y-33000000D03*
X44020000Y-40150000D03*
D31*
X30600000Y-37200000D03*
D30*
X49200000Y-40200000D03*
D31*
X25000000Y-35100000D03*
D29*
X64204900Y-20975800D03*
X78719400Y-37786700D03*
D30*
X44670000Y-31050000D03*
X45980000Y-38200000D03*
D29*
X52624400Y-44355600D03*
X65965500Y-63955500D03*
D31*
X29000000Y-35100000D03*
D30*
X50500000Y-40700000D03*
X39000000Y-27600000D03*
D29*
X59942600Y-37962600D03*
D30*
X49200000Y-30000000D03*
X38400000Y-33600000D03*
D31*
X29000000Y-35800000D03*
D30*
X39000000Y-37200000D03*
D29*
X14240000Y-34500000D03*
D30*
X39000000Y-40200000D03*
D29*
X64700000Y-10500000D03*
D30*
X41430000Y-30400000D03*
D29*
X54280000Y-50500000D03*
X76400000Y-48250000D03*
D30*
X39000000Y-25800000D03*
D29*
X47817800Y-13167200D03*
D30*
X40800000Y-40200000D03*
D29*
X75929100Y-14654100D03*
X17429100Y-35654100D03*
X79740000Y-46000000D03*
D30*
X44020000Y-31700000D03*
D31*
X26600000Y-37900000D03*
D29*
X24150000Y-5330000D03*
D31*
X25800000Y-33700000D03*
D29*
X61517400Y-42037400D03*
X56366900Y-38367400D03*
D30*
X44670000Y-36900000D03*
D31*
X25800000Y-30200000D03*
D30*
X47280000Y-31050000D03*
D29*
X45421000Y-18854600D03*
X61890300Y-55475700D03*
D31*
X21800000Y-30900000D03*
D29*
X34450000Y-44000000D03*
D31*
X24200000Y-35800000D03*
D29*
X15240000Y-38500000D03*
X74250000Y-67350000D03*
X27700000Y-11000000D03*
D30*
X43380000Y-38200000D03*
D29*
X60620900Y-27345900D03*
D30*
X44670000Y-32350000D03*
X48580000Y-34950000D03*
D29*
X18000000Y-52755000D03*
D31*
X21800000Y-39300000D03*
D29*
X45120900Y-23154100D03*
D30*
X51600000Y-33000000D03*
X43380000Y-35600000D03*
D31*
X29000000Y-30200000D03*
D29*
X8109700Y-40425700D03*
D30*
X51600000Y-33600000D03*
D31*
X21000000Y-35800000D03*
D29*
X8300400Y-65845600D03*
D30*
X51000000Y-40200000D03*
D29*
X18715300Y-23711400D03*
D30*
X51600000Y-37800000D03*
X47930000Y-29100000D03*
D29*
X63517400Y-37537400D03*
D31*
X29800000Y-29500000D03*
D29*
X49017400Y-45537400D03*
D30*
X50400000Y-31800000D03*
X42730000Y-29100000D03*
X38950000Y-41250000D03*
X44020000Y-35600000D03*
D29*
X79975000Y-11000000D03*
D30*
X48580000Y-29100000D03*
D29*
X30500000Y-62890000D03*
D31*
X27400000Y-26000000D03*
D30*
X51600000Y-39000000D03*
X49800000Y-27000000D03*
X44020000Y-39500000D03*
D29*
X58690100Y-46573300D03*
D30*
X40800000Y-29400000D03*
X45330000Y-33000000D03*
D31*
X28200000Y-34400000D03*
D29*
X42480000Y-51260000D03*
X21095600Y-18189900D03*
X60241100Y-45579800D03*
X77047600Y-61738100D03*
D30*
X44450000Y-40700000D03*
D29*
X76180400Y-54048900D03*
D31*
X29000000Y-33000000D03*
D29*
X80340000Y-21000000D03*
X72834700Y-6425700D03*
D30*
X39600000Y-40200000D03*
D29*
X21240000Y-23500000D03*
X81240000Y-32500000D03*
X56980000Y-46260000D03*
D30*
X41430000Y-38200000D03*
D29*
X25480000Y-43260000D03*
D31*
X22600000Y-30200000D03*
X21000000Y-33000000D03*
D30*
X37800000Y-39000000D03*
D31*
X27400000Y-30200000D03*
D30*
X49200000Y-29400000D03*
X50400000Y-29400000D03*
D29*
X90117100Y-45790800D03*
X43240000Y-49000000D03*
D30*
X41430000Y-38850000D03*
D29*
X6700000Y-23500000D03*
D30*
X37800000Y-27600000D03*
D31*
X21800000Y-26700000D03*
D30*
X39000000Y-28200000D03*
X39600000Y-33600000D03*
X42730000Y-35600000D03*
X48580000Y-38200000D03*
D29*
X23240000Y-44000000D03*
X39629600Y-8354000D03*
D30*
X39000000Y-31200000D03*
D29*
X40682100Y-20709200D03*
D30*
X49200000Y-34800000D03*
D31*
X27400000Y-27400000D03*
D29*
X49072300Y-50743300D03*
D31*
X20200000Y-37900000D03*
X25800000Y-37900000D03*
D29*
X17740000Y-40000000D03*
D30*
X42080000Y-40150000D03*
D31*
X30600000Y-34400000D03*
D30*
X39000000Y-31800000D03*
X49800000Y-38400000D03*
D29*
X29240000Y-7000000D03*
X7400000Y-56855000D03*
D30*
X47280000Y-33000000D03*
X39600000Y-35400000D03*
D31*
X27400000Y-33000000D03*
X21000000Y-37200000D03*
D30*
X44020000Y-29750000D03*
D29*
X54373300Y-20588600D03*
D30*
X37800000Y-30000000D03*
D31*
X28200000Y-26700000D03*
D30*
X46630000Y-29100000D03*
X49200000Y-33600000D03*
D29*
X61260000Y-36682400D03*
X62182100Y-31790800D03*
X78442600Y-41537400D03*
X59780000Y-54500000D03*
X38942600Y-18962600D03*
X73240000Y-69500000D03*
X51740000Y-22500000D03*
D30*
X44670000Y-39500000D03*
X51600000Y-30600000D03*
D29*
X50442600Y-20462600D03*
D30*
X44670000Y-37550000D03*
D29*
X46700000Y-48000000D03*
X62148200Y-32643600D03*
X14240000Y-33000000D03*
D30*
X41430000Y-36250000D03*
D31*
X20200000Y-33000000D03*
X21800000Y-35100000D03*
D30*
X47280000Y-36250000D03*
D29*
X56017400Y-26537400D03*
D31*
X28200000Y-33000000D03*
D30*
X47280000Y-31700000D03*
X50400000Y-38400000D03*
D29*
X62980000Y-38490000D03*
D31*
X19400000Y-34400000D03*
D30*
X49800000Y-33600000D03*
D29*
X75751800Y-34779900D03*
X59682100Y-26790800D03*
X70200000Y-41000000D03*
D30*
X49200000Y-39000000D03*
D31*
X25000000Y-27400000D03*
D29*
X16425000Y-64760000D03*
X56966200Y-42012700D03*
X58010000Y-34980000D03*
X59047700Y-37567700D03*
X74213200Y-40836800D03*
X46263500Y-44937600D03*
D30*
X42730000Y-29750000D03*
D29*
X51270800Y-51702100D03*
D30*
X45980000Y-38850000D03*
D29*
X12350000Y-4830000D03*
D30*
X42730000Y-39500000D03*
D31*
X25800000Y-34400000D03*
D30*
X39000000Y-39600000D03*
X47280000Y-38200000D03*
X40800000Y-28200000D03*
X48580000Y-40150000D03*
D29*
X56440000Y-41000000D03*
X38942600Y-14462600D03*
D31*
X24200000Y-33700000D03*
D30*
X42730000Y-33650000D03*
D29*
X12740000Y-38500000D03*
X33942600Y-48037400D03*
X860100Y-44344900D03*
X63200000Y-7500000D03*
D31*
X25800000Y-35800000D03*
X21000000Y-34400000D03*
D30*
X39000000Y-29400000D03*
X49800000Y-39000000D03*
D29*
X57425200Y-18147600D03*
X78354600Y-38637200D03*
X55620900Y-31845900D03*
X75721400Y-52794700D03*
X23700000Y-20000000D03*
X73240000Y-53500000D03*
D30*
X46630000Y-38200000D03*
X40200000Y-34800000D03*
D29*
X76399700Y-10585600D03*
D30*
X48580000Y-33000000D03*
D29*
X61240000Y-24500000D03*
X53590000Y-55000000D03*
D30*
X40800000Y-34800000D03*
D29*
X41942600Y-20462600D03*
D31*
X25000000Y-39300000D03*
D30*
X42730000Y-31050000D03*
D29*
X49017400Y-48537400D03*
D30*
X48580000Y-35600000D03*
D29*
X4980000Y-40760000D03*
X64740000Y-34500000D03*
D30*
X40800000Y-37200000D03*
X44670000Y-35600000D03*
D29*
X45050000Y-5075000D03*
D31*
X21000000Y-30200000D03*
D29*
X11578400Y-13124800D03*
X18000000Y-45705000D03*
D31*
X21000000Y-28800000D03*
D30*
X49800000Y-30600000D03*
X39000000Y-39000000D03*
D29*
X77400000Y-2500000D03*
X49016900Y-24047100D03*
X58700000Y-14500000D03*
X67689200Y-63702100D03*
X63721400Y-24794700D03*
X5740000Y-9500000D03*
D30*
X39000000Y-35400000D03*
X47930000Y-29750000D03*
X49800000Y-40200000D03*
D31*
X26600000Y-30900000D03*
D29*
X58770800Y-44702100D03*
D30*
X47930000Y-38850000D03*
D29*
X17347400Y-26886900D03*
X46629600Y-50354000D03*
D30*
X41430000Y-40150000D03*
X38400000Y-38400000D03*
X38400000Y-39000000D03*
D29*
X65250000Y-17160000D03*
D30*
X40800000Y-30000000D03*
D31*
X28200000Y-39300000D03*
D30*
X41430000Y-29750000D03*
X42080000Y-39500000D03*
D29*
X32629600Y-8854000D03*
X36129600Y-8354000D03*
X64475800Y-24795100D03*
X59775000Y-32425000D03*
D30*
X51600000Y-32400000D03*
X40200000Y-38400000D03*
D29*
X25120900Y-43845900D03*
D30*
X48580000Y-36900000D03*
X52700000Y-41250000D03*
X39500000Y-25300000D03*
D29*
X76682100Y-64790800D03*
D31*
X26600000Y-28100000D03*
D29*
X15240000Y-27000000D03*
X41200000Y-47000000D03*
D30*
X39600000Y-30000000D03*
D29*
X34442600Y-20962600D03*
D30*
X38400000Y-33000000D03*
D29*
X57980000Y-40240000D03*
D31*
X24200000Y-32300000D03*
D29*
X54240000Y-49000000D03*
D30*
X40050000Y-40700000D03*
D29*
X74442600Y-26962600D03*
X32554500Y-19544500D03*
D30*
X50400000Y-32400000D03*
X40200000Y-27600000D03*
X44020000Y-38200000D03*
X45980000Y-35600000D03*
D29*
X55480000Y-27790000D03*
D30*
X52150000Y-33000000D03*
D29*
X63442600Y-32462600D03*
D30*
X49800000Y-31200000D03*
D29*
X57127800Y-17525200D03*
X63780000Y-62000000D03*
D30*
X39000000Y-34800000D03*
D29*
X48050000Y-12000000D03*
D30*
X51600000Y-39600000D03*
X40800000Y-33000000D03*
D29*
X61240000Y-40000000D03*
D30*
X43200000Y-28200000D03*
X47930000Y-40150000D03*
D29*
X49017400Y-44037400D03*
D31*
X24200000Y-30200000D03*
D30*
X45330000Y-35600000D03*
X49800000Y-37800000D03*
X48580000Y-34300000D03*
D31*
X19400000Y-31600000D03*
X21800000Y-33000000D03*
D30*
X48580000Y-30400000D03*
D29*
X65240000Y-4500000D03*
D30*
X37800000Y-32400000D03*
X46630000Y-31050000D03*
D31*
X21000000Y-31600000D03*
D30*
X37300000Y-25850000D03*
X42080000Y-30400000D03*
D29*
X16980000Y-28260000D03*
X38240000Y-21000000D03*
D30*
X38400000Y-31800000D03*
X50500000Y-41250000D03*
D29*
X81240000Y-31000000D03*
D30*
X50400000Y-30600000D03*
D29*
X60205500Y-30539400D03*
D30*
%TO.N,HDMI_CEC*%
X38400000Y-40700000D03*
D29*
%TO.N,HDMI_CEC_5V*%
X36247700Y-52768100D03*
X31672600Y-54048900D03*
%TO.N,HDMI_D0N_C*%
X47227200Y-53309800D03*
X35133700Y-54299500D03*
X50299000Y-55500000D03*
%TO.N,HDMI_D0P_C*%
X35692700Y-56303400D03*
X48543600Y-51696200D03*
X44490000Y-51308100D03*
X42982200Y-51308100D03*
%TO.N,HDMI_D0_TERM*%
X41588300Y-42488300D03*
X46316100Y-28812500D03*
X45489700Y-42052000D03*
X45538500Y-28144900D03*
X46518200Y-23212700D03*
%TO.N,HDMI_D1N_C*%
X51439000Y-50000100D03*
X41701600Y-47464100D03*
%TO.N,HDMI_D1P_C*%
X38740000Y-56333100D03*
X56188100Y-55293800D03*
%TO.N,HDMI_D1_TERM*%
X40636600Y-21410900D03*
X38891000Y-42453400D03*
%TO.N,HDMI_D2N_C*%
X56188100Y-50314200D03*
X56374000Y-37706100D03*
X50991400Y-55500000D03*
X51472000Y-53910100D03*
%TO.N,HDMI_D2P_C*%
X39068600Y-60289000D03*
X54682800Y-52805600D03*
X51696400Y-53266300D03*
X54681200Y-43140500D03*
%TO.N,HDMI_D2_TERM*%
X58840600Y-38115200D03*
X57199600Y-34172900D03*
%TO.N,HDMI_D3N_C*%
X45032300Y-56417200D03*
X17384700Y-56708100D03*
X33625900Y-59251200D03*
%TO.N,HDMI_D3P_C*%
X33875900Y-58674800D03*
X47407100Y-55123300D03*
X22313900Y-54048900D03*
%TO.N,HDMI_D3_TERM*%
X18088700Y-23894000D03*
X37768600Y-17923900D03*
%TO.N,HDMI_HPD*%
X38539500Y-49572200D03*
D30*
X37850000Y-40700000D03*
D29*
%TO.N,HDMI_HPD_5V*%
X38868700Y-59476100D03*
X30209000Y-59476100D03*
%TO.N,HDMI_SCL*%
X34103000Y-58168600D03*
X36144900Y-58238700D03*
D30*
X37850000Y-41250000D03*
D29*
X37560400Y-46315100D03*
%TO.N,HDMI_SCL_5V*%
X31571600Y-58653200D03*
X35182000Y-57836500D03*
%TO.N,HDMI_SDA*%
X32698700Y-50314200D03*
D30*
X38400000Y-40200000D03*
D29*
%TO.N,HDMI_SDA_5V*%
X33937400Y-53374200D03*
X30128400Y-58742700D03*
D30*
%TO.N,HDMI_TX_D0N*%
X51600000Y-40700000D03*
D29*
%TO.N,HDMI_TX_D0P*%
X46352000Y-42488300D03*
D30*
X51600000Y-40200000D03*
%TO.N,HDMI_TX_D1N*%
X52150000Y-41250000D03*
D29*
X50511400Y-53051300D03*
D30*
%TO.N,HDMI_TX_D1P*%
X52150000Y-40700000D03*
D29*
%TO.N,HDMI_TX_D2N*%
X49661300Y-56531400D03*
D30*
X52700000Y-40700000D03*
D29*
X52563300Y-51691500D03*
D30*
%TO.N,HDMI_TX_D2P*%
X52150000Y-40150000D03*
D29*
X53517700Y-39110100D03*
%TO.N,HDMI_TX_D3N*%
X46950700Y-56581000D03*
D30*
X51050000Y-40700000D03*
%TO.N,HDMI_TX_D3P*%
X51050000Y-41250000D03*
D29*
%TO.N,HDMI_TX_ON_H*%
X43665000Y-20356600D03*
D30*
X38950000Y-40700000D03*
D29*
X47415100Y-21726000D03*
D30*
%TO.N,HDMI_TX_REXT*%
X49200000Y-37800000D03*
D29*
%TO.N,HUB_OVC_L*%
X72843900Y-16750000D03*
X73216000Y-33776900D03*
%TO.N,HUB_RST_L*%
X74744600Y-28985100D03*
X74354100Y-30687700D03*
%TO.N,HUB_UP_DM*%
X70704600Y-30116700D03*
D30*
X44020000Y-38850000D03*
D29*
%TO.N,HUB_UP_DP*%
X70167000Y-32470800D03*
D30*
X43380000Y-38850000D03*
D29*
%TO.N,LED_SYS_A*%
X12889600Y-52870400D03*
%TO.N,LED_SYS_L*%
X4229900Y-42844800D03*
D30*
X50400000Y-37800000D03*
D31*
%TO.N,LP5_A0_A*%
X21800000Y-30200000D03*
D29*
X31188200Y-28110800D03*
D30*
X37300000Y-33000000D03*
%TO.N,LP5_A0_B*%
X37300000Y-30250000D03*
D31*
X28200000Y-35800000D03*
%TO.N,LP5_A1_A*%
X22600000Y-30900000D03*
D30*
X37800000Y-33000000D03*
%TO.N,LP5_A1_B*%
X37800000Y-30600000D03*
D31*
X27400000Y-35100000D03*
D29*
%TO.N,LP5_A2_A*%
X31343900Y-29477100D03*
D31*
X25000000Y-30200000D03*
D30*
X39000000Y-34200000D03*
D31*
%TO.N,LP5_A2_B*%
X25000000Y-35800000D03*
D30*
X39000000Y-30600000D03*
D29*
%TO.N,LP5_A3_A*%
X33819300Y-37514900D03*
D30*
X38400000Y-34800000D03*
D31*
X27400000Y-30900000D03*
D30*
%TO.N,LP5_A3_B*%
X38400000Y-29400000D03*
D31*
X22600000Y-35100000D03*
%TO.N,LP5_A4_A*%
X26600000Y-30200000D03*
D30*
X40200000Y-32400000D03*
D29*
X26497700Y-24826200D03*
D31*
%TO.N,LP5_A4_B*%
X23400000Y-35800000D03*
D30*
X39600000Y-28800000D03*
D29*
X25260600Y-24981400D03*
D31*
%TO.N,LP5_A5_A*%
X29000000Y-30900000D03*
D29*
X36517900Y-38491800D03*
D30*
X40200000Y-33600000D03*
D31*
%TO.N,LP5_A5_B*%
X21000000Y-35100000D03*
D30*
X40200000Y-31200000D03*
D29*
%TO.N,LP5_A6_A*%
X41727600Y-30120500D03*
D30*
X40200000Y-34200000D03*
D31*
X28200000Y-30200000D03*
%TO.N,LP5_A6_B*%
X21800000Y-35800000D03*
D30*
X40200000Y-30000000D03*
D31*
%TO.N,LP5_CLKN_A*%
X25800000Y-31600000D03*
D30*
X37300000Y-31900000D03*
D29*
X33286000Y-35122100D03*
D31*
%TO.N,LP5_CLKN_B*%
X24200000Y-34400000D03*
D30*
X37300000Y-31350000D03*
D31*
%TO.N,LP5_CLKP_A*%
X25800000Y-30900000D03*
D30*
X37800000Y-31800000D03*
D29*
%TO.N,LP5_CLKP_B*%
X32929100Y-34586100D03*
D31*
X24200000Y-35100000D03*
D30*
X37800000Y-31200000D03*
D29*
%TO.N,LP5_CSN0_A*%
X23939600Y-25138000D03*
D31*
X24200000Y-30900000D03*
D30*
X39000000Y-33000000D03*
D31*
%TO.N,LP5_CSN0_B*%
X25800000Y-35100000D03*
D30*
X38400000Y-31200000D03*
%TO.N,LP5_CSN1_A*%
X40200000Y-33000000D03*
D31*
X23400000Y-30200000D03*
D30*
%TO.N,LP5_CSN1_B*%
X39000000Y-32400000D03*
D29*
X27800000Y-34116300D03*
D31*
X26600000Y-35800000D03*
%TO.N,LP5_DMI0_A*%
X21800000Y-26000000D03*
D30*
X37800000Y-36000000D03*
D31*
%TO.N,LP5_DMI0_B*%
X28200000Y-40000000D03*
D30*
X38950000Y-25300000D03*
%TO.N,LP5_DMI1_A*%
X37300000Y-37950000D03*
D31*
X28200000Y-26000000D03*
%TO.N,LP5_DMI1_B*%
X21800000Y-40000000D03*
D30*
X37800000Y-26400000D03*
%TO.N,LP5_DQ0_A*%
X37300000Y-34650000D03*
D31*
X19400000Y-28100000D03*
%TO.N,LP5_DQ0_B*%
X30600000Y-37900000D03*
D30*
X38400000Y-27600000D03*
D31*
%TO.N,LP5_DQ10_A*%
X29800000Y-28800000D03*
D30*
X37800000Y-39600000D03*
D29*
X19510600Y-40576200D03*
D30*
%TO.N,LP5_DQ10_B*%
X37850000Y-25300000D03*
D31*
X20200000Y-37200000D03*
%TO.N,LP5_DQ11_A*%
X29000000Y-28100000D03*
D30*
X37300000Y-39600000D03*
D29*
X36274000Y-32663900D03*
X36592200Y-37331500D03*
D30*
%TO.N,LP5_DQ11_B*%
X37850000Y-24750000D03*
D31*
X21000000Y-37900000D03*
%TO.N,LP5_DQ12_A*%
X27400000Y-26700000D03*
D30*
X37800000Y-37200000D03*
D31*
%TO.N,LP5_DQ12_B*%
X22600000Y-39300000D03*
D30*
X37800000Y-28200000D03*
%TO.N,LP5_DQ13_A*%
X38400000Y-36600000D03*
D31*
X26600000Y-27400000D03*
%TO.N,LP5_DQ13_B*%
X23400000Y-38600000D03*
D30*
X37800000Y-27000000D03*
%TO.N,LP5_DQ14_A*%
X39000000Y-37800000D03*
D31*
X26600000Y-28800000D03*
%TO.N,LP5_DQ14_B*%
X23400000Y-37200000D03*
D30*
X37300000Y-26950000D03*
%TO.N,LP5_DQ15_A*%
X37800000Y-37800000D03*
D31*
X27400000Y-29500000D03*
D30*
%TO.N,LP5_DQ15_B*%
X37300000Y-26400000D03*
D31*
X22600000Y-36500000D03*
D30*
%TO.N,LP5_DQ1_A*%
X37800000Y-34800000D03*
D31*
X20200000Y-27400000D03*
D29*
X39881700Y-32700000D03*
D30*
%TO.N,LP5_DQ1_B*%
X38400000Y-28800000D03*
D31*
X29800000Y-38600000D03*
%TO.N,LP5_DQ2_A*%
X20200000Y-28800000D03*
D29*
X27780700Y-27743800D03*
D30*
X37800000Y-33600000D03*
D31*
%TO.N,LP5_DQ2_B*%
X29800000Y-37200000D03*
D30*
X37800000Y-29400000D03*
%TO.N,LP5_DQ3_A*%
X37300000Y-33550000D03*
D31*
X21000000Y-28100000D03*
D30*
%TO.N,LP5_DQ3_B*%
X37300000Y-29700000D03*
D31*
X29000000Y-37900000D03*
%TO.N,LP5_DQ4_A*%
X22600000Y-26700000D03*
D30*
X39000000Y-36000000D03*
%TO.N,LP5_DQ4_B*%
X39000000Y-27000000D03*
D31*
X27400000Y-39300000D03*
D30*
%TO.N,LP5_DQ5_A*%
X39600000Y-36600000D03*
D31*
X23400000Y-27400000D03*
D29*
X31084100Y-26176200D03*
D30*
%TO.N,LP5_DQ5_B*%
X39000000Y-26400000D03*
D31*
X26600000Y-38600000D03*
%TO.N,LP5_DQ6_A*%
X23400000Y-28800000D03*
D30*
X37300000Y-36850000D03*
%TO.N,LP5_DQ6_B*%
X39500000Y-24750000D03*
D31*
X26600000Y-37200000D03*
D30*
%TO.N,LP5_DQ7_A*%
X37300000Y-36300000D03*
D31*
X22600000Y-29500000D03*
%TO.N,LP5_DQ7_B*%
X27400000Y-36500000D03*
D30*
X37300000Y-28050000D03*
%TO.N,LP5_DQ8_A*%
X37300000Y-38500000D03*
D31*
X30600000Y-28100000D03*
D29*
%TO.N,LP5_DQ8_B*%
X18840800Y-26631800D03*
D30*
X37800000Y-25800000D03*
D29*
X32496200Y-24865100D03*
D31*
X19400000Y-37900000D03*
D30*
%TO.N,LP5_DQ9_A*%
X37800000Y-38400000D03*
D31*
X29800000Y-27400000D03*
%TO.N,LP5_DQ9_B*%
X20200000Y-38600000D03*
D30*
X37300000Y-25300000D03*
D29*
%TO.N,LP5_RDQS0N_A*%
X22980700Y-36843800D03*
D30*
X37300000Y-35200000D03*
D31*
X21800000Y-27400000D03*
%TO.N,LP5_RDQS0N_B*%
X28200000Y-38600000D03*
D30*
X37800000Y-28800000D03*
D31*
%TO.N,LP5_RDQS0P_A*%
X21000000Y-26700000D03*
D30*
X37800000Y-35400000D03*
D31*
%TO.N,LP5_RDQS0P_B*%
X29000000Y-39300000D03*
D30*
X37300000Y-28600000D03*
D31*
%TO.N,LP5_RDQS1N_A*%
X28200000Y-27400000D03*
D29*
X22980700Y-30543800D03*
D30*
X39000000Y-38400000D03*
D29*
X31465100Y-36533500D03*
X30069600Y-45452100D03*
D31*
%TO.N,LP5_RDQS1N_B*%
X21800000Y-38600000D03*
D30*
X38400000Y-25300000D03*
D31*
%TO.N,LP5_RDQS1P_A*%
X29000000Y-26700000D03*
D30*
X39600000Y-38400000D03*
%TO.N,LP5_RDQS1P_B*%
X38400000Y-24750000D03*
D29*
X31446100Y-24428300D03*
X22786400Y-24428300D03*
D31*
X21000000Y-39300000D03*
%TO.N,LP5_WCK0N_A*%
X22600000Y-28100000D03*
D30*
X39600000Y-36000000D03*
%TO.N,LP5_WCK0N_B*%
X39600000Y-29400000D03*
D31*
X27400000Y-37900000D03*
D30*
%TO.N,LP5_WCK0P_A*%
X40200000Y-36000000D03*
D31*
X21800000Y-28800000D03*
%TO.N,LP5_WCK0P_B*%
X28200000Y-37200000D03*
D30*
X40200000Y-29400000D03*
D31*
%TO.N,LP5_WCK1N_A*%
X27400000Y-28100000D03*
D30*
X40200000Y-37800000D03*
%TO.N,LP5_WCK1N_B*%
X39600000Y-28200000D03*
D31*
X22600000Y-37900000D03*
D29*
X39900100Y-38718300D03*
D31*
%TO.N,LP5_WCK1P_A*%
X28200000Y-28800000D03*
D29*
X36721100Y-40409200D03*
X21658900Y-40576200D03*
D30*
X40800000Y-37800000D03*
%TO.N,LP5_WCK1P_B*%
X39600000Y-27600000D03*
D29*
X21549300Y-25214100D03*
D31*
X21800000Y-37200000D03*
%TO.N,LP5_ZQ*%
X30600000Y-30900000D03*
D29*
%TO.N,M2_LED_A*%
X5655900Y-40607700D03*
X68330000Y-39035900D03*
%TO.N,M2_LED_L*%
X53883800Y-52698100D03*
X5655700Y-52264400D03*
%TO.N,M2_PETP0*%
X77159900Y-40278800D03*
X70020700Y-41783000D03*
D30*
%TO.N,OSC_24M_IN*%
X52150000Y-33550000D03*
%TO.N,OSC_24M_OUT*%
X52700000Y-33550000D03*
D29*
X55906800Y-43161500D03*
%TO.N,PCIE0_CLKREQ_L*%
X77169900Y-46568300D03*
X71286200Y-40602700D03*
D30*
X37800000Y-40200000D03*
%TO.N,PCIE0_PERST_L*%
X37300000Y-40150000D03*
%TO.N,PCIE0_REFCLKN*%
X51000000Y-33000000D03*
%TO.N,PCIE0_REFCLKP*%
X50400000Y-33000000D03*
D29*
%TO.N,PCIE0_RXN*%
X74205900Y-40197200D03*
X65512000Y-36503600D03*
D30*
X52700000Y-32450000D03*
%TO.N,PCIE0_RXP*%
X52150000Y-32450000D03*
%TO.N,PCIE0_TXN*%
X52150000Y-31900000D03*
D29*
%TO.N,PCIE0_TXP*%
X67149800Y-34981600D03*
D30*
X52700000Y-31900000D03*
%TO.N,PCIE0_WAKE_L*%
X38400000Y-41250000D03*
D29*
X70020700Y-40178000D03*
%TO.N,PHY_INT_L*%
X75861400Y-56769100D03*
X69588900Y-57580600D03*
D30*
X50400000Y-27600000D03*
D29*
X47632500Y-30102500D03*
X46366600Y-43519700D03*
%TO.N,PHY_LED1*%
X89921100Y-44981700D03*
X66039400Y-45334600D03*
%TO.N,PHY_LED2*%
X68520300Y-59350500D03*
%TO.N,PHY_REG_OUT*%
X69796200Y-56537900D03*
X75349400Y-59003200D03*
%TO.N,PHY_RSET*%
X69019500Y-63132100D03*
X66084900Y-68987700D03*
D30*
%TO.N,PHY_RST_GPIO*%
X52700000Y-25850000D03*
D29*
X62272300Y-61401300D03*
%TO.N,PHY_RST_L*%
X75215800Y-61813800D03*
X68261300Y-61270800D03*
%TO.N,PMIC_FB1*%
X51138700Y-9131600D03*
X54776900Y-33847600D03*
%TO.N,PMIC_FB2*%
X47989000Y-15190700D03*
X17838000Y-20436600D03*
%TO.N,PMIC_FB6*%
X56499500Y-18249500D03*
D30*
%TO.N,PMIC_INT_L*%
X49800000Y-34800000D03*
D29*
X47676400Y-20235100D03*
%TO.N,PMIC_PWRCTRL1*%
X42580000Y-9005000D03*
D30*
X52150000Y-35200000D03*
D29*
X41100000Y-33285000D03*
D30*
%TO.N,PMIC_PWRCTRL2*%
X51600000Y-34800000D03*
D29*
X49968000Y-9198000D03*
D30*
%TO.N,PMIC_PWRCTRL3*%
X52700000Y-35200000D03*
D29*
X41406200Y-15689800D03*
X43714900Y-27526500D03*
%TO.N,PMIC_SCL*%
X62259600Y-34781700D03*
D30*
X50400000Y-34800000D03*
D29*
%TO.N,PMIC_SDA*%
X50933200Y-23179700D03*
X42542500Y-21662700D03*
X71052100Y-22930200D03*
D30*
X51000000Y-34800000D03*
D29*
%TO.N,PMIC_SW10*%
X45054200Y-16837300D03*
X27734800Y-15660100D03*
%TO.N,PMIC_SW5*%
X49936100Y-10366400D03*
X51413700Y-8734900D03*
%TO.N,PMIC_SW8*%
X56009300Y-10477400D03*
%TO.N,PWRON_L*%
X39905400Y-20251800D03*
X36623800Y-34816500D03*
X33932200Y-36801800D03*
%TO.N,RESET_KEY*%
X42083000Y-3008000D03*
X59990300Y-5488100D03*
X64873400Y-28650700D03*
D30*
%TO.N,RGMII_RXC*%
X44400000Y-25800000D03*
D29*
X47452500Y-44174100D03*
X79816100Y-61668300D03*
D30*
%TO.N,RGMII_RXCTL*%
X43900000Y-25300000D03*
D29*
%TO.N,RGMII_RXC_PHY*%
X77518100Y-63067300D03*
X73081300Y-56723000D03*
D30*
%TO.N,RGMII_RXD0*%
X43900000Y-24750000D03*
D29*
X72149100Y-56489200D03*
X67583200Y-29150900D03*
D30*
%TO.N,RGMII_RXD1*%
X43800000Y-25800000D03*
%TO.N,RGMII_RXD2*%
X43350000Y-25300000D03*
%TO.N,RGMII_RXD3*%
X43200000Y-25800000D03*
D29*
%TO.N,RGMII_TXCTL*%
X74438000Y-53123500D03*
X73973900Y-28169500D03*
D30*
X42800000Y-24750000D03*
D29*
%TO.N,RGMII_TXC_SOC*%
X66662400Y-30295400D03*
D30*
X42800000Y-25300000D03*
%TO.N,RGMII_TXD0*%
X42600000Y-25800000D03*
%TO.N,RGMII_TXD1*%
X42250000Y-25300000D03*
%TO.N,RGMII_TXD2*%
X42000000Y-25800000D03*
D29*
%TO.N,RGMII_TXD3*%
X75254100Y-59748000D03*
D30*
X41700000Y-25300000D03*
%TO.N,SARADC_IN0_BOOT*%
X50500000Y-24750000D03*
D29*
X37734500Y-23118500D03*
%TO.N,SD_CLK*%
X41172300Y-52617500D03*
D30*
X49800000Y-26400000D03*
D29*
%TO.N,SD_CMD*%
X41361000Y-45334600D03*
D30*
X49800000Y-25800000D03*
D29*
%TO.N,SD_D0*%
X39025700Y-53838000D03*
X49022500Y-28186000D03*
D30*
X49950000Y-25300000D03*
D29*
%TO.N,SD_D1*%
X50002600Y-51861800D03*
D30*
X50500000Y-25300000D03*
D29*
%TO.N,SD_D2*%
X15410100Y-46533200D03*
D30*
X49400000Y-24750000D03*
D29*
X38750000Y-45216400D03*
X16741300Y-57897300D03*
D30*
%TO.N,SD_D3*%
X49400000Y-25300000D03*
D29*
X17838000Y-39347500D03*
X18118500Y-24636500D03*
D30*
%TO.N,SD_DET_L*%
X49800000Y-35400000D03*
D29*
X45557000Y-55484700D03*
D30*
%TO.N,SD_PWREN*%
X51600000Y-37200000D03*
D29*
X8000000Y-41069900D03*
D30*
%TO.N,SYS_RESET_L*%
X52150000Y-34650000D03*
D29*
X48147200Y-13907300D03*
X71033300Y-27866800D03*
D30*
%TO.N,USB2_OTG0_REXT*%
X42730000Y-38200000D03*
D29*
X37249900Y-35628600D03*
D30*
%TO.N,USB2_OTG1_REXT*%
X45980000Y-39500000D03*
D29*
%TO.N,USB3A_DM*%
X79501600Y-31650900D03*
%TO.N,USB3A_DP*%
X78540000Y-31726600D03*
D30*
%TO.N,USB3A_OC_L*%
X49800000Y-37200000D03*
D29*
X77698700Y-26594500D03*
%TO.N,USB3A_SSTXP*%
X80063300Y-18843400D03*
X86101200Y-19191700D03*
D30*
%TO.N,USB3_OTG0_REXT*%
X45330000Y-38850000D03*
%TO.N,USB3_RXN*%
X52700000Y-30800000D03*
D29*
X84049500Y-18389600D03*
%TO.N,USB3_RXP*%
X81104500Y-20837300D03*
D30*
X52150000Y-30800000D03*
%TO.N,USB3_TXN*%
X52700000Y-31350000D03*
D29*
X78540000Y-29734200D03*
D30*
%TO.N,USB3_TXP*%
X52150000Y-31350000D03*
D29*
X84641400Y-20436600D03*
%TO.N,USBA1_DM*%
X83579100Y-37695900D03*
X78556900Y-33815400D03*
%TO.N,USBA2_DP*%
X83262800Y-41749800D03*
X78414900Y-34304000D03*
D30*
%TO.N,USBC_DM*%
X41700000Y-41250000D03*
D29*
X24221300Y-60273400D03*
D30*
%TO.N,USBC_DP*%
X41700000Y-40700000D03*
D29*
X26497700Y-40576200D03*
D30*
%TO.N,USB_HOST_PWREN*%
X50400000Y-36600000D03*
D29*
X77044600Y-12967200D03*
X74075000Y-35375400D03*
%TO.N,USB_OTG0_VBUSDET*%
X41727600Y-36602400D03*
X24023500Y-46579500D03*
X49895700Y-15077500D03*
D30*
X42730000Y-37550000D03*
D29*
%TO.N,VBUS_IN*%
X79824140Y-6007055D03*
X24165300Y-59574300D03*
X22034500Y-57544500D03*
X79925000Y-5500000D03*
X9999700Y-65845600D03*
X14000300Y-65845600D03*
%TO.N,VBUS_USB2A*%
X81109700Y-42425700D03*
X81104200Y-41157000D03*
X87135000Y-37958000D03*
X69975000Y-3550000D03*
X81109700Y-37925700D03*
X64057400Y-5037400D03*
X67135600Y-10449700D03*
%TO.N,VBUS_USB3A*%
X82250000Y-11000000D03*
D30*
X47280000Y-38850000D03*
D29*
X72834700Y-5475700D03*
X71557400Y-8037400D03*
X75135600Y-9949600D03*
%TO.N,VCC3V3_PCIE*%
X74313000Y-34311200D03*
X67070900Y-43345900D03*
X64380200Y-53624900D03*
X77260000Y-41000000D03*
X70617500Y-34658100D03*
X67070900Y-40345900D03*
X71600000Y-50500000D03*
X58534500Y-56544500D03*
X73051800Y-50470100D03*
X68379100Y-46654100D03*
X73051800Y-49970100D03*
X77870400Y-44354000D03*
X78557400Y-46537400D03*
X70780000Y-39000000D03*
X70617500Y-53341900D03*
X63500000Y-53800000D03*
X74150000Y-36000000D03*
%TO.N,VCC3V3_PHY*%
X87715000Y-45500000D03*
X75419200Y-62719200D03*
X76020000Y-58460000D03*
X86469500Y-67044500D03*
X76557400Y-63037400D03*
X73971900Y-56684400D03*
X68079000Y-56354600D03*
X63804700Y-59788600D03*
%TO.N,VCC3V3_SD*%
X10482600Y-37962600D03*
X8109700Y-39475700D03*
X4879100Y-37654100D03*
X18000000Y-50555000D03*
%TO.N,VCC3V3_WIFI*%
X27712500Y-9000000D03*
X24150000Y-14130000D03*
X25557400Y-7537400D03*
X25225000Y-11925000D03*
X13557400Y-18037400D03*
X8780000Y-9000000D03*
X17510000Y-22270000D03*
X8780000Y-7500000D03*
X24054849Y-14608354D03*
%TO.N,VCC5V0_SYS_S5*%
X4879100Y-24154100D03*
X10250000Y-34000000D03*
X12379100Y-25654100D03*
X65635600Y-2949600D03*
X41925000Y-11200000D03*
X62879100Y-11154100D03*
X48262500Y-15937500D03*
X69866600Y-2154100D03*
X71135600Y-9949600D03*
X24371000Y-21354600D03*
X59834700Y-56524300D03*
X48200000Y-8925000D03*
X23579000Y-21645400D03*
X82624140Y-6007055D03*
X82620100Y-2901800D03*
X66557400Y-5037400D03*
X7975000Y-20950000D03*
X49734300Y-11669900D03*
X56300000Y-7500000D03*
X66879100Y-8154100D03*
X41925000Y-8800000D03*
X58866000Y-27952500D03*
X72250000Y-3550000D03*
X7975000Y-34950000D03*
X8025000Y-27000000D03*
X45730100Y-16734300D03*
X20520000Y-24260000D03*
X5712500Y-58000000D03*
X82725000Y-5500000D03*
X77250000Y-5050000D03*
X12379100Y-20654100D03*
X74600000Y-2500000D03*
X44879100Y-17345900D03*
X43400000Y-6050000D03*
X10879100Y-23654100D03*
X79379100Y-8654100D03*
X30929500Y-21795500D03*
X7649200Y-28736700D03*
%TO.N,VCC5V_HDMI*%
X87624140Y-3007055D03*
X31304700Y-53713600D03*
X87725000Y-2500000D03*
X30000000Y-62890000D03*
X35280000Y-50425000D03*
X37557400Y-57887600D03*
X36729200Y-56222900D03*
X30000000Y-63640000D03*
%TO.N,VCC5V_HUB*%
X74255800Y-33822100D03*
X79229200Y-33297900D03*
X71712500Y-1500000D03*
X68520000Y-34760000D03*
%TO.N,VCCA1V8_PLDO2_S0*%
X60557400Y-22462600D03*
D30*
X47280000Y-37550000D03*
X47280000Y-36900000D03*
D29*
X45800000Y-8925000D03*
X55817900Y-18709200D03*
X55057400Y-18037400D03*
X58557400Y-27037400D03*
D30*
%TO.N,VCCA_1V8_S0*%
X42080000Y-37550000D03*
D29*
X33664400Y-38855600D03*
D30*
X42080000Y-36250000D03*
X47280000Y-34300000D03*
D29*
X50310800Y-23202100D03*
D30*
X48580000Y-31700000D03*
D29*
X45215300Y-52711400D03*
X53560000Y-38000000D03*
D30*
X43380000Y-37550000D03*
D29*
X45000000Y-8925000D03*
D30*
X42080000Y-31050000D03*
D29*
X62057400Y-2037400D03*
X50905300Y-41995400D03*
D30*
X47280000Y-29100000D03*
X48580000Y-33650000D03*
X43380000Y-36900000D03*
X48580000Y-32350000D03*
D29*
X38817900Y-43790800D03*
D30*
X45980000Y-37550000D03*
D29*
%TO.N,VCCA_3V3_S0*%
X53982600Y-33962600D03*
D30*
X45330000Y-37550000D03*
D29*
X43800000Y-7200000D03*
X42421300Y-20157700D03*
%TO.N,VCCIO_SD_S0*%
X13005000Y-59030000D03*
D30*
X45980000Y-29100000D03*
D29*
X8005000Y-59030000D03*
X52520000Y-42290000D03*
X15005000Y-41030000D03*
X10446400Y-59324700D03*
X51789100Y-24264600D03*
X5505000Y-59030000D03*
X58557400Y-34037400D03*
%TO.N,VCC_1V1_NLDO_S3*%
X41925000Y-13600000D03*
X72879100Y-12654100D03*
X2873654Y-25373654D03*
X19841200Y-21321200D03*
X64579000Y-32354600D03*
X2375100Y-26119800D03*
X10990000Y-27770000D03*
X61810800Y-32202100D03*
X41925000Y-12000000D03*
%TO.N,VCC_1V8_S3*%
X47520000Y-45760000D03*
X66280000Y-63000000D03*
X38841200Y-44321200D03*
X53870400Y-32146000D03*
D30*
X49200000Y-30600000D03*
D29*
X74780000Y-22000000D03*
X77715300Y-55211400D03*
X46982600Y-20462600D03*
X64253300Y-21810000D03*
X65983200Y-17187000D03*
X64975800Y-24795100D03*
X74780000Y-20500000D03*
D30*
X43380000Y-29100000D03*
D29*
X60880171Y-13124922D03*
X52586500Y-47961400D03*
X70154500Y-56178000D03*
X41925000Y-10400000D03*
D30*
X45330000Y-29100000D03*
D29*
X74780000Y-19000000D03*
D30*
X47930000Y-34950000D03*
X44020000Y-29100000D03*
D29*
X61810000Y-21000000D03*
D30*
X42730000Y-36250000D03*
D29*
X62124900Y-11880200D03*
X65475800Y-19295100D03*
X63721400Y-35794700D03*
X67772762Y-17178852D03*
X69750000Y-18500000D03*
X65866600Y-13154100D03*
X69780000Y-21000000D03*
X68557400Y-66537400D03*
%TO.N,VCC_2V0_PLDO_S3*%
X7534500Y-17544500D03*
X64252700Y-30472300D03*
X61251200Y-32229700D03*
X4500000Y-22300000D03*
X3619828Y-22124922D03*
%TO.N,VCC_3V3_S0*%
X32608100Y-50877900D03*
X76057400Y-12037400D03*
X74379100Y-14654100D03*
D30*
X47280000Y-29750000D03*
D29*
X11557400Y-40537400D03*
X4310800Y-40702100D03*
X49482600Y-21537400D03*
X70780000Y-48000000D03*
X38157600Y-20394800D03*
D30*
X42080000Y-29100000D03*
D29*
X38010000Y-51655000D03*
X30147300Y-53787700D03*
X38010000Y-52705000D03*
X37465500Y-55969500D03*
X79780000Y-47500000D03*
X29016900Y-57072100D03*
X7649200Y-39836700D03*
D30*
X42730000Y-36900000D03*
D29*
X56780000Y-49000000D03*
X59975000Y-3550000D03*
X7810800Y-37702100D03*
X30543126Y-51797866D03*
%TO.N,VCC_3V3_S3*%
X62250000Y-3550000D03*
X83780000Y-8000000D03*
X25866600Y-9654100D03*
X15279500Y-58485500D03*
D30*
X49200000Y-35400000D03*
D29*
X27379100Y-13654100D03*
X52862230Y-15513659D03*
X70858500Y-56354600D03*
X54507800Y-19486300D03*
X29570900Y-22345900D03*
%TO.N,VDD10_PHY*%
X75057400Y-54537400D03*
X68557400Y-65037400D03*
X67020000Y-63760000D03*
X78575000Y-61550000D03*
X71229200Y-54202100D03*
X75557400Y-65037400D03*
X77981840Y-61432013D03*
X77557400Y-56537400D03*
D31*
%TO.N,VDD1_DDR_S3*%
X30600000Y-27400000D03*
D29*
X67712500Y-12500000D03*
D31*
X19400000Y-27400000D03*
D29*
X22020000Y-19540000D03*
X14057400Y-27537400D03*
D31*
X19400000Y-38600000D03*
D29*
X17020000Y-22240000D03*
D31*
X30600000Y-38600000D03*
%TO.N,VDD2H_DDR_S3*%
X26600000Y-33700000D03*
X23400000Y-33700000D03*
X24200000Y-28800000D03*
X25800000Y-26700000D03*
D29*
X57119800Y-25124900D03*
X57698800Y-30229700D03*
D31*
X23400000Y-32300000D03*
D29*
X65554500Y-34044500D03*
D31*
X19400000Y-33700000D03*
X25800000Y-37200000D03*
X20200000Y-33700000D03*
X27400000Y-31600000D03*
X30600000Y-32300000D03*
X29000000Y-32300000D03*
X27400000Y-32300000D03*
D29*
X15482600Y-37962600D03*
D31*
X23400000Y-36500000D03*
X27400000Y-34400000D03*
X28200000Y-33700000D03*
X25800000Y-40000000D03*
X21800000Y-33700000D03*
D29*
X20570900Y-20654100D03*
D31*
X26600000Y-33000000D03*
D29*
X24520000Y-43260000D03*
D31*
X25800000Y-26000000D03*
X22600000Y-33700000D03*
X20200000Y-32300000D03*
X24200000Y-36500000D03*
X26600000Y-36500000D03*
X22600000Y-31600000D03*
X24200000Y-40000000D03*
X24200000Y-27400000D03*
X25800000Y-33000000D03*
X24200000Y-29500000D03*
D29*
X19520000Y-43260000D03*
X25669400Y-41149400D03*
D31*
X22600000Y-32300000D03*
X21800000Y-32300000D03*
X25000000Y-28100000D03*
X24200000Y-39300000D03*
X22600000Y-34400000D03*
X19400000Y-32300000D03*
X27400000Y-33700000D03*
X29800000Y-32300000D03*
X24200000Y-33000000D03*
D29*
X15879100Y-31654100D03*
D31*
X26600000Y-32300000D03*
X25800000Y-28800000D03*
X28200000Y-32300000D03*
X24200000Y-37200000D03*
X25000000Y-37900000D03*
D29*
X22310800Y-24202100D03*
D31*
X25800000Y-38600000D03*
X25000000Y-26000000D03*
X23400000Y-33000000D03*
D29*
X16020000Y-28260000D03*
D31*
X25800000Y-36500000D03*
X25800000Y-29500000D03*
X23400000Y-29500000D03*
X25800000Y-27400000D03*
D29*
X24520000Y-25010000D03*
X19229200Y-24202100D03*
X15879100Y-35654100D03*
D31*
X25000000Y-33000000D03*
X24200000Y-26700000D03*
D29*
X24520000Y-23510000D03*
D31*
X21000000Y-32300000D03*
X21000000Y-33700000D03*
X25800000Y-39300000D03*
X29800000Y-33700000D03*
X24200000Y-38600000D03*
D29*
X22020000Y-43260000D03*
D31*
X30600000Y-33700000D03*
X29000000Y-33700000D03*
X24200000Y-26000000D03*
X25000000Y-40000000D03*
X26600000Y-29500000D03*
%TO.N,VDD2L_DDR_S3*%
X29800000Y-35100000D03*
D29*
X23370400Y-44854000D03*
D31*
X23400000Y-39300000D03*
X23400000Y-26000000D03*
D29*
X11624900Y-39380200D03*
D31*
X23400000Y-40000000D03*
X20200000Y-35100000D03*
X26600000Y-40000000D03*
X20200000Y-30900000D03*
X26600000Y-26700000D03*
X29800000Y-30900000D03*
D29*
X21495300Y-19046700D03*
D31*
X23400000Y-26700000D03*
D29*
X10380171Y-40624922D03*
X21810800Y-44702100D03*
X16020000Y-40760000D03*
X16020000Y-26760000D03*
D31*
X29800000Y-34400000D03*
X20200000Y-34400000D03*
D29*
X15879100Y-33654100D03*
X26260000Y-22000000D03*
D31*
X20200000Y-31600000D03*
X26600000Y-26000000D03*
X29800000Y-31600000D03*
D29*
X10445500Y-34544500D03*
D31*
X26600000Y-39300000D03*
D30*
%TO.N,VDDA0V75_HDMI_S0*%
X47930000Y-36900000D03*
D29*
X39557400Y-49962600D03*
X53057400Y-21537400D03*
D30*
X47930000Y-37550000D03*
D29*
X41925000Y-12800000D03*
X30317900Y-20209200D03*
%TO.N,VDDA_0V75_S0*%
X29517700Y-21823400D03*
X33229200Y-48202100D03*
D30*
X45330000Y-36250000D03*
D29*
X32841200Y-17821200D03*
D30*
X44020000Y-37550000D03*
D29*
X46817900Y-51290800D03*
D30*
X47930000Y-33650000D03*
D29*
X37057400Y-50037400D03*
D30*
X47930000Y-33000000D03*
D29*
X40841200Y-17321200D03*
%TO.N,VDDA_0V85_S0*%
X36020000Y-17260000D03*
D30*
X44020000Y-36250000D03*
X47930000Y-32350000D03*
D29*
X48057400Y-18537400D03*
D30*
X44020000Y-36900000D03*
X47930000Y-31700000D03*
X42080000Y-36900000D03*
D29*
X63310800Y-33702100D03*
X59375600Y-46355600D03*
X62729200Y-32202100D03*
X60557400Y-43537400D03*
X57664400Y-46355599D03*
%TO.N,VDDA_1V2_S0*%
X61729200Y-26702100D03*
D30*
X45980000Y-36250000D03*
D29*
X28057400Y-7537400D03*
%TO.N,VDDA_DDR_PLL_S0*%
X48057400Y-21962600D03*
D30*
X42730000Y-30400000D03*
D29*
X51982600Y-21962600D03*
D31*
%TO.N,VDDQ_DDR_S0*%
X29000000Y-36500000D03*
X29800000Y-39300000D03*
X28200000Y-37900000D03*
D30*
X41430000Y-31050000D03*
D31*
X21000000Y-40000000D03*
D29*
X19310800Y-44702100D03*
D31*
X30600000Y-29500000D03*
D30*
X41430000Y-33650000D03*
D31*
X21000000Y-36500000D03*
X20200000Y-35800000D03*
D30*
X41430000Y-33000000D03*
D29*
X34380171Y-14124922D03*
X46600000Y-16800000D03*
X50370400Y-17354000D03*
D31*
X22600000Y-37200000D03*
D29*
X16310800Y-25202100D03*
X23760000Y-20500000D03*
D31*
X21000000Y-27400000D03*
X29800000Y-26700000D03*
X29000000Y-27400000D03*
D29*
X48255400Y-48769100D03*
D31*
X21000000Y-26000000D03*
X21800000Y-36500000D03*
D29*
X13057400Y-32037400D03*
D31*
X29000000Y-40000000D03*
D29*
X58057400Y-43462600D03*
X40982600Y-51037400D03*
D31*
X21800000Y-29500000D03*
X22600000Y-28800000D03*
D29*
X26982600Y-43462600D03*
X18817900Y-22290800D03*
D30*
X41430000Y-32350000D03*
D31*
X19400000Y-36500000D03*
X19400000Y-29500000D03*
D30*
X42080000Y-34300000D03*
D31*
X29000000Y-29500000D03*
D30*
X42080000Y-29750000D03*
D31*
X28200000Y-28100000D03*
D29*
X13229200Y-39202100D03*
X13057400Y-33537400D03*
D31*
X21800000Y-37900000D03*
D29*
X35126300Y-13626300D03*
D31*
X20200000Y-30200000D03*
X28200000Y-36500000D03*
X27400000Y-37200000D03*
X29000000Y-26000000D03*
D29*
X63763900Y-30570300D03*
D31*
X21800000Y-28100000D03*
X20200000Y-26700000D03*
D30*
X41430000Y-31700000D03*
D31*
X20200000Y-39300000D03*
X27400000Y-28800000D03*
X30600000Y-35800000D03*
X19400000Y-35800000D03*
X19400000Y-30200000D03*
D29*
X52520000Y-49760000D03*
X60057400Y-25037400D03*
X37817900Y-16209200D03*
X36310800Y-48702100D03*
D31*
X29800000Y-30200000D03*
D29*
X27079000Y-23854600D03*
D31*
X30600000Y-30200000D03*
X28200000Y-29500000D03*
D29*
X13379100Y-29654100D03*
X14057400Y-37537400D03*
D31*
X29800000Y-35800000D03*
X21000000Y-29500000D03*
D30*
X42080000Y-32350000D03*
D31*
X21000000Y-38600000D03*
X30600000Y-36500000D03*
X29000000Y-38600000D03*
D29*
X60557400Y-42037400D03*
X27465500Y-19955500D03*
D30*
%TO.N,VDD_0V75_S3*%
X42080000Y-35600000D03*
D29*
X61482600Y-37537400D03*
X55729200Y-47702100D03*
X61810800Y-13202100D03*
X58887400Y-22386900D03*
X41907000Y-14304800D03*
D30*
X47280000Y-35600000D03*
D29*
%TO.N,VDD_CPU_BIG_S0*%
X46437000Y-20245700D03*
D30*
X44670000Y-34950000D03*
X44020000Y-33000000D03*
D29*
X35100300Y-20414400D03*
X56879100Y-15154100D03*
X55375600Y-37355600D03*
X37862230Y-13986340D03*
X56338200Y-36754100D03*
X39507800Y-13986300D03*
D30*
X45330000Y-33650000D03*
X45330000Y-34300000D03*
D29*
X34379100Y-8654100D03*
D30*
X44670000Y-33650000D03*
D29*
X50483000Y-42382100D03*
D30*
X44670000Y-34300000D03*
X45330000Y-34950000D03*
X44670000Y-33000000D03*
D29*
X35624941Y-44077851D03*
X48075000Y-9600000D03*
X36164400Y-44355600D03*
X37879100Y-8654100D03*
X54198800Y-31729700D03*
X54964400Y-16550300D03*
D30*
%TO.N,VDD_CPU_LIT_S0*%
X43380000Y-34300000D03*
X42730000Y-34950000D03*
D29*
X41879100Y-19654100D03*
X61379100Y-8154100D03*
D30*
X43380000Y-34950000D03*
D29*
X45057400Y-18462600D03*
X46600000Y-8925000D03*
X36257700Y-45216400D03*
X50007769Y-6486340D03*
D30*
X42730000Y-34300000D03*
D29*
X50705300Y-6020300D03*
D30*
X43380000Y-33650000D03*
D29*
X32930900Y-25917000D03*
X57020000Y-26960000D03*
X57387400Y-38613100D03*
X46569900Y-46671300D03*
X58879100Y-2154100D03*
X47879100Y-19654100D03*
%TO.N,VDD_DDR_S0*%
X29500000Y-19300000D03*
X62318300Y-27723500D03*
X55729200Y-46202100D03*
D30*
X42730000Y-32350000D03*
X42080000Y-33000000D03*
D29*
X39557400Y-48462600D03*
X58817900Y-40290800D03*
X69379100Y-13154100D03*
D30*
X42730000Y-33000000D03*
X42080000Y-31700000D03*
D29*
X44879100Y-50654100D03*
X30380200Y-19124900D03*
X32760000Y-20000000D03*
X48057400Y-50037400D03*
X54020000Y-19760000D03*
D30*
X42080000Y-33650000D03*
D29*
%TO.N,VDD_GPU_S0*%
X51982600Y-20462600D03*
X32955700Y-27973800D03*
X38868700Y-47961400D03*
X52520000Y-45760000D03*
X57300000Y-6500000D03*
D30*
X43380000Y-31700000D03*
X44020000Y-30400000D03*
X43380000Y-31050000D03*
D29*
X28579000Y-20145400D03*
D30*
X43380000Y-30400000D03*
D29*
X52875077Y-7380171D03*
X41343700Y-47824400D03*
X38810800Y-20202100D03*
X36810800Y-20297900D03*
X48075000Y-10800000D03*
D30*
X44020000Y-31050000D03*
D29*
X33341200Y-22321200D03*
X48255400Y-45769100D03*
X43370400Y-48354000D03*
X32937000Y-38835100D03*
%TO.N,VDD_LOGIC_S0*%
X53870400Y-30146000D03*
X49100200Y-47754300D03*
X53909400Y-45815600D03*
D30*
X46630000Y-33650000D03*
D29*
X32375100Y-16619800D03*
X35260000Y-46500000D03*
X58889200Y-38647600D03*
D30*
X46630000Y-32350000D03*
D29*
X59541000Y-42486800D03*
D30*
X45330000Y-31700000D03*
D29*
X23379100Y-18654100D03*
X55879100Y-21654100D03*
D30*
X45980000Y-33650000D03*
D29*
X34500000Y-14750000D03*
X56760000Y-23000000D03*
X42057400Y-49537400D03*
D30*
X45980000Y-33000000D03*
X46630000Y-34300000D03*
D29*
X30169400Y-22149400D03*
D30*
X45980000Y-32350000D03*
D29*
X48219900Y-12800000D03*
X38229200Y-17297900D03*
X61587700Y-34067700D03*
D30*
X46630000Y-33000000D03*
X45330000Y-32350000D03*
D29*
X59070900Y-27345900D03*
X60198800Y-26678800D03*
X36020000Y-20260000D03*
%TO.N,VDD_NPU_S0*%
X30879100Y-9154100D03*
D30*
X45330000Y-31050000D03*
X45980000Y-30400000D03*
X45330000Y-30400000D03*
D29*
X62251100Y-34291300D03*
X55671340Y-12822769D03*
X56879100Y-20154100D03*
X56482600Y-25037400D03*
D30*
X45980000Y-31050000D03*
D29*
X48075000Y-14400000D03*
X55379100Y-3654100D03*
X59070900Y-34345900D03*
D30*
X46630000Y-30400000D03*
D29*
X49870400Y-18646000D03*
X55835000Y-12000000D03*
X46286700Y-30725000D03*
X47520000Y-48760000D03*
D30*
%TO.N,WIFI_PD_GPIO*%
X51600000Y-25800000D03*
D29*
X14126700Y-22934700D03*
%TO.N,WIFI_USB_DM*%
X24171000Y-11722300D03*
%TO.N,WIFI_USB_DP*%
X75808800Y-33046500D03*
X24171000Y-7987600D03*
%TD*%
D32*
%TO.N,BUCK_2V0_SW*%
X7941200Y-22809500D02*
X7941200Y-24171300D01*
X5568300Y-20436600D02*
X7941200Y-22809500D01*
%TO.N,BUCK_VDD2L_SW*%
X6732700Y-36323400D02*
X5673000Y-35263700D01*
X5673000Y-35263700D02*
X5673000Y-34156900D01*
D33*
%TO.N,DBG_UART_RX*%
X55080000Y-68600000D02*
X55080000Y-38680000D01*
X55080000Y-38680000D02*
X52150000Y-35750000D01*
%TO.N,DBG_UART_TX*%
X52540000Y-68600000D02*
X53023000Y-68117000D01*
X53023000Y-38073000D02*
X51600000Y-36650000D01*
X53023000Y-68117000D02*
X53023000Y-38073000D01*
X51600000Y-36650000D02*
X51600000Y-35400000D01*
%TO.N,DCPHY_VREG*%
X41244000Y-22827600D02*
X41244000Y-16637000D01*
X42479500Y-24063100D02*
X41244000Y-22827600D01*
X41244000Y-16637000D02*
X40868400Y-16261400D01*
D34*
%TO.N,DDR_RESET_L*%
X20535500Y-45111300D02*
X20312200Y-45334600D01*
X19400000Y-30900000D02*
X19834800Y-31334800D01*
X19834800Y-33836500D02*
X20048300Y-34050000D01*
X20310900Y-34050000D02*
X20535500Y-34274600D01*
X20535500Y-34274600D02*
X20535500Y-45111300D01*
X19834800Y-31334800D02*
X19834800Y-33836500D01*
X20048300Y-34050000D02*
X20310900Y-34050000D01*
D33*
%TO.N,ETH_CT_B*%
X86069100Y-63946100D02*
X86853000Y-64730000D01*
X86069100Y-51804100D02*
X86069100Y-63946100D01*
X84555000Y-50290000D02*
X86069100Y-51804100D01*
%TO.N,ETH_MDI1_N*%
X76303200Y-59801800D02*
X82015000Y-54090000D01*
X72380100Y-64117800D02*
X73378500Y-64117800D01*
X72270400Y-64008100D02*
X72380100Y-64117800D01*
X73378500Y-64117800D02*
X76303200Y-61193100D01*
X76303200Y-61193100D02*
X76303200Y-59801800D01*
%TO.N,ETH_MDI3_N*%
X74314600Y-59260400D02*
X74314600Y-62607000D01*
X82015000Y-51560000D02*
X74314600Y-59260400D01*
%TO.N,ETH_MDIO*%
X64970200Y-62439900D02*
X65129600Y-62280500D01*
X65223000Y-28844300D02*
X65223000Y-26747200D01*
X64969800Y-29097500D02*
X65223000Y-28844300D01*
X65129600Y-62280500D02*
X65129600Y-31456100D01*
X65223000Y-26747200D02*
X63999700Y-25523900D01*
X64969800Y-31296300D02*
X64969800Y-29097500D01*
X65129600Y-31456100D02*
X64969800Y-31296300D01*
%TO.N,HDMI_D0_TERM*%
X46446500Y-31403300D02*
X46716600Y-31403300D01*
X45489700Y-42052000D02*
X45626700Y-41915000D01*
X45885800Y-35896700D02*
X46154400Y-35896700D01*
X46716600Y-31403300D02*
X46926700Y-31193200D01*
X46276700Y-31573100D02*
X46446500Y-31403300D01*
X46926700Y-30216500D02*
X46813500Y-30103300D01*
X46813500Y-30103300D02*
X46543300Y-30103300D01*
X46276700Y-35774400D02*
X46276700Y-31573100D01*
X45538500Y-24192400D02*
X46518200Y-23212700D01*
X46926700Y-31193200D02*
X46926700Y-30216500D01*
X45626700Y-36155800D02*
X45885800Y-35896700D01*
X45538500Y-28144900D02*
X45538500Y-24192400D01*
X46154400Y-35896700D02*
X46276700Y-35774400D01*
X46316200Y-28812500D02*
X46316100Y-28812500D01*
X46543300Y-30103300D02*
X46316200Y-29876200D01*
X45626700Y-41915000D02*
X45626700Y-36155800D01*
X46316200Y-29876200D02*
X46316200Y-28812500D01*
%TO.N,HDMI_D1_TERM*%
X42424300Y-31831100D02*
X42240400Y-32015000D01*
X42240400Y-32015000D02*
X41984700Y-32015000D01*
X40636600Y-21410900D02*
X40719000Y-21493300D01*
X40719000Y-25597500D02*
X42424300Y-27302800D01*
X41726900Y-32272800D02*
X41726900Y-33837100D01*
X40719000Y-21493300D02*
X40719000Y-25597500D01*
X41984700Y-32015000D02*
X41726900Y-32272800D01*
X41726900Y-33837100D02*
X41560700Y-34003300D01*
X39294500Y-42049900D02*
X38891000Y-42453400D01*
X39294500Y-40983300D02*
X39294500Y-42049900D01*
X39927300Y-40350500D02*
X39294500Y-40983300D01*
X41307200Y-34003300D02*
X41133300Y-34177200D01*
X41133300Y-38660700D02*
X39927300Y-39866700D01*
X41560700Y-34003300D02*
X41307200Y-34003300D01*
X42424300Y-27302800D02*
X42424300Y-31831100D01*
X41133300Y-34177200D02*
X41133300Y-38660700D01*
X39927300Y-39866700D02*
X39927300Y-40350500D01*
%TO.N,HDMI_D2N_C*%
X51472000Y-55019400D02*
X50991400Y-55500000D01*
X56789400Y-38121500D02*
X56374000Y-37706100D01*
X56188100Y-50314200D02*
X56296100Y-50206200D01*
X56296100Y-50206200D02*
X56296100Y-41989100D01*
X56296100Y-41989100D02*
X56789400Y-41495800D01*
X51472000Y-53910100D02*
X51472000Y-55019400D01*
X56789400Y-41495800D02*
X56789400Y-38121500D01*
%TO.N,HDMI_D2P_C*%
X54681200Y-52804000D02*
X54682800Y-52805600D01*
X54681200Y-43140500D02*
X54681200Y-52804000D01*
%TO.N,HDMI_D2_TERM*%
X57199600Y-36474200D02*
X58840600Y-38115200D01*
X57199600Y-34172900D02*
X57199600Y-36474200D01*
%TO.N,HDMI_HPD*%
X37437400Y-40700000D02*
X37850000Y-40700000D01*
X36991600Y-43277000D02*
X36991600Y-41145800D01*
X36991600Y-48024300D02*
X36991600Y-43277000D01*
X36991600Y-41145800D02*
X37437400Y-40700000D01*
X36991600Y-43277000D02*
X36383800Y-43277000D01*
X38539500Y-49572200D02*
X36991600Y-48024300D01*
%TO.N,HDMI_SCL*%
X37560400Y-41539600D02*
X37560400Y-46315100D01*
X37850000Y-41250000D02*
X37560400Y-41539600D01*
%TO.N,HDMI_SDA*%
X38400000Y-39787000D02*
X37914300Y-39301300D01*
X37188800Y-39301300D02*
X32698700Y-43791400D01*
X38400000Y-40200000D02*
X38400000Y-39787000D01*
X32698700Y-43791400D02*
X32698700Y-50314200D01*
X37914300Y-39301300D02*
X37188800Y-39301300D01*
%TO.N,HDMI_SDA_5V*%
X30128400Y-57183200D02*
X30128400Y-58742700D01*
X33937400Y-53374200D02*
X30128400Y-57183200D01*
%TO.N,HDMI_TX_D1N*%
X52150000Y-51412700D02*
X50511400Y-53051300D01*
X52150000Y-41250000D02*
X52150000Y-51412700D01*
%TO.N,HDMI_TX_D2N*%
X52563300Y-51691500D02*
X49661300Y-54593500D01*
X49661300Y-54593500D02*
X49661300Y-56531400D01*
%TO.N,HDMI_TX_D3N*%
X47754200Y-54800900D02*
X47754200Y-55777500D01*
X51384700Y-41034700D02*
X51384700Y-49316200D01*
X47754200Y-55777500D02*
X46950700Y-56581000D01*
X50489000Y-52066100D02*
X47754200Y-54800900D01*
X50489000Y-50211900D02*
X50489000Y-52066100D01*
X51050000Y-40700000D02*
X51384700Y-41034700D01*
X51384700Y-49316200D02*
X50489000Y-50211900D01*
%TO.N,HUB_OVC_L*%
X73216000Y-33776900D02*
X73216000Y-17122100D01*
X73216000Y-17122100D02*
X72843900Y-16750000D01*
%TO.N,HUB_RST_L*%
X74354100Y-30687700D02*
X74354100Y-29375600D01*
X74354100Y-29375600D02*
X74744600Y-28985100D01*
D34*
%TO.N,LP5_A4_A*%
X26497700Y-24826200D02*
X26497700Y-24964400D01*
X26274400Y-25187700D02*
X26274400Y-29874400D01*
X26274400Y-29874400D02*
X26600000Y-30200000D01*
X26497700Y-24964400D02*
X26274400Y-25187700D01*
%TO.N,LP5_A4_B*%
X23400000Y-35800000D02*
X23804800Y-35395200D01*
X23804800Y-35395200D02*
X23804800Y-34382300D01*
X24130000Y-34057100D02*
X24345200Y-34057100D01*
X23804800Y-34382300D02*
X24130000Y-34057100D01*
X24601300Y-33801000D02*
X24601300Y-25640700D01*
X24345200Y-34057100D02*
X24601300Y-33801000D01*
X24601300Y-25640700D02*
X25260600Y-24981400D01*
%TO.N,LP5_A5_A*%
X38700000Y-37087200D02*
X38887200Y-36900000D01*
X37952700Y-38692900D02*
X38061700Y-38583900D01*
X38061700Y-38583900D02*
X38061700Y-38339700D01*
X36517900Y-38491800D02*
X36838600Y-38812500D01*
X39726100Y-36300000D02*
X39872400Y-36153700D01*
X39300000Y-36693700D02*
X39300000Y-36511300D01*
X37480400Y-38812500D02*
X37600000Y-38692900D01*
X39872400Y-33927600D02*
X40200000Y-33600000D01*
X39872400Y-36153700D02*
X39872400Y-33927600D01*
X37600000Y-38692900D02*
X37952700Y-38692900D01*
X36838600Y-38812500D02*
X37480400Y-38812500D01*
X39511300Y-36300000D02*
X39726100Y-36300000D01*
X39093700Y-36900000D02*
X39300000Y-36693700D01*
X39300000Y-36511300D02*
X39511300Y-36300000D01*
X38301400Y-38100000D02*
X38485800Y-38100000D01*
X38700000Y-37885800D02*
X38700000Y-37087200D01*
X38887200Y-36900000D02*
X39093700Y-36900000D01*
X38061700Y-38339700D02*
X38301400Y-38100000D01*
X38485800Y-38100000D02*
X38700000Y-37885800D01*
%TO.N,LP5_CSN0_A*%
X23939600Y-25189700D02*
X23870100Y-25259200D01*
X23870100Y-25259200D02*
X23870100Y-30570100D01*
X23870100Y-30570100D02*
X24200000Y-30900000D01*
X23939600Y-25138000D02*
X23939600Y-25189700D01*
%TO.N,LP5_DMI0_B*%
X39090000Y-29100000D02*
X38909900Y-29100000D01*
X38950000Y-25300000D02*
X39278700Y-25628700D01*
X28571200Y-39628800D02*
X28200000Y-40000000D01*
X38704900Y-29305000D02*
X38704900Y-30683200D01*
X38499500Y-30888600D02*
X37324900Y-30888600D01*
X37324900Y-30888600D02*
X35408100Y-32805400D01*
X35408100Y-34255700D02*
X30035000Y-39628800D01*
X38704900Y-30683200D02*
X38499500Y-30888600D01*
X39278700Y-28911300D02*
X39090000Y-29100000D01*
X39278700Y-25628700D02*
X39278700Y-28911300D01*
X38909900Y-29100000D02*
X38704900Y-29305000D01*
X35408100Y-32805400D02*
X35408100Y-34255700D01*
X30035000Y-39628800D02*
X28571200Y-39628800D01*
%TO.N,LP5_DMI1_B*%
X27015000Y-29422800D02*
X27015000Y-32392800D01*
X24100000Y-36850000D02*
X23715200Y-37234800D01*
X25315200Y-34457600D02*
X25315200Y-35913600D01*
X34991800Y-26688200D02*
X32544100Y-29135900D01*
X26448300Y-32650000D02*
X26234800Y-32863500D01*
X22674300Y-39642900D02*
X22157100Y-39642900D01*
X27301900Y-29135900D02*
X27015000Y-29422800D01*
X24610000Y-36605600D02*
X24365600Y-36850000D01*
X23499500Y-38305500D02*
X23283700Y-38305500D01*
X23064800Y-38524400D02*
X23064800Y-39252400D01*
X25315200Y-35913600D02*
X25085900Y-36142900D01*
X26234800Y-33692500D02*
X25877300Y-34050000D01*
X25877300Y-34050000D02*
X25722800Y-34050000D01*
X26757800Y-32650000D02*
X26448300Y-32650000D01*
X24610000Y-36470000D02*
X24610000Y-36605600D01*
X25085900Y-36142900D02*
X24937100Y-36142900D01*
X25722800Y-34050000D02*
X25315200Y-34457600D01*
X24365600Y-36850000D02*
X24100000Y-36850000D01*
X37511800Y-26688200D02*
X34991800Y-26688200D01*
X26234800Y-32863500D02*
X26234800Y-33692500D01*
X23715200Y-38089800D02*
X23499500Y-38305500D01*
X23064800Y-39252400D02*
X22674300Y-39642900D01*
X24937100Y-36142900D02*
X24610000Y-36470000D01*
X23715200Y-37234800D02*
X23715200Y-38089800D01*
X23283700Y-38305500D02*
X23064800Y-38524400D01*
X37800000Y-26400000D02*
X37511800Y-26688200D01*
X32544100Y-29135900D02*
X27301900Y-29135900D01*
X27015000Y-32392800D02*
X26757800Y-32650000D01*
X22157100Y-39642900D02*
X21800000Y-40000000D01*
%TO.N,LP5_DQ10_A*%
X22894100Y-24784400D02*
X20184500Y-24784400D01*
X18523500Y-26445400D02*
X18523500Y-39589100D01*
X29139000Y-27028800D02*
X28907700Y-27028800D01*
X29385000Y-28385000D02*
X29385000Y-27274800D01*
X28907700Y-27028800D02*
X28501300Y-26622400D01*
X23186000Y-24492500D02*
X22894100Y-24784400D01*
X28501300Y-26622400D02*
X28501300Y-25859900D01*
X27133900Y-24492500D02*
X23186000Y-24492500D01*
X29385000Y-27274800D02*
X29139000Y-27028800D01*
X28501300Y-25859900D02*
X27133900Y-24492500D01*
X18523500Y-39589100D02*
X19510600Y-40576200D01*
X20184500Y-24784400D02*
X18523500Y-26445400D01*
X29800000Y-28800000D02*
X29385000Y-28385000D01*
%TO.N,LP5_DQ11_A*%
X35774600Y-33163300D02*
X36274000Y-32663900D01*
X35774600Y-36513900D02*
X35774600Y-33163300D01*
X36592200Y-37331500D02*
X35774600Y-36513900D01*
%TO.N,LP5_DQ13_B*%
X23630800Y-38600000D02*
X23994900Y-38235900D01*
X36426300Y-28280000D02*
X37706300Y-27000000D01*
X25699300Y-36135900D02*
X25965500Y-36135900D01*
X24631500Y-37086000D02*
X24867500Y-36850000D01*
X25438700Y-36482200D02*
X25438700Y-36396500D01*
X27279300Y-34750100D02*
X30706500Y-34750100D01*
X24356700Y-38235900D02*
X24631500Y-37961100D01*
X26207200Y-35894200D02*
X26207200Y-35701700D01*
X25965500Y-36135900D02*
X26207200Y-35894200D01*
X26207200Y-35701700D02*
X26404100Y-35504800D01*
X24867500Y-36850000D02*
X25070900Y-36850000D01*
X36426300Y-29030300D02*
X36426300Y-28280000D01*
X24631500Y-37961100D02*
X24631500Y-37086000D01*
X23400000Y-38600000D02*
X23630800Y-38600000D01*
X26625200Y-35504800D02*
X27087600Y-35042400D01*
X27087600Y-35042400D02*
X27087600Y-34941800D01*
X27087600Y-34941800D02*
X27279300Y-34750100D01*
X25438700Y-36396500D02*
X25699300Y-36135900D01*
X30706500Y-34750100D02*
X36426300Y-29030300D01*
X25070900Y-36850000D02*
X25438700Y-36482200D01*
X37706300Y-27000000D02*
X37800000Y-27000000D01*
X26404100Y-35504800D02*
X26625200Y-35504800D01*
X23994900Y-38235900D02*
X24356700Y-38235900D01*
%TO.N,LP5_DQ1_B*%
X32429400Y-36546900D02*
X32429400Y-34171500D01*
X30747600Y-38228700D02*
X32429400Y-36546900D01*
X37500900Y-29100000D02*
X38100000Y-29100000D01*
X29802000Y-38600000D02*
X30173300Y-38228700D01*
X38100000Y-29100000D02*
X38400000Y-28800000D01*
X29800000Y-38600000D02*
X29802000Y-38600000D01*
X30173300Y-38228700D02*
X30747600Y-38228700D01*
X32429400Y-34171500D02*
X37500900Y-29100000D01*
%TO.N,LP5_DQ5_B*%
X37642000Y-27328300D02*
X37875000Y-27328300D01*
X28342200Y-36871200D02*
X28550200Y-36663200D01*
X38093000Y-27110300D02*
X38093000Y-26890200D01*
X38283200Y-26700000D02*
X38700000Y-26700000D01*
X37875000Y-27328300D02*
X38093000Y-27110300D01*
X36790700Y-28179600D02*
X37642000Y-27328300D01*
X28550200Y-36663200D02*
X28550200Y-35760000D01*
X38700000Y-26700000D02*
X39000000Y-26400000D01*
X36790700Y-28924600D02*
X36790700Y-28179600D01*
X28860200Y-35450000D02*
X30265300Y-35450000D01*
X30265300Y-35450000D02*
X36790700Y-28924600D01*
X28550200Y-35760000D02*
X28860200Y-35450000D01*
X27004800Y-37881800D02*
X27315400Y-37571200D01*
X28044700Y-36871200D02*
X28342200Y-36871200D01*
X27539000Y-37571200D02*
X27884800Y-37225400D01*
X27004800Y-38195200D02*
X27004800Y-37881800D01*
X27315400Y-37571200D02*
X27539000Y-37571200D01*
X27884800Y-37225400D02*
X27884800Y-37031100D01*
X38093000Y-26890200D02*
X38283200Y-26700000D01*
X26600000Y-38600000D02*
X27004800Y-38195200D01*
X27884800Y-37031100D02*
X28044700Y-36871200D01*
%TO.N,LP5_DQ8_B*%
X18840800Y-37340800D02*
X19400000Y-37900000D01*
X18840800Y-26631800D02*
X18840800Y-37340800D01*
%TO.N,LP5_RDQS0N_A*%
X22184800Y-27784800D02*
X21800000Y-27400000D01*
X22184800Y-35889600D02*
X22184800Y-27784800D01*
X22631900Y-36120700D02*
X22415900Y-36120700D01*
X22980700Y-36843800D02*
X22980700Y-36469500D01*
X22980700Y-36469500D02*
X22631900Y-36120700D01*
X22415900Y-36120700D02*
X22184800Y-35889600D01*
%TO.N,LP5_RDQS0N_B*%
X30286300Y-37858800D02*
X29916300Y-38228800D01*
X29916300Y-38228800D02*
X28571200Y-38228800D01*
X31063500Y-35243600D02*
X31063500Y-37220200D01*
X28571200Y-38228800D02*
X28200000Y-38600000D01*
X31063500Y-37220200D02*
X30678900Y-37604800D01*
X30462700Y-37604800D02*
X30286300Y-37781200D01*
X30678900Y-37604800D02*
X30462700Y-37604800D01*
X37507100Y-28800000D02*
X31063500Y-35243600D01*
X37800000Y-28800000D02*
X37507100Y-28800000D01*
X30286300Y-37781200D02*
X30286300Y-37858800D01*
%TO.N,LP5_WCK0N_B*%
X38107100Y-36489700D02*
X38289700Y-36307100D01*
X39907100Y-29707100D02*
X39600000Y-29400000D01*
X33993400Y-40371100D02*
X36899300Y-37465200D01*
X36899300Y-37465200D02*
X37941600Y-37465200D01*
X28082500Y-40371100D02*
X33993400Y-40371100D01*
X38700000Y-35287200D02*
X38887200Y-35100000D01*
X37941600Y-37465200D02*
X38107100Y-37299700D01*
X38502800Y-36307100D02*
X38700000Y-36109900D01*
X38289700Y-36307100D02*
X38502800Y-36307100D01*
X39317100Y-31677900D02*
X39907100Y-31087900D01*
X39102600Y-35100000D02*
X39317100Y-34885500D01*
X38887200Y-35100000D02*
X39102600Y-35100000D01*
X27400000Y-37900000D02*
X27817300Y-38317300D01*
X38107100Y-37299700D02*
X38107100Y-36489700D01*
X39907100Y-31087900D02*
X39907100Y-29707100D01*
X39317100Y-34885500D02*
X39317100Y-31677900D01*
X27817300Y-40105900D02*
X28082500Y-40371100D01*
X27817300Y-38317300D02*
X27817300Y-40105900D01*
X38700000Y-36109900D02*
X38700000Y-35287200D01*
%TO.N,LP5_WCK1P_B*%
X21549300Y-25214100D02*
X21472100Y-25291300D01*
X21472100Y-36872100D02*
X21800000Y-37200000D01*
X21472100Y-25291300D02*
X21472100Y-36872100D01*
D33*
%TO.N,OSC_24M_OUT*%
X52700000Y-33550000D02*
X55906800Y-36756800D01*
X55906800Y-36756800D02*
X55906800Y-43161500D01*
%TO.N,PHY_INT_L*%
X47632500Y-30102500D02*
X47632500Y-42253800D01*
X47632500Y-42253800D02*
X46366600Y-43519700D01*
%TO.N,PHY_RSET*%
X66084900Y-68987700D02*
X66084900Y-66066700D01*
X66084900Y-66066700D02*
X69019500Y-63132100D01*
%TO.N,PHY_RST_GPIO*%
X62272300Y-61401300D02*
X62272300Y-35422300D01*
X62272300Y-35422300D02*
X52700000Y-25850000D01*
%TO.N,PMIC_FB1*%
X54776900Y-33847600D02*
X54776900Y-28630000D01*
X52393300Y-10386200D02*
X51138700Y-9131600D01*
X52393300Y-26246400D02*
X52393300Y-10386200D01*
X54776900Y-28630000D02*
X52393300Y-26246400D01*
%TO.N,PMIC_PWRCTRL1*%
X40915500Y-29676700D02*
X41100000Y-29861200D01*
X40497200Y-21761700D02*
X40497300Y-21761700D01*
X40497300Y-29550400D02*
X40623600Y-29676700D01*
X40623600Y-29676700D02*
X40915500Y-29676700D01*
X40289900Y-21554400D02*
X40497200Y-21761700D01*
X41100000Y-29861200D02*
X41100000Y-33285000D01*
X40289900Y-11295100D02*
X40289900Y-21554400D01*
X40497300Y-21761700D02*
X40497300Y-29550400D01*
X42580000Y-9005000D02*
X40289900Y-11295100D01*
%TO.N,PMIC_PWRCTRL2*%
X51295200Y-10525200D02*
X49968000Y-9198000D01*
X50700000Y-33900000D02*
X50700000Y-31291300D01*
X51600000Y-34800000D02*
X50700000Y-33900000D01*
X50700000Y-31291300D02*
X51295200Y-30696100D01*
X51295200Y-30696100D02*
X51295200Y-10525200D01*
%TO.N,PMIC_PWRCTRL3*%
X43714900Y-27526500D02*
X44076700Y-27164700D01*
X44191300Y-18474900D02*
X41406200Y-15689800D01*
X44191300Y-25511300D02*
X44191300Y-18474900D01*
X44076700Y-27164700D02*
X44076700Y-25625900D01*
X44076700Y-25625900D02*
X44191300Y-25511300D01*
%TO.N,PWRON_L*%
X39302300Y-29246500D02*
X39455300Y-29093500D01*
X38543600Y-33900100D02*
X38716000Y-33727700D01*
X39905400Y-28888000D02*
X39905400Y-20251800D01*
X39455300Y-29093500D02*
X39699900Y-29093500D01*
X38716000Y-31030500D02*
X38864700Y-30881800D01*
X39699900Y-29093500D02*
X39905400Y-28888000D01*
X39302300Y-30697200D02*
X39302300Y-29246500D01*
X38864700Y-30881800D02*
X39117700Y-30881800D01*
X37540200Y-33900100D02*
X38543600Y-33900100D01*
X38716000Y-33727700D02*
X38716000Y-31030500D01*
X36623800Y-34816500D02*
X37540200Y-33900100D01*
X39117700Y-30881800D02*
X39302300Y-30697200D01*
%TO.N,RESET_KEY*%
X59990300Y-5488100D02*
X59990300Y-23767600D01*
X59990300Y-23767600D02*
X64873400Y-28650700D01*
%TO.N,RGMII_RXC_PHY*%
X71900500Y-57903800D02*
X71900500Y-64137800D01*
X72146300Y-64383600D02*
X76201800Y-64383600D01*
X76201800Y-64383600D02*
X77518100Y-63067300D01*
X71900500Y-64137800D02*
X72146300Y-64383600D01*
X73081300Y-56723000D02*
X71900500Y-57903800D01*
%TO.N,RGMII_RXD0*%
X72149000Y-33716700D02*
X72149000Y-56489200D01*
X67583200Y-29150900D02*
X72149000Y-33716700D01*
X72149000Y-56489200D02*
X72149100Y-56489200D01*
%TO.N,RGMII_TXCTL*%
X73748300Y-52433800D02*
X73748300Y-28395100D01*
X73748300Y-28395100D02*
X73973900Y-28169500D01*
X74438000Y-53123500D02*
X73748300Y-52433800D01*
%TO.N,SD_CLK*%
X49800000Y-26400000D02*
X49512500Y-26687500D01*
X49512500Y-28158300D02*
X49152200Y-28518600D01*
X48880000Y-28728800D02*
X48880000Y-42149000D01*
X43435600Y-53050800D02*
X41605600Y-53050800D01*
X41605600Y-53050800D02*
X41172300Y-52617500D01*
X49512500Y-26687500D02*
X49512500Y-28158300D01*
X46935100Y-44093900D02*
X46935100Y-45765000D01*
X46935100Y-45765000D02*
X43806000Y-48894100D01*
X43806000Y-52680400D02*
X43435600Y-53050800D01*
X43806000Y-48894100D02*
X43806000Y-52680400D01*
X49090200Y-28518600D02*
X48880000Y-28728800D01*
X49152200Y-28518600D02*
X49090200Y-28518600D01*
X48880000Y-42149000D02*
X46935100Y-44093900D01*
%TO.N,SD_CMD*%
X41361000Y-45334600D02*
X43089200Y-43606400D01*
X45683300Y-28866600D02*
X48749900Y-25800000D01*
X44110300Y-34649800D02*
X44335000Y-34425100D01*
X44335000Y-34425100D02*
X44335000Y-34178700D01*
X43905100Y-34649800D02*
X44110300Y-34649800D01*
X43700000Y-34854900D02*
X43905100Y-34649800D01*
X43089200Y-38740800D02*
X43305000Y-38525000D01*
X43505200Y-38525000D02*
X43700000Y-38330200D01*
X44335000Y-34178700D02*
X44538700Y-33975000D01*
X43089200Y-43606400D02*
X43089200Y-38740800D01*
X45033300Y-33776900D02*
X45033300Y-32881900D01*
X45683300Y-32478300D02*
X45683300Y-28866600D01*
X45033300Y-32881900D02*
X45224600Y-32690600D01*
X48749900Y-25800000D02*
X49800000Y-25800000D01*
X44835200Y-33975000D02*
X45033300Y-33776900D01*
X44538700Y-33975000D02*
X44835200Y-33975000D01*
X45471000Y-32690600D02*
X45683300Y-32478300D01*
X43700000Y-38330200D02*
X43700000Y-34854900D01*
X45224600Y-32690600D02*
X45471000Y-32690600D01*
X43305000Y-38525000D02*
X43505200Y-38525000D01*
%TO.N,SD_D0*%
X39025700Y-51690800D02*
X48255000Y-42461500D01*
X48255000Y-28953500D02*
X49022500Y-28186000D01*
X48255000Y-42461500D02*
X48255000Y-28953500D01*
X39025700Y-53838000D02*
X39025700Y-51690800D01*
%TO.N,SD_D1*%
X50098800Y-25701200D02*
X50098800Y-51765600D01*
X50098800Y-51765600D02*
X50002600Y-51861800D01*
X50500000Y-25300000D02*
X50098800Y-25701200D01*
%TO.N,SD_D2*%
X43723300Y-30252400D02*
X43723300Y-32409900D01*
X44159400Y-30060800D02*
X43914900Y-30060800D01*
X43458200Y-32675000D02*
X43295000Y-32675000D01*
X43083300Y-32886700D02*
X43083300Y-35050900D01*
X43914900Y-30060800D02*
X43723300Y-30252400D01*
X42430800Y-35488300D02*
X42430800Y-38293000D01*
X43083300Y-35050900D02*
X42815200Y-35319000D01*
X40359200Y-43607200D02*
X38750000Y-45216400D01*
X49400000Y-24828000D02*
X45523800Y-28704200D01*
X41272700Y-39175000D02*
X40359200Y-40088500D01*
X42430800Y-38293000D02*
X41548800Y-39175000D01*
X41548800Y-39175000D02*
X41272700Y-39175000D01*
X49400000Y-24750000D02*
X49400000Y-24828000D01*
X40359200Y-40088500D02*
X40359200Y-43607200D01*
X45523800Y-28704200D02*
X44626500Y-28704200D01*
X44393300Y-29826900D02*
X44159400Y-30060800D01*
X43295000Y-32675000D02*
X43083300Y-32886700D01*
X42815200Y-35319000D02*
X42600100Y-35319000D01*
X44626500Y-28704200D02*
X44393300Y-28937400D01*
X44393300Y-28937400D02*
X44393300Y-29826900D01*
X43723300Y-32409900D02*
X43458200Y-32675000D01*
X42600100Y-35319000D02*
X42430800Y-35488300D01*
%TO.N,SD_D3*%
X17838000Y-39347500D02*
X17838000Y-24917000D01*
X17838000Y-24917000D02*
X18118500Y-24636500D01*
%TO.N,SD_DET_L*%
X49482100Y-35717900D02*
X49800000Y-35400000D01*
X49482100Y-51559600D02*
X49482100Y-35717900D01*
X45557000Y-55484700D02*
X49482100Y-51559600D01*
D35*
%TO.N,USB3A_DM*%
X86784700Y-23807400D02*
X79501600Y-31090500D01*
X86784700Y-20225800D02*
X86784700Y-23807400D01*
X89655000Y-17000000D02*
X89655000Y-17657900D01*
X88186100Y-19126800D02*
X87883700Y-19126800D01*
X87883700Y-19126800D02*
X86784700Y-20225800D01*
X79501600Y-31090500D02*
X79501600Y-31650900D01*
X89655000Y-17657900D02*
X88186100Y-19126800D01*
%TO.N,USB3A_DP*%
X87928200Y-17123800D02*
X86487100Y-18564900D01*
X78540000Y-31724300D02*
X78540000Y-31726600D01*
X86487100Y-23777200D02*
X78540000Y-31724300D01*
X89655000Y-15000000D02*
X89655000Y-15660200D01*
X86487100Y-18564900D02*
X86487100Y-23777200D01*
X88191400Y-17123800D02*
X87928200Y-17123800D01*
X89655000Y-15660200D02*
X88191400Y-17123800D01*
%TO.N,USB3_RXN*%
X84049500Y-16105500D02*
X88155000Y-12000000D01*
X84049500Y-18389600D02*
X84049500Y-16105500D01*
D33*
%TO.N,USBA2_DP*%
X83252400Y-36372600D02*
X83252400Y-41739400D01*
X85825000Y-33800000D02*
X83252400Y-36372600D01*
X83252400Y-41739400D02*
X83262800Y-41749800D01*
D35*
%TO.N,USBC_DM*%
X37322900Y-51287300D02*
X40593100Y-48017100D01*
X24221300Y-60273400D02*
X33207400Y-51287300D01*
X33207400Y-51287300D02*
X37322900Y-51287300D01*
X40593100Y-48017100D02*
X40593100Y-42356900D01*
X40593100Y-42356900D02*
X41700000Y-41250000D01*
D33*
%TO.N,USB_HOST_PWREN*%
X77044600Y-32405800D02*
X77044600Y-12967200D01*
X74075000Y-35375400D02*
X77044600Y-32405800D01*
%TO.N,USB_OTG0_VBUSDET*%
X42168100Y-33995800D02*
X42409000Y-33754900D01*
X43040900Y-28781600D02*
X44677800Y-27144700D01*
X42409000Y-32216700D02*
X42644700Y-31981000D01*
X42644700Y-31981000D02*
X42848900Y-31981000D01*
X43040900Y-31789000D02*
X43040900Y-28781600D01*
X44677800Y-27144700D02*
X44677800Y-20295400D01*
X41928600Y-33995800D02*
X42168100Y-33995800D01*
X42409000Y-33754900D02*
X42409000Y-32216700D01*
X41727600Y-34196800D02*
X41928600Y-33995800D01*
X42848900Y-31981000D02*
X43040900Y-31789000D01*
X41727600Y-36602400D02*
X41727600Y-34196800D01*
X44677800Y-20295400D02*
X49895700Y-15077500D01*
D32*
%TO.N,VBUS_USB2A*%
X86793000Y-38300000D02*
X87135000Y-37958000D01*
X85825000Y-38300000D02*
X86793000Y-38300000D01*
%TO.N,VCCA1V8_PLDO2_S0*%
X58557400Y-27037400D02*
X57916400Y-26396400D01*
X56474100Y-22109700D02*
X56474100Y-19365400D01*
X57916400Y-26396400D02*
X57916400Y-23552000D01*
X57916400Y-23552000D02*
X56474100Y-22109700D01*
X56474100Y-19365400D02*
X55817900Y-18709200D01*
%TO.N,VCCA_1V8_S0*%
X43380000Y-37550000D02*
X43380000Y-36900000D01*
%TO.N,VCC_3V3_S0*%
X74379100Y-14654100D02*
X74379100Y-13715700D01*
X74379100Y-13715700D02*
X76057400Y-12037400D01*
%TO.N,VDD2H_DDR_S3*%
X25800000Y-27400000D02*
X25800000Y-26000000D01*
%TO.N,VDDQ_DDR_S0*%
X41430000Y-31700000D02*
X41430000Y-31050000D01*
%TO.N,VDD_CPU_BIG_S0*%
X44670000Y-33650000D02*
X44670000Y-33000000D01*
X45330000Y-34300000D02*
X45330000Y-34950000D01*
%TO.N,VDD_CPU_LIT_S0*%
X43380000Y-34300000D02*
X43380000Y-34950000D01*
X42730000Y-34950000D02*
X42730000Y-34300000D01*
X43380000Y-34300000D02*
X43380000Y-33650000D01*
%TO.N,VDD_DDR_S0*%
X42080000Y-33650000D02*
X42080000Y-33000000D01*
%TO.N,VDD_GPU_S0*%
X44020000Y-31050000D02*
X44020000Y-30400000D01*
X43380000Y-31050000D02*
X43380000Y-31700000D01*
%TO.N,VDD_NPU_S0*%
X46286700Y-30725000D02*
X46286700Y-30706700D01*
X46286700Y-30706700D02*
X45980000Y-30400000D01*
%TD*%
M02*
