%TF.GenerationSoftware,KiCad,Pcbnew,9.0.9-9.0.9~ubuntu24.04.1*%
%TF.CreationDate,2026-10-04T04:00:44+00:00*%
%TF.ProjectId,rk3576-sbc,726b3335-3736-42d7-9362-632e6b696361,rev?*%
%TF.SameCoordinates,Original*%
%TF.FileFunction,Soldermask,Top*%
%TF.FilePolarity,Negative*%
%FSLAX46Y46*%
G04 Gerber Fmt 4.6, Leading zero omitted, Abs format (unit mm)*
G04 Created by KiCad (PCBNEW 9.0.9-9.0.9~ubuntu24.04.1) date 2026-10-04 04:00:44*
%MOMM*%
%LPD*%
G01*
G04 APERTURE LIST*
G04 Aperture macros list*
%AMRoundRect*
0 Rectangle with rounded corners*
0 $1 Rounding radius*
0 $2 $3 $4 $5 $6 $7 $8 $9 X,Y pos of 4 corners*
0 Add a 4 corners polygon primitive as box body*
4,1,4,$2,$3,$4,$5,$6,$7,$8,$9,$2,$3,0*
0 Add four circle primitives for the rounded corners*
1,1,$1+$1,$2,$3*
1,1,$1+$1,$4,$5*
1,1,$1+$1,$6,$7*
1,1,$1+$1,$8,$9*
0 Add four rect primitives between the rounded corners*
20,1,$1+$1,$2,$3,$4,$5,0*
20,1,$1+$1,$4,$5,$6,$7,0*
20,1,$1+$1,$6,$7,$8,$9,0*
20,1,$1+$1,$8,$9,$2,$3,0*%
G04 Aperture macros list end*
%ADD10RoundRect,0.245000X-0.245000X-1.455000X0.245000X-1.455000X0.245000X1.455000X-0.245000X1.455000X0*%
%ADD11C,0.650000*%
%ADD12R,0.600000X1.450000*%
%ADD13R,0.300000X1.450000*%
%ADD14O,1.000000X2.100000*%
%ADD15O,1.000000X1.600000*%
%ADD16RoundRect,0.135000X-0.135000X-0.185000X0.135000X-0.185000X0.135000X0.185000X-0.135000X0.185000X0*%
%ADD17RoundRect,0.225000X-0.225000X-0.250000X0.225000X-0.250000X0.225000X0.250000X-0.225000X0.250000X0*%
%ADD18RoundRect,0.140000X-0.140000X-0.170000X0.140000X-0.170000X0.140000X0.170000X-0.140000X0.170000X0*%
%ADD19RoundRect,0.250000X-0.450000X-0.350000X0.450000X-0.350000X0.450000X0.350000X-0.450000X0.350000X0*%
%ADD20RoundRect,0.250000X-0.300000X-1.600000X0.300000X-1.600000X0.300000X1.600000X-0.300000X1.600000X0*%
%ADD21RoundRect,0.150000X-0.512500X-0.150000X0.512500X-0.150000X0.512500X0.150000X-0.512500X0.150000X0*%
%ADD22RoundRect,0.150000X-0.587500X-0.150000X0.587500X-0.150000X0.587500X0.150000X-0.587500X0.150000X0*%
%ADD23RoundRect,0.100000X-0.130000X-0.100000X0.130000X-0.100000X0.130000X0.100000X-0.130000X0.100000X0*%
%ADD24RoundRect,0.075000X-0.200000X0.075000X-0.200000X-0.075000X0.200000X-0.075000X0.200000X0.075000X0*%
%ADD25RoundRect,0.250000X0.350000X-0.350000X0.350000X0.350000X-0.350000X0.350000X-0.350000X-0.350000X0*%
%ADD26C,1.200000*%
%ADD27O,2.400000X1.200000*%
%ADD28O,2.100000X1.200000*%
%ADD29RoundRect,0.225000X-0.225000X-0.375000X0.225000X-0.375000X0.225000X0.375000X-0.225000X0.375000X0*%
%ADD30C,0.800000*%
%ADD31C,5.400000*%
%ADD32RoundRect,0.050000X-0.362500X-0.050000X0.362500X-0.050000X0.362500X0.050000X-0.362500X0.050000X0*%
%ADD33RoundRect,0.050000X-0.050000X-0.362500X0.050000X-0.362500X0.050000X0.362500X-0.050000X0.362500X0*%
%ADD34R,5.200000X5.200000*%
%ADD35C,0.250000*%
%ADD36R,1.050000X0.650000*%
%ADD37RoundRect,0.250000X-0.250000X-0.475000X0.250000X-0.475000X0.250000X0.475000X-0.250000X0.475000X0*%
%ADD38RoundRect,0.218750X-0.218750X-0.256250X0.218750X-0.256250X0.218750X0.256250X-0.218750X0.256250X0*%
%ADD39C,0.280000*%
%ADD40C,2.000000*%
%ADD41RoundRect,0.250000X-0.375000X-0.625000X0.375000X-0.625000X0.375000X0.625000X-0.375000X0.625000X0*%
%ADD42C,0.350000*%
%ADD43R,1.700000X1.700000*%
%ADD44C,1.700000*%
%ADD45RoundRect,0.250000X-0.300000X-0.300000X0.300000X-0.300000X0.300000X0.300000X-0.300000X0.300000X0*%
%ADD46R,0.300000X2.600000*%
%ADD47O,1.500000X3.300000*%
%ADD48O,1.500000X2.300000*%
G04 APERTURE END LIST*
D10*
%TO.C,L202*%
X46315000Y-8000000D03*
X48685000Y-8000000D03*
%TD*%
D11*
%TO.C,J101*%
X11110000Y-50205000D03*
X16890000Y-50205000D03*
D12*
X10750000Y-48760000D03*
X11550000Y-48760000D03*
D13*
X12750000Y-48760000D03*
X13750000Y-48760000D03*
X14250000Y-48760000D03*
X15250000Y-48760000D03*
D12*
X16450000Y-48760000D03*
X17250000Y-48760000D03*
X17250000Y-48760000D03*
X16450000Y-48760000D03*
D13*
X15750000Y-48760000D03*
X14750000Y-48760000D03*
X13250000Y-48760000D03*
X12250000Y-48760000D03*
D12*
X11550000Y-48760000D03*
X10750000Y-48760000D03*
D14*
X9680000Y-49675000D03*
D15*
X9680000Y-53855000D03*
D14*
X18320000Y-49675000D03*
D15*
X18320000Y-53855000D03*
%TD*%
D16*
%TO.C,R211*%
X49490000Y-35500000D03*
X50510000Y-35500000D03*
%TD*%
D17*
%TO.C,C228*%
X53725000Y-27500000D03*
X55275000Y-27500000D03*
%TD*%
D18*
%TO.C,C309*%
X5520000Y-21000000D03*
X6480000Y-21000000D03*
%TD*%
%TO.C,C243*%
X45520000Y-1500000D03*
X46480000Y-1500000D03*
%TD*%
D19*
%TO.C,Y501*%
X52400000Y-37350000D03*
X54600000Y-37350000D03*
X54600000Y-35650000D03*
X52400000Y-35650000D03*
%TD*%
D16*
%TO.C,R907*%
X19490000Y-35000000D03*
X20510000Y-35000000D03*
%TD*%
D17*
%TO.C,C230*%
X13225000Y-11500000D03*
X14775000Y-11500000D03*
%TD*%
D20*
%TO.C,L303*%
X8000000Y-25500000D03*
X11000000Y-25500000D03*
%TD*%
D16*
%TO.C,R210*%
X44990000Y-36500000D03*
X46010000Y-36500000D03*
%TD*%
D21*
%TO.C,U301*%
X8362500Y-7050000D03*
X8362500Y-8000000D03*
X8362500Y-8950000D03*
X10637500Y-8950000D03*
X10637500Y-8000000D03*
X10637500Y-7050000D03*
%TD*%
D22*
%TO.C,Q906*%
X30562500Y-39975000D03*
X30562500Y-41875000D03*
X32437500Y-40925000D03*
%TD*%
D23*
%TO.C,C904*%
X50180000Y-40000000D03*
X50820000Y-40000000D03*
%TD*%
D16*
%TO.C,R101*%
X13490000Y-46305000D03*
X14510000Y-46305000D03*
%TD*%
D18*
%TO.C,C910*%
X27520000Y-42425000D03*
X28480000Y-42425000D03*
%TD*%
D16*
%TO.C,R915*%
X45490000Y-48425000D03*
X46510000Y-48425000D03*
%TD*%
D23*
%TO.C,C902*%
X46180000Y-40000000D03*
X46820000Y-40000000D03*
%TD*%
D24*
%TO.C,U901*%
X48115000Y-40000000D03*
X48115000Y-40500000D03*
X48115000Y-41000000D03*
X48115000Y-41500000D03*
X48115000Y-42000000D03*
X48885000Y-42000000D03*
X48885000Y-41500000D03*
X48885000Y-41000000D03*
X48885000Y-40500000D03*
X48885000Y-40000000D03*
%TD*%
D25*
%TO.C,J1001*%
X74655000Y-31500000D03*
D26*
X74655000Y-29000000D03*
X74655000Y-27000000D03*
X74655000Y-24500000D03*
X73155000Y-24000000D03*
X73155000Y-26000000D03*
X73155000Y-28000000D03*
X73155000Y-30000000D03*
X73155000Y-32000000D03*
D27*
X73905000Y-34400000D03*
D28*
X82405000Y-34400000D03*
D27*
X73905000Y-21600000D03*
D28*
X82405000Y-21600000D03*
%TD*%
D18*
%TO.C,C251*%
X12020000Y-1500000D03*
X12980000Y-1500000D03*
%TD*%
D16*
%TO.C,R209*%
X33990000Y-36500000D03*
X35010000Y-36500000D03*
%TD*%
D22*
%TO.C,Q902*%
X28062500Y-21050000D03*
X28062500Y-22950000D03*
X29937500Y-22000000D03*
%TD*%
D16*
%TO.C,R903*%
X21990000Y-35000000D03*
X23010000Y-35000000D03*
%TD*%
D17*
%TO.C,C204*%
X28725000Y-3000000D03*
X30275000Y-3000000D03*
%TD*%
D29*
%TO.C,D901*%
X77350000Y-17500000D03*
X80650000Y-17500000D03*
%TD*%
D20*
%TO.C,L208*%
X20500000Y-7000000D03*
X23500000Y-7000000D03*
%TD*%
D17*
%TO.C,C203*%
X32225000Y-3000000D03*
X33775000Y-3000000D03*
%TD*%
%TO.C,C220*%
X50225000Y-27500000D03*
X51775000Y-27500000D03*
%TD*%
D16*
%TO.C,R1004*%
X78990000Y-9000000D03*
X80010000Y-9000000D03*
%TD*%
D18*
%TO.C,C318*%
X73520000Y-8500000D03*
X74480000Y-8500000D03*
%TD*%
D20*
%TO.C,L207*%
X50000000Y-19000000D03*
X53000000Y-19000000D03*
%TD*%
D16*
%TO.C,R912*%
X27490000Y-40925000D03*
X28510000Y-40925000D03*
%TD*%
D23*
%TO.C,C906*%
X50180000Y-42000000D03*
X50820000Y-42000000D03*
%TD*%
D18*
%TO.C,C247*%
X62020000Y-23000000D03*
X62980000Y-23000000D03*
%TD*%
D17*
%TO.C,C218*%
X16725000Y-11500000D03*
X18275000Y-11500000D03*
%TD*%
D18*
%TO.C,C301*%
X9020000Y-5000000D03*
X9980000Y-5000000D03*
%TD*%
%TO.C,C909*%
X35520000Y-38425000D03*
X36480000Y-38425000D03*
%TD*%
D30*
%TO.C,H1203*%
X1475000Y-52500000D03*
X2068109Y-51068109D03*
X2068109Y-53931891D03*
X3500000Y-50475000D03*
D31*
X3500000Y-52500000D03*
D30*
X3500000Y-54525000D03*
X4931891Y-51068109D03*
X4931891Y-53931891D03*
X5525000Y-52500000D03*
%TD*%
D32*
%TO.C,U201*%
X36062500Y-3800000D03*
X36062500Y-4200000D03*
X36062500Y-4600000D03*
X36062500Y-5000000D03*
X36062500Y-5400000D03*
X36062500Y-5800000D03*
X36062500Y-6200000D03*
X36062500Y-6600000D03*
X36062500Y-7000000D03*
X36062500Y-7400000D03*
X36062500Y-7800000D03*
X36062500Y-8200000D03*
X36062500Y-8600000D03*
X36062500Y-9000000D03*
X36062500Y-9400000D03*
X36062500Y-9800000D03*
X36062500Y-10200000D03*
D33*
X36800000Y-10937500D03*
X37200000Y-10937500D03*
X37600000Y-10937500D03*
X38000000Y-10937500D03*
X38400000Y-10937500D03*
X38800000Y-10937500D03*
X39200000Y-10937500D03*
X39600000Y-10937500D03*
X40000000Y-10937500D03*
X40400000Y-10937500D03*
X40800000Y-10937500D03*
X41200000Y-10937500D03*
X41600000Y-10937500D03*
X42000000Y-10937500D03*
X42400000Y-10937500D03*
X42800000Y-10937500D03*
X43200000Y-10937500D03*
D32*
X43937500Y-10200000D03*
X43937500Y-9800000D03*
X43937500Y-9400000D03*
X43937500Y-9000000D03*
X43937500Y-8600000D03*
X43937500Y-8200000D03*
X43937500Y-7800000D03*
X43937500Y-7400000D03*
X43937500Y-7000000D03*
X43937500Y-6600000D03*
X43937500Y-6200000D03*
X43937500Y-5800000D03*
X43937500Y-5400000D03*
X43937500Y-5000000D03*
X43937500Y-4600000D03*
X43937500Y-4200000D03*
X43937500Y-3800000D03*
D33*
X43200000Y-3062500D03*
X42800000Y-3062500D03*
X42400000Y-3062500D03*
X42000000Y-3062500D03*
X41600000Y-3062500D03*
X41200000Y-3062500D03*
X40800000Y-3062500D03*
X40400000Y-3062500D03*
X40000000Y-3062500D03*
X39600000Y-3062500D03*
X39200000Y-3062500D03*
X38800000Y-3062500D03*
X38400000Y-3062500D03*
X38000000Y-3062500D03*
X37600000Y-3062500D03*
X37200000Y-3062500D03*
X36800000Y-3062500D03*
D34*
X40000000Y-7000000D03*
%TD*%
D35*
%TO.C,U401*%
X32850000Y-19125000D03*
X33400000Y-19125000D03*
X33950000Y-19125000D03*
X34500000Y-19125000D03*
X35050000Y-19125000D03*
X35600000Y-19125000D03*
X36150000Y-19125000D03*
X36700000Y-19125000D03*
X37250000Y-19125000D03*
X37800000Y-19125000D03*
X38350000Y-19125000D03*
X38900000Y-19125000D03*
X39450000Y-19125000D03*
X40000000Y-19125000D03*
X40550000Y-19125000D03*
X41100000Y-19125000D03*
X41650000Y-19125000D03*
X42200000Y-19125000D03*
X42750000Y-19125000D03*
X43300000Y-19125000D03*
X43850000Y-19125000D03*
X44400000Y-19125000D03*
X44950000Y-19125000D03*
X45500000Y-19125000D03*
X46050000Y-19125000D03*
X46600000Y-19125000D03*
X47150000Y-19125000D03*
X32850000Y-19675000D03*
X33400000Y-19675000D03*
X33950000Y-19675000D03*
X34500000Y-19675000D03*
X35050000Y-19675000D03*
X35600000Y-19675000D03*
X36150000Y-19675000D03*
X36700000Y-19675000D03*
X37250000Y-19675000D03*
X37800000Y-19675000D03*
X38350000Y-19675000D03*
X38900000Y-19675000D03*
X39450000Y-19675000D03*
X40000000Y-19675000D03*
X40550000Y-19675000D03*
X41100000Y-19675000D03*
X41650000Y-19675000D03*
X42200000Y-19675000D03*
X42750000Y-19675000D03*
X43300000Y-19675000D03*
X43850000Y-19675000D03*
X44400000Y-19675000D03*
X44950000Y-19675000D03*
X45500000Y-19675000D03*
X46050000Y-19675000D03*
X46600000Y-19675000D03*
X47150000Y-19675000D03*
X32850000Y-20225000D03*
X33400000Y-20225000D03*
X33950000Y-20225000D03*
X34500000Y-20225000D03*
X35050000Y-20225000D03*
X35600000Y-20225000D03*
X36150000Y-20225000D03*
X36700000Y-20225000D03*
X37250000Y-20225000D03*
X37800000Y-20225000D03*
X38350000Y-20225000D03*
X38900000Y-20225000D03*
X39450000Y-20225000D03*
X40000000Y-20225000D03*
X40550000Y-20225000D03*
X41100000Y-20225000D03*
X41650000Y-20225000D03*
X42200000Y-20225000D03*
X42750000Y-20225000D03*
X43300000Y-20225000D03*
X43850000Y-20225000D03*
X44400000Y-20225000D03*
X44950000Y-20225000D03*
X45500000Y-20225000D03*
X46050000Y-20225000D03*
X46600000Y-20225000D03*
X47150000Y-20225000D03*
X32850000Y-20775000D03*
X33400000Y-20775000D03*
X33950000Y-20775000D03*
X34500000Y-20775000D03*
X35050000Y-20775000D03*
X35600000Y-20775000D03*
X36150000Y-20775000D03*
X36700000Y-20775000D03*
X37250000Y-20775000D03*
X37800000Y-20775000D03*
X38350000Y-20775000D03*
X38900000Y-20775000D03*
X39450000Y-20775000D03*
X40000000Y-20775000D03*
X40550000Y-20775000D03*
X41100000Y-20775000D03*
X41650000Y-20775000D03*
X42200000Y-20775000D03*
X42750000Y-20775000D03*
X43300000Y-20775000D03*
X43850000Y-20775000D03*
X44400000Y-20775000D03*
X44950000Y-20775000D03*
X45500000Y-20775000D03*
X46050000Y-20775000D03*
X46600000Y-20775000D03*
X47150000Y-20775000D03*
X32850000Y-21325000D03*
X33400000Y-21325000D03*
X33950000Y-21325000D03*
X34500000Y-21325000D03*
X35050000Y-21325000D03*
X35600000Y-21325000D03*
X36150000Y-21325000D03*
X36700000Y-21325000D03*
X37250000Y-21325000D03*
X37800000Y-21325000D03*
X38350000Y-21325000D03*
X38900000Y-21325000D03*
X39450000Y-21325000D03*
X40000000Y-21325000D03*
X40550000Y-21325000D03*
X41100000Y-21325000D03*
X41650000Y-21325000D03*
X42200000Y-21325000D03*
X42750000Y-21325000D03*
X43300000Y-21325000D03*
X43850000Y-21325000D03*
X44400000Y-21325000D03*
X44950000Y-21325000D03*
X45500000Y-21325000D03*
X46050000Y-21325000D03*
X46600000Y-21325000D03*
X47150000Y-21325000D03*
X32850000Y-21875000D03*
X33400000Y-21875000D03*
X33950000Y-21875000D03*
X34500000Y-21875000D03*
X35050000Y-21875000D03*
X35600000Y-21875000D03*
X36150000Y-21875000D03*
X36700000Y-21875000D03*
X37250000Y-21875000D03*
X37800000Y-21875000D03*
X38350000Y-21875000D03*
X38900000Y-21875000D03*
X39450000Y-21875000D03*
X40000000Y-21875000D03*
X40550000Y-21875000D03*
X41100000Y-21875000D03*
X41650000Y-21875000D03*
X42200000Y-21875000D03*
X42750000Y-21875000D03*
X43300000Y-21875000D03*
X43850000Y-21875000D03*
X44400000Y-21875000D03*
X44950000Y-21875000D03*
X45500000Y-21875000D03*
X46050000Y-21875000D03*
X46600000Y-21875000D03*
X47150000Y-21875000D03*
X32850000Y-22425000D03*
X33400000Y-22425000D03*
X33950000Y-22425000D03*
X34500000Y-22425000D03*
X35050000Y-22425000D03*
X35600000Y-22425000D03*
X36150000Y-22425000D03*
X36700000Y-22425000D03*
X37250000Y-22425000D03*
X37800000Y-22425000D03*
X38350000Y-22425000D03*
X38900000Y-22425000D03*
X39450000Y-22425000D03*
X40000000Y-22425000D03*
X40550000Y-22425000D03*
X41100000Y-22425000D03*
X41650000Y-22425000D03*
X42200000Y-22425000D03*
X42750000Y-22425000D03*
X43300000Y-22425000D03*
X43850000Y-22425000D03*
X44400000Y-22425000D03*
X44950000Y-22425000D03*
X45500000Y-22425000D03*
X46050000Y-22425000D03*
X46600000Y-22425000D03*
X47150000Y-22425000D03*
X32850000Y-22975000D03*
X33400000Y-22975000D03*
X33950000Y-22975000D03*
X34500000Y-22975000D03*
X35050000Y-22975000D03*
X35600000Y-22975000D03*
X36150000Y-22975000D03*
X36700000Y-22975000D03*
X37250000Y-22975000D03*
X37800000Y-22975000D03*
X38350000Y-22975000D03*
X38900000Y-22975000D03*
X39450000Y-22975000D03*
X40000000Y-22975000D03*
X40550000Y-22975000D03*
X41100000Y-22975000D03*
X41650000Y-22975000D03*
X42200000Y-22975000D03*
X42750000Y-22975000D03*
X43300000Y-22975000D03*
X43850000Y-22975000D03*
X44400000Y-22975000D03*
X44950000Y-22975000D03*
X45500000Y-22975000D03*
X46050000Y-22975000D03*
X46600000Y-22975000D03*
X47150000Y-22975000D03*
X32850000Y-23525000D03*
X33400000Y-23525000D03*
X33950000Y-23525000D03*
X34500000Y-23525000D03*
X35050000Y-23525000D03*
X35600000Y-23525000D03*
X36150000Y-23525000D03*
X36700000Y-23525000D03*
X37250000Y-23525000D03*
X37800000Y-23525000D03*
X38350000Y-23525000D03*
X38900000Y-23525000D03*
X39450000Y-23525000D03*
X40000000Y-23525000D03*
X40550000Y-23525000D03*
X41100000Y-23525000D03*
X41650000Y-23525000D03*
X42200000Y-23525000D03*
X42750000Y-23525000D03*
X43300000Y-23525000D03*
X43850000Y-23525000D03*
X44400000Y-23525000D03*
X44950000Y-23525000D03*
X45500000Y-23525000D03*
X46050000Y-23525000D03*
X46600000Y-23525000D03*
X47150000Y-23525000D03*
X32850000Y-24075000D03*
X33400000Y-24075000D03*
X33950000Y-24075000D03*
X34500000Y-24075000D03*
X35050000Y-24075000D03*
X35600000Y-24075000D03*
X36150000Y-24075000D03*
X36700000Y-24075000D03*
X37250000Y-24075000D03*
X37800000Y-24075000D03*
X38350000Y-24075000D03*
X38900000Y-24075000D03*
X39450000Y-24075000D03*
X40000000Y-24075000D03*
X40550000Y-24075000D03*
X41100000Y-24075000D03*
X41650000Y-24075000D03*
X42200000Y-24075000D03*
X42750000Y-24075000D03*
X43300000Y-24075000D03*
X43850000Y-24075000D03*
X44400000Y-24075000D03*
X44950000Y-24075000D03*
X45500000Y-24075000D03*
X46050000Y-24075000D03*
X46600000Y-24075000D03*
X47150000Y-24075000D03*
X32850000Y-24625000D03*
X33400000Y-24625000D03*
X33950000Y-24625000D03*
X34500000Y-24625000D03*
X35050000Y-24625000D03*
X35600000Y-24625000D03*
X36150000Y-24625000D03*
X36700000Y-24625000D03*
X37250000Y-24625000D03*
X37800000Y-24625000D03*
X38350000Y-24625000D03*
X38900000Y-24625000D03*
X39450000Y-24625000D03*
X40000000Y-24625000D03*
X40550000Y-24625000D03*
X41100000Y-24625000D03*
X41650000Y-24625000D03*
X42200000Y-24625000D03*
X42750000Y-24625000D03*
X43300000Y-24625000D03*
X43850000Y-24625000D03*
X44400000Y-24625000D03*
X44950000Y-24625000D03*
X45500000Y-24625000D03*
X46050000Y-24625000D03*
X46600000Y-24625000D03*
X47150000Y-24625000D03*
X32850000Y-25175000D03*
X33400000Y-25175000D03*
X33950000Y-25175000D03*
X34500000Y-25175000D03*
X35050000Y-25175000D03*
X35600000Y-25175000D03*
X36150000Y-25175000D03*
X36700000Y-25175000D03*
X37250000Y-25175000D03*
X37800000Y-25175000D03*
X38350000Y-25175000D03*
X38900000Y-25175000D03*
X39450000Y-25175000D03*
X40000000Y-25175000D03*
X40550000Y-25175000D03*
X41100000Y-25175000D03*
X41650000Y-25175000D03*
X42200000Y-25175000D03*
X42750000Y-25175000D03*
X43300000Y-25175000D03*
X43850000Y-25175000D03*
X44400000Y-25175000D03*
X44950000Y-25175000D03*
X45500000Y-25175000D03*
X46050000Y-25175000D03*
X46600000Y-25175000D03*
X47150000Y-25175000D03*
X32850000Y-25725000D03*
X33400000Y-25725000D03*
X33950000Y-25725000D03*
X34500000Y-25725000D03*
X35050000Y-25725000D03*
X35600000Y-25725000D03*
X36150000Y-25725000D03*
X36700000Y-25725000D03*
X37250000Y-25725000D03*
X37800000Y-25725000D03*
X38350000Y-25725000D03*
X38900000Y-25725000D03*
X39450000Y-25725000D03*
X40000000Y-25725000D03*
X40550000Y-25725000D03*
X41100000Y-25725000D03*
X41650000Y-25725000D03*
X42200000Y-25725000D03*
X42750000Y-25725000D03*
X43300000Y-25725000D03*
X43850000Y-25725000D03*
X44400000Y-25725000D03*
X44950000Y-25725000D03*
X45500000Y-25725000D03*
X46050000Y-25725000D03*
X46600000Y-25725000D03*
X47150000Y-25725000D03*
X32850000Y-26275000D03*
X33400000Y-26275000D03*
X33950000Y-26275000D03*
X34500000Y-26275000D03*
X35050000Y-26275000D03*
X35600000Y-26275000D03*
X36150000Y-26275000D03*
X36700000Y-26275000D03*
X37250000Y-26275000D03*
X37800000Y-26275000D03*
X38350000Y-26275000D03*
X38900000Y-26275000D03*
X39450000Y-26275000D03*
X40000000Y-26275000D03*
X40550000Y-26275000D03*
X41100000Y-26275000D03*
X41650000Y-26275000D03*
X42200000Y-26275000D03*
X42750000Y-26275000D03*
X43300000Y-26275000D03*
X43850000Y-26275000D03*
X44400000Y-26275000D03*
X44950000Y-26275000D03*
X45500000Y-26275000D03*
X46050000Y-26275000D03*
X46600000Y-26275000D03*
X47150000Y-26275000D03*
X32850000Y-26825000D03*
X33400000Y-26825000D03*
X33950000Y-26825000D03*
X34500000Y-26825000D03*
X35050000Y-26825000D03*
X35600000Y-26825000D03*
X36150000Y-26825000D03*
X36700000Y-26825000D03*
X37250000Y-26825000D03*
X37800000Y-26825000D03*
X38350000Y-26825000D03*
X38900000Y-26825000D03*
X39450000Y-26825000D03*
X40000000Y-26825000D03*
X40550000Y-26825000D03*
X41100000Y-26825000D03*
X41650000Y-26825000D03*
X42200000Y-26825000D03*
X42750000Y-26825000D03*
X43300000Y-26825000D03*
X43850000Y-26825000D03*
X44400000Y-26825000D03*
X44950000Y-26825000D03*
X45500000Y-26825000D03*
X46050000Y-26825000D03*
X46600000Y-26825000D03*
X47150000Y-26825000D03*
X32850000Y-27375000D03*
X33400000Y-27375000D03*
X33950000Y-27375000D03*
X34500000Y-27375000D03*
X35050000Y-27375000D03*
X35600000Y-27375000D03*
X36150000Y-27375000D03*
X36700000Y-27375000D03*
X37250000Y-27375000D03*
X37800000Y-27375000D03*
X38350000Y-27375000D03*
X38900000Y-27375000D03*
X39450000Y-27375000D03*
X40000000Y-27375000D03*
X40550000Y-27375000D03*
X41100000Y-27375000D03*
X41650000Y-27375000D03*
X42200000Y-27375000D03*
X42750000Y-27375000D03*
X43300000Y-27375000D03*
X43850000Y-27375000D03*
X44400000Y-27375000D03*
X44950000Y-27375000D03*
X45500000Y-27375000D03*
X46050000Y-27375000D03*
X46600000Y-27375000D03*
X47150000Y-27375000D03*
X32850000Y-27925000D03*
X33400000Y-27925000D03*
X33950000Y-27925000D03*
X34500000Y-27925000D03*
X35050000Y-27925000D03*
X35600000Y-27925000D03*
X36150000Y-27925000D03*
X36700000Y-27925000D03*
X37250000Y-27925000D03*
X37800000Y-27925000D03*
X38350000Y-27925000D03*
X38900000Y-27925000D03*
X39450000Y-27925000D03*
X40000000Y-27925000D03*
X40550000Y-27925000D03*
X41100000Y-27925000D03*
X41650000Y-27925000D03*
X42200000Y-27925000D03*
X42750000Y-27925000D03*
X43300000Y-27925000D03*
X43850000Y-27925000D03*
X44400000Y-27925000D03*
X44950000Y-27925000D03*
X45500000Y-27925000D03*
X46050000Y-27925000D03*
X46600000Y-27925000D03*
X47150000Y-27925000D03*
X32850000Y-28475000D03*
X33400000Y-28475000D03*
X33950000Y-28475000D03*
X34500000Y-28475000D03*
X35050000Y-28475000D03*
X35600000Y-28475000D03*
X36150000Y-28475000D03*
X36700000Y-28475000D03*
X37250000Y-28475000D03*
X37800000Y-28475000D03*
X38350000Y-28475000D03*
X38900000Y-28475000D03*
X39450000Y-28475000D03*
X40000000Y-28475000D03*
X40550000Y-28475000D03*
X41100000Y-28475000D03*
X41650000Y-28475000D03*
X42200000Y-28475000D03*
X42750000Y-28475000D03*
X43300000Y-28475000D03*
X43850000Y-28475000D03*
X44400000Y-28475000D03*
X44950000Y-28475000D03*
X45500000Y-28475000D03*
X46050000Y-28475000D03*
X46600000Y-28475000D03*
X47150000Y-28475000D03*
X32850000Y-29025000D03*
X33400000Y-29025000D03*
X33950000Y-29025000D03*
X34500000Y-29025000D03*
X35050000Y-29025000D03*
X35600000Y-29025000D03*
X36150000Y-29025000D03*
X36700000Y-29025000D03*
X37250000Y-29025000D03*
X37800000Y-29025000D03*
X38350000Y-29025000D03*
X38900000Y-29025000D03*
X39450000Y-29025000D03*
X40000000Y-29025000D03*
X40550000Y-29025000D03*
X41100000Y-29025000D03*
X41650000Y-29025000D03*
X42200000Y-29025000D03*
X42750000Y-29025000D03*
X43300000Y-29025000D03*
X43850000Y-29025000D03*
X44400000Y-29025000D03*
X44950000Y-29025000D03*
X45500000Y-29025000D03*
X46050000Y-29025000D03*
X46600000Y-29025000D03*
X47150000Y-29025000D03*
X32850000Y-29575000D03*
X33400000Y-29575000D03*
X33950000Y-29575000D03*
X34500000Y-29575000D03*
X35050000Y-29575000D03*
X35600000Y-29575000D03*
X36150000Y-29575000D03*
X36700000Y-29575000D03*
X37250000Y-29575000D03*
X37800000Y-29575000D03*
X38350000Y-29575000D03*
X38900000Y-29575000D03*
X39450000Y-29575000D03*
X40000000Y-29575000D03*
X40550000Y-29575000D03*
X41100000Y-29575000D03*
X41650000Y-29575000D03*
X42200000Y-29575000D03*
X42750000Y-29575000D03*
X43300000Y-29575000D03*
X43850000Y-29575000D03*
X44400000Y-29575000D03*
X44950000Y-29575000D03*
X45500000Y-29575000D03*
X46050000Y-29575000D03*
X46600000Y-29575000D03*
X47150000Y-29575000D03*
X32850000Y-30125000D03*
X33400000Y-30125000D03*
X33950000Y-30125000D03*
X34500000Y-30125000D03*
X35050000Y-30125000D03*
X35600000Y-30125000D03*
X36150000Y-30125000D03*
X36700000Y-30125000D03*
X37250000Y-30125000D03*
X37800000Y-30125000D03*
X38350000Y-30125000D03*
X38900000Y-30125000D03*
X39450000Y-30125000D03*
X40000000Y-30125000D03*
X40550000Y-30125000D03*
X41100000Y-30125000D03*
X41650000Y-30125000D03*
X42200000Y-30125000D03*
X42750000Y-30125000D03*
X43300000Y-30125000D03*
X43850000Y-30125000D03*
X44400000Y-30125000D03*
X44950000Y-30125000D03*
X45500000Y-30125000D03*
X46050000Y-30125000D03*
X46600000Y-30125000D03*
X47150000Y-30125000D03*
X32850000Y-30675000D03*
X33400000Y-30675000D03*
X33950000Y-30675000D03*
X34500000Y-30675000D03*
X35050000Y-30675000D03*
X35600000Y-30675000D03*
X36150000Y-30675000D03*
X36700000Y-30675000D03*
X37250000Y-30675000D03*
X37800000Y-30675000D03*
X38350000Y-30675000D03*
X38900000Y-30675000D03*
X39450000Y-30675000D03*
X40000000Y-30675000D03*
X40550000Y-30675000D03*
X41100000Y-30675000D03*
X41650000Y-30675000D03*
X42200000Y-30675000D03*
X42750000Y-30675000D03*
X43300000Y-30675000D03*
X43850000Y-30675000D03*
X44400000Y-30675000D03*
X44950000Y-30675000D03*
X45500000Y-30675000D03*
X46050000Y-30675000D03*
X46600000Y-30675000D03*
X47150000Y-30675000D03*
X32850000Y-31225000D03*
X33400000Y-31225000D03*
X33950000Y-31225000D03*
X34500000Y-31225000D03*
X35050000Y-31225000D03*
X35600000Y-31225000D03*
X36150000Y-31225000D03*
X36700000Y-31225000D03*
X37250000Y-31225000D03*
X37800000Y-31225000D03*
X38350000Y-31225000D03*
X38900000Y-31225000D03*
X39450000Y-31225000D03*
X40000000Y-31225000D03*
X40550000Y-31225000D03*
X41100000Y-31225000D03*
X41650000Y-31225000D03*
X42200000Y-31225000D03*
X42750000Y-31225000D03*
X43300000Y-31225000D03*
X43850000Y-31225000D03*
X44400000Y-31225000D03*
X44950000Y-31225000D03*
X45500000Y-31225000D03*
X46050000Y-31225000D03*
X46600000Y-31225000D03*
X47150000Y-31225000D03*
X32850000Y-31775000D03*
X33400000Y-31775000D03*
X33950000Y-31775000D03*
X34500000Y-31775000D03*
X35050000Y-31775000D03*
X35600000Y-31775000D03*
X36150000Y-31775000D03*
X36700000Y-31775000D03*
X37250000Y-31775000D03*
X37800000Y-31775000D03*
X38350000Y-31775000D03*
X38900000Y-31775000D03*
X39450000Y-31775000D03*
X40000000Y-31775000D03*
X40550000Y-31775000D03*
X41100000Y-31775000D03*
X41650000Y-31775000D03*
X42200000Y-31775000D03*
X42750000Y-31775000D03*
X43300000Y-31775000D03*
X43850000Y-31775000D03*
X44400000Y-31775000D03*
X44950000Y-31775000D03*
X45500000Y-31775000D03*
X46050000Y-31775000D03*
X46600000Y-31775000D03*
X47150000Y-31775000D03*
X32850000Y-32325000D03*
X33400000Y-32325000D03*
X33950000Y-32325000D03*
X34500000Y-32325000D03*
X35050000Y-32325000D03*
X35600000Y-32325000D03*
X36150000Y-32325000D03*
X36700000Y-32325000D03*
X37250000Y-32325000D03*
X37800000Y-32325000D03*
X38350000Y-32325000D03*
X38900000Y-32325000D03*
X39450000Y-32325000D03*
X40000000Y-32325000D03*
X40550000Y-32325000D03*
X41100000Y-32325000D03*
X41650000Y-32325000D03*
X42200000Y-32325000D03*
X42750000Y-32325000D03*
X43300000Y-32325000D03*
X43850000Y-32325000D03*
X44400000Y-32325000D03*
X44950000Y-32325000D03*
X45500000Y-32325000D03*
X46050000Y-32325000D03*
X46600000Y-32325000D03*
X47150000Y-32325000D03*
X32850000Y-32875000D03*
X33400000Y-32875000D03*
X33950000Y-32875000D03*
X34500000Y-32875000D03*
X35050000Y-32875000D03*
X35600000Y-32875000D03*
X36150000Y-32875000D03*
X36700000Y-32875000D03*
X37250000Y-32875000D03*
X37800000Y-32875000D03*
X38350000Y-32875000D03*
X38900000Y-32875000D03*
X39450000Y-32875000D03*
X40000000Y-32875000D03*
X40550000Y-32875000D03*
X41100000Y-32875000D03*
X41650000Y-32875000D03*
X42200000Y-32875000D03*
X42750000Y-32875000D03*
X43300000Y-32875000D03*
X43850000Y-32875000D03*
X44400000Y-32875000D03*
X44950000Y-32875000D03*
%TD*%
D20*
%TO.C,L301*%
X13000000Y-8000000D03*
X16000000Y-8000000D03*
%TD*%
D16*
%TO.C,R302*%
X6490000Y-18000000D03*
X7510000Y-18000000D03*
%TD*%
D17*
%TO.C,C207*%
X51225000Y-12000000D03*
X52775000Y-12000000D03*
%TD*%
D18*
%TO.C,C252*%
X53520000Y-31500000D03*
X54480000Y-31500000D03*
%TD*%
D16*
%TO.C,R911*%
X40490000Y-38425000D03*
X41510000Y-38425000D03*
%TD*%
%TO.C,R902*%
X28490000Y-36500000D03*
X29510000Y-36500000D03*
%TD*%
D24*
%TO.C,U902*%
X44115000Y-40000000D03*
X44115000Y-40500000D03*
X44115000Y-41000000D03*
X44115000Y-41500000D03*
X44115000Y-42000000D03*
X44885000Y-42000000D03*
X44885000Y-41500000D03*
X44885000Y-41000000D03*
X44885000Y-40500000D03*
X44885000Y-40000000D03*
%TD*%
D21*
%TO.C,U1004*%
X72862500Y-13050000D03*
X72862500Y-14000000D03*
X72862500Y-14950000D03*
X75137500Y-14950000D03*
X75137500Y-13050000D03*
%TD*%
D23*
%TO.C,C905*%
X46180000Y-42000000D03*
X46820000Y-42000000D03*
%TD*%
D18*
%TO.C,C246*%
X18020000Y-8500000D03*
X18980000Y-8500000D03*
%TD*%
D17*
%TO.C,C201*%
X39225000Y-13000000D03*
X40775000Y-13000000D03*
%TD*%
D16*
%TO.C,R304*%
X5490000Y-19500000D03*
X6510000Y-19500000D03*
%TD*%
D36*
%TO.C,SW502*%
X55925000Y-1925000D03*
X60075000Y-1925000D03*
X55925000Y-4075000D03*
X60075000Y-4075000D03*
%TD*%
D16*
%TO.C,R204*%
X42490000Y-36500000D03*
X43510000Y-36500000D03*
%TD*%
D22*
%TO.C,Q907*%
X39562500Y-39975000D03*
X39562500Y-41875000D03*
X41437500Y-40925000D03*
%TD*%
D17*
%TO.C,C235*%
X58725000Y-25500000D03*
X60275000Y-25500000D03*
%TD*%
%TO.C,C104*%
X68725000Y-11500000D03*
X70275000Y-11500000D03*
%TD*%
D21*
%TO.C,U302*%
X8362500Y-13550000D03*
X8362500Y-14500000D03*
X8362500Y-15450000D03*
X10637500Y-15450000D03*
X10637500Y-14500000D03*
X10637500Y-13550000D03*
%TD*%
D17*
%TO.C,C219*%
X55225000Y-23500000D03*
X56775000Y-23500000D03*
%TD*%
D16*
%TO.C,R908*%
X20990000Y-36500000D03*
X22010000Y-36500000D03*
%TD*%
%TO.C,R910*%
X37990000Y-38425000D03*
X39010000Y-38425000D03*
%TD*%
%TO.C,R307*%
X53990000Y-46000000D03*
X55010000Y-46000000D03*
%TD*%
D17*
%TO.C,C234*%
X13725000Y-15500000D03*
X15275000Y-15500000D03*
%TD*%
D16*
%TO.C,R901*%
X24490000Y-35000000D03*
X25510000Y-35000000D03*
%TD*%
%TO.C,R212*%
X60490000Y-29000000D03*
X61510000Y-29000000D03*
%TD*%
D18*
%TO.C,C244*%
X18020000Y-7000000D03*
X18980000Y-7000000D03*
%TD*%
D37*
%TO.C,C101*%
X68550000Y-17500000D03*
X70450000Y-17500000D03*
%TD*%
D16*
%TO.C,R301*%
X1490000Y-8000000D03*
X2510000Y-8000000D03*
%TD*%
%TO.C,R206*%
X68990000Y-3500000D03*
X70010000Y-3500000D03*
%TD*%
D17*
%TO.C,C317*%
X69725000Y-5500000D03*
X71275000Y-5500000D03*
%TD*%
D38*
%TO.C,FB301*%
X60212500Y-6500000D03*
X61787500Y-6500000D03*
%TD*%
D18*
%TO.C,C501*%
X53020000Y-39500000D03*
X53980000Y-39500000D03*
%TD*%
D39*
%TO.C,U701*%
X57750000Y-11750000D03*
X58250000Y-11750000D03*
X58750000Y-11750000D03*
X59250000Y-11750000D03*
X59750000Y-11750000D03*
X60250000Y-11750000D03*
X60750000Y-11750000D03*
X61250000Y-11750000D03*
X61750000Y-11750000D03*
X62250000Y-11750000D03*
X62750000Y-11750000D03*
X63250000Y-11750000D03*
X63750000Y-11750000D03*
X64250000Y-11750000D03*
X57750000Y-12250000D03*
X58250000Y-12250000D03*
X58750000Y-12250000D03*
X59250000Y-12250000D03*
X59750000Y-12250000D03*
X60250000Y-12250000D03*
X60750000Y-12250000D03*
X61250000Y-12250000D03*
X61750000Y-12250000D03*
X62250000Y-12250000D03*
X62750000Y-12250000D03*
X63250000Y-12250000D03*
X63750000Y-12250000D03*
X64250000Y-12250000D03*
X57750000Y-12750000D03*
X58250000Y-12750000D03*
X58750000Y-12750000D03*
X59250000Y-12750000D03*
X59750000Y-12750000D03*
X60250000Y-12750000D03*
X60750000Y-12750000D03*
X61250000Y-12750000D03*
X61750000Y-12750000D03*
X62250000Y-12750000D03*
X62750000Y-12750000D03*
X63250000Y-12750000D03*
X63750000Y-12750000D03*
X64250000Y-12750000D03*
X57750000Y-13250000D03*
X58250000Y-13250000D03*
X58750000Y-13250000D03*
X59250000Y-13250000D03*
X63250000Y-13250000D03*
X63750000Y-13250000D03*
X64250000Y-13250000D03*
X57750000Y-13750000D03*
X58250000Y-13750000D03*
X58750000Y-13750000D03*
X59750000Y-13750000D03*
X60250000Y-13750000D03*
X60750000Y-13750000D03*
X61250000Y-13750000D03*
X61750000Y-13750000D03*
X62250000Y-13750000D03*
X63250000Y-13750000D03*
X63750000Y-13750000D03*
X64250000Y-13750000D03*
X57750000Y-14250000D03*
X58250000Y-14250000D03*
X58750000Y-14250000D03*
X59750000Y-14250000D03*
X62250000Y-14250000D03*
X63250000Y-14250000D03*
X63750000Y-14250000D03*
X64250000Y-14250000D03*
X57750000Y-14750000D03*
X58250000Y-14750000D03*
X58750000Y-14750000D03*
X59750000Y-14750000D03*
X62250000Y-14750000D03*
X63250000Y-14750000D03*
X63750000Y-14750000D03*
X64250000Y-14750000D03*
X57750000Y-15250000D03*
X58250000Y-15250000D03*
X58750000Y-15250000D03*
X59750000Y-15250000D03*
X62250000Y-15250000D03*
X63250000Y-15250000D03*
X63750000Y-15250000D03*
X64250000Y-15250000D03*
X57750000Y-15750000D03*
X58250000Y-15750000D03*
X58750000Y-15750000D03*
X59750000Y-15750000D03*
X62250000Y-15750000D03*
X63250000Y-15750000D03*
X63750000Y-15750000D03*
X64250000Y-15750000D03*
X57750000Y-16250000D03*
X58250000Y-16250000D03*
X58750000Y-16250000D03*
X59750000Y-16250000D03*
X60250000Y-16250000D03*
X60750000Y-16250000D03*
X61250000Y-16250000D03*
X61750000Y-16250000D03*
X62250000Y-16250000D03*
X63250000Y-16250000D03*
X63750000Y-16250000D03*
X64250000Y-16250000D03*
X57750000Y-16750000D03*
X58250000Y-16750000D03*
X58750000Y-16750000D03*
X63250000Y-16750000D03*
X63750000Y-16750000D03*
X64250000Y-16750000D03*
X57750000Y-17250000D03*
X58250000Y-17250000D03*
X58750000Y-17250000D03*
X59250000Y-17250000D03*
X59750000Y-17250000D03*
X60250000Y-17250000D03*
X60750000Y-17250000D03*
X61250000Y-17250000D03*
X61750000Y-17250000D03*
X62250000Y-17250000D03*
X62750000Y-17250000D03*
X63250000Y-17250000D03*
X63750000Y-17250000D03*
X64250000Y-17250000D03*
X57750000Y-17750000D03*
X58250000Y-17750000D03*
X58750000Y-17750000D03*
X59250000Y-17750000D03*
X59750000Y-17750000D03*
X60250000Y-17750000D03*
X60750000Y-17750000D03*
X61250000Y-17750000D03*
X61750000Y-17750000D03*
X62250000Y-17750000D03*
X62750000Y-17750000D03*
X63250000Y-17750000D03*
X63750000Y-17750000D03*
X64250000Y-17750000D03*
X57750000Y-18250000D03*
X58250000Y-18250000D03*
X58750000Y-18250000D03*
X59250000Y-18250000D03*
X59750000Y-18250000D03*
X60250000Y-18250000D03*
X60750000Y-18250000D03*
X61250000Y-18250000D03*
X61750000Y-18250000D03*
X62250000Y-18250000D03*
X62750000Y-18250000D03*
X63250000Y-18250000D03*
X63750000Y-18250000D03*
X64250000Y-18250000D03*
%TD*%
D20*
%TO.C,L304*%
X56500000Y-41500000D03*
X59500000Y-41500000D03*
%TD*%
%TO.C,L302*%
X3000000Y-14500000D03*
X6000000Y-14500000D03*
%TD*%
D21*
%TO.C,U1001*%
X22862500Y-45050000D03*
X22862500Y-46000000D03*
X22862500Y-46950000D03*
X25137500Y-46950000D03*
X25137500Y-46000000D03*
X25137500Y-45050000D03*
%TD*%
D22*
%TO.C,Q901*%
X28062500Y-25050000D03*
X28062500Y-26950000D03*
X29937500Y-26000000D03*
%TD*%
D17*
%TO.C,C226*%
X14725000Y-2500000D03*
X16275000Y-2500000D03*
%TD*%
%TO.C,C224*%
X63725000Y-6500000D03*
X65275000Y-6500000D03*
%TD*%
D40*
%TO.C,FID1203*%
X23000000Y-53000000D03*
%TD*%
D16*
%TO.C,R917*%
X25490000Y-48925000D03*
X26510000Y-48925000D03*
%TD*%
%TO.C,R203*%
X36490000Y-36500000D03*
X37510000Y-36500000D03*
%TD*%
D23*
%TO.C,C907*%
X44180000Y-38500000D03*
X44820000Y-38500000D03*
%TD*%
D41*
%TO.C,F101*%
X77600000Y-14500000D03*
X80400000Y-14500000D03*
%TD*%
D38*
%TO.C,LED101*%
X2712500Y-46000000D03*
X4287500Y-46000000D03*
%TD*%
D17*
%TO.C,C314*%
X1725000Y-10000000D03*
X3275000Y-10000000D03*
%TD*%
D18*
%TO.C,C238*%
X36520000Y-13000000D03*
X37480000Y-13000000D03*
%TD*%
D17*
%TO.C,C210*%
X25225000Y-1500000D03*
X26775000Y-1500000D03*
%TD*%
%TO.C,C307*%
X62225000Y-25000000D03*
X63775000Y-25000000D03*
%TD*%
D36*
%TO.C,SW501*%
X48925000Y-1925000D03*
X53075000Y-1925000D03*
X48925000Y-4075000D03*
X53075000Y-4075000D03*
%TD*%
D22*
%TO.C,Q904*%
X28062500Y-17050000D03*
X28062500Y-18950000D03*
X29937500Y-18000000D03*
%TD*%
D17*
%TO.C,C223*%
X55225000Y-25500000D03*
X56775000Y-25500000D03*
%TD*%
D18*
%TO.C,C241*%
X36520000Y-14500000D03*
X37480000Y-14500000D03*
%TD*%
D38*
%TO.C,LED501*%
X2712500Y-43000000D03*
X4287500Y-43000000D03*
%TD*%
D17*
%TO.C,C236*%
X57225000Y-27500000D03*
X58775000Y-27500000D03*
%TD*%
D16*
%TO.C,R909*%
X32990000Y-38425000D03*
X34010000Y-38425000D03*
%TD*%
D23*
%TO.C,C908*%
X45180000Y-43500000D03*
X45820000Y-43500000D03*
%TD*%
D17*
%TO.C,C306*%
X4225000Y-8000000D03*
X5775000Y-8000000D03*
%TD*%
%TO.C,C227*%
X50225000Y-29500000D03*
X51775000Y-29500000D03*
%TD*%
D42*
%TO.C,U601*%
X14400000Y-19000000D03*
X15200000Y-19000000D03*
X16000000Y-19000000D03*
X16800000Y-19000000D03*
X17600000Y-19000000D03*
X18400000Y-19000000D03*
X19200000Y-19000000D03*
X20000000Y-19000000D03*
X20800000Y-19000000D03*
X21600000Y-19000000D03*
X22400000Y-19000000D03*
X23200000Y-19000000D03*
X24000000Y-19000000D03*
X24800000Y-19000000D03*
X25600000Y-19000000D03*
X14400000Y-33000000D03*
X15200000Y-33000000D03*
X16000000Y-33000000D03*
X16800000Y-33000000D03*
X17600000Y-33000000D03*
X18400000Y-33000000D03*
X19200000Y-33000000D03*
X20000000Y-33000000D03*
X20800000Y-33000000D03*
X21600000Y-33000000D03*
X22400000Y-33000000D03*
X23200000Y-33000000D03*
X24000000Y-33000000D03*
X24800000Y-33000000D03*
X25600000Y-33000000D03*
X14400000Y-19700000D03*
X15200000Y-19700000D03*
X16000000Y-19700000D03*
X16800000Y-19700000D03*
X17600000Y-19700000D03*
X18400000Y-19700000D03*
X19200000Y-19700000D03*
X20000000Y-19700000D03*
X20800000Y-19700000D03*
X21600000Y-19700000D03*
X22400000Y-19700000D03*
X23200000Y-19700000D03*
X24000000Y-19700000D03*
X24800000Y-19700000D03*
X25600000Y-19700000D03*
X14400000Y-20400000D03*
X15200000Y-20400000D03*
X16000000Y-20400000D03*
X16800000Y-20400000D03*
X17600000Y-20400000D03*
X18400000Y-20400000D03*
X19200000Y-20400000D03*
X20000000Y-20400000D03*
X20800000Y-20400000D03*
X21600000Y-20400000D03*
X22400000Y-20400000D03*
X23200000Y-20400000D03*
X24000000Y-20400000D03*
X24800000Y-20400000D03*
X25600000Y-20400000D03*
X14400000Y-21100000D03*
X15200000Y-21100000D03*
X16000000Y-21100000D03*
X16800000Y-21100000D03*
X17600000Y-21100000D03*
X18400000Y-21100000D03*
X19200000Y-21100000D03*
X20000000Y-21100000D03*
X20800000Y-21100000D03*
X21600000Y-21100000D03*
X22400000Y-21100000D03*
X23200000Y-21100000D03*
X24000000Y-21100000D03*
X24800000Y-21100000D03*
X25600000Y-21100000D03*
X14400000Y-21800000D03*
X15200000Y-21800000D03*
X16000000Y-21800000D03*
X16800000Y-21800000D03*
X17600000Y-21800000D03*
X18400000Y-21800000D03*
X19200000Y-21800000D03*
X20000000Y-21800000D03*
X20800000Y-21800000D03*
X21600000Y-21800000D03*
X22400000Y-21800000D03*
X23200000Y-21800000D03*
X24000000Y-21800000D03*
X24800000Y-21800000D03*
X25600000Y-21800000D03*
X14400000Y-22500000D03*
X15200000Y-22500000D03*
X16000000Y-22500000D03*
X16800000Y-22500000D03*
X17600000Y-22500000D03*
X18400000Y-22500000D03*
X19200000Y-22500000D03*
X20000000Y-22500000D03*
X20800000Y-22500000D03*
X21600000Y-22500000D03*
X22400000Y-22500000D03*
X23200000Y-22500000D03*
X24000000Y-22500000D03*
X24800000Y-22500000D03*
X25600000Y-22500000D03*
X14400000Y-23200000D03*
X15200000Y-23200000D03*
X16000000Y-23200000D03*
X16800000Y-23200000D03*
X17600000Y-23200000D03*
X18400000Y-23200000D03*
X19200000Y-23200000D03*
X20000000Y-23200000D03*
X20800000Y-23200000D03*
X21600000Y-23200000D03*
X22400000Y-23200000D03*
X23200000Y-23200000D03*
X24000000Y-23200000D03*
X24800000Y-23200000D03*
X25600000Y-23200000D03*
X14400000Y-23900000D03*
X15200000Y-23900000D03*
X16000000Y-23900000D03*
X16800000Y-23900000D03*
X17600000Y-23900000D03*
X18400000Y-23900000D03*
X19200000Y-23900000D03*
X20000000Y-23900000D03*
X20800000Y-23900000D03*
X21600000Y-23900000D03*
X22400000Y-23900000D03*
X23200000Y-23900000D03*
X24000000Y-23900000D03*
X24800000Y-23900000D03*
X25600000Y-23900000D03*
X14400000Y-24600000D03*
X15200000Y-24600000D03*
X16000000Y-24600000D03*
X16800000Y-24600000D03*
X17600000Y-24600000D03*
X18400000Y-24600000D03*
X19200000Y-24600000D03*
X20000000Y-24600000D03*
X20800000Y-24600000D03*
X21600000Y-24600000D03*
X22400000Y-24600000D03*
X23200000Y-24600000D03*
X24000000Y-24600000D03*
X24800000Y-24600000D03*
X25600000Y-24600000D03*
X14400000Y-25300000D03*
X15200000Y-25300000D03*
X16000000Y-25300000D03*
X16800000Y-25300000D03*
X17600000Y-25300000D03*
X18400000Y-25300000D03*
X19200000Y-25300000D03*
X20000000Y-25300000D03*
X20800000Y-25300000D03*
X21600000Y-25300000D03*
X22400000Y-25300000D03*
X23200000Y-25300000D03*
X24000000Y-25300000D03*
X24800000Y-25300000D03*
X25600000Y-25300000D03*
X14400000Y-26000000D03*
X15200000Y-26000000D03*
X16000000Y-26000000D03*
X16800000Y-26000000D03*
X17600000Y-26000000D03*
X18400000Y-26000000D03*
X19200000Y-26000000D03*
X20000000Y-26000000D03*
X20800000Y-26000000D03*
X21600000Y-26000000D03*
X22400000Y-26000000D03*
X23200000Y-26000000D03*
X24000000Y-26000000D03*
X24800000Y-26000000D03*
X25600000Y-26000000D03*
X14400000Y-26700000D03*
X15200000Y-26700000D03*
X16000000Y-26700000D03*
X16800000Y-26700000D03*
X17600000Y-26700000D03*
X18400000Y-26700000D03*
X19200000Y-26700000D03*
X20000000Y-26700000D03*
X20800000Y-26700000D03*
X21600000Y-26700000D03*
X22400000Y-26700000D03*
X23200000Y-26700000D03*
X24000000Y-26700000D03*
X24800000Y-26700000D03*
X25600000Y-26700000D03*
X14400000Y-27400000D03*
X15200000Y-27400000D03*
X16000000Y-27400000D03*
X16800000Y-27400000D03*
X17600000Y-27400000D03*
X18400000Y-27400000D03*
X19200000Y-27400000D03*
X20000000Y-27400000D03*
X20800000Y-27400000D03*
X21600000Y-27400000D03*
X22400000Y-27400000D03*
X23200000Y-27400000D03*
X24000000Y-27400000D03*
X24800000Y-27400000D03*
X25600000Y-27400000D03*
X14400000Y-28100000D03*
X15200000Y-28100000D03*
X16000000Y-28100000D03*
X16800000Y-28100000D03*
X17600000Y-28100000D03*
X18400000Y-28100000D03*
X19200000Y-28100000D03*
X20000000Y-28100000D03*
X20800000Y-28100000D03*
X21600000Y-28100000D03*
X22400000Y-28100000D03*
X23200000Y-28100000D03*
X24000000Y-28100000D03*
X24800000Y-28100000D03*
X25600000Y-28100000D03*
X14400000Y-28800000D03*
X15200000Y-28800000D03*
X16000000Y-28800000D03*
X16800000Y-28800000D03*
X17600000Y-28800000D03*
X18400000Y-28800000D03*
X19200000Y-28800000D03*
X20000000Y-28800000D03*
X20800000Y-28800000D03*
X21600000Y-28800000D03*
X22400000Y-28800000D03*
X23200000Y-28800000D03*
X24000000Y-28800000D03*
X24800000Y-28800000D03*
X25600000Y-28800000D03*
X14400000Y-29500000D03*
X15200000Y-29500000D03*
X16000000Y-29500000D03*
X16800000Y-29500000D03*
X17600000Y-29500000D03*
X18400000Y-29500000D03*
X19200000Y-29500000D03*
X20000000Y-29500000D03*
X20800000Y-29500000D03*
X21600000Y-29500000D03*
X22400000Y-29500000D03*
X23200000Y-29500000D03*
X24000000Y-29500000D03*
X24800000Y-29500000D03*
X25600000Y-29500000D03*
X14400000Y-30200000D03*
X15200000Y-30200000D03*
X16000000Y-30200000D03*
X16800000Y-30200000D03*
X17600000Y-30200000D03*
X18400000Y-30200000D03*
X19200000Y-30200000D03*
X20000000Y-30200000D03*
X20800000Y-30200000D03*
X21600000Y-30200000D03*
X22400000Y-30200000D03*
X23200000Y-30200000D03*
X24000000Y-30200000D03*
X24800000Y-30200000D03*
X25600000Y-30200000D03*
X14400000Y-30900000D03*
X15200000Y-30900000D03*
X16000000Y-30900000D03*
X16800000Y-30900000D03*
X17600000Y-30900000D03*
X18400000Y-30900000D03*
X19200000Y-30900000D03*
X20000000Y-30900000D03*
X20800000Y-30900000D03*
X21600000Y-30900000D03*
X22400000Y-30900000D03*
X23200000Y-30900000D03*
X24000000Y-30900000D03*
X24800000Y-30900000D03*
X25600000Y-30900000D03*
X14400000Y-31600000D03*
X15200000Y-31600000D03*
X16000000Y-31600000D03*
X16800000Y-31600000D03*
X17600000Y-31600000D03*
X18400000Y-31600000D03*
X19200000Y-31600000D03*
X20000000Y-31600000D03*
X20800000Y-31600000D03*
X21600000Y-31600000D03*
X22400000Y-31600000D03*
X23200000Y-31600000D03*
X24000000Y-31600000D03*
X24800000Y-31600000D03*
X25600000Y-31600000D03*
X14400000Y-32300000D03*
X15200000Y-32300000D03*
X16000000Y-32300000D03*
X16800000Y-32300000D03*
X17600000Y-32300000D03*
X18400000Y-32300000D03*
X19200000Y-32300000D03*
X20000000Y-32300000D03*
X20800000Y-32300000D03*
X21600000Y-32300000D03*
X22400000Y-32300000D03*
X23200000Y-32300000D03*
X24000000Y-32300000D03*
X24800000Y-32300000D03*
X25600000Y-32300000D03*
%TD*%
D21*
%TO.C,U304*%
X56862500Y-45050000D03*
X56862500Y-46000000D03*
X56862500Y-46950000D03*
X59137500Y-46950000D03*
X59137500Y-46000000D03*
X59137500Y-45050000D03*
%TD*%
D16*
%TO.C,R501*%
X56490000Y-36500000D03*
X57510000Y-36500000D03*
%TD*%
D18*
%TO.C,C305*%
X9020000Y-17500000D03*
X9980000Y-17500000D03*
%TD*%
%TO.C,C249*%
X12020000Y-3000000D03*
X12980000Y-3000000D03*
%TD*%
D17*
%TO.C,C211*%
X55225000Y-6500000D03*
X56775000Y-6500000D03*
%TD*%
D20*
%TO.C,L209*%
X20500000Y-12000000D03*
X23500000Y-12000000D03*
%TD*%
D38*
%TO.C,LED801*%
X2712500Y-40000000D03*
X4287500Y-40000000D03*
%TD*%
D43*
%TO.C,J501*%
X64000000Y-52600000D03*
D44*
X66540000Y-52600000D03*
X69080000Y-52600000D03*
%TD*%
D23*
%TO.C,C1002*%
X69835000Y-30500000D03*
X70475000Y-30500000D03*
%TD*%
D17*
%TO.C,C213*%
X21725000Y-3500000D03*
X23275000Y-3500000D03*
%TD*%
%TO.C,C308*%
X39225000Y-36500000D03*
X40775000Y-36500000D03*
%TD*%
D21*
%TO.C,U303*%
X8362500Y-20050000D03*
X8362500Y-21000000D03*
X8362500Y-21950000D03*
X10637500Y-21950000D03*
X10637500Y-21000000D03*
X10637500Y-20050000D03*
%TD*%
D17*
%TO.C,C222*%
X17225000Y-15500000D03*
X18775000Y-15500000D03*
%TD*%
D16*
%TO.C,R207*%
X11490000Y-17500000D03*
X12510000Y-17500000D03*
%TD*%
D45*
%TO.C,D101*%
X72600000Y-17500000D03*
X75400000Y-17500000D03*
%TD*%
D17*
%TO.C,C304*%
X57225000Y-29500000D03*
X58775000Y-29500000D03*
%TD*%
D16*
%TO.C,R906*%
X23490000Y-36500000D03*
X24510000Y-36500000D03*
%TD*%
D17*
%TO.C,C103*%
X68725000Y-22500000D03*
X70275000Y-22500000D03*
%TD*%
D16*
%TO.C,R306*%
X5490000Y-24000000D03*
X6510000Y-24000000D03*
%TD*%
D37*
%TO.C,C206*%
X51050000Y-9500000D03*
X52950000Y-9500000D03*
%TD*%
D18*
%TO.C,C240*%
X45520000Y-3000000D03*
X46480000Y-3000000D03*
%TD*%
%TO.C,C250*%
X29520000Y-33000000D03*
X30480000Y-33000000D03*
%TD*%
D24*
%TO.C,U1002*%
X73615000Y-39000000D03*
X73615000Y-39500000D03*
X73615000Y-40000000D03*
X73615000Y-40500000D03*
X73615000Y-41000000D03*
X74385000Y-41000000D03*
X74385000Y-40500000D03*
X74385000Y-40000000D03*
X74385000Y-39500000D03*
X74385000Y-39000000D03*
%TD*%
D17*
%TO.C,C209*%
X25225000Y-3500000D03*
X26775000Y-3500000D03*
%TD*%
%TO.C,C212*%
X24225000Y-15500000D03*
X25775000Y-15500000D03*
%TD*%
D30*
%TO.C,H1204*%
X79475000Y-52500000D03*
X80068109Y-51068109D03*
X80068109Y-53931891D03*
X81500000Y-50475000D03*
D31*
X81500000Y-52500000D03*
D30*
X81500000Y-54525000D03*
X82931891Y-51068109D03*
X82931891Y-53931891D03*
X83525000Y-52500000D03*
%TD*%
D16*
%TO.C,R102*%
X10990000Y-46305000D03*
X12010000Y-46305000D03*
%TD*%
D23*
%TO.C,C1001*%
X69835000Y-31500000D03*
X70475000Y-31500000D03*
%TD*%
D18*
%TO.C,C105*%
X77020000Y-12000000D03*
X77980000Y-12000000D03*
%TD*%
D17*
%TO.C,C217*%
X18225000Y-1500000D03*
X19775000Y-1500000D03*
%TD*%
D18*
%TO.C,C237*%
X45520000Y-4500000D03*
X46480000Y-4500000D03*
%TD*%
D20*
%TO.C,L205*%
X25500000Y-7000000D03*
X28500000Y-7000000D03*
%TD*%
D17*
%TO.C,C214*%
X21725000Y-1500000D03*
X23275000Y-1500000D03*
%TD*%
D36*
%TO.C,SW503*%
X62925000Y-1925000D03*
X67075000Y-1925000D03*
X62925000Y-4075000D03*
X67075000Y-4075000D03*
%TD*%
D37*
%TO.C,C102*%
X68550000Y-20000000D03*
X70450000Y-20000000D03*
%TD*%
D16*
%TO.C,R201*%
X60490000Y-27500000D03*
X61510000Y-27500000D03*
%TD*%
D20*
%TO.C,L210*%
X50000000Y-24000000D03*
X53000000Y-24000000D03*
%TD*%
D16*
%TO.C,R208*%
X68990000Y-2000000D03*
X70010000Y-2000000D03*
%TD*%
%TO.C,R913*%
X27490000Y-39425000D03*
X28510000Y-39425000D03*
%TD*%
%TO.C,R202*%
X55990000Y-31500000D03*
X57010000Y-31500000D03*
%TD*%
D21*
%TO.C,U1003*%
X72862500Y-43050000D03*
X72862500Y-44000000D03*
X72862500Y-44950000D03*
X75137500Y-44950000D03*
X75137500Y-44000000D03*
X75137500Y-43050000D03*
%TD*%
D18*
%TO.C,C505*%
X29520000Y-34500000D03*
X30480000Y-34500000D03*
%TD*%
%TO.C,C313*%
X57520000Y-49000000D03*
X58480000Y-49000000D03*
%TD*%
%TO.C,C242*%
X42520000Y-14500000D03*
X43480000Y-14500000D03*
%TD*%
D17*
%TO.C,C208*%
X51225000Y-14000000D03*
X52775000Y-14000000D03*
%TD*%
D23*
%TO.C,C903*%
X50180000Y-41000000D03*
X50820000Y-41000000D03*
%TD*%
%TO.C,C901*%
X46180000Y-41000000D03*
X46820000Y-41000000D03*
%TD*%
D16*
%TO.C,R1001*%
X23490000Y-43000000D03*
X24510000Y-43000000D03*
%TD*%
D18*
%TO.C,C245*%
X18020000Y-5500000D03*
X18980000Y-5500000D03*
%TD*%
D17*
%TO.C,C202*%
X39225000Y-15000000D03*
X40775000Y-15000000D03*
%TD*%
D22*
%TO.C,Q905*%
X35062500Y-39975000D03*
X35062500Y-41875000D03*
X36937500Y-40925000D03*
%TD*%
D16*
%TO.C,R904*%
X25990000Y-36500000D03*
X27010000Y-36500000D03*
%TD*%
D17*
%TO.C,C310*%
X5225000Y-11000000D03*
X6775000Y-11000000D03*
%TD*%
D30*
%TO.C,H1201*%
X1475000Y-3500000D03*
X2068109Y-2068109D03*
X2068109Y-4931891D03*
X3500000Y-1475000D03*
D31*
X3500000Y-3500000D03*
D30*
X3500000Y-5525000D03*
X4931891Y-2068109D03*
X4931891Y-4931891D03*
X5525000Y-3500000D03*
%TD*%
D37*
%TO.C,C1003*%
X68550000Y-14000000D03*
X70450000Y-14000000D03*
%TD*%
D18*
%TO.C,C248*%
X12020000Y-4500000D03*
X12980000Y-4500000D03*
%TD*%
D16*
%TO.C,R305*%
X5490000Y-22500000D03*
X6510000Y-22500000D03*
%TD*%
D17*
%TO.C,C232*%
X13225000Y-13500000D03*
X14775000Y-13500000D03*
%TD*%
D37*
%TO.C,C205*%
X51050000Y-7000000D03*
X52950000Y-7000000D03*
%TD*%
D40*
%TO.C,FID1202*%
X77000000Y-9000000D03*
%TD*%
D16*
%TO.C,R303*%
X3990000Y-18000000D03*
X5010000Y-18000000D03*
%TD*%
D17*
%TO.C,C221*%
X16725000Y-13500000D03*
X18275000Y-13500000D03*
%TD*%
%TO.C,C216*%
X18225000Y-3500000D03*
X19775000Y-3500000D03*
%TD*%
D22*
%TO.C,Q903*%
X28062500Y-29050000D03*
X28062500Y-30950000D03*
X29937500Y-30000000D03*
%TD*%
D16*
%TO.C,R205*%
X64490000Y-23000000D03*
X65510000Y-23000000D03*
%TD*%
D18*
%TO.C,C502*%
X53520000Y-33500000D03*
X54480000Y-33500000D03*
%TD*%
D16*
%TO.C,R213*%
X31490000Y-36500000D03*
X32510000Y-36500000D03*
%TD*%
D41*
%TO.C,F901*%
X79600000Y-11500000D03*
X82400000Y-11500000D03*
%TD*%
D17*
%TO.C,C229*%
X58725000Y-23500000D03*
X60275000Y-23500000D03*
%TD*%
%TO.C,C215*%
X20725000Y-15500000D03*
X22275000Y-15500000D03*
%TD*%
D16*
%TO.C,R905*%
X28490000Y-38000000D03*
X29510000Y-38000000D03*
%TD*%
D46*
%TO.C,J901*%
X40500000Y-45140000D03*
X40000000Y-45140000D03*
X39500000Y-45140000D03*
X39000000Y-45140000D03*
X38500000Y-45140000D03*
X38000000Y-45140000D03*
X37500000Y-45140000D03*
X37000000Y-45140000D03*
X36500000Y-45140000D03*
X36000000Y-45140000D03*
X35500000Y-45140000D03*
X35000000Y-45140000D03*
X34500000Y-45140000D03*
X34000000Y-45140000D03*
X33500000Y-45140000D03*
X33000000Y-45140000D03*
X32500000Y-45140000D03*
X32000000Y-45140000D03*
X31500000Y-45140000D03*
D47*
X43250000Y-45900000D03*
X28750000Y-45900000D03*
D48*
X43250000Y-51860000D03*
X28750000Y-51860000D03*
%TD*%
D16*
%TO.C,R214*%
X26990000Y-35000000D03*
X28010000Y-35000000D03*
%TD*%
D40*
%TO.C,FID1201*%
X9000000Y-2500000D03*
%TD*%
D17*
%TO.C,C303*%
X50225000Y-33500000D03*
X51775000Y-33500000D03*
%TD*%
D16*
%TO.C,R103*%
X15990000Y-46305000D03*
X17010000Y-46305000D03*
%TD*%
D17*
%TO.C,C233*%
X50225000Y-31500000D03*
X51775000Y-31500000D03*
%TD*%
%TO.C,C225*%
X14725000Y-4500000D03*
X16275000Y-4500000D03*
%TD*%
%TO.C,C231*%
X53725000Y-29500000D03*
X55275000Y-29500000D03*
%TD*%
D16*
%TO.C,R308*%
X60990000Y-46000000D03*
X62010000Y-46000000D03*
%TD*%
D10*
%TO.C,L204*%
X46315000Y-13500000D03*
X48685000Y-13500000D03*
%TD*%
D30*
%TO.C,H1202*%
X79475000Y-3500000D03*
X80068109Y-2068109D03*
X80068109Y-4931891D03*
X81500000Y-1475000D03*
D31*
X81500000Y-3500000D03*
D30*
X81500000Y-5525000D03*
X82931891Y-2068109D03*
X82931891Y-4931891D03*
X83525000Y-3500000D03*
%TD*%
D17*
%TO.C,C302*%
X8725000Y-11000000D03*
X10275000Y-11000000D03*
%TD*%
D10*
%TO.C,L201*%
X31315000Y-7000000D03*
X33685000Y-7000000D03*
%TD*%
%TO.C,L203*%
X31315000Y-12500000D03*
X33685000Y-12500000D03*
%TD*%
D21*
%TO.C,U305*%
X69362500Y-7550000D03*
X69362500Y-8500000D03*
X69362500Y-9450000D03*
X71637500Y-9450000D03*
X71637500Y-7550000D03*
%TD*%
D18*
%TO.C,C239*%
X42520000Y-13000000D03*
X43480000Y-13000000D03*
%TD*%
D16*
%TO.C,R914*%
X25990000Y-37925000D03*
X27010000Y-37925000D03*
%TD*%
D18*
%TO.C,C1004*%
X73520000Y-11000000D03*
X74480000Y-11000000D03*
%TD*%
D16*
%TO.C,R1003*%
X73490000Y-7000000D03*
X74510000Y-7000000D03*
%TD*%
D20*
%TO.C,L206*%
X25500000Y-12000000D03*
X28500000Y-12000000D03*
%TD*%
M02*
