%TF.GenerationSoftware,KiCad,Pcbnew,9.0.9-9.0.9~ubuntu24.04.1*%
%TF.CreationDate,2026-10-06T07:25:05+00:00*%
%TF.ProjectId,rk3576-sbc,726b3335-3736-42d7-9362-632e6b696361,rev?*%
%TF.SameCoordinates,Original*%
%TF.FileFunction,Copper,L8,Bot*%
%TF.FilePolarity,Positive*%
%FSLAX46Y46*%
G04 Gerber Fmt 4.6, Leading zero omitted, Abs format (unit mm)*
G04 Created by KiCad (PCBNEW 9.0.9-9.0.9~ubuntu24.04.1) date 2026-10-06 07:25:05*
%MOMM*%
%LPD*%
G01*
G04 APERTURE LIST*
G04 Aperture macros list*
%AMRoundRect*
0 Rectangle with rounded corners*
0 $1 Rounding radius*
0 $2 $3 $4 $5 $6 $7 $8 $9 X,Y pos of 4 corners*
0 Add a 4 corners polygon primitive as box body*
4,1,4,$2,$3,$4,$5,$6,$7,$8,$9,$2,$3,0*
0 Add four circle primitives for the rounded corners*
1,1,$1+$1,$2,$3*
1,1,$1+$1,$4,$5*
1,1,$1+$1,$6,$7*
1,1,$1+$1,$8,$9*
0 Add four rect primitives between the rounded corners*
20,1,$1+$1,$2,$3,$4,$5,0*
20,1,$1+$1,$4,$5,$6,$7,0*
20,1,$1+$1,$6,$7,$8,$9,0*
20,1,$1+$1,$8,$9,$2,$3,0*%
G04 Aperture macros list end*
%TA.AperFunction,ComponentPad*%
%ADD10C,0.800000*%
%TD*%
%TA.AperFunction,ComponentPad*%
%ADD11C,5.400000*%
%TD*%
%TA.AperFunction,HeatsinkPad*%
%ADD12O,1.000000X2.100000*%
%TD*%
%TA.AperFunction,HeatsinkPad*%
%ADD13O,1.000000X1.600000*%
%TD*%
%TA.AperFunction,ComponentPad*%
%ADD14O,1.500000X3.300000*%
%TD*%
%TA.AperFunction,ComponentPad*%
%ADD15O,1.500000X2.300000*%
%TD*%
%TA.AperFunction,ComponentPad*%
%ADD16C,1.700000*%
%TD*%
%TA.AperFunction,ComponentPad*%
%ADD17R,1.524000X1.524000*%
%TD*%
%TA.AperFunction,ComponentPad*%
%ADD18C,1.524000*%
%TD*%
%TA.AperFunction,ComponentPad*%
%ADD19C,2.159000*%
%TD*%
%TA.AperFunction,ComponentPad*%
%ADD20R,1.700000X1.700000*%
%TD*%
%TA.AperFunction,HeatsinkPad*%
%ADD21C,0.500000*%
%TD*%
%TA.AperFunction,HeatsinkPad*%
%ADD22R,5.200000X5.200000*%
%TD*%
%TA.AperFunction,ComponentPad*%
%ADD23RoundRect,0.250000X0.350000X-0.350000X0.350000X0.350000X-0.350000X0.350000X-0.350000X-0.350000X0*%
%TD*%
%TA.AperFunction,ComponentPad*%
%ADD24C,1.200000*%
%TD*%
%TA.AperFunction,ComponentPad*%
%ADD25O,2.400000X1.200000*%
%TD*%
%TA.AperFunction,ComponentPad*%
%ADD26O,2.100000X1.200000*%
%TD*%
%TA.AperFunction,ComponentPad*%
%ADD27R,1.500000X1.500000*%
%TD*%
%TA.AperFunction,ComponentPad*%
%ADD28C,1.500000*%
%TD*%
%TA.AperFunction,ComponentPad*%
%ADD29C,3.500000*%
%TD*%
%TA.AperFunction,SMDPad,CuDef*%
%ADD30RoundRect,0.140000X-0.140000X-0.170000X0.140000X-0.170000X0.140000X0.170000X-0.140000X0.170000X0*%
%TD*%
%TA.AperFunction,SMDPad,CuDef*%
%ADD31RoundRect,0.135000X-0.135000X-0.185000X0.135000X-0.185000X0.135000X0.185000X-0.135000X0.185000X0*%
%TD*%
%TA.AperFunction,SMDPad,CuDef*%
%ADD32RoundRect,0.100000X-0.130000X-0.100000X0.130000X-0.100000X0.130000X0.100000X-0.130000X0.100000X0*%
%TD*%
%TA.AperFunction,SMDPad,CuDef*%
%ADD33RoundRect,0.225000X-0.225000X-0.250000X0.225000X-0.250000X0.225000X0.250000X-0.225000X0.250000X0*%
%TD*%
%TA.AperFunction,SMDPad,CuDef*%
%ADD34R,1.200000X0.300000*%
%TD*%
%TA.AperFunction,SMDPad,CuDef*%
%ADD35R,2.600000X1.400000*%
%TD*%
%TA.AperFunction,SMDPad,CuDef*%
%ADD36C,4.000000*%
%TD*%
%TA.AperFunction,SMDPad,CuDef*%
%ADD37R,1.200000X0.700000*%
%TD*%
%TA.AperFunction,SMDPad,CuDef*%
%ADD38R,0.800000X1.000000*%
%TD*%
%TA.AperFunction,SMDPad,CuDef*%
%ADD39R,2.800000X1.000000*%
%TD*%
%TA.AperFunction,SMDPad,CuDef*%
%ADD40R,1.200000X1.000000*%
%TD*%
%TA.AperFunction,SMDPad,CuDef*%
%ADD41R,1.900000X1.300000*%
%TD*%
%TA.AperFunction,SMDPad,CuDef*%
%ADD42RoundRect,0.150000X0.512500X0.150000X-0.512500X0.150000X-0.512500X-0.150000X0.512500X-0.150000X0*%
%TD*%
%TA.AperFunction,ViaPad*%
%ADD43C,0.350000*%
%TD*%
%TA.AperFunction,ViaPad*%
%ADD44C,0.300000*%
%TD*%
%TA.AperFunction,ViaPad*%
%ADD45C,0.250000*%
%TD*%
%TA.AperFunction,Conductor*%
%ADD46C,0.200000*%
%TD*%
%TA.AperFunction,Conductor*%
%ADD47C,0.100000*%
%TD*%
%TA.AperFunction,Conductor*%
%ADD48C,0.090000*%
%TD*%
%TA.AperFunction,Conductor*%
%ADD49C,0.130000*%
%TD*%
%TA.AperFunction,Conductor*%
%ADD50C,0.110000*%
%TD*%
%TA.AperFunction,Conductor*%
%ADD51C,0.120000*%
%TD*%
G04 APERTURE END LIST*
D10*
%TO.P,H1202,1*%
%TO.N,GND*%
X94475000Y-3500000D03*
X95068109Y-2068109D03*
X95068109Y-4931891D03*
X96500000Y-1475000D03*
D11*
X96500000Y-3500000D03*
D10*
X96500000Y-5525000D03*
X97931891Y-2068109D03*
X97931891Y-4931891D03*
X98525000Y-3500000D03*
%TD*%
%TO.P,H1204,1*%
%TO.N,GND*%
X94475000Y-68500000D03*
X95068109Y-67068109D03*
X95068109Y-69931891D03*
X96500000Y-66475000D03*
D11*
X96500000Y-68500000D03*
D10*
X96500000Y-70525000D03*
X97931891Y-67068109D03*
X97931891Y-69931891D03*
X98525000Y-68500000D03*
%TD*%
%TO.P,H1203,1*%
%TO.N,GND*%
X1475000Y-68500000D03*
X2068109Y-67068109D03*
X2068109Y-69931891D03*
X3500000Y-66475000D03*
D11*
X3500000Y-68500000D03*
D10*
X3500000Y-70525000D03*
X4931891Y-67068109D03*
X4931891Y-69931891D03*
X5525000Y-68500000D03*
%TD*%
D12*
%TO.P,J101,S1*%
%TO.N,GND*%
X7680000Y-65675000D03*
D13*
X7680000Y-69855000D03*
D12*
X16320000Y-65675000D03*
D13*
X16320000Y-69855000D03*
%TD*%
D14*
%TO.P,J901,SH*%
%TO.N,GND*%
X41250000Y-61900000D03*
X26750000Y-61900000D03*
D15*
X41250000Y-67860000D03*
X26750000Y-67860000D03*
%TD*%
D16*
%TO.P,J1301,11*%
%TO.N,ETH_LED_G_A*%
X95855000Y-62600000D03*
%TO.P,J1301,12*%
%TO.N,GND*%
X95855000Y-60060000D03*
%TO.P,J1301,13*%
%TO.N,ETH_LED_Y_A*%
X95855000Y-51940000D03*
%TO.P,J1301,14*%
%TO.N,PHY_LED2*%
X95855000Y-49400000D03*
D17*
%TO.P,J1301,P1*%
%TO.N,ETH_CT_A*%
X82015000Y-61720000D03*
D18*
%TO.P,J1301,P2*%
%TO.N,ETH_MDI0_P*%
X84555000Y-60450000D03*
%TO.P,J1301,P3*%
%TO.N,ETH_MDI0_N*%
X82015000Y-59180000D03*
%TO.P,J1301,P4*%
%TO.N,ETH_MDI1_P*%
X84555000Y-57910000D03*
%TO.P,J1301,P5*%
%TO.N,ETH_MDI2_P*%
X82015000Y-56640000D03*
%TO.P,J1301,P6*%
%TO.N,ETH_MDI2_N*%
X84555000Y-55370000D03*
%TO.P,J1301,P7*%
%TO.N,ETH_MDI1_N*%
X82015000Y-54090000D03*
%TO.P,J1301,P8*%
%TO.N,ETH_MDI3_P*%
X84555000Y-52830000D03*
%TO.P,J1301,P9*%
%TO.N,ETH_MDI3_N*%
X82015000Y-51560000D03*
%TO.P,J1301,P10*%
%TO.N,ETH_CT_B*%
X84555000Y-50290000D03*
D19*
%TO.P,J1301,SHIELD0*%
%TO.N,GND*%
X87855000Y-48250000D03*
%TO.P,J1301,SHIELD1*%
X87855000Y-63750000D03*
%TD*%
D20*
%TO.P,J501,1*%
%TO.N,GND*%
X50000000Y-68600000D03*
D16*
%TO.P,J501,2*%
%TO.N,DBG_UART_TX*%
X52540000Y-68600000D03*
%TO.P,J501,3*%
%TO.N,DBG_UART_RX*%
X55080000Y-68600000D03*
%TD*%
D10*
%TO.P,H1201,1*%
%TO.N,GND*%
X1475000Y-3500000D03*
X2068109Y-2068109D03*
X2068109Y-4931891D03*
X3500000Y-1475000D03*
D11*
X3500000Y-3500000D03*
D10*
X3500000Y-5525000D03*
X4931891Y-2068109D03*
X4931891Y-4931891D03*
X5525000Y-3500000D03*
%TD*%
D21*
%TO.P,U201,69*%
%TO.N,GND*%
X42650000Y-9650000D03*
X42650000Y-10825000D03*
X42650000Y-12000000D03*
X42650000Y-13175000D03*
X42650000Y-14350000D03*
X43825000Y-9650000D03*
X43825000Y-10825000D03*
X43825000Y-12000000D03*
X43825000Y-13175000D03*
X43825000Y-14350000D03*
X45000000Y-9650000D03*
X45000000Y-10825000D03*
X45000000Y-12000000D03*
D22*
X45000000Y-12000000D03*
D21*
X45000000Y-13175000D03*
X45000000Y-14350000D03*
X46175000Y-9650000D03*
X46175000Y-10825000D03*
X46175000Y-12000000D03*
X46175000Y-13175000D03*
X46175000Y-14350000D03*
X47350000Y-9650000D03*
X47350000Y-10825000D03*
X47350000Y-12000000D03*
X47350000Y-13175000D03*
X47350000Y-14350000D03*
%TD*%
D23*
%TO.P,J1001,1*%
%TO.N,VBUS_USB3A*%
X89655000Y-19500000D03*
D24*
%TO.P,J1001,2*%
%TO.N,USB3A_DM*%
X89655000Y-17000000D03*
%TO.P,J1001,3*%
%TO.N,USB3A_DP*%
X89655000Y-15000000D03*
%TO.P,J1001,4*%
%TO.N,GND*%
X89655000Y-12500000D03*
%TO.P,J1001,5*%
%TO.N,USB3_RXN*%
X88155000Y-12000000D03*
%TO.P,J1001,6*%
%TO.N,USB3_RXP*%
X88155000Y-14000000D03*
%TO.P,J1001,7*%
%TO.N,GND*%
X88155000Y-16000000D03*
%TO.P,J1001,8*%
%TO.N,USB3A_SSTXN*%
X88155000Y-18000000D03*
%TO.P,J1001,9*%
%TO.N,USB3A_SSTXP*%
X88155000Y-20000000D03*
D25*
%TO.P,J1001,10*%
%TO.N,GND*%
X88905000Y-22400000D03*
D26*
X97405000Y-22400000D03*
D25*
X88905000Y-9600000D03*
D26*
X97405000Y-9600000D03*
%TD*%
D27*
%TO.P,J1401,1*%
%TO.N,VBUS_USB2A*%
X88445000Y-38300000D03*
D28*
%TO.P,J1401,2*%
%TO.N,USBA1_DM*%
X88445000Y-35800000D03*
%TO.P,J1401,3*%
%TO.N,USBA1_DP*%
X88445000Y-33800000D03*
%TO.P,J1401,4*%
%TO.N,GND*%
X88445000Y-31300000D03*
%TO.P,J1401,5*%
%TO.N,VBUS_USB2A*%
X85825000Y-38300000D03*
%TO.P,J1401,6*%
%TO.N,USBA2_DM*%
X85825000Y-35800000D03*
%TO.P,J1401,7*%
%TO.N,USBA2_DP*%
X85825000Y-33800000D03*
%TO.P,J1401,8*%
%TO.N,GND*%
X85825000Y-31300000D03*
D29*
%TO.P,J1401,9*%
X91155000Y-41370000D03*
X91155000Y-28230000D03*
X85475000Y-41370000D03*
X85475000Y-28230000D03*
%TD*%
D30*
%TO.P,C489,1*%
%TO.N,VCCA1V8_PLDO2_S0*%
X56520000Y-19000000D03*
%TO.P,C489,2*%
%TO.N,GND*%
X57480000Y-19000000D03*
%TD*%
%TO.P,C433,1*%
%TO.N,VDD_GPU_S0*%
X50020000Y-46500000D03*
%TO.P,C433,2*%
%TO.N,GND*%
X50980000Y-46500000D03*
%TD*%
%TO.P,C4124,1*%
%TO.N,VCC_3V3_S0*%
X57020000Y-29000000D03*
%TO.P,C4124,2*%
%TO.N,GND*%
X57980000Y-29000000D03*
%TD*%
%TO.P,C470,1*%
%TO.N,VDDQ_DDR_S0*%
X59520000Y-24500000D03*
%TO.P,C470,2*%
%TO.N,GND*%
X60480000Y-24500000D03*
%TD*%
%TO.P,C617,1*%
%TO.N,VDD2L_DDR_S3*%
X16020000Y-40000000D03*
%TO.P,C617,2*%
%TO.N,GND*%
X16980000Y-40000000D03*
%TD*%
D31*
%TO.P,R916,1*%
%TO.N,HDMI_HPD*%
X58990000Y-20000000D03*
%TO.P,R916,2*%
%TO.N,GND*%
X60010000Y-20000000D03*
%TD*%
D30*
%TO.P,C4114,1*%
%TO.N,VCCA_3V3_S0*%
X41520000Y-21000000D03*
%TO.P,C4114,2*%
%TO.N,GND*%
X42480000Y-21000000D03*
%TD*%
%TO.P,C4104,1*%
%TO.N,VCCA_1V8_S0*%
X54520000Y-38000000D03*
%TO.P,C4104,2*%
%TO.N,GND*%
X55480000Y-38000000D03*
%TD*%
%TO.P,C424,1*%
%TO.N,VDD_CPU_LIT_S0*%
X55020000Y-42500000D03*
%TO.P,C424,2*%
%TO.N,GND*%
X55980000Y-42500000D03*
%TD*%
%TO.P,C4129,1*%
%TO.N,VCCIO_SD_S0*%
X52520000Y-43500000D03*
%TO.P,C4129,2*%
%TO.N,GND*%
X53480000Y-43500000D03*
%TD*%
%TO.P,C618,1*%
%TO.N,VDD2L_DDR_S3*%
X22020000Y-22000000D03*
%TO.P,C618,2*%
%TO.N,GND*%
X22980000Y-22000000D03*
%TD*%
%TO.P,C478,1*%
%TO.N,VDD_0V75_S3*%
X62020000Y-37000000D03*
%TO.P,C478,2*%
%TO.N,GND*%
X62980000Y-37000000D03*
%TD*%
D32*
%TO.P,R703,1*%
%TO.N,EMMC_DAT1*%
X67680000Y-19500000D03*
%TO.P,R703,2*%
%TO.N,VCC_1V8_S3*%
X68320000Y-19500000D03*
%TD*%
D30*
%TO.P,C443,1*%
%TO.N,VDD_NPU_S0*%
X34020000Y-21500000D03*
%TO.P,C443,2*%
%TO.N,GND*%
X34980000Y-21500000D03*
%TD*%
%TO.P,C498,1*%
%TO.N,VDDA_0V85_S0*%
X50020000Y-51000000D03*
%TO.P,C498,2*%
%TO.N,GND*%
X50980000Y-51000000D03*
%TD*%
%TO.P,C4126,1*%
%TO.N,VCC_3V3_S0*%
X50020000Y-21000000D03*
%TO.P,C4126,2*%
%TO.N,GND*%
X50980000Y-21000000D03*
%TD*%
%TO.P,C612,1*%
%TO.N,VDD2H_DDR_S3*%
X19520000Y-23500000D03*
%TO.P,C612,2*%
%TO.N,GND*%
X20480000Y-23500000D03*
%TD*%
%TO.P,C632,1*%
%TO.N,VDD1_DDR_S3*%
X17020000Y-23000000D03*
%TO.P,C632,2*%
%TO.N,GND*%
X17980000Y-23000000D03*
%TD*%
D32*
%TO.P,R702,1*%
%TO.N,EMMC_DAT0*%
X63680000Y-19500000D03*
%TO.P,R702,2*%
%TO.N,VCC_1V8_S3*%
X64320000Y-19500000D03*
%TD*%
D30*
%TO.P,C434,1*%
%TO.N,VDD_GPU_S0*%
X38520000Y-19500000D03*
%TO.P,C434,2*%
%TO.N,GND*%
X39480000Y-19500000D03*
%TD*%
D33*
%TO.P,C417,1*%
%TO.N,VDD_CPU_LIT_S0*%
X41225000Y-19000000D03*
%TO.P,C417,2*%
%TO.N,GND*%
X42775000Y-19000000D03*
%TD*%
D30*
%TO.P,C4103,1*%
%TO.N,VCCA_1V8_S0*%
X34520000Y-38000000D03*
%TO.P,C4103,2*%
%TO.N,GND*%
X35480000Y-38000000D03*
%TD*%
D33*
%TO.P,C708,1*%
%TO.N,VCC3V3_SD*%
X4225000Y-37000000D03*
%TO.P,C708,2*%
%TO.N,GND*%
X5775000Y-37000000D03*
%TD*%
D30*
%TO.P,C468,1*%
%TO.N,VDDQ_DDR_S0*%
X57520000Y-44000000D03*
%TO.P,C468,2*%
%TO.N,GND*%
X58480000Y-44000000D03*
%TD*%
%TO.P,C4108,1*%
%TO.N,VCCA_1V8_S0*%
X39020000Y-22500000D03*
%TO.P,C4108,2*%
%TO.N,GND*%
X39980000Y-22500000D03*
%TD*%
%TO.P,C704,1*%
%TO.N,VCC_3V3_S0*%
X11020000Y-40000000D03*
%TO.P,C704,2*%
%TO.N,GND*%
X11980000Y-40000000D03*
%TD*%
%TO.P,C474,1*%
%TO.N,VDDQ_DDR_S0*%
X60020000Y-41500000D03*
%TO.P,C474,2*%
%TO.N,GND*%
X60980000Y-41500000D03*
%TD*%
%TO.P,C471,1*%
%TO.N,VDDQ_DDR_S0*%
X36020000Y-48000000D03*
%TO.P,C471,2*%
%TO.N,GND*%
X36980000Y-48000000D03*
%TD*%
%TO.P,C487,1*%
%TO.N,VDDA0V75_HDMI_S0*%
X39020000Y-50500000D03*
%TO.P,C487,2*%
%TO.N,GND*%
X39980000Y-50500000D03*
%TD*%
D31*
%TO.P,R802,1*%
%TO.N,PCIE0_WAKE_L*%
X68990000Y-48000000D03*
%TO.P,R802,2*%
%TO.N,VCC_3V3_S0*%
X70010000Y-48000000D03*
%TD*%
D30*
%TO.P,C475,1*%
%TO.N,VDDQ_DDR_S0*%
X62020000Y-30000000D03*
%TO.P,C475,2*%
%TO.N,GND*%
X62980000Y-30000000D03*
%TD*%
%TO.P,C479,1*%
%TO.N,VDD_0V75_S3*%
X58520000Y-21500000D03*
%TO.P,C479,2*%
%TO.N,GND*%
X59480000Y-21500000D03*
%TD*%
%TO.P,C465,1*%
%TO.N,VDD_DDR_S0*%
X33520000Y-20000000D03*
%TO.P,C465,2*%
%TO.N,GND*%
X34480000Y-20000000D03*
%TD*%
%TO.P,C437,1*%
%TO.N,VDD_NPU_S0*%
X57020000Y-41000000D03*
%TO.P,C437,2*%
%TO.N,GND*%
X57980000Y-41000000D03*
%TD*%
D31*
%TO.P,R509,1*%
%TO.N,USB3_OTG0_REXT*%
X30990000Y-19000000D03*
%TO.P,R509,2*%
%TO.N,GND*%
X32010000Y-19000000D03*
%TD*%
D34*
%TO.P,J801,1*%
%TO.N,GND*%
X75350000Y-53250000D03*
%TO.P,J801,2*%
%TO.N,VCC3V3_PCIE*%
X72650000Y-53000000D03*
%TO.P,J801,3*%
%TO.N,GND*%
X75350000Y-52750000D03*
%TO.P,J801,4*%
%TO.N,VCC3V3_PCIE*%
X72650000Y-52500000D03*
%TO.P,J801,5*%
%TO.N,unconnected-(J801-PERn3-Pad5)*%
X75350000Y-52250000D03*
%TO.P,J801,6*%
%TO.N,unconnected-(J801-NC-Pad6)*%
X72650000Y-52000000D03*
%TO.P,J801,7*%
%TO.N,unconnected-(J801-PERp3-Pad7)*%
X75350000Y-51750000D03*
%TO.P,J801,8*%
%TO.N,unconnected-(J801-NC-Pad8)*%
X72650000Y-51500000D03*
%TO.P,J801,9*%
%TO.N,GND*%
X75350000Y-51250000D03*
%TO.P,J801,10*%
%TO.N,M2_LED_L*%
X72650000Y-51000000D03*
%TO.P,J801,11*%
%TO.N,unconnected-(J801-PETn3-Pad11)*%
X75350000Y-50750000D03*
%TO.P,J801,12*%
%TO.N,VCC3V3_PCIE*%
X72650000Y-50500000D03*
%TO.P,J801,13*%
%TO.N,unconnected-(J801-PETp3-Pad13)*%
X75350000Y-50250000D03*
%TO.P,J801,14*%
%TO.N,VCC3V3_PCIE*%
X72650000Y-50000000D03*
%TO.P,J801,15*%
%TO.N,GND*%
X75350000Y-49750000D03*
%TO.P,J801,16*%
%TO.N,VCC3V3_PCIE*%
X72650000Y-49500000D03*
%TO.P,J801,17*%
%TO.N,unconnected-(J801-PERn2-Pad17)*%
X75350000Y-49250000D03*
%TO.P,J801,18*%
%TO.N,VCC3V3_PCIE*%
X72650000Y-49000000D03*
%TO.P,J801,19*%
%TO.N,unconnected-(J801-PERp2-Pad19)*%
X75350000Y-48750000D03*
%TO.P,J801,20*%
%TO.N,unconnected-(J801-NC-Pad20)*%
X72650000Y-48500000D03*
%TO.P,J801,21*%
%TO.N,GND*%
X75350000Y-48250000D03*
%TO.P,J801,22*%
%TO.N,unconnected-(J801-NC-Pad22)*%
X72650000Y-48000000D03*
%TO.P,J801,23*%
%TO.N,unconnected-(J801-PETn2-Pad23)*%
X75350000Y-47750000D03*
%TO.P,J801,24*%
%TO.N,unconnected-(J801-NC-Pad24)*%
X72650000Y-47500000D03*
%TO.P,J801,25*%
%TO.N,unconnected-(J801-PETp2-Pad25)*%
X75350000Y-47250000D03*
%TO.P,J801,26*%
%TO.N,unconnected-(J801-NC-Pad26)*%
X72650000Y-47000000D03*
%TO.P,J801,27*%
%TO.N,GND*%
X75350000Y-46750000D03*
%TO.P,J801,28*%
%TO.N,unconnected-(J801-NC-Pad28)*%
X72650000Y-46500000D03*
%TO.P,J801,29*%
%TO.N,unconnected-(J801-PERn1-Pad29)*%
X75350000Y-46250000D03*
%TO.P,J801,30*%
%TO.N,unconnected-(J801-NC-Pad30)*%
X72650000Y-46000000D03*
%TO.P,J801,31*%
%TO.N,unconnected-(J801-PERp1-Pad31)*%
X75350000Y-45750000D03*
%TO.P,J801,32*%
%TO.N,unconnected-(J801-NC-Pad32)*%
X72650000Y-45500000D03*
%TO.P,J801,33*%
%TO.N,GND*%
X75350000Y-45250000D03*
%TO.P,J801,34*%
%TO.N,unconnected-(J801-NC-Pad34)*%
X72650000Y-45000000D03*
%TO.P,J801,35*%
%TO.N,unconnected-(J801-PETn1-Pad35)*%
X75350000Y-44750000D03*
%TO.P,J801,36*%
%TO.N,unconnected-(J801-NC-Pad36)*%
X72650000Y-44500000D03*
%TO.P,J801,37*%
%TO.N,unconnected-(J801-PETp1-Pad37)*%
X75350000Y-44250000D03*
%TO.P,J801,38*%
%TO.N,unconnected-(J801-DEVSLP-Pad38)*%
X72650000Y-44000000D03*
%TO.P,J801,39*%
%TO.N,GND*%
X75350000Y-43750000D03*
%TO.P,J801,40*%
%TO.N,unconnected-(J801-SMB_CLK-Pad40)*%
X72650000Y-43500000D03*
%TO.P,J801,41*%
%TO.N,PCIE0_RXN*%
X75350000Y-43250000D03*
%TO.P,J801,42*%
%TO.N,unconnected-(J801-SMB_DATA-Pad42)*%
X72650000Y-43000000D03*
%TO.P,J801,43*%
%TO.N,PCIE0_RXP*%
X75350000Y-42750000D03*
%TO.P,J801,44*%
%TO.N,unconnected-(J801-ALERT#-Pad44)*%
X72650000Y-42500000D03*
%TO.P,J801,45*%
%TO.N,GND*%
X75350000Y-42250000D03*
%TO.P,J801,46*%
%TO.N,unconnected-(J801-NC-Pad46)*%
X72650000Y-42000000D03*
%TO.P,J801,47*%
%TO.N,M2_PETN0*%
X75350000Y-41750000D03*
%TO.P,J801,48*%
%TO.N,unconnected-(J801-NC-Pad48)*%
X72650000Y-41500000D03*
%TO.P,J801,49*%
%TO.N,M2_PETP0*%
X75350000Y-41250000D03*
%TO.P,J801,50*%
%TO.N,PCIE0_PERST_L*%
X72650000Y-41000000D03*
%TO.P,J801,51*%
%TO.N,GND*%
X75350000Y-40750000D03*
%TO.P,J801,52*%
%TO.N,PCIE0_CLKREQ_L*%
X72650000Y-40500000D03*
%TO.P,J801,53*%
%TO.N,PCIE0_REFCLKN*%
X75350000Y-40250000D03*
%TO.P,J801,54*%
%TO.N,PCIE0_WAKE_L*%
X72650000Y-40000000D03*
%TO.P,J801,55*%
%TO.N,PCIE0_REFCLKP*%
X75350000Y-39750000D03*
%TO.P,J801,56*%
%TO.N,unconnected-(J801-NC-Pad56)*%
X72650000Y-39500000D03*
%TO.P,J801,57*%
%TO.N,GND*%
X75350000Y-39250000D03*
%TO.P,J801,58*%
%TO.N,unconnected-(J801-NC-Pad58)*%
X72650000Y-39000000D03*
%TO.P,J801,67*%
%TO.N,unconnected-(J801-NC-Pad67)*%
X75350000Y-36750000D03*
%TO.P,J801,68*%
%TO.N,unconnected-(J801-SUSCLK-Pad68)*%
X72650000Y-36500000D03*
%TO.P,J801,69*%
%TO.N,unconnected-(J801-PEDET-Pad69)*%
X75350000Y-36250000D03*
%TO.P,J801,70*%
%TO.N,VCC3V3_PCIE*%
X72650000Y-36000000D03*
%TO.P,J801,71*%
%TO.N,GND*%
X75350000Y-35750000D03*
%TO.P,J801,72*%
%TO.N,VCC3V3_PCIE*%
X72650000Y-35500000D03*
%TO.P,J801,73*%
%TO.N,GND*%
X75350000Y-35250000D03*
%TO.P,J801,74*%
%TO.N,VCC3V3_PCIE*%
X72650000Y-35000000D03*
%TO.P,J801,75*%
%TO.N,GND*%
X75350000Y-34750000D03*
D35*
%TO.P,J801,MP*%
%TO.N,N/C*%
X74000000Y-55600000D03*
X74000000Y-32400000D03*
%TD*%
D30*
%TO.P,C460,1*%
%TO.N,VDD_DDR_S0*%
X59520000Y-40000000D03*
%TO.P,C460,2*%
%TO.N,GND*%
X60480000Y-40000000D03*
%TD*%
D33*
%TO.P,C404,1*%
%TO.N,VDD_CPU_BIG_S0*%
X54725000Y-31000000D03*
%TO.P,C404,2*%
%TO.N,GND*%
X56275000Y-31000000D03*
%TD*%
D30*
%TO.P,C4115,1*%
%TO.N,VCC_1V8_S3*%
X47520000Y-21000000D03*
%TO.P,C4115,2*%
%TO.N,GND*%
X48480000Y-21000000D03*
%TD*%
%TO.P,C454,1*%
%TO.N,VDD_LOGIC_S0*%
X57520000Y-42500000D03*
%TO.P,C454,2*%
%TO.N,GND*%
X58480000Y-42500000D03*
%TD*%
%TO.P,C493,1*%
%TO.N,VDDA_0V85_S0*%
X63020000Y-33000000D03*
%TO.P,C493,2*%
%TO.N,GND*%
X63980000Y-33000000D03*
%TD*%
%TO.P,C463,1*%
%TO.N,VDD_DDR_S0*%
X39020000Y-49000000D03*
%TO.P,C463,2*%
%TO.N,GND*%
X39980000Y-49000000D03*
%TD*%
%TO.P,C629,1*%
%TO.N,VDDQ_DDR_S0*%
X13520000Y-38500000D03*
%TO.P,C629,2*%
%TO.N,GND*%
X14480000Y-38500000D03*
%TD*%
D31*
%TO.P,R505,1*%
%TO.N,DDR_ZQ_A*%
X41990000Y-52000000D03*
%TO.P,R505,2*%
%TO.N,GND*%
X43010000Y-52000000D03*
%TD*%
D30*
%TO.P,C492,1*%
%TO.N,VDDA_0V85_S0*%
X60020000Y-43000000D03*
%TO.P,C492,2*%
%TO.N,GND*%
X60980000Y-43000000D03*
%TD*%
%TO.P,C453,1*%
%TO.N,VDD_LOGIC_S0*%
X31520000Y-23500000D03*
%TO.P,C453,2*%
%TO.N,GND*%
X32480000Y-23500000D03*
%TD*%
%TO.P,C4125,1*%
%TO.N,VCC_3V3_S0*%
X39020000Y-21000000D03*
%TO.P,C4125,2*%
%TO.N,GND*%
X39980000Y-21000000D03*
%TD*%
D31*
%TO.P,R711,1*%
%TO.N,SD_D0*%
X8715000Y-59030000D03*
%TO.P,R711,2*%
%TO.N,VCCIO_SD_S0*%
X9735000Y-59030000D03*
%TD*%
D33*
%TO.P,C621,1*%
%TO.N,VDDQ_DDR_S0*%
X12725000Y-29000000D03*
%TO.P,C621,2*%
%TO.N,GND*%
X14275000Y-29000000D03*
%TD*%
D32*
%TO.P,R704,1*%
%TO.N,EMMC_DAT2*%
X63856776Y-22676776D03*
%TO.P,R704,2*%
%TO.N,VCC_1V8_S3*%
X64496776Y-22676776D03*
%TD*%
D30*
%TO.P,C703,1*%
%TO.N,VCC_3V3_S0*%
X4020000Y-40000000D03*
%TO.P,C703,2*%
%TO.N,GND*%
X4980000Y-40000000D03*
%TD*%
D33*
%TO.P,C803,1*%
%TO.N,VCC3V3_PCIE*%
X67725000Y-46000000D03*
%TO.P,C803,2*%
%TO.N,GND*%
X69275000Y-46000000D03*
%TD*%
D30*
%TO.P,C606,1*%
%TO.N,VDD2H_DDR_S3*%
X24520000Y-42500000D03*
%TO.P,C606,2*%
%TO.N,GND*%
X25480000Y-42500000D03*
%TD*%
%TO.P,C4117,1*%
%TO.N,VCC_1V8_S3*%
X44520000Y-20500000D03*
%TO.P,C4117,2*%
%TO.N,GND*%
X45480000Y-20500000D03*
%TD*%
%TO.P,C455,1*%
%TO.N,VDD_LOGIC_S0*%
X38520000Y-18000000D03*
%TO.P,C455,2*%
%TO.N,GND*%
X39480000Y-18000000D03*
%TD*%
%TO.P,C4127,1*%
%TO.N,VCC_3V3_S0*%
X36520000Y-22500000D03*
%TO.P,C4127,2*%
%TO.N,GND*%
X37480000Y-22500000D03*
%TD*%
%TO.P,C709,1*%
%TO.N,VCC3V3_SD*%
X11020000Y-38500000D03*
%TO.P,C709,2*%
%TO.N,GND*%
X11980000Y-38500000D03*
%TD*%
%TO.P,C624,1*%
%TO.N,VDDQ_DDR_S0*%
X12520000Y-33000000D03*
%TO.P,C624,2*%
%TO.N,GND*%
X13480000Y-33000000D03*
%TD*%
%TO.P,C486,1*%
%TO.N,VDDA0V75_HDMI_S0*%
X62020000Y-38500000D03*
%TO.P,C486,2*%
%TO.N,GND*%
X62980000Y-38500000D03*
%TD*%
%TO.P,C4119,1*%
%TO.N,VCC_1V8_S3*%
X54520000Y-41000000D03*
%TO.P,C4119,2*%
%TO.N,GND*%
X55480000Y-41000000D03*
%TD*%
D32*
%TO.P,R707,1*%
%TO.N,EMMC_DAT5*%
X65856776Y-24176776D03*
%TO.P,R707,2*%
%TO.N,VCC_1V8_S3*%
X66496776Y-24176776D03*
%TD*%
D30*
%TO.P,C425,1*%
%TO.N,VDD_CPU_LIT_S0*%
X57020000Y-26000000D03*
%TO.P,C425,2*%
%TO.N,GND*%
X57980000Y-26000000D03*
%TD*%
%TO.P,C450,1*%
%TO.N,VDD_LOGIC_S0*%
X50020000Y-48000000D03*
%TO.P,C450,2*%
%TO.N,GND*%
X50980000Y-48000000D03*
%TD*%
%TO.P,C405,1*%
%TO.N,VDD_CPU_BIG_S0*%
X34520000Y-35000000D03*
%TO.P,C405,2*%
%TO.N,GND*%
X35480000Y-35000000D03*
%TD*%
%TO.P,C413,1*%
%TO.N,VDD_CPU_BIG_S0*%
X50020000Y-45000000D03*
%TO.P,C413,2*%
%TO.N,GND*%
X50980000Y-45000000D03*
%TD*%
%TO.P,C633,1*%
%TO.N,VDD1_DDR_S3*%
X13520000Y-27000000D03*
%TO.P,C633,2*%
%TO.N,GND*%
X14480000Y-27000000D03*
%TD*%
D31*
%TO.P,R1002,1*%
%TO.N,USB_OTG0_VBUSDET*%
X50490000Y-15000000D03*
%TO.P,R1002,2*%
%TO.N,GND*%
X51510000Y-15000000D03*
%TD*%
D30*
%TO.P,C627,1*%
%TO.N,VDDQ_DDR_S0*%
X12520000Y-31500000D03*
%TO.P,C627,2*%
%TO.N,GND*%
X13480000Y-31500000D03*
%TD*%
D31*
%TO.P,R506,1*%
%TO.N,DDR_ZQ_B*%
X52490000Y-50500000D03*
%TO.P,R506,2*%
%TO.N,GND*%
X53510000Y-50500000D03*
%TD*%
D30*
%TO.P,C421,1*%
%TO.N,VDD_CPU_LIT_S0*%
X44520000Y-19000000D03*
%TO.P,C421,2*%
%TO.N,GND*%
X45480000Y-19000000D03*
%TD*%
%TO.P,C477,1*%
%TO.N,VDDQ_DDR_S0*%
X52520000Y-49000000D03*
%TO.P,C477,2*%
%TO.N,GND*%
X53480000Y-49000000D03*
%TD*%
%TO.P,C4116,1*%
%TO.N,VCC_1V8_S3*%
X47520000Y-45000000D03*
%TO.P,C4116,2*%
%TO.N,GND*%
X48480000Y-45000000D03*
%TD*%
%TO.P,C611,1*%
%TO.N,VDD2H_DDR_S3*%
X16020000Y-38500000D03*
%TO.P,C611,2*%
%TO.N,GND*%
X16980000Y-38500000D03*
%TD*%
%TO.P,C4109,1*%
%TO.N,VCCA_1V8_S0*%
X50020000Y-22500000D03*
%TO.P,C4109,2*%
%TO.N,GND*%
X50980000Y-22500000D03*
%TD*%
D33*
%TO.P,C444,1*%
%TO.N,VDD_LOGIC_S0*%
X55225000Y-21000000D03*
%TO.P,C444,2*%
%TO.N,GND*%
X56775000Y-21000000D03*
%TD*%
D30*
%TO.P,C707,1*%
%TO.N,VCC_1V8_S3*%
X63020000Y-21000000D03*
%TO.P,C707,2*%
%TO.N,GND*%
X63980000Y-21000000D03*
%TD*%
%TO.P,C607,1*%
%TO.N,VDD2H_DDR_S3*%
X22020000Y-23500000D03*
%TO.P,C607,2*%
%TO.N,GND*%
X22980000Y-23500000D03*
%TD*%
%TO.P,C447,1*%
%TO.N,VDD_LOGIC_S0*%
X36020000Y-19500000D03*
%TO.P,C447,2*%
%TO.N,GND*%
X36980000Y-19500000D03*
%TD*%
%TO.P,C4100,1*%
%TO.N,VDDA_DDR_PLL_S0*%
X41520000Y-22500000D03*
%TO.P,C4100,2*%
%TO.N,GND*%
X42480000Y-22500000D03*
%TD*%
%TO.P,C4121,1*%
%TO.N,VCC_1V8_S3*%
X39520000Y-45000000D03*
%TO.P,C4121,2*%
%TO.N,GND*%
X40480000Y-45000000D03*
%TD*%
D33*
%TO.P,C615,1*%
%TO.N,VDD2L_DDR_S3*%
X24225000Y-44500000D03*
%TO.P,C615,2*%
%TO.N,GND*%
X25775000Y-44500000D03*
%TD*%
D30*
%TO.P,C622,1*%
%TO.N,VDDQ_DDR_S0*%
X27520000Y-44000000D03*
%TO.P,C622,2*%
%TO.N,GND*%
X28480000Y-44000000D03*
%TD*%
D32*
%TO.P,R706,1*%
%TO.N,EMMC_DAT4*%
X65930000Y-18000000D03*
%TO.P,R706,2*%
%TO.N,VCC_1V8_S3*%
X66570000Y-18000000D03*
%TD*%
D30*
%TO.P,C491,1*%
%TO.N,VCCA1V8_PLDO2_S0*%
X60020000Y-23000000D03*
%TO.P,C491,2*%
%TO.N,GND*%
X60980000Y-23000000D03*
%TD*%
D31*
%TO.P,R510,1*%
%TO.N,HDMI_TX_REXT*%
X61990000Y-24500000D03*
%TO.P,R510,2*%
%TO.N,GND*%
X63010000Y-24500000D03*
%TD*%
D30*
%TO.P,C4120,1*%
%TO.N,VCC_1V8_S3*%
X57020000Y-36500000D03*
%TO.P,C4120,2*%
%TO.N,GND*%
X57980000Y-36500000D03*
%TD*%
%TO.P,C439,1*%
%TO.N,VDD_NPU_S0*%
X55020000Y-44000000D03*
%TO.P,C439,2*%
%TO.N,GND*%
X55980000Y-44000000D03*
%TD*%
D31*
%TO.P,R710,1*%
%TO.N,EMMC_DS*%
X67490000Y-24000000D03*
%TO.P,R710,2*%
%TO.N,GND*%
X68510000Y-24000000D03*
%TD*%
D36*
%TO.P,H802,1*%
%TO.N,GND*%
X44000000Y-44000000D03*
%TD*%
D30*
%TO.P,C485,1*%
%TO.N,VDDA_0V75_S0*%
X36520000Y-49500000D03*
%TO.P,C485,2*%
%TO.N,GND*%
X37480000Y-49500000D03*
%TD*%
D31*
%TO.P,R601,1*%
%TO.N,LP5_ZQ*%
X26990000Y-20500000D03*
%TO.P,R601,2*%
%TO.N,VDDQ_DDR_S0*%
X28010000Y-20500000D03*
%TD*%
D33*
%TO.P,C446,1*%
%TO.N,VDD_LOGIC_S0*%
X52725000Y-47000000D03*
%TO.P,C446,2*%
%TO.N,GND*%
X54275000Y-47000000D03*
%TD*%
D30*
%TO.P,C423,1*%
%TO.N,VDD_CPU_LIT_S0*%
X37020000Y-45000000D03*
%TO.P,C423,2*%
%TO.N,GND*%
X37980000Y-45000000D03*
%TD*%
%TO.P,C449,1*%
%TO.N,VDD_LOGIC_S0*%
X59520000Y-38500000D03*
%TO.P,C449,2*%
%TO.N,GND*%
X60480000Y-38500000D03*
%TD*%
%TO.P,C4118,1*%
%TO.N,VCC_1V8_S3*%
X57020000Y-35000000D03*
%TO.P,C4118,2*%
%TO.N,GND*%
X57980000Y-35000000D03*
%TD*%
%TO.P,C620,1*%
%TO.N,VDD2L_DDR_S3*%
X21520000Y-44000000D03*
%TO.P,C620,2*%
%TO.N,GND*%
X22480000Y-44000000D03*
%TD*%
%TO.P,C625,1*%
%TO.N,VDDQ_DDR_S0*%
X16020000Y-24500000D03*
%TO.P,C625,2*%
%TO.N,GND*%
X16980000Y-24500000D03*
%TD*%
%TO.P,C628,1*%
%TO.N,VDDQ_DDR_S0*%
X12520000Y-34500000D03*
%TO.P,C628,2*%
%TO.N,GND*%
X13480000Y-34500000D03*
%TD*%
%TO.P,C481,1*%
%TO.N,VDDA_0V75_S0*%
X29020000Y-23500000D03*
%TO.P,C481,2*%
%TO.N,GND*%
X29980000Y-23500000D03*
%TD*%
D31*
%TO.P,R804,1*%
%TO.N,M2_LED_A*%
X68990000Y-39000000D03*
%TO.P,R804,2*%
%TO.N,VCC3V3_PCIE*%
X70010000Y-39000000D03*
%TD*%
D30*
%TO.P,C497,1*%
%TO.N,VDDA_0V85_S0*%
X58520000Y-45500000D03*
%TO.P,C497,2*%
%TO.N,GND*%
X59480000Y-45500000D03*
%TD*%
D31*
%TO.P,R503,1*%
%TO.N,SYS_RESET_L*%
X62990000Y-28500000D03*
%TO.P,R503,2*%
%TO.N,RESET_KEY*%
X64010000Y-28500000D03*
%TD*%
D30*
%TO.P,C473,1*%
%TO.N,VDDQ_DDR_S0*%
X38520000Y-16500000D03*
%TO.P,C473,2*%
%TO.N,GND*%
X39480000Y-16500000D03*
%TD*%
%TO.P,C458,1*%
%TO.N,VDD_LOGIC_S0*%
X59520000Y-26000000D03*
%TO.P,C458,2*%
%TO.N,GND*%
X60480000Y-26000000D03*
%TD*%
D33*
%TO.P,C401,1*%
%TO.N,VDD_CPU_BIG_S0*%
X44225000Y-22500000D03*
%TO.P,C401,2*%
%TO.N,GND*%
X45775000Y-22500000D03*
%TD*%
D30*
%TO.P,C457,1*%
%TO.N,VDD_LOGIC_S0*%
X57520000Y-23000000D03*
%TO.P,C457,2*%
%TO.N,GND*%
X58480000Y-23000000D03*
%TD*%
%TO.P,C480,1*%
%TO.N,VDD_0V75_S3*%
X56020000Y-47000000D03*
%TO.P,C480,2*%
%TO.N,GND*%
X56980000Y-47000000D03*
%TD*%
D31*
%TO.P,R701,1*%
%TO.N,EMMC_CMD*%
X67990000Y-21000000D03*
%TO.P,R701,2*%
%TO.N,VCC_1V8_S3*%
X69010000Y-21000000D03*
%TD*%
D30*
%TO.P,C4111,1*%
%TO.N,VCCA_1V8_S0*%
X54520000Y-39500000D03*
%TO.P,C4111,2*%
%TO.N,GND*%
X55480000Y-39500000D03*
%TD*%
%TO.P,C430,1*%
%TO.N,VDD_GPU_S0*%
X52520000Y-45000000D03*
%TO.P,C430,2*%
%TO.N,GND*%
X53480000Y-45000000D03*
%TD*%
%TO.P,C806,1*%
%TO.N,VCC3V3_PCIE*%
X78020000Y-41000000D03*
%TO.P,C806,2*%
%TO.N,GND*%
X78980000Y-41000000D03*
%TD*%
%TO.P,C488,1*%
%TO.N,VDDA0V75_HDMI_S0*%
X31020000Y-20500000D03*
%TO.P,C488,2*%
%TO.N,GND*%
X31980000Y-20500000D03*
%TD*%
%TO.P,C494,1*%
%TO.N,VDDA_0V85_S0*%
X36020000Y-16500000D03*
%TO.P,C494,2*%
%TO.N,GND*%
X36980000Y-16500000D03*
%TD*%
%TO.P,C495,1*%
%TO.N,VDDA_0V85_S0*%
X63020000Y-31500000D03*
%TO.P,C495,2*%
%TO.N,GND*%
X63980000Y-31500000D03*
%TD*%
%TO.P,C408,1*%
%TO.N,VDD_CPU_BIG_S0*%
X54520000Y-36500000D03*
%TO.P,C408,2*%
%TO.N,GND*%
X55480000Y-36500000D03*
%TD*%
%TO.P,C440,1*%
%TO.N,VDD_NPU_S0*%
X59520000Y-30000000D03*
%TO.P,C440,2*%
%TO.N,GND*%
X60480000Y-30000000D03*
%TD*%
D31*
%TO.P,R713,1*%
%TO.N,SD_D2*%
X11215000Y-59030000D03*
%TO.P,R713,2*%
%TO.N,VCCIO_SD_S0*%
X12235000Y-59030000D03*
%TD*%
D30*
%TO.P,C472,1*%
%TO.N,VDDQ_DDR_S0*%
X50020000Y-49500000D03*
%TO.P,C472,2*%
%TO.N,GND*%
X50980000Y-49500000D03*
%TD*%
D33*
%TO.P,C312,1*%
%TO.N,VDD2L_DDR_S3*%
X33225000Y-33000000D03*
%TO.P,C312,2*%
%TO.N,GND*%
X34775000Y-33000000D03*
%TD*%
%TO.P,C436,1*%
%TO.N,VDD_NPU_S0*%
X59725000Y-35000000D03*
%TO.P,C436,2*%
%TO.N,GND*%
X61275000Y-35000000D03*
%TD*%
D30*
%TO.P,C452,1*%
%TO.N,VDD_LOGIC_S0*%
X60520000Y-31500000D03*
%TO.P,C452,2*%
%TO.N,GND*%
X61480000Y-31500000D03*
%TD*%
D33*
%TO.P,C315,1*%
%TO.N,VCC3V3_PCIE*%
X67725000Y-44000000D03*
%TO.P,C315,2*%
%TO.N,GND*%
X69275000Y-44000000D03*
%TD*%
%TO.P,C445,1*%
%TO.N,VDD_LOGIC_S0*%
X59725000Y-28000000D03*
%TO.P,C445,2*%
%TO.N,GND*%
X61275000Y-28000000D03*
%TD*%
D30*
%TO.P,C415,1*%
%TO.N,VDD_CPU_BIG_S0*%
X58020000Y-33000000D03*
%TO.P,C415,2*%
%TO.N,GND*%
X58980000Y-33000000D03*
%TD*%
%TO.P,C634,1*%
%TO.N,VDD1_DDR_S3*%
X22020000Y-20500000D03*
%TO.P,C634,2*%
%TO.N,GND*%
X22980000Y-20500000D03*
%TD*%
D31*
%TO.P,R602,1*%
%TO.N,DDR_RESET_L*%
X21490000Y-45500000D03*
%TO.P,R602,2*%
%TO.N,GND*%
X22510000Y-45500000D03*
%TD*%
D30*
%TO.P,C626,1*%
%TO.N,VDDQ_DDR_S0*%
X19520000Y-22000000D03*
%TO.P,C626,2*%
%TO.N,GND*%
X20480000Y-22000000D03*
%TD*%
%TO.P,C706,1*%
%TO.N,VCC_1V8_S3*%
X66294764Y-25138605D03*
%TO.P,C706,2*%
%TO.N,GND*%
X67254764Y-25138605D03*
%TD*%
%TO.P,C407,1*%
%TO.N,VDD_CPU_BIG_S0*%
X34520000Y-36500000D03*
%TO.P,C407,2*%
%TO.N,GND*%
X35480000Y-36500000D03*
%TD*%
%TO.P,C461,1*%
%TO.N,VDD_DDR_S0*%
X47520000Y-49500000D03*
%TO.P,C461,2*%
%TO.N,GND*%
X48480000Y-49500000D03*
%TD*%
%TO.P,C504,1*%
%TO.N,DCPHY_VREG*%
X38520000Y-15000000D03*
%TO.P,C504,2*%
%TO.N,GND*%
X39480000Y-15000000D03*
%TD*%
%TO.P,C482,1*%
%TO.N,VDDA_0V75_S0*%
X33520000Y-18500000D03*
%TO.P,C482,2*%
%TO.N,GND*%
X34480000Y-18500000D03*
%TD*%
%TO.P,C613,1*%
%TO.N,VDD2H_DDR_S3*%
X19520000Y-42500000D03*
%TO.P,C613,2*%
%TO.N,GND*%
X20480000Y-42500000D03*
%TD*%
%TO.P,C496,1*%
%TO.N,VDDA_0V85_S0*%
X63020000Y-34500000D03*
%TO.P,C496,2*%
%TO.N,GND*%
X63980000Y-34500000D03*
%TD*%
%TO.P,C631,1*%
%TO.N,VDDQ_DDR_S0*%
X24520000Y-20500000D03*
%TO.P,C631,2*%
%TO.N,GND*%
X25480000Y-20500000D03*
%TD*%
%TO.P,C805,1*%
%TO.N,VCC3V3_PCIE*%
X78020000Y-46000000D03*
%TO.P,C805,2*%
%TO.N,GND*%
X78980000Y-46000000D03*
%TD*%
%TO.P,C412,1*%
%TO.N,VDD_CPU_BIG_S0*%
X37020000Y-43500000D03*
%TO.P,C412,2*%
%TO.N,GND*%
X37980000Y-43500000D03*
%TD*%
D33*
%TO.P,C804,1*%
%TO.N,VCC3V3_PCIE*%
X67725000Y-41000000D03*
%TO.P,C804,2*%
%TO.N,GND*%
X69275000Y-41000000D03*
%TD*%
D32*
%TO.P,R708,1*%
%TO.N,EMMC_DAT6*%
X63293728Y-17311179D03*
%TO.P,R708,2*%
%TO.N,VCC_1V8_S3*%
X63933728Y-17311179D03*
%TD*%
D30*
%TO.P,C604,1*%
%TO.N,VDD2H_DDR_S3*%
X16020000Y-37000000D03*
%TO.P,C604,2*%
%TO.N,GND*%
X16980000Y-37000000D03*
%TD*%
%TO.P,C442,1*%
%TO.N,VDD_NPU_S0*%
X59520000Y-37000000D03*
%TO.P,C442,2*%
%TO.N,GND*%
X60480000Y-37000000D03*
%TD*%
%TO.P,C4123,1*%
%TO.N,VCC_3V3_S3*%
X54520000Y-24500000D03*
%TO.P,C4123,2*%
%TO.N,GND*%
X55480000Y-24500000D03*
%TD*%
D33*
%TO.P,C427,1*%
%TO.N,VDD_GPU_S0*%
X38725000Y-47000000D03*
%TO.P,C427,2*%
%TO.N,GND*%
X40275000Y-47000000D03*
%TD*%
D30*
%TO.P,C490,1*%
%TO.N,VCCA1V8_PLDO2_S0*%
X54520000Y-17500000D03*
%TO.P,C490,2*%
%TO.N,GND*%
X55480000Y-17500000D03*
%TD*%
%TO.P,C605,1*%
%TO.N,VDD2H_DDR_S3*%
X24520000Y-23500000D03*
%TO.P,C605,2*%
%TO.N,GND*%
X25480000Y-23500000D03*
%TD*%
%TO.P,C4102,1*%
%TO.N,VCCA_1V8_S0*%
X47520000Y-43500000D03*
%TO.P,C4102,2*%
%TO.N,GND*%
X48480000Y-43500000D03*
%TD*%
D31*
%TO.P,R801,1*%
%TO.N,PCIE0_CLKREQ_L*%
X77990000Y-47500000D03*
%TO.P,R801,2*%
%TO.N,VCC_3V3_S0*%
X79010000Y-47500000D03*
%TD*%
D33*
%TO.P,C602,1*%
%TO.N,VDD2H_DDR_S3*%
X15225000Y-35000000D03*
%TO.P,C602,2*%
%TO.N,GND*%
X16775000Y-35000000D03*
%TD*%
D30*
%TO.P,C503,1*%
%TO.N,SARADC_IN0_BOOT*%
X62020000Y-40000000D03*
%TO.P,C503,2*%
%TO.N,GND*%
X62980000Y-40000000D03*
%TD*%
D33*
%TO.P,C435,1*%
%TO.N,VDD_NPU_S0*%
X50725000Y-19000000D03*
%TO.P,C435,2*%
%TO.N,GND*%
X52275000Y-19000000D03*
%TD*%
D30*
%TO.P,C431,1*%
%TO.N,VDD_GPU_S0*%
X34020000Y-23000000D03*
%TO.P,C431,2*%
%TO.N,GND*%
X34980000Y-23000000D03*
%TD*%
D33*
%TO.P,C459,1*%
%TO.N,VDD_DDR_S0*%
X44225000Y-50000000D03*
%TO.P,C459,2*%
%TO.N,GND*%
X45775000Y-50000000D03*
%TD*%
D30*
%TO.P,C4105,1*%
%TO.N,VCCA_1V8_S0*%
X34520000Y-27500000D03*
%TO.P,C4105,2*%
%TO.N,GND*%
X35480000Y-27500000D03*
%TD*%
%TO.P,C610,1*%
%TO.N,VDD2H_DDR_S3*%
X16020000Y-27500000D03*
%TO.P,C610,2*%
%TO.N,GND*%
X16980000Y-27500000D03*
%TD*%
%TO.P,C428,1*%
%TO.N,VDD_GPU_S0*%
X36520000Y-21000000D03*
%TO.P,C428,2*%
%TO.N,GND*%
X37480000Y-21000000D03*
%TD*%
D31*
%TO.P,R716,1*%
%TO.N,SD_DET_L*%
X13715000Y-59030000D03*
%TO.P,R716,2*%
%TO.N,VCC_3V3_S3*%
X14735000Y-59030000D03*
%TD*%
D30*
%TO.P,C409,1*%
%TO.N,VDD_CPU_BIG_S0*%
X34520000Y-29000000D03*
%TO.P,C409,2*%
%TO.N,GND*%
X35480000Y-29000000D03*
%TD*%
%TO.P,C438,1*%
%TO.N,VDD_NPU_S0*%
X57020000Y-24500000D03*
%TO.P,C438,2*%
%TO.N,GND*%
X57980000Y-24500000D03*
%TD*%
%TO.P,C469,1*%
%TO.N,VDDQ_DDR_S0*%
X36020000Y-18000000D03*
%TO.P,C469,2*%
%TO.N,GND*%
X36980000Y-18000000D03*
%TD*%
D31*
%TO.P,R715,1*%
%TO.N,SD_CMD*%
X3715000Y-59030000D03*
%TO.P,R715,2*%
%TO.N,VCCIO_SD_S0*%
X4735000Y-59030000D03*
%TD*%
D30*
%TO.P,C4112,1*%
%TO.N,VCCA_1V8_S0*%
X34520000Y-26000000D03*
%TO.P,C4112,2*%
%TO.N,GND*%
X35480000Y-26000000D03*
%TD*%
%TO.P,C4110,1*%
%TO.N,VCCA_1V8_S0*%
X34520000Y-39500000D03*
%TO.P,C4110,2*%
%TO.N,GND*%
X35480000Y-39500000D03*
%TD*%
D33*
%TO.P,C316,1*%
%TO.N,VCC3V3_PCIE*%
X78725000Y-44000000D03*
%TO.P,C316,2*%
%TO.N,GND*%
X80275000Y-44000000D03*
%TD*%
D37*
%TO.P,J701,1*%
%TO.N,SD_D2*%
X16950000Y-47255000D03*
%TO.P,J701,2*%
%TO.N,SD_D3*%
X16950000Y-48355000D03*
%TO.P,J701,3*%
%TO.N,SD_CMD*%
X16950000Y-49455000D03*
%TO.P,J701,4*%
%TO.N,VCC3V3_SD*%
X16950000Y-50555000D03*
%TO.P,J701,5*%
%TO.N,SD_CLK*%
X16950000Y-51655000D03*
%TO.P,J701,6*%
%TO.N,GND*%
X16950000Y-52755000D03*
%TO.P,J701,7*%
%TO.N,SD_D0*%
X16950000Y-53855000D03*
%TO.P,J701,8*%
%TO.N,SD_D1*%
X16950000Y-54955000D03*
%TO.P,J701,9*%
%TO.N,SD_DET_L*%
X16950000Y-55905000D03*
D38*
%TO.P,J701,10*%
%TO.N,GND*%
X6450000Y-56855000D03*
D39*
%TO.P,J701,11*%
X2300000Y-56855000D03*
D40*
X12650000Y-56855000D03*
X16950000Y-45705000D03*
D41*
X1850000Y-43355000D03*
%TD*%
D30*
%TO.P,C448,1*%
%TO.N,VDD_LOGIC_S0*%
X36020000Y-46500000D03*
%TO.P,C448,2*%
%TO.N,GND*%
X36980000Y-46500000D03*
%TD*%
%TO.P,C701,1*%
%TO.N,EMMC_VDDI*%
X65520000Y-21000000D03*
%TO.P,C701,2*%
%TO.N,GND*%
X66480000Y-21000000D03*
%TD*%
%TO.P,C419,1*%
%TO.N,VDD_CPU_LIT_S0*%
X57020000Y-27500000D03*
%TO.P,C419,2*%
%TO.N,GND*%
X57980000Y-27500000D03*
%TD*%
D32*
%TO.P,R709,1*%
%TO.N,EMMC_DAT7*%
X67680000Y-18500000D03*
%TO.P,R709,2*%
%TO.N,VCC_1V8_S3*%
X68320000Y-18500000D03*
%TD*%
D33*
%TO.P,C418,1*%
%TO.N,VDD_CPU_LIT_S0*%
X47225000Y-19000000D03*
%TO.P,C418,2*%
%TO.N,GND*%
X48775000Y-19000000D03*
%TD*%
D31*
%TO.P,R508,1*%
%TO.N,USB2_OTG1_REXT*%
X33490000Y-49000000D03*
%TO.P,R508,2*%
%TO.N,GND*%
X34510000Y-49000000D03*
%TD*%
D30*
%TO.P,C462,1*%
%TO.N,VDD_DDR_S0*%
X54020000Y-19000000D03*
%TO.P,C462,2*%
%TO.N,GND*%
X54980000Y-19000000D03*
%TD*%
%TO.P,C451,1*%
%TO.N,VDD_LOGIC_S0*%
X60520000Y-33000000D03*
%TO.P,C451,2*%
%TO.N,GND*%
X61480000Y-33000000D03*
%TD*%
%TO.P,C614,1*%
%TO.N,VDD2H_DDR_S3*%
X24520000Y-22000000D03*
%TO.P,C614,2*%
%TO.N,GND*%
X25480000Y-22000000D03*
%TD*%
%TO.P,C416,1*%
%TO.N,VDD_CPU_BIG_S0*%
X58020000Y-31500000D03*
%TO.P,C416,2*%
%TO.N,GND*%
X58980000Y-31500000D03*
%TD*%
D32*
%TO.P,C801,1*%
%TO.N,PCIE0_TXP*%
X69180000Y-42500000D03*
%TO.P,C801,2*%
%TO.N,M2_PETP0*%
X69820000Y-42500000D03*
%TD*%
D30*
%TO.P,C429,1*%
%TO.N,VDD_GPU_S0*%
X52520000Y-21000000D03*
%TO.P,C429,2*%
%TO.N,GND*%
X53480000Y-21000000D03*
%TD*%
D31*
%TO.P,R712,1*%
%TO.N,SD_D1*%
X6215000Y-59030000D03*
%TO.P,R712,2*%
%TO.N,VCCIO_SD_S0*%
X7235000Y-59030000D03*
%TD*%
%TO.P,R714,1*%
%TO.N,SD_D3*%
X13215000Y-41030000D03*
%TO.P,R714,2*%
%TO.N,VCCIO_SD_S0*%
X14235000Y-41030000D03*
%TD*%
D30*
%TO.P,C406,1*%
%TO.N,VDD_CPU_BIG_S0*%
X54520000Y-35000000D03*
%TO.P,C406,2*%
%TO.N,GND*%
X55480000Y-35000000D03*
%TD*%
%TO.P,C476,1*%
%TO.N,VDDQ_DDR_S0*%
X41520000Y-50500000D03*
%TO.P,C476,2*%
%TO.N,GND*%
X42480000Y-50500000D03*
%TD*%
%TO.P,C705,1*%
%TO.N,VCC_1V8_S3*%
X65128913Y-17030779D03*
%TO.P,C705,2*%
%TO.N,GND*%
X66088913Y-17030779D03*
%TD*%
%TO.P,C414,1*%
%TO.N,VDD_CPU_BIG_S0*%
X57020000Y-38000000D03*
%TO.P,C414,2*%
%TO.N,GND*%
X57980000Y-38000000D03*
%TD*%
D33*
%TO.P,C426,1*%
%TO.N,VDD_GPU_S0*%
X44225000Y-48000000D03*
%TO.P,C426,2*%
%TO.N,GND*%
X45775000Y-48000000D03*
%TD*%
D31*
%TO.P,R504,1*%
%TO.N,LED_SYS_A*%
X54990000Y-49000000D03*
%TO.P,R504,2*%
%TO.N,VCC_3V3_S0*%
X56010000Y-49000000D03*
%TD*%
D30*
%TO.P,C4101,1*%
%TO.N,VDDA_DDR_PLL_S0*%
X47520000Y-22500000D03*
%TO.P,C4101,2*%
%TO.N,GND*%
X48480000Y-22500000D03*
%TD*%
D32*
%TO.P,R705,1*%
%TO.N,EMMC_DAT3*%
X67680000Y-22500000D03*
%TO.P,R705,2*%
%TO.N,VCC_1V8_S3*%
X68320000Y-22500000D03*
%TD*%
D31*
%TO.P,R507,1*%
%TO.N,USB2_OTG0_REXT*%
X33490000Y-17000000D03*
%TO.P,R507,2*%
%TO.N,GND*%
X34510000Y-17000000D03*
%TD*%
D33*
%TO.P,C601,1*%
%TO.N,VDD2H_DDR_S3*%
X15225000Y-31000000D03*
%TO.P,C601,2*%
%TO.N,GND*%
X16775000Y-31000000D03*
%TD*%
D30*
%TO.P,C464,1*%
%TO.N,VDD_DDR_S0*%
X56020000Y-45500000D03*
%TO.P,C464,2*%
%TO.N,GND*%
X56980000Y-45500000D03*
%TD*%
%TO.P,C616,1*%
%TO.N,VDD2L_DDR_S3*%
X16020000Y-26000000D03*
%TO.P,C616,2*%
%TO.N,GND*%
X16980000Y-26000000D03*
%TD*%
%TO.P,C619,1*%
%TO.N,VDD2L_DDR_S3*%
X27020000Y-22000000D03*
%TO.P,C619,2*%
%TO.N,GND*%
X27980000Y-22000000D03*
%TD*%
D32*
%TO.P,C802,1*%
%TO.N,PCIE0_TXN*%
X78180000Y-42500000D03*
%TO.P,C802,2*%
%TO.N,M2_PETN0*%
X78820000Y-42500000D03*
%TD*%
D30*
%TO.P,C4128,1*%
%TO.N,VCCIO_SD_S0*%
X52520000Y-22500000D03*
%TO.P,C4128,2*%
%TO.N,GND*%
X53480000Y-22500000D03*
%TD*%
D33*
%TO.P,C311,1*%
%TO.N,VDD2L_DDR_S3*%
X15225000Y-33000000D03*
%TO.P,C311,2*%
%TO.N,GND*%
X16775000Y-33000000D03*
%TD*%
D30*
%TO.P,C623,1*%
%TO.N,VDDQ_DDR_S0*%
X13520000Y-37000000D03*
%TO.P,C623,2*%
%TO.N,GND*%
X14480000Y-37000000D03*
%TD*%
D33*
%TO.P,C403,1*%
%TO.N,VDD_CPU_BIG_S0*%
X33725000Y-31000000D03*
%TO.P,C403,2*%
%TO.N,GND*%
X35275000Y-31000000D03*
%TD*%
D30*
%TO.P,C4106,1*%
%TO.N,VCCA_1V8_S0*%
X54520000Y-27500000D03*
%TO.P,C4106,2*%
%TO.N,GND*%
X55480000Y-27500000D03*
%TD*%
D31*
%TO.P,R803,1*%
%TO.N,PCIE0_PERST_L*%
X77990000Y-39500000D03*
%TO.P,R803,2*%
%TO.N,GND*%
X79010000Y-39500000D03*
%TD*%
D30*
%TO.P,C702,1*%
%TO.N,VCC_3V3_S0*%
X7520000Y-37000000D03*
%TO.P,C702,2*%
%TO.N,GND*%
X8480000Y-37000000D03*
%TD*%
%TO.P,C456,1*%
%TO.N,VDD_LOGIC_S0*%
X41520000Y-49000000D03*
%TO.P,C456,2*%
%TO.N,GND*%
X42480000Y-49000000D03*
%TD*%
%TO.P,C441,1*%
%TO.N,VDD_NPU_S0*%
X47520000Y-48000000D03*
%TO.P,C441,2*%
%TO.N,GND*%
X48480000Y-48000000D03*
%TD*%
%TO.P,C466,1*%
%TO.N,VDD_DDR_S0*%
X31520000Y-22000000D03*
%TO.P,C466,2*%
%TO.N,GND*%
X32480000Y-22000000D03*
%TD*%
D42*
%TO.P,U702,1*%
%TO.N,VCC3V3_SD*%
X9137500Y-39050000D03*
%TO.P,U702,2*%
%TO.N,GND*%
X9137500Y-40000000D03*
%TO.P,U702,3*%
%TO.N,unconnected-(U702-~{FLG}-Pad3)*%
X9137500Y-40950000D03*
%TO.P,U702,4*%
%TO.N,SD_PWREN*%
X6862500Y-40950000D03*
%TO.P,U702,5*%
%TO.N,VCC_3V3_S0*%
X6862500Y-39050000D03*
%TD*%
D36*
%TO.P,H801,1*%
%TO.N,GND*%
X32000000Y-44000000D03*
%TD*%
D30*
%TO.P,C4122,1*%
%TO.N,VCC_3V3_S3*%
X34520000Y-24500000D03*
%TO.P,C4122,2*%
%TO.N,GND*%
X35480000Y-24500000D03*
%TD*%
%TO.P,C630,1*%
%TO.N,VDDQ_DDR_S0*%
X19020000Y-44000000D03*
%TO.P,C630,2*%
%TO.N,GND*%
X19980000Y-44000000D03*
%TD*%
%TO.P,C499,1*%
%TO.N,VDDA_1V2_S0*%
X62020000Y-26000000D03*
%TO.P,C499,2*%
%TO.N,GND*%
X62980000Y-26000000D03*
%TD*%
%TO.P,C420,1*%
%TO.N,VDD_CPU_LIT_S0*%
X47520000Y-46500000D03*
%TO.P,C420,2*%
%TO.N,GND*%
X48480000Y-46500000D03*
%TD*%
%TO.P,C484,1*%
%TO.N,VDDA_0V75_S0*%
X47520000Y-51000000D03*
%TO.P,C484,2*%
%TO.N,GND*%
X48480000Y-51000000D03*
%TD*%
D33*
%TO.P,C402,1*%
%TO.N,VDD_CPU_BIG_S0*%
X54725000Y-33000000D03*
%TO.P,C402,2*%
%TO.N,GND*%
X56275000Y-33000000D03*
%TD*%
D30*
%TO.P,C4107,1*%
%TO.N,VCCA_1V8_S0*%
X39520000Y-43500000D03*
%TO.P,C4107,2*%
%TO.N,GND*%
X40480000Y-43500000D03*
%TD*%
%TO.P,C609,1*%
%TO.N,VDD2H_DDR_S3*%
X27020000Y-42500000D03*
%TO.P,C609,2*%
%TO.N,GND*%
X27980000Y-42500000D03*
%TD*%
%TO.P,C603,1*%
%TO.N,VDD2H_DDR_S3*%
X16020000Y-29000000D03*
%TO.P,C603,2*%
%TO.N,GND*%
X16980000Y-29000000D03*
%TD*%
D33*
%TO.P,C467,1*%
%TO.N,VDDQ_DDR_S0*%
X51225000Y-17000000D03*
%TO.P,C467,2*%
%TO.N,GND*%
X52775000Y-17000000D03*
%TD*%
D31*
%TO.P,R502,1*%
%TO.N,SARADC_IN0_BOOT*%
X44490000Y-52000000D03*
%TO.P,R502,2*%
%TO.N,VCCA_1V8_S0*%
X45510000Y-52000000D03*
%TD*%
D30*
%TO.P,C411,1*%
%TO.N,VDD_CPU_BIG_S0*%
X50020000Y-43500000D03*
%TO.P,C411,2*%
%TO.N,GND*%
X50980000Y-43500000D03*
%TD*%
%TO.P,C432,1*%
%TO.N,VDD_GPU_S0*%
X55020000Y-23000000D03*
%TO.P,C432,2*%
%TO.N,GND*%
X55980000Y-23000000D03*
%TD*%
%TO.P,C422,1*%
%TO.N,VDD_CPU_LIT_S0*%
X57020000Y-39500000D03*
%TO.P,C422,2*%
%TO.N,GND*%
X57980000Y-39500000D03*
%TD*%
%TO.P,C4113,1*%
%TO.N,VCCA_3V3_S0*%
X54520000Y-26000000D03*
%TO.P,C4113,2*%
%TO.N,GND*%
X55480000Y-26000000D03*
%TD*%
%TO.P,C608,1*%
%TO.N,VDD2H_DDR_S3*%
X22020000Y-42500000D03*
%TO.P,C608,2*%
%TO.N,GND*%
X22980000Y-42500000D03*
%TD*%
%TO.P,C483,1*%
%TO.N,VDDA_0V75_S0*%
X33520000Y-47500000D03*
%TO.P,C483,2*%
%TO.N,GND*%
X34480000Y-47500000D03*
%TD*%
%TO.P,C410,1*%
%TO.N,VDD_CPU_BIG_S0*%
X54520000Y-29000000D03*
%TO.P,C410,2*%
%TO.N,GND*%
X55480000Y-29000000D03*
%TD*%
D43*
%TO.N,BUCK_M2_SW*%
X60162500Y-55912500D03*
X60162500Y-54212500D03*
%TO.N,BUCK_VDD2L_FB*%
X8437500Y-34987500D03*
X4387500Y-32912500D03*
%TO.N,DCPHY_VREG*%
X38712500Y-15887500D03*
%TO.N,DDR_RESET_L*%
X21287500Y-45162500D03*
%TO.N,DDR_ZQ_A*%
X41837500Y-51637500D03*
%TO.N,DDR_ZQ_B*%
X51787500Y-49012500D03*
%TO.N,EMMC_CMD*%
X67687500Y-20987500D03*
D44*
%TO.N,EMMC_DAT0*%
X56787500Y-22162500D03*
D43*
X62437500Y-19987500D03*
X61262500Y-19412500D03*
X62437500Y-18487500D03*
%TO.N,EMMC_DAT1*%
X67462500Y-19287500D03*
%TO.N,EMMC_DAT2*%
X62137500Y-20962500D03*
X55787500Y-22162500D03*
X50687500Y-26687500D03*
X62412500Y-16987500D03*
%TO.N,EMMC_DAT3*%
X66812500Y-21687500D03*
%TO.N,EMMC_DAT4*%
X66637500Y-17337500D03*
%TO.N,EMMC_DAT5*%
X63437500Y-25237500D03*
X68062500Y-25987500D03*
X69012500Y-24987500D03*
X65087500Y-26387500D03*
X65762500Y-22787500D03*
D45*
%TO.N,EMMC_DAT6*%
X64750000Y-18250000D03*
D43*
%TO.N,EMMC_DAT7*%
X66987500Y-19037500D03*
%TO.N,EMMC_DS*%
X64062500Y-16612500D03*
X61462500Y-17012500D03*
X56262500Y-22187500D03*
X61512500Y-22287500D03*
D45*
X64750000Y-21250000D03*
D43*
%TO.N,EMMC_VDDI*%
X65312500Y-20437500D03*
%TO.N,ETH_LED_G_A*%
X92087500Y-47562500D03*
%TO.N,ETH_MDC*%
X43887500Y-23837500D03*
X48312500Y-38562500D03*
X41387500Y-23287500D03*
X45762500Y-26112500D03*
%TO.N,ETH_MDI0_P*%
X70512500Y-63387500D03*
%TO.N,ETH_MDI1_N*%
X70987500Y-64387500D03*
D44*
X74112500Y-62762500D03*
D43*
%TO.N,ETH_MDI2_N*%
X79437500Y-60387500D03*
%TO.N,ETH_MDI2_P*%
X72187500Y-62912500D03*
X72187500Y-62912500D03*
%TO.N,ETH_MDI3_N*%
X75437500Y-62487500D03*
X81062500Y-57612500D03*
%TO.N,ETH_MDIO*%
X43462500Y-24612500D03*
X51812500Y-50512500D03*
X48037500Y-41512500D03*
X64212500Y-62712500D03*
X47412500Y-42662500D03*
%TO.N,GND*%
X79740000Y-46000000D03*
X22442598Y-22537401D03*
X18562500Y-23562500D03*
X12740000Y-38500000D03*
X26240000Y-20500000D03*
X49240000Y-51000000D03*
X56689160Y-47702148D03*
X40237500Y-22237500D03*
X13392462Y-57597462D03*
X58237500Y-34737500D03*
X52929073Y-19654073D03*
X54240000Y-49000000D03*
X76400000Y-49750000D03*
X46700000Y-50000000D03*
X45250000Y-22950000D03*
X59240000Y-23000000D03*
X48770839Y-21702148D03*
X40240000Y-15000000D03*
X58740000Y-38000000D03*
X17740000Y-27500000D03*
X56740000Y-42500000D03*
X17700000Y-35000000D03*
X23187500Y-20787500D03*
X63740000Y-40000000D03*
X63740000Y-37000000D03*
X23740000Y-42500000D03*
X12740000Y-40000000D03*
X51740000Y-51000000D03*
X56740000Y-23000000D03*
X76400000Y-40750000D03*
X14240000Y-33000000D03*
X49212500Y-18637500D03*
X25700000Y-22500000D03*
X49240000Y-46500000D03*
X37740000Y-46500000D03*
X49240000Y-45000000D03*
X23612500Y-24162500D03*
X61240000Y-38500000D03*
X46450000Y-44000000D03*
X60700000Y-29500000D03*
X56737500Y-30987500D03*
X43017401Y-21537401D03*
X76400000Y-48250000D03*
X15240000Y-27000000D03*
X53737500Y-20737500D03*
X36200000Y-31000000D03*
X58740000Y-39500000D03*
X53737500Y-22237500D03*
X70200000Y-41000000D03*
X52280000Y-15000000D03*
X76400000Y-39250000D03*
X62240000Y-33000000D03*
X52775000Y-17925000D03*
X15240000Y-38500000D03*
X7400000Y-56855000D03*
X4150000Y-56855000D03*
X75721387Y-52794666D03*
X16425000Y-64760000D03*
X41200000Y-47000000D03*
X28740000Y-42500000D03*
X54280000Y-50500000D03*
X59740000Y-31500000D03*
X36240000Y-39500000D03*
X5517401Y-40537401D03*
X46240000Y-19000000D03*
X32740000Y-20500000D03*
X55737500Y-34737500D03*
X74300000Y-35750000D03*
X17700000Y-33000000D03*
X59682148Y-26790839D03*
X21240000Y-22000000D03*
X20740000Y-44000000D03*
X40240000Y-18000000D03*
X63740000Y-38500000D03*
X57128982Y-21854588D03*
X63740000Y-30000000D03*
X70200000Y-46000000D03*
X38240000Y-49500000D03*
X56017401Y-18037401D03*
X3250000Y-43355000D03*
X15200000Y-29000000D03*
X40740000Y-21000000D03*
X79270839Y-41702148D03*
X18000000Y-52755000D03*
D45*
X63250000Y-23750000D03*
D43*
X37312500Y-19262500D03*
X60812500Y-37037500D03*
X51740000Y-45000000D03*
X54182148Y-45290839D03*
X36442598Y-15962598D03*
X35440000Y-18500000D03*
X74462461Y-42090085D03*
X57200000Y-31000000D03*
X35187500Y-38237500D03*
X63442598Y-32462598D03*
X58270839Y-25202148D03*
X21240000Y-42500000D03*
X38240000Y-21000000D03*
X46240000Y-20500000D03*
X26240000Y-42500000D03*
X5421017Y-37854588D03*
X40240000Y-16500000D03*
X32780000Y-19000000D03*
X17740000Y-40000000D03*
X58740000Y-41000000D03*
X42762500Y-18037500D03*
X35162500Y-36512500D03*
X35700000Y-33000000D03*
X70200000Y-44000000D03*
X59262500Y-33537500D03*
X14240000Y-34500000D03*
X81200000Y-44000000D03*
X61740000Y-41500000D03*
X61240000Y-24500000D03*
X61275000Y-35925000D03*
X63740000Y-26000000D03*
X33275000Y-21925000D03*
X35280000Y-49000000D03*
X17700000Y-31000000D03*
X61240000Y-40000000D03*
X23240000Y-44000000D03*
X79780000Y-39500000D03*
X57658822Y-46178822D03*
X43780000Y-52000000D03*
X18000000Y-45705000D03*
X43240000Y-50500000D03*
X51740000Y-49500000D03*
D45*
X67250000Y-21250000D03*
D43*
X59412500Y-34012500D03*
X57442598Y-29537401D03*
D44*
X55887500Y-34137500D03*
D43*
X8480000Y-37760000D03*
X36240000Y-29000000D03*
X15240000Y-37000000D03*
X23280000Y-45500000D03*
X26700000Y-44500000D03*
X62200000Y-28000000D03*
X38740000Y-45000000D03*
X55762500Y-36012500D03*
X38740000Y-43500000D03*
X35737500Y-24737500D03*
X64412500Y-34512500D03*
X35737500Y-26237500D03*
X36240000Y-35000000D03*
X62240000Y-31500000D03*
X56240000Y-41000000D03*
D45*
X65250000Y-17750000D03*
D43*
X46700000Y-48000000D03*
X51740000Y-46500000D03*
X51740000Y-43500000D03*
X61740000Y-23000000D03*
X58240000Y-19000000D03*
X76400000Y-43750000D03*
X41182148Y-43790839D03*
X58740000Y-26000000D03*
X40740000Y-50500000D03*
X59712500Y-45887500D03*
X49240000Y-43500000D03*
X76400000Y-45250000D03*
X34689160Y-22202148D03*
X58770839Y-44702148D03*
X75751817Y-35720073D03*
X56240000Y-38000000D03*
X29240000Y-44000000D03*
X49240000Y-48000000D03*
X35737500Y-27737500D03*
X51740000Y-21000000D03*
X35480000Y-17000000D03*
X55237500Y-39787500D03*
X30612500Y-23762500D03*
X64137500Y-21312500D03*
X57737500Y-36787500D03*
X36212500Y-24787500D03*
X60240000Y-21500000D03*
X21240000Y-23500000D03*
X14240000Y-31500000D03*
X55200000Y-47000000D03*
X17740000Y-38500000D03*
X28740000Y-22000000D03*
X61740000Y-43000000D03*
X32700000Y-23000000D03*
X56240000Y-26000000D03*
X55737500Y-43687500D03*
X17740000Y-37000000D03*
X56240000Y-24500000D03*
X55270839Y-19702148D03*
X17740000Y-29000000D03*
X17270839Y-25202148D03*
X40240000Y-19500000D03*
X69637500Y-23287500D03*
X35240000Y-20000000D03*
X76400000Y-51250000D03*
X58487500Y-27987500D03*
X59240000Y-42500000D03*
X41240000Y-45000000D03*
X54240000Y-43500000D03*
X43240000Y-49000000D03*
X51740000Y-22500000D03*
X51740000Y-48000000D03*
X35240000Y-47500000D03*
X60780000Y-20000000D03*
X37187500Y-22237500D03*
X49240000Y-49500000D03*
X40740000Y-49000000D03*
X34450000Y-44000000D03*
X8109684Y-40425735D03*
X56240000Y-27500000D03*
X37740000Y-18000000D03*
X74442598Y-46037401D03*
X37740000Y-48000000D03*
%TO.N,HDMI_D0N_C*%
X45012500Y-54187500D03*
D45*
X47812500Y-54537500D03*
X34562500Y-62462500D03*
D43*
%TO.N,HDMI_D1N_C*%
X51012500Y-54187500D03*
X51812500Y-55962500D03*
%TO.N,HDMI_D2P_C*%
X43087500Y-59837500D03*
X51412500Y-53887500D03*
%TO.N,HDMI_D2_TERM*%
X55487500Y-30712500D03*
X53062500Y-25537500D03*
%TO.N,HDMI_HPD*%
X57512500Y-20662500D03*
%TO.N,HDMI_SCL_5V*%
X34187500Y-57162500D03*
X31812500Y-59537500D03*
%TO.N,HDMI_SDA*%
X38137500Y-42712500D03*
D45*
X38400000Y-40200000D03*
D44*
%TO.N,HDMI_TX_D2P*%
X52237500Y-53537500D03*
X53912500Y-53937500D03*
D43*
%TO.N,HDMI_TX_REXT*%
X61687500Y-24712500D03*
%TO.N,HUB_OVC_L*%
X70387500Y-13262500D03*
X69462500Y-5737500D03*
%TO.N,HUB_UP_DM*%
X70687500Y-30537500D03*
X48287500Y-39162500D03*
%TO.N,LED_SYS_A*%
X54287500Y-49462500D03*
X51987500Y-51762500D03*
X26487500Y-53212500D03*
D44*
%TO.N,LED_SYS_L*%
X29812500Y-51212500D03*
X35912500Y-50112500D03*
D45*
%TO.N,LP5_A1_B*%
X37800000Y-30600000D03*
D43*
X27812500Y-34712500D03*
D44*
%TO.N,LP5_A2_A*%
X33112500Y-35537500D03*
X30337500Y-34737500D03*
X31737500Y-35637500D03*
X36962500Y-35462500D03*
D45*
%TO.N,LP5_A4_A*%
X40200000Y-32400000D03*
D43*
X36637500Y-29412500D03*
%TO.N,LP5_A6_A*%
X32237500Y-33562500D03*
D45*
X40200000Y-34200000D03*
D43*
%TO.N,LP5_CLKN_B*%
X36162500Y-33012500D03*
D45*
X37300000Y-31350000D03*
D43*
%TO.N,LP5_CSN1_A*%
X34712500Y-25387500D03*
X39412500Y-26587500D03*
%TO.N,LP5_DMI0_A*%
X41787500Y-38487500D03*
D45*
X37800000Y-36000000D03*
D43*
%TO.N,LP5_DMI0_B*%
X36012500Y-40162500D03*
X39887500Y-39362500D03*
D44*
X28200000Y-40000000D03*
D43*
%TO.N,LP5_DMI1_A*%
X33662500Y-37837500D03*
D44*
X28200000Y-26000000D03*
D45*
%TO.N,LP5_DQ10_B*%
X37850000Y-25300000D03*
D43*
X36862500Y-25362500D03*
D44*
%TO.N,LP5_DQ12_A*%
X27400000Y-26700000D03*
D43*
X33387500Y-37162500D03*
D45*
%TO.N,LP5_DQ15_A*%
X37800000Y-37800000D03*
D43*
X31487500Y-34387500D03*
%TO.N,LP5_DQ15_B*%
X37337500Y-24312500D03*
X36387500Y-24312500D03*
D44*
%TO.N,LP5_DQ5_A*%
X31912500Y-39212500D03*
X23400000Y-27400000D03*
%TO.N,LP5_DQ6_A*%
X23400000Y-28800000D03*
D45*
X37300000Y-36850000D03*
D43*
%TO.N,LP5_DQ6_B*%
X29312500Y-33337500D03*
X32387500Y-30337500D03*
D44*
X36412500Y-25312500D03*
X36037500Y-24012500D03*
D43*
X32387500Y-27337500D03*
D45*
X39500000Y-24750000D03*
D44*
%TO.N,LP5_DQ7_B*%
X27400000Y-36500000D03*
D45*
X37300000Y-28050000D03*
D43*
%TO.N,LP5_DQ9_A*%
X31037500Y-34587500D03*
X28687500Y-31937500D03*
D45*
X37800000Y-38400000D03*
D44*
X29800000Y-27400000D03*
D45*
%TO.N,LP5_RDQS0N_B*%
X37800000Y-28800000D03*
D43*
X29437500Y-34062500D03*
%TO.N,LP5_RDQS0P_A*%
X36737500Y-35862500D03*
D45*
X37800000Y-35400000D03*
D43*
%TO.N,LP5_WCK0N_A*%
X35887500Y-23462500D03*
D45*
X39600000Y-36000000D03*
D43*
%TO.N,LP5_WCK0P_A*%
X39512500Y-23962500D03*
X40037500Y-40212500D03*
%TO.N,LP5_WCK0P_B*%
X32737500Y-35062500D03*
D45*
X40200000Y-29400000D03*
D44*
%TO.N,LP5_WCK1N_B*%
X22600000Y-37900000D03*
D43*
X24637500Y-26962500D03*
%TO.N,LP5_WCK1P_A*%
X32962500Y-28187500D03*
D45*
X40800000Y-37800000D03*
D44*
%TO.N,LP5_ZQ*%
X30600000Y-30900000D03*
D43*
%TO.N,M2_LED_A*%
X67887500Y-40087500D03*
X25062500Y-52312500D03*
X56787500Y-49462500D03*
X65712500Y-40387500D03*
X53487500Y-52762500D03*
%TO.N,M2_LED_L*%
X73262500Y-51037500D03*
X19512500Y-53612500D03*
X50237500Y-53287500D03*
%TO.N,M2_PETP0*%
X74537500Y-41337500D03*
X71712500Y-41337500D03*
%TO.N,PCIE0_CLKREQ_L*%
X73537500Y-40087500D03*
X76337500Y-45712500D03*
D44*
X37112500Y-47062500D03*
X58912500Y-42012500D03*
X71737500Y-40862500D03*
D43*
%TO.N,PCIE0_PERST_L*%
X49237500Y-45537500D03*
X35662500Y-45387500D03*
X73837500Y-40537500D03*
D44*
%TO.N,PCIE0_REFCLKN*%
X57487500Y-39037500D03*
X49262500Y-34362500D03*
X74562500Y-40137500D03*
D43*
%TO.N,PCIE0_REFCLKP*%
X76362500Y-39737500D03*
%TO.N,PCIE0_RXN*%
X74612500Y-43187500D03*
%TO.N,PCIE0_RXP*%
X76237500Y-42512500D03*
D45*
%TO.N,PCIE0_TXN*%
X77912500Y-42337500D03*
D43*
%TO.N,PCIE0_TXP*%
X69037500Y-42712500D03*
%TO.N,PCIE0_WAKE_L*%
X66437500Y-43337500D03*
%TO.N,PHY_INT_L*%
X62412500Y-44712500D03*
X65187500Y-50462500D03*
%TO.N,PHY_LED1*%
X90637500Y-45737500D03*
X69062500Y-58987500D03*
X69062500Y-58987500D03*
%TO.N,PHY_LED2*%
X68587500Y-59012500D03*
X74362500Y-53387500D03*
D44*
%TO.N,PHY_RST_GPIO*%
X66087500Y-35612500D03*
X66087500Y-58687500D03*
D43*
%TO.N,PHY_RST_L*%
X74912500Y-61387500D03*
X68187500Y-59912500D03*
D45*
%TO.N,PHY_XI*%
X70312500Y-66737500D03*
X68612500Y-60562500D03*
D43*
%TO.N,PMIC_EXT_EN*%
X50512500Y-13537500D03*
X60437500Y-5637500D03*
D44*
%TO.N,PMIC_FB1*%
X59137500Y-36037500D03*
X59087500Y-34362500D03*
D43*
%TO.N,PMIC_FB2*%
X53037500Y-29312500D03*
X49287500Y-17512500D03*
D45*
%TO.N,PMIC_FB5*%
X33937500Y-40612500D03*
D43*
X49737500Y-10312500D03*
X42612500Y-41837500D03*
X50287500Y-11862500D03*
D45*
X38812500Y-44387500D03*
D43*
X46012500Y-42212500D03*
%TO.N,PMIC_FB6*%
X46387500Y-24062500D03*
X47162500Y-24362500D03*
%TO.N,PMIC_INT_L*%
X51237500Y-35662500D03*
X52562500Y-37012500D03*
X64537500Y-40062500D03*
X58862500Y-35662500D03*
X64862500Y-37312500D03*
D45*
%TO.N,PMIC_PWRCTRL3*%
X52700000Y-35200000D03*
D43*
X48087500Y-21987500D03*
X43062500Y-15137500D03*
%TO.N,PMIC_SCL*%
X42962500Y-20262500D03*
D45*
X50400000Y-34800000D03*
D44*
%TO.N,PMIC_SDA*%
X49062500Y-23737500D03*
X52412500Y-29462500D03*
X50737500Y-32662500D03*
D43*
X57987500Y-34037500D03*
D44*
X47862500Y-23587500D03*
D43*
X65662500Y-26787500D03*
X66362500Y-26087500D03*
X41762500Y-14662500D03*
D45*
X51000000Y-34800000D03*
D43*
%TO.N,PMIC_SW9*%
X41662500Y-8087500D03*
X50837500Y-14437500D03*
%TO.N,PWRON_L*%
X41487500Y-9987500D03*
X37562500Y-3262500D03*
%TO.N,RESET_KEY*%
X63737500Y-28762500D03*
%TO.N,RGMII_TXD0*%
X46912500Y-39137500D03*
X53487500Y-41137500D03*
D45*
%TO.N,RGMII_TXD1*%
X46087500Y-41762500D03*
X45662500Y-37262500D03*
D43*
X51812500Y-47412500D03*
X74912500Y-59387500D03*
X43537500Y-28662500D03*
X46562500Y-42312500D03*
%TO.N,RGMII_TXD3*%
X47562500Y-32087500D03*
X44212500Y-24212500D03*
%TO.N,SARADC_IN0_BOOT*%
X30612500Y-3237500D03*
X60987500Y-38912500D03*
X47337500Y-17437500D03*
%TO.N,SD_CMD*%
X5337500Y-57437500D03*
X17562500Y-49062500D03*
X35162500Y-20512500D03*
X43487500Y-19837500D03*
X12237500Y-53887500D03*
%TO.N,SD_D1*%
X16312500Y-55237500D03*
X7912500Y-57287500D03*
%TO.N,SD_D2*%
X16537500Y-47637500D03*
X35787500Y-49487500D03*
X45262500Y-26637500D03*
X44537500Y-24587500D03*
X11412500Y-58687500D03*
%TO.N,SD_D3*%
X13412500Y-40687500D03*
%TO.N,SD_DET_L*%
X20637500Y-51962500D03*
%TO.N,SD_PWREN*%
X50162500Y-39287500D03*
D45*
X51600000Y-37200000D03*
D43*
X43462500Y-48212500D03*
D45*
%TO.N,SYS_RESET_L*%
X52150000Y-34650000D03*
D43*
X62137500Y-23812500D03*
X72687500Y-22212500D03*
%TO.N,USB2_OTG0_REXT*%
X35537500Y-17512500D03*
%TO.N,USB2_OTG1_REXT*%
X33937500Y-48512500D03*
D45*
%TO.N,USB3A_OC_L*%
X49800000Y-37200000D03*
D44*
X48587500Y-28687500D03*
D45*
%TO.N,USB3_OTG0_REXT*%
X45330000Y-38850000D03*
D43*
X43437500Y-27312500D03*
%TO.N,USB3_RXN*%
X79312500Y-20462500D03*
%TO.N,USB3_RXP*%
X78962500Y-20087500D03*
X72662500Y-25612500D03*
X53437500Y-30162500D03*
D45*
X52150000Y-30800000D03*
D44*
%TO.N,USB3_TXN*%
X60412500Y-27062500D03*
X55587500Y-26887500D03*
%TO.N,USB3_TXP*%
X69687500Y-23812500D03*
X73387500Y-21262500D03*
D45*
%TO.N,USBC_DM*%
X41700000Y-41250000D03*
D43*
X41562500Y-43187500D03*
%TO.N,USB_HOST_PWREN*%
X50737500Y-20087500D03*
X58562500Y-19462500D03*
X65762500Y-14287500D03*
X76712500Y-14262500D03*
%TO.N,USB_OTG0_VBUSDET*%
X48937500Y-17162500D03*
X35737500Y-45862500D03*
X38487500Y-45412500D03*
D45*
X42730000Y-37550000D03*
D43*
X39387500Y-42887500D03*
%TO.N,VBUS_IN*%
X18287500Y-60337500D03*
X22787500Y-60312500D03*
X66487500Y-41687500D03*
X43737500Y-57137500D03*
X22034472Y-57544472D03*
X71112500Y-24262500D03*
%TO.N,VCC3V3_PCIE*%
X70780000Y-39000000D03*
X73700000Y-36000000D03*
X68379073Y-41654073D03*
X71679926Y-52598182D03*
X68379073Y-44654073D03*
X78557401Y-41537401D03*
X73700000Y-50500000D03*
X79379073Y-44654073D03*
X73700000Y-35000000D03*
X68379073Y-46654073D03*
X73700000Y-49500000D03*
X78557401Y-46537401D03*
%TO.N,VCC3V3_PHY*%
X75362500Y-61737500D03*
X76557401Y-58037401D03*
%TO.N,VCC3V3_SD*%
X10482598Y-37962598D03*
X8109684Y-39475735D03*
X18000000Y-50555000D03*
X4879073Y-37654073D03*
%TO.N,VCC5V0_SYS_S5*%
X78337500Y-7562500D03*
X77587500Y-6812500D03*
D45*
%TO.N,VCC5V_HDMI*%
X52762500Y-42462500D03*
D43*
X32237500Y-55387500D03*
D45*
X51787500Y-42587500D03*
X41387500Y-51712500D03*
X86487500Y-14212500D03*
X37037500Y-50962500D03*
D43*
X37037500Y-56462500D03*
D45*
X68862500Y-39962500D03*
D43*
%TO.N,VCCA1V8_PLDO2_S0*%
X60557401Y-23537401D03*
X49862500Y-8437500D03*
X55817851Y-18709160D03*
X55057401Y-18037401D03*
X45787500Y-6912500D03*
X54412500Y-12987500D03*
%TO.N,VCCA_1V8_S0*%
X47812500Y-43362500D03*
X48057401Y-44037401D03*
X50557401Y-23037401D03*
D44*
X54912500Y-39387500D03*
D43*
X46280000Y-52000000D03*
D44*
X45787500Y-45712500D03*
D43*
X33987500Y-38512500D03*
X40057401Y-44037401D03*
X34229160Y-25297851D03*
X33817851Y-27209160D03*
X50062500Y-22812500D03*
D45*
X43380000Y-37550000D03*
D43*
X53982598Y-28037401D03*
X46237500Y-45687500D03*
X34812500Y-39487500D03*
D44*
X42262500Y-21562500D03*
D43*
X30062500Y-24612500D03*
X39437500Y-44387500D03*
X53982598Y-38537401D03*
D45*
X43380000Y-36900000D03*
D43*
X34787500Y-41012500D03*
X38482598Y-23037401D03*
%TO.N,VCCA_3V3_S0*%
X53817851Y-26290839D03*
X40982598Y-20462598D03*
X41212500Y-20887500D03*
%TO.N,VCCIO_SD_S0*%
X50487500Y-21437500D03*
X13005000Y-59030000D03*
X52937500Y-10937500D03*
X60287500Y-15962500D03*
X54187500Y-21987500D03*
X53057401Y-44037401D03*
X52812500Y-43612500D03*
X52520000Y-23260000D03*
X5505000Y-59030000D03*
X8005000Y-59030000D03*
X61387500Y-44287500D03*
X15005000Y-41030000D03*
X59162500Y-16312500D03*
X14187500Y-42262500D03*
X10505000Y-59030000D03*
X46237500Y-6412500D03*
X65237500Y-36462500D03*
X51487500Y-23487500D03*
%TO.N,VCC_1V1_NLDO_S3*%
X64837500Y-31687500D03*
X66237500Y-28812500D03*
X39362500Y-10287500D03*
X6126345Y-28626345D03*
X9937500Y-27462500D03*
X41925000Y-13600000D03*
X47962500Y-15187500D03*
X50487500Y-20512500D03*
X50562500Y-17812500D03*
X41925000Y-12000000D03*
X45712500Y-15062500D03*
D45*
%TO.N,VCC_1V8_S3*%
X64250000Y-23250000D03*
D43*
X55057401Y-41537401D03*
X46487500Y-24887500D03*
X48057401Y-45537401D03*
X65412500Y-17137500D03*
D45*
X45362500Y-46212500D03*
X65250000Y-18750000D03*
X38037500Y-46162500D03*
X64750000Y-24250000D03*
D43*
X47287500Y-26162500D03*
X43817851Y-20209160D03*
D44*
X57012500Y-37037500D03*
D43*
X58487500Y-32537500D03*
X40057401Y-45537401D03*
%TO.N,VCC_2V0_PLDO_S3*%
X5837500Y-18612500D03*
X5062500Y-19387500D03*
%TO.N,VCC_3V3_S0*%
X7810839Y-37702148D03*
X56087500Y-49337500D03*
X33862500Y-52262500D03*
X66437500Y-53187500D03*
X56780000Y-49000000D03*
X63112500Y-55637500D03*
X4557401Y-40537401D03*
D45*
X64750000Y-20250000D03*
D43*
X62937500Y-16612500D03*
X56729160Y-29702148D03*
X11557401Y-40537401D03*
D44*
X64112500Y-20312500D03*
D43*
X49482598Y-21537401D03*
X70780000Y-48000000D03*
X79780000Y-47500000D03*
X7649156Y-39836656D03*
D45*
X42730000Y-36900000D03*
D43*
X39310839Y-21702148D03*
X59937500Y-4012500D03*
D44*
X43062500Y-40437500D03*
D43*
X58462500Y-28487500D03*
D45*
X37087500Y-23037500D03*
D43*
X78712500Y-47537500D03*
D44*
X42662500Y-28687500D03*
D43*
X37762500Y-52112500D03*
%TO.N,VCC_3V3_S3*%
X49537500Y-15712500D03*
X15505000Y-59030000D03*
X44112500Y-15112500D03*
X53837500Y-25012500D03*
X54810839Y-25202148D03*
X35057401Y-25037401D03*
X34112500Y-24687500D03*
X53362500Y-25037500D03*
D44*
%TO.N,VDD1_DDR_S3*%
X25412500Y-30012500D03*
D43*
X21712500Y-20612500D03*
D44*
X22137500Y-20812500D03*
X20562500Y-24062500D03*
D43*
X14057401Y-27537401D03*
X17557401Y-23537401D03*
X22557401Y-21037401D03*
%TO.N,VDD2H_DDR_S3*%
X22557401Y-24037401D03*
X54412500Y-11062500D03*
X15879073Y-35654073D03*
X16557401Y-37537401D03*
X27557401Y-43037401D03*
D44*
X27400000Y-32300000D03*
X23400000Y-36500000D03*
D43*
X23737500Y-26337500D03*
D44*
X22600000Y-33700000D03*
D43*
X20057401Y-24037401D03*
D44*
X20200000Y-32300000D03*
D43*
X15879073Y-31654073D03*
D44*
X24200000Y-36500000D03*
D43*
X24712500Y-25462500D03*
D44*
X22600000Y-31600000D03*
D43*
X21337500Y-22937500D03*
X22557401Y-43037401D03*
D44*
X25800000Y-33000000D03*
D43*
X23817851Y-21709160D03*
X25057401Y-24037401D03*
X24487500Y-40362500D03*
D44*
X24200000Y-39300000D03*
X22600000Y-34400000D03*
X19400000Y-32300000D03*
D43*
X16557401Y-28037401D03*
X15412500Y-31637500D03*
X20057401Y-43037401D03*
D44*
X28200000Y-32300000D03*
D43*
X23562500Y-21287500D03*
D44*
X25000000Y-37900000D03*
X25800000Y-38600000D03*
D43*
X25057401Y-43037401D03*
X16557401Y-39037401D03*
D44*
X25000000Y-33000000D03*
X25800000Y-39300000D03*
D43*
X54837500Y-14887500D03*
D44*
X24200000Y-38600000D03*
D43*
X15237500Y-33762500D03*
%TO.N,VDD2L_DDR_S3*%
X26887500Y-21662500D03*
X22362500Y-22012500D03*
X16557401Y-40537401D03*
X15879073Y-33654073D03*
X22057401Y-44537401D03*
X15712500Y-39912500D03*
X16310839Y-26702148D03*
X21729160Y-21297851D03*
X24879073Y-45154073D03*
X27557401Y-22537401D03*
X32871017Y-33854588D03*
X26212500Y-22037500D03*
D44*
X26600000Y-26000000D03*
D43*
%TO.N,VDDA0V75_HDMI_S0*%
X30317851Y-20209160D03*
X39387500Y-50387500D03*
X39557401Y-51037401D03*
X62557401Y-39037401D03*
D44*
%TO.N,VDDA_0V75_S0*%
X29762500Y-21687500D03*
X28712500Y-23637500D03*
D43*
X33520000Y-19260000D03*
D45*
X42962500Y-53587500D03*
D43*
X34057401Y-48037401D03*
D45*
X47837500Y-51362500D03*
D44*
X29537500Y-19637500D03*
D45*
X48462500Y-53587500D03*
D43*
X37057401Y-50037401D03*
X33337500Y-18812500D03*
%TO.N,VDDA_0V85_S0*%
X60557401Y-43537401D03*
X64087500Y-38987500D03*
X63020000Y-30740000D03*
X36020000Y-17260000D03*
X58520000Y-46260000D03*
X35987500Y-16162500D03*
X62442148Y-34395058D03*
X56437500Y-48287500D03*
X50557401Y-51537401D03*
%TO.N,VDDA_1V2_S0*%
X62557401Y-26537401D03*
%TO.N,VDDA_DDR_PLL_S0*%
X47520000Y-23260000D03*
X42057401Y-23037401D03*
%TO.N,VDDQ_DDR_S0*%
X41062500Y-50862500D03*
X22962500Y-26387500D03*
D44*
X29000000Y-36500000D03*
D43*
X20057401Y-22537401D03*
X15262500Y-37887500D03*
X46987500Y-50537500D03*
X61287500Y-45412500D03*
D44*
X20200000Y-35800000D03*
D43*
X50370411Y-17353982D03*
X36512500Y-50537500D03*
X56212500Y-50437500D03*
X42057401Y-51037401D03*
X32287500Y-39512500D03*
X13379073Y-29654073D03*
X58057401Y-44537401D03*
X16310839Y-25202148D03*
X13057401Y-33537401D03*
X60037500Y-33912500D03*
X19737500Y-24687500D03*
X18637500Y-25262500D03*
X14057401Y-37537401D03*
X41812500Y-50612500D03*
X60557401Y-42037401D03*
X62557401Y-30537401D03*
X23982598Y-21037401D03*
X50557401Y-50037401D03*
X27487500Y-21537500D03*
D44*
X27887500Y-28412500D03*
D43*
X21337500Y-29112500D03*
X36562500Y-48512500D03*
X53057401Y-49537401D03*
X62487500Y-40437500D03*
X19557401Y-44537401D03*
X62137500Y-30962500D03*
X59937500Y-42287500D03*
D44*
X21800000Y-37900000D03*
D43*
X27737500Y-43687500D03*
X28057401Y-44537401D03*
D44*
X28200000Y-36500000D03*
D43*
X27612500Y-44312500D03*
X57212500Y-44487500D03*
X39057401Y-17037401D03*
X64362500Y-29037500D03*
D44*
X28537500Y-25662500D03*
D43*
X27465527Y-19955527D03*
X13057401Y-32037401D03*
D44*
X20200000Y-39300000D03*
D43*
X60057401Y-25037401D03*
D44*
X30600000Y-35800000D03*
X19400000Y-35800000D03*
D43*
X37762500Y-51512500D03*
D44*
X29800000Y-35800000D03*
D43*
X57262500Y-49937500D03*
X31462500Y-39362500D03*
X35126345Y-13626345D03*
X18712500Y-43837500D03*
D44*
X21000000Y-38600000D03*
D43*
X63637500Y-36512500D03*
D44*
X30600000Y-36500000D03*
D43*
X14057401Y-39037401D03*
X40762500Y-17587500D03*
%TO.N,VDD_0V75_S3*%
X59912500Y-19287500D03*
X59057401Y-22037401D03*
X62557401Y-37537401D03*
X49312500Y-41787500D03*
X62037500Y-36187500D03*
X56312500Y-46762500D03*
X56020000Y-47760000D03*
X58812500Y-21612500D03*
X60587500Y-14862500D03*
X62057401Y-13037401D03*
D45*
X47280000Y-35600000D03*
D43*
%TO.N,VDD_CPU_BIG_S0*%
X33982598Y-35537401D03*
X54237500Y-33187500D03*
D44*
X57387500Y-38412500D03*
D43*
X50557401Y-45537401D03*
D44*
X53062500Y-31587500D03*
D43*
X41437500Y-16362500D03*
D45*
X52037500Y-11912500D03*
D43*
X43112500Y-22562500D03*
D45*
X49362500Y-9537500D03*
D43*
X50557401Y-44037401D03*
D44*
X55087500Y-37037500D03*
D43*
X39387500Y-12787500D03*
X37557401Y-44037401D03*
X55057401Y-29537401D03*
X34212500Y-36512500D03*
X55379073Y-33654073D03*
X43370411Y-22146017D03*
X43712500Y-21787500D03*
X55379073Y-31654073D03*
X57482598Y-32037401D03*
X57317851Y-33290839D03*
X34520000Y-30510000D03*
%TO.N,VDD_CPU_LIT_S0*%
X47879073Y-19654073D03*
X37557401Y-45537401D03*
X41412500Y-19487500D03*
X47687500Y-19212500D03*
X57557401Y-28037401D03*
X48057401Y-47037401D03*
D44*
X47112500Y-46612500D03*
D43*
X55557401Y-43037401D03*
D45*
X48637500Y-19712500D03*
D44*
X52937500Y-43012500D03*
D43*
X44687500Y-18637500D03*
D45*
X52387500Y-12412500D03*
D43*
X56482598Y-25462598D03*
X57557401Y-40037401D03*
X44812500Y-19112500D03*
D45*
X50862500Y-15562500D03*
D43*
X41879073Y-19654073D03*
D45*
X56187500Y-39762500D03*
D43*
X56762500Y-27187500D03*
%TO.N,VDD_DDR_S0*%
X54020000Y-19760000D03*
X59962500Y-17787500D03*
X64762500Y-27762500D03*
X56020000Y-46260000D03*
X53512500Y-15537500D03*
X34057401Y-20537401D03*
X40362500Y-18737500D03*
X47812500Y-49612500D03*
X39557401Y-49537401D03*
X48057401Y-50037401D03*
X49662500Y-16737500D03*
X44879073Y-50654073D03*
X46487500Y-49537500D03*
X54187500Y-46212500D03*
X57837500Y-45312500D03*
X59587500Y-40312500D03*
X59537500Y-39662500D03*
X30982598Y-22537401D03*
X54862500Y-16037500D03*
X63612500Y-30462500D03*
X42862500Y-17337500D03*
X29912500Y-19087500D03*
X44762500Y-50187500D03*
X54037500Y-15212500D03*
X33887500Y-20037500D03*
%TO.N,VDD_GPU_S0*%
X31262500Y-27362500D03*
X28687500Y-21162500D03*
X44879073Y-48654073D03*
X45412500Y-47212500D03*
X30587500Y-24837500D03*
X55875599Y-23855599D03*
X43887500Y-48462500D03*
D45*
X43380000Y-31050000D03*
D43*
X29787500Y-25062500D03*
D44*
X56687500Y-23887500D03*
X51837500Y-20387500D03*
D45*
X43380000Y-30400000D03*
D43*
X39379073Y-47654073D03*
X48987500Y-46912500D03*
X39057401Y-20037401D03*
X36520000Y-21760000D03*
X50557401Y-47037401D03*
X52520000Y-21760000D03*
X34557401Y-23537401D03*
X39512500Y-47187500D03*
%TO.N,VDD_LOGIC_S0*%
X50557401Y-48537401D03*
X58057401Y-43037401D03*
X38810839Y-18702148D03*
X31737500Y-23787500D03*
D44*
X57212500Y-22962500D03*
D43*
X60379073Y-28654073D03*
X35012500Y-19262500D03*
D44*
X48662500Y-48912500D03*
D43*
X60057401Y-39037401D03*
X56982598Y-23537401D03*
X46562500Y-14887500D03*
X48212500Y-13437500D03*
X59487500Y-25662500D03*
X53379073Y-47654073D03*
X42057401Y-49537401D03*
X53987500Y-21412500D03*
X60462500Y-27612500D03*
X61057401Y-32037401D03*
X55879073Y-21654073D03*
X57212500Y-42562500D03*
X36557401Y-47037401D03*
X38362500Y-17137500D03*
X41587500Y-49387500D03*
D44*
X48512500Y-51637500D03*
D43*
X58982598Y-25462598D03*
D44*
X57037500Y-30037500D03*
D43*
X48262500Y-12937500D03*
X36557401Y-20037401D03*
D44*
X52887500Y-46487500D03*
X45212500Y-51387500D03*
D43*
X59912500Y-28762500D03*
X49912500Y-15137500D03*
D44*
X50412500Y-48062500D03*
D43*
X59612500Y-38837500D03*
X61662500Y-30887500D03*
D44*
X56037500Y-20737500D03*
%TO.N,VDD_NPU_S0*%
X54662500Y-43937500D03*
D43*
X48057401Y-48537401D03*
D44*
X53187500Y-48412500D03*
X52412500Y-48337500D03*
D43*
X34020000Y-22260000D03*
X56729160Y-41702148D03*
X60379073Y-35654073D03*
X52062500Y-17712500D03*
X60337500Y-36162500D03*
X51379073Y-19654073D03*
D44*
X47912500Y-48087500D03*
D43*
X60057401Y-37537401D03*
X54729160Y-43297851D03*
X56712500Y-24337500D03*
%TO.N,WIFI_ANT*%
X4262500Y-15637500D03*
X4712500Y-16337500D03*
%TO.N,WIFI_PD_GPIO*%
X16787500Y-17787500D03*
X28537500Y-18712500D03*
%TO.N,WIFI_USB_DP*%
X43237500Y-6162500D03*
X75112500Y-29362500D03*
X78012500Y-35662500D03*
X54487500Y-9912500D03*
%TD*%
D46*
%TO.N,BUCK_M2_SW*%
X60162500Y-54212500D02*
X60162500Y-55912500D01*
D47*
%TO.N,BUCK_VDD2L_FB*%
X8087500Y-34637500D02*
X8437500Y-34987500D01*
X4387500Y-32912500D02*
X8087500Y-34637500D01*
%TO.N,DCPHY_VREG*%
X38712500Y-15237500D02*
X38712500Y-15887500D01*
D48*
%TO.N,DDR_RESET_L*%
X21287500Y-45162500D02*
X21287500Y-45237500D01*
D47*
%TO.N,DDR_ZQ_A*%
X41837500Y-51637500D02*
X41837500Y-51712500D01*
%TO.N,DDR_ZQ_B*%
X52262500Y-50137500D02*
X52337500Y-50212500D01*
X52087500Y-49312500D02*
X52262500Y-50137500D01*
X51787500Y-49012500D02*
X52087500Y-49312500D01*
%TO.N,EMMC_CMD*%
X67687500Y-20987500D02*
X67762500Y-20987500D01*
%TO.N,EMMC_DAT0*%
X58062500Y-21387500D02*
X58062500Y-21162500D01*
X59437500Y-20462500D02*
X60037500Y-20487500D01*
X63037500Y-19237500D02*
X62437500Y-18637500D01*
X60912500Y-20337500D02*
X61262500Y-19987500D01*
X62437500Y-18637500D02*
X62437500Y-18487500D01*
X60037500Y-20487500D02*
X60737500Y-20462500D01*
X57162500Y-22187500D02*
X57262500Y-22187500D01*
X60887500Y-20337500D02*
X60912500Y-20337500D01*
X56737500Y-22162500D02*
X57162500Y-22187500D01*
X60737500Y-20462500D02*
X60887500Y-20337500D01*
X58062500Y-21162500D02*
X58737500Y-20487500D01*
X63487500Y-19337500D02*
X63037500Y-19237500D01*
X57262500Y-22187500D02*
X58062500Y-21387500D01*
X61262500Y-19987500D02*
X61262500Y-19412500D01*
X62437500Y-19987500D02*
X63487500Y-19637500D01*
X58737500Y-20487500D02*
X59412500Y-20487500D01*
X59412500Y-20487500D02*
X59437500Y-20462500D01*
X56787500Y-22162500D02*
X56937500Y-22162500D01*
%TO.N,EMMC_DAT1*%
X67462500Y-19287500D02*
X67487500Y-19337500D01*
%TO.N,EMMC_DAT2*%
X62087500Y-20812500D02*
X62087500Y-17312500D01*
X50687500Y-26687500D02*
X51562500Y-26062500D01*
X62137500Y-20962500D02*
X63687500Y-22512500D01*
X51762500Y-26062500D02*
X54562500Y-23262500D01*
X54562500Y-22662500D02*
X54712500Y-22512500D01*
X54712500Y-22487500D02*
X55787500Y-22162500D01*
X62087500Y-17312500D02*
X62412500Y-16987500D01*
X63687500Y-22512500D02*
X62087500Y-20812500D01*
X51562500Y-26062500D02*
X51762500Y-26062500D01*
X54562500Y-23262500D02*
X54562500Y-22662500D01*
%TO.N,EMMC_DAT3*%
X67087500Y-21962500D02*
X66812500Y-21687500D01*
X67487500Y-22337500D02*
X67087500Y-21962500D01*
%TO.N,EMMC_DAT4*%
X66087500Y-17837500D02*
X66587500Y-17337500D01*
X66587500Y-17337500D02*
X66637500Y-17337500D01*
%TO.N,EMMC_DAT5*%
X65337500Y-25462500D02*
X65337500Y-26137500D01*
X65762500Y-25612500D02*
X66562500Y-25612500D01*
X66887500Y-24387500D02*
X66887500Y-23937500D01*
X69012500Y-25037500D02*
X69012500Y-24987500D01*
X68062500Y-25987500D02*
X69012500Y-25037500D01*
X66737500Y-23787500D02*
X66212500Y-23787500D01*
X66887500Y-23937500D02*
X66737500Y-23787500D01*
X65337500Y-26137500D02*
X65087500Y-26387500D01*
X66212500Y-23787500D02*
X65987500Y-24012500D01*
X63437500Y-25237500D02*
X64587500Y-25112500D01*
X66562500Y-25612500D02*
X66787500Y-25387500D01*
X64387500Y-25112500D02*
X65762500Y-25612500D01*
X66787500Y-25387500D02*
X66787500Y-24487500D01*
X66787500Y-24487500D02*
X66887500Y-24387500D01*
X65762500Y-24012500D02*
X65762500Y-22787500D01*
%TO.N,EMMC_DAT6*%
X64362500Y-19012500D02*
X63137500Y-19012500D01*
X64512500Y-18862500D02*
X64362500Y-19012500D01*
X63137500Y-19012500D02*
X62987500Y-18862500D01*
X62987500Y-17562500D02*
X63112500Y-17437500D01*
X64712500Y-18312500D02*
X64512500Y-18862500D01*
X62987500Y-18862500D02*
X62987500Y-17562500D01*
%TO.N,EMMC_DAT7*%
X67487500Y-18637500D02*
X66987500Y-19037500D01*
%TO.N,EMMC_DS*%
X69437500Y-18987500D02*
X69437500Y-22012500D01*
X56637500Y-22487500D02*
X56562500Y-22487500D01*
X61612500Y-18687500D02*
X61462500Y-17012500D01*
X61562500Y-22162500D02*
X61612500Y-18687500D01*
X64212500Y-15962500D02*
X64412500Y-15762500D01*
X56562500Y-22487500D02*
X56262500Y-22187500D01*
X69437500Y-22012500D02*
X67687500Y-23762500D01*
X61512500Y-22287500D02*
X56637500Y-22487500D01*
X64412500Y-15762500D02*
X66287500Y-15837500D01*
X64062500Y-16612500D02*
X64212500Y-15962500D01*
X66287500Y-15837500D02*
X69437500Y-18987500D01*
X67287500Y-23737500D02*
X64812500Y-21262500D01*
%TO.N,EMMC_VDDI*%
X65312500Y-20437500D02*
X65312500Y-20737500D01*
%TO.N,ETH_LED_G_A*%
X94812500Y-61137500D02*
X95512500Y-61837500D01*
X92087500Y-47562500D02*
X94812500Y-57512500D01*
X94812500Y-57512500D02*
X94812500Y-61137500D01*
%TO.N,ETH_MDC*%
X47012500Y-28912500D02*
X47012500Y-32337500D01*
X47012500Y-32337500D02*
X47662500Y-32987500D01*
X46487500Y-28387500D02*
X47012500Y-28912500D01*
X45762500Y-27412500D02*
X45762500Y-26112500D01*
X48312500Y-36237500D02*
X48312500Y-38562500D01*
X47662500Y-32987500D02*
X47662500Y-35587500D01*
X41387500Y-23287500D02*
X43887500Y-23837500D01*
X47662500Y-35587500D02*
X48312500Y-36237500D01*
X46487500Y-28362500D02*
X45762500Y-27412500D01*
%TO.N,ETH_MDI0_P*%
X70512500Y-63387500D02*
X70862500Y-63637500D01*
X81287500Y-60637500D02*
X83837500Y-60637500D01*
X78312500Y-63612500D02*
X81287500Y-60637500D01*
X70862500Y-63637500D02*
X78312500Y-63612500D01*
%TO.N,ETH_MDI1_N*%
X70137500Y-63537500D02*
X70987500Y-64387500D01*
X72162500Y-62512500D02*
X70487500Y-62562500D01*
X75512500Y-62137500D02*
X81062500Y-56487500D01*
X74012500Y-62662500D02*
X72162500Y-62512500D01*
X70137500Y-62912500D02*
X70137500Y-63537500D01*
X81062500Y-56487500D02*
X81137500Y-55312500D01*
X70487500Y-62562500D02*
X70137500Y-62912500D01*
X81137500Y-55312500D02*
X81712500Y-54737500D01*
X74137500Y-62137500D02*
X74112500Y-62762500D01*
X74137500Y-62137500D02*
X75512500Y-62137500D01*
%TO.N,ETH_MDI2_N*%
X81437500Y-58387500D02*
X79437500Y-60387500D01*
X82437500Y-57537500D02*
X84062500Y-55912500D01*
X82437500Y-57537500D02*
X81437500Y-58387500D01*
%TO.N,ETH_MDI3_N*%
X77637500Y-61037500D02*
X81062500Y-57612500D01*
X75437500Y-62487500D02*
X77637500Y-61037500D01*
%TO.N,ETH_MDIO*%
X45937500Y-28312500D02*
X46087500Y-28312500D01*
X48037500Y-41512500D02*
X47887500Y-42037500D01*
X51812500Y-50512500D02*
X52037500Y-50762500D01*
X46362500Y-41612500D02*
X47412500Y-42662500D01*
X43787500Y-25012500D02*
X43812500Y-25037500D01*
X43637500Y-24862500D02*
X43787500Y-25012500D01*
X43812500Y-25037500D02*
X44012500Y-25037500D01*
X43462500Y-24612500D02*
X43637500Y-24862500D01*
X47887500Y-42037500D02*
X47412500Y-42512500D01*
X64037500Y-62712500D02*
X64212500Y-62712500D01*
X52037500Y-50762500D02*
X52037500Y-50812500D01*
X52037500Y-50812500D02*
X64037500Y-62712500D01*
X44712500Y-27087500D02*
X45937500Y-28312500D01*
X44687500Y-25712500D02*
X44712500Y-27087500D01*
X44012500Y-25037500D02*
X44687500Y-25712500D01*
%TO.N,GND*%
X55212500Y-28537500D02*
X55237500Y-27762500D01*
D46*
X60010000Y-20000000D02*
X60780000Y-20000000D01*
D47*
X63762500Y-31737500D02*
X63487500Y-32337500D01*
D46*
X54980000Y-19000000D02*
X55270839Y-19702148D01*
X39980000Y-21000000D02*
X40740000Y-21000000D01*
D47*
X48462500Y-21587500D02*
X48462500Y-22237500D01*
D46*
X61275000Y-28000000D02*
X62200000Y-28000000D01*
X61275000Y-35000000D02*
X61275000Y-35925000D01*
X42480000Y-49000000D02*
X43240000Y-49000000D01*
D47*
X55762500Y-36012500D02*
X55662500Y-36237500D01*
D46*
X25480000Y-42500000D02*
X26240000Y-42500000D01*
X59480000Y-21500000D02*
X60240000Y-21500000D01*
X36980000Y-18000000D02*
X37740000Y-18000000D01*
X80275000Y-44000000D02*
X81200000Y-44000000D01*
X61480000Y-33000000D02*
X62240000Y-33000000D01*
X50980000Y-22500000D02*
X51740000Y-22500000D01*
X53480000Y-45000000D02*
X54182148Y-45290839D01*
X50980000Y-51000000D02*
X51740000Y-51000000D01*
X16980000Y-29000000D02*
X17740000Y-29000000D01*
X57980000Y-24500000D02*
X58270839Y-25202148D01*
X78980000Y-46000000D02*
X79740000Y-46000000D01*
X16980000Y-27500000D02*
X17740000Y-27500000D01*
X35480000Y-35000000D02*
X36240000Y-35000000D01*
X56980000Y-45500000D02*
X57658822Y-46178822D01*
X60480000Y-24500000D02*
X61240000Y-24500000D01*
D47*
X25637500Y-23237500D02*
X25637500Y-22612500D01*
D46*
X32000000Y-44000000D02*
X34450000Y-44000000D01*
D47*
X55687500Y-29212500D02*
X56137500Y-29337500D01*
D46*
X53480000Y-49000000D02*
X54240000Y-49000000D01*
X8480000Y-37000000D02*
X8480000Y-37760000D01*
X52775000Y-17000000D02*
X52775000Y-17925000D01*
X51510000Y-15000000D02*
X52280000Y-15000000D01*
D47*
X25612500Y-22237500D02*
X25612500Y-22362500D01*
D46*
X58480000Y-44000000D02*
X58770839Y-44702148D01*
X50980000Y-21000000D02*
X51740000Y-21000000D01*
X60980000Y-23000000D02*
X61740000Y-23000000D01*
X45480000Y-19000000D02*
X46240000Y-19000000D01*
X56980000Y-47000000D02*
X56689160Y-47702148D01*
X39980000Y-50500000D02*
X40740000Y-50500000D01*
D47*
X48262500Y-22737500D02*
X48037500Y-23262500D01*
D46*
X14480000Y-37000000D02*
X15240000Y-37000000D01*
X58480000Y-42500000D02*
X59240000Y-42500000D01*
X50980000Y-48000000D02*
X51740000Y-48000000D01*
X28480000Y-44000000D02*
X29240000Y-44000000D01*
X16980000Y-40000000D02*
X17740000Y-40000000D01*
X13480000Y-31500000D02*
X14240000Y-31500000D01*
X11980000Y-40000000D02*
X12740000Y-40000000D01*
X16980000Y-37000000D02*
X17740000Y-37000000D01*
X43010000Y-52000000D02*
X43780000Y-52000000D01*
X31980000Y-20500000D02*
X32740000Y-20500000D01*
X45775000Y-48000000D02*
X46700000Y-48000000D01*
X53480000Y-43500000D02*
X54240000Y-43500000D01*
D47*
X49162500Y-18662500D02*
X49212500Y-18637500D01*
X58187500Y-27712500D02*
X58487500Y-27987500D01*
D46*
X57980000Y-29000000D02*
X57442598Y-29537401D01*
X63980000Y-33000000D02*
X63442598Y-32462598D01*
X9137500Y-40000000D02*
X8109684Y-40425735D01*
X36980000Y-16500000D02*
X36442598Y-15962598D01*
X16950000Y-45705000D02*
X18000000Y-45705000D01*
D47*
X25612500Y-22362500D02*
X25637500Y-22362500D01*
X32612500Y-23237500D02*
X32612500Y-23112500D01*
D46*
X1850000Y-43355000D02*
X3250000Y-43355000D01*
X35480000Y-29000000D02*
X36240000Y-29000000D01*
X11980000Y-38500000D02*
X12740000Y-38500000D01*
X34510000Y-49000000D02*
X35280000Y-49000000D01*
X69275000Y-46000000D02*
X70200000Y-46000000D01*
D47*
X35687500Y-26212500D02*
X35737500Y-26237500D01*
X35687500Y-24462500D02*
X35887500Y-24462500D01*
D46*
X37980000Y-43500000D02*
X38740000Y-43500000D01*
X35480000Y-39500000D02*
X36240000Y-39500000D01*
X55980000Y-23000000D02*
X56740000Y-23000000D01*
X45480000Y-20500000D02*
X46240000Y-20500000D01*
D47*
X60262500Y-26237500D02*
X59787500Y-26712500D01*
D46*
X56275000Y-31000000D02*
X57200000Y-31000000D01*
X25775000Y-44500000D02*
X26700000Y-44500000D01*
D47*
X45387500Y-22837500D02*
X45362500Y-22862500D01*
D46*
X14480000Y-27000000D02*
X15240000Y-27000000D01*
X52275000Y-19000000D02*
X52929073Y-19654073D01*
D47*
X34762500Y-22737500D02*
X34737500Y-22312500D01*
D46*
X32010000Y-19000000D02*
X32780000Y-19000000D01*
X13480000Y-33000000D02*
X14240000Y-33000000D01*
X60480000Y-40000000D02*
X61240000Y-40000000D01*
D47*
X40187500Y-22262500D02*
X40237500Y-22237500D01*
D46*
X39480000Y-16500000D02*
X40240000Y-16500000D01*
X16950000Y-52755000D02*
X18000000Y-52755000D01*
D47*
X35237500Y-36512500D02*
X35162500Y-36512500D01*
X32687500Y-21962500D02*
X33137500Y-21962500D01*
D46*
X42480000Y-50500000D02*
X43240000Y-50500000D01*
X27980000Y-42500000D02*
X28740000Y-42500000D01*
X55480000Y-17500000D02*
X56017401Y-18037401D01*
X55980000Y-42500000D02*
X56740000Y-42500000D01*
D47*
X74787500Y-42137500D02*
X74562500Y-42137500D01*
X55687500Y-34762500D02*
X55737500Y-34737500D01*
D46*
X57980000Y-41000000D02*
X58740000Y-41000000D01*
X37980000Y-45000000D02*
X38740000Y-45000000D01*
X55480000Y-38000000D02*
X56240000Y-38000000D01*
X48480000Y-43500000D02*
X49240000Y-43500000D01*
X75350000Y-34750000D02*
X75751817Y-35720073D01*
X37480000Y-21000000D02*
X38240000Y-21000000D01*
X62980000Y-37000000D02*
X63740000Y-37000000D01*
D47*
X18187500Y-23212500D02*
X18612500Y-23612500D01*
D46*
X4980000Y-40000000D02*
X5517401Y-40537401D01*
X60480000Y-38500000D02*
X61240000Y-38500000D01*
D47*
X64187500Y-34512500D02*
X64412500Y-34512500D01*
D46*
X36980000Y-46500000D02*
X37740000Y-46500000D01*
X55480000Y-26000000D02*
X56240000Y-26000000D01*
D47*
X66687500Y-21212500D02*
X67162500Y-21212500D01*
X60612500Y-29737500D02*
X60612500Y-29612500D01*
D46*
X53510000Y-50500000D02*
X54280000Y-50500000D01*
X13480000Y-34500000D02*
X14240000Y-34500000D01*
X16775000Y-35000000D02*
X17700000Y-35000000D01*
D47*
X55262500Y-28737500D02*
X55212500Y-28537500D01*
D46*
X20480000Y-23500000D02*
X21240000Y-23500000D01*
X27980000Y-22000000D02*
X28740000Y-22000000D01*
D47*
X55262500Y-39737500D02*
X55237500Y-39787500D01*
X42737500Y-18562500D02*
X42737500Y-18137500D01*
D46*
X50980000Y-49500000D02*
X51740000Y-49500000D01*
X42480000Y-21000000D02*
X43017401Y-21537401D01*
X14275000Y-29000000D02*
X15200000Y-29000000D01*
X40275000Y-47000000D02*
X41200000Y-47000000D01*
D47*
X35687500Y-27712500D02*
X35737500Y-27737500D01*
X64137500Y-21237500D02*
X64137500Y-21312500D01*
X57762500Y-36737500D02*
X57737500Y-36787500D01*
X17162500Y-25737500D02*
X17187500Y-25312500D01*
D46*
X56775000Y-21000000D02*
X57128982Y-21854588D01*
D47*
X63137500Y-24212500D02*
X63212500Y-23812500D01*
D46*
X22480000Y-44000000D02*
X23240000Y-44000000D01*
X60980000Y-41500000D02*
X61740000Y-41500000D01*
X34480000Y-18500000D02*
X35440000Y-18500000D01*
D47*
X23162500Y-20737500D02*
X23187500Y-20787500D01*
X67462500Y-24912500D02*
X68287500Y-24212500D01*
X35887500Y-24462500D02*
X36212500Y-24787500D01*
D46*
X22510000Y-45500000D02*
X23280000Y-45500000D01*
X55480000Y-41000000D02*
X56240000Y-41000000D01*
X48480000Y-46500000D02*
X49240000Y-46500000D01*
X57980000Y-39500000D02*
X58740000Y-39500000D01*
D47*
X69637500Y-23287500D02*
X68712500Y-23762500D01*
X42662500Y-22237500D02*
X42937500Y-21637500D01*
D46*
X57980000Y-26000000D02*
X58740000Y-26000000D01*
X40480000Y-43500000D02*
X41182148Y-43790839D01*
D47*
X37237500Y-22262500D02*
X37187500Y-22237500D01*
D46*
X78980000Y-41000000D02*
X79270839Y-41702148D01*
X37480000Y-49500000D02*
X38240000Y-49500000D01*
X50980000Y-45000000D02*
X51740000Y-45000000D01*
X57480000Y-19000000D02*
X58240000Y-19000000D01*
X60980000Y-43000000D02*
X61740000Y-43000000D01*
X55480000Y-24500000D02*
X56240000Y-24500000D01*
X2300000Y-56855000D02*
X4150000Y-56855000D01*
X22980000Y-22000000D02*
X22442598Y-22537401D01*
X48480000Y-21000000D02*
X48770839Y-21702148D01*
X39980000Y-49000000D02*
X40740000Y-49000000D01*
X75350000Y-35750000D02*
X74300000Y-35750000D01*
X75350000Y-49750000D02*
X76400000Y-49750000D01*
D47*
X74487500Y-46387500D02*
X74487500Y-46137500D01*
D46*
X35275000Y-31000000D02*
X36200000Y-31000000D01*
X50980000Y-46500000D02*
X51740000Y-46500000D01*
X61480000Y-31500000D02*
X62240000Y-31500000D01*
X57980000Y-38000000D02*
X58740000Y-38000000D01*
X45775000Y-50000000D02*
X46700000Y-50000000D01*
X20480000Y-42500000D02*
X21240000Y-42500000D01*
X6450000Y-56855000D02*
X7400000Y-56855000D01*
X14480000Y-38500000D02*
X15240000Y-38500000D01*
X34510000Y-17000000D02*
X35480000Y-17000000D01*
X44000000Y-44000000D02*
X46450000Y-44000000D01*
X62980000Y-26000000D02*
X63740000Y-26000000D01*
D47*
X59212500Y-33812500D02*
X59412500Y-34012500D01*
X35687500Y-24712500D02*
X35737500Y-24737500D01*
D46*
X19980000Y-44000000D02*
X20740000Y-44000000D01*
X54275000Y-47000000D02*
X55200000Y-47000000D01*
X75350000Y-39250000D02*
X76400000Y-39250000D01*
X62980000Y-40000000D02*
X63740000Y-40000000D01*
X40480000Y-45000000D02*
X41240000Y-45000000D01*
D47*
X23187500Y-23712500D02*
X23612500Y-24162500D01*
D46*
X69275000Y-41000000D02*
X70200000Y-41000000D01*
D47*
X74962500Y-53137500D02*
X74962500Y-52837500D01*
D46*
X34775000Y-33000000D02*
X35700000Y-33000000D01*
X39480000Y-18000000D02*
X40240000Y-18000000D01*
X16980000Y-38500000D02*
X17740000Y-38500000D01*
D47*
X55762500Y-43737500D02*
X55737500Y-43687500D01*
D46*
X20480000Y-22000000D02*
X21240000Y-22000000D01*
X16775000Y-33000000D02*
X17700000Y-33000000D01*
X48480000Y-48000000D02*
X49240000Y-48000000D01*
D47*
X74662500Y-46562500D02*
X74487500Y-46387500D01*
X59162500Y-33237500D02*
X59212500Y-33812500D01*
D46*
X62980000Y-30000000D02*
X63740000Y-30000000D01*
D47*
X25637500Y-22362500D02*
X25662500Y-22362500D01*
X74787500Y-46637500D02*
X74662500Y-46562500D01*
D46*
X58480000Y-23000000D02*
X59240000Y-23000000D01*
X75350000Y-40750000D02*
X76400000Y-40750000D01*
D47*
X35237500Y-38212500D02*
X35187500Y-38237500D01*
D46*
X16980000Y-24500000D02*
X17270839Y-25202148D01*
X50980000Y-43500000D02*
X51740000Y-43500000D01*
X55480000Y-27500000D02*
X56240000Y-27500000D01*
X34480000Y-47500000D02*
X35240000Y-47500000D01*
X25480000Y-20500000D02*
X26240000Y-20500000D01*
X48480000Y-45000000D02*
X49240000Y-45000000D01*
X22980000Y-42500000D02*
X23740000Y-42500000D01*
X29980000Y-23500000D02*
X30682148Y-23790839D01*
X34980000Y-21500000D02*
X34689160Y-22202148D01*
D47*
X65837500Y-17212500D02*
X65312500Y-17712500D01*
D46*
X34480000Y-20000000D02*
X35240000Y-20000000D01*
X39480000Y-15000000D02*
X40240000Y-15000000D01*
X48480000Y-49500000D02*
X49240000Y-49500000D01*
X39480000Y-19500000D02*
X40240000Y-19500000D01*
X12650000Y-56855000D02*
X13392462Y-57597462D01*
X79010000Y-39500000D02*
X79780000Y-39500000D01*
X75350000Y-51250000D02*
X76400000Y-51250000D01*
X75350000Y-48250000D02*
X76400000Y-48250000D01*
D47*
X55962500Y-33412500D02*
X55887500Y-34137500D01*
D46*
X62980000Y-38500000D02*
X63740000Y-38500000D01*
X5775000Y-37000000D02*
X5421017Y-37854588D01*
X75350000Y-45250000D02*
X76400000Y-45250000D01*
D47*
X48587500Y-21462500D02*
X48462500Y-21587500D01*
D46*
X48480000Y-51000000D02*
X49240000Y-51000000D01*
X58980000Y-31500000D02*
X59740000Y-31500000D01*
D47*
X55237500Y-27762500D02*
X55262500Y-27737500D01*
D46*
X69275000Y-44000000D02*
X70200000Y-44000000D01*
X36980000Y-48000000D02*
X37740000Y-48000000D01*
X75350000Y-43750000D02*
X76400000Y-43750000D01*
X16775000Y-31000000D02*
X17700000Y-31000000D01*
D47*
%TO.N,HDMI_D0N_C*%
X41362500Y-60037500D02*
X36862500Y-60162500D01*
X46862500Y-54612500D02*
X41362500Y-60037500D01*
X46687500Y-54187500D02*
X47087500Y-54587500D01*
X47812500Y-54537500D02*
X46862500Y-54612500D01*
X45012500Y-54187500D02*
X46687500Y-54187500D01*
X36862500Y-60162500D02*
X34562500Y-62462500D01*
%TO.N,HDMI_D1N_C*%
X51812500Y-55962500D02*
X51012500Y-54187500D01*
%TO.N,HDMI_D2P_C*%
X51412500Y-53887500D02*
X51137500Y-53812500D01*
X51137500Y-53812500D02*
X49037500Y-53887500D01*
X49037500Y-53887500D02*
X43087500Y-59837500D01*
%TO.N,HDMI_D2_TERM*%
X53062500Y-25862500D02*
X53062500Y-25537500D01*
X52962500Y-26687500D02*
X52912500Y-26637500D01*
X52912500Y-26637500D02*
X52912500Y-26012500D01*
X54262500Y-29487500D02*
X54062500Y-29462500D01*
X52912500Y-26012500D02*
X53062500Y-25862500D01*
X54062500Y-29462500D02*
X52962500Y-28362500D01*
X52962500Y-28362500D02*
X52962500Y-26687500D01*
X55487500Y-30712500D02*
X54262500Y-29487500D01*
%TO.N,HDMI_HPD*%
X58237500Y-20662500D02*
X57512500Y-20662500D01*
X58762500Y-20212500D02*
X58637500Y-20262500D01*
X58637500Y-20262500D02*
X58237500Y-20662500D01*
%TO.N,HDMI_SCL_5V*%
X31812500Y-59537500D02*
X34187500Y-57162500D01*
%TO.N,HDMI_SDA*%
X38137500Y-42712500D02*
X38137500Y-40487500D01*
X38137500Y-40487500D02*
X38362500Y-40262500D01*
%TO.N,HDMI_TX_D2P*%
X52237500Y-53537500D02*
X53912500Y-53937500D01*
%TO.N,HDMI_TX_REXT*%
X61687500Y-24712500D02*
X61762500Y-24712500D01*
%TO.N,HUB_OVC_L*%
X70387500Y-13262500D02*
X69462500Y-5737500D01*
%TO.N,HUB_UP_DM*%
X59087500Y-39637500D02*
X59062500Y-38162500D01*
X49087500Y-39862500D02*
X54112500Y-39862500D01*
X59362500Y-37862500D02*
X63362500Y-37862500D01*
X48287500Y-39162500D02*
X49087500Y-39862500D01*
X54612500Y-40362500D02*
X58362500Y-40362500D01*
X58362500Y-40362500D02*
X59087500Y-39637500D01*
X59062500Y-38162500D02*
X59362500Y-37862500D01*
X63362500Y-37862500D02*
X70687500Y-30537500D01*
X54112500Y-39862500D02*
X54612500Y-40362500D01*
%TO.N,LED_SYS_A*%
X51062500Y-52687500D02*
X51987500Y-51762500D01*
X34237500Y-52712500D02*
X51062500Y-52687500D01*
X26487500Y-53212500D02*
X33737500Y-53212500D01*
X54287500Y-49462500D02*
X54762500Y-49212500D01*
X33737500Y-53212500D02*
X34237500Y-52712500D01*
%TO.N,LED_SYS_L*%
X29812500Y-51212500D02*
X35187500Y-50112500D01*
X35187500Y-50112500D02*
X35912500Y-50112500D01*
D48*
%TO.N,LP5_A1_B*%
X31287500Y-33887500D02*
X32887500Y-32287500D01*
X35937500Y-31837500D02*
X37187500Y-30612500D01*
X29962500Y-34662500D02*
X30662500Y-33962500D01*
X32887500Y-32287500D02*
X35937500Y-31837500D01*
X30662500Y-33962500D02*
X31287500Y-33887500D01*
X27812500Y-34712500D02*
X29962500Y-34662500D01*
X37187500Y-30612500D02*
X37712500Y-30612500D01*
%TO.N,LP5_A2_A*%
X35787500Y-35462500D02*
X36962500Y-35462500D01*
X33812500Y-35862500D02*
X35437500Y-35812500D01*
X30337500Y-34737500D02*
X31737500Y-35637500D01*
X35437500Y-35812500D02*
X35787500Y-35462500D01*
X33112500Y-35537500D02*
X33812500Y-35862500D01*
%TO.N,LP5_A4_A*%
X39937500Y-31762500D02*
X39937500Y-32087500D01*
X37212500Y-29987500D02*
X37412500Y-29987500D01*
X38487500Y-30312500D02*
X38737500Y-30562500D01*
X38962500Y-30937500D02*
X39112500Y-30937500D01*
X39112500Y-30937500D02*
X39937500Y-31762500D01*
X37412500Y-29987500D02*
X37737500Y-30312500D01*
X39937500Y-32087500D02*
X40162500Y-32312500D01*
X37737500Y-30312500D02*
X38487500Y-30312500D01*
X38737500Y-30562500D02*
X38737500Y-30712500D01*
X36637500Y-29412500D02*
X37212500Y-29987500D01*
X38737500Y-30712500D02*
X38962500Y-30937500D01*
%TO.N,LP5_A6_A*%
X32512500Y-33987500D02*
X32812500Y-34287500D01*
X32237500Y-33562500D02*
X32512500Y-33987500D01*
X32812500Y-34287500D02*
X36537500Y-34287500D01*
X36887500Y-33937500D02*
X39887500Y-33937500D01*
X39887500Y-33937500D02*
X40112500Y-34162500D01*
X36537500Y-34287500D02*
X36887500Y-33937500D01*
%TO.N,LP5_CLKN_B*%
X36162500Y-33012500D02*
X37262500Y-31412500D01*
%TO.N,LP5_CSN1_A*%
X34712500Y-25387500D02*
X36187500Y-25562500D01*
X36512500Y-25887500D02*
X36512500Y-26362500D01*
X36812500Y-26662500D02*
X39337500Y-26662500D01*
X39337500Y-26662500D02*
X39412500Y-26587500D01*
X36187500Y-25562500D02*
X36512500Y-25887500D01*
X36512500Y-26362500D02*
X36812500Y-26662500D01*
%TO.N,LP5_DMI0_A*%
X39262500Y-37087500D02*
X39037500Y-36862500D01*
X39637500Y-37462500D02*
X39487500Y-37462500D01*
X38662500Y-36637500D02*
X38662500Y-36487500D01*
X38887500Y-36862500D02*
X38662500Y-36637500D01*
X40462500Y-38437500D02*
X40462500Y-38287500D01*
X38437500Y-36262500D02*
X38112500Y-36262500D01*
X38112500Y-36262500D02*
X37862500Y-36012500D01*
X39037500Y-36862500D02*
X38887500Y-36862500D01*
X40687500Y-38662500D02*
X40462500Y-38437500D01*
X39487500Y-37462500D02*
X39262500Y-37237500D01*
X40087500Y-38062500D02*
X39862500Y-37837500D01*
X39862500Y-37687500D02*
X39637500Y-37462500D01*
X40237500Y-38062500D02*
X40087500Y-38062500D01*
X39262500Y-37237500D02*
X39262500Y-37087500D01*
X41787500Y-38487500D02*
X40862500Y-38662500D01*
X38662500Y-36487500D02*
X38437500Y-36262500D01*
X39862500Y-37837500D02*
X39862500Y-37687500D01*
X40862500Y-38662500D02*
X40687500Y-38662500D01*
X40462500Y-38287500D02*
X40237500Y-38062500D01*
%TO.N,LP5_DMI0_B*%
X39387500Y-39862500D02*
X39887500Y-39362500D01*
X31562500Y-39862500D02*
X33987500Y-40112500D01*
X36012500Y-40137500D02*
X35987500Y-40137500D01*
X28887500Y-39737500D02*
X34512500Y-39962500D01*
X28887500Y-39737500D02*
X31562500Y-39862500D01*
X37137500Y-39937500D02*
X37212500Y-39862500D01*
X36012500Y-40137500D02*
X35987500Y-40137500D01*
X31562500Y-39862500D02*
X33987500Y-40112500D01*
X37212500Y-39862500D02*
X39387500Y-39862500D01*
X33512500Y-40037500D02*
X33987500Y-40112500D01*
X33512500Y-40037500D02*
X33987500Y-40112500D01*
X36012500Y-40137500D02*
X37137500Y-39912500D01*
X28287500Y-39962500D02*
X28887500Y-39737500D01*
X36012500Y-40137500D02*
X36012500Y-40162500D01*
X32737500Y-39912500D02*
X33987500Y-40112500D01*
%TO.N,LP5_DMI1_A*%
X27462500Y-37637500D02*
X33462500Y-37637500D01*
X26337500Y-27287500D02*
X26337500Y-36612500D01*
X26837500Y-26837500D02*
X26537500Y-27137500D01*
X26787500Y-36962500D02*
X27462500Y-37637500D01*
X26837500Y-26812500D02*
X26837500Y-26837500D01*
X33462500Y-37637500D02*
X33662500Y-37837500D01*
X26337500Y-36612500D02*
X26637500Y-36912500D01*
X26487500Y-27137500D02*
X26337500Y-27287500D01*
X26637500Y-36912500D02*
X26787500Y-36962500D01*
X28087500Y-26012500D02*
X27262500Y-26387500D01*
X26537500Y-27137500D02*
X26487500Y-27137500D01*
X27262500Y-26387500D02*
X26837500Y-26812500D01*
%TO.N,LP5_DQ10_B*%
X36862500Y-25362500D02*
X37187500Y-25562500D01*
X37187500Y-25562500D02*
X37512500Y-25562500D01*
X37512500Y-25562500D02*
X37762500Y-25312500D01*
%TO.N,LP5_DQ12_A*%
X33162500Y-36937500D02*
X33387500Y-37162500D01*
X27362500Y-26787500D02*
X26912500Y-27762500D01*
X26912500Y-27762500D02*
X26912500Y-36462500D01*
X27387500Y-36937500D02*
X33162500Y-36937500D01*
X26912500Y-36462500D02*
X27387500Y-36937500D01*
%TO.N,LP5_DQ15_A*%
X31487500Y-34387500D02*
X34312500Y-37212500D01*
X37162500Y-37212500D02*
X37712500Y-37762500D01*
X34312500Y-37212500D02*
X37162500Y-37212500D01*
%TO.N,LP5_DQ15_B*%
X37212500Y-24312500D02*
X36387500Y-24312500D01*
%TO.N,LP5_DQ5_A*%
X23712500Y-34287500D02*
X24262500Y-34837500D01*
X25537500Y-37312500D02*
X25837500Y-37612500D01*
X24737500Y-35262500D02*
X24737500Y-35912500D01*
X27462500Y-39037500D02*
X31737500Y-39037500D01*
X24737500Y-35912500D02*
X25037500Y-36212500D01*
X22337500Y-28687500D02*
X22337500Y-30312500D01*
X24312500Y-34837500D02*
X24737500Y-35262500D01*
X25837500Y-37612500D02*
X25987500Y-37662500D01*
X22637500Y-30612500D02*
X22712500Y-30637500D01*
X22337500Y-30312500D02*
X22637500Y-30612500D01*
X23362500Y-27487500D02*
X22887500Y-28187500D01*
X26762500Y-38337500D02*
X27462500Y-39037500D01*
X25987500Y-37662500D02*
X26662500Y-38337500D01*
X31737500Y-39037500D02*
X31912500Y-39212500D01*
X25112500Y-36237500D02*
X25537500Y-36662500D01*
X22487500Y-28537500D02*
X22337500Y-28687500D01*
X23712500Y-31637500D02*
X23712500Y-34287500D01*
X22537500Y-28537500D02*
X22487500Y-28537500D01*
X25037500Y-36212500D02*
X25112500Y-36237500D01*
X26662500Y-38337500D02*
X26762500Y-38337500D01*
X25537500Y-36662500D02*
X25537500Y-37312500D01*
X24262500Y-34837500D02*
X24312500Y-34837500D01*
X22712500Y-30637500D02*
X23712500Y-31637500D01*
X22887500Y-28187500D02*
X22537500Y-28537500D01*
%TO.N,LP5_DQ6_A*%
X26762500Y-37637500D02*
X27462500Y-38337500D01*
X24312500Y-33437500D02*
X24737500Y-33862500D01*
X37837500Y-36862500D02*
X37362500Y-36862500D01*
X38087500Y-37112500D02*
X37837500Y-36862500D01*
X37912500Y-38687500D02*
X38087500Y-38512500D01*
X33812500Y-38862500D02*
X36062500Y-38787500D01*
X23412500Y-28887500D02*
X23937500Y-29887500D01*
X23937500Y-33112500D02*
X24262500Y-33437500D01*
X36137500Y-38712500D02*
X37512500Y-38762500D01*
X37512500Y-38762500D02*
X37912500Y-38687500D01*
X25537500Y-35262500D02*
X25537500Y-35912500D01*
X38087500Y-38512500D02*
X38087500Y-37112500D01*
X24737500Y-34512500D02*
X25062500Y-34837500D01*
X33287500Y-38337500D02*
X33812500Y-38862500D01*
X36062500Y-38787500D02*
X36137500Y-38712500D01*
X23937500Y-29887500D02*
X23937500Y-33112500D01*
X25862500Y-36237500D02*
X25912500Y-36237500D01*
X25912500Y-36237500D02*
X26112500Y-36437500D01*
X24262500Y-33437500D02*
X24312500Y-33437500D01*
X26112500Y-36437500D02*
X26137500Y-37112500D01*
X26137500Y-37112500D02*
X26662500Y-37637500D01*
X25062500Y-34837500D02*
X25112500Y-34837500D01*
X25112500Y-34837500D02*
X25537500Y-35262500D01*
X27462500Y-38337500D02*
X33287500Y-38337500D01*
X24737500Y-33862500D02*
X24737500Y-34512500D01*
X25537500Y-35912500D02*
X25862500Y-36237500D01*
X26662500Y-37637500D02*
X26762500Y-37637500D01*
%TO.N,LP5_DQ6_B*%
X29537500Y-32887500D02*
X29862500Y-32562500D01*
X36412500Y-25312500D02*
X36712500Y-25012500D01*
X36712500Y-25012500D02*
X36787500Y-25012500D01*
X32387500Y-27337500D02*
X33162500Y-26512500D01*
X33162500Y-26512500D02*
X33437500Y-26237500D01*
X29862500Y-32562500D02*
X29962500Y-32562500D01*
X39162500Y-25012500D02*
X39412500Y-24762500D01*
X29312500Y-33337500D02*
X29537500Y-32887500D01*
X30662500Y-31862500D02*
X30887500Y-31837500D01*
X34212500Y-24012500D02*
X36037500Y-24012500D01*
X34212500Y-24012500D02*
X35787500Y-24012500D01*
X30887500Y-31837500D02*
X32387500Y-30337500D01*
X36787500Y-25012500D02*
X39162500Y-25012500D01*
X33437500Y-24787500D02*
X34212500Y-24012500D01*
X29962500Y-32562500D02*
X30662500Y-31862500D01*
X33437500Y-26237500D02*
X33437500Y-24787500D01*
%TO.N,LP5_DQ7_B*%
X29862500Y-31862500D02*
X29962500Y-31862500D01*
X29962500Y-31862500D02*
X30612500Y-31212500D01*
X30612500Y-31212500D02*
X31037500Y-31187500D01*
X27137500Y-34287500D02*
X27437500Y-33987500D01*
X28262500Y-33262500D02*
X28362500Y-33262500D01*
X27437500Y-33987500D02*
X27587500Y-33937500D01*
X33937500Y-28287500D02*
X36987500Y-28287500D01*
X36987500Y-28287500D02*
X37212500Y-28062500D01*
X31037500Y-31187500D02*
X33937500Y-28287500D01*
X29162500Y-32562500D02*
X29862500Y-31862500D01*
X27137500Y-35912500D02*
X27137500Y-34287500D01*
X27362500Y-36387500D02*
X27137500Y-35912500D01*
X29062500Y-32562500D02*
X29162500Y-32562500D01*
X27587500Y-33937500D02*
X28262500Y-33262500D01*
X28362500Y-33262500D02*
X29062500Y-32562500D01*
%TO.N,LP5_DQ9_A*%
X37587500Y-38237500D02*
X37712500Y-38362500D01*
X28687500Y-28737500D02*
X28687500Y-31937500D01*
X29762500Y-27487500D02*
X29287500Y-28187500D01*
X35837500Y-37512500D02*
X36562500Y-38237500D01*
X28937500Y-28537500D02*
X28887500Y-28537500D01*
X31037500Y-34587500D02*
X34287500Y-37512500D01*
X29287500Y-28187500D02*
X28937500Y-28537500D01*
X36562500Y-38237500D02*
X37587500Y-38237500D01*
X28887500Y-28537500D02*
X28687500Y-28737500D01*
X34287500Y-37512500D02*
X35837500Y-37512500D01*
%TO.N,LP5_RDQS0N_B*%
X30712500Y-33262500D02*
X32037500Y-31912500D01*
X29437500Y-34062500D02*
X29962500Y-33962500D01*
X32037500Y-31912500D02*
X32037500Y-31612500D01*
X34062500Y-28662500D02*
X34212500Y-28512500D01*
X34062500Y-29587500D02*
X34062500Y-28662500D01*
X30662500Y-33262500D02*
X30712500Y-33262500D01*
X36837500Y-28512500D02*
X37187500Y-28862500D01*
X34212500Y-28512500D02*
X36837500Y-28512500D01*
X32037500Y-31612500D02*
X34062500Y-29587500D01*
X29962500Y-33962500D02*
X30662500Y-33262500D01*
X37662500Y-28862500D02*
X37712500Y-28812500D01*
X37187500Y-28862500D02*
X37662500Y-28862500D01*
%TO.N,LP5_RDQS0P_A*%
X37412500Y-35712500D02*
X37712500Y-35412500D01*
X36737500Y-35862500D02*
X37412500Y-35712500D01*
%TO.N,LP5_WCK0N_A*%
X40262500Y-36887500D02*
X40087500Y-36862500D01*
X39462500Y-24312500D02*
X41712500Y-26562500D01*
X41712500Y-26562500D02*
X41712500Y-37662500D01*
X40087500Y-36862500D02*
X39887500Y-36662500D01*
X40912500Y-38087500D02*
X40687500Y-38087500D01*
X41037500Y-37962500D02*
X40912500Y-38087500D01*
X41437500Y-37937500D02*
X41037500Y-37962500D01*
X41712500Y-37662500D02*
X41437500Y-37937500D01*
X39887500Y-36662500D02*
X39837500Y-36287500D01*
X35887500Y-23462500D02*
X39462500Y-24312500D01*
X39837500Y-36287500D02*
X39612500Y-36062500D01*
X40687500Y-38087500D02*
X40462500Y-37862500D01*
X40462500Y-37862500D02*
X40462500Y-37087500D01*
X40462500Y-37087500D02*
X40262500Y-36887500D01*
%TO.N,LP5_WCK0P_A*%
X42112500Y-25537500D02*
X42337500Y-25762500D01*
X39512500Y-23962500D02*
X41537500Y-25537500D01*
X42337500Y-25762500D02*
X42362500Y-32262500D01*
X40587500Y-39287500D02*
X40037500Y-39837500D01*
X40037500Y-39837500D02*
X40037500Y-40212500D01*
X42362500Y-38387500D02*
X41512500Y-39237500D01*
X42362500Y-32262500D02*
X42362500Y-38387500D01*
X41537500Y-25537500D02*
X41662500Y-25562500D01*
X41662500Y-25562500D02*
X42112500Y-25537500D01*
X41512500Y-39237500D02*
X40587500Y-39287500D01*
%TO.N,LP5_WCK0P_B*%
X39562500Y-35062500D02*
X40137500Y-34487500D01*
X36662500Y-34512500D02*
X37087500Y-34937500D01*
X37687500Y-35062500D02*
X39562500Y-35062500D01*
X37087500Y-34937500D02*
X37562500Y-34937500D01*
X40312500Y-34487500D02*
X40487500Y-34312500D01*
X37562500Y-34937500D02*
X37687500Y-35062500D01*
X32737500Y-35062500D02*
X33812500Y-34512500D01*
X40137500Y-34487500D02*
X40312500Y-34487500D01*
X33812500Y-34512500D02*
X36662500Y-34512500D01*
X40487500Y-34312500D02*
X40487500Y-29737500D01*
X40487500Y-29737500D02*
X40212500Y-29462500D01*
%TO.N,LP5_WCK1N_B*%
X23112500Y-27262500D02*
X23112500Y-27237500D01*
X23387500Y-26962500D02*
X24637500Y-26962500D01*
X23112500Y-27237500D02*
X23387500Y-26962500D01*
X22662500Y-27662500D02*
X22712500Y-27662500D01*
X22112500Y-28212500D02*
X22662500Y-27662500D01*
X22562500Y-37787500D02*
X22112500Y-36862500D01*
X22712500Y-27662500D02*
X23112500Y-27262500D01*
X22112500Y-36862500D02*
X22112500Y-28212500D01*
%TO.N,LP5_WCK1P_A*%
X35012500Y-27737500D02*
X35012500Y-27187500D01*
X40162500Y-28537500D02*
X40312500Y-28537500D01*
X39937500Y-28312500D02*
X40162500Y-28537500D01*
X41062500Y-29287500D02*
X41062500Y-37462500D01*
X39712500Y-27937500D02*
X39937500Y-28162500D01*
X35012500Y-27187500D02*
X35187500Y-27012500D01*
X40762500Y-29137500D02*
X40912500Y-29137500D01*
X32962500Y-28187500D02*
X34462500Y-27962500D01*
X34787500Y-27962500D02*
X35012500Y-27737500D01*
X40537500Y-28762500D02*
X40537500Y-28912500D01*
X35187500Y-27012500D02*
X36862500Y-27037500D01*
X40912500Y-29137500D02*
X41062500Y-29287500D01*
X40312500Y-28537500D02*
X40537500Y-28762500D01*
X34462500Y-27962500D02*
X34787500Y-27962500D01*
X36862500Y-27037500D02*
X37762500Y-27937500D01*
X37762500Y-27937500D02*
X39712500Y-27937500D01*
X39937500Y-28162500D02*
X39937500Y-28312500D01*
X40537500Y-28912500D02*
X40762500Y-29137500D01*
X41062500Y-37462500D02*
X40812500Y-37712500D01*
%TO.N,LP5_ZQ*%
X27987500Y-23837500D02*
X28012500Y-24537500D01*
X26837500Y-20762500D02*
X26562500Y-21137500D01*
X30337500Y-30562500D02*
X30562500Y-30787500D01*
X28012500Y-24537500D02*
X30337500Y-26862500D01*
X26562500Y-21137500D02*
X26562500Y-22412500D01*
X30337500Y-26862500D02*
X30337500Y-30562500D01*
X26562500Y-22412500D02*
X27987500Y-23837500D01*
D47*
%TO.N,M2_LED_A*%
X35337500Y-53562500D02*
X35962500Y-52937500D01*
X65712500Y-40437500D02*
X65712500Y-40387500D01*
X35962500Y-52937500D02*
X53312500Y-52937500D01*
X53312500Y-52937500D02*
X53487500Y-52762500D01*
X67887500Y-40087500D02*
X68762500Y-39212500D01*
X26337500Y-53562500D02*
X35337500Y-53562500D01*
X25062500Y-52312500D02*
X26337500Y-53562500D01*
X56787500Y-49462500D02*
X65712500Y-40437500D01*
%TO.N,M2_LED_L*%
X19512500Y-53612500D02*
X28487500Y-53862500D01*
X28487500Y-53862500D02*
X38412500Y-53862500D01*
X38412500Y-53862500D02*
X38987500Y-53287500D01*
X73262500Y-51037500D02*
X73187500Y-51037500D01*
X38987500Y-53287500D02*
X50237500Y-53287500D01*
D49*
%TO.N,M2_PETN0*%
X75887500Y-41837500D02*
X78387500Y-42037500D01*
X78387500Y-42037500D02*
X78637500Y-42287500D01*
X78637500Y-42287500D02*
X78637500Y-42337500D01*
%TO.N,M2_PETP0*%
X69987500Y-42337500D02*
X71712500Y-41337500D01*
X74537500Y-41337500D02*
X74787500Y-41337500D01*
D47*
%TO.N,PCIE0_CLKREQ_L*%
X47212500Y-43012500D02*
X46787500Y-43437500D01*
X73537500Y-40087500D02*
X73237500Y-40387500D01*
X38337500Y-46337500D02*
X38087500Y-46587500D01*
X44712500Y-46337500D02*
X38337500Y-46337500D01*
X56887500Y-42012500D02*
X56862500Y-42037500D01*
X49912500Y-43012500D02*
X47212500Y-43012500D01*
X77837500Y-47212500D02*
X76337500Y-45712500D01*
X38062500Y-46612500D02*
X38062500Y-46662500D01*
X55637500Y-42012500D02*
X51162500Y-42062500D01*
X73237500Y-40387500D02*
X73187500Y-40387500D01*
X71962500Y-40637500D02*
X71737500Y-40862500D01*
X58912500Y-42012500D02*
X56887500Y-42012500D01*
X46787500Y-43437500D02*
X46787500Y-44262500D01*
X51162500Y-42062500D02*
X49912500Y-43012500D01*
X46787500Y-44262500D02*
X44712500Y-46337500D01*
X72087500Y-40587500D02*
X71962500Y-40637500D01*
X38087500Y-46587500D02*
X38062500Y-46612500D01*
X56862500Y-42037500D02*
X55637500Y-42012500D01*
X37662500Y-47062500D02*
X37112500Y-47062500D01*
X38062500Y-46662500D02*
X37662500Y-47062500D01*
%TO.N,PCIE0_PERST_L*%
X35662500Y-45387500D02*
X35387500Y-45712500D01*
X47362500Y-45862500D02*
X48912500Y-45862500D01*
X73837500Y-40537500D02*
X73187500Y-40887500D01*
X46762500Y-46462500D02*
X47362500Y-45862500D01*
X44612500Y-46562500D02*
X46762500Y-46462500D01*
X74537500Y-39562500D02*
X74537500Y-39037500D01*
X77387500Y-38887500D02*
X77762500Y-39262500D01*
X38687500Y-47987500D02*
X43237500Y-47937500D01*
X74537500Y-39037500D02*
X74687500Y-38887500D01*
X36262500Y-47512500D02*
X38212500Y-47512500D01*
X35412500Y-46662500D02*
X36262500Y-47512500D01*
X74687500Y-38887500D02*
X77387500Y-38887500D01*
X73187500Y-40887500D02*
X73312500Y-40812500D01*
X38212500Y-47512500D02*
X38687500Y-47987500D01*
X35387500Y-45712500D02*
X35412500Y-46662500D01*
X73312500Y-40812500D02*
X74537500Y-39562500D01*
X43237500Y-47937500D02*
X44612500Y-46562500D01*
X48912500Y-45862500D02*
X49237500Y-45537500D01*
D49*
%TO.N,PCIE0_REFCLKN*%
X50087500Y-35112500D02*
X53587500Y-38612500D01*
X49262500Y-34362500D02*
X49512500Y-34687500D01*
X57162500Y-38712500D02*
X57487500Y-39037500D01*
X53812500Y-38912500D02*
X55987500Y-38837500D01*
X53587500Y-38687500D02*
X53812500Y-38912500D01*
X74562500Y-40137500D02*
X74787500Y-40137500D01*
X49512500Y-34912500D02*
X49712500Y-35112500D01*
X49512500Y-34687500D02*
X49512500Y-34912500D01*
X56137500Y-38687500D02*
X57162500Y-38712500D01*
X55987500Y-38837500D02*
X56137500Y-38687500D01*
X49712500Y-35112500D02*
X50087500Y-35112500D01*
X53587500Y-38612500D02*
X53587500Y-38687500D01*
%TO.N,PCIE0_REFCLKP*%
X76362500Y-39737500D02*
X75887500Y-39737500D01*
%TO.N,PCIE0_RXN*%
X74612500Y-43187500D02*
X74787500Y-43187500D01*
%TO.N,PCIE0_RXP*%
X75987500Y-42637500D02*
X75887500Y-42637500D01*
X76237500Y-42512500D02*
X75987500Y-42637500D01*
%TO.N,PCIE0_TXN*%
X77912500Y-42337500D02*
X77987500Y-42337500D01*
%TO.N,PCIE0_TXP*%
X69037500Y-42712500D02*
X69037500Y-42637500D01*
D47*
%TO.N,PCIE0_WAKE_L*%
X68837500Y-47712500D02*
X68737500Y-46487500D01*
X69362500Y-41637500D02*
X70512500Y-41612500D01*
X68637500Y-44387500D02*
X68662500Y-42337500D01*
X68662500Y-42337500D02*
X69362500Y-41637500D01*
X68712500Y-44787500D02*
X68712500Y-44462500D01*
X68737500Y-46487500D02*
X68637500Y-46387500D01*
X72037500Y-40087500D02*
X72087500Y-40087500D01*
X70512500Y-41612500D02*
X72037500Y-40087500D01*
X68637500Y-43337500D02*
X66437500Y-43337500D01*
X68637500Y-46387500D02*
X68637500Y-44862500D01*
X68637500Y-44862500D02*
X68687500Y-44812500D01*
X68712500Y-44462500D02*
X68637500Y-44387500D01*
X68687500Y-44812500D02*
X68712500Y-44787500D01*
%TO.N,PHY_INT_L*%
X65187500Y-50462500D02*
X62412500Y-44712500D01*
%TO.N,PHY_LED1*%
X69062500Y-58987500D02*
X73687500Y-58012500D01*
X86112500Y-46112500D02*
X90262500Y-46112500D01*
X74787500Y-56912500D02*
X75312500Y-56912500D01*
X90262500Y-46112500D02*
X90637500Y-45737500D01*
X73687500Y-58012500D02*
X74787500Y-56912500D01*
X75312500Y-56912500D02*
X86112500Y-46112500D01*
%TO.N,PHY_LED2*%
X72437500Y-54887500D02*
X72437500Y-54962500D01*
X72437500Y-54962500D02*
X71037500Y-56362500D01*
X68587500Y-58687500D02*
X68587500Y-59012500D01*
X71037500Y-56362500D02*
X70862500Y-56362500D01*
X74362500Y-53387500D02*
X72587500Y-54737500D01*
X72587500Y-54737500D02*
X72437500Y-54887500D01*
X70862500Y-56362500D02*
X68587500Y-58687500D01*
%TO.N,PHY_RST_GPIO*%
X66087500Y-58687500D02*
X66087500Y-35612500D01*
%TO.N,PHY_RST_L*%
X74912500Y-61387500D02*
X68187500Y-59912500D01*
%TO.N,PHY_XI*%
X70312500Y-66162500D02*
X70312500Y-66737500D01*
X68612500Y-60562500D02*
X68362500Y-60862500D01*
X68437500Y-64287500D02*
X70312500Y-66162500D01*
X68362500Y-60862500D02*
X68437500Y-64287500D01*
%TO.N,PMIC_EXT_EN*%
X50512500Y-13537500D02*
X60437500Y-5637500D01*
%TO.N,PMIC_FB1*%
X59087500Y-34362500D02*
X59087500Y-35387500D01*
X59212500Y-35512500D02*
X59212500Y-35962500D01*
X59087500Y-35387500D02*
X59187500Y-35487500D01*
X59212500Y-35962500D02*
X59137500Y-36037500D01*
X59187500Y-35487500D02*
X59212500Y-35512500D01*
%TO.N,PMIC_FB2*%
X49562500Y-17787500D02*
X49287500Y-17512500D01*
X51637500Y-27862500D02*
X51487500Y-27862500D01*
X50812500Y-27037500D02*
X50537500Y-27037500D01*
X51862500Y-28137500D02*
X51862500Y-28087500D01*
X51862500Y-28087500D02*
X51637500Y-27862500D01*
X49562500Y-19212500D02*
X49562500Y-17787500D01*
X49112500Y-22362500D02*
X49137500Y-19637500D01*
X50537500Y-27037500D02*
X50212500Y-26712500D01*
X49162500Y-19637500D02*
X49562500Y-19237500D01*
X51262500Y-27487500D02*
X50812500Y-27037500D01*
X50187500Y-23437500D02*
X49112500Y-22362500D01*
X51487500Y-27862500D02*
X51262500Y-27637500D01*
X49562500Y-19237500D02*
X49562500Y-19212500D01*
X49137500Y-19637500D02*
X49162500Y-19637500D01*
X50212500Y-26712500D02*
X50187500Y-23437500D01*
X51262500Y-27637500D02*
X51262500Y-27487500D01*
X53037500Y-29312500D02*
X51862500Y-28137500D01*
%TO.N,PMIC_FB5*%
X36587500Y-44062500D02*
X36912500Y-44387500D01*
X36562500Y-43662500D02*
X36587500Y-44062500D01*
X42937500Y-41212500D02*
X43437500Y-41212500D01*
X33937500Y-40612500D02*
X36562500Y-43662500D01*
X42612500Y-41837500D02*
X42762500Y-41387500D01*
X36912500Y-44387500D02*
X38812500Y-44387500D01*
X45637500Y-42212500D02*
X46012500Y-42212500D01*
X45012500Y-41587500D02*
X45637500Y-42212500D01*
X42762500Y-41387500D02*
X42912500Y-41237500D01*
X43812500Y-41587500D02*
X45012500Y-41587500D01*
X50087500Y-10662500D02*
X49737500Y-10312500D01*
X43437500Y-41212500D02*
X43812500Y-41587500D01*
X50287500Y-11862500D02*
X50087500Y-10662500D01*
X42912500Y-41237500D02*
X42937500Y-41212500D01*
%TO.N,PMIC_FB6*%
X46387500Y-24062500D02*
X47162500Y-24362500D01*
%TO.N,PMIC_INT_L*%
X52862500Y-37312500D02*
X52562500Y-37012500D01*
X54862500Y-37362500D02*
X55362500Y-37362500D01*
X55362500Y-37362500D02*
X52862500Y-37312500D01*
X56712500Y-36012500D02*
X55362500Y-37362500D01*
X64537500Y-40062500D02*
X64862500Y-38987500D01*
X56887500Y-35837500D02*
X58712500Y-35812500D01*
X64862500Y-38987500D02*
X64862500Y-37312500D01*
X55362500Y-37362500D02*
X56887500Y-35837500D01*
X58712500Y-35787500D02*
X56712500Y-36012500D01*
X51237500Y-35662500D02*
X54862500Y-37362500D01*
X58712500Y-35812500D02*
X58862500Y-35662500D01*
%TO.N,PMIC_PWRCTRL3*%
X52012500Y-34937500D02*
X52387500Y-34937500D01*
X46587500Y-18662500D02*
X46587500Y-19387500D01*
X46587500Y-19387500D02*
X47712500Y-20512500D01*
X43062500Y-15137500D02*
X46587500Y-18662500D01*
X52387500Y-34937500D02*
X52612500Y-35162500D01*
X47712500Y-20512500D02*
X47787500Y-20512500D01*
X47987500Y-20712500D02*
X48012500Y-21387500D01*
X51337500Y-28762500D02*
X51337500Y-34162500D01*
X51337500Y-34162500D02*
X51862500Y-34687500D01*
X51112500Y-28537500D02*
X51337500Y-28762500D01*
X51862500Y-34787500D02*
X52012500Y-34937500D01*
X48137500Y-22062500D02*
X48037500Y-22162500D01*
X51862500Y-34687500D02*
X51862500Y-34787500D01*
X48062500Y-25637500D02*
X50962500Y-28537500D01*
X48062500Y-25612500D02*
X48312500Y-23487500D01*
X48137500Y-21512500D02*
X48137500Y-22062500D01*
X47987500Y-22037500D02*
X47987500Y-22162500D01*
X47787500Y-20512500D02*
X47987500Y-20712500D01*
X50962500Y-28537500D02*
X51112500Y-28537500D01*
X48037500Y-22162500D02*
X48012500Y-22187500D01*
X48012500Y-21387500D02*
X48137500Y-21512500D01*
%TO.N,PMIC_SCL*%
X44937500Y-24137500D02*
X46612500Y-24512500D01*
X48712500Y-26737500D02*
X48712500Y-27937500D01*
X46612500Y-24512500D02*
X47162500Y-25062500D01*
X49537500Y-28762500D02*
X49537500Y-33887500D01*
X44712500Y-21962500D02*
X44912500Y-22162500D01*
X47162500Y-25162500D02*
X48712500Y-26737500D01*
X44912500Y-22162500D02*
X44937500Y-24162500D01*
X42962500Y-20262500D02*
X44712500Y-21962500D01*
X48712500Y-27937500D02*
X49512500Y-28737500D01*
X47162500Y-25062500D02*
X47162500Y-25162500D01*
X49537500Y-33887500D02*
X50362500Y-34712500D01*
%TO.N,PMIC_SDA*%
X45012500Y-20787500D02*
X46062500Y-21837500D01*
X50962500Y-27937500D02*
X51112500Y-27937500D01*
X47062500Y-22762500D02*
X47137500Y-23387500D01*
X57862500Y-33912500D02*
X57987500Y-34037500D01*
X51337500Y-28312500D02*
X51562500Y-28537500D01*
X43037500Y-16887500D02*
X43562500Y-17912500D01*
X47337500Y-23587500D02*
X47862500Y-23587500D01*
X50712500Y-27537500D02*
X50737500Y-27712500D01*
X46062500Y-21837500D02*
X46137500Y-21837500D01*
X44612500Y-20012500D02*
X44787500Y-20012500D01*
X49137500Y-26187500D02*
X49687500Y-26737500D01*
X50737500Y-28637500D02*
X50737500Y-34487500D01*
X44787500Y-20012500D02*
X45012500Y-20237500D01*
X43562500Y-18962500D02*
X44612500Y-20012500D01*
X56587500Y-34637500D02*
X56587500Y-34087500D01*
X46137500Y-21837500D02*
X47062500Y-22762500D01*
X51562500Y-28537500D02*
X51712500Y-28537500D01*
X51587500Y-35137500D02*
X51712500Y-35137500D01*
X51062500Y-34812500D02*
X51587500Y-35137500D01*
X41762500Y-14662500D02*
X43037500Y-16887500D01*
X56787500Y-33887500D02*
X57862500Y-33912500D01*
X43562500Y-17912500D02*
X43562500Y-18962500D01*
X51337500Y-28162500D02*
X51337500Y-28312500D01*
X66362500Y-26087500D02*
X65662500Y-26787500D01*
X49912500Y-26737500D02*
X50712500Y-27537500D01*
X47137500Y-23387500D02*
X47337500Y-23587500D01*
X51112500Y-27937500D02*
X51337500Y-28162500D01*
X55412500Y-35812500D02*
X56587500Y-34637500D01*
X49687500Y-26737500D02*
X49912500Y-26737500D01*
X52062500Y-35487500D02*
X53512500Y-35562500D01*
X53812500Y-35862500D02*
X55412500Y-35812500D01*
X50737500Y-34487500D02*
X50962500Y-34712500D01*
X56587500Y-34087500D02*
X56787500Y-33887500D01*
X51712500Y-35137500D02*
X52062500Y-35487500D01*
X45012500Y-20237500D02*
X45012500Y-20787500D01*
X50737500Y-27712500D02*
X50962500Y-27937500D01*
X53512500Y-35562500D02*
X53812500Y-35862500D01*
X52412500Y-29237500D02*
X52412500Y-29462500D01*
X49062500Y-23737500D02*
X49137500Y-26187500D01*
X51712500Y-28537500D02*
X52412500Y-29237500D01*
D46*
%TO.N,PMIC_SW9*%
X49462500Y-10937500D02*
X49462500Y-13062500D01*
X49462500Y-13062500D02*
X50837500Y-14437500D01*
X46637500Y-8112500D02*
X49462500Y-10937500D01*
X41662500Y-8087500D02*
X46637500Y-8112500D01*
D47*
%TO.N,PWRON_L*%
X41487500Y-9987500D02*
X37562500Y-3262500D01*
%TO.N,RESET_KEY*%
X63787500Y-28712500D02*
X63737500Y-28762500D01*
%TO.N,RGMII_TXD0*%
X48312500Y-40137500D02*
X48312500Y-40262500D01*
X49037500Y-40987500D02*
X53337500Y-40987500D01*
X47662500Y-39487500D02*
X47662500Y-39612500D01*
X47662500Y-39612500D02*
X47937500Y-39887500D01*
X53337500Y-40987500D02*
X53487500Y-41137500D01*
X47937500Y-39887500D02*
X48062500Y-39887500D01*
X48062500Y-39887500D02*
X48312500Y-40137500D01*
X47412500Y-39237500D02*
X47662500Y-39487500D01*
X48312500Y-40262500D02*
X49037500Y-40987500D01*
X46912500Y-39137500D02*
X47412500Y-39237500D01*
%TO.N,RGMII_TXD1*%
X45337500Y-36637500D02*
X45462500Y-36637500D01*
X44137500Y-39237500D02*
X44387500Y-39487500D01*
X43537500Y-28662500D02*
X43737500Y-29162500D01*
X44287500Y-39387500D02*
X44137500Y-39237500D01*
X65887500Y-59387500D02*
X74912500Y-59387500D01*
X44137500Y-39237500D02*
X44112500Y-39212500D01*
X43737500Y-38962500D02*
X43987500Y-39212500D01*
X44387500Y-39487500D02*
X44387500Y-39612500D01*
X44537500Y-39762500D02*
X44287500Y-39512500D01*
X45662500Y-36837500D02*
X45662500Y-37262500D01*
X44937500Y-40112500D02*
X44937500Y-40037500D01*
X44787500Y-39887500D02*
X45062500Y-40162500D01*
X60362500Y-53862500D02*
X65887500Y-59387500D01*
X44387500Y-35587500D02*
X44387500Y-35712500D01*
X55562500Y-48812500D02*
X55562500Y-49312500D01*
X44112500Y-39212500D02*
X43987500Y-39212500D01*
X46087500Y-41762500D02*
X44937500Y-40112500D01*
X45062500Y-36262500D02*
X45062500Y-36362500D01*
X44637500Y-39862500D02*
X44787500Y-39887500D01*
X44687500Y-39787500D02*
X44537500Y-39762500D01*
X45062500Y-40162500D02*
X45112500Y-40737500D01*
X43737500Y-29137500D02*
X43737500Y-35062500D01*
X44787500Y-35987500D02*
X45062500Y-36262500D01*
X44937500Y-40037500D02*
X44687500Y-39787500D01*
X54137500Y-48487500D02*
X55237500Y-48487500D01*
X44662500Y-35987500D02*
X44787500Y-35987500D01*
X44012500Y-35337500D02*
X44137500Y-35337500D01*
X45462500Y-36637500D02*
X45662500Y-36837500D01*
X55562500Y-49312500D02*
X60187500Y-53862500D01*
X44287500Y-39512500D02*
X44287500Y-39387500D01*
X60187500Y-53862500D02*
X60362500Y-53862500D01*
X45112500Y-40737500D02*
X46562500Y-42187500D01*
X44137500Y-35337500D02*
X44387500Y-35587500D01*
X46562500Y-42187500D02*
X46562500Y-42312500D01*
X43737500Y-35062500D02*
X44012500Y-35337500D01*
X43987500Y-39212500D02*
X44137500Y-39237500D01*
X55237500Y-48487500D02*
X55562500Y-48812500D01*
X44387500Y-35712500D02*
X44662500Y-35987500D01*
X45062500Y-36362500D02*
X45337500Y-36637500D01*
X44387500Y-39612500D02*
X44637500Y-39862500D01*
X51812500Y-47412500D02*
X54137500Y-48487500D01*
%TO.N,RGMII_TXD3*%
X47562500Y-27137500D02*
X47562500Y-32087500D01*
X44212500Y-24212500D02*
X44687500Y-24237500D01*
X44687500Y-24237500D02*
X47562500Y-27137500D01*
%TO.N,SARADC_IN0_BOOT*%
X54987500Y-45812500D02*
X55562500Y-45237500D01*
X45137500Y-50387500D02*
X45137500Y-49587500D01*
X47362500Y-47362500D02*
X51362500Y-47362500D01*
X45212500Y-50812500D02*
X45212500Y-50462500D01*
X58862500Y-43362500D02*
X59587500Y-42637500D01*
X42112500Y-14512500D02*
X40262500Y-12687500D01*
X46087500Y-48637500D02*
X46612500Y-48562500D01*
X45162500Y-50412500D02*
X45137500Y-50387500D01*
X61812500Y-39737500D02*
X60987500Y-38912500D01*
X51362500Y-47362500D02*
X52087500Y-46637500D01*
X47062500Y-48112500D02*
X47062500Y-47662500D01*
X45137500Y-49587500D02*
X46087500Y-48637500D01*
X59862500Y-40862500D02*
X61162500Y-40837500D01*
X44637500Y-51712500D02*
X45212500Y-50812500D01*
X56212500Y-44762500D02*
X57062500Y-43912500D01*
X59562500Y-41162500D02*
X59862500Y-40862500D01*
X57062500Y-43662500D02*
X57362500Y-43362500D01*
X40062500Y-12687500D02*
X30612500Y-3237500D01*
X47062500Y-47662500D02*
X47362500Y-47362500D01*
X43187500Y-14762500D02*
X42312500Y-14762500D01*
X55562500Y-45162500D02*
X55962500Y-44762500D01*
X55562500Y-45237500D02*
X55562500Y-45162500D01*
X42112500Y-14562500D02*
X42112500Y-14512500D01*
X57062500Y-43912500D02*
X57062500Y-43662500D01*
X57362500Y-43362500D02*
X58862500Y-43362500D01*
X45212500Y-50462500D02*
X45162500Y-50412500D01*
X59587500Y-42637500D02*
X59562500Y-41162500D01*
X55962500Y-44762500D02*
X56212500Y-44762500D01*
X52087500Y-46587500D02*
X52812500Y-45862500D01*
X40262500Y-12687500D02*
X40062500Y-12687500D01*
X61162500Y-40837500D02*
X61787500Y-40212500D01*
X47337500Y-17437500D02*
X45737500Y-17312500D01*
X52087500Y-46637500D02*
X52087500Y-46587500D01*
X42312500Y-14762500D02*
X42112500Y-14562500D01*
X45737500Y-17312500D02*
X43187500Y-14762500D01*
X52812500Y-45862500D02*
X54987500Y-45812500D01*
X46612500Y-48562500D02*
X47062500Y-48112500D01*
%TO.N,SD_CMD*%
X39062500Y-20512500D02*
X35162500Y-20512500D01*
X43487500Y-19837500D02*
X40962500Y-20112500D01*
X40962500Y-20112500D02*
X39362500Y-20212500D01*
X39362500Y-20212500D02*
X39062500Y-20512500D01*
X16387500Y-49737500D02*
X12237500Y-53887500D01*
X5337500Y-57437500D02*
X3912500Y-58787500D01*
X17562500Y-49062500D02*
X17487500Y-49137500D01*
%TO.N,SD_D0*%
X8362500Y-56312500D02*
X11812500Y-56312500D01*
X11812500Y-56312500D02*
X14012500Y-54137500D01*
X8262500Y-57262500D02*
X8262500Y-56412500D01*
X8562500Y-58737500D02*
X8262500Y-57262500D01*
X8262500Y-56412500D02*
X8362500Y-56312500D01*
X14012500Y-54137500D02*
X16387500Y-54137500D01*
%TO.N,SD_D1*%
X6412500Y-58787500D02*
X7912500Y-57287500D01*
X16312500Y-55237500D02*
X16387500Y-55237500D01*
%TO.N,SD_D2*%
X19362500Y-49412500D02*
X17487500Y-47537500D01*
X44537500Y-24587500D02*
X45262500Y-26637500D01*
X35787500Y-49487500D02*
X19362500Y-49412500D01*
X16537500Y-47537500D02*
X16537500Y-47637500D01*
X11412500Y-58687500D02*
X11362500Y-58737500D01*
%TO.N,SD_D3*%
X16262500Y-47912500D02*
X16387500Y-48037500D01*
X13387500Y-41287500D02*
X16262500Y-47912500D01*
X13412500Y-40687500D02*
X13362500Y-40737500D01*
%TO.N,SD_DET_L*%
X15437500Y-58512500D02*
X14187500Y-58512500D01*
X20637500Y-51962500D02*
X17712500Y-54887500D01*
X16662500Y-57312500D02*
X15437500Y-58512500D01*
X16662500Y-56187500D02*
X16662500Y-57312500D01*
X17712500Y-55362500D02*
X17487500Y-55587500D01*
X14187500Y-58512500D02*
X13912500Y-58787500D01*
X17712500Y-54887500D02*
X17712500Y-55362500D01*
%TO.N,SD_PWREN*%
X36112500Y-48862500D02*
X38387500Y-48837500D01*
X35562500Y-47312500D02*
X35587500Y-47337500D01*
X7462500Y-41137500D02*
X8512500Y-41412500D01*
X26262500Y-43512500D02*
X29762500Y-47012500D01*
X15637500Y-40387500D02*
X18887500Y-43512500D01*
X35587500Y-47337500D02*
X35562500Y-48012500D01*
X35262500Y-47012500D02*
X35562500Y-47312500D01*
X35562500Y-48312500D02*
X36112500Y-48862500D01*
X12062500Y-41387500D02*
X13112500Y-40337500D01*
X8512500Y-41412500D02*
X12062500Y-41387500D01*
X50737500Y-38412500D02*
X50762500Y-38062500D01*
X13112500Y-40337500D02*
X15637500Y-40387500D01*
X18887500Y-43512500D02*
X26262500Y-43512500D01*
X29762500Y-47012500D02*
X35262500Y-47012500D01*
X38987500Y-48237500D02*
X43462500Y-48212500D01*
X50762500Y-38062500D02*
X51562500Y-37262500D01*
X35562500Y-48012500D02*
X35562500Y-48312500D01*
X50162500Y-39287500D02*
X50737500Y-38412500D01*
X38387500Y-48837500D02*
X38987500Y-48237500D01*
%TO.N,SYS_RESET_L*%
X60362500Y-30862500D02*
X62512500Y-28712500D01*
X68887500Y-24362500D02*
X65837500Y-27312500D01*
X61562500Y-26862500D02*
X62837500Y-28137500D01*
X57862500Y-30862500D02*
X60362500Y-30862500D01*
X62837500Y-28137500D02*
X62837500Y-28212500D01*
X61562500Y-26487500D02*
X61562500Y-25637500D01*
X62412500Y-24087500D02*
X62137500Y-23812500D01*
X65837500Y-27312500D02*
X62387500Y-27312500D01*
X61562500Y-25662500D02*
X61562500Y-26862500D01*
X53562500Y-33037500D02*
X53562500Y-32737500D01*
X56737500Y-31987500D02*
X57862500Y-30862500D01*
X53562500Y-32737500D02*
X54312500Y-31987500D01*
X70962500Y-23937500D02*
X72687500Y-22212500D01*
X62412500Y-24812500D02*
X61562500Y-25662500D01*
X54312500Y-31987500D02*
X56737500Y-31987500D01*
X62512500Y-28712500D02*
X62762500Y-28712500D01*
X52162500Y-34562500D02*
X53562500Y-33037500D01*
X62412500Y-24787500D02*
X62412500Y-24087500D01*
X70937500Y-23937500D02*
X68887500Y-24362500D01*
X62387500Y-27312500D02*
X61562500Y-26487500D01*
%TO.N,USB2_OTG0_REXT*%
X33687500Y-17212500D02*
X34262500Y-17512500D01*
X34262500Y-17512500D02*
X35537500Y-17512500D01*
%TO.N,USB2_OTG1_REXT*%
X33687500Y-48762500D02*
X33937500Y-48512500D01*
%TO.N,USB3A_OC_L*%
X48587500Y-28687500D02*
X48862500Y-28962500D01*
X48712500Y-34687500D02*
X49162500Y-35137500D01*
X48862500Y-33112500D02*
X48587500Y-33387500D01*
X48587500Y-34687500D02*
X48712500Y-34687500D01*
X48312500Y-34412500D02*
X48587500Y-34687500D01*
X48312500Y-33537500D02*
X48312500Y-34412500D01*
X48587500Y-33387500D02*
X48462500Y-33387500D01*
X48462500Y-33387500D02*
X48312500Y-33537500D01*
X49162500Y-35137500D02*
X49312500Y-35137500D01*
X48862500Y-28962500D02*
X48862500Y-33112500D01*
X49312500Y-35137500D02*
X49512500Y-35337500D01*
X49512500Y-35337500D02*
X49762500Y-37112500D01*
D50*
%TO.N,USB3_OTG0_REXT*%
X39612500Y-23387500D02*
X39837500Y-23162500D01*
X41737500Y-24487500D02*
X42162500Y-24512500D01*
X31137500Y-19262500D02*
X31487500Y-20137500D01*
X42937500Y-25937500D02*
X43862500Y-26912500D01*
X36037500Y-22837500D02*
X36562500Y-23362500D01*
X43437500Y-27312500D02*
X43837500Y-26912500D01*
X44887500Y-27912500D02*
X44962500Y-27912500D01*
X45612500Y-38487500D02*
X45337500Y-38762500D01*
X42937500Y-25037500D02*
X43062500Y-25162500D01*
X42687500Y-25037500D02*
X42937500Y-25037500D01*
X45137500Y-27937500D02*
X45612500Y-28412500D01*
X36562500Y-23362500D02*
X37237500Y-23387500D01*
X40412500Y-23162500D02*
X41737500Y-24487500D01*
X31487500Y-20812500D02*
X31662500Y-20987500D01*
X31487500Y-20137500D02*
X31487500Y-20812500D01*
X36037500Y-21737500D02*
X36037500Y-22837500D01*
X42937500Y-25662500D02*
X42937500Y-25937500D01*
X43062500Y-25162500D02*
X43062500Y-25537500D01*
X43862500Y-26912500D02*
X44887500Y-27912500D01*
X37237500Y-23387500D02*
X39612500Y-23387500D01*
X42162500Y-24512500D02*
X42687500Y-25037500D01*
X43062500Y-25537500D02*
X42937500Y-25662500D01*
X44987500Y-27937500D02*
X45137500Y-27937500D01*
X31662500Y-20987500D02*
X35287500Y-20987500D01*
X35287500Y-20987500D02*
X36037500Y-21737500D01*
X39837500Y-23162500D02*
X40412500Y-23162500D01*
%TO.N,USB3_RXN*%
X84637500Y-15612500D02*
X87812500Y-12437500D01*
X79312500Y-20462500D02*
X84637500Y-15612500D01*
%TO.N,USB3_RXP*%
X53087500Y-30162500D02*
X53437500Y-30162500D01*
X72662500Y-25612500D02*
X78962500Y-20087500D01*
X52212500Y-30762500D02*
X53087500Y-30162500D01*
%TO.N,USB3_TXN*%
X58987500Y-26637500D02*
X59512500Y-27162500D01*
X60337500Y-27137500D02*
X60412500Y-27062500D01*
X56987500Y-26562500D02*
X58987500Y-26637500D01*
X59512500Y-27162500D02*
X60337500Y-27137500D01*
X55587500Y-26887500D02*
X56987500Y-26562500D01*
%TO.N,USB3_TXP*%
X70187500Y-23312500D02*
X69687500Y-23812500D01*
X73387500Y-21262500D02*
X70187500Y-23312500D01*
%TO.N,USBC_DM*%
X41562500Y-43187500D02*
X41662500Y-41312500D01*
D47*
%TO.N,USB_HOST_PWREN*%
X50737500Y-20087500D02*
X56537500Y-20087500D01*
X76687500Y-14287500D02*
X76712500Y-14262500D01*
X65787500Y-14287500D02*
X76687500Y-14287500D01*
X56537500Y-20087500D02*
X57162500Y-19462500D01*
X57162500Y-19462500D02*
X58562500Y-19462500D01*
%TO.N,USB_OTG0_VBUSDET*%
X35737500Y-45862500D02*
X38037500Y-45862500D01*
X39387500Y-42887500D02*
X41037500Y-40937500D01*
X41812500Y-40162500D02*
X41812500Y-39387500D01*
X41037500Y-40937500D02*
X41812500Y-40162500D01*
X42737500Y-38462500D02*
X42862500Y-38462500D01*
X42862500Y-38462500D02*
X43012500Y-38312500D01*
X43012500Y-37887500D02*
X42737500Y-37612500D01*
X38037500Y-45862500D02*
X38487500Y-45412500D01*
X41812500Y-39387500D02*
X42737500Y-38462500D01*
X48937500Y-17162500D02*
X50337500Y-15262500D01*
X43012500Y-38312500D02*
X43012500Y-37887500D01*
D46*
%TO.N,VBUS_IN*%
X71112500Y-31562500D02*
X71112500Y-24262500D01*
X34012500Y-56762500D02*
X38212500Y-56887500D01*
X66487500Y-41687500D02*
X70487500Y-32212500D01*
X33787500Y-56987500D02*
X34012500Y-56762500D01*
X22762500Y-60337500D02*
X22787500Y-60312500D01*
X38212500Y-56887500D02*
X38562500Y-57237500D01*
X43612500Y-57262500D02*
X43737500Y-57137500D01*
X22137500Y-57462500D02*
X33787500Y-56987500D01*
X38562500Y-57237500D02*
X38587500Y-57262500D01*
X18287500Y-60337500D02*
X22762500Y-60337500D01*
X38587500Y-57262500D02*
X43612500Y-57262500D01*
X70487500Y-32212500D02*
X71112500Y-31562500D01*
%TO.N,VCC3V3_PCIE*%
X71812500Y-52237500D02*
X71962500Y-52387500D01*
X67725000Y-41000000D02*
X68379073Y-41654073D01*
X72650000Y-49500000D02*
X73700000Y-49500000D01*
X67725000Y-44000000D02*
X68379073Y-44654073D01*
X72650000Y-50500000D02*
X73700000Y-50500000D01*
X72587500Y-50512500D02*
X71937500Y-50612500D01*
X78020000Y-41000000D02*
X78557401Y-41537401D01*
X71812500Y-50737500D02*
X71812500Y-52237500D01*
X78020000Y-46000000D02*
X78557401Y-46537401D01*
X72650000Y-53000000D02*
X71679926Y-52598182D01*
X72650000Y-36000000D02*
X73700000Y-36000000D01*
X73187500Y-49437500D02*
X73187500Y-49087500D01*
X72612500Y-49537500D02*
X72612500Y-49887500D01*
X73112500Y-35387500D02*
X73112500Y-35037500D01*
X70010000Y-39000000D02*
X70780000Y-39000000D01*
X67725000Y-46000000D02*
X68379073Y-46654073D01*
X73187500Y-35937500D02*
X73187500Y-35587500D01*
X78725000Y-44000000D02*
X79379073Y-44654073D01*
X71962500Y-52387500D02*
X72087500Y-52387500D01*
X71837500Y-50712500D02*
X71812500Y-50737500D01*
X72650000Y-35000000D02*
X73700000Y-35000000D01*
X71937500Y-50612500D02*
X71837500Y-50712500D01*
%TO.N,VCC3V3_PHY*%
X75412500Y-61662500D02*
X76487500Y-58137500D01*
X75387500Y-61712500D02*
X75362500Y-61737500D01*
%TO.N,VCC3V3_SD*%
X9137500Y-39050000D02*
X8109684Y-39475735D01*
X16950000Y-50555000D02*
X18000000Y-50555000D01*
X11020000Y-38500000D02*
X10482598Y-37962598D01*
X4225000Y-37000000D02*
X4879073Y-37654073D01*
%TO.N,VCC5V0_SYS_S5*%
X77587500Y-6812500D02*
X78337500Y-7562500D01*
%TO.N,VCC5V_HDMI*%
X34262500Y-56412500D02*
X37037500Y-56462500D01*
X37037500Y-50962500D02*
X40837500Y-51712500D01*
X51787500Y-42587500D02*
X52762500Y-42462500D01*
X32237500Y-55387500D02*
X34262500Y-56412500D01*
X69562500Y-35287500D02*
X72462500Y-32112500D01*
X40837500Y-51712500D02*
X41387500Y-51712500D01*
X68862500Y-39962500D02*
X69512500Y-39312500D01*
X72537500Y-28162500D02*
X86487500Y-14212500D01*
X72462500Y-32112500D02*
X72537500Y-28162500D01*
X69512500Y-39312500D02*
X69562500Y-35287500D01*
%TO.N,VCCA1V8_PLDO2_S0*%
X46037500Y-7537500D02*
X45787500Y-7287500D01*
X46537500Y-7537500D02*
X46037500Y-7537500D01*
X54520000Y-17500000D02*
X55057401Y-18037401D01*
X60020000Y-23000000D02*
X60557401Y-23537401D01*
X56520000Y-19000000D02*
X55817851Y-18709160D01*
X54487500Y-17437500D02*
X54412500Y-12987500D01*
X49862500Y-8437500D02*
X47412500Y-8412500D01*
X45787500Y-7287500D02*
X45787500Y-6912500D01*
X47412500Y-8412500D02*
X46537500Y-7537500D01*
D51*
%TO.N,VCCA_1V8_S0*%
X39462500Y-43462500D02*
X39112500Y-43137500D01*
X45962500Y-45512500D02*
X46087500Y-45387500D01*
D46*
X42262500Y-21562500D02*
X40062500Y-21837500D01*
X47562500Y-44087500D02*
X46237500Y-45412500D01*
X30187500Y-25687500D02*
X30187500Y-24062500D01*
X39437500Y-44162500D02*
X39437500Y-44387500D01*
X34187500Y-25412500D02*
X34037500Y-26587500D01*
X40012500Y-21862500D02*
X39912500Y-21962500D01*
X47520000Y-43500000D02*
X48057401Y-44037401D01*
X33837500Y-27062500D02*
X34037500Y-26487500D01*
X47812500Y-43362500D02*
X47637500Y-43537500D01*
X34520000Y-38000000D02*
X33982598Y-38537401D01*
X34520000Y-26000000D02*
X34229160Y-25297851D01*
X34037500Y-26587500D02*
X34037500Y-26937500D01*
X34162500Y-27062500D02*
X34162500Y-27362500D01*
X30112500Y-24612500D02*
X30062500Y-24612500D01*
X45510000Y-52000000D02*
X46280000Y-52000000D01*
X43337500Y-37462500D02*
X43337500Y-36962500D01*
X50020000Y-22500000D02*
X50557401Y-23037401D01*
X38612500Y-22962500D02*
X38587500Y-22962500D01*
X54737500Y-39387500D02*
X54912500Y-39387500D01*
X34737500Y-39487500D02*
X34812500Y-39487500D01*
X34520000Y-27500000D02*
X33817851Y-27209160D01*
X54520000Y-27500000D02*
X53982598Y-28037401D01*
X33787500Y-27737500D02*
X32212500Y-27737500D01*
X40062500Y-21837500D02*
X40037500Y-21862500D01*
X34162500Y-27362500D02*
X33787500Y-27737500D01*
X34787500Y-41012500D02*
X34787500Y-39812500D01*
X39912500Y-21962500D02*
X39612500Y-21962500D01*
D51*
X45787500Y-45712500D02*
X45962500Y-45512500D01*
D46*
X34737500Y-39762500D02*
X34712500Y-39737500D01*
X34037500Y-26487500D02*
X34487500Y-26037500D01*
D51*
X39012500Y-42237500D02*
X39762500Y-41487500D01*
X39762500Y-41487500D02*
X39762500Y-41012500D01*
D46*
X39612500Y-21962500D02*
X38612500Y-22962500D01*
X39762500Y-43837500D02*
X39437500Y-44162500D01*
X34037500Y-26937500D02*
X34162500Y-27062500D01*
X34787500Y-39812500D02*
X34737500Y-39762500D01*
X39020000Y-22500000D02*
X38482598Y-23037401D01*
D51*
X39112500Y-43137500D02*
X38987500Y-43012500D01*
D46*
X40037500Y-21862500D02*
X40012500Y-21862500D01*
D51*
X38987500Y-43012500D02*
X39012500Y-42237500D01*
D46*
X54520000Y-38000000D02*
X53982598Y-38537401D01*
X46237500Y-45412500D02*
X46237500Y-45687500D01*
X32212500Y-27737500D02*
X30187500Y-25687500D01*
X39520000Y-43500000D02*
X40057401Y-44037401D01*
X47912500Y-44037500D02*
X47562500Y-44087500D01*
D51*
X46087500Y-45387500D02*
X46187500Y-45387500D01*
D46*
%TO.N,VCCA_3V3_S0*%
X41262500Y-20812500D02*
X41212500Y-20887500D01*
X54520000Y-26000000D02*
X53817851Y-26290839D01*
X41520000Y-21000000D02*
X40982598Y-20462598D01*
%TO.N,VCCIO_SD_S0*%
X48462500Y-6462500D02*
X52937500Y-10937500D01*
D51*
X54062500Y-21862500D02*
X54187500Y-21987500D01*
X52537500Y-23112500D02*
X52987500Y-22187500D01*
D46*
X12235000Y-59030000D02*
X13005000Y-59030000D01*
D51*
X65237500Y-40487500D02*
X65237500Y-36462500D01*
D46*
X4735000Y-59030000D02*
X5505000Y-59030000D01*
X50712500Y-21562500D02*
X51562500Y-21562500D01*
D51*
X52762500Y-43662500D02*
X52812500Y-43612500D01*
D46*
X59512500Y-15962500D02*
X59162500Y-16312500D01*
X51562500Y-21562500D02*
X52462500Y-22462500D01*
X52520000Y-22500000D02*
X52520000Y-23260000D01*
X14187500Y-41062500D02*
X14187500Y-42262500D01*
D51*
X61537500Y-44187500D02*
X65237500Y-40487500D01*
D46*
X50487500Y-21437500D02*
X50712500Y-21562500D01*
X51487500Y-23487500D02*
X52387500Y-23312500D01*
D51*
X52987500Y-22187500D02*
X53312500Y-21862500D01*
D46*
X46237500Y-6412500D02*
X48462500Y-6462500D01*
D51*
X61387500Y-44287500D02*
X61537500Y-44187500D01*
D46*
X7235000Y-59030000D02*
X8005000Y-59030000D01*
D51*
X53312500Y-21862500D02*
X54062500Y-21862500D01*
D46*
X52520000Y-43500000D02*
X53057401Y-44037401D01*
X9735000Y-59030000D02*
X10505000Y-59030000D01*
X14235000Y-41030000D02*
X15005000Y-41030000D01*
X60287500Y-15962500D02*
X59512500Y-15962500D01*
%TO.N,VCC_1V1_NLDO_S3*%
X41587500Y-12162500D02*
X41662500Y-12237500D01*
X46412500Y-15287500D02*
X47912500Y-15237500D01*
X66237500Y-30287500D02*
X64837500Y-31687500D01*
X41587500Y-13212500D02*
X41837500Y-13462500D01*
X7662500Y-27587500D02*
X6662500Y-28537500D01*
X41662500Y-12237500D02*
X41687500Y-12237500D01*
X50562500Y-17812500D02*
X50037500Y-18562500D01*
X41837500Y-12112500D02*
X41587500Y-12637500D01*
X9937500Y-27462500D02*
X7662500Y-27587500D01*
X50037500Y-20062500D02*
X50487500Y-20512500D01*
X6662500Y-28537500D02*
X6237500Y-28537500D01*
X45712500Y-15062500D02*
X46412500Y-15287500D01*
X39362500Y-10287500D02*
X40062500Y-10537500D01*
X41587500Y-12062500D02*
X41587500Y-12162500D01*
X47912500Y-15237500D02*
X47962500Y-15187500D01*
X50037500Y-18562500D02*
X50037500Y-20062500D01*
X41587500Y-12637500D02*
X41587500Y-13212500D01*
X66237500Y-28812500D02*
X66237500Y-30287500D01*
X40062500Y-10537500D02*
X41587500Y-12062500D01*
%TO.N,VCC_1V8_S3*%
X47312500Y-26137500D02*
X47062500Y-25462500D01*
X66312500Y-24312500D02*
X66287500Y-24412500D01*
D51*
X38287500Y-46087500D02*
X38112500Y-46087500D01*
D46*
X68187500Y-19337500D02*
X68187500Y-18637500D01*
X65312500Y-18712500D02*
X66187500Y-18412500D01*
X44520000Y-20500000D02*
X43817851Y-20209160D01*
X63212500Y-20737500D02*
X64137500Y-19737500D01*
X65112500Y-19462500D02*
X65137500Y-19437500D01*
X47287500Y-26162500D02*
X47312500Y-26137500D01*
X65137500Y-24587500D02*
X64812500Y-24262500D01*
X66387500Y-18212500D02*
X66387500Y-18137500D01*
X64487500Y-19462500D02*
X65112500Y-19462500D01*
X66112500Y-24587500D02*
X65137500Y-24587500D01*
X47062500Y-25462500D02*
X46487500Y-24887500D01*
X67937500Y-18062500D02*
X66737500Y-18062500D01*
X66187500Y-18412500D02*
X66387500Y-18212500D01*
X39520000Y-45000000D02*
X40057401Y-45537401D01*
D51*
X58112500Y-34362500D02*
X58162500Y-34362500D01*
D46*
X68112500Y-18237500D02*
X67937500Y-18062500D01*
X64262500Y-23162500D02*
X64312500Y-22812500D01*
D51*
X58087500Y-34387500D02*
X58112500Y-34362500D01*
D46*
X65312500Y-19287500D02*
X65337500Y-19262500D01*
X68137500Y-18337500D02*
X68112500Y-18237500D01*
X66312500Y-24862500D02*
X66312500Y-24312500D01*
D51*
X57237500Y-34762500D02*
X57837500Y-34387500D01*
D46*
X47612500Y-21787500D02*
X47612500Y-21837500D01*
D51*
X58162500Y-34362500D02*
X58487500Y-34037500D01*
D46*
X47737500Y-21687500D02*
X47712500Y-21687500D01*
X68837500Y-21262500D02*
X68487500Y-22337500D01*
X65137500Y-19437500D02*
X65162500Y-19437500D01*
X47520000Y-21000000D02*
X47810839Y-21702148D01*
D51*
X38112500Y-46087500D02*
X38037500Y-46162500D01*
D46*
X66137500Y-24562500D02*
X66112500Y-24587500D01*
X47712500Y-21687500D02*
X47612500Y-21787500D01*
D51*
X46487500Y-46012500D02*
X47462500Y-45037500D01*
D46*
X64137500Y-19737500D02*
X64137500Y-19637500D01*
X64887500Y-17187500D02*
X64112500Y-17187500D01*
X47520000Y-45000000D02*
X48057401Y-45537401D01*
X68837500Y-20712500D02*
X68487500Y-19637500D01*
X66287500Y-24412500D02*
X66137500Y-24562500D01*
X57012500Y-36737500D02*
X57012500Y-37037500D01*
X65337500Y-19262500D02*
X65337500Y-18887500D01*
X65337500Y-18887500D02*
X65262500Y-18812500D01*
X65337500Y-17137500D02*
X65412500Y-17137500D01*
D51*
X58487500Y-34037500D02*
X58487500Y-32537500D01*
X45362500Y-46212500D02*
X46487500Y-46012500D01*
X39462500Y-45037500D02*
X38287500Y-46087500D01*
X57837500Y-34387500D02*
X58087500Y-34387500D01*
D46*
X65162500Y-19437500D02*
X65312500Y-19287500D01*
X54520000Y-41000000D02*
X55057401Y-41537401D01*
%TO.N,VCC_2V0_PLDO_S3*%
X5837500Y-18612500D02*
X5062500Y-19387500D01*
%TO.N,VCC_3V3_S0*%
X56362500Y-49287500D02*
X56637500Y-49012500D01*
X79010000Y-47500000D02*
X79780000Y-47500000D01*
D51*
X42862500Y-28812500D02*
X43037500Y-28987500D01*
D46*
X44987500Y-37887500D02*
X44387500Y-38487500D01*
X64112500Y-20312500D02*
X64362500Y-20512500D01*
X42612500Y-39837500D02*
X42887500Y-39837500D01*
X34112500Y-52312500D02*
X37687500Y-52187500D01*
X36520000Y-22500000D02*
X37057401Y-23037401D01*
X78712500Y-47537500D02*
X78937500Y-47512500D01*
D51*
X57687500Y-28487500D02*
X58462500Y-28487500D01*
D46*
X6862500Y-39050000D02*
X7649156Y-39836656D01*
X42412500Y-39237500D02*
X42412500Y-39637500D01*
X42887500Y-39837500D02*
X43062500Y-40012500D01*
X44337500Y-37037500D02*
X44537500Y-37237500D01*
X42737500Y-36812500D02*
X43062500Y-36387500D01*
X60162500Y-4187500D02*
X62537500Y-6612500D01*
X44337500Y-36112500D02*
X44337500Y-37037500D01*
X4020000Y-40000000D02*
X4557401Y-40537401D01*
D51*
X57562500Y-28612500D02*
X57687500Y-28487500D01*
D46*
X42937500Y-38762500D02*
X42862500Y-38787500D01*
X33862500Y-52262500D02*
X34112500Y-52312500D01*
X43062500Y-36387500D02*
X43062500Y-36112500D01*
X43237500Y-35937500D02*
X44162500Y-35937500D01*
X44162500Y-35937500D02*
X44337500Y-36112500D01*
X44987500Y-37412500D02*
X44987500Y-37887500D01*
D51*
X57237500Y-28762500D02*
X57562500Y-28612500D01*
D46*
X61212500Y-53537500D02*
X60037500Y-53287500D01*
X62862500Y-55187500D02*
X61212500Y-53537500D01*
X7520000Y-37000000D02*
X7810839Y-37702148D01*
X42412500Y-39637500D02*
X42612500Y-39837500D01*
D51*
X43037500Y-28987500D02*
X43037500Y-36512500D01*
D46*
X63112500Y-55637500D02*
X62862500Y-55187500D01*
X56362500Y-49612500D02*
X56362500Y-49287500D01*
X62537500Y-6612500D02*
X62537500Y-12962500D01*
D51*
X64437500Y-20587500D02*
X64712500Y-20312500D01*
D46*
X62937500Y-13362500D02*
X62937500Y-16612500D01*
X50020000Y-21000000D02*
X49482598Y-21537401D01*
X56010000Y-49000000D02*
X56780000Y-49000000D01*
X56087500Y-49037500D02*
X56087500Y-49337500D01*
X59937500Y-4012500D02*
X60162500Y-4187500D01*
X69987500Y-48037500D02*
X66437500Y-53187500D01*
X37687500Y-52187500D02*
X37762500Y-52112500D01*
X70010000Y-48000000D02*
X70780000Y-48000000D01*
X42862500Y-38787500D02*
X42412500Y-39237500D01*
D51*
X43037500Y-36512500D02*
X42737500Y-36812500D01*
X42662500Y-28687500D02*
X42862500Y-28812500D01*
D46*
X60037500Y-53287500D02*
X56362500Y-49612500D01*
X62537500Y-12962500D02*
X62937500Y-13362500D01*
X39020000Y-21000000D02*
X39310839Y-21702148D01*
X43187500Y-38512500D02*
X42937500Y-38762500D01*
X11020000Y-40000000D02*
X11557401Y-40537401D01*
X43062500Y-40012500D02*
X43062500Y-40437500D01*
X44537500Y-37237500D02*
X44812500Y-37237500D01*
X64362500Y-20512500D02*
X64412500Y-20562500D01*
X44812500Y-37237500D02*
X44987500Y-37412500D01*
X43062500Y-36112500D02*
X43237500Y-35937500D01*
X57020000Y-29000000D02*
X56729160Y-29702148D01*
X44337500Y-38512500D02*
X43187500Y-38512500D01*
%TO.N,VCC_3V3_S3*%
X48112500Y-15587500D02*
X49462500Y-15637500D01*
X44837500Y-15837500D02*
X47962500Y-15737500D01*
X47962500Y-15737500D02*
X48112500Y-15587500D01*
X34520000Y-24500000D02*
X35057401Y-25037401D01*
X53962500Y-25012500D02*
X53837500Y-25012500D01*
X54512500Y-24662500D02*
X53962500Y-25012500D01*
X53987500Y-25362500D02*
X53687500Y-25362500D01*
X34112500Y-24687500D02*
X34162500Y-24637500D01*
X54362500Y-24987500D02*
X53987500Y-25362500D01*
X54520000Y-24500000D02*
X54810839Y-25202148D01*
X34287500Y-24612500D02*
X34212500Y-24612500D01*
X53687500Y-25362500D02*
X53362500Y-25037500D01*
X49462500Y-15637500D02*
X49537500Y-15712500D01*
X54637500Y-24962500D02*
X54362500Y-24987500D01*
X44112500Y-15112500D02*
X44837500Y-15837500D01*
X14735000Y-59030000D02*
X15505000Y-59030000D01*
%TO.N,VDD1_DDR_S3*%
X24687500Y-27962500D02*
X24937500Y-27712500D01*
X23737500Y-25087500D02*
X20787500Y-25087500D01*
X21787500Y-20612500D02*
X21712500Y-20612500D01*
X24512500Y-25862500D02*
X23737500Y-25087500D01*
X22020000Y-20500000D02*
X22557401Y-21037401D01*
X25062500Y-29112500D02*
X24862500Y-29112500D01*
X24862500Y-29112500D02*
X24687500Y-28937500D01*
X25412500Y-30012500D02*
X25337500Y-29387500D01*
X17020000Y-23000000D02*
X17557401Y-23537401D01*
X25337500Y-29387500D02*
X25062500Y-29112500D01*
X24937500Y-27712500D02*
X25137500Y-27712500D01*
X20562500Y-24862500D02*
X20562500Y-24062500D01*
X25062500Y-26312500D02*
X24862500Y-26312500D01*
X25137500Y-27712500D02*
X25312500Y-27537500D01*
X13520000Y-27000000D02*
X14057401Y-27537401D01*
X25312500Y-26562500D02*
X25062500Y-26312500D01*
X25312500Y-27537500D02*
X25312500Y-26562500D01*
X20787500Y-25087500D02*
X20562500Y-24862500D01*
X24862500Y-26312500D02*
X24512500Y-25962500D01*
X22137500Y-20812500D02*
X22187500Y-20762500D01*
X24512500Y-25962500D02*
X24512500Y-25862500D01*
X24687500Y-28937500D02*
X24687500Y-27962500D01*
%TO.N,VDD2H_DDR_S3*%
X24187500Y-39187500D02*
X24187500Y-38687500D01*
X54812500Y-11462500D02*
X54412500Y-11062500D01*
X20512500Y-32962500D02*
X20512500Y-29362500D01*
X21662500Y-37512500D02*
X21312500Y-37162500D01*
X24520000Y-23500000D02*
X25057401Y-24037401D01*
X20937500Y-27012500D02*
X21137500Y-27012500D01*
X21137500Y-27012500D02*
X21487500Y-26662500D01*
X25687500Y-32962500D02*
X25087500Y-32962500D01*
X15237500Y-30937500D02*
X15812500Y-29237500D01*
X20337500Y-27712500D02*
X20687500Y-27362500D01*
X24520000Y-42500000D02*
X25057401Y-43037401D01*
X16212500Y-28737500D02*
X16212500Y-27887500D01*
D51*
X24137500Y-21587500D02*
X23937500Y-21387500D01*
D46*
X23737500Y-23512500D02*
X23462500Y-23237500D01*
X22962500Y-32237500D02*
X22962500Y-38037500D01*
X18037500Y-30762500D02*
X17562500Y-30287500D01*
X20162500Y-22962500D02*
X21462500Y-22962500D01*
X54837500Y-14887500D02*
X54812500Y-11462500D01*
D51*
X23937500Y-21387500D02*
X23637500Y-21362500D01*
D46*
X21237500Y-41962500D02*
X20162500Y-41962500D01*
X15587500Y-35462500D02*
X15537500Y-35512500D01*
X16020000Y-27500000D02*
X16557401Y-28037401D01*
X20262500Y-29112500D02*
X20062500Y-29112500D01*
X23537500Y-25687500D02*
X23737500Y-25887500D01*
X15225000Y-35000000D02*
X15879073Y-35654073D01*
X23287500Y-22962500D02*
X22662500Y-22962500D01*
X22287500Y-25862500D02*
X22462500Y-25687500D01*
X25087500Y-37912500D02*
X25712500Y-38512500D01*
X22162500Y-37712500D02*
X21962500Y-37512500D01*
X15537500Y-35512500D02*
X15562500Y-36512500D01*
X16337500Y-30287500D02*
X15462500Y-31162500D01*
X20862500Y-33312500D02*
X20512500Y-32962500D01*
X21962500Y-37512500D02*
X21662500Y-37512500D01*
X21937500Y-26312500D02*
X22287500Y-25962500D01*
X19487500Y-32287500D02*
X20087500Y-32287500D01*
X20162500Y-41962500D02*
X19612500Y-42512500D01*
X24762500Y-23837500D02*
X24712500Y-23887500D01*
X24712500Y-23887500D02*
X24712500Y-25462500D01*
X25787500Y-39187500D02*
X25787500Y-38687500D01*
X22737500Y-38262500D02*
X22437500Y-38262500D01*
X21062500Y-33312500D02*
X20862500Y-33312500D01*
X22020000Y-23500000D02*
X22557401Y-24037401D01*
X22662500Y-22962500D02*
X22112500Y-23512500D01*
X21337500Y-22937500D02*
X21962500Y-23462500D01*
X21487500Y-26562500D02*
X21737500Y-26312500D01*
X21462500Y-22962500D02*
X21962500Y-23462500D01*
X23462500Y-23137500D02*
X23287500Y-22962500D01*
X22287500Y-25962500D02*
X22287500Y-25862500D01*
X15225000Y-31000000D02*
X15879073Y-31654073D01*
X20687500Y-27262500D02*
X20937500Y-27012500D01*
X22587500Y-34287500D02*
X22587500Y-33787500D01*
X22437500Y-38262500D02*
X22162500Y-37987500D01*
X24487500Y-22037500D02*
X24487500Y-23437500D01*
X16212500Y-27887500D02*
X16262500Y-27837500D01*
X19520000Y-42500000D02*
X20057401Y-43037401D01*
X22162500Y-37987500D02*
X22162500Y-37712500D01*
X22662500Y-41962500D02*
X23962500Y-41962500D01*
X24612500Y-42512500D02*
X25162500Y-41962500D01*
X16037500Y-37562500D02*
X16037500Y-38437500D01*
X22462500Y-25687500D02*
X23537500Y-25687500D01*
X24462500Y-23512500D02*
X23737500Y-23512500D01*
X21737500Y-26312500D02*
X21937500Y-26312500D01*
X19887500Y-27962500D02*
X20137500Y-27712500D01*
X23462500Y-23237500D02*
X23462500Y-23137500D01*
X15237500Y-34937500D02*
X15237500Y-33762500D01*
X21487500Y-26662500D02*
X21487500Y-26562500D01*
X17562500Y-30287500D02*
X16337500Y-30287500D01*
X21962500Y-42462500D02*
X21237500Y-41962500D01*
X27487500Y-32287500D02*
X28087500Y-32287500D01*
X22962500Y-38037500D02*
X22737500Y-38262500D01*
X20062500Y-29112500D02*
X19912500Y-28962500D01*
X15562500Y-36512500D02*
X15987500Y-36937500D01*
X16020000Y-37000000D02*
X16557401Y-37537401D01*
X24520000Y-22000000D02*
X23817851Y-21709160D01*
X21312500Y-37162500D02*
X21312500Y-33562500D01*
X19912500Y-28962500D02*
X19887500Y-28937500D01*
X19362500Y-32187500D02*
X18037500Y-30762500D01*
X23737500Y-25887500D02*
X23737500Y-26337500D01*
D51*
X24112500Y-21762500D02*
X24137500Y-21712500D01*
D46*
X23962500Y-41962500D02*
X24462500Y-42462500D01*
X25162500Y-41962500D02*
X26462500Y-41962500D01*
X19887500Y-28937500D02*
X19887500Y-27962500D01*
X20687500Y-27362500D02*
X20687500Y-27262500D01*
X22020000Y-42500000D02*
X22557401Y-43037401D01*
X20137500Y-27712500D02*
X20337500Y-27712500D01*
D51*
X23637500Y-21362500D02*
X23562500Y-21287500D01*
D46*
X16262500Y-37337500D02*
X16037500Y-37562500D01*
X26462500Y-41962500D02*
X26962500Y-42462500D01*
X27020000Y-42500000D02*
X27557401Y-43037401D01*
X19612500Y-23512500D02*
X20162500Y-22962500D01*
X22612500Y-31687500D02*
X22962500Y-32237500D01*
X21312500Y-33562500D02*
X21062500Y-33312500D01*
X24487500Y-42437500D02*
X24487500Y-40362500D01*
X19520000Y-23500000D02*
X20057401Y-24037401D01*
D51*
X24137500Y-21712500D02*
X24137500Y-21587500D01*
D46*
X23487500Y-36462500D02*
X24087500Y-36462500D01*
X20512500Y-29362500D02*
X20262500Y-29112500D01*
X15412500Y-31637500D02*
X15587500Y-31462500D01*
X22112500Y-42512500D02*
X22662500Y-41962500D01*
X16020000Y-38500000D02*
X16557401Y-39037401D01*
%TO.N,VDD2L_DDR_S3*%
X16020000Y-26000000D02*
X16310839Y-26702148D01*
X15712500Y-39912500D02*
X15962500Y-39962500D01*
X24225000Y-44500000D02*
X24879073Y-45154073D01*
X27020000Y-22000000D02*
X27557401Y-22537401D01*
X22062500Y-22012500D02*
X22362500Y-22012500D01*
X26987500Y-21937500D02*
X26887500Y-21662500D01*
X21520000Y-44000000D02*
X22057401Y-44537401D01*
X26212500Y-22037500D02*
X26562500Y-25887500D01*
X16020000Y-40000000D02*
X16557401Y-40537401D01*
X15225000Y-33000000D02*
X15879073Y-33654073D01*
X33225000Y-33000000D02*
X32871017Y-33854588D01*
X22020000Y-22000000D02*
X21729160Y-21297851D01*
%TO.N,VDDA0V75_HDMI_S0*%
X39020000Y-50500000D02*
X39557401Y-51037401D01*
X62020000Y-38500000D02*
X62557401Y-39037401D01*
X39187500Y-50587500D02*
X39387500Y-50387500D01*
X31020000Y-20500000D02*
X30317851Y-20209160D01*
%TO.N,VDDA_0V75_S0*%
X47520000Y-51000000D02*
X48057401Y-51537401D01*
D51*
X29762500Y-21687500D02*
X29537500Y-21262500D01*
D46*
X47837500Y-51362500D02*
X47712500Y-51237500D01*
D51*
X29537500Y-21262500D02*
X29537500Y-19637500D01*
D46*
X36520000Y-49500000D02*
X37057401Y-50037401D01*
X42962500Y-53587500D02*
X48462500Y-53587500D01*
X33520000Y-47500000D02*
X34057401Y-48037401D01*
X33520000Y-18500000D02*
X33520000Y-19260000D01*
X33462500Y-18812500D02*
X33337500Y-18812500D01*
X29020000Y-23500000D02*
X29557401Y-24037401D01*
D51*
X28962500Y-23537500D02*
X28712500Y-23637500D01*
D46*
%TO.N,VDDA_0V85_S0*%
X60387500Y-43662500D02*
X60487500Y-43562500D01*
X60362500Y-43837500D02*
X60387500Y-43662500D01*
X62412500Y-32362500D02*
X62412500Y-32062500D01*
X50020000Y-51000000D02*
X50557401Y-51537401D01*
X63020000Y-33000000D02*
X62442148Y-34395058D01*
X62987500Y-32937500D02*
X62412500Y-32362500D01*
X36020000Y-16500000D02*
X36020000Y-17260000D01*
X64087500Y-38987500D02*
X64137500Y-40087500D01*
X61412500Y-43887500D02*
X60412500Y-43887500D01*
D51*
X35987500Y-16162500D02*
X35987500Y-16437500D01*
D46*
X62412500Y-32062500D02*
X62962500Y-31512500D01*
X58562500Y-45462500D02*
X60437500Y-43587500D01*
X60412500Y-43887500D02*
X60362500Y-43837500D01*
X63962500Y-41337500D02*
X61412500Y-43887500D01*
X63020000Y-31500000D02*
X63020000Y-30740000D01*
X60020000Y-43000000D02*
X60557401Y-43537401D01*
X64137500Y-40087500D02*
X63962500Y-41337500D01*
X58520000Y-45500000D02*
X58520000Y-46260000D01*
X56862500Y-48087500D02*
X58437500Y-46512500D01*
X62787500Y-34362500D02*
X62562500Y-34362500D01*
X58437500Y-46512500D02*
X58437500Y-46362500D01*
X56437500Y-48287500D02*
X56862500Y-48087500D01*
%TO.N,VDDA_1V2_S0*%
X62020000Y-26000000D02*
X62557401Y-26537401D01*
%TO.N,VDDA_DDR_PLL_S0*%
X47520000Y-22500000D02*
X47520000Y-23260000D01*
X41520000Y-22500000D02*
X42057401Y-23037401D01*
%TO.N,VDDQ_DDR_S0*%
X62262500Y-30337500D02*
X62137500Y-30462500D01*
X12712500Y-33387500D02*
X12712500Y-34237500D01*
X23337500Y-19137500D02*
X24487500Y-20287500D01*
X36437500Y-17562500D02*
X36237500Y-17762500D01*
X28562500Y-26012500D02*
X28537500Y-27512500D01*
X22462500Y-26387500D02*
X22962500Y-26387500D01*
X19612500Y-22012500D02*
X22487500Y-19137500D01*
D51*
X61387500Y-42362500D02*
X60437500Y-42362500D01*
D46*
X64237500Y-29162500D02*
X64362500Y-29037500D01*
X37087500Y-51512500D02*
X37762500Y-51512500D01*
X60020000Y-41500000D02*
X60557401Y-42037401D01*
X21487500Y-27362500D02*
X21487500Y-27262500D01*
X12762500Y-31837500D02*
X12712500Y-31887500D01*
X13812500Y-37487500D02*
X13862500Y-37437500D01*
X46987500Y-50537500D02*
X47287500Y-50412500D01*
X30612500Y-36387500D02*
X30612500Y-35887500D01*
X62112500Y-30012500D02*
X62962500Y-29162500D01*
X57212500Y-44487500D02*
X57562500Y-44137500D01*
X18637500Y-25262500D02*
X17287500Y-23962500D01*
X25312500Y-19687500D02*
X24737500Y-20262500D01*
X50737500Y-48887500D02*
X51462500Y-48737500D01*
X51225000Y-17000000D02*
X50370411Y-17353982D01*
X28010000Y-20500000D02*
X27465527Y-19955527D01*
X27812500Y-19812500D02*
X27612500Y-19612500D01*
X60262500Y-41837500D02*
X59937500Y-42162500D01*
X49087500Y-50412500D02*
X49787500Y-49712500D01*
X16020000Y-24500000D02*
X16310839Y-25202148D01*
X62062500Y-34937500D02*
X63637500Y-36512500D01*
X30287500Y-17962500D02*
X35787500Y-17962500D01*
D51*
X60237500Y-42162500D02*
X60237500Y-42012500D01*
D46*
X15262500Y-37887500D02*
X13912500Y-37887500D01*
X13520000Y-38500000D02*
X14057401Y-39037401D01*
X28062500Y-27787500D02*
X27887500Y-27962500D01*
X27612500Y-19612500D02*
X25312500Y-19687500D01*
X60037500Y-33912500D02*
X60762500Y-33687500D01*
X29887500Y-35787500D02*
X30487500Y-35787500D01*
X19520000Y-22000000D02*
X20057401Y-22537401D01*
X28237500Y-19987500D02*
X30287500Y-17962500D01*
X39162500Y-17087500D02*
X40762500Y-17587500D01*
X16662500Y-23962500D02*
X16087500Y-24537500D01*
X51462500Y-48737500D02*
X51612500Y-48587500D01*
X12712500Y-34737500D02*
X13312500Y-36737500D01*
X59937500Y-42162500D02*
X59937500Y-42287500D01*
X36512500Y-50537500D02*
X36687500Y-51112500D01*
X59562500Y-47662500D02*
X57262500Y-49937500D01*
X28537500Y-27512500D02*
X28262500Y-27787500D01*
X21487500Y-27262500D02*
X21737500Y-27012500D01*
X19337500Y-24012500D02*
X19187500Y-24012500D01*
X61287500Y-45412500D02*
X59562500Y-47662500D01*
X52112500Y-48587500D02*
X52287500Y-48762500D01*
X50020000Y-49500000D02*
X50557401Y-50037401D01*
X12520000Y-33000000D02*
X13057401Y-33537401D01*
X13712500Y-38237500D02*
X13712500Y-37387500D01*
X27812500Y-20112500D02*
X27812500Y-19812500D01*
X36687500Y-51112500D02*
X37087500Y-51512500D01*
X18712500Y-43837500D02*
X18787500Y-43837500D01*
X50112500Y-49512500D02*
X50737500Y-48887500D01*
X61412500Y-33687500D02*
X62037500Y-34312500D01*
X19737500Y-24687500D02*
X19587500Y-24262500D01*
X36020000Y-48000000D02*
X36557401Y-48537401D01*
X13520000Y-37000000D02*
X14057401Y-37537401D01*
X38287500Y-16712500D02*
X36437500Y-17562500D01*
X21937500Y-27012500D02*
X22287500Y-26662500D01*
X14312500Y-25337500D02*
X15512500Y-25162500D01*
X22437500Y-26412500D02*
X22462500Y-26387500D01*
D51*
X60437500Y-42362500D02*
X60237500Y-42162500D01*
D46*
X19020000Y-44000000D02*
X19557401Y-44537401D01*
X27837500Y-20762500D02*
X27487500Y-21537500D01*
X35237500Y-13687500D02*
X38287500Y-16262500D01*
X52712500Y-49687500D02*
X52712500Y-49237500D01*
X13912500Y-37887500D02*
X13812500Y-37787500D01*
X24520000Y-20500000D02*
X23982598Y-21037401D01*
X22487500Y-19137500D02*
X23337500Y-19137500D01*
X62020000Y-30000000D02*
X62557401Y-30537401D01*
X28262500Y-27787500D02*
X28062500Y-27787500D01*
X24487500Y-20287500D02*
X24487500Y-20437500D01*
X19012500Y-23087500D02*
X19762500Y-22337500D01*
X27887500Y-27962500D02*
X27887500Y-28412500D01*
X17287500Y-23962500D02*
X16662500Y-23962500D01*
X20687500Y-28937500D02*
X20687500Y-27962500D01*
X19587500Y-24262500D02*
X19337500Y-24012500D01*
X27762500Y-20162500D02*
X27812500Y-20112500D01*
X32287500Y-39512500D02*
X32037500Y-39562500D01*
X27737500Y-43687500D02*
X27712500Y-43737500D01*
X21737500Y-27012500D02*
X21937500Y-27012500D01*
X21687500Y-37912500D02*
X21062500Y-38512500D01*
D51*
X62087500Y-41662500D02*
X61387500Y-42362500D01*
D46*
X51612500Y-48587500D02*
X52112500Y-48587500D01*
X53587500Y-49887500D02*
X52912500Y-49887500D01*
X62037500Y-34312500D02*
X62062500Y-34937500D01*
X28537500Y-25662500D02*
X28562500Y-26012500D01*
X13012500Y-26637500D02*
X14312500Y-25337500D01*
X20287500Y-39262500D02*
X20912500Y-38662500D01*
X21337500Y-29112500D02*
X20862500Y-29112500D01*
X12762500Y-33337500D02*
X12712500Y-33387500D01*
X52912500Y-49887500D02*
X52712500Y-49687500D01*
D51*
X62487500Y-40437500D02*
X62087500Y-41662500D01*
D46*
X19187500Y-24012500D02*
X19012500Y-23837500D01*
X13812500Y-37787500D02*
X13812500Y-37487500D01*
X27687500Y-44262500D02*
X27612500Y-44312500D01*
X60762500Y-33687500D02*
X61412500Y-33687500D01*
X12520000Y-31500000D02*
X13057401Y-32037401D01*
X31662500Y-39562500D02*
X31462500Y-39362500D01*
X12725000Y-29000000D02*
X13379073Y-29654073D01*
X22287500Y-26662500D02*
X22287500Y-26562500D01*
X22287500Y-26562500D02*
X22437500Y-26412500D01*
X19012500Y-23837500D02*
X19012500Y-23087500D01*
X41520000Y-50500000D02*
X42057401Y-51037401D01*
X13012500Y-29537500D02*
X13087500Y-29462500D01*
X59520000Y-24500000D02*
X60057401Y-25037401D01*
X52520000Y-49000000D02*
X53057401Y-49537401D01*
X20862500Y-29112500D02*
X20687500Y-28937500D01*
X57520000Y-44000000D02*
X58057401Y-44537401D01*
X62962500Y-29162500D02*
X64237500Y-29162500D01*
X47287500Y-50412500D02*
X49087500Y-50412500D01*
X19487500Y-35787500D02*
X20087500Y-35787500D01*
X20937500Y-27712500D02*
X21137500Y-27712500D01*
X62137500Y-30462500D02*
X62137500Y-30962500D01*
X13712500Y-37387500D02*
X13762500Y-37337500D01*
X12712500Y-31237500D02*
X13012500Y-29537500D01*
X13012500Y-28562500D02*
X13012500Y-26637500D01*
X41287500Y-50712500D02*
X41062500Y-50862500D01*
X38520000Y-16500000D02*
X39057401Y-17037401D01*
X12712500Y-31887500D02*
X12712500Y-32737500D01*
X56212500Y-50437500D02*
X53587500Y-49887500D01*
X21137500Y-27712500D02*
X21487500Y-27362500D01*
X27520000Y-44000000D02*
X28057401Y-44537401D01*
X15512500Y-25162500D02*
X16012500Y-24662500D01*
X28287500Y-36487500D02*
X28887500Y-36487500D01*
X28137500Y-20212500D02*
X28237500Y-19987500D01*
X41762500Y-50662500D02*
X41812500Y-50612500D01*
X32037500Y-39562500D02*
X31662500Y-39562500D01*
D51*
X60237500Y-42012500D02*
X60337500Y-41912500D01*
D46*
X20687500Y-27962500D02*
X20937500Y-27712500D01*
D51*
%TO.N,VDD_0V75_S3*%
X47962500Y-40437500D02*
X47162500Y-40437500D01*
D46*
X56312500Y-46762500D02*
X56062500Y-46962500D01*
D51*
X46362500Y-38887500D02*
X46987500Y-38262500D01*
X47162500Y-40437500D02*
X46937500Y-40212500D01*
D46*
X60587500Y-14862500D02*
X61312500Y-14887500D01*
X56020000Y-47000000D02*
X56020000Y-47760000D01*
X62020000Y-37000000D02*
X62557401Y-37537401D01*
X58812500Y-21612500D02*
X58762500Y-21662500D01*
D51*
X46987500Y-38262500D02*
X46987500Y-35912500D01*
X46987500Y-35912500D02*
X47287500Y-35612500D01*
X46937500Y-40037500D02*
X46687500Y-39787500D01*
X46337500Y-39612500D02*
X46362500Y-38887500D01*
D46*
X62037500Y-36937500D02*
X62037500Y-36187500D01*
D51*
X49312500Y-41787500D02*
X47962500Y-40437500D01*
X46937500Y-40212500D02*
X46937500Y-40037500D01*
D46*
X61987500Y-13137500D02*
X59912500Y-19287500D01*
D51*
X46512500Y-39787500D02*
X46337500Y-39612500D01*
X46687500Y-39787500D02*
X46512500Y-39787500D01*
D46*
X58520000Y-21500000D02*
X59057401Y-22037401D01*
%TO.N,VDD_CPU_BIG_S0*%
X37020000Y-43500000D02*
X37557401Y-44037401D01*
X54312500Y-31312500D02*
X53062500Y-31587500D01*
X54520000Y-35000000D02*
X53982598Y-35537401D01*
X40312500Y-13162500D02*
X40337500Y-13162500D01*
X55012500Y-33537500D02*
X55087500Y-33462500D01*
X34012500Y-30512500D02*
X34012500Y-30562500D01*
X50262500Y-43837500D02*
X50212500Y-43887500D01*
X54725000Y-33000000D02*
X55379073Y-33654073D01*
X49637500Y-9262500D02*
X49362500Y-9537500D01*
X34462500Y-30187500D02*
X34337500Y-30187500D01*
X54725000Y-31000000D02*
X55379073Y-31654073D01*
X44225000Y-22500000D02*
X43370411Y-22146017D01*
X40337500Y-13162500D02*
X41337500Y-14162500D01*
X58020000Y-33000000D02*
X57317851Y-33290839D01*
X50212500Y-43887500D02*
X50212500Y-44737500D01*
X49987500Y-9287500D02*
X49962500Y-9262500D01*
X43712500Y-21787500D02*
X43712500Y-22187500D01*
X54712500Y-34737500D02*
X55012500Y-33537500D01*
X49962500Y-9262500D02*
X49637500Y-9262500D01*
X57837500Y-31912500D02*
X57837500Y-32737500D01*
X54520000Y-36500000D02*
X55057401Y-37037401D01*
X50020000Y-43500000D02*
X50557401Y-44037401D01*
X54312500Y-33187500D02*
X54237500Y-33187500D01*
X43487500Y-22512500D02*
X43662500Y-22337500D01*
X58020000Y-31500000D02*
X57482598Y-32037401D01*
X41337500Y-14162500D02*
X41362500Y-16287500D01*
X34520000Y-35000000D02*
X33982598Y-35537401D01*
X34287500Y-36512500D02*
X34212500Y-36512500D01*
X50020000Y-45000000D02*
X50557401Y-45537401D01*
X54520000Y-29000000D02*
X55057401Y-29537401D01*
X52037500Y-11912500D02*
X50237500Y-9537500D01*
X43662500Y-22337500D02*
X43662500Y-22312500D01*
X39387500Y-12787500D02*
X40312500Y-13162500D01*
X34337500Y-30187500D02*
X34012500Y-30512500D01*
X43712500Y-22187500D02*
X43687500Y-22212500D01*
X43112500Y-22562500D02*
X43487500Y-22512500D01*
X50237500Y-9537500D02*
X49987500Y-9287500D01*
X57812500Y-31887500D02*
X57837500Y-31912500D01*
X57762500Y-31837500D02*
X57812500Y-31887500D01*
X34520000Y-29000000D02*
X34520000Y-30510000D01*
X57212500Y-38237500D02*
X57387500Y-38412500D01*
X41362500Y-16287500D02*
X41437500Y-16362500D01*
%TO.N,VDD_CPU_LIT_S0*%
X44687500Y-18737500D02*
X44687500Y-18637500D01*
X47225000Y-19000000D02*
X47879073Y-19654073D01*
X47487500Y-19762500D02*
X47737500Y-20012500D01*
X54962500Y-42537500D02*
X52962500Y-42987500D01*
X52587500Y-12612500D02*
X52387500Y-12412500D01*
X41225000Y-19000000D02*
X41879073Y-19654073D01*
X48362500Y-19987500D02*
X48637500Y-19712500D01*
X52962500Y-42987500D02*
X52937500Y-43012500D01*
X47520000Y-46500000D02*
X48057401Y-47037401D01*
X57337500Y-26187500D02*
X57237500Y-26187500D01*
X55020000Y-42500000D02*
X55557401Y-43037401D01*
X44812500Y-19112500D02*
X44762500Y-19162500D01*
X47612500Y-19212500D02*
X47687500Y-19212500D01*
X56587500Y-39537500D02*
X56962500Y-39537500D01*
X52312500Y-15512500D02*
X52662500Y-15162500D01*
X47112500Y-46612500D02*
X47462500Y-46537500D01*
X47462500Y-19412500D02*
X47487500Y-19762500D01*
X57020000Y-26000000D02*
X56482598Y-25462598D01*
X37020000Y-45000000D02*
X37557401Y-45537401D01*
X54962500Y-42462500D02*
X53187500Y-42312500D01*
X57020000Y-39500000D02*
X57557401Y-40037401D01*
X50862500Y-15562500D02*
X52312500Y-15512500D01*
X47737500Y-20012500D02*
X48362500Y-19987500D01*
X52662500Y-15162500D02*
X52587500Y-12612500D01*
X56812500Y-27237500D02*
X56762500Y-27187500D01*
X57020000Y-27500000D02*
X57557401Y-28037401D01*
X44520000Y-19000000D02*
X45057401Y-19537401D01*
X56187500Y-39762500D02*
X56587500Y-39537500D01*
X41412500Y-19487500D02*
X41537500Y-19412500D01*
%TO.N,VDD_DDR_S0*%
X43812500Y-49912500D02*
X39437500Y-49912500D01*
X54187500Y-46212500D02*
X55787500Y-45987500D01*
X39212500Y-49687500D02*
X39212500Y-49387500D01*
X29912500Y-21262500D02*
X29912500Y-19087500D01*
X59962500Y-17787500D02*
X56612500Y-17787500D01*
X44637500Y-50312500D02*
X44762500Y-50187500D01*
X64762500Y-29537500D02*
X64762500Y-27762500D01*
X52887500Y-16012500D02*
X50387500Y-16012500D01*
X33520000Y-20000000D02*
X34057401Y-20537401D01*
X53812500Y-18737500D02*
X53437500Y-16562500D01*
X63912500Y-30387500D02*
X64762500Y-29537500D01*
X56612500Y-17787500D02*
X54862500Y-16037500D01*
X57287500Y-44962500D02*
X56537500Y-44962500D01*
X53812500Y-18737500D02*
X53512500Y-15537500D01*
X55837500Y-45937500D02*
X55962500Y-45937500D01*
X44225000Y-50000000D02*
X44879073Y-50654073D01*
X33762500Y-20162500D02*
X33887500Y-20037500D01*
X29912500Y-19087500D02*
X29912500Y-21262500D01*
X33462500Y-19962500D02*
X31737500Y-19562500D01*
X50387500Y-16012500D02*
X49662500Y-16737500D01*
X57837500Y-45312500D02*
X57287500Y-44962500D01*
X46487500Y-49537500D02*
X47287500Y-49537500D01*
X29912500Y-21262500D02*
X30787500Y-22137500D01*
X59537500Y-39662500D02*
X59537500Y-39737500D01*
X40362500Y-18737500D02*
X41362500Y-17737500D01*
X42462500Y-17737500D02*
X42862500Y-17337500D01*
X59662500Y-40237500D02*
X59587500Y-40312500D01*
X39020000Y-49000000D02*
X39557401Y-49537401D01*
X30587500Y-18412500D02*
X29912500Y-19087500D01*
X56537500Y-44962500D02*
X56237500Y-45262500D01*
X54037500Y-15212500D02*
X54012500Y-18937500D01*
X56020000Y-45500000D02*
X56020000Y-46260000D01*
X53437500Y-16562500D02*
X52887500Y-16012500D01*
X47520000Y-49500000D02*
X48057401Y-50037401D01*
X39437500Y-49912500D02*
X39212500Y-49687500D01*
X31262500Y-18412500D02*
X30587500Y-18412500D01*
X31487500Y-19312500D02*
X31487500Y-18637500D01*
X63612500Y-30462500D02*
X63912500Y-30387500D01*
X59520000Y-40000000D02*
X60057401Y-40537401D01*
X41362500Y-17737500D02*
X42462500Y-17737500D01*
X31487500Y-18637500D02*
X31262500Y-18412500D01*
X31737500Y-19562500D02*
X31487500Y-19312500D01*
X47762500Y-49662500D02*
X47812500Y-49612500D01*
X55787500Y-45987500D02*
X55837500Y-45937500D01*
X31287500Y-22137500D02*
X30787500Y-22137500D01*
X31520000Y-22000000D02*
X30982598Y-22537401D01*
X30787500Y-22137500D02*
X31287500Y-22137500D01*
X39212500Y-49387500D02*
X39262500Y-49337500D01*
X30787500Y-22137500D02*
X29912500Y-21262500D01*
X54020000Y-19000000D02*
X54020000Y-19760000D01*
%TO.N,VDD_GPU_S0*%
X43887500Y-48462500D02*
X43912500Y-48412500D01*
X29887500Y-25987500D02*
X31237500Y-27337500D01*
X31837500Y-24837500D02*
X30587500Y-24837500D01*
X49387500Y-46912500D02*
X48987500Y-46912500D01*
X30437500Y-22912500D02*
X28687500Y-21162500D01*
X39362500Y-47187500D02*
X39512500Y-47187500D01*
X29787500Y-25062500D02*
X29887500Y-25987500D01*
X45412500Y-47212500D02*
X44462500Y-48162500D01*
X50462500Y-46162500D02*
X50737500Y-45887500D01*
X55662500Y-23512500D02*
X56312500Y-23512500D01*
X49962500Y-46537500D02*
X49387500Y-46912500D01*
X52520000Y-45000000D02*
X53057401Y-45537401D01*
X51837500Y-20387500D02*
X52462500Y-20962500D01*
X56312500Y-23512500D02*
X56687500Y-23887500D01*
X33962500Y-23037500D02*
X31837500Y-24837500D01*
X31237500Y-27337500D02*
X31262500Y-27362500D01*
X43362500Y-30462500D02*
X43362500Y-30962500D01*
X36520000Y-21000000D02*
X36520000Y-21760000D01*
X51837500Y-45662500D02*
X52287500Y-45212500D01*
X50020000Y-46500000D02*
X50557401Y-47037401D01*
X44225000Y-48000000D02*
X44879073Y-48654073D01*
X50737500Y-45887500D02*
X51837500Y-45662500D01*
X52520000Y-21000000D02*
X52520000Y-21760000D01*
X34020000Y-23000000D02*
X34557401Y-23537401D01*
X55237500Y-23212500D02*
X55662500Y-23512500D01*
X38520000Y-19500000D02*
X39057401Y-20037401D01*
X31487500Y-22587500D02*
X31162500Y-22912500D01*
X55020000Y-23000000D02*
X55875599Y-23855599D01*
X39187500Y-47362500D02*
X39362500Y-47187500D01*
X38725000Y-47000000D02*
X39379073Y-47654073D01*
X50512500Y-46887500D02*
X50462500Y-46837500D01*
X33662500Y-22587500D02*
X31487500Y-22587500D01*
X33812500Y-22737500D02*
X33662500Y-22587500D01*
X50462500Y-46837500D02*
X50462500Y-46162500D01*
X31162500Y-22912500D02*
X30437500Y-22912500D01*
%TO.N,VDD_LOGIC_S0*%
X38520000Y-18000000D02*
X38810839Y-18702148D01*
X31520000Y-23500000D02*
X32057401Y-24037401D01*
X57812500Y-30187500D02*
X57637500Y-30362500D01*
X52725000Y-47000000D02*
X53379073Y-47654073D01*
X61037500Y-30962500D02*
X60737500Y-31262500D01*
X38212500Y-18462500D02*
X38512500Y-18162500D01*
X59412500Y-28412500D02*
X57812500Y-30187500D01*
X60520000Y-31500000D02*
X61057401Y-32037401D01*
X55537500Y-21237500D02*
X56037500Y-20737500D01*
X46237500Y-51387500D02*
X45212500Y-51387500D01*
X46737500Y-51887500D02*
X46237500Y-51387500D01*
X50287500Y-48187500D02*
X50412500Y-48062500D01*
X57037500Y-30062500D02*
X57037500Y-30037500D01*
X52887500Y-46487500D02*
X52887500Y-46562500D01*
X36020000Y-46500000D02*
X36557401Y-47037401D01*
X57520000Y-42500000D02*
X58057401Y-43037401D01*
X57637500Y-30362500D02*
X57337500Y-30362500D01*
X60112500Y-27662500D02*
X60412500Y-27587500D01*
X48562500Y-14212500D02*
X48562500Y-13237500D01*
X41520000Y-49000000D02*
X42057401Y-49537401D01*
X59487500Y-25662500D02*
X59487500Y-25737500D01*
X41737500Y-49212500D02*
X41587500Y-49387500D01*
X48562500Y-13237500D02*
X48262500Y-12937500D01*
X48212500Y-13437500D02*
X49912500Y-15137500D01*
X59520000Y-26000000D02*
X58982598Y-25462598D01*
X57287500Y-42562500D02*
X57212500Y-42562500D01*
X61662500Y-30887500D02*
X61037500Y-30962500D01*
X36020000Y-19500000D02*
X36557401Y-20037401D01*
X46562500Y-14887500D02*
X47987500Y-14787500D01*
X59520000Y-38500000D02*
X60057401Y-39037401D01*
X53987500Y-21412500D02*
X54812500Y-21312500D01*
X50020000Y-48000000D02*
X50557401Y-48537401D01*
X59725000Y-28000000D02*
X60379073Y-28654073D01*
X59612500Y-38837500D02*
X59687500Y-38762500D01*
X57337500Y-30362500D02*
X57037500Y-30062500D01*
X41812500Y-49137500D02*
X41762500Y-49162500D01*
X60087500Y-32312500D02*
X60087500Y-32012500D01*
X37112500Y-18512500D02*
X38212500Y-18462500D01*
X49812500Y-48237500D02*
X49537500Y-48612500D01*
X49237500Y-48912500D02*
X48662500Y-48912500D01*
X36112500Y-19512500D02*
X37112500Y-18512500D01*
X55225000Y-21000000D02*
X55879073Y-21654073D01*
X48512500Y-51637500D02*
X48237500Y-51912500D01*
X31737500Y-23787500D02*
X31712500Y-23737500D01*
X48237500Y-51912500D02*
X46737500Y-51887500D01*
X60312500Y-32737500D02*
X60087500Y-32312500D01*
X38362500Y-17737500D02*
X38362500Y-17137500D01*
X35787500Y-19262500D02*
X35012500Y-19262500D01*
X47987500Y-14787500D02*
X48562500Y-14212500D01*
X59912500Y-28637500D02*
X59912500Y-28762500D01*
X49537500Y-48612500D02*
X49237500Y-48912500D01*
X60087500Y-28462500D02*
X59912500Y-28637500D01*
X60087500Y-32012500D02*
X60512500Y-31587500D01*
X57520000Y-23000000D02*
X56982598Y-23537401D01*
X57212500Y-22962500D02*
X57287500Y-22962500D01*
%TO.N,VDD_NPU_S0*%
X34020000Y-21500000D02*
X34020000Y-22260000D01*
X59520000Y-30000000D02*
X60057401Y-30537401D01*
X59725000Y-35000000D02*
X60379073Y-35654073D01*
X52412500Y-48337500D02*
X53187500Y-48412500D01*
X59520000Y-37000000D02*
X60057401Y-37537401D01*
X50725000Y-19000000D02*
X51379073Y-19654073D01*
X57020000Y-24500000D02*
X57310839Y-25202148D01*
X56712500Y-24337500D02*
X56787500Y-24337500D01*
X52062500Y-17712500D02*
X51112500Y-18662500D01*
X54662500Y-43937500D02*
X54787500Y-43937500D01*
X47812500Y-48212500D02*
X47912500Y-48087500D01*
X55020000Y-44000000D02*
X54729160Y-43297851D01*
X59737500Y-36762500D02*
X60337500Y-36162500D01*
X57020000Y-41000000D02*
X56729160Y-41702148D01*
X47520000Y-48000000D02*
X48057401Y-48537401D01*
D47*
%TO.N,WIFI_ANT*%
X4262500Y-15637500D02*
X4712500Y-16337500D01*
%TO.N,WIFI_PD_GPIO*%
X28537500Y-18712500D02*
X23937500Y-18187500D01*
X23937500Y-18187500D02*
X23537500Y-17787500D01*
X23537500Y-17787500D02*
X16787500Y-17787500D01*
%TO.N,WIFI_USB_DP*%
X75112500Y-29362500D02*
X78012500Y-35662500D01*
X50137500Y-5862500D02*
X54212500Y-9912500D01*
X43237500Y-6162500D02*
X48687500Y-5762500D01*
X48687500Y-5762500D02*
X50137500Y-5862500D01*
X54212500Y-9912500D02*
X54487500Y-9912500D01*
%TD*%
M02*
