%TF.GenerationSoftware,KiCad,Pcbnew,9.0.9-9.0.9~ubuntu24.04.1*%
%TF.CreationDate,2026-10-04T04:00:44+00:00*%
%TF.ProjectId,rk3576-sbc,726b3335-3736-42d7-9362-632e6b696361,rev?*%
%TF.SameCoordinates,Original*%
%TF.FileFunction,Copper,L8,Bot*%
%TF.FilePolarity,Positive*%
%FSLAX46Y46*%
G04 Gerber Fmt 4.6, Leading zero omitted, Abs format (unit mm)*
G04 Created by KiCad (PCBNEW 9.0.9-9.0.9~ubuntu24.04.1) date 2026-10-04 04:00:44*
%MOMM*%
%LPD*%
G01*
G04 APERTURE LIST*
G04 Aperture macros list*
%AMRoundRect*
0 Rectangle with rounded corners*
0 $1 Rounding radius*
0 $2 $3 $4 $5 $6 $7 $8 $9 X,Y pos of 4 corners*
0 Add a 4 corners polygon primitive as box body*
4,1,4,$2,$3,$4,$5,$6,$7,$8,$9,$2,$3,0*
0 Add four circle primitives for the rounded corners*
1,1,$1+$1,$2,$3*
1,1,$1+$1,$4,$5*
1,1,$1+$1,$6,$7*
1,1,$1+$1,$8,$9*
0 Add four rect primitives between the rounded corners*
20,1,$1+$1,$2,$3,$4,$5,0*
20,1,$1+$1,$4,$5,$6,$7,0*
20,1,$1+$1,$6,$7,$8,$9,0*
20,1,$1+$1,$8,$9,$2,$3,0*%
G04 Aperture macros list end*
%TA.AperFunction,HeatsinkPad*%
%ADD10O,1.000000X2.100000*%
%TD*%
%TA.AperFunction,HeatsinkPad*%
%ADD11O,1.000000X1.600000*%
%TD*%
%TA.AperFunction,ComponentPad*%
%ADD12RoundRect,0.250000X0.350000X-0.350000X0.350000X0.350000X-0.350000X0.350000X-0.350000X-0.350000X0*%
%TD*%
%TA.AperFunction,ComponentPad*%
%ADD13C,1.200000*%
%TD*%
%TA.AperFunction,ComponentPad*%
%ADD14O,2.400000X1.200000*%
%TD*%
%TA.AperFunction,ComponentPad*%
%ADD15O,2.100000X1.200000*%
%TD*%
%TA.AperFunction,ComponentPad*%
%ADD16C,0.800000*%
%TD*%
%TA.AperFunction,ComponentPad*%
%ADD17C,5.400000*%
%TD*%
%TA.AperFunction,HeatsinkPad*%
%ADD18C,0.500000*%
%TD*%
%TA.AperFunction,HeatsinkPad*%
%ADD19R,5.200000X5.200000*%
%TD*%
%TA.AperFunction,ComponentPad*%
%ADD20R,1.700000X1.700000*%
%TD*%
%TA.AperFunction,ComponentPad*%
%ADD21C,1.700000*%
%TD*%
%TA.AperFunction,ComponentPad*%
%ADD22O,1.500000X3.300000*%
%TD*%
%TA.AperFunction,ComponentPad*%
%ADD23O,1.500000X2.300000*%
%TD*%
%TA.AperFunction,SMDPad,CuDef*%
%ADD24RoundRect,0.140000X-0.140000X-0.170000X0.140000X-0.170000X0.140000X0.170000X-0.140000X0.170000X0*%
%TD*%
%TA.AperFunction,SMDPad,CuDef*%
%ADD25RoundRect,0.100000X-0.130000X-0.100000X0.130000X-0.100000X0.130000X0.100000X-0.130000X0.100000X0*%
%TD*%
%TA.AperFunction,SMDPad,CuDef*%
%ADD26RoundRect,0.225000X-0.225000X-0.250000X0.225000X-0.250000X0.225000X0.250000X-0.225000X0.250000X0*%
%TD*%
%TA.AperFunction,SMDPad,CuDef*%
%ADD27RoundRect,0.135000X-0.135000X-0.185000X0.135000X-0.185000X0.135000X0.185000X-0.135000X0.185000X0*%
%TD*%
%TA.AperFunction,SMDPad,CuDef*%
%ADD28C,4.000000*%
%TD*%
%TA.AperFunction,SMDPad,CuDef*%
%ADD29R,1.200000X0.700000*%
%TD*%
%TA.AperFunction,SMDPad,CuDef*%
%ADD30R,0.800000X1.000000*%
%TD*%
%TA.AperFunction,SMDPad,CuDef*%
%ADD31R,2.800000X1.000000*%
%TD*%
%TA.AperFunction,SMDPad,CuDef*%
%ADD32R,1.200000X1.000000*%
%TD*%
%TA.AperFunction,SMDPad,CuDef*%
%ADD33R,1.900000X1.300000*%
%TD*%
%TA.AperFunction,SMDPad,CuDef*%
%ADD34RoundRect,0.150000X0.512500X0.150000X-0.512500X0.150000X-0.512500X-0.150000X0.512500X-0.150000X0*%
%TD*%
%TA.AperFunction,SMDPad,CuDef*%
%ADD35R,1.200000X0.300000*%
%TD*%
%TA.AperFunction,SMDPad,CuDef*%
%ADD36R,2.600000X1.400000*%
%TD*%
G04 APERTURE END LIST*
D10*
%TO.P,J101,S1*%
%TO.N,GND*%
X9680000Y-49675000D03*
D11*
X9680000Y-53855000D03*
D10*
X18320000Y-49675000D03*
D11*
X18320000Y-53855000D03*
%TD*%
D12*
%TO.P,J1001,1*%
%TO.N,VBUS_USB3A*%
X74655000Y-31500000D03*
D13*
%TO.P,J1001,2*%
%TO.N,USB3A_DM*%
X74655000Y-29000000D03*
%TO.P,J1001,3*%
%TO.N,USB3A_DP*%
X74655000Y-27000000D03*
%TO.P,J1001,4*%
%TO.N,GND*%
X74655000Y-24500000D03*
%TO.P,J1001,5*%
%TO.N,USB3_RXN*%
X73155000Y-24000000D03*
%TO.P,J1001,6*%
%TO.N,USB3_RXP*%
X73155000Y-26000000D03*
%TO.P,J1001,7*%
%TO.N,GND*%
X73155000Y-28000000D03*
%TO.P,J1001,8*%
%TO.N,USB3A_SSTXN*%
X73155000Y-30000000D03*
%TO.P,J1001,9*%
%TO.N,USB3A_SSTXP*%
X73155000Y-32000000D03*
D14*
%TO.P,J1001,10*%
%TO.N,GND*%
X73905000Y-34400000D03*
D15*
X82405000Y-34400000D03*
D14*
X73905000Y-21600000D03*
D15*
X82405000Y-21600000D03*
%TD*%
D16*
%TO.P,H1203,1*%
%TO.N,GND*%
X1475000Y-52500000D03*
X2068109Y-51068109D03*
X2068109Y-53931891D03*
X3500000Y-50475000D03*
D17*
X3500000Y-52500000D03*
D16*
X3500000Y-54525000D03*
X4931891Y-51068109D03*
X4931891Y-53931891D03*
X5525000Y-52500000D03*
%TD*%
D18*
%TO.P,U201,69*%
%TO.N,GND*%
X37650000Y-4650000D03*
X37650000Y-5825000D03*
X37650000Y-7000000D03*
X37650000Y-8175000D03*
X37650000Y-9350000D03*
X38825000Y-4650000D03*
X38825000Y-5825000D03*
X38825000Y-7000000D03*
X38825000Y-8175000D03*
X38825000Y-9350000D03*
X40000000Y-4650000D03*
X40000000Y-5825000D03*
X40000000Y-7000000D03*
D19*
X40000000Y-7000000D03*
D18*
X40000000Y-8175000D03*
X40000000Y-9350000D03*
X41175000Y-4650000D03*
X41175000Y-5825000D03*
X41175000Y-7000000D03*
X41175000Y-8175000D03*
X41175000Y-9350000D03*
X42350000Y-4650000D03*
X42350000Y-5825000D03*
X42350000Y-7000000D03*
X42350000Y-8175000D03*
X42350000Y-9350000D03*
%TD*%
D20*
%TO.P,J501,1*%
%TO.N,GND*%
X64000000Y-52600000D03*
D21*
%TO.P,J501,2*%
%TO.N,DBG_UART_TX*%
X66540000Y-52600000D03*
%TO.P,J501,3*%
%TO.N,DBG_UART_RX*%
X69080000Y-52600000D03*
%TD*%
D16*
%TO.P,H1204,1*%
%TO.N,GND*%
X79475000Y-52500000D03*
X80068109Y-51068109D03*
X80068109Y-53931891D03*
X81500000Y-50475000D03*
D17*
X81500000Y-52500000D03*
D16*
X81500000Y-54525000D03*
X82931891Y-51068109D03*
X82931891Y-53931891D03*
X83525000Y-52500000D03*
%TD*%
%TO.P,H1201,1*%
%TO.N,GND*%
X1475000Y-3500000D03*
X2068109Y-2068109D03*
X2068109Y-4931891D03*
X3500000Y-1475000D03*
D17*
X3500000Y-3500000D03*
D16*
X3500000Y-5525000D03*
X4931891Y-2068109D03*
X4931891Y-4931891D03*
X5525000Y-3500000D03*
%TD*%
D22*
%TO.P,J901,SH*%
%TO.N,GND*%
X43250000Y-45900000D03*
X28750000Y-45900000D03*
D23*
X43250000Y-51860000D03*
X28750000Y-51860000D03*
%TD*%
D16*
%TO.P,H1202,1*%
%TO.N,GND*%
X79475000Y-3500000D03*
X80068109Y-2068109D03*
X80068109Y-4931891D03*
X81500000Y-1475000D03*
D17*
X81500000Y-3500000D03*
D16*
X81500000Y-5525000D03*
X82931891Y-2068109D03*
X82931891Y-4931891D03*
X83525000Y-3500000D03*
%TD*%
D24*
%TO.P,C628,1*%
%TO.N,VDDQ_DDR_S0*%
X22020000Y-18500000D03*
%TO.P,C628,2*%
%TO.N,GND*%
X22980000Y-18500000D03*
%TD*%
D25*
%TO.P,R706,1*%
%TO.N,EMMC_DAT4*%
X60680000Y-12000000D03*
%TO.P,R706,2*%
%TO.N,VCC_1V8_S3*%
X61320000Y-12000000D03*
%TD*%
D24*
%TO.P,C611,1*%
%TO.N,VDD2H_DDR_S3*%
X22520000Y-29000000D03*
%TO.P,C611,2*%
%TO.N,GND*%
X23480000Y-29000000D03*
%TD*%
%TO.P,C630,1*%
%TO.N,VDDQ_DDR_S0*%
X11520000Y-24000000D03*
%TO.P,C630,2*%
%TO.N,GND*%
X12480000Y-24000000D03*
%TD*%
%TO.P,C437,1*%
%TO.N,VDD_NPU_S0*%
X39520000Y-16000000D03*
%TO.P,C437,2*%
%TO.N,GND*%
X40480000Y-16000000D03*
%TD*%
%TO.P,C410,1*%
%TO.N,VDD_CPU_BIG_S0*%
X39520000Y-22000000D03*
%TO.P,C410,2*%
%TO.N,GND*%
X40480000Y-22000000D03*
%TD*%
D25*
%TO.P,R703,1*%
%TO.N,EMMC_DAT1*%
X62680000Y-13500000D03*
%TO.P,R703,2*%
%TO.N,VCC_1V8_S3*%
X63320000Y-13500000D03*
%TD*%
D24*
%TO.P,C4116,1*%
%TO.N,VCC_1V8_S3*%
X42020000Y-20000000D03*
%TO.P,C4116,2*%
%TO.N,GND*%
X42980000Y-20000000D03*
%TD*%
D26*
%TO.P,C316,1*%
%TO.N,VCC3V3_PCIE*%
X59725000Y-31000000D03*
%TO.P,C316,2*%
%TO.N,GND*%
X61275000Y-31000000D03*
%TD*%
D24*
%TO.P,C498,1*%
%TO.N,VDDA_0V85_S0*%
X28020000Y-33500000D03*
%TO.P,C498,2*%
%TO.N,GND*%
X28980000Y-33500000D03*
%TD*%
%TO.P,C616,1*%
%TO.N,VDD2L_DDR_S3*%
X25020000Y-26000000D03*
%TO.P,C616,2*%
%TO.N,GND*%
X25980000Y-26000000D03*
%TD*%
%TO.P,C4108,1*%
%TO.N,VCCA_1V8_S0*%
X45020000Y-26000000D03*
%TO.P,C4108,2*%
%TO.N,GND*%
X45980000Y-26000000D03*
%TD*%
%TO.P,C462,1*%
%TO.N,VDD_DDR_S0*%
X49520000Y-20000000D03*
%TO.P,C462,2*%
%TO.N,GND*%
X50480000Y-20000000D03*
%TD*%
%TO.P,C612,1*%
%TO.N,VDD2H_DDR_S3*%
X16520000Y-22500000D03*
%TO.P,C612,2*%
%TO.N,GND*%
X17480000Y-22500000D03*
%TD*%
%TO.P,C443,1*%
%TO.N,VDD_NPU_S0*%
X29020000Y-27500000D03*
%TO.P,C443,2*%
%TO.N,GND*%
X29980000Y-27500000D03*
%TD*%
D26*
%TO.P,C602,1*%
%TO.N,VDD2H_DDR_S3*%
X15725000Y-26000000D03*
%TO.P,C602,2*%
%TO.N,GND*%
X17275000Y-26000000D03*
%TD*%
D24*
%TO.P,C409,1*%
%TO.N,VDD_CPU_BIG_S0*%
X36520000Y-28000000D03*
%TO.P,C409,2*%
%TO.N,GND*%
X37480000Y-28000000D03*
%TD*%
%TO.P,C4128,1*%
%TO.N,VCCIO_SD_S0*%
X42020000Y-18500000D03*
%TO.P,C4128,2*%
%TO.N,GND*%
X42980000Y-18500000D03*
%TD*%
%TO.P,C4123,1*%
%TO.N,VCC_3V3_S3*%
X39520000Y-19000000D03*
%TO.P,C4123,2*%
%TO.N,GND*%
X40480000Y-19000000D03*
%TD*%
%TO.P,C4111,1*%
%TO.N,VCCA_1V8_S0*%
X45020000Y-27500000D03*
%TO.P,C4111,2*%
%TO.N,GND*%
X45980000Y-27500000D03*
%TD*%
%TO.P,C496,1*%
%TO.N,VDDA_0V85_S0*%
X30020000Y-16500000D03*
%TO.P,C496,2*%
%TO.N,GND*%
X30980000Y-16500000D03*
%TD*%
%TO.P,C605,1*%
%TO.N,VDD2H_DDR_S3*%
X22520000Y-27500000D03*
%TO.P,C605,2*%
%TO.N,GND*%
X23480000Y-27500000D03*
%TD*%
%TO.P,C617,1*%
%TO.N,VDD2L_DDR_S3*%
X14020000Y-24000000D03*
%TO.P,C617,2*%
%TO.N,GND*%
X14980000Y-24000000D03*
%TD*%
%TO.P,C806,1*%
%TO.N,VCC3V3_PCIE*%
X61020000Y-37000000D03*
%TO.P,C806,2*%
%TO.N,GND*%
X61980000Y-37000000D03*
%TD*%
%TO.P,C481,1*%
%TO.N,VDDA_0V75_S0*%
X44520000Y-38000000D03*
%TO.P,C481,2*%
%TO.N,GND*%
X45480000Y-38000000D03*
%TD*%
%TO.P,C4115,1*%
%TO.N,VCC_1V8_S3*%
X45020000Y-29000000D03*
%TO.P,C4115,2*%
%TO.N,GND*%
X45980000Y-29000000D03*
%TD*%
%TO.P,C705,1*%
%TO.N,VCC_1V8_S3*%
X60520000Y-13500000D03*
%TO.P,C705,2*%
%TO.N,GND*%
X61480000Y-13500000D03*
%TD*%
D27*
%TO.P,R504,1*%
%TO.N,LED_SYS_A*%
X30990000Y-15000000D03*
%TO.P,R504,2*%
%TO.N,VCC_3V3_S0*%
X32010000Y-15000000D03*
%TD*%
D28*
%TO.P,H802,1*%
%TO.N,GND*%
X35000000Y-33000000D03*
%TD*%
D24*
%TO.P,C468,1*%
%TO.N,VDDQ_DDR_S0*%
X42020000Y-38000000D03*
%TO.P,C468,2*%
%TO.N,GND*%
X42980000Y-38000000D03*
%TD*%
%TO.P,C495,1*%
%TO.N,VDDA_0V85_S0*%
X33520000Y-38000000D03*
%TO.P,C495,2*%
%TO.N,GND*%
X34480000Y-38000000D03*
%TD*%
%TO.P,C625,1*%
%TO.N,VDDQ_DDR_S0*%
X16020000Y-19500000D03*
%TO.P,C625,2*%
%TO.N,GND*%
X16980000Y-19500000D03*
%TD*%
%TO.P,C414,1*%
%TO.N,VDD_CPU_BIG_S0*%
X31520000Y-24500000D03*
%TO.P,C414,2*%
%TO.N,GND*%
X32480000Y-24500000D03*
%TD*%
D26*
%TO.P,C427,1*%
%TO.N,VDD_GPU_S0*%
X44725000Y-18000000D03*
%TO.P,C427,2*%
%TO.N,GND*%
X46275000Y-18000000D03*
%TD*%
D24*
%TO.P,C4105,1*%
%TO.N,VCCA_1V8_S0*%
X42020000Y-21500000D03*
%TO.P,C4105,2*%
%TO.N,GND*%
X42980000Y-21500000D03*
%TD*%
D27*
%TO.P,R802,1*%
%TO.N,PCIE0_WAKE_L*%
X60990000Y-38500000D03*
%TO.P,R802,2*%
%TO.N,VCC_3V3_S0*%
X62010000Y-38500000D03*
%TD*%
D24*
%TO.P,C706,1*%
%TO.N,VCC_1V8_S3*%
X60520000Y-16500000D03*
%TO.P,C706,2*%
%TO.N,GND*%
X61480000Y-16500000D03*
%TD*%
%TO.P,C464,1*%
%TO.N,VDD_DDR_S0*%
X30520000Y-33500000D03*
%TO.P,C464,2*%
%TO.N,GND*%
X31480000Y-33500000D03*
%TD*%
D26*
%TO.P,C436,1*%
%TO.N,VDD_NPU_S0*%
X38725000Y-36500000D03*
%TO.P,C436,2*%
%TO.N,GND*%
X40275000Y-36500000D03*
%TD*%
D27*
%TO.P,R716,1*%
%TO.N,SD_DET_L*%
X19215000Y-37530000D03*
%TO.P,R716,2*%
%TO.N,VCC_3V3_S3*%
X20235000Y-37530000D03*
%TD*%
D24*
%TO.P,C603,1*%
%TO.N,VDD2H_DDR_S3*%
X22520000Y-26000000D03*
%TO.P,C603,2*%
%TO.N,GND*%
X23480000Y-26000000D03*
%TD*%
%TO.P,C456,1*%
%TO.N,VDD_LOGIC_S0*%
X48020000Y-18500000D03*
%TO.P,C456,2*%
%TO.N,GND*%
X48980000Y-18500000D03*
%TD*%
D27*
%TO.P,R712,1*%
%TO.N,SD_D1*%
X6715000Y-48030000D03*
%TO.P,R712,2*%
%TO.N,VCCIO_SD_S0*%
X7735000Y-48030000D03*
%TD*%
%TO.P,R601,1*%
%TO.N,LP5_ZQ*%
X24490000Y-18500000D03*
%TO.P,R601,2*%
%TO.N,VDDQ_DDR_S0*%
X25510000Y-18500000D03*
%TD*%
D26*
%TO.P,C435,1*%
%TO.N,VDD_NPU_S0*%
X36225000Y-16000000D03*
%TO.P,C435,2*%
%TO.N,GND*%
X37775000Y-16000000D03*
%TD*%
D24*
%TO.P,C485,1*%
%TO.N,VDDA_0V75_S0*%
X26520000Y-27500000D03*
%TO.P,C485,2*%
%TO.N,GND*%
X27480000Y-27500000D03*
%TD*%
%TO.P,C4124,1*%
%TO.N,VCC_3V3_S0*%
X39520000Y-33000000D03*
%TO.P,C4124,2*%
%TO.N,GND*%
X40480000Y-33000000D03*
%TD*%
D25*
%TO.P,C801,1*%
%TO.N,PCIE0_TXP*%
X70180000Y-33000000D03*
%TO.P,C801,2*%
%TO.N,M2_PETP0*%
X70820000Y-33000000D03*
%TD*%
D24*
%TO.P,C608,1*%
%TO.N,VDD2H_DDR_S3*%
X19520000Y-22000000D03*
%TO.P,C608,2*%
%TO.N,GND*%
X20480000Y-22000000D03*
%TD*%
D25*
%TO.P,R708,1*%
%TO.N,EMMC_DAT6*%
X58680000Y-12500000D03*
%TO.P,R708,2*%
%TO.N,VCC_1V8_S3*%
X59320000Y-12500000D03*
%TD*%
D24*
%TO.P,C619,1*%
%TO.N,VDD2L_DDR_S3*%
X16020000Y-21000000D03*
%TO.P,C619,2*%
%TO.N,GND*%
X16980000Y-21000000D03*
%TD*%
%TO.P,C422,1*%
%TO.N,VDD_CPU_LIT_S0*%
X31520000Y-23000000D03*
%TO.P,C422,2*%
%TO.N,GND*%
X32480000Y-23000000D03*
%TD*%
%TO.P,C438,1*%
%TO.N,VDD_NPU_S0*%
X30520000Y-30500000D03*
%TO.P,C438,2*%
%TO.N,GND*%
X31480000Y-30500000D03*
%TD*%
D27*
%TO.P,R1002,1*%
%TO.N,USB_OTG0_VBUSDET*%
X33490000Y-13500000D03*
%TO.P,R1002,2*%
%TO.N,GND*%
X34510000Y-13500000D03*
%TD*%
D24*
%TO.P,C4121,1*%
%TO.N,VCC_1V8_S3*%
X44520000Y-30500000D03*
%TO.P,C4121,2*%
%TO.N,GND*%
X45480000Y-30500000D03*
%TD*%
%TO.P,C632,1*%
%TO.N,VDD1_DDR_S3*%
X17020000Y-18000000D03*
%TO.P,C632,2*%
%TO.N,GND*%
X17980000Y-18000000D03*
%TD*%
%TO.P,C499,1*%
%TO.N,VDDA_1V2_S0*%
X47020000Y-37500000D03*
%TO.P,C499,2*%
%TO.N,GND*%
X47980000Y-37500000D03*
%TD*%
%TO.P,C454,1*%
%TO.N,VDD_LOGIC_S0*%
X49520000Y-21500000D03*
%TO.P,C454,2*%
%TO.N,GND*%
X50480000Y-21500000D03*
%TD*%
%TO.P,C457,1*%
%TO.N,VDD_LOGIC_S0*%
X39520000Y-14500000D03*
%TO.P,C457,2*%
%TO.N,GND*%
X40480000Y-14500000D03*
%TD*%
D27*
%TO.P,R713,1*%
%TO.N,SD_D2*%
X4215000Y-48030000D03*
%TO.P,R713,2*%
%TO.N,VCCIO_SD_S0*%
X5235000Y-48030000D03*
%TD*%
D26*
%TO.P,C418,1*%
%TO.N,VDD_CPU_LIT_S0*%
X33725000Y-19000000D03*
%TO.P,C418,2*%
%TO.N,GND*%
X35275000Y-19000000D03*
%TD*%
D24*
%TO.P,C4117,1*%
%TO.N,VCC_1V8_S3*%
X33020000Y-26000000D03*
%TO.P,C4117,2*%
%TO.N,GND*%
X33980000Y-26000000D03*
%TD*%
%TO.P,C484,1*%
%TO.N,VDDA_0V75_S0*%
X52520000Y-24500000D03*
%TO.P,C484,2*%
%TO.N,GND*%
X53480000Y-24500000D03*
%TD*%
%TO.P,C476,1*%
%TO.N,VDDQ_DDR_S0*%
X28520000Y-20000000D03*
%TO.P,C476,2*%
%TO.N,GND*%
X29480000Y-20000000D03*
%TD*%
D27*
%TO.P,R510,1*%
%TO.N,HDMI_TX_REXT*%
X53490000Y-29000000D03*
%TO.P,R510,2*%
%TO.N,GND*%
X54510000Y-29000000D03*
%TD*%
D24*
%TO.P,C455,1*%
%TO.N,VDD_LOGIC_S0*%
X36020000Y-36500000D03*
%TO.P,C455,2*%
%TO.N,GND*%
X36980000Y-36500000D03*
%TD*%
%TO.P,C626,1*%
%TO.N,VDDQ_DDR_S0*%
X24520000Y-20000000D03*
%TO.P,C626,2*%
%TO.N,GND*%
X25480000Y-20000000D03*
%TD*%
%TO.P,C480,1*%
%TO.N,VDD_0V75_S3*%
X52520000Y-26000000D03*
%TO.P,C480,2*%
%TO.N,GND*%
X53480000Y-26000000D03*
%TD*%
%TO.P,C441,1*%
%TO.N,VDD_NPU_S0*%
X29020000Y-24500000D03*
%TO.P,C441,2*%
%TO.N,GND*%
X29980000Y-24500000D03*
%TD*%
%TO.P,C4114,1*%
%TO.N,VCCA_3V3_S0*%
X45020000Y-23000000D03*
%TO.P,C4114,2*%
%TO.N,GND*%
X45980000Y-23000000D03*
%TD*%
%TO.P,C440,1*%
%TO.N,VDD_NPU_S0*%
X50020000Y-26000000D03*
%TO.P,C440,2*%
%TO.N,GND*%
X50980000Y-26000000D03*
%TD*%
D26*
%TO.P,C804,1*%
%TO.N,VCC3V3_PCIE*%
X59725000Y-29000000D03*
%TO.P,C804,2*%
%TO.N,GND*%
X61275000Y-29000000D03*
%TD*%
D24*
%TO.P,C487,1*%
%TO.N,VDDA0V75_HDMI_S0*%
X27020000Y-21500000D03*
%TO.P,C487,2*%
%TO.N,GND*%
X27980000Y-21500000D03*
%TD*%
%TO.P,C472,1*%
%TO.N,VDDQ_DDR_S0*%
X47020000Y-36000000D03*
%TO.P,C472,2*%
%TO.N,GND*%
X47980000Y-36000000D03*
%TD*%
%TO.P,C479,1*%
%TO.N,VDD_0V75_S3*%
X39520000Y-13000000D03*
%TO.P,C479,2*%
%TO.N,GND*%
X40480000Y-13000000D03*
%TD*%
D25*
%TO.P,R705,1*%
%TO.N,EMMC_DAT3*%
X62680000Y-16500000D03*
%TO.P,R705,2*%
%TO.N,VCC_1V8_S3*%
X63320000Y-16500000D03*
%TD*%
D26*
%TO.P,C445,1*%
%TO.N,VDD_LOGIC_S0*%
X47225000Y-34000000D03*
%TO.P,C445,2*%
%TO.N,GND*%
X48775000Y-34000000D03*
%TD*%
D24*
%TO.P,C4110,1*%
%TO.N,VCCA_1V8_S0*%
X45020000Y-24500000D03*
%TO.P,C4110,2*%
%TO.N,GND*%
X45980000Y-24500000D03*
%TD*%
D26*
%TO.P,C311,1*%
%TO.N,VDD2L_DDR_S3*%
X19225000Y-26000000D03*
%TO.P,C311,2*%
%TO.N,GND*%
X20775000Y-26000000D03*
%TD*%
D24*
%TO.P,C4127,1*%
%TO.N,VCC_3V3_S0*%
X44520000Y-32000000D03*
%TO.P,C4127,2*%
%TO.N,GND*%
X45480000Y-32000000D03*
%TD*%
D27*
%TO.P,R509,1*%
%TO.N,USB3_OTG0_REXT*%
X48990000Y-15500000D03*
%TO.P,R509,2*%
%TO.N,GND*%
X50010000Y-15500000D03*
%TD*%
D26*
%TO.P,C459,1*%
%TO.N,VDD_DDR_S0*%
X45725000Y-16000000D03*
%TO.P,C459,2*%
%TO.N,GND*%
X47275000Y-16000000D03*
%TD*%
D24*
%TO.P,C607,1*%
%TO.N,VDD2H_DDR_S3*%
X16520000Y-28000000D03*
%TO.P,C607,2*%
%TO.N,GND*%
X17480000Y-28000000D03*
%TD*%
%TO.P,C805,1*%
%TO.N,VCC3V3_PCIE*%
X70020000Y-36500000D03*
%TO.P,C805,2*%
%TO.N,GND*%
X70980000Y-36500000D03*
%TD*%
D27*
%TO.P,R711,1*%
%TO.N,SD_D0*%
X8715000Y-30030000D03*
%TO.P,R711,2*%
%TO.N,VCCIO_SD_S0*%
X9735000Y-30030000D03*
%TD*%
D24*
%TO.P,C604,1*%
%TO.N,VDD2H_DDR_S3*%
X22520000Y-24500000D03*
%TO.P,C604,2*%
%TO.N,GND*%
X23480000Y-24500000D03*
%TD*%
%TO.P,C453,1*%
%TO.N,VDD_LOGIC_S0*%
X29520000Y-21500000D03*
%TO.P,C453,2*%
%TO.N,GND*%
X30480000Y-21500000D03*
%TD*%
%TO.P,C4120,1*%
%TO.N,VCC_1V8_S3*%
X44520000Y-21500000D03*
%TO.P,C4120,2*%
%TO.N,GND*%
X45480000Y-21500000D03*
%TD*%
D26*
%TO.P,C444,1*%
%TO.N,VDD_LOGIC_S0*%
X32725000Y-17000000D03*
%TO.P,C444,2*%
%TO.N,GND*%
X34275000Y-17000000D03*
%TD*%
D24*
%TO.P,C4118,1*%
%TO.N,VCC_1V8_S3*%
X42020000Y-32000000D03*
%TO.P,C4118,2*%
%TO.N,GND*%
X42980000Y-32000000D03*
%TD*%
%TO.P,C709,1*%
%TO.N,VCC3V3_SD*%
X9020000Y-27000000D03*
%TO.P,C709,2*%
%TO.N,GND*%
X9980000Y-27000000D03*
%TD*%
D27*
%TO.P,R602,1*%
%TO.N,DDR_RESET_L*%
X10990000Y-29500000D03*
%TO.P,R602,2*%
%TO.N,GND*%
X12010000Y-29500000D03*
%TD*%
D24*
%TO.P,C4125,1*%
%TO.N,VCC_3V3_S0*%
X34520000Y-21000000D03*
%TO.P,C4125,2*%
%TO.N,GND*%
X35480000Y-21000000D03*
%TD*%
%TO.P,C407,1*%
%TO.N,VDD_CPU_BIG_S0*%
X42520000Y-27500000D03*
%TO.P,C407,2*%
%TO.N,GND*%
X43480000Y-27500000D03*
%TD*%
%TO.P,C486,1*%
%TO.N,VDDA0V75_HDMI_S0*%
X42020000Y-13000000D03*
%TO.P,C486,2*%
%TO.N,GND*%
X42980000Y-13000000D03*
%TD*%
%TO.P,C629,1*%
%TO.N,VDDQ_DDR_S0*%
X19520000Y-18000000D03*
%TO.P,C629,2*%
%TO.N,GND*%
X20480000Y-18000000D03*
%TD*%
%TO.P,C477,1*%
%TO.N,VDDQ_DDR_S0*%
X30520000Y-35000000D03*
%TO.P,C477,2*%
%TO.N,GND*%
X31480000Y-35000000D03*
%TD*%
%TO.P,C420,1*%
%TO.N,VDD_CPU_LIT_S0*%
X39520000Y-17500000D03*
%TO.P,C420,2*%
%TO.N,GND*%
X40480000Y-17500000D03*
%TD*%
D26*
%TO.P,C601,1*%
%TO.N,VDD2H_DDR_S3*%
X19225000Y-28000000D03*
%TO.P,C601,2*%
%TO.N,GND*%
X20775000Y-28000000D03*
%TD*%
D24*
%TO.P,C4119,1*%
%TO.N,VCC_1V8_S3*%
X34020000Y-22500000D03*
%TO.P,C4119,2*%
%TO.N,GND*%
X34980000Y-22500000D03*
%TD*%
D28*
%TO.P,H801,1*%
%TO.N,GND*%
X23000000Y-33000000D03*
%TD*%
D24*
%TO.P,C474,1*%
%TO.N,VDDQ_DDR_S0*%
X39520000Y-38500000D03*
%TO.P,C474,2*%
%TO.N,GND*%
X40480000Y-38500000D03*
%TD*%
%TO.P,C703,1*%
%TO.N,VCC_3V3_S0*%
X5520000Y-30000000D03*
%TO.P,C703,2*%
%TO.N,GND*%
X6480000Y-30000000D03*
%TD*%
%TO.P,C622,1*%
%TO.N,VDDQ_DDR_S0*%
X14020000Y-22500000D03*
%TO.P,C622,2*%
%TO.N,GND*%
X14980000Y-22500000D03*
%TD*%
D26*
%TO.P,C708,1*%
%TO.N,VCC3V3_SD*%
X2225000Y-24000000D03*
%TO.P,C708,2*%
%TO.N,GND*%
X3775000Y-24000000D03*
%TD*%
D25*
%TO.P,R702,1*%
%TO.N,EMMC_DAT0*%
X58680000Y-13500000D03*
%TO.P,R702,2*%
%TO.N,VCC_1V8_S3*%
X59320000Y-13500000D03*
%TD*%
D24*
%TO.P,C613,1*%
%TO.N,VDD2H_DDR_S3*%
X16020000Y-29500000D03*
%TO.P,C613,2*%
%TO.N,GND*%
X16980000Y-29500000D03*
%TD*%
%TO.P,C431,1*%
%TO.N,VDD_GPU_S0*%
X42020000Y-17000000D03*
%TO.P,C431,2*%
%TO.N,GND*%
X42980000Y-17000000D03*
%TD*%
%TO.P,C405,1*%
%TO.N,VDD_CPU_BIG_S0*%
X42520000Y-26000000D03*
%TO.P,C405,2*%
%TO.N,GND*%
X43480000Y-26000000D03*
%TD*%
%TO.P,C609,1*%
%TO.N,VDD2H_DDR_S3*%
X18520000Y-30000000D03*
%TO.P,C609,2*%
%TO.N,GND*%
X19480000Y-30000000D03*
%TD*%
%TO.P,C461,1*%
%TO.N,VDD_DDR_S0*%
X44520000Y-36500000D03*
%TO.P,C461,2*%
%TO.N,GND*%
X45480000Y-36500000D03*
%TD*%
%TO.P,C503,1*%
%TO.N,SARADC_IN0_BOOT*%
X37020000Y-39500000D03*
%TO.P,C503,2*%
%TO.N,GND*%
X37980000Y-39500000D03*
%TD*%
%TO.P,C433,1*%
%TO.N,VDD_GPU_S0*%
X47020000Y-20000000D03*
%TO.P,C433,2*%
%TO.N,GND*%
X47980000Y-20000000D03*
%TD*%
D26*
%TO.P,C446,1*%
%TO.N,VDD_LOGIC_S0*%
X42225000Y-15000000D03*
%TO.P,C446,2*%
%TO.N,GND*%
X43775000Y-15000000D03*
%TD*%
%TO.P,C803,1*%
%TO.N,VCC3V3_PCIE*%
X59725000Y-35000000D03*
%TO.P,C803,2*%
%TO.N,GND*%
X61275000Y-35000000D03*
%TD*%
D24*
%TO.P,C504,1*%
%TO.N,DCPHY_VREG*%
X42020000Y-39500000D03*
%TO.P,C504,2*%
%TO.N,GND*%
X42980000Y-39500000D03*
%TD*%
D25*
%TO.P,R704,1*%
%TO.N,EMMC_DAT2*%
X58680000Y-16500000D03*
%TO.P,R704,2*%
%TO.N,VCC_1V8_S3*%
X59320000Y-16500000D03*
%TD*%
D24*
%TO.P,C470,1*%
%TO.N,VDDQ_DDR_S0*%
X51020000Y-30500000D03*
%TO.P,C470,2*%
%TO.N,GND*%
X51980000Y-30500000D03*
%TD*%
D26*
%TO.P,C404,1*%
%TO.N,VDD_CPU_BIG_S0*%
X35725000Y-26000000D03*
%TO.P,C404,2*%
%TO.N,GND*%
X37275000Y-26000000D03*
%TD*%
D24*
%TO.P,C490,1*%
%TO.N,VCCA1V8_PLDO2_S0*%
X50520000Y-33500000D03*
%TO.P,C490,2*%
%TO.N,GND*%
X51480000Y-33500000D03*
%TD*%
%TO.P,C447,1*%
%TO.N,VDD_LOGIC_S0*%
X31020000Y-19500000D03*
%TO.P,C447,2*%
%TO.N,GND*%
X31980000Y-19500000D03*
%TD*%
%TO.P,C432,1*%
%TO.N,VDD_GPU_S0*%
X42020000Y-35000000D03*
%TO.P,C432,2*%
%TO.N,GND*%
X42980000Y-35000000D03*
%TD*%
D27*
%TO.P,R506,1*%
%TO.N,DDR_ZQ_B*%
X53490000Y-27500000D03*
%TO.P,R506,2*%
%TO.N,GND*%
X54510000Y-27500000D03*
%TD*%
D25*
%TO.P,C802,1*%
%TO.N,PCIE0_TXN*%
X70180000Y-32000000D03*
%TO.P,C802,2*%
%TO.N,M2_PETN0*%
X70820000Y-32000000D03*
%TD*%
D24*
%TO.P,C634,1*%
%TO.N,VDD1_DDR_S3*%
X13520000Y-19500000D03*
%TO.P,C634,2*%
%TO.N,GND*%
X14480000Y-19500000D03*
%TD*%
D27*
%TO.P,R507,1*%
%TO.N,USB2_OTG0_REXT*%
X49490000Y-36000000D03*
%TO.P,R507,2*%
%TO.N,GND*%
X50510000Y-36000000D03*
%TD*%
D24*
%TO.P,C473,1*%
%TO.N,VDDQ_DDR_S0*%
X36020000Y-38000000D03*
%TO.P,C473,2*%
%TO.N,GND*%
X36980000Y-38000000D03*
%TD*%
%TO.P,C4104,1*%
%TO.N,VCCA_1V8_S0*%
X36520000Y-29500000D03*
%TO.P,C4104,2*%
%TO.N,GND*%
X37480000Y-29500000D03*
%TD*%
%TO.P,C442,1*%
%TO.N,VDD_NPU_S0*%
X50020000Y-24500000D03*
%TO.P,C442,2*%
%TO.N,GND*%
X50980000Y-24500000D03*
%TD*%
%TO.P,C488,1*%
%TO.N,VDDA0V75_HDMI_S0*%
X52020000Y-21500000D03*
%TO.P,C488,2*%
%TO.N,GND*%
X52980000Y-21500000D03*
%TD*%
%TO.P,C4122,1*%
%TO.N,VCC_3V3_S3*%
X37020000Y-19500000D03*
%TO.P,C4122,2*%
%TO.N,GND*%
X37980000Y-19500000D03*
%TD*%
D25*
%TO.P,R707,1*%
%TO.N,EMMC_DAT5*%
X60680000Y-18000000D03*
%TO.P,R707,2*%
%TO.N,VCC_1V8_S3*%
X61320000Y-18000000D03*
%TD*%
D24*
%TO.P,C458,1*%
%TO.N,VDD_LOGIC_S0*%
X28020000Y-26000000D03*
%TO.P,C458,2*%
%TO.N,GND*%
X28980000Y-26000000D03*
%TD*%
%TO.P,C494,1*%
%TO.N,VDDA_0V85_S0*%
X45520000Y-14000000D03*
%TO.P,C494,2*%
%TO.N,GND*%
X46480000Y-14000000D03*
%TD*%
D29*
%TO.P,J701,1*%
%TO.N,SD_D2*%
X16950000Y-36255000D03*
%TO.P,J701,2*%
%TO.N,SD_D3*%
X16950000Y-37355000D03*
%TO.P,J701,3*%
%TO.N,SD_CMD*%
X16950000Y-38455000D03*
%TO.P,J701,4*%
%TO.N,VCC3V3_SD*%
X16950000Y-39555000D03*
%TO.P,J701,5*%
%TO.N,SD_CLK*%
X16950000Y-40655000D03*
%TO.P,J701,6*%
%TO.N,GND*%
X16950000Y-41755000D03*
%TO.P,J701,7*%
%TO.N,SD_D0*%
X16950000Y-42855000D03*
%TO.P,J701,8*%
%TO.N,SD_D1*%
X16950000Y-43955000D03*
%TO.P,J701,9*%
%TO.N,SD_DET_L*%
X16950000Y-44905000D03*
D30*
%TO.P,J701,10*%
%TO.N,GND*%
X6450000Y-45855000D03*
D31*
%TO.P,J701,11*%
X2300000Y-45855000D03*
D32*
X12650000Y-45855000D03*
X16950000Y-34705000D03*
D33*
X1850000Y-32355000D03*
%TD*%
D24*
%TO.P,C4102,1*%
%TO.N,VCCA_1V8_S0*%
X42520000Y-29000000D03*
%TO.P,C4102,2*%
%TO.N,GND*%
X43480000Y-29000000D03*
%TD*%
%TO.P,C4126,1*%
%TO.N,VCC_3V3_S0*%
X44520000Y-20000000D03*
%TO.P,C4126,2*%
%TO.N,GND*%
X45480000Y-20000000D03*
%TD*%
%TO.P,C483,1*%
%TO.N,VDDA_0V75_S0*%
X26520000Y-24500000D03*
%TO.P,C483,2*%
%TO.N,GND*%
X27480000Y-24500000D03*
%TD*%
D26*
%TO.P,C615,1*%
%TO.N,VDD2L_DDR_S3*%
X18725000Y-20000000D03*
%TO.P,C615,2*%
%TO.N,GND*%
X20275000Y-20000000D03*
%TD*%
D24*
%TO.P,C466,1*%
%TO.N,VDD_DDR_S0*%
X33520000Y-36500000D03*
%TO.P,C466,2*%
%TO.N,GND*%
X34480000Y-36500000D03*
%TD*%
D34*
%TO.P,U702,1*%
%TO.N,VCC3V3_SD*%
X7137500Y-26050000D03*
%TO.P,U702,2*%
%TO.N,GND*%
X7137500Y-27000000D03*
%TO.P,U702,3*%
%TO.N,unconnected-(U702-~{FLG}-Pad3)*%
X7137500Y-27950000D03*
%TO.P,U702,4*%
%TO.N,SD_PWREN*%
X4862500Y-27950000D03*
%TO.P,U702,5*%
%TO.N,VCC_3V3_S0*%
X4862500Y-26050000D03*
%TD*%
D24*
%TO.P,C623,1*%
%TO.N,VDDQ_DDR_S0*%
X24520000Y-21500000D03*
%TO.P,C623,2*%
%TO.N,GND*%
X25480000Y-21500000D03*
%TD*%
%TO.P,C478,1*%
%TO.N,VDD_0V75_S3*%
X28020000Y-32000000D03*
%TO.P,C478,2*%
%TO.N,GND*%
X28980000Y-32000000D03*
%TD*%
%TO.P,C4103,1*%
%TO.N,VCCA_1V8_S0*%
X36520000Y-22500000D03*
%TO.P,C4103,2*%
%TO.N,GND*%
X37480000Y-22500000D03*
%TD*%
%TO.P,C425,1*%
%TO.N,VDD_CPU_LIT_S0*%
X47020000Y-21500000D03*
%TO.P,C425,2*%
%TO.N,GND*%
X47980000Y-21500000D03*
%TD*%
%TO.P,C4106,1*%
%TO.N,VCCA_1V8_S0*%
X42020000Y-30500000D03*
%TO.P,C4106,2*%
%TO.N,GND*%
X42980000Y-30500000D03*
%TD*%
D35*
%TO.P,J801,1*%
%TO.N,GND*%
X67350000Y-42250000D03*
%TO.P,J801,2*%
%TO.N,VCC3V3_PCIE*%
X64650000Y-42000000D03*
%TO.P,J801,3*%
%TO.N,GND*%
X67350000Y-41750000D03*
%TO.P,J801,4*%
%TO.N,VCC3V3_PCIE*%
X64650000Y-41500000D03*
%TO.P,J801,5*%
%TO.N,unconnected-(J801-PERn3-Pad5)*%
X67350000Y-41250000D03*
%TO.P,J801,6*%
%TO.N,unconnected-(J801-NC-Pad6)*%
X64650000Y-41000000D03*
%TO.P,J801,7*%
%TO.N,unconnected-(J801-PERp3-Pad7)*%
X67350000Y-40750000D03*
%TO.P,J801,8*%
%TO.N,unconnected-(J801-NC-Pad8)*%
X64650000Y-40500000D03*
%TO.P,J801,9*%
%TO.N,GND*%
X67350000Y-40250000D03*
%TO.P,J801,10*%
%TO.N,M2_LED_L*%
X64650000Y-40000000D03*
%TO.P,J801,11*%
%TO.N,unconnected-(J801-PETn3-Pad11)*%
X67350000Y-39750000D03*
%TO.P,J801,12*%
%TO.N,VCC3V3_PCIE*%
X64650000Y-39500000D03*
%TO.P,J801,13*%
%TO.N,unconnected-(J801-PETp3-Pad13)*%
X67350000Y-39250000D03*
%TO.P,J801,14*%
%TO.N,VCC3V3_PCIE*%
X64650000Y-39000000D03*
%TO.P,J801,15*%
%TO.N,GND*%
X67350000Y-38750000D03*
%TO.P,J801,16*%
%TO.N,VCC3V3_PCIE*%
X64650000Y-38500000D03*
%TO.P,J801,17*%
%TO.N,unconnected-(J801-PERn2-Pad17)*%
X67350000Y-38250000D03*
%TO.P,J801,18*%
%TO.N,VCC3V3_PCIE*%
X64650000Y-38000000D03*
%TO.P,J801,19*%
%TO.N,unconnected-(J801-PERp2-Pad19)*%
X67350000Y-37750000D03*
%TO.P,J801,20*%
%TO.N,unconnected-(J801-NC-Pad20)*%
X64650000Y-37500000D03*
%TO.P,J801,21*%
%TO.N,GND*%
X67350000Y-37250000D03*
%TO.P,J801,22*%
%TO.N,unconnected-(J801-NC-Pad22)*%
X64650000Y-37000000D03*
%TO.P,J801,23*%
%TO.N,unconnected-(J801-PETn2-Pad23)*%
X67350000Y-36750000D03*
%TO.P,J801,24*%
%TO.N,unconnected-(J801-NC-Pad24)*%
X64650000Y-36500000D03*
%TO.P,J801,25*%
%TO.N,unconnected-(J801-PETp2-Pad25)*%
X67350000Y-36250000D03*
%TO.P,J801,26*%
%TO.N,unconnected-(J801-NC-Pad26)*%
X64650000Y-36000000D03*
%TO.P,J801,27*%
%TO.N,GND*%
X67350000Y-35750000D03*
%TO.P,J801,28*%
%TO.N,unconnected-(J801-NC-Pad28)*%
X64650000Y-35500000D03*
%TO.P,J801,29*%
%TO.N,unconnected-(J801-PERn1-Pad29)*%
X67350000Y-35250000D03*
%TO.P,J801,30*%
%TO.N,unconnected-(J801-NC-Pad30)*%
X64650000Y-35000000D03*
%TO.P,J801,31*%
%TO.N,unconnected-(J801-PERp1-Pad31)*%
X67350000Y-34750000D03*
%TO.P,J801,32*%
%TO.N,unconnected-(J801-NC-Pad32)*%
X64650000Y-34500000D03*
%TO.P,J801,33*%
%TO.N,GND*%
X67350000Y-34250000D03*
%TO.P,J801,34*%
%TO.N,unconnected-(J801-NC-Pad34)*%
X64650000Y-34000000D03*
%TO.P,J801,35*%
%TO.N,unconnected-(J801-PETn1-Pad35)*%
X67350000Y-33750000D03*
%TO.P,J801,36*%
%TO.N,unconnected-(J801-NC-Pad36)*%
X64650000Y-33500000D03*
%TO.P,J801,37*%
%TO.N,unconnected-(J801-PETp1-Pad37)*%
X67350000Y-33250000D03*
%TO.P,J801,38*%
%TO.N,unconnected-(J801-DEVSLP-Pad38)*%
X64650000Y-33000000D03*
%TO.P,J801,39*%
%TO.N,GND*%
X67350000Y-32750000D03*
%TO.P,J801,40*%
%TO.N,unconnected-(J801-SMB_CLK-Pad40)*%
X64650000Y-32500000D03*
%TO.P,J801,41*%
%TO.N,PCIE0_RXN*%
X67350000Y-32250000D03*
%TO.P,J801,42*%
%TO.N,unconnected-(J801-SMB_DATA-Pad42)*%
X64650000Y-32000000D03*
%TO.P,J801,43*%
%TO.N,PCIE0_RXP*%
X67350000Y-31750000D03*
%TO.P,J801,44*%
%TO.N,unconnected-(J801-ALERT#-Pad44)*%
X64650000Y-31500000D03*
%TO.P,J801,45*%
%TO.N,GND*%
X67350000Y-31250000D03*
%TO.P,J801,46*%
%TO.N,unconnected-(J801-NC-Pad46)*%
X64650000Y-31000000D03*
%TO.P,J801,47*%
%TO.N,M2_PETN0*%
X67350000Y-30750000D03*
%TO.P,J801,48*%
%TO.N,unconnected-(J801-NC-Pad48)*%
X64650000Y-30500000D03*
%TO.P,J801,49*%
%TO.N,M2_PETP0*%
X67350000Y-30250000D03*
%TO.P,J801,50*%
%TO.N,PCIE0_PERST_L*%
X64650000Y-30000000D03*
%TO.P,J801,51*%
%TO.N,GND*%
X67350000Y-29750000D03*
%TO.P,J801,52*%
%TO.N,PCIE0_CLKREQ_L*%
X64650000Y-29500000D03*
%TO.P,J801,53*%
%TO.N,PCIE0_REFCLKN*%
X67350000Y-29250000D03*
%TO.P,J801,54*%
%TO.N,PCIE0_WAKE_L*%
X64650000Y-29000000D03*
%TO.P,J801,55*%
%TO.N,PCIE0_REFCLKP*%
X67350000Y-28750000D03*
%TO.P,J801,56*%
%TO.N,unconnected-(J801-NC-Pad56)*%
X64650000Y-28500000D03*
%TO.P,J801,57*%
%TO.N,GND*%
X67350000Y-28250000D03*
%TO.P,J801,58*%
%TO.N,unconnected-(J801-NC-Pad58)*%
X64650000Y-28000000D03*
%TO.P,J801,67*%
%TO.N,unconnected-(J801-NC-Pad67)*%
X67350000Y-25750000D03*
%TO.P,J801,68*%
%TO.N,unconnected-(J801-SUSCLK-Pad68)*%
X64650000Y-25500000D03*
%TO.P,J801,69*%
%TO.N,unconnected-(J801-PEDET-Pad69)*%
X67350000Y-25250000D03*
%TO.P,J801,70*%
%TO.N,VCC3V3_PCIE*%
X64650000Y-25000000D03*
%TO.P,J801,71*%
%TO.N,GND*%
X67350000Y-24750000D03*
%TO.P,J801,72*%
%TO.N,VCC3V3_PCIE*%
X64650000Y-24500000D03*
%TO.P,J801,73*%
%TO.N,GND*%
X67350000Y-24250000D03*
%TO.P,J801,74*%
%TO.N,VCC3V3_PCIE*%
X64650000Y-24000000D03*
%TO.P,J801,75*%
%TO.N,GND*%
X67350000Y-23750000D03*
D36*
%TO.P,J801,MP*%
%TO.N,N/C*%
X66000000Y-44600000D03*
X66000000Y-21400000D03*
%TD*%
D24*
%TO.P,C475,1*%
%TO.N,VDDQ_DDR_S0*%
X33520000Y-15000000D03*
%TO.P,C475,2*%
%TO.N,GND*%
X34480000Y-15000000D03*
%TD*%
%TO.P,C492,1*%
%TO.N,VDDA_0V85_S0*%
X52520000Y-23000000D03*
%TO.P,C492,2*%
%TO.N,GND*%
X53480000Y-23000000D03*
%TD*%
%TO.P,C429,1*%
%TO.N,VDD_GPU_S0*%
X32020000Y-21000000D03*
%TO.P,C429,2*%
%TO.N,GND*%
X32980000Y-21000000D03*
%TD*%
%TO.P,C465,1*%
%TO.N,VDD_DDR_S0*%
X51020000Y-29000000D03*
%TO.P,C465,2*%
%TO.N,GND*%
X51980000Y-29000000D03*
%TD*%
%TO.P,C618,1*%
%TO.N,VDD2L_DDR_S3*%
X14020000Y-28000000D03*
%TO.P,C618,2*%
%TO.N,GND*%
X14980000Y-28000000D03*
%TD*%
D26*
%TO.P,C403,1*%
%TO.N,VDD_CPU_BIG_S0*%
X39225000Y-28000000D03*
%TO.P,C403,2*%
%TO.N,GND*%
X40775000Y-28000000D03*
%TD*%
D24*
%TO.P,C413,1*%
%TO.N,VDD_CPU_BIG_S0*%
X47520000Y-26000000D03*
%TO.P,C413,2*%
%TO.N,GND*%
X48480000Y-26000000D03*
%TD*%
D27*
%TO.P,R714,1*%
%TO.N,SD_D3*%
X19215000Y-39030000D03*
%TO.P,R714,2*%
%TO.N,VCCIO_SD_S0*%
X20235000Y-39030000D03*
%TD*%
D24*
%TO.P,C412,1*%
%TO.N,VDD_CPU_BIG_S0*%
X34020000Y-29500000D03*
%TO.P,C412,2*%
%TO.N,GND*%
X34980000Y-29500000D03*
%TD*%
D26*
%TO.P,C467,1*%
%TO.N,VDDQ_DDR_S0*%
X36225000Y-14000000D03*
%TO.P,C467,2*%
%TO.N,GND*%
X37775000Y-14000000D03*
%TD*%
D24*
%TO.P,C704,1*%
%TO.N,VCC_3V3_S0*%
X2020000Y-27000000D03*
%TO.P,C704,2*%
%TO.N,GND*%
X2980000Y-27000000D03*
%TD*%
%TO.P,C449,1*%
%TO.N,VDD_LOGIC_S0*%
X30520000Y-32000000D03*
%TO.P,C449,2*%
%TO.N,GND*%
X31480000Y-32000000D03*
%TD*%
%TO.P,C415,1*%
%TO.N,VDD_CPU_BIG_S0*%
X47520000Y-24500000D03*
%TO.P,C415,2*%
%TO.N,GND*%
X48480000Y-24500000D03*
%TD*%
%TO.P,C423,1*%
%TO.N,VDD_CPU_LIT_S0*%
X47520000Y-23000000D03*
%TO.P,C423,2*%
%TO.N,GND*%
X48480000Y-23000000D03*
%TD*%
D25*
%TO.P,R709,1*%
%TO.N,EMMC_DAT7*%
X62680000Y-12500000D03*
%TO.P,R709,2*%
%TO.N,VCC_1V8_S3*%
X63320000Y-12500000D03*
%TD*%
D24*
%TO.P,C430,1*%
%TO.N,VDD_GPU_S0*%
X44520000Y-33500000D03*
%TO.P,C430,2*%
%TO.N,GND*%
X45480000Y-33500000D03*
%TD*%
%TO.P,C424,1*%
%TO.N,VDD_CPU_LIT_S0*%
X31520000Y-29000000D03*
%TO.P,C424,2*%
%TO.N,GND*%
X32480000Y-29000000D03*
%TD*%
D27*
%TO.P,R801,1*%
%TO.N,PCIE0_CLKREQ_L*%
X69990000Y-38000000D03*
%TO.P,R801,2*%
%TO.N,VCC_3V3_S0*%
X71010000Y-38000000D03*
%TD*%
D24*
%TO.P,C633,1*%
%TO.N,VDD1_DDR_S3*%
X11520000Y-22500000D03*
%TO.P,C633,2*%
%TO.N,GND*%
X12480000Y-22500000D03*
%TD*%
%TO.P,C408,1*%
%TO.N,VDD_CPU_BIG_S0*%
X36520000Y-24000000D03*
%TO.P,C408,2*%
%TO.N,GND*%
X37480000Y-24000000D03*
%TD*%
%TO.P,C451,1*%
%TO.N,VDD_LOGIC_S0*%
X50020000Y-23000000D03*
%TO.P,C451,2*%
%TO.N,GND*%
X50980000Y-23000000D03*
%TD*%
%TO.P,C471,1*%
%TO.N,VDDQ_DDR_S0*%
X30020000Y-18000000D03*
%TO.P,C471,2*%
%TO.N,GND*%
X30980000Y-18000000D03*
%TD*%
%TO.P,C707,1*%
%TO.N,VCC_1V8_S3*%
X58020000Y-15000000D03*
%TO.P,C707,2*%
%TO.N,GND*%
X58980000Y-15000000D03*
%TD*%
%TO.P,C701,1*%
%TO.N,EMMC_VDDI*%
X60520000Y-15000000D03*
%TO.P,C701,2*%
%TO.N,GND*%
X61480000Y-15000000D03*
%TD*%
%TO.P,C4107,1*%
%TO.N,VCCA_1V8_S0*%
X39520000Y-20500000D03*
%TO.P,C4107,2*%
%TO.N,GND*%
X40480000Y-20500000D03*
%TD*%
%TO.P,C421,1*%
%TO.N,VDD_CPU_LIT_S0*%
X39520000Y-34500000D03*
%TO.P,C421,2*%
%TO.N,GND*%
X40480000Y-34500000D03*
%TD*%
D26*
%TO.P,C315,1*%
%TO.N,VCC3V3_PCIE*%
X59725000Y-33000000D03*
%TO.P,C315,2*%
%TO.N,GND*%
X61275000Y-33000000D03*
%TD*%
D24*
%TO.P,C489,1*%
%TO.N,VCCA1V8_PLDO2_S0*%
X50520000Y-18500000D03*
%TO.P,C489,2*%
%TO.N,GND*%
X51480000Y-18500000D03*
%TD*%
%TO.P,C411,1*%
%TO.N,VDD_CPU_BIG_S0*%
X37020000Y-21000000D03*
%TO.P,C411,2*%
%TO.N,GND*%
X37980000Y-21000000D03*
%TD*%
D26*
%TO.P,C312,1*%
%TO.N,VDD2L_DDR_S3*%
X19225000Y-24000000D03*
%TO.P,C312,2*%
%TO.N,GND*%
X20775000Y-24000000D03*
%TD*%
D24*
%TO.P,C497,1*%
%TO.N,VDDA_0V85_S0*%
X31020000Y-36500000D03*
%TO.P,C497,2*%
%TO.N,GND*%
X31980000Y-36500000D03*
%TD*%
%TO.P,C631,1*%
%TO.N,VDDQ_DDR_S0*%
X11520000Y-28000000D03*
%TO.P,C631,2*%
%TO.N,GND*%
X12480000Y-28000000D03*
%TD*%
%TO.P,C416,1*%
%TO.N,VDD_CPU_BIG_S0*%
X31520000Y-27500000D03*
%TO.P,C416,2*%
%TO.N,GND*%
X32480000Y-27500000D03*
%TD*%
D27*
%TO.P,R803,1*%
%TO.N,PCIE0_PERST_L*%
X60990000Y-27000000D03*
%TO.P,R803,2*%
%TO.N,GND*%
X62010000Y-27000000D03*
%TD*%
%TO.P,R916,1*%
%TO.N,HDMI_HPD*%
X34490000Y-39500000D03*
%TO.P,R916,2*%
%TO.N,GND*%
X35510000Y-39500000D03*
%TD*%
D26*
%TO.P,C417,1*%
%TO.N,VDD_CPU_LIT_S0*%
X47725000Y-28000000D03*
%TO.P,C417,2*%
%TO.N,GND*%
X49275000Y-28000000D03*
%TD*%
D27*
%TO.P,R715,1*%
%TO.N,SD_CMD*%
X3214999Y-30030000D03*
%TO.P,R715,2*%
%TO.N,VCCIO_SD_S0*%
X4234999Y-30030000D03*
%TD*%
D24*
%TO.P,C439,1*%
%TO.N,VDD_NPU_S0*%
X44520000Y-35000000D03*
%TO.P,C439,2*%
%TO.N,GND*%
X45480000Y-35000000D03*
%TD*%
%TO.P,C702,1*%
%TO.N,VCC_3V3_S0*%
X5520000Y-24000000D03*
%TO.P,C702,2*%
%TO.N,GND*%
X6480000Y-24000000D03*
%TD*%
D27*
%TO.P,R701,1*%
%TO.N,EMMC_CMD*%
X62990000Y-15000000D03*
%TO.P,R701,2*%
%TO.N,VCC_1V8_S3*%
X64010000Y-15000000D03*
%TD*%
D24*
%TO.P,C627,1*%
%TO.N,VDDQ_DDR_S0*%
X13520000Y-21000000D03*
%TO.P,C627,2*%
%TO.N,GND*%
X14480000Y-21000000D03*
%TD*%
%TO.P,C434,1*%
%TO.N,VDD_GPU_S0*%
X47020000Y-32000000D03*
%TO.P,C434,2*%
%TO.N,GND*%
X47980000Y-32000000D03*
%TD*%
%TO.P,C4101,1*%
%TO.N,VDDA_DDR_PLL_S0*%
X42520000Y-23000000D03*
%TO.P,C4101,2*%
%TO.N,GND*%
X43480000Y-23000000D03*
%TD*%
%TO.P,C4112,1*%
%TO.N,VCCA_1V8_S0*%
X34020000Y-24000000D03*
%TO.P,C4112,2*%
%TO.N,GND*%
X34980000Y-24000000D03*
%TD*%
%TO.P,C606,1*%
%TO.N,VDD2H_DDR_S3*%
X16520000Y-24000000D03*
%TO.P,C606,2*%
%TO.N,GND*%
X17480000Y-24000000D03*
%TD*%
D27*
%TO.P,R502,1*%
%TO.N,SARADC_IN0_BOOT*%
X51990000Y-20000000D03*
%TO.P,R502,2*%
%TO.N,VCCA_1V8_S0*%
X53010000Y-20000000D03*
%TD*%
%TO.P,R503,1*%
%TO.N,SYS_RESET_L*%
X51990000Y-32000000D03*
%TO.P,R503,2*%
%TO.N,RESET_KEY*%
X53010000Y-32000000D03*
%TD*%
%TO.P,R505,1*%
%TO.N,DDR_ZQ_A*%
X39490000Y-40000000D03*
%TO.P,R505,2*%
%TO.N,GND*%
X40510000Y-40000000D03*
%TD*%
D24*
%TO.P,C4113,1*%
%TO.N,VCCA_3V3_S0*%
X34020000Y-28000000D03*
%TO.P,C4113,2*%
%TO.N,GND*%
X34980000Y-28000000D03*
%TD*%
%TO.P,C469,1*%
%TO.N,VDDQ_DDR_S0*%
X28020000Y-30500000D03*
%TO.P,C469,2*%
%TO.N,GND*%
X28980000Y-30500000D03*
%TD*%
%TO.P,C624,1*%
%TO.N,VDDQ_DDR_S0*%
X13520000Y-29500000D03*
%TO.P,C624,2*%
%TO.N,GND*%
X14480000Y-29500000D03*
%TD*%
%TO.P,C463,1*%
%TO.N,VDD_DDR_S0*%
X49520000Y-32000000D03*
%TO.P,C463,2*%
%TO.N,GND*%
X50480000Y-32000000D03*
%TD*%
D26*
%TO.P,C401,1*%
%TO.N,VDD_CPU_BIG_S0*%
X39225000Y-26000000D03*
%TO.P,C401,2*%
%TO.N,GND*%
X40775000Y-26000000D03*
%TD*%
D27*
%TO.P,R804,1*%
%TO.N,M2_LED_A*%
X72490000Y-36500000D03*
%TO.P,R804,2*%
%TO.N,VCC3V3_PCIE*%
X73510000Y-36500000D03*
%TD*%
D24*
%TO.P,C452,1*%
%TO.N,VDD_LOGIC_S0*%
X29020000Y-29000000D03*
%TO.P,C452,2*%
%TO.N,GND*%
X29980000Y-29000000D03*
%TD*%
%TO.P,C491,1*%
%TO.N,VCCA1V8_PLDO2_S0*%
X26520000Y-23000000D03*
%TO.P,C491,2*%
%TO.N,GND*%
X27480000Y-23000000D03*
%TD*%
%TO.P,C460,1*%
%TO.N,VDD_DDR_S0*%
X51020000Y-27500000D03*
%TO.P,C460,2*%
%TO.N,GND*%
X51980000Y-27500000D03*
%TD*%
D27*
%TO.P,R508,1*%
%TO.N,USB2_OTG1_REXT*%
X27490000Y-18500000D03*
%TO.P,R508,2*%
%TO.N,GND*%
X28510000Y-18500000D03*
%TD*%
D24*
%TO.P,C428,1*%
%TO.N,VDD_GPU_S0*%
X30520000Y-26000000D03*
%TO.P,C428,2*%
%TO.N,GND*%
X31480000Y-26000000D03*
%TD*%
%TO.P,C406,1*%
%TO.N,VDD_CPU_BIG_S0*%
X42520000Y-24500000D03*
%TO.P,C406,2*%
%TO.N,GND*%
X43480000Y-24500000D03*
%TD*%
D27*
%TO.P,R710,1*%
%TO.N,EMMC_DS*%
X58490000Y-18000000D03*
%TO.P,R710,2*%
%TO.N,GND*%
X59510000Y-18000000D03*
%TD*%
D24*
%TO.P,C448,1*%
%TO.N,VDD_LOGIC_S0*%
X42020000Y-36500000D03*
%TO.P,C448,2*%
%TO.N,GND*%
X42980000Y-36500000D03*
%TD*%
D26*
%TO.P,C402,1*%
%TO.N,VDD_CPU_BIG_S0*%
X39225000Y-24000000D03*
%TO.P,C402,2*%
%TO.N,GND*%
X40775000Y-24000000D03*
%TD*%
D24*
%TO.P,C450,1*%
%TO.N,VDD_LOGIC_S0*%
X29020000Y-23000000D03*
%TO.P,C450,2*%
%TO.N,GND*%
X29980000Y-23000000D03*
%TD*%
%TO.P,C4129,1*%
%TO.N,VCCIO_SD_S0*%
X42020000Y-33500000D03*
%TO.P,C4129,2*%
%TO.N,GND*%
X42980000Y-33500000D03*
%TD*%
%TO.P,C482,1*%
%TO.N,VDDA_0V75_S0*%
X49020000Y-17000000D03*
%TO.P,C482,2*%
%TO.N,GND*%
X49980000Y-17000000D03*
%TD*%
D26*
%TO.P,C426,1*%
%TO.N,VDD_GPU_S0*%
X47725000Y-30000000D03*
%TO.P,C426,2*%
%TO.N,GND*%
X49275000Y-30000000D03*
%TD*%
D24*
%TO.P,C419,1*%
%TO.N,VDD_CPU_LIT_S0*%
X37020000Y-18000000D03*
%TO.P,C419,2*%
%TO.N,GND*%
X37980000Y-18000000D03*
%TD*%
%TO.P,C4109,1*%
%TO.N,VCCA_1V8_S0*%
X39520000Y-31500000D03*
%TO.P,C4109,2*%
%TO.N,GND*%
X40480000Y-31500000D03*
%TD*%
D26*
%TO.P,C621,1*%
%TO.N,VDDQ_DDR_S0*%
X12225000Y-26000000D03*
%TO.P,C621,2*%
%TO.N,GND*%
X13775000Y-26000000D03*
%TD*%
D24*
%TO.P,C493,1*%
%TO.N,VDDA_0V85_S0*%
X26520000Y-29000000D03*
%TO.P,C493,2*%
%TO.N,GND*%
X27480000Y-29000000D03*
%TD*%
%TO.P,C614,1*%
%TO.N,VDD2H_DDR_S3*%
X22020000Y-21500000D03*
%TO.P,C614,2*%
%TO.N,GND*%
X22980000Y-21500000D03*
%TD*%
%TO.P,C620,1*%
%TO.N,VDD2L_DDR_S3*%
X22020000Y-20000000D03*
%TO.P,C620,2*%
%TO.N,GND*%
X22980000Y-20000000D03*
%TD*%
%TO.P,C4100,1*%
%TO.N,VDDA_DDR_PLL_S0*%
X39520000Y-30000000D03*
%TO.P,C4100,2*%
%TO.N,GND*%
X40480000Y-30000000D03*
%TD*%
%TO.P,C610,1*%
%TO.N,VDD2H_DDR_S3*%
X22520000Y-23000000D03*
%TO.P,C610,2*%
%TO.N,GND*%
X23480000Y-23000000D03*
%TD*%
M02*
