%TF.GenerationSoftware,KiCad,Pcbnew,9.0.9-9.0.9~ubuntu24.04.1*%
%TF.CreationDate,2026-10-04T04:00:44+00:00*%
%TF.ProjectId,rk3576-sbc,726b3335-3736-42d7-9362-632e6b696361,rev?*%
%TF.SameCoordinates,Original*%
%TF.FileFunction,Copper,L5,Inr*%
%TF.FilePolarity,Positive*%
%FSLAX46Y46*%
G04 Gerber Fmt 4.6, Leading zero omitted, Abs format (unit mm)*
G04 Created by KiCad (PCBNEW 9.0.9-9.0.9~ubuntu24.04.1) date 2026-10-04 04:00:44*
%MOMM*%
%LPD*%
G01*
G04 APERTURE LIST*
G04 Aperture macros list*
%AMRoundRect*
0 Rectangle with rounded corners*
0 $1 Rounding radius*
0 $2 $3 $4 $5 $6 $7 $8 $9 X,Y pos of 4 corners*
0 Add a 4 corners polygon primitive as box body*
4,1,4,$2,$3,$4,$5,$6,$7,$8,$9,$2,$3,0*
0 Add four circle primitives for the rounded corners*
1,1,$1+$1,$2,$3*
1,1,$1+$1,$4,$5*
1,1,$1+$1,$6,$7*
1,1,$1+$1,$8,$9*
0 Add four rect primitives between the rounded corners*
20,1,$1+$1,$2,$3,$4,$5,0*
20,1,$1+$1,$4,$5,$6,$7,0*
20,1,$1+$1,$6,$7,$8,$9,0*
20,1,$1+$1,$8,$9,$2,$3,0*%
G04 Aperture macros list end*
%TA.AperFunction,HeatsinkPad*%
%ADD10O,1.000000X2.100000*%
%TD*%
%TA.AperFunction,HeatsinkPad*%
%ADD11O,1.000000X1.600000*%
%TD*%
%TA.AperFunction,ComponentPad*%
%ADD12RoundRect,0.250000X0.350000X-0.350000X0.350000X0.350000X-0.350000X0.350000X-0.350000X-0.350000X0*%
%TD*%
%TA.AperFunction,ComponentPad*%
%ADD13C,1.200000*%
%TD*%
%TA.AperFunction,ComponentPad*%
%ADD14O,2.400000X1.200000*%
%TD*%
%TA.AperFunction,ComponentPad*%
%ADD15O,2.100000X1.200000*%
%TD*%
%TA.AperFunction,ComponentPad*%
%ADD16C,0.800000*%
%TD*%
%TA.AperFunction,ComponentPad*%
%ADD17C,5.400000*%
%TD*%
%TA.AperFunction,HeatsinkPad*%
%ADD18C,0.500000*%
%TD*%
%TA.AperFunction,ComponentPad*%
%ADD19R,1.700000X1.700000*%
%TD*%
%TA.AperFunction,ComponentPad*%
%ADD20C,1.700000*%
%TD*%
%TA.AperFunction,ComponentPad*%
%ADD21O,1.500000X3.300000*%
%TD*%
%TA.AperFunction,ComponentPad*%
%ADD22O,1.500000X2.300000*%
%TD*%
G04 APERTURE END LIST*
D10*
%TO.N,GND*%
%TO.C,J101*%
X9680000Y-49675000D03*
D11*
X9680000Y-53855000D03*
D10*
X18320000Y-49675000D03*
D11*
X18320000Y-53855000D03*
%TD*%
D12*
%TO.N,VBUS_USB3A*%
%TO.C,J1001*%
X74655000Y-31500000D03*
D13*
%TO.N,USB3A_DM*%
X74655000Y-29000000D03*
%TO.N,USB3A_DP*%
X74655000Y-27000000D03*
%TO.N,GND*%
X74655000Y-24500000D03*
%TO.N,USB3_RXN*%
X73155000Y-24000000D03*
%TO.N,USB3_RXP*%
X73155000Y-26000000D03*
%TO.N,GND*%
X73155000Y-28000000D03*
%TO.N,USB3A_SSTXN*%
X73155000Y-30000000D03*
%TO.N,USB3A_SSTXP*%
X73155000Y-32000000D03*
D14*
%TO.N,GND*%
X73905000Y-34400000D03*
D15*
X82405000Y-34400000D03*
D14*
X73905000Y-21600000D03*
D15*
X82405000Y-21600000D03*
%TD*%
D16*
%TO.N,GND*%
%TO.C,H1203*%
X1475000Y-52500000D03*
X2068109Y-51068109D03*
X2068109Y-53931891D03*
X3500000Y-50475000D03*
D17*
X3500000Y-52500000D03*
D16*
X3500000Y-54525000D03*
X4931891Y-51068109D03*
X4931891Y-53931891D03*
X5525000Y-52500000D03*
%TD*%
D18*
%TO.N,GND*%
%TO.C,U201*%
X37650000Y-4650000D03*
X37650000Y-5825000D03*
X37650000Y-7000000D03*
X37650000Y-8175000D03*
X37650000Y-9350000D03*
X38825000Y-4650000D03*
X38825000Y-5825000D03*
X38825000Y-7000000D03*
X38825000Y-8175000D03*
X38825000Y-9350000D03*
X40000000Y-4650000D03*
X40000000Y-5825000D03*
X40000000Y-7000000D03*
X40000000Y-8175000D03*
X40000000Y-9350000D03*
X41175000Y-4650000D03*
X41175000Y-5825000D03*
X41175000Y-7000000D03*
X41175000Y-8175000D03*
X41175000Y-9350000D03*
X42350000Y-4650000D03*
X42350000Y-5825000D03*
X42350000Y-7000000D03*
X42350000Y-8175000D03*
X42350000Y-9350000D03*
%TD*%
D19*
%TO.N,GND*%
%TO.C,J501*%
X64000000Y-52600000D03*
D20*
%TO.N,DBG_UART_TX*%
X66540000Y-52600000D03*
%TO.N,DBG_UART_RX*%
X69080000Y-52600000D03*
%TD*%
D16*
%TO.N,GND*%
%TO.C,H1204*%
X79475000Y-52500000D03*
X80068109Y-51068109D03*
X80068109Y-53931891D03*
X81500000Y-50475000D03*
D17*
X81500000Y-52500000D03*
D16*
X81500000Y-54525000D03*
X82931891Y-51068109D03*
X82931891Y-53931891D03*
X83525000Y-52500000D03*
%TD*%
%TO.N,GND*%
%TO.C,H1201*%
X1475000Y-3500000D03*
X2068109Y-2068109D03*
X2068109Y-4931891D03*
X3500000Y-1475000D03*
D17*
X3500000Y-3500000D03*
D16*
X3500000Y-5525000D03*
X4931891Y-2068109D03*
X4931891Y-4931891D03*
X5525000Y-3500000D03*
%TD*%
D21*
%TO.N,GND*%
%TO.C,J901*%
X43250000Y-45900000D03*
X28750000Y-45900000D03*
D22*
X43250000Y-51860000D03*
X28750000Y-51860000D03*
%TD*%
D16*
%TO.N,GND*%
%TO.C,H1202*%
X79475000Y-3500000D03*
X80068109Y-2068109D03*
X80068109Y-4931891D03*
X81500000Y-1475000D03*
D17*
X81500000Y-3500000D03*
D16*
X81500000Y-5525000D03*
X82931891Y-2068109D03*
X82931891Y-4931891D03*
X83525000Y-3500000D03*
%TD*%
%TA.AperFunction,Conductor*%
%TO.N,GND*%
G36*
X82002231Y-500634D02*
G01*
X82296822Y-518454D01*
X82305674Y-519528D01*
X82593784Y-572327D01*
X82602435Y-574460D01*
X82882062Y-661595D01*
X82890401Y-664757D01*
X83157497Y-784967D01*
X83165409Y-789120D01*
X83416046Y-940636D01*
X83423400Y-945712D01*
X83653951Y-1126336D01*
X83660640Y-1132262D01*
X83867737Y-1339359D01*
X83873663Y-1346048D01*
X84054287Y-1576599D01*
X84059363Y-1583953D01*
X84210879Y-1834590D01*
X84215032Y-1842502D01*
X84335239Y-2109590D01*
X84338407Y-2117946D01*
X84425536Y-2397552D01*
X84427675Y-2406228D01*
X84480469Y-2694316D01*
X84481546Y-2703187D01*
X84499365Y-2997768D01*
X84499500Y-3002236D01*
X84499500Y-52997763D01*
X84499365Y-53002231D01*
X84481546Y-53296811D01*
X84480469Y-53305682D01*
X84427675Y-53593770D01*
X84425536Y-53602446D01*
X84338407Y-53882053D01*
X84335239Y-53890409D01*
X84215032Y-54157496D01*
X84210879Y-54165408D01*
X84059363Y-54416046D01*
X84054287Y-54423400D01*
X83873662Y-54653951D01*
X83867736Y-54660640D01*
X83660640Y-54867736D01*
X83653951Y-54873662D01*
X83423400Y-55054287D01*
X83416046Y-55059363D01*
X83165408Y-55210879D01*
X83157496Y-55215032D01*
X82890409Y-55335239D01*
X82882053Y-55338407D01*
X82602446Y-55425536D01*
X82593770Y-55427675D01*
X82305682Y-55480469D01*
X82296811Y-55481546D01*
X82002232Y-55499365D01*
X81997764Y-55499500D01*
X3002236Y-55499500D01*
X2997768Y-55499365D01*
X2703187Y-55481546D01*
X2694316Y-55480469D01*
X2406228Y-55427675D01*
X2397552Y-55425536D01*
X2117946Y-55338407D01*
X2109590Y-55335239D01*
X1842502Y-55215032D01*
X1834590Y-55210879D01*
X1583953Y-55059363D01*
X1576599Y-55054287D01*
X1346048Y-54873663D01*
X1339359Y-54867737D01*
X1132262Y-54660640D01*
X1126336Y-54653951D01*
X945712Y-54423400D01*
X940636Y-54416046D01*
X789120Y-54165409D01*
X789119Y-54165408D01*
X789119Y-54165407D01*
X784968Y-54157497D01*
X761340Y-54105000D01*
X664757Y-53890401D01*
X661595Y-53882062D01*
X574460Y-53602435D01*
X572327Y-53593784D01*
X547170Y-53456509D01*
X8680000Y-53456509D01*
X8680000Y-53605000D01*
X9380000Y-53605000D01*
X9380000Y-54105000D01*
X8680000Y-54105000D01*
X8680000Y-54253490D01*
X8718427Y-54446682D01*
X8718430Y-54446693D01*
X8793809Y-54628675D01*
X8903246Y-54792459D01*
X9042540Y-54931753D01*
X9206324Y-55041190D01*
X9388306Y-55116569D01*
X9388317Y-55116572D01*
X9429999Y-55124863D01*
X9430000Y-55124863D01*
X9430000Y-54321988D01*
X9439940Y-54339205D01*
X9495795Y-54395060D01*
X9564204Y-54434556D01*
X9640504Y-54455000D01*
X9719496Y-54455000D01*
X9795796Y-54434556D01*
X9864205Y-54395060D01*
X9920060Y-54339205D01*
X9930000Y-54321988D01*
X9930000Y-55124863D01*
X9971682Y-55116572D01*
X9971693Y-55116569D01*
X10153675Y-55041190D01*
X10317459Y-54931753D01*
X10456753Y-54792459D01*
X10566190Y-54628675D01*
X10641569Y-54446693D01*
X10641572Y-54446682D01*
X10680000Y-54253490D01*
X10680000Y-54105000D01*
X9980000Y-54105000D01*
X9980000Y-53605000D01*
X10680000Y-53605000D01*
X10680000Y-53456509D01*
X17320000Y-53456509D01*
X17320000Y-53605000D01*
X18020000Y-53605000D01*
X18020000Y-54105000D01*
X17320000Y-54105000D01*
X17320000Y-54253490D01*
X17358427Y-54446682D01*
X17358430Y-54446693D01*
X17433809Y-54628675D01*
X17543246Y-54792459D01*
X17682540Y-54931753D01*
X17846324Y-55041190D01*
X18028306Y-55116569D01*
X18028317Y-55116572D01*
X18069999Y-55124863D01*
X18070000Y-55124863D01*
X18070000Y-54321988D01*
X18079940Y-54339205D01*
X18135795Y-54395060D01*
X18204204Y-54434556D01*
X18280504Y-54455000D01*
X18359496Y-54455000D01*
X18435796Y-54434556D01*
X18504205Y-54395060D01*
X18560060Y-54339205D01*
X18570000Y-54321988D01*
X18570000Y-55124863D01*
X18611682Y-55116572D01*
X18611693Y-55116569D01*
X18793675Y-55041190D01*
X18957459Y-54931753D01*
X19096753Y-54792459D01*
X19206190Y-54628675D01*
X19281569Y-54446693D01*
X19281572Y-54446682D01*
X19320000Y-54253490D01*
X19320000Y-54105000D01*
X18620000Y-54105000D01*
X18620000Y-53605000D01*
X19320000Y-53605000D01*
X19320000Y-53456509D01*
X19281572Y-53263317D01*
X19281569Y-53263306D01*
X19206190Y-53081324D01*
X19096753Y-52917540D01*
X18957459Y-52778246D01*
X18793675Y-52668809D01*
X18611691Y-52593429D01*
X18611684Y-52593427D01*
X18570000Y-52585136D01*
X18570000Y-53388011D01*
X18560060Y-53370795D01*
X18504205Y-53314940D01*
X18435796Y-53275444D01*
X18359496Y-53255000D01*
X18280504Y-53255000D01*
X18204204Y-53275444D01*
X18135795Y-53314940D01*
X18079940Y-53370795D01*
X18070000Y-53388011D01*
X18070000Y-52585136D01*
X18069999Y-52585136D01*
X18028315Y-52593427D01*
X18028308Y-52593429D01*
X17846324Y-52668809D01*
X17682540Y-52778246D01*
X17543246Y-52917540D01*
X17433809Y-53081324D01*
X17358430Y-53263306D01*
X17358427Y-53263317D01*
X17320000Y-53456509D01*
X10680000Y-53456509D01*
X10641572Y-53263317D01*
X10641569Y-53263306D01*
X10566190Y-53081324D01*
X10456753Y-52917540D01*
X10317459Y-52778246D01*
X10153675Y-52668809D01*
X9971691Y-52593429D01*
X9971684Y-52593427D01*
X9930000Y-52585136D01*
X9930000Y-53388011D01*
X9920060Y-53370795D01*
X9864205Y-53314940D01*
X9795796Y-53275444D01*
X9719496Y-53255000D01*
X9640504Y-53255000D01*
X9564204Y-53275444D01*
X9495795Y-53314940D01*
X9439940Y-53370795D01*
X9430000Y-53388011D01*
X9430000Y-52585136D01*
X9429999Y-52585136D01*
X9388315Y-52593427D01*
X9388308Y-52593429D01*
X9206324Y-52668809D01*
X9042540Y-52778246D01*
X8903246Y-52917540D01*
X8793809Y-53081324D01*
X8718430Y-53263306D01*
X8718427Y-53263317D01*
X8680000Y-53456509D01*
X547170Y-53456509D01*
X519528Y-53305674D01*
X518454Y-53296822D01*
X500635Y-53002231D01*
X500500Y-52997763D01*
X500500Y-51361622D01*
X27500000Y-51361622D01*
X27500000Y-51610000D01*
X28300000Y-51610000D01*
X28300000Y-52110000D01*
X27500000Y-52110000D01*
X27500000Y-52358377D01*
X27530778Y-52552706D01*
X27530781Y-52552719D01*
X27591577Y-52739828D01*
X27591579Y-52739833D01*
X27680903Y-52915142D01*
X27796551Y-53074317D01*
X27935682Y-53213448D01*
X28094857Y-53329096D01*
X28270166Y-53418420D01*
X28270171Y-53418422D01*
X28457286Y-53479220D01*
X28500000Y-53485984D01*
X28500000Y-52635277D01*
X28576306Y-52679333D01*
X28690756Y-52710000D01*
X28809244Y-52710000D01*
X28923694Y-52679333D01*
X29000000Y-52635277D01*
X29000000Y-53485983D01*
X29042713Y-53479220D01*
X29229828Y-53418422D01*
X29229833Y-53418420D01*
X29405142Y-53329096D01*
X29564317Y-53213448D01*
X29703448Y-53074317D01*
X29819096Y-52915142D01*
X29908420Y-52739833D01*
X29908422Y-52739828D01*
X29969218Y-52552719D01*
X29969221Y-52552706D01*
X30000000Y-52358377D01*
X30000000Y-52110000D01*
X29200000Y-52110000D01*
X29200000Y-51610000D01*
X30000000Y-51610000D01*
X30000000Y-51361622D01*
X42000000Y-51361622D01*
X42000000Y-51610000D01*
X42800000Y-51610000D01*
X42800000Y-52110000D01*
X42000000Y-52110000D01*
X42000000Y-52358377D01*
X42030778Y-52552706D01*
X42030781Y-52552719D01*
X42091577Y-52739828D01*
X42091579Y-52739833D01*
X42180903Y-52915142D01*
X42296551Y-53074317D01*
X42435682Y-53213448D01*
X42594857Y-53329096D01*
X42770166Y-53418420D01*
X42770171Y-53418422D01*
X42957286Y-53479220D01*
X43000000Y-53485984D01*
X43000000Y-52635277D01*
X43076306Y-52679333D01*
X43190756Y-52710000D01*
X43309244Y-52710000D01*
X43423694Y-52679333D01*
X43500000Y-52635277D01*
X43500000Y-53485983D01*
X43542713Y-53479220D01*
X43729828Y-53418422D01*
X43729833Y-53418420D01*
X43905142Y-53329096D01*
X44064317Y-53213448D01*
X44203448Y-53074317D01*
X44319096Y-52915142D01*
X44385023Y-52785753D01*
X44408420Y-52739833D01*
X44408422Y-52739828D01*
X44469218Y-52552719D01*
X44469221Y-52552706D01*
X44500000Y-52358377D01*
X44500000Y-52110000D01*
X43700000Y-52110000D01*
X43700000Y-51702171D01*
X62650000Y-51702171D01*
X62650000Y-52350000D01*
X63566988Y-52350000D01*
X63534075Y-52407007D01*
X63500000Y-52534174D01*
X63500000Y-52665826D01*
X63534075Y-52792993D01*
X63566988Y-52850000D01*
X62650000Y-52850000D01*
X62650000Y-53497828D01*
X62656402Y-53557375D01*
X62656403Y-53557380D01*
X62706645Y-53692087D01*
X62706646Y-53692088D01*
X62792811Y-53807188D01*
X62907911Y-53893353D01*
X62907912Y-53893354D01*
X63042619Y-53943596D01*
X63042624Y-53943597D01*
X63102171Y-53950000D01*
X63750000Y-53950000D01*
X63750000Y-53033012D01*
X63807007Y-53065925D01*
X63934174Y-53100000D01*
X64065826Y-53100000D01*
X64192993Y-53065925D01*
X64250000Y-53033012D01*
X64250000Y-53950000D01*
X64897829Y-53950000D01*
X64957375Y-53943597D01*
X64957380Y-53943596D01*
X65092087Y-53893354D01*
X65092088Y-53893353D01*
X65207188Y-53807188D01*
X65293353Y-53692088D01*
X65293354Y-53692087D01*
X65343596Y-53557380D01*
X65343597Y-53557375D01*
X65350000Y-53497828D01*
X65350000Y-52753484D01*
X65371674Y-52701158D01*
X65424000Y-52679484D01*
X65476326Y-52701158D01*
X65496578Y-52739048D01*
X65529868Y-52906413D01*
X65529870Y-52906420D01*
X65609059Y-53097598D01*
X65719780Y-53263306D01*
X65724023Y-53269655D01*
X65870345Y-53415977D01*
X66042402Y-53530941D01*
X66233580Y-53610130D01*
X66436535Y-53650500D01*
X66436536Y-53650500D01*
X66643464Y-53650500D01*
X66643465Y-53650500D01*
X66846420Y-53610130D01*
X67037598Y-53530941D01*
X67209655Y-53415977D01*
X67355977Y-53269655D01*
X67470941Y-53097598D01*
X67550130Y-52906420D01*
X67590500Y-52703465D01*
X67590500Y-52496535D01*
X68029500Y-52496535D01*
X68029500Y-52703464D01*
X68069868Y-52906413D01*
X68069870Y-52906420D01*
X68149059Y-53097598D01*
X68259780Y-53263306D01*
X68264023Y-53269655D01*
X68410345Y-53415977D01*
X68582402Y-53530941D01*
X68773580Y-53610130D01*
X68976535Y-53650500D01*
X68976536Y-53650500D01*
X69183464Y-53650500D01*
X69183465Y-53650500D01*
X69386420Y-53610130D01*
X69577598Y-53530941D01*
X69749655Y-53415977D01*
X69895977Y-53269655D01*
X70010941Y-53097598D01*
X70090130Y-52906420D01*
X70130500Y-52703465D01*
X70130500Y-52496535D01*
X70090130Y-52293580D01*
X70010941Y-52102402D01*
X69895977Y-51930345D01*
X69749655Y-51784023D01*
X69577598Y-51669059D01*
X69386420Y-51589870D01*
X69386413Y-51589868D01*
X69233516Y-51559455D01*
X69183465Y-51549500D01*
X68976535Y-51549500D01*
X68936385Y-51557486D01*
X68773586Y-51589868D01*
X68773579Y-51589870D01*
X68582401Y-51669059D01*
X68410345Y-51784022D01*
X68410344Y-51784024D01*
X68264024Y-51930344D01*
X68264022Y-51930345D01*
X68149059Y-52102401D01*
X68069870Y-52293579D01*
X68069868Y-52293586D01*
X68029500Y-52496535D01*
X67590500Y-52496535D01*
X67550130Y-52293580D01*
X67470941Y-52102402D01*
X67355977Y-51930345D01*
X67209655Y-51784023D01*
X67037598Y-51669059D01*
X66846420Y-51589870D01*
X66846413Y-51589868D01*
X66693516Y-51559455D01*
X66643465Y-51549500D01*
X66436535Y-51549500D01*
X66396385Y-51557486D01*
X66233586Y-51589868D01*
X66233579Y-51589870D01*
X66042401Y-51669059D01*
X65870345Y-51784022D01*
X65870344Y-51784024D01*
X65724024Y-51930344D01*
X65724022Y-51930345D01*
X65609059Y-52102401D01*
X65529870Y-52293579D01*
X65529868Y-52293586D01*
X65496578Y-52460951D01*
X65465112Y-52508044D01*
X65409564Y-52519093D01*
X65362471Y-52487627D01*
X65350000Y-52446515D01*
X65350000Y-51702171D01*
X65343597Y-51642624D01*
X65343596Y-51642619D01*
X65293354Y-51507912D01*
X65293353Y-51507911D01*
X65207188Y-51392811D01*
X65092088Y-51306646D01*
X65092087Y-51306645D01*
X64957380Y-51256403D01*
X64957375Y-51256402D01*
X64897829Y-51250000D01*
X64250000Y-51250000D01*
X64250000Y-52166988D01*
X64192993Y-52134075D01*
X64065826Y-52100000D01*
X63934174Y-52100000D01*
X63807007Y-52134075D01*
X63750000Y-52166988D01*
X63750000Y-51250000D01*
X63102171Y-51250000D01*
X63042624Y-51256402D01*
X63042619Y-51256403D01*
X62907912Y-51306645D01*
X62907911Y-51306646D01*
X62792811Y-51392811D01*
X62706646Y-51507911D01*
X62706645Y-51507912D01*
X62656403Y-51642619D01*
X62656402Y-51642624D01*
X62650000Y-51702171D01*
X43700000Y-51702171D01*
X43700000Y-51610000D01*
X44500000Y-51610000D01*
X44500000Y-51361622D01*
X44469221Y-51167293D01*
X44469218Y-51167280D01*
X44408422Y-50980171D01*
X44408420Y-50980166D01*
X44319096Y-50804857D01*
X44203448Y-50645682D01*
X44064317Y-50506551D01*
X43905142Y-50390903D01*
X43729832Y-50301579D01*
X43542716Y-50240780D01*
X43542709Y-50240779D01*
X43500000Y-50234014D01*
X43500000Y-51084722D01*
X43423694Y-51040667D01*
X43309244Y-51010000D01*
X43190756Y-51010000D01*
X43076306Y-51040667D01*
X43000000Y-51084722D01*
X43000000Y-50234014D01*
X42957290Y-50240779D01*
X42957283Y-50240780D01*
X42770167Y-50301579D01*
X42770166Y-50301579D01*
X42594857Y-50390903D01*
X42435682Y-50506551D01*
X42296551Y-50645682D01*
X42180903Y-50804857D01*
X42091579Y-50980166D01*
X42091577Y-50980171D01*
X42030781Y-51167280D01*
X42030778Y-51167293D01*
X42000000Y-51361622D01*
X30000000Y-51361622D01*
X29969221Y-51167293D01*
X29969218Y-51167280D01*
X29908422Y-50980171D01*
X29908420Y-50980166D01*
X29819096Y-50804857D01*
X29703448Y-50645682D01*
X29564317Y-50506551D01*
X29405142Y-50390903D01*
X29229832Y-50301579D01*
X29042716Y-50240780D01*
X29042709Y-50240779D01*
X29000000Y-50234014D01*
X29000000Y-51084722D01*
X28923694Y-51040667D01*
X28809244Y-51010000D01*
X28690756Y-51010000D01*
X28576306Y-51040667D01*
X28500000Y-51084722D01*
X28500000Y-50234014D01*
X28457290Y-50240779D01*
X28457283Y-50240780D01*
X28270167Y-50301579D01*
X28270166Y-50301579D01*
X28094857Y-50390903D01*
X27935682Y-50506551D01*
X27796551Y-50645682D01*
X27680903Y-50804857D01*
X27591579Y-50980166D01*
X27591577Y-50980171D01*
X27530781Y-51167280D01*
X27530778Y-51167293D01*
X27500000Y-51361622D01*
X500500Y-51361622D01*
X500500Y-49026509D01*
X8680000Y-49026509D01*
X8680000Y-49425000D01*
X9380000Y-49425000D01*
X9380000Y-49925000D01*
X8680000Y-49925000D01*
X8680000Y-50323490D01*
X8718427Y-50516682D01*
X8718430Y-50516693D01*
X8793809Y-50698675D01*
X8903246Y-50862459D01*
X9042540Y-51001753D01*
X9206324Y-51111190D01*
X9388306Y-51186569D01*
X9388317Y-51186572D01*
X9429999Y-51194863D01*
X9430000Y-51194863D01*
X9430000Y-50391988D01*
X9439940Y-50409205D01*
X9495795Y-50465060D01*
X9564204Y-50504556D01*
X9640504Y-50525000D01*
X9719496Y-50525000D01*
X9795796Y-50504556D01*
X9864205Y-50465060D01*
X9920060Y-50409205D01*
X9930000Y-50391988D01*
X9930000Y-51194863D01*
X9971682Y-51186572D01*
X9971693Y-51186569D01*
X10153675Y-51111190D01*
X10317459Y-51001753D01*
X10456753Y-50862459D01*
X10566189Y-50698675D01*
X10589299Y-50642881D01*
X10629347Y-50602832D01*
X10685984Y-50602830D01*
X10709989Y-50618869D01*
X10756635Y-50665515D01*
X10887865Y-50741281D01*
X11034231Y-50780499D01*
X11034232Y-50780500D01*
X11034234Y-50780500D01*
X11185768Y-50780500D01*
X11185768Y-50780499D01*
X11332135Y-50741281D01*
X11463365Y-50665515D01*
X11570515Y-50558365D01*
X11646281Y-50427135D01*
X11685499Y-50280768D01*
X11685500Y-50280768D01*
X11685500Y-50129232D01*
X11685499Y-50129231D01*
X16314500Y-50129231D01*
X16314500Y-50280768D01*
X16353717Y-50427130D01*
X16353721Y-50427139D01*
X16429483Y-50558362D01*
X16429485Y-50558365D01*
X16536635Y-50665515D01*
X16667865Y-50741281D01*
X16814231Y-50780499D01*
X16814232Y-50780500D01*
X16814234Y-50780500D01*
X16965768Y-50780500D01*
X16965768Y-50780499D01*
X17112135Y-50741281D01*
X17243365Y-50665515D01*
X17290006Y-50618873D01*
X17342330Y-50597199D01*
X17394656Y-50618873D01*
X17410698Y-50642880D01*
X17433810Y-50698677D01*
X17543246Y-50862459D01*
X17682540Y-51001753D01*
X17846324Y-51111190D01*
X18028306Y-51186569D01*
X18028317Y-51186572D01*
X18069999Y-51194863D01*
X18070000Y-51194863D01*
X18070000Y-50391988D01*
X18079940Y-50409205D01*
X18135795Y-50465060D01*
X18204204Y-50504556D01*
X18280504Y-50525000D01*
X18359496Y-50525000D01*
X18435796Y-50504556D01*
X18504205Y-50465060D01*
X18560060Y-50409205D01*
X18570000Y-50391988D01*
X18570000Y-51194863D01*
X18611682Y-51186572D01*
X18611693Y-51186569D01*
X18793675Y-51111190D01*
X18957459Y-51001753D01*
X19096753Y-50862459D01*
X19206190Y-50698675D01*
X19281569Y-50516693D01*
X19281572Y-50516682D01*
X19320000Y-50323490D01*
X19320000Y-49925000D01*
X18620000Y-49925000D01*
X18620000Y-49425000D01*
X19320000Y-49425000D01*
X19320000Y-49026509D01*
X19281572Y-48833317D01*
X19281569Y-48833306D01*
X19206190Y-48651324D01*
X19096753Y-48487540D01*
X18957459Y-48348246D01*
X18793675Y-48238809D01*
X18611691Y-48163429D01*
X18611684Y-48163427D01*
X18570000Y-48155136D01*
X18570000Y-48958011D01*
X18560060Y-48940795D01*
X18504205Y-48884940D01*
X18435796Y-48845444D01*
X18359496Y-48825000D01*
X18280504Y-48825000D01*
X18204204Y-48845444D01*
X18135795Y-48884940D01*
X18079940Y-48940795D01*
X18070000Y-48958011D01*
X18070000Y-48155136D01*
X18069999Y-48155136D01*
X18028315Y-48163427D01*
X18028308Y-48163429D01*
X17846324Y-48238809D01*
X17682540Y-48348246D01*
X17543246Y-48487540D01*
X17433809Y-48651324D01*
X17358430Y-48833306D01*
X17358427Y-48833317D01*
X17320000Y-49026509D01*
X17320000Y-49425000D01*
X18020000Y-49425000D01*
X18020000Y-49925000D01*
X17435596Y-49925000D01*
X17383270Y-49903326D01*
X17371510Y-49888000D01*
X17350514Y-49851634D01*
X17243365Y-49744485D01*
X17243362Y-49744483D01*
X17112139Y-49668721D01*
X17112130Y-49668717D01*
X16965768Y-49629500D01*
X16965766Y-49629500D01*
X16814234Y-49629500D01*
X16814232Y-49629500D01*
X16667869Y-49668717D01*
X16667860Y-49668721D01*
X16536637Y-49744483D01*
X16429483Y-49851637D01*
X16353721Y-49982860D01*
X16353717Y-49982869D01*
X16314500Y-50129231D01*
X11685499Y-50129231D01*
X11646282Y-49982869D01*
X11646281Y-49982865D01*
X11570515Y-49851635D01*
X11463365Y-49744485D01*
X11463362Y-49744483D01*
X11332139Y-49668721D01*
X11332130Y-49668717D01*
X11185768Y-49629500D01*
X11185766Y-49629500D01*
X11034234Y-49629500D01*
X11034232Y-49629500D01*
X10887869Y-49668717D01*
X10887860Y-49668721D01*
X10756637Y-49744483D01*
X10649485Y-49851634D01*
X10628490Y-49888000D01*
X10583557Y-49922478D01*
X10564404Y-49925000D01*
X9980000Y-49925000D01*
X9980000Y-49425000D01*
X10680000Y-49425000D01*
X10680000Y-49026509D01*
X10641572Y-48833317D01*
X10641569Y-48833306D01*
X10566190Y-48651324D01*
X10456753Y-48487540D01*
X10317459Y-48348246D01*
X10153675Y-48238809D01*
X9971691Y-48163429D01*
X9971684Y-48163427D01*
X9930000Y-48155136D01*
X9930000Y-48958011D01*
X9920060Y-48940795D01*
X9864205Y-48884940D01*
X9795796Y-48845444D01*
X9719496Y-48825000D01*
X9640504Y-48825000D01*
X9564204Y-48845444D01*
X9495795Y-48884940D01*
X9439940Y-48940795D01*
X9430000Y-48958011D01*
X9430000Y-48155136D01*
X9429999Y-48155136D01*
X9388315Y-48163427D01*
X9388308Y-48163429D01*
X9206324Y-48238809D01*
X9042540Y-48348246D01*
X8903246Y-48487540D01*
X8793809Y-48651324D01*
X8718430Y-48833306D01*
X8718427Y-48833317D01*
X8680000Y-49026509D01*
X500500Y-49026509D01*
X500500Y-44901622D01*
X27500000Y-44901622D01*
X27500000Y-45650000D01*
X28300000Y-45650000D01*
X28300000Y-46150000D01*
X27500000Y-46150000D01*
X27500000Y-46898377D01*
X27530778Y-47092706D01*
X27530781Y-47092719D01*
X27591577Y-47279828D01*
X27591579Y-47279833D01*
X27680903Y-47455142D01*
X27796551Y-47614317D01*
X27935682Y-47753448D01*
X28094857Y-47869096D01*
X28270166Y-47958420D01*
X28270171Y-47958422D01*
X28457286Y-48019220D01*
X28500000Y-48025984D01*
X28500000Y-47175277D01*
X28576306Y-47219333D01*
X28690756Y-47250000D01*
X28809244Y-47250000D01*
X28923694Y-47219333D01*
X29000000Y-47175277D01*
X29000000Y-48025983D01*
X29042713Y-48019220D01*
X29229828Y-47958422D01*
X29229833Y-47958420D01*
X29405142Y-47869096D01*
X29564317Y-47753448D01*
X29703448Y-47614317D01*
X29819096Y-47455142D01*
X29908420Y-47279833D01*
X29908422Y-47279828D01*
X29969218Y-47092719D01*
X29969221Y-47092706D01*
X30000000Y-46898377D01*
X30000000Y-46150000D01*
X29200000Y-46150000D01*
X29200000Y-45650000D01*
X30000000Y-45650000D01*
X30000000Y-44901622D01*
X42000000Y-44901622D01*
X42000000Y-45650000D01*
X42800000Y-45650000D01*
X42800000Y-46150000D01*
X42000000Y-46150000D01*
X42000000Y-46898377D01*
X42030778Y-47092706D01*
X42030781Y-47092719D01*
X42091577Y-47279828D01*
X42091579Y-47279833D01*
X42180903Y-47455142D01*
X42296551Y-47614317D01*
X42435682Y-47753448D01*
X42594857Y-47869096D01*
X42770166Y-47958420D01*
X42770171Y-47958422D01*
X42957286Y-48019220D01*
X43000000Y-48025984D01*
X43000000Y-47175277D01*
X43076306Y-47219333D01*
X43190756Y-47250000D01*
X43309244Y-47250000D01*
X43423694Y-47219333D01*
X43500000Y-47175277D01*
X43500000Y-48025983D01*
X43542713Y-48019220D01*
X43729828Y-47958422D01*
X43729833Y-47958420D01*
X43905142Y-47869096D01*
X44064317Y-47753448D01*
X44203448Y-47614317D01*
X44319096Y-47455142D01*
X44408420Y-47279833D01*
X44408422Y-47279828D01*
X44469218Y-47092719D01*
X44469221Y-47092706D01*
X44500000Y-46898377D01*
X44500000Y-46150000D01*
X43700000Y-46150000D01*
X43700000Y-45650000D01*
X44500000Y-45650000D01*
X44500000Y-44901622D01*
X44469221Y-44707293D01*
X44469218Y-44707280D01*
X44408422Y-44520171D01*
X44408420Y-44520166D01*
X44319096Y-44344857D01*
X44203448Y-44185682D01*
X44064317Y-44046551D01*
X43905142Y-43930903D01*
X43729832Y-43841579D01*
X43542716Y-43780780D01*
X43542709Y-43780779D01*
X43500000Y-43774014D01*
X43500000Y-44624722D01*
X43423694Y-44580667D01*
X43309244Y-44550000D01*
X43190756Y-44550000D01*
X43076306Y-44580667D01*
X43000000Y-44624722D01*
X43000000Y-43774014D01*
X42957290Y-43780779D01*
X42957283Y-43780780D01*
X42770167Y-43841579D01*
X42770166Y-43841579D01*
X42594857Y-43930903D01*
X42435682Y-44046551D01*
X42296551Y-44185682D01*
X42180903Y-44344857D01*
X42091579Y-44520166D01*
X42091577Y-44520171D01*
X42030781Y-44707280D01*
X42030778Y-44707293D01*
X42000000Y-44901622D01*
X30000000Y-44901622D01*
X29969221Y-44707293D01*
X29969218Y-44707280D01*
X29908422Y-44520171D01*
X29908420Y-44520166D01*
X29819096Y-44344857D01*
X29703448Y-44185682D01*
X29564317Y-44046551D01*
X29405142Y-43930903D01*
X29229832Y-43841579D01*
X29042716Y-43780780D01*
X29042709Y-43780779D01*
X29000000Y-43774014D01*
X29000000Y-44624722D01*
X28923694Y-44580667D01*
X28809244Y-44550000D01*
X28690756Y-44550000D01*
X28576306Y-44580667D01*
X28500000Y-44624722D01*
X28500000Y-43774014D01*
X28457290Y-43780779D01*
X28457283Y-43780780D01*
X28270167Y-43841579D01*
X28270166Y-43841579D01*
X28094857Y-43930903D01*
X27935682Y-44046551D01*
X27796551Y-44185682D01*
X27680903Y-44344857D01*
X27591579Y-44520166D01*
X27591577Y-44520171D01*
X27530781Y-44707280D01*
X27530778Y-44707293D01*
X27500000Y-44901622D01*
X500500Y-44901622D01*
X500500Y-34150000D01*
X72230885Y-34150000D01*
X73188012Y-34150000D01*
X73170795Y-34159940D01*
X73114940Y-34215795D01*
X73075444Y-34284204D01*
X73055000Y-34360504D01*
X73055000Y-34439496D01*
X73075444Y-34515796D01*
X73114940Y-34584205D01*
X73170795Y-34640060D01*
X73188012Y-34650000D01*
X72230885Y-34650000D01*
X72232086Y-34657586D01*
X72232088Y-34657592D01*
X72285588Y-34822249D01*
X72364197Y-34976526D01*
X72364198Y-34976528D01*
X72465964Y-35116597D01*
X72465972Y-35116607D01*
X72588393Y-35239028D01*
X72588402Y-35239035D01*
X72728471Y-35340801D01*
X72728473Y-35340802D01*
X72882750Y-35419411D01*
X72882749Y-35419411D01*
X73047405Y-35472911D01*
X73047418Y-35472914D01*
X73218426Y-35500000D01*
X73655000Y-35500000D01*
X73655000Y-34700000D01*
X74155000Y-34700000D01*
X74155000Y-35500000D01*
X74591574Y-35500000D01*
X74762581Y-35472914D01*
X74762594Y-35472911D01*
X74927249Y-35419411D01*
X75081526Y-35340802D01*
X75081528Y-35340801D01*
X75221597Y-35239035D01*
X75221607Y-35239028D01*
X75344028Y-35116607D01*
X75344035Y-35116597D01*
X75445801Y-34976528D01*
X75445802Y-34976526D01*
X75524411Y-34822249D01*
X75577911Y-34657592D01*
X75577913Y-34657586D01*
X75579115Y-34650000D01*
X74621988Y-34650000D01*
X74639205Y-34640060D01*
X74695060Y-34584205D01*
X74734556Y-34515796D01*
X74755000Y-34439496D01*
X74755000Y-34360504D01*
X74734556Y-34284204D01*
X74695060Y-34215795D01*
X74639205Y-34159940D01*
X74621988Y-34150000D01*
X75579115Y-34150000D01*
X80880885Y-34150000D01*
X81838012Y-34150000D01*
X81820795Y-34159940D01*
X81764940Y-34215795D01*
X81725444Y-34284204D01*
X81705000Y-34360504D01*
X81705000Y-34439496D01*
X81725444Y-34515796D01*
X81764940Y-34584205D01*
X81820795Y-34640060D01*
X81838012Y-34650000D01*
X80880885Y-34650000D01*
X80882086Y-34657586D01*
X80882088Y-34657592D01*
X80935588Y-34822249D01*
X81014197Y-34976526D01*
X81014198Y-34976528D01*
X81115964Y-35116597D01*
X81115972Y-35116607D01*
X81238393Y-35239028D01*
X81238402Y-35239035D01*
X81378471Y-35340801D01*
X81378473Y-35340802D01*
X81532750Y-35419411D01*
X81532749Y-35419411D01*
X81697405Y-35472911D01*
X81697418Y-35472914D01*
X81868426Y-35500000D01*
X82155000Y-35500000D01*
X82155000Y-34700000D01*
X82655000Y-34700000D01*
X82655000Y-35500000D01*
X82941574Y-35500000D01*
X83112581Y-35472914D01*
X83112594Y-35472911D01*
X83277249Y-35419411D01*
X83431526Y-35340802D01*
X83431528Y-35340801D01*
X83571597Y-35239035D01*
X83571607Y-35239028D01*
X83694028Y-35116607D01*
X83694035Y-35116597D01*
X83795801Y-34976528D01*
X83795802Y-34976526D01*
X83874411Y-34822249D01*
X83927911Y-34657592D01*
X83927913Y-34657586D01*
X83929115Y-34650000D01*
X82971988Y-34650000D01*
X82989205Y-34640060D01*
X83045060Y-34584205D01*
X83084556Y-34515796D01*
X83105000Y-34439496D01*
X83105000Y-34360504D01*
X83084556Y-34284204D01*
X83045060Y-34215795D01*
X82989205Y-34159940D01*
X82971988Y-34150000D01*
X83929115Y-34150000D01*
X83927913Y-34142413D01*
X83927911Y-34142407D01*
X83874411Y-33977750D01*
X83795802Y-33823473D01*
X83795801Y-33823471D01*
X83694035Y-33683402D01*
X83694028Y-33683393D01*
X83571607Y-33560972D01*
X83571597Y-33560964D01*
X83431528Y-33459198D01*
X83431526Y-33459197D01*
X83277249Y-33380588D01*
X83277250Y-33380588D01*
X83112594Y-33327088D01*
X83112581Y-33327085D01*
X82941574Y-33300000D01*
X82655000Y-33300000D01*
X82655000Y-34100000D01*
X82155000Y-34100000D01*
X82155000Y-33300000D01*
X81868426Y-33300000D01*
X81697418Y-33327085D01*
X81697405Y-33327088D01*
X81532750Y-33380588D01*
X81378473Y-33459197D01*
X81378471Y-33459198D01*
X81238402Y-33560964D01*
X81238393Y-33560972D01*
X81115972Y-33683393D01*
X81115964Y-33683402D01*
X81014198Y-33823471D01*
X81014197Y-33823473D01*
X80935588Y-33977750D01*
X80882088Y-34142407D01*
X80882086Y-34142413D01*
X80880885Y-34150000D01*
X75579115Y-34150000D01*
X75577913Y-34142413D01*
X75577911Y-34142407D01*
X75524411Y-33977750D01*
X75445802Y-33823473D01*
X75445801Y-33823471D01*
X75344035Y-33683402D01*
X75344028Y-33683393D01*
X75221607Y-33560972D01*
X75221597Y-33560964D01*
X75081528Y-33459198D01*
X75081526Y-33459197D01*
X74927249Y-33380588D01*
X74927250Y-33380588D01*
X74762594Y-33327088D01*
X74762581Y-33327085D01*
X74591574Y-33300000D01*
X74155000Y-33300000D01*
X74155000Y-34100000D01*
X73655000Y-34100000D01*
X73655000Y-33300000D01*
X73218426Y-33300000D01*
X73047418Y-33327085D01*
X73047405Y-33327088D01*
X72882750Y-33380588D01*
X72728473Y-33459197D01*
X72728471Y-33459198D01*
X72588402Y-33560964D01*
X72588393Y-33560972D01*
X72465972Y-33683393D01*
X72465964Y-33683402D01*
X72364198Y-33823471D01*
X72364197Y-33823473D01*
X72285588Y-33977750D01*
X72232088Y-34142407D01*
X72232086Y-34142413D01*
X72230885Y-34150000D01*
X500500Y-34150000D01*
X500500Y-31921159D01*
X72354500Y-31921159D01*
X72354500Y-32078840D01*
X72385261Y-32233491D01*
X72385264Y-32233501D01*
X72445603Y-32379174D01*
X72445605Y-32379177D01*
X72445606Y-32379179D01*
X72533211Y-32510289D01*
X72644711Y-32621789D01*
X72775821Y-32709394D01*
X72775826Y-32709396D01*
X72775825Y-32709396D01*
X72921498Y-32769735D01*
X72921503Y-32769737D01*
X73076158Y-32800500D01*
X73076160Y-32800500D01*
X73233840Y-32800500D01*
X73233842Y-32800500D01*
X73388497Y-32769737D01*
X73534179Y-32709394D01*
X73665289Y-32621789D01*
X73776789Y-32510289D01*
X73864394Y-32379179D01*
X73921605Y-32241057D01*
X73961652Y-32201010D01*
X74018289Y-32201010D01*
X74033913Y-32209836D01*
X74092118Y-32252793D01*
X74092119Y-32252793D01*
X74092120Y-32252794D01*
X74220295Y-32297644D01*
X74220301Y-32297646D01*
X74250734Y-32300500D01*
X74250741Y-32300500D01*
X75059258Y-32300500D01*
X75059266Y-32300500D01*
X75089699Y-32297646D01*
X75217882Y-32252793D01*
X75327150Y-32172150D01*
X75407793Y-32062882D01*
X75452646Y-31934699D01*
X75455500Y-31904266D01*
X75455500Y-31095734D01*
X75452646Y-31065301D01*
X75407793Y-30937118D01*
X75407792Y-30937116D01*
X75327153Y-30827853D01*
X75327146Y-30827846D01*
X75217883Y-30747207D01*
X75217881Y-30747206D01*
X75089704Y-30702355D01*
X75089705Y-30702355D01*
X75089700Y-30702354D01*
X75089699Y-30702354D01*
X75059266Y-30699500D01*
X74250734Y-30699500D01*
X74220301Y-30702354D01*
X74220299Y-30702354D01*
X74220295Y-30702355D01*
X74092118Y-30747206D01*
X74092116Y-30747207D01*
X73982853Y-30827846D01*
X73982846Y-30827853D01*
X73902207Y-30937116D01*
X73902206Y-30937118D01*
X73857355Y-31065295D01*
X73857354Y-31065299D01*
X73857354Y-31065301D01*
X73854500Y-31095734D01*
X73854500Y-31095740D01*
X73854500Y-31388770D01*
X73832826Y-31441096D01*
X73780500Y-31462770D01*
X73728174Y-31441096D01*
X73665288Y-31378210D01*
X73632842Y-31356530D01*
X73534179Y-31290606D01*
X73534175Y-31290604D01*
X73534173Y-31290603D01*
X73534174Y-31290603D01*
X73388501Y-31230264D01*
X73388491Y-31230261D01*
X73284925Y-31209661D01*
X73233842Y-31199500D01*
X73076158Y-31199500D01*
X73032315Y-31208220D01*
X72921508Y-31230261D01*
X72921498Y-31230264D01*
X72775825Y-31290603D01*
X72644711Y-31378210D01*
X72644710Y-31378212D01*
X72533212Y-31489710D01*
X72533210Y-31489711D01*
X72445603Y-31620825D01*
X72385264Y-31766498D01*
X72385261Y-31766508D01*
X72359580Y-31895616D01*
X72357862Y-31904259D01*
X72354500Y-31921159D01*
X500500Y-31921159D01*
X500500Y-27913426D01*
X72055000Y-27913426D01*
X72055000Y-28086573D01*
X72082085Y-28257581D01*
X72082088Y-28257594D01*
X72135588Y-28422250D01*
X72135590Y-28422255D01*
X72214190Y-28576516D01*
X72214198Y-28576529D01*
X72218708Y-28582735D01*
X72218709Y-28582735D01*
X72801445Y-27999999D01*
X72218709Y-27417263D01*
X72218708Y-27417263D01*
X72214195Y-27423475D01*
X72135587Y-27577752D01*
X72082088Y-27742405D01*
X72082085Y-27742418D01*
X72055000Y-27913426D01*
X500500Y-27913426D01*
X500500Y-25921159D01*
X72354500Y-25921159D01*
X72354500Y-26078840D01*
X72385261Y-26233491D01*
X72385264Y-26233501D01*
X72445603Y-26379174D01*
X72519460Y-26489710D01*
X72533211Y-26510289D01*
X72644711Y-26621789D01*
X72775821Y-26709394D01*
X72775826Y-26709396D01*
X72775825Y-26709396D01*
X72913683Y-26766498D01*
X72921503Y-26769737D01*
X72944788Y-26774368D01*
X72991879Y-26805832D01*
X73002930Y-26861381D01*
X72971465Y-26908474D01*
X72941929Y-26920035D01*
X72897415Y-26927086D01*
X72897405Y-26927088D01*
X72732752Y-26980587D01*
X72578475Y-27059195D01*
X72572263Y-27063708D01*
X72572263Y-27063709D01*
X73158554Y-27650000D01*
X73108922Y-27650000D01*
X73019905Y-27673852D01*
X72940095Y-27719930D01*
X72874930Y-27785095D01*
X72828852Y-27864905D01*
X72805000Y-27953922D01*
X72805000Y-28046078D01*
X72828852Y-28135095D01*
X72874930Y-28214905D01*
X72940095Y-28280070D01*
X73019905Y-28326148D01*
X73108922Y-28350000D01*
X73158552Y-28350000D01*
X72572262Y-28936289D01*
X72572263Y-28936290D01*
X72578474Y-28940803D01*
X72578480Y-28940807D01*
X72732744Y-29019409D01*
X72732749Y-29019411D01*
X72897405Y-29072911D01*
X72897416Y-29072913D01*
X72941928Y-29079964D01*
X72990218Y-29109557D01*
X73003440Y-29164630D01*
X72973847Y-29212920D01*
X72944788Y-29225631D01*
X72921508Y-29230261D01*
X72921498Y-29230264D01*
X72775825Y-29290603D01*
X72644711Y-29378210D01*
X72644710Y-29378212D01*
X72533212Y-29489710D01*
X72533210Y-29489711D01*
X72445603Y-29620825D01*
X72385264Y-29766498D01*
X72385261Y-29766508D01*
X72354500Y-29921159D01*
X72354500Y-30078840D01*
X72385261Y-30233491D01*
X72385264Y-30233501D01*
X72445603Y-30379174D01*
X72445605Y-30379177D01*
X72445606Y-30379179D01*
X72533211Y-30510289D01*
X72644711Y-30621789D01*
X72775821Y-30709394D01*
X72775826Y-30709396D01*
X72775825Y-30709396D01*
X72867108Y-30747206D01*
X72921503Y-30769737D01*
X73076158Y-30800500D01*
X73076160Y-30800500D01*
X73233840Y-30800500D01*
X73233842Y-30800500D01*
X73388497Y-30769737D01*
X73534179Y-30709394D01*
X73665289Y-30621789D01*
X73776789Y-30510289D01*
X73864394Y-30379179D01*
X73924737Y-30233497D01*
X73955500Y-30078842D01*
X73955500Y-29921158D01*
X73924737Y-29766503D01*
X73864394Y-29620821D01*
X73776789Y-29489711D01*
X73665289Y-29378211D01*
X73534179Y-29290606D01*
X73534175Y-29290604D01*
X73534173Y-29290603D01*
X73534174Y-29290603D01*
X73388501Y-29230264D01*
X73388491Y-29230261D01*
X73365211Y-29225631D01*
X73318119Y-29194165D01*
X73307070Y-29138616D01*
X73338536Y-29091524D01*
X73368072Y-29079964D01*
X73412581Y-29072914D01*
X73412594Y-29072911D01*
X73577249Y-29019411D01*
X73731524Y-28940803D01*
X73737002Y-28936824D01*
X73792073Y-28923601D01*
X73840366Y-28953192D01*
X73854500Y-28996690D01*
X73854500Y-29078842D01*
X73857023Y-29091524D01*
X73885261Y-29233491D01*
X73885264Y-29233501D01*
X73945603Y-29379174D01*
X74019460Y-29489710D01*
X74033211Y-29510289D01*
X74144711Y-29621789D01*
X74275821Y-29709394D01*
X74275826Y-29709396D01*
X74275825Y-29709396D01*
X74413683Y-29766498D01*
X74421503Y-29769737D01*
X74576158Y-29800500D01*
X74576160Y-29800500D01*
X74733840Y-29800500D01*
X74733842Y-29800500D01*
X74888497Y-29769737D01*
X75034179Y-29709394D01*
X75165289Y-29621789D01*
X75276789Y-29510289D01*
X75364394Y-29379179D01*
X75424737Y-29233497D01*
X75455500Y-29078842D01*
X75455500Y-28921158D01*
X75424737Y-28766503D01*
X75364394Y-28620821D01*
X75276789Y-28489711D01*
X75165289Y-28378211D01*
X75034179Y-28290606D01*
X75034175Y-28290604D01*
X75034173Y-28290603D01*
X75034174Y-28290603D01*
X74888501Y-28230264D01*
X74888491Y-28230261D01*
X74784925Y-28209661D01*
X74733842Y-28199500D01*
X74576158Y-28199500D01*
X74532315Y-28208220D01*
X74421508Y-28230261D01*
X74421498Y-28230264D01*
X74341030Y-28263595D01*
X74284393Y-28263595D01*
X74244345Y-28223546D01*
X74239623Y-28183651D01*
X74255000Y-28086572D01*
X74255000Y-27913427D01*
X74239623Y-27816348D01*
X74252844Y-27761276D01*
X74301135Y-27731682D01*
X74341028Y-27736403D01*
X74421503Y-27769737D01*
X74576158Y-27800500D01*
X74576160Y-27800500D01*
X74733840Y-27800500D01*
X74733842Y-27800500D01*
X74888497Y-27769737D01*
X75034179Y-27709394D01*
X75165289Y-27621789D01*
X75276789Y-27510289D01*
X75364394Y-27379179D01*
X75424737Y-27233497D01*
X75455500Y-27078842D01*
X75455500Y-26921158D01*
X75424737Y-26766503D01*
X75364394Y-26620821D01*
X75276789Y-26489711D01*
X75165289Y-26378211D01*
X75034179Y-26290606D01*
X75034175Y-26290604D01*
X75034173Y-26290603D01*
X75034174Y-26290603D01*
X74888501Y-26230264D01*
X74888491Y-26230261D01*
X74784925Y-26209661D01*
X74733842Y-26199500D01*
X74576158Y-26199500D01*
X74532315Y-26208220D01*
X74421508Y-26230261D01*
X74421498Y-26230264D01*
X74275825Y-26290603D01*
X74144711Y-26378210D01*
X74144710Y-26378212D01*
X74033212Y-26489710D01*
X74033210Y-26489711D01*
X73945603Y-26620825D01*
X73885264Y-26766498D01*
X73885261Y-26766508D01*
X73866390Y-26861381D01*
X73854724Y-26920035D01*
X73854500Y-26921159D01*
X73854500Y-27003309D01*
X73832826Y-27055635D01*
X73780500Y-27077309D01*
X73737007Y-27063178D01*
X73731530Y-27059199D01*
X73731526Y-27059197D01*
X73577249Y-26980588D01*
X73577250Y-26980588D01*
X73412594Y-26927088D01*
X73412584Y-26927086D01*
X73368070Y-26920035D01*
X73319780Y-26890441D01*
X73306559Y-26835368D01*
X73336153Y-26787078D01*
X73365208Y-26774369D01*
X73388497Y-26769737D01*
X73534179Y-26709394D01*
X73665289Y-26621789D01*
X73776789Y-26510289D01*
X73864394Y-26379179D01*
X73924737Y-26233497D01*
X73955500Y-26078842D01*
X73955500Y-25921158D01*
X73924737Y-25766503D01*
X73864394Y-25620821D01*
X73776789Y-25489711D01*
X73723368Y-25436290D01*
X74072263Y-25436290D01*
X74078474Y-25440803D01*
X74078480Y-25440807D01*
X74232744Y-25519409D01*
X74232749Y-25519411D01*
X74397405Y-25572911D01*
X74397418Y-25572914D01*
X74568426Y-25600000D01*
X74741574Y-25600000D01*
X74912581Y-25572914D01*
X74912594Y-25572911D01*
X75077250Y-25519411D01*
X75077255Y-25519409D01*
X75231515Y-25440809D01*
X75231531Y-25440800D01*
X75237736Y-25436290D01*
X74655000Y-24853554D01*
X74072263Y-25436290D01*
X73723368Y-25436290D01*
X73665289Y-25378211D01*
X73534179Y-25290606D01*
X73534175Y-25290604D01*
X73534173Y-25290603D01*
X73534174Y-25290603D01*
X73388501Y-25230264D01*
X73388491Y-25230261D01*
X73284925Y-25209661D01*
X73233842Y-25199500D01*
X73076158Y-25199500D01*
X73032315Y-25208220D01*
X72921508Y-25230261D01*
X72921498Y-25230264D01*
X72775825Y-25290603D01*
X72644711Y-25378210D01*
X72644710Y-25378212D01*
X72533212Y-25489710D01*
X72533210Y-25489711D01*
X72445603Y-25620825D01*
X72385264Y-25766498D01*
X72385261Y-25766508D01*
X72354500Y-25921159D01*
X500500Y-25921159D01*
X500500Y-23921159D01*
X72354500Y-23921159D01*
X72354500Y-24078840D01*
X72385261Y-24233491D01*
X72385264Y-24233501D01*
X72445603Y-24379174D01*
X72445605Y-24379177D01*
X72445606Y-24379179D01*
X72533211Y-24510289D01*
X72644711Y-24621789D01*
X72775821Y-24709394D01*
X72775826Y-24709396D01*
X72775825Y-24709396D01*
X72892187Y-24757594D01*
X72921503Y-24769737D01*
X73076158Y-24800500D01*
X73076160Y-24800500D01*
X73233840Y-24800500D01*
X73233842Y-24800500D01*
X73388497Y-24769737D01*
X73488644Y-24728255D01*
X73545279Y-24728255D01*
X73585328Y-24768303D01*
X73587339Y-24773754D01*
X73635590Y-24922253D01*
X73635590Y-24922255D01*
X73714190Y-25076516D01*
X73714198Y-25076529D01*
X73718708Y-25082735D01*
X73718709Y-25082735D01*
X74305000Y-24496445D01*
X74305000Y-24546078D01*
X74328852Y-24635095D01*
X74374930Y-24714905D01*
X74440095Y-24780070D01*
X74519905Y-24826148D01*
X74608922Y-24850000D01*
X74701078Y-24850000D01*
X74790095Y-24826148D01*
X74869905Y-24780070D01*
X74935070Y-24714905D01*
X74981148Y-24635095D01*
X75005000Y-24546078D01*
X75005000Y-24499999D01*
X75008554Y-24499999D01*
X75008554Y-24500000D01*
X75591290Y-25082736D01*
X75595800Y-25076531D01*
X75595809Y-25076515D01*
X75674409Y-24922255D01*
X75674411Y-24922250D01*
X75727911Y-24757594D01*
X75727914Y-24757581D01*
X75755000Y-24586573D01*
X75755000Y-24413426D01*
X75727914Y-24242418D01*
X75727911Y-24242405D01*
X75674411Y-24077749D01*
X75674409Y-24077744D01*
X75595807Y-23923480D01*
X75595803Y-23923474D01*
X75591290Y-23917263D01*
X75008554Y-24499999D01*
X75005000Y-24499999D01*
X75005000Y-24453922D01*
X74981148Y-24364905D01*
X74935070Y-24285095D01*
X74869905Y-24219930D01*
X74790095Y-24173852D01*
X74701078Y-24150000D01*
X74651446Y-24150000D01*
X75237735Y-23563709D01*
X75237735Y-23563708D01*
X75231529Y-23559198D01*
X75231516Y-23559190D01*
X75077255Y-23480590D01*
X75077250Y-23480588D01*
X74912594Y-23427088D01*
X74912581Y-23427085D01*
X74741574Y-23400000D01*
X74568426Y-23400000D01*
X74397418Y-23427085D01*
X74397405Y-23427088D01*
X74232750Y-23480588D01*
X74078473Y-23559196D01*
X73968901Y-23638804D01*
X73913829Y-23652025D01*
X73865538Y-23622431D01*
X73863877Y-23620048D01*
X73776789Y-23489711D01*
X73665288Y-23378210D01*
X73632842Y-23356530D01*
X73534179Y-23290606D01*
X73534175Y-23290604D01*
X73534173Y-23290603D01*
X73534174Y-23290603D01*
X73388501Y-23230264D01*
X73388491Y-23230261D01*
X73284925Y-23209661D01*
X73233842Y-23199500D01*
X73076158Y-23199500D01*
X73032315Y-23208220D01*
X72921508Y-23230261D01*
X72921498Y-23230264D01*
X72775825Y-23290603D01*
X72644711Y-23378210D01*
X72644710Y-23378212D01*
X72533212Y-23489710D01*
X72533210Y-23489711D01*
X72445603Y-23620825D01*
X72385264Y-23766498D01*
X72385261Y-23766508D01*
X72354500Y-23921159D01*
X500500Y-23921159D01*
X500500Y-21350000D01*
X72230885Y-21350000D01*
X73188012Y-21350000D01*
X73170795Y-21359940D01*
X73114940Y-21415795D01*
X73075444Y-21484204D01*
X73055000Y-21560504D01*
X73055000Y-21639496D01*
X73075444Y-21715796D01*
X73114940Y-21784205D01*
X73170795Y-21840060D01*
X73188012Y-21850000D01*
X72230885Y-21850000D01*
X72232086Y-21857586D01*
X72232088Y-21857592D01*
X72285588Y-22022249D01*
X72364197Y-22176526D01*
X72364198Y-22176528D01*
X72465964Y-22316597D01*
X72465972Y-22316607D01*
X72588393Y-22439028D01*
X72588402Y-22439035D01*
X72728471Y-22540801D01*
X72728473Y-22540802D01*
X72882750Y-22619411D01*
X72882749Y-22619411D01*
X73047405Y-22672911D01*
X73047418Y-22672914D01*
X73218426Y-22700000D01*
X73655000Y-22700000D01*
X73655000Y-21900000D01*
X74155000Y-21900000D01*
X74155000Y-22700000D01*
X74591574Y-22700000D01*
X74762581Y-22672914D01*
X74762594Y-22672911D01*
X74927249Y-22619411D01*
X75081526Y-22540802D01*
X75081528Y-22540801D01*
X75221597Y-22439035D01*
X75221607Y-22439028D01*
X75344028Y-22316607D01*
X75344035Y-22316597D01*
X75445801Y-22176528D01*
X75445802Y-22176526D01*
X75524411Y-22022249D01*
X75577911Y-21857592D01*
X75577913Y-21857586D01*
X75579115Y-21850000D01*
X74621988Y-21850000D01*
X74639205Y-21840060D01*
X74695060Y-21784205D01*
X74734556Y-21715796D01*
X74755000Y-21639496D01*
X74755000Y-21560504D01*
X74734556Y-21484204D01*
X74695060Y-21415795D01*
X74639205Y-21359940D01*
X74621988Y-21350000D01*
X75579115Y-21350000D01*
X80880885Y-21350000D01*
X81838012Y-21350000D01*
X81820795Y-21359940D01*
X81764940Y-21415795D01*
X81725444Y-21484204D01*
X81705000Y-21560504D01*
X81705000Y-21639496D01*
X81725444Y-21715796D01*
X81764940Y-21784205D01*
X81820795Y-21840060D01*
X81838012Y-21850000D01*
X80880885Y-21850000D01*
X80882086Y-21857586D01*
X80882088Y-21857592D01*
X80935588Y-22022249D01*
X81014197Y-22176526D01*
X81014198Y-22176528D01*
X81115964Y-22316597D01*
X81115972Y-22316607D01*
X81238393Y-22439028D01*
X81238402Y-22439035D01*
X81378471Y-22540801D01*
X81378473Y-22540802D01*
X81532750Y-22619411D01*
X81532749Y-22619411D01*
X81697405Y-22672911D01*
X81697418Y-22672914D01*
X81868426Y-22700000D01*
X82155000Y-22700000D01*
X82155000Y-21900000D01*
X82655000Y-21900000D01*
X82655000Y-22700000D01*
X82941574Y-22700000D01*
X83112581Y-22672914D01*
X83112594Y-22672911D01*
X83277249Y-22619411D01*
X83431526Y-22540802D01*
X83431528Y-22540801D01*
X83571597Y-22439035D01*
X83571607Y-22439028D01*
X83694028Y-22316607D01*
X83694035Y-22316597D01*
X83795801Y-22176528D01*
X83795802Y-22176526D01*
X83874411Y-22022249D01*
X83927911Y-21857592D01*
X83927913Y-21857586D01*
X83929115Y-21850000D01*
X82971988Y-21850000D01*
X82989205Y-21840060D01*
X83045060Y-21784205D01*
X83084556Y-21715796D01*
X83105000Y-21639496D01*
X83105000Y-21560504D01*
X83084556Y-21484204D01*
X83045060Y-21415795D01*
X82989205Y-21359940D01*
X82971988Y-21350000D01*
X83929115Y-21350000D01*
X83927913Y-21342413D01*
X83927911Y-21342407D01*
X83874411Y-21177750D01*
X83795802Y-21023473D01*
X83795801Y-21023471D01*
X83694035Y-20883402D01*
X83694028Y-20883393D01*
X83571607Y-20760972D01*
X83571597Y-20760964D01*
X83431528Y-20659198D01*
X83431526Y-20659197D01*
X83277249Y-20580588D01*
X83277250Y-20580588D01*
X83112594Y-20527088D01*
X83112581Y-20527085D01*
X82941574Y-20500000D01*
X82655000Y-20500000D01*
X82655000Y-21300000D01*
X82155000Y-21300000D01*
X82155000Y-20500000D01*
X81868426Y-20500000D01*
X81697418Y-20527085D01*
X81697405Y-20527088D01*
X81532750Y-20580588D01*
X81378473Y-20659197D01*
X81378471Y-20659198D01*
X81238402Y-20760964D01*
X81238393Y-20760972D01*
X81115972Y-20883393D01*
X81115964Y-20883402D01*
X81014198Y-21023471D01*
X81014197Y-21023473D01*
X80935588Y-21177750D01*
X80882088Y-21342407D01*
X80882086Y-21342413D01*
X80880885Y-21350000D01*
X75579115Y-21350000D01*
X75577913Y-21342413D01*
X75577911Y-21342407D01*
X75524411Y-21177750D01*
X75445802Y-21023473D01*
X75445801Y-21023471D01*
X75344035Y-20883402D01*
X75344028Y-20883393D01*
X75221607Y-20760972D01*
X75221597Y-20760964D01*
X75081528Y-20659198D01*
X75081526Y-20659197D01*
X74927249Y-20580588D01*
X74927250Y-20580588D01*
X74762594Y-20527088D01*
X74762581Y-20527085D01*
X74591574Y-20500000D01*
X74155000Y-20500000D01*
X74155000Y-21300000D01*
X73655000Y-21300000D01*
X73655000Y-20500000D01*
X73218426Y-20500000D01*
X73047418Y-20527085D01*
X73047405Y-20527088D01*
X72882750Y-20580588D01*
X72728473Y-20659197D01*
X72728471Y-20659198D01*
X72588402Y-20760964D01*
X72588393Y-20760972D01*
X72465972Y-20883393D01*
X72465964Y-20883402D01*
X72364198Y-21023471D01*
X72364197Y-21023473D01*
X72285588Y-21177750D01*
X72232088Y-21342407D01*
X72232086Y-21342413D01*
X72230885Y-21350000D01*
X500500Y-21350000D01*
X500500Y-10027577D01*
X37325974Y-10027577D01*
X37431232Y-10071177D01*
X37431239Y-10071179D01*
X37576132Y-10100000D01*
X37723868Y-10100000D01*
X37868760Y-10071179D01*
X37868767Y-10071177D01*
X37974024Y-10027577D01*
X38500974Y-10027577D01*
X38606232Y-10071177D01*
X38606239Y-10071179D01*
X38751132Y-10100000D01*
X38898868Y-10100000D01*
X39043760Y-10071179D01*
X39043767Y-10071177D01*
X39149024Y-10027577D01*
X39675974Y-10027577D01*
X39781232Y-10071177D01*
X39781239Y-10071179D01*
X39926132Y-10100000D01*
X40073868Y-10100000D01*
X40218760Y-10071179D01*
X40218767Y-10071177D01*
X40324024Y-10027577D01*
X40850974Y-10027577D01*
X40956232Y-10071177D01*
X40956239Y-10071179D01*
X41101132Y-10100000D01*
X41248868Y-10100000D01*
X41393760Y-10071179D01*
X41393767Y-10071177D01*
X41499024Y-10027577D01*
X42025974Y-10027577D01*
X42131232Y-10071177D01*
X42131239Y-10071179D01*
X42276132Y-10100000D01*
X42423868Y-10100000D01*
X42568760Y-10071179D01*
X42568767Y-10071177D01*
X42674024Y-10027577D01*
X42350000Y-9703553D01*
X42025974Y-10027577D01*
X41499024Y-10027577D01*
X41175000Y-9703553D01*
X40850974Y-10027577D01*
X40324024Y-10027577D01*
X40000000Y-9703553D01*
X39675974Y-10027577D01*
X39149024Y-10027577D01*
X38825000Y-9703553D01*
X38500974Y-10027577D01*
X37974024Y-10027577D01*
X37650000Y-9703553D01*
X37325974Y-10027577D01*
X500500Y-10027577D01*
X500500Y-9276131D01*
X36900000Y-9276131D01*
X36900000Y-9423868D01*
X36928820Y-9568760D01*
X36928823Y-9568771D01*
X36972420Y-9674024D01*
X36972421Y-9674025D01*
X37296446Y-9350000D01*
X37296446Y-9349999D01*
X37276556Y-9330109D01*
X37550000Y-9330109D01*
X37550000Y-9369891D01*
X37565224Y-9406645D01*
X37593355Y-9434776D01*
X37630109Y-9450000D01*
X37669891Y-9450000D01*
X37706645Y-9434776D01*
X37734776Y-9406645D01*
X37750000Y-9369891D01*
X37750000Y-9349999D01*
X38003553Y-9349999D01*
X38237499Y-9583946D01*
X38471446Y-9350000D01*
X38471446Y-9349999D01*
X38451556Y-9330109D01*
X38725000Y-9330109D01*
X38725000Y-9369891D01*
X38740224Y-9406645D01*
X38768355Y-9434776D01*
X38805109Y-9450000D01*
X38844891Y-9450000D01*
X38881645Y-9434776D01*
X38909776Y-9406645D01*
X38925000Y-9369891D01*
X38925000Y-9349999D01*
X39178553Y-9349999D01*
X39412499Y-9583946D01*
X39646446Y-9350000D01*
X39646446Y-9349999D01*
X39626556Y-9330109D01*
X39900000Y-9330109D01*
X39900000Y-9369891D01*
X39915224Y-9406645D01*
X39943355Y-9434776D01*
X39980109Y-9450000D01*
X40019891Y-9450000D01*
X40056645Y-9434776D01*
X40084776Y-9406645D01*
X40100000Y-9369891D01*
X40100000Y-9349999D01*
X40353553Y-9349999D01*
X40587499Y-9583946D01*
X40821446Y-9350000D01*
X40821446Y-9349999D01*
X40801556Y-9330109D01*
X41075000Y-9330109D01*
X41075000Y-9369891D01*
X41090224Y-9406645D01*
X41118355Y-9434776D01*
X41155109Y-9450000D01*
X41194891Y-9450000D01*
X41231645Y-9434776D01*
X41259776Y-9406645D01*
X41275000Y-9369891D01*
X41275000Y-9349999D01*
X41528553Y-9349999D01*
X41762499Y-9583946D01*
X41996446Y-9350000D01*
X41996446Y-9349999D01*
X41976556Y-9330109D01*
X42250000Y-9330109D01*
X42250000Y-9369891D01*
X42265224Y-9406645D01*
X42293355Y-9434776D01*
X42330109Y-9450000D01*
X42369891Y-9450000D01*
X42406645Y-9434776D01*
X42434776Y-9406645D01*
X42450000Y-9369891D01*
X42450000Y-9349999D01*
X42703553Y-9349999D01*
X42703553Y-9350000D01*
X43027577Y-9674024D01*
X43071177Y-9568767D01*
X43071179Y-9568760D01*
X43100000Y-9423868D01*
X43100000Y-9276131D01*
X43071179Y-9131239D01*
X43071177Y-9131232D01*
X43027577Y-9025974D01*
X42703553Y-9349999D01*
X42450000Y-9349999D01*
X42450000Y-9330109D01*
X42434776Y-9293355D01*
X42406645Y-9265224D01*
X42369891Y-9250000D01*
X42330109Y-9250000D01*
X42293355Y-9265224D01*
X42265224Y-9293355D01*
X42250000Y-9330109D01*
X41976556Y-9330109D01*
X41762500Y-9116053D01*
X41528553Y-9349999D01*
X41275000Y-9349999D01*
X41275000Y-9330109D01*
X41259776Y-9293355D01*
X41231645Y-9265224D01*
X41194891Y-9250000D01*
X41155109Y-9250000D01*
X41118355Y-9265224D01*
X41090224Y-9293355D01*
X41075000Y-9330109D01*
X40801556Y-9330109D01*
X40587500Y-9116053D01*
X40353553Y-9349999D01*
X40100000Y-9349999D01*
X40100000Y-9330109D01*
X40084776Y-9293355D01*
X40056645Y-9265224D01*
X40019891Y-9250000D01*
X39980109Y-9250000D01*
X39943355Y-9265224D01*
X39915224Y-9293355D01*
X39900000Y-9330109D01*
X39626556Y-9330109D01*
X39412500Y-9116053D01*
X39178553Y-9349999D01*
X38925000Y-9349999D01*
X38925000Y-9330109D01*
X38909776Y-9293355D01*
X38881645Y-9265224D01*
X38844891Y-9250000D01*
X38805109Y-9250000D01*
X38768355Y-9265224D01*
X38740224Y-9293355D01*
X38725000Y-9330109D01*
X38451556Y-9330109D01*
X38237500Y-9116053D01*
X38003553Y-9349999D01*
X37750000Y-9349999D01*
X37750000Y-9330109D01*
X37734776Y-9293355D01*
X37706645Y-9265224D01*
X37669891Y-9250000D01*
X37630109Y-9250000D01*
X37593355Y-9265224D01*
X37565224Y-9293355D01*
X37550000Y-9330109D01*
X37276556Y-9330109D01*
X36972420Y-9025974D01*
X36928823Y-9131228D01*
X36928820Y-9131239D01*
X36900000Y-9276131D01*
X500500Y-9276131D01*
X500500Y-8762499D01*
X37416053Y-8762499D01*
X37649999Y-8996446D01*
X37883946Y-8762500D01*
X37883946Y-8762499D01*
X38591053Y-8762499D01*
X38824999Y-8996446D01*
X39058946Y-8762500D01*
X39058946Y-8762499D01*
X39766053Y-8762499D01*
X39999999Y-8996446D01*
X40233946Y-8762500D01*
X40233946Y-8762499D01*
X40941053Y-8762499D01*
X41174999Y-8996446D01*
X41408946Y-8762500D01*
X41408946Y-8762499D01*
X42116053Y-8762499D01*
X42349999Y-8996446D01*
X42583946Y-8762500D01*
X42583946Y-8762499D01*
X42350000Y-8528553D01*
X42116053Y-8762499D01*
X41408946Y-8762499D01*
X41175000Y-8528553D01*
X40941053Y-8762499D01*
X40233946Y-8762499D01*
X40000000Y-8528553D01*
X39766053Y-8762499D01*
X39058946Y-8762499D01*
X38825000Y-8528553D01*
X38591053Y-8762499D01*
X37883946Y-8762499D01*
X37650000Y-8528553D01*
X37416053Y-8762499D01*
X500500Y-8762499D01*
X500500Y-8101131D01*
X36900000Y-8101131D01*
X36900000Y-8248868D01*
X36928820Y-8393760D01*
X36928823Y-8393771D01*
X36972420Y-8499024D01*
X36972421Y-8499025D01*
X37296446Y-8175000D01*
X37296446Y-8174999D01*
X37276556Y-8155109D01*
X37550000Y-8155109D01*
X37550000Y-8194891D01*
X37565224Y-8231645D01*
X37593355Y-8259776D01*
X37630109Y-8275000D01*
X37669891Y-8275000D01*
X37706645Y-8259776D01*
X37734776Y-8231645D01*
X37750000Y-8194891D01*
X37750000Y-8174999D01*
X38003553Y-8174999D01*
X38237499Y-8408946D01*
X38471446Y-8175000D01*
X38471446Y-8174999D01*
X38451556Y-8155109D01*
X38725000Y-8155109D01*
X38725000Y-8194891D01*
X38740224Y-8231645D01*
X38768355Y-8259776D01*
X38805109Y-8275000D01*
X38844891Y-8275000D01*
X38881645Y-8259776D01*
X38909776Y-8231645D01*
X38925000Y-8194891D01*
X38925000Y-8174999D01*
X39178553Y-8174999D01*
X39412499Y-8408946D01*
X39646446Y-8175000D01*
X39646446Y-8174999D01*
X39626556Y-8155109D01*
X39900000Y-8155109D01*
X39900000Y-8194891D01*
X39915224Y-8231645D01*
X39943355Y-8259776D01*
X39980109Y-8275000D01*
X40019891Y-8275000D01*
X40056645Y-8259776D01*
X40084776Y-8231645D01*
X40100000Y-8194891D01*
X40100000Y-8174999D01*
X40353553Y-8174999D01*
X40587499Y-8408946D01*
X40821446Y-8175000D01*
X40821446Y-8174999D01*
X40801556Y-8155109D01*
X41075000Y-8155109D01*
X41075000Y-8194891D01*
X41090224Y-8231645D01*
X41118355Y-8259776D01*
X41155109Y-8275000D01*
X41194891Y-8275000D01*
X41231645Y-8259776D01*
X41259776Y-8231645D01*
X41275000Y-8194891D01*
X41275000Y-8174999D01*
X41528553Y-8174999D01*
X41762499Y-8408946D01*
X41996446Y-8175000D01*
X41996446Y-8174999D01*
X41976556Y-8155109D01*
X42250000Y-8155109D01*
X42250000Y-8194891D01*
X42265224Y-8231645D01*
X42293355Y-8259776D01*
X42330109Y-8275000D01*
X42369891Y-8275000D01*
X42406645Y-8259776D01*
X42434776Y-8231645D01*
X42450000Y-8194891D01*
X42450000Y-8174999D01*
X42703553Y-8174999D01*
X42703553Y-8175000D01*
X43027577Y-8499024D01*
X43071177Y-8393767D01*
X43071179Y-8393760D01*
X43100000Y-8248868D01*
X43100000Y-8101131D01*
X43071179Y-7956239D01*
X43071177Y-7956232D01*
X43027577Y-7850974D01*
X42703553Y-8174999D01*
X42450000Y-8174999D01*
X42450000Y-8155109D01*
X42434776Y-8118355D01*
X42406645Y-8090224D01*
X42369891Y-8075000D01*
X42330109Y-8075000D01*
X42293355Y-8090224D01*
X42265224Y-8118355D01*
X42250000Y-8155109D01*
X41976556Y-8155109D01*
X41762500Y-7941053D01*
X41528553Y-8174999D01*
X41275000Y-8174999D01*
X41275000Y-8155109D01*
X41259776Y-8118355D01*
X41231645Y-8090224D01*
X41194891Y-8075000D01*
X41155109Y-8075000D01*
X41118355Y-8090224D01*
X41090224Y-8118355D01*
X41075000Y-8155109D01*
X40801556Y-8155109D01*
X40587500Y-7941053D01*
X40353553Y-8174999D01*
X40100000Y-8174999D01*
X40100000Y-8155109D01*
X40084776Y-8118355D01*
X40056645Y-8090224D01*
X40019891Y-8075000D01*
X39980109Y-8075000D01*
X39943355Y-8090224D01*
X39915224Y-8118355D01*
X39900000Y-8155109D01*
X39626556Y-8155109D01*
X39412500Y-7941053D01*
X39178553Y-8174999D01*
X38925000Y-8174999D01*
X38925000Y-8155109D01*
X38909776Y-8118355D01*
X38881645Y-8090224D01*
X38844891Y-8075000D01*
X38805109Y-8075000D01*
X38768355Y-8090224D01*
X38740224Y-8118355D01*
X38725000Y-8155109D01*
X38451556Y-8155109D01*
X38237500Y-7941053D01*
X38003553Y-8174999D01*
X37750000Y-8174999D01*
X37750000Y-8155109D01*
X37734776Y-8118355D01*
X37706645Y-8090224D01*
X37669891Y-8075000D01*
X37630109Y-8075000D01*
X37593355Y-8090224D01*
X37565224Y-8118355D01*
X37550000Y-8155109D01*
X37276556Y-8155109D01*
X36972420Y-7850974D01*
X36928823Y-7956228D01*
X36928820Y-7956239D01*
X36900000Y-8101131D01*
X500500Y-8101131D01*
X500500Y-7587499D01*
X37416053Y-7587499D01*
X37649999Y-7821446D01*
X37883946Y-7587500D01*
X37883946Y-7587499D01*
X38591053Y-7587499D01*
X38824999Y-7821446D01*
X39058946Y-7587500D01*
X39058946Y-7587499D01*
X39766053Y-7587499D01*
X39999999Y-7821446D01*
X40233946Y-7587500D01*
X40233946Y-7587499D01*
X40941053Y-7587499D01*
X41174999Y-7821446D01*
X41408946Y-7587500D01*
X41408946Y-7587499D01*
X42116053Y-7587499D01*
X42349999Y-7821446D01*
X42583946Y-7587500D01*
X42583946Y-7587499D01*
X42350000Y-7353553D01*
X42116053Y-7587499D01*
X41408946Y-7587499D01*
X41175000Y-7353553D01*
X40941053Y-7587499D01*
X40233946Y-7587499D01*
X40000000Y-7353553D01*
X39766053Y-7587499D01*
X39058946Y-7587499D01*
X38825000Y-7353553D01*
X38591053Y-7587499D01*
X37883946Y-7587499D01*
X37650000Y-7353553D01*
X37416053Y-7587499D01*
X500500Y-7587499D01*
X500500Y-6926131D01*
X36900000Y-6926131D01*
X36900000Y-7073868D01*
X36928820Y-7218760D01*
X36928823Y-7218771D01*
X36972420Y-7324024D01*
X36972421Y-7324025D01*
X37296446Y-7000000D01*
X37296446Y-6999999D01*
X37276556Y-6980109D01*
X37550000Y-6980109D01*
X37550000Y-7019891D01*
X37565224Y-7056645D01*
X37593355Y-7084776D01*
X37630109Y-7100000D01*
X37669891Y-7100000D01*
X37706645Y-7084776D01*
X37734776Y-7056645D01*
X37750000Y-7019891D01*
X37750000Y-6999999D01*
X38003553Y-6999999D01*
X38237499Y-7233946D01*
X38471446Y-7000000D01*
X38471446Y-6999999D01*
X38451556Y-6980109D01*
X38725000Y-6980109D01*
X38725000Y-7019891D01*
X38740224Y-7056645D01*
X38768355Y-7084776D01*
X38805109Y-7100000D01*
X38844891Y-7100000D01*
X38881645Y-7084776D01*
X38909776Y-7056645D01*
X38925000Y-7019891D01*
X38925000Y-6999999D01*
X39178553Y-6999999D01*
X39412499Y-7233946D01*
X39646446Y-7000000D01*
X39646446Y-6999999D01*
X39626556Y-6980109D01*
X39900000Y-6980109D01*
X39900000Y-7019891D01*
X39915224Y-7056645D01*
X39943355Y-7084776D01*
X39980109Y-7100000D01*
X40019891Y-7100000D01*
X40056645Y-7084776D01*
X40084776Y-7056645D01*
X40100000Y-7019891D01*
X40100000Y-6999999D01*
X40353553Y-6999999D01*
X40587499Y-7233946D01*
X40821446Y-7000000D01*
X40821446Y-6999999D01*
X40801556Y-6980109D01*
X41075000Y-6980109D01*
X41075000Y-7019891D01*
X41090224Y-7056645D01*
X41118355Y-7084776D01*
X41155109Y-7100000D01*
X41194891Y-7100000D01*
X41231645Y-7084776D01*
X41259776Y-7056645D01*
X41275000Y-7019891D01*
X41275000Y-6999999D01*
X41528553Y-6999999D01*
X41762499Y-7233946D01*
X41996446Y-7000000D01*
X41996446Y-6999999D01*
X41976556Y-6980109D01*
X42250000Y-6980109D01*
X42250000Y-7019891D01*
X42265224Y-7056645D01*
X42293355Y-7084776D01*
X42330109Y-7100000D01*
X42369891Y-7100000D01*
X42406645Y-7084776D01*
X42434776Y-7056645D01*
X42450000Y-7019891D01*
X42450000Y-6999999D01*
X42703553Y-6999999D01*
X42703553Y-7000000D01*
X43027577Y-7324024D01*
X43071177Y-7218767D01*
X43071179Y-7218760D01*
X43100000Y-7073868D01*
X43100000Y-6926131D01*
X43071179Y-6781239D01*
X43071177Y-6781232D01*
X43027577Y-6675974D01*
X42703553Y-6999999D01*
X42450000Y-6999999D01*
X42450000Y-6980109D01*
X42434776Y-6943355D01*
X42406645Y-6915224D01*
X42369891Y-6900000D01*
X42330109Y-6900000D01*
X42293355Y-6915224D01*
X42265224Y-6943355D01*
X42250000Y-6980109D01*
X41976556Y-6980109D01*
X41762500Y-6766053D01*
X41528553Y-6999999D01*
X41275000Y-6999999D01*
X41275000Y-6980109D01*
X41259776Y-6943355D01*
X41231645Y-6915224D01*
X41194891Y-6900000D01*
X41155109Y-6900000D01*
X41118355Y-6915224D01*
X41090224Y-6943355D01*
X41075000Y-6980109D01*
X40801556Y-6980109D01*
X40587500Y-6766053D01*
X40353553Y-6999999D01*
X40100000Y-6999999D01*
X40100000Y-6980109D01*
X40084776Y-6943355D01*
X40056645Y-6915224D01*
X40019891Y-6900000D01*
X39980109Y-6900000D01*
X39943355Y-6915224D01*
X39915224Y-6943355D01*
X39900000Y-6980109D01*
X39626556Y-6980109D01*
X39412500Y-6766053D01*
X39178553Y-6999999D01*
X38925000Y-6999999D01*
X38925000Y-6980109D01*
X38909776Y-6943355D01*
X38881645Y-6915224D01*
X38844891Y-6900000D01*
X38805109Y-6900000D01*
X38768355Y-6915224D01*
X38740224Y-6943355D01*
X38725000Y-6980109D01*
X38451556Y-6980109D01*
X38237500Y-6766053D01*
X38003553Y-6999999D01*
X37750000Y-6999999D01*
X37750000Y-6980109D01*
X37734776Y-6943355D01*
X37706645Y-6915224D01*
X37669891Y-6900000D01*
X37630109Y-6900000D01*
X37593355Y-6915224D01*
X37565224Y-6943355D01*
X37550000Y-6980109D01*
X37276556Y-6980109D01*
X36972420Y-6675974D01*
X36928823Y-6781228D01*
X36928820Y-6781239D01*
X36900000Y-6926131D01*
X500500Y-6926131D01*
X500500Y-6412499D01*
X37416053Y-6412499D01*
X37649999Y-6646446D01*
X37883946Y-6412500D01*
X37883946Y-6412499D01*
X38591053Y-6412499D01*
X38824999Y-6646446D01*
X39058946Y-6412500D01*
X39058946Y-6412499D01*
X39766053Y-6412499D01*
X39999999Y-6646446D01*
X40233946Y-6412500D01*
X40233946Y-6412499D01*
X40941053Y-6412499D01*
X41174999Y-6646446D01*
X41408946Y-6412500D01*
X41408946Y-6412499D01*
X42116053Y-6412499D01*
X42349999Y-6646446D01*
X42583946Y-6412500D01*
X42583946Y-6412499D01*
X42350000Y-6178553D01*
X42116053Y-6412499D01*
X41408946Y-6412499D01*
X41175000Y-6178553D01*
X40941053Y-6412499D01*
X40233946Y-6412499D01*
X40000000Y-6178553D01*
X39766053Y-6412499D01*
X39058946Y-6412499D01*
X38825000Y-6178553D01*
X38591053Y-6412499D01*
X37883946Y-6412499D01*
X37650000Y-6178553D01*
X37416053Y-6412499D01*
X500500Y-6412499D01*
X500500Y-5751131D01*
X36900000Y-5751131D01*
X36900000Y-5898868D01*
X36928820Y-6043760D01*
X36928823Y-6043771D01*
X36972420Y-6149024D01*
X36972421Y-6149025D01*
X37296446Y-5825000D01*
X37296446Y-5824999D01*
X37276556Y-5805109D01*
X37550000Y-5805109D01*
X37550000Y-5844891D01*
X37565224Y-5881645D01*
X37593355Y-5909776D01*
X37630109Y-5925000D01*
X37669891Y-5925000D01*
X37706645Y-5909776D01*
X37734776Y-5881645D01*
X37750000Y-5844891D01*
X37750000Y-5824999D01*
X38003553Y-5824999D01*
X38237499Y-6058946D01*
X38471446Y-5825000D01*
X38471446Y-5824999D01*
X38451556Y-5805109D01*
X38725000Y-5805109D01*
X38725000Y-5844891D01*
X38740224Y-5881645D01*
X38768355Y-5909776D01*
X38805109Y-5925000D01*
X38844891Y-5925000D01*
X38881645Y-5909776D01*
X38909776Y-5881645D01*
X38925000Y-5844891D01*
X38925000Y-5824999D01*
X39178553Y-5824999D01*
X39412499Y-6058946D01*
X39646446Y-5825000D01*
X39646446Y-5824999D01*
X39626556Y-5805109D01*
X39900000Y-5805109D01*
X39900000Y-5844891D01*
X39915224Y-5881645D01*
X39943355Y-5909776D01*
X39980109Y-5925000D01*
X40019891Y-5925000D01*
X40056645Y-5909776D01*
X40084776Y-5881645D01*
X40100000Y-5844891D01*
X40100000Y-5824999D01*
X40353553Y-5824999D01*
X40587499Y-6058946D01*
X40821446Y-5825000D01*
X40821446Y-5824999D01*
X40801556Y-5805109D01*
X41075000Y-5805109D01*
X41075000Y-5844891D01*
X41090224Y-5881645D01*
X41118355Y-5909776D01*
X41155109Y-5925000D01*
X41194891Y-5925000D01*
X41231645Y-5909776D01*
X41259776Y-5881645D01*
X41275000Y-5844891D01*
X41275000Y-5824999D01*
X41528553Y-5824999D01*
X41762499Y-6058946D01*
X41996446Y-5825000D01*
X41996446Y-5824999D01*
X41976556Y-5805109D01*
X42250000Y-5805109D01*
X42250000Y-5844891D01*
X42265224Y-5881645D01*
X42293355Y-5909776D01*
X42330109Y-5925000D01*
X42369891Y-5925000D01*
X42406645Y-5909776D01*
X42434776Y-5881645D01*
X42450000Y-5844891D01*
X42450000Y-5824999D01*
X42703553Y-5824999D01*
X42703553Y-5825000D01*
X43027577Y-6149024D01*
X43071177Y-6043767D01*
X43071179Y-6043760D01*
X43100000Y-5898868D01*
X43100000Y-5751131D01*
X43071179Y-5606239D01*
X43071177Y-5606232D01*
X43027577Y-5500974D01*
X42703553Y-5824999D01*
X42450000Y-5824999D01*
X42450000Y-5805109D01*
X42434776Y-5768355D01*
X42406645Y-5740224D01*
X42369891Y-5725000D01*
X42330109Y-5725000D01*
X42293355Y-5740224D01*
X42265224Y-5768355D01*
X42250000Y-5805109D01*
X41976556Y-5805109D01*
X41762500Y-5591053D01*
X41528553Y-5824999D01*
X41275000Y-5824999D01*
X41275000Y-5805109D01*
X41259776Y-5768355D01*
X41231645Y-5740224D01*
X41194891Y-5725000D01*
X41155109Y-5725000D01*
X41118355Y-5740224D01*
X41090224Y-5768355D01*
X41075000Y-5805109D01*
X40801556Y-5805109D01*
X40587500Y-5591053D01*
X40353553Y-5824999D01*
X40100000Y-5824999D01*
X40100000Y-5805109D01*
X40084776Y-5768355D01*
X40056645Y-5740224D01*
X40019891Y-5725000D01*
X39980109Y-5725000D01*
X39943355Y-5740224D01*
X39915224Y-5768355D01*
X39900000Y-5805109D01*
X39626556Y-5805109D01*
X39412500Y-5591053D01*
X39178553Y-5824999D01*
X38925000Y-5824999D01*
X38925000Y-5805109D01*
X38909776Y-5768355D01*
X38881645Y-5740224D01*
X38844891Y-5725000D01*
X38805109Y-5725000D01*
X38768355Y-5740224D01*
X38740224Y-5768355D01*
X38725000Y-5805109D01*
X38451556Y-5805109D01*
X38237500Y-5591053D01*
X38003553Y-5824999D01*
X37750000Y-5824999D01*
X37750000Y-5805109D01*
X37734776Y-5768355D01*
X37706645Y-5740224D01*
X37669891Y-5725000D01*
X37630109Y-5725000D01*
X37593355Y-5740224D01*
X37565224Y-5768355D01*
X37550000Y-5805109D01*
X37276556Y-5805109D01*
X36972420Y-5500974D01*
X36928823Y-5606228D01*
X36928820Y-5606239D01*
X36900000Y-5751131D01*
X500500Y-5751131D01*
X500500Y-5237499D01*
X37416053Y-5237499D01*
X37649999Y-5471446D01*
X37883946Y-5237500D01*
X37883946Y-5237499D01*
X38591053Y-5237499D01*
X38824999Y-5471446D01*
X39058946Y-5237500D01*
X39058946Y-5237499D01*
X39766053Y-5237499D01*
X39999999Y-5471446D01*
X40233946Y-5237500D01*
X40233946Y-5237499D01*
X40941053Y-5237499D01*
X41174999Y-5471446D01*
X41408946Y-5237500D01*
X41408946Y-5237499D01*
X42116053Y-5237499D01*
X42349999Y-5471446D01*
X42583946Y-5237500D01*
X42583946Y-5237499D01*
X42350000Y-5003553D01*
X42116053Y-5237499D01*
X41408946Y-5237499D01*
X41175000Y-5003553D01*
X40941053Y-5237499D01*
X40233946Y-5237499D01*
X40000000Y-5003553D01*
X39766053Y-5237499D01*
X39058946Y-5237499D01*
X38825000Y-5003553D01*
X38591053Y-5237499D01*
X37883946Y-5237499D01*
X37650000Y-5003553D01*
X37416053Y-5237499D01*
X500500Y-5237499D01*
X500500Y-4576131D01*
X36900000Y-4576131D01*
X36900000Y-4723868D01*
X36928820Y-4868760D01*
X36928823Y-4868771D01*
X36972420Y-4974024D01*
X36972421Y-4974025D01*
X37296446Y-4650000D01*
X37296446Y-4649999D01*
X37276556Y-4630109D01*
X37550000Y-4630109D01*
X37550000Y-4669891D01*
X37565224Y-4706645D01*
X37593355Y-4734776D01*
X37630109Y-4750000D01*
X37669891Y-4750000D01*
X37706645Y-4734776D01*
X37734776Y-4706645D01*
X37750000Y-4669891D01*
X37750000Y-4649999D01*
X38003553Y-4649999D01*
X38237499Y-4883946D01*
X38471446Y-4650000D01*
X38471446Y-4649999D01*
X38451556Y-4630109D01*
X38725000Y-4630109D01*
X38725000Y-4669891D01*
X38740224Y-4706645D01*
X38768355Y-4734776D01*
X38805109Y-4750000D01*
X38844891Y-4750000D01*
X38881645Y-4734776D01*
X38909776Y-4706645D01*
X38925000Y-4669891D01*
X38925000Y-4649999D01*
X39178553Y-4649999D01*
X39412499Y-4883946D01*
X39646446Y-4650000D01*
X39646446Y-4649999D01*
X39626556Y-4630109D01*
X39900000Y-4630109D01*
X39900000Y-4669891D01*
X39915224Y-4706645D01*
X39943355Y-4734776D01*
X39980109Y-4750000D01*
X40019891Y-4750000D01*
X40056645Y-4734776D01*
X40084776Y-4706645D01*
X40100000Y-4669891D01*
X40100000Y-4649999D01*
X40353553Y-4649999D01*
X40587499Y-4883946D01*
X40821446Y-4650000D01*
X40821446Y-4649999D01*
X40801556Y-4630109D01*
X41075000Y-4630109D01*
X41075000Y-4669891D01*
X41090224Y-4706645D01*
X41118355Y-4734776D01*
X41155109Y-4750000D01*
X41194891Y-4750000D01*
X41231645Y-4734776D01*
X41259776Y-4706645D01*
X41275000Y-4669891D01*
X41275000Y-4649999D01*
X41528553Y-4649999D01*
X41762499Y-4883946D01*
X41996446Y-4650000D01*
X41996446Y-4649999D01*
X41976556Y-4630109D01*
X42250000Y-4630109D01*
X42250000Y-4669891D01*
X42265224Y-4706645D01*
X42293355Y-4734776D01*
X42330109Y-4750000D01*
X42369891Y-4750000D01*
X42406645Y-4734776D01*
X42434776Y-4706645D01*
X42450000Y-4669891D01*
X42450000Y-4649999D01*
X42703553Y-4649999D01*
X42703553Y-4650000D01*
X43027577Y-4974024D01*
X43071177Y-4868767D01*
X43071179Y-4868760D01*
X43100000Y-4723868D01*
X43100000Y-4576131D01*
X43071179Y-4431239D01*
X43071177Y-4431232D01*
X43027577Y-4325974D01*
X42703553Y-4649999D01*
X42450000Y-4649999D01*
X42450000Y-4630109D01*
X42434776Y-4593355D01*
X42406645Y-4565224D01*
X42369891Y-4550000D01*
X42330109Y-4550000D01*
X42293355Y-4565224D01*
X42265224Y-4593355D01*
X42250000Y-4630109D01*
X41976556Y-4630109D01*
X41762500Y-4416053D01*
X41528553Y-4649999D01*
X41275000Y-4649999D01*
X41275000Y-4630109D01*
X41259776Y-4593355D01*
X41231645Y-4565224D01*
X41194891Y-4550000D01*
X41155109Y-4550000D01*
X41118355Y-4565224D01*
X41090224Y-4593355D01*
X41075000Y-4630109D01*
X40801556Y-4630109D01*
X40587500Y-4416053D01*
X40353553Y-4649999D01*
X40100000Y-4649999D01*
X40100000Y-4630109D01*
X40084776Y-4593355D01*
X40056645Y-4565224D01*
X40019891Y-4550000D01*
X39980109Y-4550000D01*
X39943355Y-4565224D01*
X39915224Y-4593355D01*
X39900000Y-4630109D01*
X39626556Y-4630109D01*
X39412500Y-4416053D01*
X39178553Y-4649999D01*
X38925000Y-4649999D01*
X38925000Y-4630109D01*
X38909776Y-4593355D01*
X38881645Y-4565224D01*
X38844891Y-4550000D01*
X38805109Y-4550000D01*
X38768355Y-4565224D01*
X38740224Y-4593355D01*
X38725000Y-4630109D01*
X38451556Y-4630109D01*
X38237500Y-4416053D01*
X38003553Y-4649999D01*
X37750000Y-4649999D01*
X37750000Y-4630109D01*
X37734776Y-4593355D01*
X37706645Y-4565224D01*
X37669891Y-4550000D01*
X37630109Y-4550000D01*
X37593355Y-4565224D01*
X37565224Y-4593355D01*
X37550000Y-4630109D01*
X37276556Y-4630109D01*
X36972420Y-4325974D01*
X36928823Y-4431228D01*
X36928820Y-4431239D01*
X36900000Y-4576131D01*
X500500Y-4576131D01*
X500500Y-3972420D01*
X37325973Y-3972420D01*
X37649999Y-4296446D01*
X37974025Y-3972421D01*
X37974024Y-3972420D01*
X38500974Y-3972420D01*
X38824999Y-4296446D01*
X39149025Y-3972421D01*
X39149024Y-3972420D01*
X39675973Y-3972420D01*
X39999999Y-4296446D01*
X40324025Y-3972421D01*
X40324024Y-3972420D01*
X40850973Y-3972420D01*
X41174999Y-4296446D01*
X41499025Y-3972421D01*
X41499024Y-3972420D01*
X42025973Y-3972420D01*
X42349999Y-4296446D01*
X42674025Y-3972421D01*
X42674024Y-3972420D01*
X42568771Y-3928823D01*
X42568760Y-3928820D01*
X42423868Y-3900000D01*
X42276132Y-3900000D01*
X42131239Y-3928820D01*
X42131228Y-3928823D01*
X42025973Y-3972420D01*
X41499024Y-3972420D01*
X41393771Y-3928823D01*
X41393760Y-3928820D01*
X41248868Y-3900000D01*
X41101132Y-3900000D01*
X40956239Y-3928820D01*
X40956228Y-3928823D01*
X40850973Y-3972420D01*
X40324024Y-3972420D01*
X40218771Y-3928823D01*
X40218760Y-3928820D01*
X40073868Y-3900000D01*
X39926132Y-3900000D01*
X39781239Y-3928820D01*
X39781228Y-3928823D01*
X39675973Y-3972420D01*
X39149024Y-3972420D01*
X39043771Y-3928823D01*
X39043760Y-3928820D01*
X38898868Y-3900000D01*
X38751132Y-3900000D01*
X38606239Y-3928820D01*
X38606228Y-3928823D01*
X38500974Y-3972420D01*
X37974024Y-3972420D01*
X37868771Y-3928823D01*
X37868760Y-3928820D01*
X37723868Y-3900000D01*
X37576132Y-3900000D01*
X37431239Y-3928820D01*
X37431228Y-3928823D01*
X37325973Y-3972420D01*
X500500Y-3972420D01*
X500500Y-3002236D01*
X500635Y-2997768D01*
X510902Y-2828032D01*
X518454Y-2703175D01*
X519528Y-2694327D01*
X572328Y-2406211D01*
X574458Y-2397568D01*
X661596Y-2117931D01*
X664753Y-2109604D01*
X784970Y-1842493D01*
X789114Y-1834599D01*
X940635Y-1583952D01*
X945711Y-1576599D01*
X1126343Y-1346038D01*
X1132254Y-1339366D01*
X1339366Y-1132254D01*
X1346038Y-1126343D01*
X1576599Y-945710D01*
X1583953Y-940635D01*
X1630926Y-912239D01*
X1834599Y-789114D01*
X1842493Y-784970D01*
X2109604Y-664753D01*
X2117931Y-661596D01*
X2397568Y-574458D01*
X2406211Y-572328D01*
X2694327Y-519528D01*
X2703175Y-518454D01*
X2997768Y-500634D01*
X3002236Y-500500D01*
X3065892Y-500500D01*
X81934108Y-500500D01*
X81997764Y-500500D01*
X82002231Y-500634D01*
G37*
%TD.AperFunction*%
%TD*%
M02*
