%TF.GenerationSoftware,KiCad,Pcbnew,9.0.9-9.0.9~ubuntu24.04.1*%
%TF.CreationDate,2026-10-04T04:00:44+00:00*%
%TF.ProjectId,rk3576-sbc,726b3335-3736-42d7-9362-632e6b696361,rev?*%
%TF.SameCoordinates,Original*%
%TF.FileFunction,Legend,Bot*%
%TF.FilePolarity,Positive*%
%FSLAX46Y46*%
G04 Gerber Fmt 4.6, Leading zero omitted, Abs format (unit mm)*
G04 Created by KiCad (PCBNEW 9.0.9-9.0.9~ubuntu24.04.1) date 2026-10-04 04:00:44*
%MOMM*%
%LPD*%
G01*
G04 APERTURE LIST*
G04 Aperture macros list*
%AMRoundRect*
0 Rectangle with rounded corners*
0 $1 Rounding radius*
0 $2 $3 $4 $5 $6 $7 $8 $9 X,Y pos of 4 corners*
0 Add a 4 corners polygon primitive as box body*
4,1,4,$2,$3,$4,$5,$6,$7,$8,$9,$2,$3,0*
0 Add four circle primitives for the rounded corners*
1,1,$1+$1,$2,$3*
1,1,$1+$1,$4,$5*
1,1,$1+$1,$6,$7*
1,1,$1+$1,$8,$9*
0 Add four rect primitives between the rounded corners*
20,1,$1+$1,$2,$3,$4,$5,0*
20,1,$1+$1,$4,$5,$6,$7,0*
20,1,$1+$1,$6,$7,$8,$9,0*
20,1,$1+$1,$8,$9,$2,$3,0*%
G04 Aperture macros list end*
%ADD10C,0.120000*%
%ADD11C,0.135000*%
%ADD12C,0.150000*%
%ADD13C,0.650000*%
%ADD14O,1.000000X2.100000*%
%ADD15O,1.000000X1.600000*%
%ADD16RoundRect,0.250000X0.350000X-0.350000X0.350000X0.350000X-0.350000X0.350000X-0.350000X-0.350000X0*%
%ADD17C,1.200000*%
%ADD18O,2.400000X1.200000*%
%ADD19O,2.100000X1.200000*%
%ADD20C,0.800000*%
%ADD21C,5.400000*%
%ADD22R,1.700000X1.700000*%
%ADD23C,1.700000*%
%ADD24O,1.500000X3.300000*%
%ADD25O,1.500000X2.300000*%
%ADD26RoundRect,0.140000X-0.140000X-0.170000X0.140000X-0.170000X0.140000X0.170000X-0.140000X0.170000X0*%
%ADD27RoundRect,0.100000X-0.130000X-0.100000X0.130000X-0.100000X0.130000X0.100000X-0.130000X0.100000X0*%
%ADD28RoundRect,0.225000X-0.225000X-0.250000X0.225000X-0.250000X0.225000X0.250000X-0.225000X0.250000X0*%
%ADD29RoundRect,0.135000X-0.135000X-0.185000X0.135000X-0.185000X0.135000X0.185000X-0.135000X0.185000X0*%
%ADD30C,4.000000*%
%ADD31R,1.200000X0.700000*%
%ADD32R,0.800000X1.000000*%
%ADD33R,2.800000X1.000000*%
%ADD34R,1.200000X1.000000*%
%ADD35R,1.900000X1.300000*%
%ADD36RoundRect,0.150000X0.512500X0.150000X-0.512500X0.150000X-0.512500X-0.150000X0.512500X-0.150000X0*%
%ADD37R,1.200000X0.300000*%
%ADD38R,2.600000X1.400000*%
G04 APERTURE END LIST*
D10*
X9363855Y-38733333D02*
X8830521Y-38733333D01*
X8906712Y-38733333D02*
X8868617Y-38771428D01*
X8868617Y-38771428D02*
X8830521Y-38847618D01*
X8830521Y-38847618D02*
X8830521Y-38961904D01*
X8830521Y-38961904D02*
X8868617Y-39038095D01*
X8868617Y-39038095D02*
X8944807Y-39076190D01*
X8944807Y-39076190D02*
X9363855Y-39076190D01*
X8944807Y-39076190D02*
X8868617Y-39114285D01*
X8868617Y-39114285D02*
X8830521Y-39190476D01*
X8830521Y-39190476D02*
X8830521Y-39304761D01*
X8830521Y-39304761D02*
X8868617Y-39380952D01*
X8868617Y-39380952D02*
X8944807Y-39419047D01*
X8944807Y-39419047D02*
X9363855Y-39419047D01*
X9363855Y-39800000D02*
X8830521Y-39800000D01*
X8563855Y-39800000D02*
X8601950Y-39761904D01*
X8601950Y-39761904D02*
X8640045Y-39800000D01*
X8640045Y-39800000D02*
X8601950Y-39838095D01*
X8601950Y-39838095D02*
X8563855Y-39800000D01*
X8563855Y-39800000D02*
X8640045Y-39800000D01*
X9325760Y-40523809D02*
X9363855Y-40447618D01*
X9363855Y-40447618D02*
X9363855Y-40295237D01*
X9363855Y-40295237D02*
X9325760Y-40219047D01*
X9325760Y-40219047D02*
X9287664Y-40180952D01*
X9287664Y-40180952D02*
X9211474Y-40142856D01*
X9211474Y-40142856D02*
X8982902Y-40142856D01*
X8982902Y-40142856D02*
X8906712Y-40180952D01*
X8906712Y-40180952D02*
X8868617Y-40219047D01*
X8868617Y-40219047D02*
X8830521Y-40295237D01*
X8830521Y-40295237D02*
X8830521Y-40447618D01*
X8830521Y-40447618D02*
X8868617Y-40523809D01*
X9363855Y-40866666D02*
X8830521Y-40866666D01*
X8982902Y-40866666D02*
X8906712Y-40904761D01*
X8906712Y-40904761D02*
X8868617Y-40942856D01*
X8868617Y-40942856D02*
X8830521Y-41019047D01*
X8830521Y-41019047D02*
X8830521Y-41095237D01*
X9363855Y-41476189D02*
X9325760Y-41399999D01*
X9325760Y-41399999D02*
X9287664Y-41361904D01*
X9287664Y-41361904D02*
X9211474Y-41323808D01*
X9211474Y-41323808D02*
X8982902Y-41323808D01*
X8982902Y-41323808D02*
X8906712Y-41361904D01*
X8906712Y-41361904D02*
X8868617Y-41399999D01*
X8868617Y-41399999D02*
X8830521Y-41476189D01*
X8830521Y-41476189D02*
X8830521Y-41590475D01*
X8830521Y-41590475D02*
X8868617Y-41666666D01*
X8868617Y-41666666D02*
X8906712Y-41704761D01*
X8906712Y-41704761D02*
X8982902Y-41742856D01*
X8982902Y-41742856D02*
X9211474Y-41742856D01*
X9211474Y-41742856D02*
X9287664Y-41704761D01*
X9287664Y-41704761D02*
X9325760Y-41666666D01*
X9325760Y-41666666D02*
X9363855Y-41590475D01*
X9363855Y-41590475D02*
X9363855Y-41476189D01*
X9325760Y-42047618D02*
X9363855Y-42161904D01*
X9363855Y-42161904D02*
X9363855Y-42352380D01*
X9363855Y-42352380D02*
X9325760Y-42428571D01*
X9325760Y-42428571D02*
X9287664Y-42466666D01*
X9287664Y-42466666D02*
X9211474Y-42504761D01*
X9211474Y-42504761D02*
X9135283Y-42504761D01*
X9135283Y-42504761D02*
X9059093Y-42466666D01*
X9059093Y-42466666D02*
X9020998Y-42428571D01*
X9020998Y-42428571D02*
X8982902Y-42352380D01*
X8982902Y-42352380D02*
X8944807Y-42199999D01*
X8944807Y-42199999D02*
X8906712Y-42123809D01*
X8906712Y-42123809D02*
X8868617Y-42085714D01*
X8868617Y-42085714D02*
X8792426Y-42047618D01*
X8792426Y-42047618D02*
X8716236Y-42047618D01*
X8716236Y-42047618D02*
X8640045Y-42085714D01*
X8640045Y-42085714D02*
X8601950Y-42123809D01*
X8601950Y-42123809D02*
X8563855Y-42199999D01*
X8563855Y-42199999D02*
X8563855Y-42390476D01*
X8563855Y-42390476D02*
X8601950Y-42504761D01*
X9363855Y-42847619D02*
X8563855Y-42847619D01*
X8563855Y-42847619D02*
X8563855Y-43038095D01*
X8563855Y-43038095D02*
X8601950Y-43152381D01*
X8601950Y-43152381D02*
X8678140Y-43228571D01*
X8678140Y-43228571D02*
X8754331Y-43266666D01*
X8754331Y-43266666D02*
X8906712Y-43304762D01*
X8906712Y-43304762D02*
X9020998Y-43304762D01*
X9020998Y-43304762D02*
X9173379Y-43266666D01*
X9173379Y-43266666D02*
X9249569Y-43228571D01*
X9249569Y-43228571D02*
X9325760Y-43152381D01*
X9325760Y-43152381D02*
X9363855Y-43038095D01*
X9363855Y-43038095D02*
X9363855Y-42847619D01*
D11*
X55285714Y-47909337D02*
X55285714Y-47009337D01*
X55285714Y-47009337D02*
X54985714Y-47652194D01*
X54985714Y-47652194D02*
X54685714Y-47009337D01*
X54685714Y-47009337D02*
X54685714Y-47909337D01*
X54257143Y-47823622D02*
X54214286Y-47866480D01*
X54214286Y-47866480D02*
X54257143Y-47909337D01*
X54257143Y-47909337D02*
X54300000Y-47866480D01*
X54300000Y-47866480D02*
X54257143Y-47823622D01*
X54257143Y-47823622D02*
X54257143Y-47909337D01*
X53871429Y-47095051D02*
X53828572Y-47052194D01*
X53828572Y-47052194D02*
X53742858Y-47009337D01*
X53742858Y-47009337D02*
X53528572Y-47009337D01*
X53528572Y-47009337D02*
X53442858Y-47052194D01*
X53442858Y-47052194D02*
X53400000Y-47095051D01*
X53400000Y-47095051D02*
X53357143Y-47180765D01*
X53357143Y-47180765D02*
X53357143Y-47266480D01*
X53357143Y-47266480D02*
X53400000Y-47395051D01*
X53400000Y-47395051D02*
X53914286Y-47909337D01*
X53914286Y-47909337D02*
X53357143Y-47909337D01*
X52328572Y-47095051D02*
X52285715Y-47052194D01*
X52285715Y-47052194D02*
X52200001Y-47009337D01*
X52200001Y-47009337D02*
X51985715Y-47009337D01*
X51985715Y-47009337D02*
X51900001Y-47052194D01*
X51900001Y-47052194D02*
X51857143Y-47095051D01*
X51857143Y-47095051D02*
X51814286Y-47180765D01*
X51814286Y-47180765D02*
X51814286Y-47266480D01*
X51814286Y-47266480D02*
X51857143Y-47395051D01*
X51857143Y-47395051D02*
X52371429Y-47909337D01*
X52371429Y-47909337D02*
X51814286Y-47909337D01*
X51471429Y-47095051D02*
X51428572Y-47052194D01*
X51428572Y-47052194D02*
X51342858Y-47009337D01*
X51342858Y-47009337D02*
X51128572Y-47009337D01*
X51128572Y-47009337D02*
X51042858Y-47052194D01*
X51042858Y-47052194D02*
X51000000Y-47095051D01*
X51000000Y-47095051D02*
X50957143Y-47180765D01*
X50957143Y-47180765D02*
X50957143Y-47266480D01*
X50957143Y-47266480D02*
X51000000Y-47395051D01*
X51000000Y-47395051D02*
X51514286Y-47909337D01*
X51514286Y-47909337D02*
X50957143Y-47909337D01*
X50657143Y-47009337D02*
X50100000Y-47009337D01*
X50100000Y-47009337D02*
X50400000Y-47352194D01*
X50400000Y-47352194D02*
X50271429Y-47352194D01*
X50271429Y-47352194D02*
X50185715Y-47395051D01*
X50185715Y-47395051D02*
X50142857Y-47437908D01*
X50142857Y-47437908D02*
X50100000Y-47523622D01*
X50100000Y-47523622D02*
X50100000Y-47737908D01*
X50100000Y-47737908D02*
X50142857Y-47823622D01*
X50142857Y-47823622D02*
X50185715Y-47866480D01*
X50185715Y-47866480D02*
X50271429Y-47909337D01*
X50271429Y-47909337D02*
X50528572Y-47909337D01*
X50528572Y-47909337D02*
X50614286Y-47866480D01*
X50614286Y-47866480D02*
X50657143Y-47823622D01*
X49542857Y-47009337D02*
X49457143Y-47009337D01*
X49457143Y-47009337D02*
X49371429Y-47052194D01*
X49371429Y-47052194D02*
X49328572Y-47095051D01*
X49328572Y-47095051D02*
X49285714Y-47180765D01*
X49285714Y-47180765D02*
X49242857Y-47352194D01*
X49242857Y-47352194D02*
X49242857Y-47566480D01*
X49242857Y-47566480D02*
X49285714Y-47737908D01*
X49285714Y-47737908D02*
X49328572Y-47823622D01*
X49328572Y-47823622D02*
X49371429Y-47866480D01*
X49371429Y-47866480D02*
X49457143Y-47909337D01*
X49457143Y-47909337D02*
X49542857Y-47909337D01*
X49542857Y-47909337D02*
X49628572Y-47866480D01*
X49628572Y-47866480D02*
X49671429Y-47823622D01*
X49671429Y-47823622D02*
X49714286Y-47737908D01*
X49714286Y-47737908D02*
X49757143Y-47566480D01*
X49757143Y-47566480D02*
X49757143Y-47352194D01*
X49757143Y-47352194D02*
X49714286Y-47180765D01*
X49714286Y-47180765D02*
X49671429Y-47095051D01*
X49671429Y-47095051D02*
X49628572Y-47052194D01*
X49628572Y-47052194D02*
X49542857Y-47009337D01*
X48214286Y-46966480D02*
X48985714Y-48123622D01*
X47957143Y-47095051D02*
X47914286Y-47052194D01*
X47914286Y-47052194D02*
X47828572Y-47009337D01*
X47828572Y-47009337D02*
X47614286Y-47009337D01*
X47614286Y-47009337D02*
X47528572Y-47052194D01*
X47528572Y-47052194D02*
X47485714Y-47095051D01*
X47485714Y-47095051D02*
X47442857Y-47180765D01*
X47442857Y-47180765D02*
X47442857Y-47266480D01*
X47442857Y-47266480D02*
X47485714Y-47395051D01*
X47485714Y-47395051D02*
X48000000Y-47909337D01*
X48000000Y-47909337D02*
X47442857Y-47909337D01*
X47100000Y-47095051D02*
X47057143Y-47052194D01*
X47057143Y-47052194D02*
X46971429Y-47009337D01*
X46971429Y-47009337D02*
X46757143Y-47009337D01*
X46757143Y-47009337D02*
X46671429Y-47052194D01*
X46671429Y-47052194D02*
X46628571Y-47095051D01*
X46628571Y-47095051D02*
X46585714Y-47180765D01*
X46585714Y-47180765D02*
X46585714Y-47266480D01*
X46585714Y-47266480D02*
X46628571Y-47395051D01*
X46628571Y-47395051D02*
X47142857Y-47909337D01*
X47142857Y-47909337D02*
X46585714Y-47909337D01*
X45814286Y-47309337D02*
X45814286Y-47909337D01*
X46028571Y-46966480D02*
X46242857Y-47609337D01*
X46242857Y-47609337D02*
X45685714Y-47609337D01*
X45385714Y-47095051D02*
X45342857Y-47052194D01*
X45342857Y-47052194D02*
X45257143Y-47009337D01*
X45257143Y-47009337D02*
X45042857Y-47009337D01*
X45042857Y-47009337D02*
X44957143Y-47052194D01*
X44957143Y-47052194D02*
X44914285Y-47095051D01*
X44914285Y-47095051D02*
X44871428Y-47180765D01*
X44871428Y-47180765D02*
X44871428Y-47266480D01*
X44871428Y-47266480D02*
X44914285Y-47395051D01*
X44914285Y-47395051D02*
X45428571Y-47909337D01*
X45428571Y-47909337D02*
X44871428Y-47909337D01*
X43800000Y-47909337D02*
X43800000Y-47009337D01*
X43800000Y-47009337D02*
X43285714Y-47909337D01*
X43285714Y-47909337D02*
X43285714Y-47009337D01*
X42985714Y-47009337D02*
X42685714Y-47909337D01*
X42685714Y-47909337D02*
X42385714Y-47009337D01*
X42085714Y-47909337D02*
X42085714Y-47009337D01*
X42085714Y-47009337D02*
X41785714Y-47652194D01*
X41785714Y-47652194D02*
X41485714Y-47009337D01*
X41485714Y-47009337D02*
X41485714Y-47909337D01*
X40714286Y-47866480D02*
X40800000Y-47909337D01*
X40800000Y-47909337D02*
X40971429Y-47909337D01*
X40971429Y-47909337D02*
X41057143Y-47866480D01*
X41057143Y-47866480D02*
X41100000Y-47780765D01*
X41100000Y-47780765D02*
X41100000Y-47437908D01*
X41100000Y-47437908D02*
X41057143Y-47352194D01*
X41057143Y-47352194D02*
X40971429Y-47309337D01*
X40971429Y-47309337D02*
X40800000Y-47309337D01*
X40800000Y-47309337D02*
X40714286Y-47352194D01*
X40714286Y-47352194D02*
X40671429Y-47437908D01*
X40671429Y-47437908D02*
X40671429Y-47523622D01*
X40671429Y-47523622D02*
X41100000Y-47609337D01*
D12*
X36714285Y-30254819D02*
X36714285Y-29254819D01*
X36714285Y-29731009D02*
X36142857Y-29731009D01*
X36142857Y-30254819D02*
X36142857Y-29254819D01*
X35523809Y-29683390D02*
X35619047Y-29635771D01*
X35619047Y-29635771D02*
X35666666Y-29588152D01*
X35666666Y-29588152D02*
X35714285Y-29492914D01*
X35714285Y-29492914D02*
X35714285Y-29445295D01*
X35714285Y-29445295D02*
X35666666Y-29350057D01*
X35666666Y-29350057D02*
X35619047Y-29302438D01*
X35619047Y-29302438D02*
X35523809Y-29254819D01*
X35523809Y-29254819D02*
X35333333Y-29254819D01*
X35333333Y-29254819D02*
X35238095Y-29302438D01*
X35238095Y-29302438D02*
X35190476Y-29350057D01*
X35190476Y-29350057D02*
X35142857Y-29445295D01*
X35142857Y-29445295D02*
X35142857Y-29492914D01*
X35142857Y-29492914D02*
X35190476Y-29588152D01*
X35190476Y-29588152D02*
X35238095Y-29635771D01*
X35238095Y-29635771D02*
X35333333Y-29683390D01*
X35333333Y-29683390D02*
X35523809Y-29683390D01*
X35523809Y-29683390D02*
X35619047Y-29731009D01*
X35619047Y-29731009D02*
X35666666Y-29778628D01*
X35666666Y-29778628D02*
X35714285Y-29873866D01*
X35714285Y-29873866D02*
X35714285Y-30064342D01*
X35714285Y-30064342D02*
X35666666Y-30159580D01*
X35666666Y-30159580D02*
X35619047Y-30207200D01*
X35619047Y-30207200D02*
X35523809Y-30254819D01*
X35523809Y-30254819D02*
X35333333Y-30254819D01*
X35333333Y-30254819D02*
X35238095Y-30207200D01*
X35238095Y-30207200D02*
X35190476Y-30159580D01*
X35190476Y-30159580D02*
X35142857Y-30064342D01*
X35142857Y-30064342D02*
X35142857Y-29873866D01*
X35142857Y-29873866D02*
X35190476Y-29778628D01*
X35190476Y-29778628D02*
X35238095Y-29731009D01*
X35238095Y-29731009D02*
X35333333Y-29683390D01*
X34523809Y-29254819D02*
X34428571Y-29254819D01*
X34428571Y-29254819D02*
X34333333Y-29302438D01*
X34333333Y-29302438D02*
X34285714Y-29350057D01*
X34285714Y-29350057D02*
X34238095Y-29445295D01*
X34238095Y-29445295D02*
X34190476Y-29635771D01*
X34190476Y-29635771D02*
X34190476Y-29873866D01*
X34190476Y-29873866D02*
X34238095Y-30064342D01*
X34238095Y-30064342D02*
X34285714Y-30159580D01*
X34285714Y-30159580D02*
X34333333Y-30207200D01*
X34333333Y-30207200D02*
X34428571Y-30254819D01*
X34428571Y-30254819D02*
X34523809Y-30254819D01*
X34523809Y-30254819D02*
X34619047Y-30207200D01*
X34619047Y-30207200D02*
X34666666Y-30159580D01*
X34666666Y-30159580D02*
X34714285Y-30064342D01*
X34714285Y-30064342D02*
X34761904Y-29873866D01*
X34761904Y-29873866D02*
X34761904Y-29635771D01*
X34761904Y-29635771D02*
X34714285Y-29445295D01*
X34714285Y-29445295D02*
X34666666Y-29350057D01*
X34666666Y-29350057D02*
X34619047Y-29302438D01*
X34619047Y-29302438D02*
X34523809Y-29254819D01*
X33809523Y-29350057D02*
X33761904Y-29302438D01*
X33761904Y-29302438D02*
X33666666Y-29254819D01*
X33666666Y-29254819D02*
X33428571Y-29254819D01*
X33428571Y-29254819D02*
X33333333Y-29302438D01*
X33333333Y-29302438D02*
X33285714Y-29350057D01*
X33285714Y-29350057D02*
X33238095Y-29445295D01*
X33238095Y-29445295D02*
X33238095Y-29540533D01*
X33238095Y-29540533D02*
X33285714Y-29683390D01*
X33285714Y-29683390D02*
X33857142Y-30254819D01*
X33857142Y-30254819D02*
X33238095Y-30254819D01*
X24714285Y-30254819D02*
X24714285Y-29254819D01*
X24714285Y-29731009D02*
X24142857Y-29731009D01*
X24142857Y-30254819D02*
X24142857Y-29254819D01*
X23523809Y-29683390D02*
X23619047Y-29635771D01*
X23619047Y-29635771D02*
X23666666Y-29588152D01*
X23666666Y-29588152D02*
X23714285Y-29492914D01*
X23714285Y-29492914D02*
X23714285Y-29445295D01*
X23714285Y-29445295D02*
X23666666Y-29350057D01*
X23666666Y-29350057D02*
X23619047Y-29302438D01*
X23619047Y-29302438D02*
X23523809Y-29254819D01*
X23523809Y-29254819D02*
X23333333Y-29254819D01*
X23333333Y-29254819D02*
X23238095Y-29302438D01*
X23238095Y-29302438D02*
X23190476Y-29350057D01*
X23190476Y-29350057D02*
X23142857Y-29445295D01*
X23142857Y-29445295D02*
X23142857Y-29492914D01*
X23142857Y-29492914D02*
X23190476Y-29588152D01*
X23190476Y-29588152D02*
X23238095Y-29635771D01*
X23238095Y-29635771D02*
X23333333Y-29683390D01*
X23333333Y-29683390D02*
X23523809Y-29683390D01*
X23523809Y-29683390D02*
X23619047Y-29731009D01*
X23619047Y-29731009D02*
X23666666Y-29778628D01*
X23666666Y-29778628D02*
X23714285Y-29873866D01*
X23714285Y-29873866D02*
X23714285Y-30064342D01*
X23714285Y-30064342D02*
X23666666Y-30159580D01*
X23666666Y-30159580D02*
X23619047Y-30207200D01*
X23619047Y-30207200D02*
X23523809Y-30254819D01*
X23523809Y-30254819D02*
X23333333Y-30254819D01*
X23333333Y-30254819D02*
X23238095Y-30207200D01*
X23238095Y-30207200D02*
X23190476Y-30159580D01*
X23190476Y-30159580D02*
X23142857Y-30064342D01*
X23142857Y-30064342D02*
X23142857Y-29873866D01*
X23142857Y-29873866D02*
X23190476Y-29778628D01*
X23190476Y-29778628D02*
X23238095Y-29731009D01*
X23238095Y-29731009D02*
X23333333Y-29683390D01*
X22523809Y-29254819D02*
X22428571Y-29254819D01*
X22428571Y-29254819D02*
X22333333Y-29302438D01*
X22333333Y-29302438D02*
X22285714Y-29350057D01*
X22285714Y-29350057D02*
X22238095Y-29445295D01*
X22238095Y-29445295D02*
X22190476Y-29635771D01*
X22190476Y-29635771D02*
X22190476Y-29873866D01*
X22190476Y-29873866D02*
X22238095Y-30064342D01*
X22238095Y-30064342D02*
X22285714Y-30159580D01*
X22285714Y-30159580D02*
X22333333Y-30207200D01*
X22333333Y-30207200D02*
X22428571Y-30254819D01*
X22428571Y-30254819D02*
X22523809Y-30254819D01*
X22523809Y-30254819D02*
X22619047Y-30207200D01*
X22619047Y-30207200D02*
X22666666Y-30159580D01*
X22666666Y-30159580D02*
X22714285Y-30064342D01*
X22714285Y-30064342D02*
X22761904Y-29873866D01*
X22761904Y-29873866D02*
X22761904Y-29635771D01*
X22761904Y-29635771D02*
X22714285Y-29445295D01*
X22714285Y-29445295D02*
X22666666Y-29350057D01*
X22666666Y-29350057D02*
X22619047Y-29302438D01*
X22619047Y-29302438D02*
X22523809Y-29254819D01*
X21238095Y-30254819D02*
X21809523Y-30254819D01*
X21523809Y-30254819D02*
X21523809Y-29254819D01*
X21523809Y-29254819D02*
X21619047Y-29397676D01*
X21619047Y-29397676D02*
X21714285Y-29492914D01*
X21714285Y-29492914D02*
X21809523Y-29540533D01*
X18204819Y-37819285D02*
X18919104Y-37819285D01*
X18919104Y-37819285D02*
X19061961Y-37771666D01*
X19061961Y-37771666D02*
X19157200Y-37676428D01*
X19157200Y-37676428D02*
X19204819Y-37533571D01*
X19204819Y-37533571D02*
X19204819Y-37438333D01*
X18204819Y-38200238D02*
X18204819Y-38866904D01*
X18204819Y-38866904D02*
X19204819Y-38438333D01*
X18204819Y-39438333D02*
X18204819Y-39533571D01*
X18204819Y-39533571D02*
X18252438Y-39628809D01*
X18252438Y-39628809D02*
X18300057Y-39676428D01*
X18300057Y-39676428D02*
X18395295Y-39724047D01*
X18395295Y-39724047D02*
X18585771Y-39771666D01*
X18585771Y-39771666D02*
X18823866Y-39771666D01*
X18823866Y-39771666D02*
X19014342Y-39724047D01*
X19014342Y-39724047D02*
X19109580Y-39676428D01*
X19109580Y-39676428D02*
X19157200Y-39628809D01*
X19157200Y-39628809D02*
X19204819Y-39533571D01*
X19204819Y-39533571D02*
X19204819Y-39438333D01*
X19204819Y-39438333D02*
X19157200Y-39343095D01*
X19157200Y-39343095D02*
X19109580Y-39295476D01*
X19109580Y-39295476D02*
X19014342Y-39247857D01*
X19014342Y-39247857D02*
X18823866Y-39200238D01*
X18823866Y-39200238D02*
X18585771Y-39200238D01*
X18585771Y-39200238D02*
X18395295Y-39247857D01*
X18395295Y-39247857D02*
X18300057Y-39295476D01*
X18300057Y-39295476D02*
X18252438Y-39343095D01*
X18252438Y-39343095D02*
X18204819Y-39438333D01*
X19204819Y-40724047D02*
X19204819Y-40152619D01*
X19204819Y-40438333D02*
X18204819Y-40438333D01*
X18204819Y-40438333D02*
X18347676Y-40343095D01*
X18347676Y-40343095D02*
X18442914Y-40247857D01*
X18442914Y-40247857D02*
X18490533Y-40152619D01*
X7714285Y-24054819D02*
X7714285Y-24864342D01*
X7714285Y-24864342D02*
X7666666Y-24959580D01*
X7666666Y-24959580D02*
X7619047Y-25007200D01*
X7619047Y-25007200D02*
X7523809Y-25054819D01*
X7523809Y-25054819D02*
X7333333Y-25054819D01*
X7333333Y-25054819D02*
X7238095Y-25007200D01*
X7238095Y-25007200D02*
X7190476Y-24959580D01*
X7190476Y-24959580D02*
X7142857Y-24864342D01*
X7142857Y-24864342D02*
X7142857Y-24054819D01*
X6761904Y-24054819D02*
X6095238Y-24054819D01*
X6095238Y-24054819D02*
X6523809Y-25054819D01*
X5523809Y-24054819D02*
X5428571Y-24054819D01*
X5428571Y-24054819D02*
X5333333Y-24102438D01*
X5333333Y-24102438D02*
X5285714Y-24150057D01*
X5285714Y-24150057D02*
X5238095Y-24245295D01*
X5238095Y-24245295D02*
X5190476Y-24435771D01*
X5190476Y-24435771D02*
X5190476Y-24673866D01*
X5190476Y-24673866D02*
X5238095Y-24864342D01*
X5238095Y-24864342D02*
X5285714Y-24959580D01*
X5285714Y-24959580D02*
X5333333Y-25007200D01*
X5333333Y-25007200D02*
X5428571Y-25054819D01*
X5428571Y-25054819D02*
X5523809Y-25054819D01*
X5523809Y-25054819D02*
X5619047Y-25007200D01*
X5619047Y-25007200D02*
X5666666Y-24959580D01*
X5666666Y-24959580D02*
X5714285Y-24864342D01*
X5714285Y-24864342D02*
X5761904Y-24673866D01*
X5761904Y-24673866D02*
X5761904Y-24435771D01*
X5761904Y-24435771D02*
X5714285Y-24245295D01*
X5714285Y-24245295D02*
X5666666Y-24150057D01*
X5666666Y-24150057D02*
X5619047Y-24102438D01*
X5619047Y-24102438D02*
X5523809Y-24054819D01*
X4809523Y-24150057D02*
X4761904Y-24102438D01*
X4761904Y-24102438D02*
X4666666Y-24054819D01*
X4666666Y-24054819D02*
X4428571Y-24054819D01*
X4428571Y-24054819D02*
X4333333Y-24102438D01*
X4333333Y-24102438D02*
X4285714Y-24150057D01*
X4285714Y-24150057D02*
X4238095Y-24245295D01*
X4238095Y-24245295D02*
X4238095Y-24340533D01*
X4238095Y-24340533D02*
X4285714Y-24483390D01*
X4285714Y-24483390D02*
X4857142Y-25054819D01*
X4857142Y-25054819D02*
X4238095Y-25054819D01*
X69954819Y-31714285D02*
X70669104Y-31714285D01*
X70669104Y-31714285D02*
X70811961Y-31666666D01*
X70811961Y-31666666D02*
X70907200Y-31571428D01*
X70907200Y-31571428D02*
X70954819Y-31428571D01*
X70954819Y-31428571D02*
X70954819Y-31333333D01*
X70383390Y-32333333D02*
X70335771Y-32238095D01*
X70335771Y-32238095D02*
X70288152Y-32190476D01*
X70288152Y-32190476D02*
X70192914Y-32142857D01*
X70192914Y-32142857D02*
X70145295Y-32142857D01*
X70145295Y-32142857D02*
X70050057Y-32190476D01*
X70050057Y-32190476D02*
X70002438Y-32238095D01*
X70002438Y-32238095D02*
X69954819Y-32333333D01*
X69954819Y-32333333D02*
X69954819Y-32523809D01*
X69954819Y-32523809D02*
X70002438Y-32619047D01*
X70002438Y-32619047D02*
X70050057Y-32666666D01*
X70050057Y-32666666D02*
X70145295Y-32714285D01*
X70145295Y-32714285D02*
X70192914Y-32714285D01*
X70192914Y-32714285D02*
X70288152Y-32666666D01*
X70288152Y-32666666D02*
X70335771Y-32619047D01*
X70335771Y-32619047D02*
X70383390Y-32523809D01*
X70383390Y-32523809D02*
X70383390Y-32333333D01*
X70383390Y-32333333D02*
X70431009Y-32238095D01*
X70431009Y-32238095D02*
X70478628Y-32190476D01*
X70478628Y-32190476D02*
X70573866Y-32142857D01*
X70573866Y-32142857D02*
X70764342Y-32142857D01*
X70764342Y-32142857D02*
X70859580Y-32190476D01*
X70859580Y-32190476D02*
X70907200Y-32238095D01*
X70907200Y-32238095D02*
X70954819Y-32333333D01*
X70954819Y-32333333D02*
X70954819Y-32523809D01*
X70954819Y-32523809D02*
X70907200Y-32619047D01*
X70907200Y-32619047D02*
X70859580Y-32666666D01*
X70859580Y-32666666D02*
X70764342Y-32714285D01*
X70764342Y-32714285D02*
X70573866Y-32714285D01*
X70573866Y-32714285D02*
X70478628Y-32666666D01*
X70478628Y-32666666D02*
X70431009Y-32619047D01*
X70431009Y-32619047D02*
X70383390Y-32523809D01*
X69954819Y-33333333D02*
X69954819Y-33428571D01*
X69954819Y-33428571D02*
X70002438Y-33523809D01*
X70002438Y-33523809D02*
X70050057Y-33571428D01*
X70050057Y-33571428D02*
X70145295Y-33619047D01*
X70145295Y-33619047D02*
X70335771Y-33666666D01*
X70335771Y-33666666D02*
X70573866Y-33666666D01*
X70573866Y-33666666D02*
X70764342Y-33619047D01*
X70764342Y-33619047D02*
X70859580Y-33571428D01*
X70859580Y-33571428D02*
X70907200Y-33523809D01*
X70907200Y-33523809D02*
X70954819Y-33428571D01*
X70954819Y-33428571D02*
X70954819Y-33333333D01*
X70954819Y-33333333D02*
X70907200Y-33238095D01*
X70907200Y-33238095D02*
X70859580Y-33190476D01*
X70859580Y-33190476D02*
X70764342Y-33142857D01*
X70764342Y-33142857D02*
X70573866Y-33095238D01*
X70573866Y-33095238D02*
X70335771Y-33095238D01*
X70335771Y-33095238D02*
X70145295Y-33142857D01*
X70145295Y-33142857D02*
X70050057Y-33190476D01*
X70050057Y-33190476D02*
X70002438Y-33238095D01*
X70002438Y-33238095D02*
X69954819Y-33333333D01*
X70954819Y-34619047D02*
X70954819Y-34047619D01*
X70954819Y-34333333D02*
X69954819Y-34333333D01*
X69954819Y-34333333D02*
X70097676Y-34238095D01*
X70097676Y-34238095D02*
X70192914Y-34142857D01*
X70192914Y-34142857D02*
X70240533Y-34047619D01*
D10*
%TO.C,C628*%
X22392164Y-18140000D02*
X22607836Y-18140000D01*
X22392164Y-18860000D02*
X22607836Y-18860000D01*
%TO.C,C611*%
X22892164Y-28640000D02*
X23107836Y-28640000D01*
X22892164Y-29360000D02*
X23107836Y-29360000D01*
%TO.C,C630*%
X11892164Y-23640000D02*
X12107836Y-23640000D01*
X11892164Y-24360000D02*
X12107836Y-24360000D01*
%TO.C,C437*%
X39892164Y-15640000D02*
X40107836Y-15640000D01*
X39892164Y-16360000D02*
X40107836Y-16360000D01*
%TO.C,C410*%
X39892164Y-21640000D02*
X40107836Y-21640000D01*
X39892164Y-22360000D02*
X40107836Y-22360000D01*
%TO.C,C4116*%
X42392164Y-19640000D02*
X42607836Y-19640000D01*
X42392164Y-20360000D02*
X42607836Y-20360000D01*
%TO.C,C316*%
X60359420Y-30490000D02*
X60640580Y-30490000D01*
X60359420Y-31510000D02*
X60640580Y-31510000D01*
%TO.C,C498*%
X28392164Y-33140000D02*
X28607836Y-33140000D01*
X28392164Y-33860000D02*
X28607836Y-33860000D01*
%TO.C,C616*%
X25392164Y-25640000D02*
X25607836Y-25640000D01*
X25392164Y-26360000D02*
X25607836Y-26360000D01*
%TO.C,C4108*%
X45392164Y-25640000D02*
X45607836Y-25640000D01*
X45392164Y-26360000D02*
X45607836Y-26360000D01*
%TO.C,C462*%
X49892164Y-19640000D02*
X50107836Y-19640000D01*
X49892164Y-20360000D02*
X50107836Y-20360000D01*
%TO.C,C612*%
X16892164Y-22140000D02*
X17107836Y-22140000D01*
X16892164Y-22860000D02*
X17107836Y-22860000D01*
%TO.C,C443*%
X29392164Y-27140000D02*
X29607836Y-27140000D01*
X29392164Y-27860000D02*
X29607836Y-27860000D01*
%TO.C,C602*%
X16359420Y-25490000D02*
X16640580Y-25490000D01*
X16359420Y-26510000D02*
X16640580Y-26510000D01*
%TO.C,C409*%
X36892164Y-27640000D02*
X37107836Y-27640000D01*
X36892164Y-28360000D02*
X37107836Y-28360000D01*
%TO.C,C4128*%
X42392164Y-18140000D02*
X42607836Y-18140000D01*
X42392164Y-18860000D02*
X42607836Y-18860000D01*
%TO.C,C4123*%
X39892164Y-18640000D02*
X40107836Y-18640000D01*
X39892164Y-19360000D02*
X40107836Y-19360000D01*
%TO.C,C4111*%
X45392164Y-27140000D02*
X45607836Y-27140000D01*
X45392164Y-27860000D02*
X45607836Y-27860000D01*
%TO.C,C496*%
X30392164Y-16140000D02*
X30607836Y-16140000D01*
X30392164Y-16860000D02*
X30607836Y-16860000D01*
%TO.C,C605*%
X22892164Y-27140000D02*
X23107836Y-27140000D01*
X22892164Y-27860000D02*
X23107836Y-27860000D01*
%TO.C,C617*%
X14392164Y-23640000D02*
X14607836Y-23640000D01*
X14392164Y-24360000D02*
X14607836Y-24360000D01*
%TO.C,C806*%
X61392164Y-36640000D02*
X61607836Y-36640000D01*
X61392164Y-37360000D02*
X61607836Y-37360000D01*
%TO.C,C481*%
X44892164Y-37640000D02*
X45107836Y-37640000D01*
X44892164Y-38360000D02*
X45107836Y-38360000D01*
%TO.C,C4115*%
X45392164Y-28640000D02*
X45607836Y-28640000D01*
X45392164Y-29360000D02*
X45607836Y-29360000D01*
%TO.C,C705*%
X60892164Y-13140000D02*
X61107836Y-13140000D01*
X60892164Y-13860000D02*
X61107836Y-13860000D01*
%TO.C,R504*%
X31346359Y-14620000D02*
X31653641Y-14620000D01*
X31346359Y-15380000D02*
X31653641Y-15380000D01*
%TO.C,C468*%
X42392164Y-37640000D02*
X42607836Y-37640000D01*
X42392164Y-38360000D02*
X42607836Y-38360000D01*
%TO.C,C495*%
X33892164Y-37640000D02*
X34107836Y-37640000D01*
X33892164Y-38360000D02*
X34107836Y-38360000D01*
%TO.C,C625*%
X16392164Y-19140000D02*
X16607836Y-19140000D01*
X16392164Y-19860000D02*
X16607836Y-19860000D01*
%TO.C,C414*%
X31892164Y-24140000D02*
X32107836Y-24140000D01*
X31892164Y-24860000D02*
X32107836Y-24860000D01*
%TO.C,C427*%
X45359420Y-17490000D02*
X45640580Y-17490000D01*
X45359420Y-18510000D02*
X45640580Y-18510000D01*
%TO.C,C4105*%
X42392164Y-21140000D02*
X42607836Y-21140000D01*
X42392164Y-21860000D02*
X42607836Y-21860000D01*
%TO.C,R802*%
X61346359Y-38120000D02*
X61653641Y-38120000D01*
X61346359Y-38880000D02*
X61653641Y-38880000D01*
%TO.C,C706*%
X60892164Y-16140000D02*
X61107836Y-16140000D01*
X60892164Y-16860000D02*
X61107836Y-16860000D01*
%TO.C,C464*%
X30892164Y-33140000D02*
X31107836Y-33140000D01*
X30892164Y-33860000D02*
X31107836Y-33860000D01*
%TO.C,C436*%
X39359420Y-35990000D02*
X39640580Y-35990000D01*
X39359420Y-37010000D02*
X39640580Y-37010000D01*
%TO.C,R716*%
X19571359Y-37150000D02*
X19878641Y-37150000D01*
X19571359Y-37910000D02*
X19878641Y-37910000D01*
%TO.C,C603*%
X22892164Y-25640000D02*
X23107836Y-25640000D01*
X22892164Y-26360000D02*
X23107836Y-26360000D01*
%TO.C,C456*%
X48392164Y-18140000D02*
X48607836Y-18140000D01*
X48392164Y-18860000D02*
X48607836Y-18860000D01*
%TO.C,R712*%
X7071359Y-47650000D02*
X7378641Y-47650000D01*
X7071359Y-48410000D02*
X7378641Y-48410000D01*
%TO.C,R601*%
X24846359Y-18120000D02*
X25153641Y-18120000D01*
X24846359Y-18880000D02*
X25153641Y-18880000D01*
%TO.C,C435*%
X36859420Y-15490000D02*
X37140580Y-15490000D01*
X36859420Y-16510000D02*
X37140580Y-16510000D01*
%TO.C,C485*%
X26892164Y-27140000D02*
X27107836Y-27140000D01*
X26892164Y-27860000D02*
X27107836Y-27860000D01*
%TO.C,C4124*%
X39892164Y-32640000D02*
X40107836Y-32640000D01*
X39892164Y-33360000D02*
X40107836Y-33360000D01*
%TO.C,C608*%
X19892164Y-21640000D02*
X20107836Y-21640000D01*
X19892164Y-22360000D02*
X20107836Y-22360000D01*
%TO.C,C619*%
X16392164Y-20640000D02*
X16607836Y-20640000D01*
X16392164Y-21360000D02*
X16607836Y-21360000D01*
%TO.C,C422*%
X31892164Y-22640000D02*
X32107836Y-22640000D01*
X31892164Y-23360000D02*
X32107836Y-23360000D01*
%TO.C,C438*%
X30892164Y-30140000D02*
X31107836Y-30140000D01*
X30892164Y-30860000D02*
X31107836Y-30860000D01*
%TO.C,R1002*%
X33846359Y-13120000D02*
X34153641Y-13120000D01*
X33846359Y-13880000D02*
X34153641Y-13880000D01*
%TO.C,C4121*%
X44892164Y-30140000D02*
X45107836Y-30140000D01*
X44892164Y-30860000D02*
X45107836Y-30860000D01*
%TO.C,C632*%
X17392164Y-17640000D02*
X17607836Y-17640000D01*
X17392164Y-18360000D02*
X17607836Y-18360000D01*
%TO.C,C499*%
X47392164Y-37140000D02*
X47607836Y-37140000D01*
X47392164Y-37860000D02*
X47607836Y-37860000D01*
%TO.C,C454*%
X49892164Y-21140000D02*
X50107836Y-21140000D01*
X49892164Y-21860000D02*
X50107836Y-21860000D01*
%TO.C,C457*%
X39892164Y-14140000D02*
X40107836Y-14140000D01*
X39892164Y-14860000D02*
X40107836Y-14860000D01*
%TO.C,R713*%
X4571359Y-47650000D02*
X4878641Y-47650000D01*
X4571359Y-48410000D02*
X4878641Y-48410000D01*
%TO.C,C418*%
X34359420Y-18490000D02*
X34640580Y-18490000D01*
X34359420Y-19510000D02*
X34640580Y-19510000D01*
%TO.C,C4117*%
X33392164Y-25640000D02*
X33607836Y-25640000D01*
X33392164Y-26360000D02*
X33607836Y-26360000D01*
%TO.C,C484*%
X52892164Y-24140000D02*
X53107836Y-24140000D01*
X52892164Y-24860000D02*
X53107836Y-24860000D01*
%TO.C,C476*%
X28892164Y-19640000D02*
X29107836Y-19640000D01*
X28892164Y-20360000D02*
X29107836Y-20360000D01*
%TO.C,R510*%
X53846359Y-28620000D02*
X54153641Y-28620000D01*
X53846359Y-29380000D02*
X54153641Y-29380000D01*
%TO.C,C455*%
X36392164Y-36140000D02*
X36607836Y-36140000D01*
X36392164Y-36860000D02*
X36607836Y-36860000D01*
%TO.C,C626*%
X24892164Y-19640000D02*
X25107836Y-19640000D01*
X24892164Y-20360000D02*
X25107836Y-20360000D01*
%TO.C,C480*%
X52892164Y-25640000D02*
X53107836Y-25640000D01*
X52892164Y-26360000D02*
X53107836Y-26360000D01*
%TO.C,C441*%
X29392164Y-24140000D02*
X29607836Y-24140000D01*
X29392164Y-24860000D02*
X29607836Y-24860000D01*
%TO.C,C4114*%
X45392164Y-22640000D02*
X45607836Y-22640000D01*
X45392164Y-23360000D02*
X45607836Y-23360000D01*
%TO.C,C440*%
X50392164Y-25640000D02*
X50607836Y-25640000D01*
X50392164Y-26360000D02*
X50607836Y-26360000D01*
%TO.C,C804*%
X60359420Y-28490000D02*
X60640580Y-28490000D01*
X60359420Y-29510000D02*
X60640580Y-29510000D01*
%TO.C,C487*%
X27392164Y-21140000D02*
X27607836Y-21140000D01*
X27392164Y-21860000D02*
X27607836Y-21860000D01*
%TO.C,C472*%
X47392164Y-35640000D02*
X47607836Y-35640000D01*
X47392164Y-36360000D02*
X47607836Y-36360000D01*
%TO.C,C479*%
X39892164Y-12640000D02*
X40107836Y-12640000D01*
X39892164Y-13360000D02*
X40107836Y-13360000D01*
%TO.C,C445*%
X47859420Y-33490000D02*
X48140580Y-33490000D01*
X47859420Y-34510000D02*
X48140580Y-34510000D01*
%TO.C,C4110*%
X45392164Y-24140000D02*
X45607836Y-24140000D01*
X45392164Y-24860000D02*
X45607836Y-24860000D01*
%TO.C,C311*%
X19859420Y-25490000D02*
X20140580Y-25490000D01*
X19859420Y-26510000D02*
X20140580Y-26510000D01*
%TO.C,C4127*%
X44892164Y-31640000D02*
X45107836Y-31640000D01*
X44892164Y-32360000D02*
X45107836Y-32360000D01*
%TO.C,R509*%
X49346359Y-15120000D02*
X49653641Y-15120000D01*
X49346359Y-15880000D02*
X49653641Y-15880000D01*
%TO.C,C459*%
X46359420Y-15490000D02*
X46640580Y-15490000D01*
X46359420Y-16510000D02*
X46640580Y-16510000D01*
%TO.C,C607*%
X16892164Y-27640000D02*
X17107836Y-27640000D01*
X16892164Y-28360000D02*
X17107836Y-28360000D01*
%TO.C,C805*%
X70392164Y-36140000D02*
X70607836Y-36140000D01*
X70392164Y-36860000D02*
X70607836Y-36860000D01*
%TO.C,R711*%
X9071359Y-29650000D02*
X9378641Y-29650000D01*
X9071359Y-30410000D02*
X9378641Y-30410000D01*
%TO.C,C604*%
X22892164Y-24140000D02*
X23107836Y-24140000D01*
X22892164Y-24860000D02*
X23107836Y-24860000D01*
%TO.C,C453*%
X29892164Y-21140000D02*
X30107836Y-21140000D01*
X29892164Y-21860000D02*
X30107836Y-21860000D01*
%TO.C,C4120*%
X44892164Y-21140000D02*
X45107836Y-21140000D01*
X44892164Y-21860000D02*
X45107836Y-21860000D01*
%TO.C,C444*%
X33359420Y-16490000D02*
X33640580Y-16490000D01*
X33359420Y-17510000D02*
X33640580Y-17510000D01*
%TO.C,C4118*%
X42392164Y-31640000D02*
X42607836Y-31640000D01*
X42392164Y-32360000D02*
X42607836Y-32360000D01*
%TO.C,C709*%
X9392164Y-26640000D02*
X9607836Y-26640000D01*
X9392164Y-27360000D02*
X9607836Y-27360000D01*
%TO.C,R602*%
X11346359Y-29120000D02*
X11653641Y-29120000D01*
X11346359Y-29880000D02*
X11653641Y-29880000D01*
%TO.C,C4125*%
X34892164Y-20640000D02*
X35107836Y-20640000D01*
X34892164Y-21360000D02*
X35107836Y-21360000D01*
%TO.C,C407*%
X42892164Y-27140000D02*
X43107836Y-27140000D01*
X42892164Y-27860000D02*
X43107836Y-27860000D01*
%TO.C,C486*%
X42392164Y-12640000D02*
X42607836Y-12640000D01*
X42392164Y-13360000D02*
X42607836Y-13360000D01*
%TO.C,C629*%
X19892164Y-17640000D02*
X20107836Y-17640000D01*
X19892164Y-18360000D02*
X20107836Y-18360000D01*
%TO.C,C477*%
X30892164Y-34640000D02*
X31107836Y-34640000D01*
X30892164Y-35360000D02*
X31107836Y-35360000D01*
%TO.C,C420*%
X39892164Y-17140000D02*
X40107836Y-17140000D01*
X39892164Y-17860000D02*
X40107836Y-17860000D01*
%TO.C,C601*%
X19859420Y-27490000D02*
X20140580Y-27490000D01*
X19859420Y-28510000D02*
X20140580Y-28510000D01*
%TO.C,C4119*%
X34392164Y-22140000D02*
X34607836Y-22140000D01*
X34392164Y-22860000D02*
X34607836Y-22860000D01*
%TO.C,C474*%
X39892164Y-38140000D02*
X40107836Y-38140000D01*
X39892164Y-38860000D02*
X40107836Y-38860000D01*
%TO.C,C703*%
X5892164Y-29640000D02*
X6107836Y-29640000D01*
X5892164Y-30360000D02*
X6107836Y-30360000D01*
%TO.C,C622*%
X14392164Y-22140000D02*
X14607836Y-22140000D01*
X14392164Y-22860000D02*
X14607836Y-22860000D01*
%TO.C,C708*%
X2859420Y-23490000D02*
X3140580Y-23490000D01*
X2859420Y-24510000D02*
X3140580Y-24510000D01*
%TO.C,C613*%
X16392164Y-29140000D02*
X16607836Y-29140000D01*
X16392164Y-29860000D02*
X16607836Y-29860000D01*
%TO.C,C431*%
X42392164Y-16640000D02*
X42607836Y-16640000D01*
X42392164Y-17360000D02*
X42607836Y-17360000D01*
%TO.C,C405*%
X42892164Y-25640000D02*
X43107836Y-25640000D01*
X42892164Y-26360000D02*
X43107836Y-26360000D01*
%TO.C,C609*%
X18892164Y-29640000D02*
X19107836Y-29640000D01*
X18892164Y-30360000D02*
X19107836Y-30360000D01*
%TO.C,C461*%
X44892164Y-36140000D02*
X45107836Y-36140000D01*
X44892164Y-36860000D02*
X45107836Y-36860000D01*
%TO.C,C503*%
X37392164Y-39140000D02*
X37607836Y-39140000D01*
X37392164Y-39860000D02*
X37607836Y-39860000D01*
%TO.C,C433*%
X47392164Y-19640000D02*
X47607836Y-19640000D01*
X47392164Y-20360000D02*
X47607836Y-20360000D01*
%TO.C,C446*%
X42859420Y-14490000D02*
X43140580Y-14490000D01*
X42859420Y-15510000D02*
X43140580Y-15510000D01*
%TO.C,C803*%
X60359420Y-34490000D02*
X60640580Y-34490000D01*
X60359420Y-35510000D02*
X60640580Y-35510000D01*
%TO.C,C504*%
X42392164Y-39140000D02*
X42607836Y-39140000D01*
X42392164Y-39860000D02*
X42607836Y-39860000D01*
%TO.C,C470*%
X51392164Y-30140000D02*
X51607836Y-30140000D01*
X51392164Y-30860000D02*
X51607836Y-30860000D01*
%TO.C,C404*%
X36359420Y-25490000D02*
X36640580Y-25490000D01*
X36359420Y-26510000D02*
X36640580Y-26510000D01*
%TO.C,C490*%
X50892164Y-33140000D02*
X51107836Y-33140000D01*
X50892164Y-33860000D02*
X51107836Y-33860000D01*
%TO.C,C447*%
X31392164Y-19140000D02*
X31607836Y-19140000D01*
X31392164Y-19860000D02*
X31607836Y-19860000D01*
%TO.C,C432*%
X42392164Y-34640000D02*
X42607836Y-34640000D01*
X42392164Y-35360000D02*
X42607836Y-35360000D01*
%TO.C,R506*%
X53846359Y-27120000D02*
X54153641Y-27120000D01*
X53846359Y-27880000D02*
X54153641Y-27880000D01*
%TO.C,C634*%
X13892164Y-19140000D02*
X14107836Y-19140000D01*
X13892164Y-19860000D02*
X14107836Y-19860000D01*
%TO.C,R507*%
X49846359Y-35620000D02*
X50153641Y-35620000D01*
X49846359Y-36380000D02*
X50153641Y-36380000D01*
%TO.C,C473*%
X36392164Y-37640000D02*
X36607836Y-37640000D01*
X36392164Y-38360000D02*
X36607836Y-38360000D01*
%TO.C,C4104*%
X36892164Y-29140000D02*
X37107836Y-29140000D01*
X36892164Y-29860000D02*
X37107836Y-29860000D01*
%TO.C,C442*%
X50392164Y-24140000D02*
X50607836Y-24140000D01*
X50392164Y-24860000D02*
X50607836Y-24860000D01*
%TO.C,C488*%
X52392164Y-21140000D02*
X52607836Y-21140000D01*
X52392164Y-21860000D02*
X52607836Y-21860000D01*
%TO.C,C4122*%
X37392164Y-19140000D02*
X37607836Y-19140000D01*
X37392164Y-19860000D02*
X37607836Y-19860000D01*
%TO.C,C458*%
X28392164Y-25640000D02*
X28607836Y-25640000D01*
X28392164Y-26360000D02*
X28607836Y-26360000D01*
%TO.C,C494*%
X45892164Y-13640000D02*
X46107836Y-13640000D01*
X45892164Y-14360000D02*
X46107836Y-14360000D01*
%TO.C,J701*%
X840000Y-33715000D02*
X840000Y-36025000D01*
X840000Y-33715000D02*
X1040000Y-33515000D01*
X840000Y-36025000D02*
X1190000Y-36535000D01*
X840000Y-43115000D02*
X1040000Y-42905000D01*
X840000Y-44975000D02*
X840000Y-43115000D01*
X840000Y-44975000D02*
X1040000Y-45175000D01*
X1040000Y-33515000D02*
X1040000Y-33255000D01*
X1190000Y-42905000D02*
X1040000Y-42905000D01*
X1190000Y-42905000D02*
X1190000Y-36535000D01*
X5800000Y-46005000D02*
X4000000Y-46005000D01*
X11800000Y-46005000D02*
X7100000Y-46005000D01*
X17110000Y-32035000D02*
X3100000Y-32035000D01*
X17110000Y-33955000D02*
X17110000Y-32035000D01*
X17110000Y-45555000D02*
X17110000Y-46005000D01*
X17110000Y-46005000D02*
X13500000Y-46005000D01*
%TO.C,C4102*%
X42892164Y-28640000D02*
X43107836Y-28640000D01*
X42892164Y-29360000D02*
X43107836Y-29360000D01*
%TO.C,C4126*%
X44892164Y-19640000D02*
X45107836Y-19640000D01*
X44892164Y-20360000D02*
X45107836Y-20360000D01*
%TO.C,C483*%
X26892164Y-24140000D02*
X27107836Y-24140000D01*
X26892164Y-24860000D02*
X27107836Y-24860000D01*
%TO.C,C615*%
X19359420Y-19490000D02*
X19640580Y-19490000D01*
X19359420Y-20510000D02*
X19640580Y-20510000D01*
%TO.C,C466*%
X33892164Y-36140000D02*
X34107836Y-36140000D01*
X33892164Y-36860000D02*
X34107836Y-36860000D01*
%TO.C,U702*%
X5090000Y-25440000D02*
X5090000Y-25490000D01*
X5090000Y-26610000D02*
X5090000Y-27390000D01*
X5090000Y-28510000D02*
X5090000Y-28560000D01*
X5090000Y-28560000D02*
X6910000Y-28560000D01*
X6910000Y-25440000D02*
X5090000Y-25440000D01*
X6910000Y-25490000D02*
X6910000Y-25440000D01*
X6910000Y-28560000D02*
X6910000Y-28510000D01*
X7450000Y-25490000D02*
X7210000Y-25160000D01*
X7690000Y-25160000D01*
X7450000Y-25490000D01*
G36*
X7450000Y-25490000D02*
G01*
X7210000Y-25160000D01*
X7690000Y-25160000D01*
X7450000Y-25490000D01*
G37*
%TO.C,C623*%
X24892164Y-21140000D02*
X25107836Y-21140000D01*
X24892164Y-21860000D02*
X25107836Y-21860000D01*
%TO.C,C478*%
X28392164Y-31640000D02*
X28607836Y-31640000D01*
X28392164Y-32360000D02*
X28607836Y-32360000D01*
%TO.C,C4103*%
X36892164Y-22140000D02*
X37107836Y-22140000D01*
X36892164Y-22860000D02*
X37107836Y-22860000D01*
%TO.C,C425*%
X47392164Y-21140000D02*
X47607836Y-21140000D01*
X47392164Y-21860000D02*
X47607836Y-21860000D01*
%TO.C,C4106*%
X42392164Y-30140000D02*
X42607836Y-30140000D01*
X42392164Y-30860000D02*
X42607836Y-30860000D01*
%TO.C,J801*%
X68700000Y-44000000D02*
X68700000Y-42600000D01*
%TO.C,C475*%
X33892164Y-14640000D02*
X34107836Y-14640000D01*
X33892164Y-15360000D02*
X34107836Y-15360000D01*
%TO.C,C492*%
X52892164Y-22640000D02*
X53107836Y-22640000D01*
X52892164Y-23360000D02*
X53107836Y-23360000D01*
%TO.C,C429*%
X32392164Y-20640000D02*
X32607836Y-20640000D01*
X32392164Y-21360000D02*
X32607836Y-21360000D01*
%TO.C,C465*%
X51392164Y-28640000D02*
X51607836Y-28640000D01*
X51392164Y-29360000D02*
X51607836Y-29360000D01*
%TO.C,C618*%
X14392164Y-27640000D02*
X14607836Y-27640000D01*
X14392164Y-28360000D02*
X14607836Y-28360000D01*
%TO.C,C403*%
X39859420Y-27490000D02*
X40140580Y-27490000D01*
X39859420Y-28510000D02*
X40140580Y-28510000D01*
%TO.C,C413*%
X47892164Y-25640000D02*
X48107836Y-25640000D01*
X47892164Y-26360000D02*
X48107836Y-26360000D01*
%TO.C,R714*%
X19571359Y-38650000D02*
X19878641Y-38650000D01*
X19571359Y-39410000D02*
X19878641Y-39410000D01*
%TO.C,C412*%
X34392164Y-29140000D02*
X34607836Y-29140000D01*
X34392164Y-29860000D02*
X34607836Y-29860000D01*
%TO.C,C467*%
X36859420Y-13490000D02*
X37140580Y-13490000D01*
X36859420Y-14510000D02*
X37140580Y-14510000D01*
%TO.C,C704*%
X2392164Y-26640000D02*
X2607836Y-26640000D01*
X2392164Y-27360000D02*
X2607836Y-27360000D01*
%TO.C,C449*%
X30892164Y-31640000D02*
X31107836Y-31640000D01*
X30892164Y-32360000D02*
X31107836Y-32360000D01*
%TO.C,C415*%
X47892164Y-24140000D02*
X48107836Y-24140000D01*
X47892164Y-24860000D02*
X48107836Y-24860000D01*
%TO.C,C423*%
X47892164Y-22640000D02*
X48107836Y-22640000D01*
X47892164Y-23360000D02*
X48107836Y-23360000D01*
%TO.C,C430*%
X44892164Y-33140000D02*
X45107836Y-33140000D01*
X44892164Y-33860000D02*
X45107836Y-33860000D01*
%TO.C,C424*%
X31892164Y-28640000D02*
X32107836Y-28640000D01*
X31892164Y-29360000D02*
X32107836Y-29360000D01*
%TO.C,R801*%
X70346359Y-37620000D02*
X70653641Y-37620000D01*
X70346359Y-38380000D02*
X70653641Y-38380000D01*
%TO.C,C633*%
X11892164Y-22140000D02*
X12107836Y-22140000D01*
X11892164Y-22860000D02*
X12107836Y-22860000D01*
%TO.C,C408*%
X36892164Y-23640000D02*
X37107836Y-23640000D01*
X36892164Y-24360000D02*
X37107836Y-24360000D01*
%TO.C,C451*%
X50392164Y-22640000D02*
X50607836Y-22640000D01*
X50392164Y-23360000D02*
X50607836Y-23360000D01*
%TO.C,C471*%
X30392164Y-17640000D02*
X30607836Y-17640000D01*
X30392164Y-18360000D02*
X30607836Y-18360000D01*
%TO.C,C707*%
X58392164Y-14640000D02*
X58607836Y-14640000D01*
X58392164Y-15360000D02*
X58607836Y-15360000D01*
%TO.C,C701*%
X60892164Y-14640000D02*
X61107836Y-14640000D01*
X60892164Y-15360000D02*
X61107836Y-15360000D01*
%TO.C,C4107*%
X39892164Y-20140000D02*
X40107836Y-20140000D01*
X39892164Y-20860000D02*
X40107836Y-20860000D01*
%TO.C,C421*%
X39892164Y-34140000D02*
X40107836Y-34140000D01*
X39892164Y-34860000D02*
X40107836Y-34860000D01*
%TO.C,C315*%
X60359420Y-32490000D02*
X60640580Y-32490000D01*
X60359420Y-33510000D02*
X60640580Y-33510000D01*
%TO.C,C489*%
X50892164Y-18140000D02*
X51107836Y-18140000D01*
X50892164Y-18860000D02*
X51107836Y-18860000D01*
%TO.C,C411*%
X37392164Y-20640000D02*
X37607836Y-20640000D01*
X37392164Y-21360000D02*
X37607836Y-21360000D01*
%TO.C,C312*%
X19859420Y-23490000D02*
X20140580Y-23490000D01*
X19859420Y-24510000D02*
X20140580Y-24510000D01*
%TO.C,C497*%
X31392164Y-36140000D02*
X31607836Y-36140000D01*
X31392164Y-36860000D02*
X31607836Y-36860000D01*
%TO.C,C631*%
X11892164Y-27640000D02*
X12107836Y-27640000D01*
X11892164Y-28360000D02*
X12107836Y-28360000D01*
%TO.C,C416*%
X31892164Y-27140000D02*
X32107836Y-27140000D01*
X31892164Y-27860000D02*
X32107836Y-27860000D01*
%TO.C,R803*%
X61346359Y-26620000D02*
X61653641Y-26620000D01*
X61346359Y-27380000D02*
X61653641Y-27380000D01*
%TO.C,R916*%
X34846359Y-39120000D02*
X35153641Y-39120000D01*
X34846359Y-39880000D02*
X35153641Y-39880000D01*
%TO.C,C417*%
X48359420Y-27490000D02*
X48640580Y-27490000D01*
X48359420Y-28510000D02*
X48640580Y-28510000D01*
%TO.C,R715*%
X3571358Y-29650000D02*
X3878640Y-29650000D01*
X3571358Y-30410000D02*
X3878640Y-30410000D01*
%TO.C,C439*%
X44892164Y-34640000D02*
X45107836Y-34640000D01*
X44892164Y-35360000D02*
X45107836Y-35360000D01*
%TO.C,C702*%
X5892164Y-23640000D02*
X6107836Y-23640000D01*
X5892164Y-24360000D02*
X6107836Y-24360000D01*
%TO.C,R701*%
X63346359Y-14620000D02*
X63653641Y-14620000D01*
X63346359Y-15380000D02*
X63653641Y-15380000D01*
%TO.C,C627*%
X13892164Y-20640000D02*
X14107836Y-20640000D01*
X13892164Y-21360000D02*
X14107836Y-21360000D01*
%TO.C,C434*%
X47392164Y-31640000D02*
X47607836Y-31640000D01*
X47392164Y-32360000D02*
X47607836Y-32360000D01*
%TO.C,C4101*%
X42892164Y-22640000D02*
X43107836Y-22640000D01*
X42892164Y-23360000D02*
X43107836Y-23360000D01*
%TO.C,C4112*%
X34392164Y-23640000D02*
X34607836Y-23640000D01*
X34392164Y-24360000D02*
X34607836Y-24360000D01*
%TO.C,C606*%
X16892164Y-23640000D02*
X17107836Y-23640000D01*
X16892164Y-24360000D02*
X17107836Y-24360000D01*
%TO.C,R502*%
X52346359Y-19620000D02*
X52653641Y-19620000D01*
X52346359Y-20380000D02*
X52653641Y-20380000D01*
%TO.C,R503*%
X52346359Y-31620000D02*
X52653641Y-31620000D01*
X52346359Y-32380000D02*
X52653641Y-32380000D01*
%TO.C,R505*%
X39846359Y-39620000D02*
X40153641Y-39620000D01*
X39846359Y-40380000D02*
X40153641Y-40380000D01*
%TO.C,C4113*%
X34392164Y-27640000D02*
X34607836Y-27640000D01*
X34392164Y-28360000D02*
X34607836Y-28360000D01*
%TO.C,C469*%
X28392164Y-30140000D02*
X28607836Y-30140000D01*
X28392164Y-30860000D02*
X28607836Y-30860000D01*
%TO.C,C624*%
X13892164Y-29140000D02*
X14107836Y-29140000D01*
X13892164Y-29860000D02*
X14107836Y-29860000D01*
%TO.C,C463*%
X49892164Y-31640000D02*
X50107836Y-31640000D01*
X49892164Y-32360000D02*
X50107836Y-32360000D01*
%TO.C,C401*%
X39859420Y-25490000D02*
X40140580Y-25490000D01*
X39859420Y-26510000D02*
X40140580Y-26510000D01*
%TO.C,R804*%
X72846359Y-36120000D02*
X73153641Y-36120000D01*
X72846359Y-36880000D02*
X73153641Y-36880000D01*
%TO.C,C452*%
X29392164Y-28640000D02*
X29607836Y-28640000D01*
X29392164Y-29360000D02*
X29607836Y-29360000D01*
%TO.C,C491*%
X26892164Y-22640000D02*
X27107836Y-22640000D01*
X26892164Y-23360000D02*
X27107836Y-23360000D01*
%TO.C,C460*%
X51392164Y-27140000D02*
X51607836Y-27140000D01*
X51392164Y-27860000D02*
X51607836Y-27860000D01*
%TO.C,R508*%
X27846359Y-18120000D02*
X28153641Y-18120000D01*
X27846359Y-18880000D02*
X28153641Y-18880000D01*
%TO.C,C428*%
X30892164Y-25640000D02*
X31107836Y-25640000D01*
X30892164Y-26360000D02*
X31107836Y-26360000D01*
%TO.C,C406*%
X42892164Y-24140000D02*
X43107836Y-24140000D01*
X42892164Y-24860000D02*
X43107836Y-24860000D01*
%TO.C,R710*%
X58846359Y-17620000D02*
X59153641Y-17620000D01*
X58846359Y-18380000D02*
X59153641Y-18380000D01*
%TO.C,C448*%
X42392164Y-36140000D02*
X42607836Y-36140000D01*
X42392164Y-36860000D02*
X42607836Y-36860000D01*
%TO.C,C402*%
X39859420Y-23490000D02*
X40140580Y-23490000D01*
X39859420Y-24510000D02*
X40140580Y-24510000D01*
%TO.C,C450*%
X29392164Y-22640000D02*
X29607836Y-22640000D01*
X29392164Y-23360000D02*
X29607836Y-23360000D01*
%TO.C,C4129*%
X42392164Y-33140000D02*
X42607836Y-33140000D01*
X42392164Y-33860000D02*
X42607836Y-33860000D01*
%TO.C,C482*%
X49392164Y-16640000D02*
X49607836Y-16640000D01*
X49392164Y-17360000D02*
X49607836Y-17360000D01*
%TO.C,C426*%
X48359420Y-29490000D02*
X48640580Y-29490000D01*
X48359420Y-30510000D02*
X48640580Y-30510000D01*
%TO.C,C419*%
X37392164Y-17640000D02*
X37607836Y-17640000D01*
X37392164Y-18360000D02*
X37607836Y-18360000D01*
%TO.C,C4109*%
X39892164Y-31140000D02*
X40107836Y-31140000D01*
X39892164Y-31860000D02*
X40107836Y-31860000D01*
%TO.C,C621*%
X12859420Y-25490000D02*
X13140580Y-25490000D01*
X12859420Y-26510000D02*
X13140580Y-26510000D01*
%TO.C,C493*%
X26892164Y-28640000D02*
X27107836Y-28640000D01*
X26892164Y-29360000D02*
X27107836Y-29360000D01*
%TO.C,C614*%
X22392164Y-21140000D02*
X22607836Y-21140000D01*
X22392164Y-21860000D02*
X22607836Y-21860000D01*
%TO.C,C620*%
X22392164Y-19640000D02*
X22607836Y-19640000D01*
X22392164Y-20360000D02*
X22607836Y-20360000D01*
%TO.C,C4100*%
X39892164Y-29640000D02*
X40107836Y-29640000D01*
X39892164Y-30360000D02*
X40107836Y-30360000D01*
%TO.C,C610*%
X22892164Y-22640000D02*
X23107836Y-22640000D01*
X22892164Y-23360000D02*
X23107836Y-23360000D01*
%TD*%
%LPC*%
D13*
%TO.C,J101*%
X11110000Y-50205000D03*
X16890000Y-50205000D03*
D14*
X9680000Y-49675000D03*
D15*
X9680000Y-53855000D03*
D14*
X18320000Y-49675000D03*
D15*
X18320000Y-53855000D03*
%TD*%
D16*
%TO.C,J1001*%
X74655000Y-31500000D03*
D17*
X74655000Y-29000000D03*
X74655000Y-27000000D03*
X74655000Y-24500000D03*
X73155000Y-24000000D03*
X73155000Y-26000000D03*
X73155000Y-28000000D03*
X73155000Y-30000000D03*
X73155000Y-32000000D03*
D18*
X73905000Y-34400000D03*
D19*
X82405000Y-34400000D03*
D18*
X73905000Y-21600000D03*
D19*
X82405000Y-21600000D03*
%TD*%
D20*
%TO.C,H1203*%
X1475000Y-52500000D03*
X2068109Y-51068109D03*
X2068109Y-53931891D03*
X3500000Y-50475000D03*
D21*
X3500000Y-52500000D03*
D20*
X3500000Y-54525000D03*
X4931891Y-51068109D03*
X4931891Y-53931891D03*
X5525000Y-52500000D03*
%TD*%
D22*
%TO.C,J501*%
X64000000Y-52600000D03*
D23*
X66540000Y-52600000D03*
X69080000Y-52600000D03*
%TD*%
D20*
%TO.C,H1204*%
X79475000Y-52500000D03*
X80068109Y-51068109D03*
X80068109Y-53931891D03*
X81500000Y-50475000D03*
D21*
X81500000Y-52500000D03*
D20*
X81500000Y-54525000D03*
X82931891Y-51068109D03*
X82931891Y-53931891D03*
X83525000Y-52500000D03*
%TD*%
%TO.C,H1201*%
X1475000Y-3500000D03*
X2068109Y-2068109D03*
X2068109Y-4931891D03*
X3500000Y-1475000D03*
D21*
X3500000Y-3500000D03*
D20*
X3500000Y-5525000D03*
X4931891Y-2068109D03*
X4931891Y-4931891D03*
X5525000Y-3500000D03*
%TD*%
D24*
%TO.C,J901*%
X43250000Y-45900000D03*
X28750000Y-45900000D03*
D25*
X43250000Y-51860000D03*
X28750000Y-51860000D03*
%TD*%
D20*
%TO.C,H1202*%
X79475000Y-3500000D03*
X80068109Y-2068109D03*
X80068109Y-4931891D03*
X81500000Y-1475000D03*
D21*
X81500000Y-3500000D03*
D20*
X81500000Y-5525000D03*
X82931891Y-2068109D03*
X82931891Y-4931891D03*
X83525000Y-3500000D03*
%TD*%
D26*
%TO.C,C628*%
X22020000Y-18500000D03*
X22980000Y-18500000D03*
%TD*%
D27*
%TO.C,R706*%
X60680000Y-12000000D03*
X61320000Y-12000000D03*
%TD*%
D26*
%TO.C,C611*%
X22520000Y-29000000D03*
X23480000Y-29000000D03*
%TD*%
%TO.C,C630*%
X11520000Y-24000000D03*
X12480000Y-24000000D03*
%TD*%
%TO.C,C437*%
X39520000Y-16000000D03*
X40480000Y-16000000D03*
%TD*%
%TO.C,C410*%
X39520000Y-22000000D03*
X40480000Y-22000000D03*
%TD*%
D27*
%TO.C,R703*%
X62680000Y-13500000D03*
X63320000Y-13500000D03*
%TD*%
D26*
%TO.C,C4116*%
X42020000Y-20000000D03*
X42980000Y-20000000D03*
%TD*%
D28*
%TO.C,C316*%
X59725000Y-31000000D03*
X61275000Y-31000000D03*
%TD*%
D26*
%TO.C,C498*%
X28020000Y-33500000D03*
X28980000Y-33500000D03*
%TD*%
%TO.C,C616*%
X25020000Y-26000000D03*
X25980000Y-26000000D03*
%TD*%
%TO.C,C4108*%
X45020000Y-26000000D03*
X45980000Y-26000000D03*
%TD*%
%TO.C,C462*%
X49520000Y-20000000D03*
X50480000Y-20000000D03*
%TD*%
%TO.C,C612*%
X16520000Y-22500000D03*
X17480000Y-22500000D03*
%TD*%
%TO.C,C443*%
X29020000Y-27500000D03*
X29980000Y-27500000D03*
%TD*%
D28*
%TO.C,C602*%
X15725000Y-26000000D03*
X17275000Y-26000000D03*
%TD*%
D26*
%TO.C,C409*%
X36520000Y-28000000D03*
X37480000Y-28000000D03*
%TD*%
%TO.C,C4128*%
X42020000Y-18500000D03*
X42980000Y-18500000D03*
%TD*%
%TO.C,C4123*%
X39520000Y-19000000D03*
X40480000Y-19000000D03*
%TD*%
%TO.C,C4111*%
X45020000Y-27500000D03*
X45980000Y-27500000D03*
%TD*%
%TO.C,C496*%
X30020000Y-16500000D03*
X30980000Y-16500000D03*
%TD*%
%TO.C,C605*%
X22520000Y-27500000D03*
X23480000Y-27500000D03*
%TD*%
%TO.C,C617*%
X14020000Y-24000000D03*
X14980000Y-24000000D03*
%TD*%
%TO.C,C806*%
X61020000Y-37000000D03*
X61980000Y-37000000D03*
%TD*%
%TO.C,C481*%
X44520000Y-38000000D03*
X45480000Y-38000000D03*
%TD*%
%TO.C,C4115*%
X45020000Y-29000000D03*
X45980000Y-29000000D03*
%TD*%
%TO.C,C705*%
X60520000Y-13500000D03*
X61480000Y-13500000D03*
%TD*%
D29*
%TO.C,R504*%
X30990000Y-15000000D03*
X32010000Y-15000000D03*
%TD*%
D30*
%TO.C,H802*%
X35000000Y-33000000D03*
%TD*%
D26*
%TO.C,C468*%
X42020000Y-38000000D03*
X42980000Y-38000000D03*
%TD*%
%TO.C,C495*%
X33520000Y-38000000D03*
X34480000Y-38000000D03*
%TD*%
%TO.C,C625*%
X16020000Y-19500000D03*
X16980000Y-19500000D03*
%TD*%
%TO.C,C414*%
X31520000Y-24500000D03*
X32480000Y-24500000D03*
%TD*%
D28*
%TO.C,C427*%
X44725000Y-18000000D03*
X46275000Y-18000000D03*
%TD*%
D26*
%TO.C,C4105*%
X42020000Y-21500000D03*
X42980000Y-21500000D03*
%TD*%
D29*
%TO.C,R802*%
X60990000Y-38500000D03*
X62010000Y-38500000D03*
%TD*%
D26*
%TO.C,C706*%
X60520000Y-16500000D03*
X61480000Y-16500000D03*
%TD*%
%TO.C,C464*%
X30520000Y-33500000D03*
X31480000Y-33500000D03*
%TD*%
D28*
%TO.C,C436*%
X38725000Y-36500000D03*
X40275000Y-36500000D03*
%TD*%
D29*
%TO.C,R716*%
X19215000Y-37530000D03*
X20235000Y-37530000D03*
%TD*%
D26*
%TO.C,C603*%
X22520000Y-26000000D03*
X23480000Y-26000000D03*
%TD*%
%TO.C,C456*%
X48020000Y-18500000D03*
X48980000Y-18500000D03*
%TD*%
D29*
%TO.C,R712*%
X6715000Y-48030000D03*
X7735000Y-48030000D03*
%TD*%
%TO.C,R601*%
X24490000Y-18500000D03*
X25510000Y-18500000D03*
%TD*%
D28*
%TO.C,C435*%
X36225000Y-16000000D03*
X37775000Y-16000000D03*
%TD*%
D26*
%TO.C,C485*%
X26520000Y-27500000D03*
X27480000Y-27500000D03*
%TD*%
%TO.C,C4124*%
X39520000Y-33000000D03*
X40480000Y-33000000D03*
%TD*%
D27*
%TO.C,C801*%
X70180000Y-33000000D03*
X70820000Y-33000000D03*
%TD*%
D26*
%TO.C,C608*%
X19520000Y-22000000D03*
X20480000Y-22000000D03*
%TD*%
D27*
%TO.C,R708*%
X58680000Y-12500000D03*
X59320000Y-12500000D03*
%TD*%
D26*
%TO.C,C619*%
X16020000Y-21000000D03*
X16980000Y-21000000D03*
%TD*%
%TO.C,C422*%
X31520000Y-23000000D03*
X32480000Y-23000000D03*
%TD*%
%TO.C,C438*%
X30520000Y-30500000D03*
X31480000Y-30500000D03*
%TD*%
D29*
%TO.C,R1002*%
X33490000Y-13500000D03*
X34510000Y-13500000D03*
%TD*%
D26*
%TO.C,C4121*%
X44520000Y-30500000D03*
X45480000Y-30500000D03*
%TD*%
%TO.C,C632*%
X17020000Y-18000000D03*
X17980000Y-18000000D03*
%TD*%
%TO.C,C499*%
X47020000Y-37500000D03*
X47980000Y-37500000D03*
%TD*%
%TO.C,C454*%
X49520000Y-21500000D03*
X50480000Y-21500000D03*
%TD*%
%TO.C,C457*%
X39520000Y-14500000D03*
X40480000Y-14500000D03*
%TD*%
D29*
%TO.C,R713*%
X4215000Y-48030000D03*
X5235000Y-48030000D03*
%TD*%
D28*
%TO.C,C418*%
X33725000Y-19000000D03*
X35275000Y-19000000D03*
%TD*%
D26*
%TO.C,C4117*%
X33020000Y-26000000D03*
X33980000Y-26000000D03*
%TD*%
%TO.C,C484*%
X52520000Y-24500000D03*
X53480000Y-24500000D03*
%TD*%
%TO.C,C476*%
X28520000Y-20000000D03*
X29480000Y-20000000D03*
%TD*%
D29*
%TO.C,R510*%
X53490000Y-29000000D03*
X54510000Y-29000000D03*
%TD*%
D26*
%TO.C,C455*%
X36020000Y-36500000D03*
X36980000Y-36500000D03*
%TD*%
%TO.C,C626*%
X24520000Y-20000000D03*
X25480000Y-20000000D03*
%TD*%
%TO.C,C480*%
X52520000Y-26000000D03*
X53480000Y-26000000D03*
%TD*%
%TO.C,C441*%
X29020000Y-24500000D03*
X29980000Y-24500000D03*
%TD*%
%TO.C,C4114*%
X45020000Y-23000000D03*
X45980000Y-23000000D03*
%TD*%
%TO.C,C440*%
X50020000Y-26000000D03*
X50980000Y-26000000D03*
%TD*%
D28*
%TO.C,C804*%
X59725000Y-29000000D03*
X61275000Y-29000000D03*
%TD*%
D26*
%TO.C,C487*%
X27020000Y-21500000D03*
X27980000Y-21500000D03*
%TD*%
%TO.C,C472*%
X47020000Y-36000000D03*
X47980000Y-36000000D03*
%TD*%
%TO.C,C479*%
X39520000Y-13000000D03*
X40480000Y-13000000D03*
%TD*%
D27*
%TO.C,R705*%
X62680000Y-16500000D03*
X63320000Y-16500000D03*
%TD*%
D28*
%TO.C,C445*%
X47225000Y-34000000D03*
X48775000Y-34000000D03*
%TD*%
D26*
%TO.C,C4110*%
X45020000Y-24500000D03*
X45980000Y-24500000D03*
%TD*%
D28*
%TO.C,C311*%
X19225000Y-26000000D03*
X20775000Y-26000000D03*
%TD*%
D26*
%TO.C,C4127*%
X44520000Y-32000000D03*
X45480000Y-32000000D03*
%TD*%
D29*
%TO.C,R509*%
X48990000Y-15500000D03*
X50010000Y-15500000D03*
%TD*%
D28*
%TO.C,C459*%
X45725000Y-16000000D03*
X47275000Y-16000000D03*
%TD*%
D26*
%TO.C,C607*%
X16520000Y-28000000D03*
X17480000Y-28000000D03*
%TD*%
%TO.C,C805*%
X70020000Y-36500000D03*
X70980000Y-36500000D03*
%TD*%
D29*
%TO.C,R711*%
X8715000Y-30030000D03*
X9735000Y-30030000D03*
%TD*%
D26*
%TO.C,C604*%
X22520000Y-24500000D03*
X23480000Y-24500000D03*
%TD*%
%TO.C,C453*%
X29520000Y-21500000D03*
X30480000Y-21500000D03*
%TD*%
%TO.C,C4120*%
X44520000Y-21500000D03*
X45480000Y-21500000D03*
%TD*%
D28*
%TO.C,C444*%
X32725000Y-17000000D03*
X34275000Y-17000000D03*
%TD*%
D26*
%TO.C,C4118*%
X42020000Y-32000000D03*
X42980000Y-32000000D03*
%TD*%
%TO.C,C709*%
X9020000Y-27000000D03*
X9980000Y-27000000D03*
%TD*%
D29*
%TO.C,R602*%
X10990000Y-29500000D03*
X12010000Y-29500000D03*
%TD*%
D26*
%TO.C,C4125*%
X34520000Y-21000000D03*
X35480000Y-21000000D03*
%TD*%
%TO.C,C407*%
X42520000Y-27500000D03*
X43480000Y-27500000D03*
%TD*%
%TO.C,C486*%
X42020000Y-13000000D03*
X42980000Y-13000000D03*
%TD*%
%TO.C,C629*%
X19520000Y-18000000D03*
X20480000Y-18000000D03*
%TD*%
%TO.C,C477*%
X30520000Y-35000000D03*
X31480000Y-35000000D03*
%TD*%
%TO.C,C420*%
X39520000Y-17500000D03*
X40480000Y-17500000D03*
%TD*%
D28*
%TO.C,C601*%
X19225000Y-28000000D03*
X20775000Y-28000000D03*
%TD*%
D26*
%TO.C,C4119*%
X34020000Y-22500000D03*
X34980000Y-22500000D03*
%TD*%
D30*
%TO.C,H801*%
X23000000Y-33000000D03*
%TD*%
D26*
%TO.C,C474*%
X39520000Y-38500000D03*
X40480000Y-38500000D03*
%TD*%
%TO.C,C703*%
X5520000Y-30000000D03*
X6480000Y-30000000D03*
%TD*%
%TO.C,C622*%
X14020000Y-22500000D03*
X14980000Y-22500000D03*
%TD*%
D28*
%TO.C,C708*%
X2225000Y-24000000D03*
X3775000Y-24000000D03*
%TD*%
D27*
%TO.C,R702*%
X58680000Y-13500000D03*
X59320000Y-13500000D03*
%TD*%
D26*
%TO.C,C613*%
X16020000Y-29500000D03*
X16980000Y-29500000D03*
%TD*%
%TO.C,C431*%
X42020000Y-17000000D03*
X42980000Y-17000000D03*
%TD*%
%TO.C,C405*%
X42520000Y-26000000D03*
X43480000Y-26000000D03*
%TD*%
%TO.C,C609*%
X18520000Y-30000000D03*
X19480000Y-30000000D03*
%TD*%
%TO.C,C461*%
X44520000Y-36500000D03*
X45480000Y-36500000D03*
%TD*%
%TO.C,C503*%
X37020000Y-39500000D03*
X37980000Y-39500000D03*
%TD*%
%TO.C,C433*%
X47020000Y-20000000D03*
X47980000Y-20000000D03*
%TD*%
D28*
%TO.C,C446*%
X42225000Y-15000000D03*
X43775000Y-15000000D03*
%TD*%
%TO.C,C803*%
X59725000Y-35000000D03*
X61275000Y-35000000D03*
%TD*%
D26*
%TO.C,C504*%
X42020000Y-39500000D03*
X42980000Y-39500000D03*
%TD*%
D27*
%TO.C,R704*%
X58680000Y-16500000D03*
X59320000Y-16500000D03*
%TD*%
D26*
%TO.C,C470*%
X51020000Y-30500000D03*
X51980000Y-30500000D03*
%TD*%
D28*
%TO.C,C404*%
X35725000Y-26000000D03*
X37275000Y-26000000D03*
%TD*%
D26*
%TO.C,C490*%
X50520000Y-33500000D03*
X51480000Y-33500000D03*
%TD*%
%TO.C,C447*%
X31020000Y-19500000D03*
X31980000Y-19500000D03*
%TD*%
%TO.C,C432*%
X42020000Y-35000000D03*
X42980000Y-35000000D03*
%TD*%
D29*
%TO.C,R506*%
X53490000Y-27500000D03*
X54510000Y-27500000D03*
%TD*%
D27*
%TO.C,C802*%
X70180000Y-32000000D03*
X70820000Y-32000000D03*
%TD*%
D26*
%TO.C,C634*%
X13520000Y-19500000D03*
X14480000Y-19500000D03*
%TD*%
D29*
%TO.C,R507*%
X49490000Y-36000000D03*
X50510000Y-36000000D03*
%TD*%
D26*
%TO.C,C473*%
X36020000Y-38000000D03*
X36980000Y-38000000D03*
%TD*%
%TO.C,C4104*%
X36520000Y-29500000D03*
X37480000Y-29500000D03*
%TD*%
%TO.C,C442*%
X50020000Y-24500000D03*
X50980000Y-24500000D03*
%TD*%
%TO.C,C488*%
X52020000Y-21500000D03*
X52980000Y-21500000D03*
%TD*%
%TO.C,C4122*%
X37020000Y-19500000D03*
X37980000Y-19500000D03*
%TD*%
D27*
%TO.C,R707*%
X60680000Y-18000000D03*
X61320000Y-18000000D03*
%TD*%
D26*
%TO.C,C458*%
X28020000Y-26000000D03*
X28980000Y-26000000D03*
%TD*%
%TO.C,C494*%
X45520000Y-14000000D03*
X46480000Y-14000000D03*
%TD*%
D31*
%TO.C,J701*%
X16950000Y-36255000D03*
X16950000Y-37355000D03*
X16950000Y-38455000D03*
X16950000Y-39555000D03*
X16950000Y-40655000D03*
X16950000Y-41755000D03*
X16950000Y-42855000D03*
X16950000Y-43955000D03*
X16950000Y-44905000D03*
D32*
X6450000Y-45855000D03*
D33*
X2300000Y-45855000D03*
D34*
X12650000Y-45855000D03*
X16950000Y-34705000D03*
D35*
X1850000Y-32355000D03*
%TD*%
D26*
%TO.C,C4102*%
X42520000Y-29000000D03*
X43480000Y-29000000D03*
%TD*%
%TO.C,C4126*%
X44520000Y-20000000D03*
X45480000Y-20000000D03*
%TD*%
%TO.C,C483*%
X26520000Y-24500000D03*
X27480000Y-24500000D03*
%TD*%
D28*
%TO.C,C615*%
X18725000Y-20000000D03*
X20275000Y-20000000D03*
%TD*%
D26*
%TO.C,C466*%
X33520000Y-36500000D03*
X34480000Y-36500000D03*
%TD*%
D36*
%TO.C,U702*%
X7137500Y-26050000D03*
X7137500Y-27000000D03*
X7137500Y-27950000D03*
X4862500Y-27950000D03*
X4862500Y-26050000D03*
%TD*%
D26*
%TO.C,C623*%
X24520000Y-21500000D03*
X25480000Y-21500000D03*
%TD*%
%TO.C,C478*%
X28020000Y-32000000D03*
X28980000Y-32000000D03*
%TD*%
%TO.C,C4103*%
X36520000Y-22500000D03*
X37480000Y-22500000D03*
%TD*%
%TO.C,C425*%
X47020000Y-21500000D03*
X47980000Y-21500000D03*
%TD*%
%TO.C,C4106*%
X42020000Y-30500000D03*
X42980000Y-30500000D03*
%TD*%
D37*
%TO.C,J801*%
X67350000Y-42250000D03*
X64650000Y-42000000D03*
X67350000Y-41750000D03*
X64650000Y-41500000D03*
X67350000Y-41250000D03*
X64650000Y-41000000D03*
X67350000Y-40750000D03*
X64650000Y-40500000D03*
X67350000Y-40250000D03*
X64650000Y-40000000D03*
X67350000Y-39750000D03*
X64650000Y-39500000D03*
X67350000Y-39250000D03*
X64650000Y-39000000D03*
X67350000Y-38750000D03*
X64650000Y-38500000D03*
X67350000Y-38250000D03*
X64650000Y-38000000D03*
X67350000Y-37750000D03*
X64650000Y-37500000D03*
X67350000Y-37250000D03*
X64650000Y-37000000D03*
X67350000Y-36750000D03*
X64650000Y-36500000D03*
X67350000Y-36250000D03*
X64650000Y-36000000D03*
X67350000Y-35750000D03*
X64650000Y-35500000D03*
X67350000Y-35250000D03*
X64650000Y-35000000D03*
X67350000Y-34750000D03*
X64650000Y-34500000D03*
X67350000Y-34250000D03*
X64650000Y-34000000D03*
X67350000Y-33750000D03*
X64650000Y-33500000D03*
X67350000Y-33250000D03*
X64650000Y-33000000D03*
X67350000Y-32750000D03*
X64650000Y-32500000D03*
X67350000Y-32250000D03*
X64650000Y-32000000D03*
X67350000Y-31750000D03*
X64650000Y-31500000D03*
X67350000Y-31250000D03*
X64650000Y-31000000D03*
X67350000Y-30750000D03*
X64650000Y-30500000D03*
X67350000Y-30250000D03*
X64650000Y-30000000D03*
X67350000Y-29750000D03*
X64650000Y-29500000D03*
X67350000Y-29250000D03*
X64650000Y-29000000D03*
X67350000Y-28750000D03*
X64650000Y-28500000D03*
X67350000Y-28250000D03*
X64650000Y-28000000D03*
X67350000Y-25750000D03*
X64650000Y-25500000D03*
X67350000Y-25250000D03*
X64650000Y-25000000D03*
X67350000Y-24750000D03*
X64650000Y-24500000D03*
X67350000Y-24250000D03*
X64650000Y-24000000D03*
X67350000Y-23750000D03*
D38*
X66000000Y-44600000D03*
X66000000Y-21400000D03*
%TD*%
D26*
%TO.C,C475*%
X33520000Y-15000000D03*
X34480000Y-15000000D03*
%TD*%
%TO.C,C492*%
X52520000Y-23000000D03*
X53480000Y-23000000D03*
%TD*%
%TO.C,C429*%
X32020000Y-21000000D03*
X32980000Y-21000000D03*
%TD*%
%TO.C,C465*%
X51020000Y-29000000D03*
X51980000Y-29000000D03*
%TD*%
%TO.C,C618*%
X14020000Y-28000000D03*
X14980000Y-28000000D03*
%TD*%
D28*
%TO.C,C403*%
X39225000Y-28000000D03*
X40775000Y-28000000D03*
%TD*%
D26*
%TO.C,C413*%
X47520000Y-26000000D03*
X48480000Y-26000000D03*
%TD*%
D29*
%TO.C,R714*%
X19215000Y-39030000D03*
X20235000Y-39030000D03*
%TD*%
D26*
%TO.C,C412*%
X34020000Y-29500000D03*
X34980000Y-29500000D03*
%TD*%
D28*
%TO.C,C467*%
X36225000Y-14000000D03*
X37775000Y-14000000D03*
%TD*%
D26*
%TO.C,C704*%
X2020000Y-27000000D03*
X2980000Y-27000000D03*
%TD*%
%TO.C,C449*%
X30520000Y-32000000D03*
X31480000Y-32000000D03*
%TD*%
%TO.C,C415*%
X47520000Y-24500000D03*
X48480000Y-24500000D03*
%TD*%
%TO.C,C423*%
X47520000Y-23000000D03*
X48480000Y-23000000D03*
%TD*%
D27*
%TO.C,R709*%
X62680000Y-12500000D03*
X63320000Y-12500000D03*
%TD*%
D26*
%TO.C,C430*%
X44520000Y-33500000D03*
X45480000Y-33500000D03*
%TD*%
%TO.C,C424*%
X31520000Y-29000000D03*
X32480000Y-29000000D03*
%TD*%
D29*
%TO.C,R801*%
X69990000Y-38000000D03*
X71010000Y-38000000D03*
%TD*%
D26*
%TO.C,C633*%
X11520000Y-22500000D03*
X12480000Y-22500000D03*
%TD*%
%TO.C,C408*%
X36520000Y-24000000D03*
X37480000Y-24000000D03*
%TD*%
%TO.C,C451*%
X50020000Y-23000000D03*
X50980000Y-23000000D03*
%TD*%
%TO.C,C471*%
X30020000Y-18000000D03*
X30980000Y-18000000D03*
%TD*%
%TO.C,C707*%
X58020000Y-15000000D03*
X58980000Y-15000000D03*
%TD*%
%TO.C,C701*%
X60520000Y-15000000D03*
X61480000Y-15000000D03*
%TD*%
%TO.C,C4107*%
X39520000Y-20500000D03*
X40480000Y-20500000D03*
%TD*%
%TO.C,C421*%
X39520000Y-34500000D03*
X40480000Y-34500000D03*
%TD*%
D28*
%TO.C,C315*%
X59725000Y-33000000D03*
X61275000Y-33000000D03*
%TD*%
D26*
%TO.C,C489*%
X50520000Y-18500000D03*
X51480000Y-18500000D03*
%TD*%
%TO.C,C411*%
X37020000Y-21000000D03*
X37980000Y-21000000D03*
%TD*%
D28*
%TO.C,C312*%
X19225000Y-24000000D03*
X20775000Y-24000000D03*
%TD*%
D26*
%TO.C,C497*%
X31020000Y-36500000D03*
X31980000Y-36500000D03*
%TD*%
%TO.C,C631*%
X11520000Y-28000000D03*
X12480000Y-28000000D03*
%TD*%
%TO.C,C416*%
X31520000Y-27500000D03*
X32480000Y-27500000D03*
%TD*%
D29*
%TO.C,R803*%
X60990000Y-27000000D03*
X62010000Y-27000000D03*
%TD*%
%TO.C,R916*%
X34490000Y-39500000D03*
X35510000Y-39500000D03*
%TD*%
D28*
%TO.C,C417*%
X47725000Y-28000000D03*
X49275000Y-28000000D03*
%TD*%
D29*
%TO.C,R715*%
X3214999Y-30030000D03*
X4234999Y-30030000D03*
%TD*%
D26*
%TO.C,C439*%
X44520000Y-35000000D03*
X45480000Y-35000000D03*
%TD*%
%TO.C,C702*%
X5520000Y-24000000D03*
X6480000Y-24000000D03*
%TD*%
D29*
%TO.C,R701*%
X62990000Y-15000000D03*
X64010000Y-15000000D03*
%TD*%
D26*
%TO.C,C627*%
X13520000Y-21000000D03*
X14480000Y-21000000D03*
%TD*%
%TO.C,C434*%
X47020000Y-32000000D03*
X47980000Y-32000000D03*
%TD*%
%TO.C,C4101*%
X42520000Y-23000000D03*
X43480000Y-23000000D03*
%TD*%
%TO.C,C4112*%
X34020000Y-24000000D03*
X34980000Y-24000000D03*
%TD*%
%TO.C,C606*%
X16520000Y-24000000D03*
X17480000Y-24000000D03*
%TD*%
D29*
%TO.C,R502*%
X51990000Y-20000000D03*
X53010000Y-20000000D03*
%TD*%
%TO.C,R503*%
X51990000Y-32000000D03*
X53010000Y-32000000D03*
%TD*%
%TO.C,R505*%
X39490000Y-40000000D03*
X40510000Y-40000000D03*
%TD*%
D26*
%TO.C,C4113*%
X34020000Y-28000000D03*
X34980000Y-28000000D03*
%TD*%
%TO.C,C469*%
X28020000Y-30500000D03*
X28980000Y-30500000D03*
%TD*%
%TO.C,C624*%
X13520000Y-29500000D03*
X14480000Y-29500000D03*
%TD*%
%TO.C,C463*%
X49520000Y-32000000D03*
X50480000Y-32000000D03*
%TD*%
D28*
%TO.C,C401*%
X39225000Y-26000000D03*
X40775000Y-26000000D03*
%TD*%
D29*
%TO.C,R804*%
X72490000Y-36500000D03*
X73510000Y-36500000D03*
%TD*%
D26*
%TO.C,C452*%
X29020000Y-29000000D03*
X29980000Y-29000000D03*
%TD*%
%TO.C,C491*%
X26520000Y-23000000D03*
X27480000Y-23000000D03*
%TD*%
%TO.C,C460*%
X51020000Y-27500000D03*
X51980000Y-27500000D03*
%TD*%
D29*
%TO.C,R508*%
X27490000Y-18500000D03*
X28510000Y-18500000D03*
%TD*%
D26*
%TO.C,C428*%
X30520000Y-26000000D03*
X31480000Y-26000000D03*
%TD*%
%TO.C,C406*%
X42520000Y-24500000D03*
X43480000Y-24500000D03*
%TD*%
D29*
%TO.C,R710*%
X58490000Y-18000000D03*
X59510000Y-18000000D03*
%TD*%
D26*
%TO.C,C448*%
X42020000Y-36500000D03*
X42980000Y-36500000D03*
%TD*%
D28*
%TO.C,C402*%
X39225000Y-24000000D03*
X40775000Y-24000000D03*
%TD*%
D26*
%TO.C,C450*%
X29020000Y-23000000D03*
X29980000Y-23000000D03*
%TD*%
%TO.C,C4129*%
X42020000Y-33500000D03*
X42980000Y-33500000D03*
%TD*%
%TO.C,C482*%
X49020000Y-17000000D03*
X49980000Y-17000000D03*
%TD*%
D28*
%TO.C,C426*%
X47725000Y-30000000D03*
X49275000Y-30000000D03*
%TD*%
D26*
%TO.C,C419*%
X37020000Y-18000000D03*
X37980000Y-18000000D03*
%TD*%
%TO.C,C4109*%
X39520000Y-31500000D03*
X40480000Y-31500000D03*
%TD*%
D28*
%TO.C,C621*%
X12225000Y-26000000D03*
X13775000Y-26000000D03*
%TD*%
D26*
%TO.C,C493*%
X26520000Y-29000000D03*
X27480000Y-29000000D03*
%TD*%
%TO.C,C614*%
X22020000Y-21500000D03*
X22980000Y-21500000D03*
%TD*%
%TO.C,C620*%
X22020000Y-20000000D03*
X22980000Y-20000000D03*
%TD*%
%TO.C,C4100*%
X39520000Y-30000000D03*
X40480000Y-30000000D03*
%TD*%
%TO.C,C610*%
X22520000Y-23000000D03*
X23480000Y-23000000D03*
%TD*%
%LPD*%
M02*
