%TF.GenerationSoftware,KiCad,Pcbnew,9.0.9-9.0.9~ubuntu24.04.1*%
%TF.CreationDate,2026-10-06T12:06:27+00:00*%
%TF.ProjectId,rk3576-sbc,726b3335-3736-42d7-9362-632e6b696361,rev?*%
%TF.SameCoordinates,Original*%
%TF.FileFunction,Legend,Bot*%
%TF.FilePolarity,Positive*%
%FSLAX46Y46*%
G04 Gerber Fmt 4.6, Leading zero omitted, Abs format (unit mm)*
G04 Created by KiCad (PCBNEW 9.0.9-9.0.9~ubuntu24.04.1) date 2026-10-06 12:06:27*
%MOMM*%
%LPD*%
G01*
G04 APERTURE LIST*
G04 Aperture macros list*
%AMRoundRect*
0 Rectangle with rounded corners*
0 $1 Rounding radius*
0 $2 $3 $4 $5 $6 $7 $8 $9 X,Y pos of 4 corners*
0 Add a 4 corners polygon primitive as box body*
4,1,4,$2,$3,$4,$5,$6,$7,$8,$9,$2,$3,0*
0 Add four circle primitives for the rounded corners*
1,1,$1+$1,$2,$3*
1,1,$1+$1,$4,$5*
1,1,$1+$1,$6,$7*
1,1,$1+$1,$8,$9*
0 Add four rect primitives between the rounded corners*
20,1,$1+$1,$2,$3,$4,$5,0*
20,1,$1+$1,$4,$5,$6,$7,0*
20,1,$1+$1,$6,$7,$8,$9,0*
20,1,$1+$1,$8,$9,$2,$3,0*%
G04 Aperture macros list end*
%ADD10C,0.120000*%
%ADD11C,0.135000*%
%ADD12C,0.150000*%
%ADD13C,0.800000*%
%ADD14C,5.400000*%
%ADD15C,0.650000*%
%ADD16O,1.000000X2.100000*%
%ADD17O,1.000000X1.600000*%
%ADD18O,1.500000X3.300000*%
%ADD19O,1.500000X2.300000*%
%ADD20C,3.250000*%
%ADD21C,1.700000*%
%ADD22R,1.524000X1.524000*%
%ADD23C,1.524000*%
%ADD24C,2.159000*%
%ADD25R,1.700000X1.700000*%
%ADD26RoundRect,0.250000X0.350000X-0.350000X0.350000X0.350000X-0.350000X0.350000X-0.350000X-0.350000X0*%
%ADD27C,1.200000*%
%ADD28O,2.400000X1.200000*%
%ADD29O,2.100000X1.200000*%
%ADD30R,1.500000X1.500000*%
%ADD31C,1.500000*%
%ADD32C,3.500000*%
%ADD33RoundRect,0.140000X-0.140000X-0.170000X0.140000X-0.170000X0.140000X0.170000X-0.140000X0.170000X0*%
%ADD34RoundRect,0.135000X-0.135000X-0.185000X0.135000X-0.185000X0.135000X0.185000X-0.135000X0.185000X0*%
%ADD35RoundRect,0.100000X-0.130000X-0.100000X0.130000X-0.100000X0.130000X0.100000X-0.130000X0.100000X0*%
%ADD36RoundRect,0.225000X-0.225000X-0.250000X0.225000X-0.250000X0.225000X0.250000X-0.225000X0.250000X0*%
%ADD37R,1.200000X0.300000*%
%ADD38R,2.600000X1.400000*%
%ADD39C,4.000000*%
%ADD40R,1.200000X0.700000*%
%ADD41R,0.800000X1.000000*%
%ADD42R,2.800000X1.000000*%
%ADD43R,1.200000X1.000000*%
%ADD44R,1.900000X1.300000*%
%ADD45RoundRect,0.150000X0.512500X0.150000X-0.512500X0.150000X-0.512500X-0.150000X0.512500X-0.150000X0*%
G04 APERTURE END LIST*
D10*
X9363855Y-47733333D02*
X8830521Y-47733333D01*
X8906712Y-47733333D02*
X8868617Y-47771428D01*
X8868617Y-47771428D02*
X8830521Y-47847618D01*
X8830521Y-47847618D02*
X8830521Y-47961904D01*
X8830521Y-47961904D02*
X8868617Y-48038095D01*
X8868617Y-48038095D02*
X8944807Y-48076190D01*
X8944807Y-48076190D02*
X9363855Y-48076190D01*
X8944807Y-48076190D02*
X8868617Y-48114285D01*
X8868617Y-48114285D02*
X8830521Y-48190476D01*
X8830521Y-48190476D02*
X8830521Y-48304761D01*
X8830521Y-48304761D02*
X8868617Y-48380952D01*
X8868617Y-48380952D02*
X8944807Y-48419047D01*
X8944807Y-48419047D02*
X9363855Y-48419047D01*
X9363855Y-48800000D02*
X8830521Y-48800000D01*
X8563855Y-48800000D02*
X8601950Y-48761904D01*
X8601950Y-48761904D02*
X8640045Y-48800000D01*
X8640045Y-48800000D02*
X8601950Y-48838095D01*
X8601950Y-48838095D02*
X8563855Y-48800000D01*
X8563855Y-48800000D02*
X8640045Y-48800000D01*
X9325760Y-49523809D02*
X9363855Y-49447618D01*
X9363855Y-49447618D02*
X9363855Y-49295237D01*
X9363855Y-49295237D02*
X9325760Y-49219047D01*
X9325760Y-49219047D02*
X9287664Y-49180952D01*
X9287664Y-49180952D02*
X9211474Y-49142856D01*
X9211474Y-49142856D02*
X8982902Y-49142856D01*
X8982902Y-49142856D02*
X8906712Y-49180952D01*
X8906712Y-49180952D02*
X8868617Y-49219047D01*
X8868617Y-49219047D02*
X8830521Y-49295237D01*
X8830521Y-49295237D02*
X8830521Y-49447618D01*
X8830521Y-49447618D02*
X8868617Y-49523809D01*
X9363855Y-49866666D02*
X8830521Y-49866666D01*
X8982902Y-49866666D02*
X8906712Y-49904761D01*
X8906712Y-49904761D02*
X8868617Y-49942856D01*
X8868617Y-49942856D02*
X8830521Y-50019047D01*
X8830521Y-50019047D02*
X8830521Y-50095237D01*
X9363855Y-50476189D02*
X9325760Y-50399999D01*
X9325760Y-50399999D02*
X9287664Y-50361904D01*
X9287664Y-50361904D02*
X9211474Y-50323808D01*
X9211474Y-50323808D02*
X8982902Y-50323808D01*
X8982902Y-50323808D02*
X8906712Y-50361904D01*
X8906712Y-50361904D02*
X8868617Y-50399999D01*
X8868617Y-50399999D02*
X8830521Y-50476189D01*
X8830521Y-50476189D02*
X8830521Y-50590475D01*
X8830521Y-50590475D02*
X8868617Y-50666666D01*
X8868617Y-50666666D02*
X8906712Y-50704761D01*
X8906712Y-50704761D02*
X8982902Y-50742856D01*
X8982902Y-50742856D02*
X9211474Y-50742856D01*
X9211474Y-50742856D02*
X9287664Y-50704761D01*
X9287664Y-50704761D02*
X9325760Y-50666666D01*
X9325760Y-50666666D02*
X9363855Y-50590475D01*
X9363855Y-50590475D02*
X9363855Y-50476189D01*
X9325760Y-51047618D02*
X9363855Y-51161904D01*
X9363855Y-51161904D02*
X9363855Y-51352380D01*
X9363855Y-51352380D02*
X9325760Y-51428571D01*
X9325760Y-51428571D02*
X9287664Y-51466666D01*
X9287664Y-51466666D02*
X9211474Y-51504761D01*
X9211474Y-51504761D02*
X9135283Y-51504761D01*
X9135283Y-51504761D02*
X9059093Y-51466666D01*
X9059093Y-51466666D02*
X9020998Y-51428571D01*
X9020998Y-51428571D02*
X8982902Y-51352380D01*
X8982902Y-51352380D02*
X8944807Y-51199999D01*
X8944807Y-51199999D02*
X8906712Y-51123809D01*
X8906712Y-51123809D02*
X8868617Y-51085714D01*
X8868617Y-51085714D02*
X8792426Y-51047618D01*
X8792426Y-51047618D02*
X8716236Y-51047618D01*
X8716236Y-51047618D02*
X8640045Y-51085714D01*
X8640045Y-51085714D02*
X8601950Y-51123809D01*
X8601950Y-51123809D02*
X8563855Y-51199999D01*
X8563855Y-51199999D02*
X8563855Y-51390476D01*
X8563855Y-51390476D02*
X8601950Y-51504761D01*
X9363855Y-51847619D02*
X8563855Y-51847619D01*
X8563855Y-51847619D02*
X8563855Y-52038095D01*
X8563855Y-52038095D02*
X8601950Y-52152381D01*
X8601950Y-52152381D02*
X8678140Y-52228571D01*
X8678140Y-52228571D02*
X8754331Y-52266666D01*
X8754331Y-52266666D02*
X8906712Y-52304762D01*
X8906712Y-52304762D02*
X9020998Y-52304762D01*
X9020998Y-52304762D02*
X9173379Y-52266666D01*
X9173379Y-52266666D02*
X9249569Y-52228571D01*
X9249569Y-52228571D02*
X9325760Y-52152381D01*
X9325760Y-52152381D02*
X9363855Y-52038095D01*
X9363855Y-52038095D02*
X9363855Y-51847619D01*
D11*
X65285714Y-57909337D02*
X65285714Y-57009337D01*
X65285714Y-57009337D02*
X64985714Y-57652194D01*
X64985714Y-57652194D02*
X64685714Y-57009337D01*
X64685714Y-57009337D02*
X64685714Y-57909337D01*
X64257143Y-57823622D02*
X64214286Y-57866480D01*
X64214286Y-57866480D02*
X64257143Y-57909337D01*
X64257143Y-57909337D02*
X64300000Y-57866480D01*
X64300000Y-57866480D02*
X64257143Y-57823622D01*
X64257143Y-57823622D02*
X64257143Y-57909337D01*
X63871429Y-57095051D02*
X63828572Y-57052194D01*
X63828572Y-57052194D02*
X63742858Y-57009337D01*
X63742858Y-57009337D02*
X63528572Y-57009337D01*
X63528572Y-57009337D02*
X63442858Y-57052194D01*
X63442858Y-57052194D02*
X63400000Y-57095051D01*
X63400000Y-57095051D02*
X63357143Y-57180765D01*
X63357143Y-57180765D02*
X63357143Y-57266480D01*
X63357143Y-57266480D02*
X63400000Y-57395051D01*
X63400000Y-57395051D02*
X63914286Y-57909337D01*
X63914286Y-57909337D02*
X63357143Y-57909337D01*
X62328572Y-57095051D02*
X62285715Y-57052194D01*
X62285715Y-57052194D02*
X62200001Y-57009337D01*
X62200001Y-57009337D02*
X61985715Y-57009337D01*
X61985715Y-57009337D02*
X61900001Y-57052194D01*
X61900001Y-57052194D02*
X61857143Y-57095051D01*
X61857143Y-57095051D02*
X61814286Y-57180765D01*
X61814286Y-57180765D02*
X61814286Y-57266480D01*
X61814286Y-57266480D02*
X61857143Y-57395051D01*
X61857143Y-57395051D02*
X62371429Y-57909337D01*
X62371429Y-57909337D02*
X61814286Y-57909337D01*
X61471429Y-57095051D02*
X61428572Y-57052194D01*
X61428572Y-57052194D02*
X61342858Y-57009337D01*
X61342858Y-57009337D02*
X61128572Y-57009337D01*
X61128572Y-57009337D02*
X61042858Y-57052194D01*
X61042858Y-57052194D02*
X61000000Y-57095051D01*
X61000000Y-57095051D02*
X60957143Y-57180765D01*
X60957143Y-57180765D02*
X60957143Y-57266480D01*
X60957143Y-57266480D02*
X61000000Y-57395051D01*
X61000000Y-57395051D02*
X61514286Y-57909337D01*
X61514286Y-57909337D02*
X60957143Y-57909337D01*
X60657143Y-57009337D02*
X60100000Y-57009337D01*
X60100000Y-57009337D02*
X60400000Y-57352194D01*
X60400000Y-57352194D02*
X60271429Y-57352194D01*
X60271429Y-57352194D02*
X60185715Y-57395051D01*
X60185715Y-57395051D02*
X60142857Y-57437908D01*
X60142857Y-57437908D02*
X60100000Y-57523622D01*
X60100000Y-57523622D02*
X60100000Y-57737908D01*
X60100000Y-57737908D02*
X60142857Y-57823622D01*
X60142857Y-57823622D02*
X60185715Y-57866480D01*
X60185715Y-57866480D02*
X60271429Y-57909337D01*
X60271429Y-57909337D02*
X60528572Y-57909337D01*
X60528572Y-57909337D02*
X60614286Y-57866480D01*
X60614286Y-57866480D02*
X60657143Y-57823622D01*
X59542857Y-57009337D02*
X59457143Y-57009337D01*
X59457143Y-57009337D02*
X59371429Y-57052194D01*
X59371429Y-57052194D02*
X59328572Y-57095051D01*
X59328572Y-57095051D02*
X59285714Y-57180765D01*
X59285714Y-57180765D02*
X59242857Y-57352194D01*
X59242857Y-57352194D02*
X59242857Y-57566480D01*
X59242857Y-57566480D02*
X59285714Y-57737908D01*
X59285714Y-57737908D02*
X59328572Y-57823622D01*
X59328572Y-57823622D02*
X59371429Y-57866480D01*
X59371429Y-57866480D02*
X59457143Y-57909337D01*
X59457143Y-57909337D02*
X59542857Y-57909337D01*
X59542857Y-57909337D02*
X59628572Y-57866480D01*
X59628572Y-57866480D02*
X59671429Y-57823622D01*
X59671429Y-57823622D02*
X59714286Y-57737908D01*
X59714286Y-57737908D02*
X59757143Y-57566480D01*
X59757143Y-57566480D02*
X59757143Y-57352194D01*
X59757143Y-57352194D02*
X59714286Y-57180765D01*
X59714286Y-57180765D02*
X59671429Y-57095051D01*
X59671429Y-57095051D02*
X59628572Y-57052194D01*
X59628572Y-57052194D02*
X59542857Y-57009337D01*
X58214286Y-56966480D02*
X58985714Y-58123622D01*
X57957143Y-57095051D02*
X57914286Y-57052194D01*
X57914286Y-57052194D02*
X57828572Y-57009337D01*
X57828572Y-57009337D02*
X57614286Y-57009337D01*
X57614286Y-57009337D02*
X57528572Y-57052194D01*
X57528572Y-57052194D02*
X57485714Y-57095051D01*
X57485714Y-57095051D02*
X57442857Y-57180765D01*
X57442857Y-57180765D02*
X57442857Y-57266480D01*
X57442857Y-57266480D02*
X57485714Y-57395051D01*
X57485714Y-57395051D02*
X58000000Y-57909337D01*
X58000000Y-57909337D02*
X57442857Y-57909337D01*
X57100000Y-57095051D02*
X57057143Y-57052194D01*
X57057143Y-57052194D02*
X56971429Y-57009337D01*
X56971429Y-57009337D02*
X56757143Y-57009337D01*
X56757143Y-57009337D02*
X56671429Y-57052194D01*
X56671429Y-57052194D02*
X56628571Y-57095051D01*
X56628571Y-57095051D02*
X56585714Y-57180765D01*
X56585714Y-57180765D02*
X56585714Y-57266480D01*
X56585714Y-57266480D02*
X56628571Y-57395051D01*
X56628571Y-57395051D02*
X57142857Y-57909337D01*
X57142857Y-57909337D02*
X56585714Y-57909337D01*
X55814286Y-57309337D02*
X55814286Y-57909337D01*
X56028571Y-56966480D02*
X56242857Y-57609337D01*
X56242857Y-57609337D02*
X55685714Y-57609337D01*
X55385714Y-57095051D02*
X55342857Y-57052194D01*
X55342857Y-57052194D02*
X55257143Y-57009337D01*
X55257143Y-57009337D02*
X55042857Y-57009337D01*
X55042857Y-57009337D02*
X54957143Y-57052194D01*
X54957143Y-57052194D02*
X54914285Y-57095051D01*
X54914285Y-57095051D02*
X54871428Y-57180765D01*
X54871428Y-57180765D02*
X54871428Y-57266480D01*
X54871428Y-57266480D02*
X54914285Y-57395051D01*
X54914285Y-57395051D02*
X55428571Y-57909337D01*
X55428571Y-57909337D02*
X54871428Y-57909337D01*
X53800000Y-57909337D02*
X53800000Y-57009337D01*
X53800000Y-57009337D02*
X53285714Y-57909337D01*
X53285714Y-57909337D02*
X53285714Y-57009337D01*
X52985714Y-57009337D02*
X52685714Y-57909337D01*
X52685714Y-57909337D02*
X52385714Y-57009337D01*
X52085714Y-57909337D02*
X52085714Y-57009337D01*
X52085714Y-57009337D02*
X51785714Y-57652194D01*
X51785714Y-57652194D02*
X51485714Y-57009337D01*
X51485714Y-57009337D02*
X51485714Y-57909337D01*
X50714286Y-57866480D02*
X50800000Y-57909337D01*
X50800000Y-57909337D02*
X50971429Y-57909337D01*
X50971429Y-57909337D02*
X51057143Y-57866480D01*
X51057143Y-57866480D02*
X51100000Y-57780765D01*
X51100000Y-57780765D02*
X51100000Y-57437908D01*
X51100000Y-57437908D02*
X51057143Y-57352194D01*
X51057143Y-57352194D02*
X50971429Y-57309337D01*
X50971429Y-57309337D02*
X50800000Y-57309337D01*
X50800000Y-57309337D02*
X50714286Y-57352194D01*
X50714286Y-57352194D02*
X50671429Y-57437908D01*
X50671429Y-57437908D02*
X50671429Y-57523622D01*
X50671429Y-57523622D02*
X51100000Y-57609337D01*
D12*
X77954819Y-42714285D02*
X78669104Y-42714285D01*
X78669104Y-42714285D02*
X78811961Y-42666666D01*
X78811961Y-42666666D02*
X78907200Y-42571428D01*
X78907200Y-42571428D02*
X78954819Y-42428571D01*
X78954819Y-42428571D02*
X78954819Y-42333333D01*
X78383390Y-43333333D02*
X78335771Y-43238095D01*
X78335771Y-43238095D02*
X78288152Y-43190476D01*
X78288152Y-43190476D02*
X78192914Y-43142857D01*
X78192914Y-43142857D02*
X78145295Y-43142857D01*
X78145295Y-43142857D02*
X78050057Y-43190476D01*
X78050057Y-43190476D02*
X78002438Y-43238095D01*
X78002438Y-43238095D02*
X77954819Y-43333333D01*
X77954819Y-43333333D02*
X77954819Y-43523809D01*
X77954819Y-43523809D02*
X78002438Y-43619047D01*
X78002438Y-43619047D02*
X78050057Y-43666666D01*
X78050057Y-43666666D02*
X78145295Y-43714285D01*
X78145295Y-43714285D02*
X78192914Y-43714285D01*
X78192914Y-43714285D02*
X78288152Y-43666666D01*
X78288152Y-43666666D02*
X78335771Y-43619047D01*
X78335771Y-43619047D02*
X78383390Y-43523809D01*
X78383390Y-43523809D02*
X78383390Y-43333333D01*
X78383390Y-43333333D02*
X78431009Y-43238095D01*
X78431009Y-43238095D02*
X78478628Y-43190476D01*
X78478628Y-43190476D02*
X78573866Y-43142857D01*
X78573866Y-43142857D02*
X78764342Y-43142857D01*
X78764342Y-43142857D02*
X78859580Y-43190476D01*
X78859580Y-43190476D02*
X78907200Y-43238095D01*
X78907200Y-43238095D02*
X78954819Y-43333333D01*
X78954819Y-43333333D02*
X78954819Y-43523809D01*
X78954819Y-43523809D02*
X78907200Y-43619047D01*
X78907200Y-43619047D02*
X78859580Y-43666666D01*
X78859580Y-43666666D02*
X78764342Y-43714285D01*
X78764342Y-43714285D02*
X78573866Y-43714285D01*
X78573866Y-43714285D02*
X78478628Y-43666666D01*
X78478628Y-43666666D02*
X78431009Y-43619047D01*
X78431009Y-43619047D02*
X78383390Y-43523809D01*
X77954819Y-44333333D02*
X77954819Y-44428571D01*
X77954819Y-44428571D02*
X78002438Y-44523809D01*
X78002438Y-44523809D02*
X78050057Y-44571428D01*
X78050057Y-44571428D02*
X78145295Y-44619047D01*
X78145295Y-44619047D02*
X78335771Y-44666666D01*
X78335771Y-44666666D02*
X78573866Y-44666666D01*
X78573866Y-44666666D02*
X78764342Y-44619047D01*
X78764342Y-44619047D02*
X78859580Y-44571428D01*
X78859580Y-44571428D02*
X78907200Y-44523809D01*
X78907200Y-44523809D02*
X78954819Y-44428571D01*
X78954819Y-44428571D02*
X78954819Y-44333333D01*
X78954819Y-44333333D02*
X78907200Y-44238095D01*
X78907200Y-44238095D02*
X78859580Y-44190476D01*
X78859580Y-44190476D02*
X78764342Y-44142857D01*
X78764342Y-44142857D02*
X78573866Y-44095238D01*
X78573866Y-44095238D02*
X78335771Y-44095238D01*
X78335771Y-44095238D02*
X78145295Y-44142857D01*
X78145295Y-44142857D02*
X78050057Y-44190476D01*
X78050057Y-44190476D02*
X78002438Y-44238095D01*
X78002438Y-44238095D02*
X77954819Y-44333333D01*
X78954819Y-45619047D02*
X78954819Y-45047619D01*
X78954819Y-45333333D02*
X77954819Y-45333333D01*
X77954819Y-45333333D02*
X78097676Y-45238095D01*
X78097676Y-45238095D02*
X78192914Y-45142857D01*
X78192914Y-45142857D02*
X78240533Y-45047619D01*
X45714285Y-41254819D02*
X45714285Y-40254819D01*
X45714285Y-40731009D02*
X45142857Y-40731009D01*
X45142857Y-41254819D02*
X45142857Y-40254819D01*
X44523809Y-40683390D02*
X44619047Y-40635771D01*
X44619047Y-40635771D02*
X44666666Y-40588152D01*
X44666666Y-40588152D02*
X44714285Y-40492914D01*
X44714285Y-40492914D02*
X44714285Y-40445295D01*
X44714285Y-40445295D02*
X44666666Y-40350057D01*
X44666666Y-40350057D02*
X44619047Y-40302438D01*
X44619047Y-40302438D02*
X44523809Y-40254819D01*
X44523809Y-40254819D02*
X44333333Y-40254819D01*
X44333333Y-40254819D02*
X44238095Y-40302438D01*
X44238095Y-40302438D02*
X44190476Y-40350057D01*
X44190476Y-40350057D02*
X44142857Y-40445295D01*
X44142857Y-40445295D02*
X44142857Y-40492914D01*
X44142857Y-40492914D02*
X44190476Y-40588152D01*
X44190476Y-40588152D02*
X44238095Y-40635771D01*
X44238095Y-40635771D02*
X44333333Y-40683390D01*
X44333333Y-40683390D02*
X44523809Y-40683390D01*
X44523809Y-40683390D02*
X44619047Y-40731009D01*
X44619047Y-40731009D02*
X44666666Y-40778628D01*
X44666666Y-40778628D02*
X44714285Y-40873866D01*
X44714285Y-40873866D02*
X44714285Y-41064342D01*
X44714285Y-41064342D02*
X44666666Y-41159580D01*
X44666666Y-41159580D02*
X44619047Y-41207200D01*
X44619047Y-41207200D02*
X44523809Y-41254819D01*
X44523809Y-41254819D02*
X44333333Y-41254819D01*
X44333333Y-41254819D02*
X44238095Y-41207200D01*
X44238095Y-41207200D02*
X44190476Y-41159580D01*
X44190476Y-41159580D02*
X44142857Y-41064342D01*
X44142857Y-41064342D02*
X44142857Y-40873866D01*
X44142857Y-40873866D02*
X44190476Y-40778628D01*
X44190476Y-40778628D02*
X44238095Y-40731009D01*
X44238095Y-40731009D02*
X44333333Y-40683390D01*
X43523809Y-40254819D02*
X43428571Y-40254819D01*
X43428571Y-40254819D02*
X43333333Y-40302438D01*
X43333333Y-40302438D02*
X43285714Y-40350057D01*
X43285714Y-40350057D02*
X43238095Y-40445295D01*
X43238095Y-40445295D02*
X43190476Y-40635771D01*
X43190476Y-40635771D02*
X43190476Y-40873866D01*
X43190476Y-40873866D02*
X43238095Y-41064342D01*
X43238095Y-41064342D02*
X43285714Y-41159580D01*
X43285714Y-41159580D02*
X43333333Y-41207200D01*
X43333333Y-41207200D02*
X43428571Y-41254819D01*
X43428571Y-41254819D02*
X43523809Y-41254819D01*
X43523809Y-41254819D02*
X43619047Y-41207200D01*
X43619047Y-41207200D02*
X43666666Y-41159580D01*
X43666666Y-41159580D02*
X43714285Y-41064342D01*
X43714285Y-41064342D02*
X43761904Y-40873866D01*
X43761904Y-40873866D02*
X43761904Y-40635771D01*
X43761904Y-40635771D02*
X43714285Y-40445295D01*
X43714285Y-40445295D02*
X43666666Y-40350057D01*
X43666666Y-40350057D02*
X43619047Y-40302438D01*
X43619047Y-40302438D02*
X43523809Y-40254819D01*
X42809523Y-40350057D02*
X42761904Y-40302438D01*
X42761904Y-40302438D02*
X42666666Y-40254819D01*
X42666666Y-40254819D02*
X42428571Y-40254819D01*
X42428571Y-40254819D02*
X42333333Y-40302438D01*
X42333333Y-40302438D02*
X42285714Y-40350057D01*
X42285714Y-40350057D02*
X42238095Y-40445295D01*
X42238095Y-40445295D02*
X42238095Y-40540533D01*
X42238095Y-40540533D02*
X42285714Y-40683390D01*
X42285714Y-40683390D02*
X42857142Y-41254819D01*
X42857142Y-41254819D02*
X42238095Y-41254819D01*
X18204819Y-48819285D02*
X18919104Y-48819285D01*
X18919104Y-48819285D02*
X19061961Y-48771666D01*
X19061961Y-48771666D02*
X19157200Y-48676428D01*
X19157200Y-48676428D02*
X19204819Y-48533571D01*
X19204819Y-48533571D02*
X19204819Y-48438333D01*
X18204819Y-49200238D02*
X18204819Y-49866904D01*
X18204819Y-49866904D02*
X19204819Y-49438333D01*
X18204819Y-50438333D02*
X18204819Y-50533571D01*
X18204819Y-50533571D02*
X18252438Y-50628809D01*
X18252438Y-50628809D02*
X18300057Y-50676428D01*
X18300057Y-50676428D02*
X18395295Y-50724047D01*
X18395295Y-50724047D02*
X18585771Y-50771666D01*
X18585771Y-50771666D02*
X18823866Y-50771666D01*
X18823866Y-50771666D02*
X19014342Y-50724047D01*
X19014342Y-50724047D02*
X19109580Y-50676428D01*
X19109580Y-50676428D02*
X19157200Y-50628809D01*
X19157200Y-50628809D02*
X19204819Y-50533571D01*
X19204819Y-50533571D02*
X19204819Y-50438333D01*
X19204819Y-50438333D02*
X19157200Y-50343095D01*
X19157200Y-50343095D02*
X19109580Y-50295476D01*
X19109580Y-50295476D02*
X19014342Y-50247857D01*
X19014342Y-50247857D02*
X18823866Y-50200238D01*
X18823866Y-50200238D02*
X18585771Y-50200238D01*
X18585771Y-50200238D02*
X18395295Y-50247857D01*
X18395295Y-50247857D02*
X18300057Y-50295476D01*
X18300057Y-50295476D02*
X18252438Y-50343095D01*
X18252438Y-50343095D02*
X18204819Y-50438333D01*
X19204819Y-51724047D02*
X19204819Y-51152619D01*
X19204819Y-51438333D02*
X18204819Y-51438333D01*
X18204819Y-51438333D02*
X18347676Y-51343095D01*
X18347676Y-51343095D02*
X18442914Y-51247857D01*
X18442914Y-51247857D02*
X18490533Y-51152619D01*
X9714285Y-37054819D02*
X9714285Y-37864342D01*
X9714285Y-37864342D02*
X9666666Y-37959580D01*
X9666666Y-37959580D02*
X9619047Y-38007200D01*
X9619047Y-38007200D02*
X9523809Y-38054819D01*
X9523809Y-38054819D02*
X9333333Y-38054819D01*
X9333333Y-38054819D02*
X9238095Y-38007200D01*
X9238095Y-38007200D02*
X9190476Y-37959580D01*
X9190476Y-37959580D02*
X9142857Y-37864342D01*
X9142857Y-37864342D02*
X9142857Y-37054819D01*
X8761904Y-37054819D02*
X8095238Y-37054819D01*
X8095238Y-37054819D02*
X8523809Y-38054819D01*
X7523809Y-37054819D02*
X7428571Y-37054819D01*
X7428571Y-37054819D02*
X7333333Y-37102438D01*
X7333333Y-37102438D02*
X7285714Y-37150057D01*
X7285714Y-37150057D02*
X7238095Y-37245295D01*
X7238095Y-37245295D02*
X7190476Y-37435771D01*
X7190476Y-37435771D02*
X7190476Y-37673866D01*
X7190476Y-37673866D02*
X7238095Y-37864342D01*
X7238095Y-37864342D02*
X7285714Y-37959580D01*
X7285714Y-37959580D02*
X7333333Y-38007200D01*
X7333333Y-38007200D02*
X7428571Y-38054819D01*
X7428571Y-38054819D02*
X7523809Y-38054819D01*
X7523809Y-38054819D02*
X7619047Y-38007200D01*
X7619047Y-38007200D02*
X7666666Y-37959580D01*
X7666666Y-37959580D02*
X7714285Y-37864342D01*
X7714285Y-37864342D02*
X7761904Y-37673866D01*
X7761904Y-37673866D02*
X7761904Y-37435771D01*
X7761904Y-37435771D02*
X7714285Y-37245295D01*
X7714285Y-37245295D02*
X7666666Y-37150057D01*
X7666666Y-37150057D02*
X7619047Y-37102438D01*
X7619047Y-37102438D02*
X7523809Y-37054819D01*
X6809523Y-37150057D02*
X6761904Y-37102438D01*
X6761904Y-37102438D02*
X6666666Y-37054819D01*
X6666666Y-37054819D02*
X6428571Y-37054819D01*
X6428571Y-37054819D02*
X6333333Y-37102438D01*
X6333333Y-37102438D02*
X6285714Y-37150057D01*
X6285714Y-37150057D02*
X6238095Y-37245295D01*
X6238095Y-37245295D02*
X6238095Y-37340533D01*
X6238095Y-37340533D02*
X6285714Y-37483390D01*
X6285714Y-37483390D02*
X6857142Y-38054819D01*
X6857142Y-38054819D02*
X6238095Y-38054819D01*
X33714285Y-41254819D02*
X33714285Y-40254819D01*
X33714285Y-40731009D02*
X33142857Y-40731009D01*
X33142857Y-41254819D02*
X33142857Y-40254819D01*
X32523809Y-40683390D02*
X32619047Y-40635771D01*
X32619047Y-40635771D02*
X32666666Y-40588152D01*
X32666666Y-40588152D02*
X32714285Y-40492914D01*
X32714285Y-40492914D02*
X32714285Y-40445295D01*
X32714285Y-40445295D02*
X32666666Y-40350057D01*
X32666666Y-40350057D02*
X32619047Y-40302438D01*
X32619047Y-40302438D02*
X32523809Y-40254819D01*
X32523809Y-40254819D02*
X32333333Y-40254819D01*
X32333333Y-40254819D02*
X32238095Y-40302438D01*
X32238095Y-40302438D02*
X32190476Y-40350057D01*
X32190476Y-40350057D02*
X32142857Y-40445295D01*
X32142857Y-40445295D02*
X32142857Y-40492914D01*
X32142857Y-40492914D02*
X32190476Y-40588152D01*
X32190476Y-40588152D02*
X32238095Y-40635771D01*
X32238095Y-40635771D02*
X32333333Y-40683390D01*
X32333333Y-40683390D02*
X32523809Y-40683390D01*
X32523809Y-40683390D02*
X32619047Y-40731009D01*
X32619047Y-40731009D02*
X32666666Y-40778628D01*
X32666666Y-40778628D02*
X32714285Y-40873866D01*
X32714285Y-40873866D02*
X32714285Y-41064342D01*
X32714285Y-41064342D02*
X32666666Y-41159580D01*
X32666666Y-41159580D02*
X32619047Y-41207200D01*
X32619047Y-41207200D02*
X32523809Y-41254819D01*
X32523809Y-41254819D02*
X32333333Y-41254819D01*
X32333333Y-41254819D02*
X32238095Y-41207200D01*
X32238095Y-41207200D02*
X32190476Y-41159580D01*
X32190476Y-41159580D02*
X32142857Y-41064342D01*
X32142857Y-41064342D02*
X32142857Y-40873866D01*
X32142857Y-40873866D02*
X32190476Y-40778628D01*
X32190476Y-40778628D02*
X32238095Y-40731009D01*
X32238095Y-40731009D02*
X32333333Y-40683390D01*
X31523809Y-40254819D02*
X31428571Y-40254819D01*
X31428571Y-40254819D02*
X31333333Y-40302438D01*
X31333333Y-40302438D02*
X31285714Y-40350057D01*
X31285714Y-40350057D02*
X31238095Y-40445295D01*
X31238095Y-40445295D02*
X31190476Y-40635771D01*
X31190476Y-40635771D02*
X31190476Y-40873866D01*
X31190476Y-40873866D02*
X31238095Y-41064342D01*
X31238095Y-41064342D02*
X31285714Y-41159580D01*
X31285714Y-41159580D02*
X31333333Y-41207200D01*
X31333333Y-41207200D02*
X31428571Y-41254819D01*
X31428571Y-41254819D02*
X31523809Y-41254819D01*
X31523809Y-41254819D02*
X31619047Y-41207200D01*
X31619047Y-41207200D02*
X31666666Y-41159580D01*
X31666666Y-41159580D02*
X31714285Y-41064342D01*
X31714285Y-41064342D02*
X31761904Y-40873866D01*
X31761904Y-40873866D02*
X31761904Y-40635771D01*
X31761904Y-40635771D02*
X31714285Y-40445295D01*
X31714285Y-40445295D02*
X31666666Y-40350057D01*
X31666666Y-40350057D02*
X31619047Y-40302438D01*
X31619047Y-40302438D02*
X31523809Y-40254819D01*
X30238095Y-41254819D02*
X30809523Y-41254819D01*
X30523809Y-41254819D02*
X30523809Y-40254819D01*
X30523809Y-40254819D02*
X30619047Y-40397676D01*
X30619047Y-40397676D02*
X30714285Y-40492914D01*
X30714285Y-40492914D02*
X30809523Y-40540533D01*
D10*
%TO.C,C489*%
X56892164Y-18640000D02*
X57107836Y-18640000D01*
X56892164Y-19360000D02*
X57107836Y-19360000D01*
%TO.C,C433*%
X50392164Y-46140000D02*
X50607836Y-46140000D01*
X50392164Y-46860000D02*
X50607836Y-46860000D01*
%TO.C,C4124*%
X57392164Y-28640000D02*
X57607836Y-28640000D01*
X57392164Y-29360000D02*
X57607836Y-29360000D01*
%TO.C,C470*%
X59892164Y-24140000D02*
X60107836Y-24140000D01*
X59892164Y-24860000D02*
X60107836Y-24860000D01*
%TO.C,C617*%
X16392164Y-39640000D02*
X16607836Y-39640000D01*
X16392164Y-40360000D02*
X16607836Y-40360000D01*
%TO.C,R916*%
X59346359Y-19620000D02*
X59653641Y-19620000D01*
X59346359Y-20380000D02*
X59653641Y-20380000D01*
%TO.C,C4114*%
X41892164Y-20640000D02*
X42107836Y-20640000D01*
X41892164Y-21360000D02*
X42107836Y-21360000D01*
%TO.C,C4104*%
X54892164Y-37640000D02*
X55107836Y-37640000D01*
X54892164Y-38360000D02*
X55107836Y-38360000D01*
%TO.C,C424*%
X55392164Y-42140000D02*
X55607836Y-42140000D01*
X55392164Y-42860000D02*
X55607836Y-42860000D01*
%TO.C,C4129*%
X52892164Y-43140000D02*
X53107836Y-43140000D01*
X52892164Y-43860000D02*
X53107836Y-43860000D01*
%TO.C,C618*%
X22392164Y-21640000D02*
X22607836Y-21640000D01*
X22392164Y-22360000D02*
X22607836Y-22360000D01*
%TO.C,C478*%
X62392164Y-36640000D02*
X62607836Y-36640000D01*
X62392164Y-37360000D02*
X62607836Y-37360000D01*
%TO.C,C443*%
X34392164Y-21140000D02*
X34607836Y-21140000D01*
X34392164Y-21860000D02*
X34607836Y-21860000D01*
%TO.C,C498*%
X50392164Y-50640000D02*
X50607836Y-50640000D01*
X50392164Y-51360000D02*
X50607836Y-51360000D01*
%TO.C,C4126*%
X50392164Y-20640000D02*
X50607836Y-20640000D01*
X50392164Y-21360000D02*
X50607836Y-21360000D01*
%TO.C,C612*%
X19892164Y-23140000D02*
X20107836Y-23140000D01*
X19892164Y-23860000D02*
X20107836Y-23860000D01*
%TO.C,C632*%
X17392164Y-22640000D02*
X17607836Y-22640000D01*
X17392164Y-23360000D02*
X17607836Y-23360000D01*
%TO.C,C434*%
X38892164Y-19140000D02*
X39107836Y-19140000D01*
X38892164Y-19860000D02*
X39107836Y-19860000D01*
%TO.C,C417*%
X41859420Y-18490000D02*
X42140580Y-18490000D01*
X41859420Y-19510000D02*
X42140580Y-19510000D01*
%TO.C,C4103*%
X34892164Y-37640000D02*
X35107836Y-37640000D01*
X34892164Y-38360000D02*
X35107836Y-38360000D01*
%TO.C,C708*%
X4859420Y-36490000D02*
X5140580Y-36490000D01*
X4859420Y-37510000D02*
X5140580Y-37510000D01*
%TO.C,C468*%
X57892164Y-43640000D02*
X58107836Y-43640000D01*
X57892164Y-44360000D02*
X58107836Y-44360000D01*
%TO.C,C4108*%
X39392164Y-22140000D02*
X39607836Y-22140000D01*
X39392164Y-22860000D02*
X39607836Y-22860000D01*
%TO.C,C704*%
X11392164Y-39640000D02*
X11607836Y-39640000D01*
X11392164Y-40360000D02*
X11607836Y-40360000D01*
%TO.C,C474*%
X60392164Y-41140000D02*
X60607836Y-41140000D01*
X60392164Y-41860000D02*
X60607836Y-41860000D01*
%TO.C,C471*%
X36392164Y-47640000D02*
X36607836Y-47640000D01*
X36392164Y-48360000D02*
X36607836Y-48360000D01*
%TO.C,C487*%
X39392164Y-50140000D02*
X39607836Y-50140000D01*
X39392164Y-50860000D02*
X39607836Y-50860000D01*
%TO.C,R802*%
X69346359Y-47620000D02*
X69653641Y-47620000D01*
X69346359Y-48380000D02*
X69653641Y-48380000D01*
%TO.C,C475*%
X62392164Y-29640000D02*
X62607836Y-29640000D01*
X62392164Y-30360000D02*
X62607836Y-30360000D01*
%TO.C,C479*%
X58892164Y-21140000D02*
X59107836Y-21140000D01*
X58892164Y-21860000D02*
X59107836Y-21860000D01*
%TO.C,C465*%
X33892164Y-19640000D02*
X34107836Y-19640000D01*
X33892164Y-20360000D02*
X34107836Y-20360000D01*
%TO.C,C437*%
X57392164Y-40640000D02*
X57607836Y-40640000D01*
X57392164Y-41360000D02*
X57607836Y-41360000D01*
%TO.C,R509*%
X31346359Y-18620000D02*
X31653641Y-18620000D01*
X31346359Y-19380000D02*
X31653641Y-19380000D01*
%TO.C,J801*%
X76700000Y-55000000D02*
X76700000Y-53600000D01*
%TO.C,C460*%
X59892164Y-39640000D02*
X60107836Y-39640000D01*
X59892164Y-40360000D02*
X60107836Y-40360000D01*
%TO.C,C404*%
X55359420Y-30490000D02*
X55640580Y-30490000D01*
X55359420Y-31510000D02*
X55640580Y-31510000D01*
%TO.C,C4115*%
X47892164Y-20640000D02*
X48107836Y-20640000D01*
X47892164Y-21360000D02*
X48107836Y-21360000D01*
%TO.C,C454*%
X57892164Y-42140000D02*
X58107836Y-42140000D01*
X57892164Y-42860000D02*
X58107836Y-42860000D01*
%TO.C,C493*%
X63392164Y-32640000D02*
X63607836Y-32640000D01*
X63392164Y-33360000D02*
X63607836Y-33360000D01*
%TO.C,C463*%
X39392164Y-48640000D02*
X39607836Y-48640000D01*
X39392164Y-49360000D02*
X39607836Y-49360000D01*
%TO.C,C629*%
X13892164Y-38140000D02*
X14107836Y-38140000D01*
X13892164Y-38860000D02*
X14107836Y-38860000D01*
%TO.C,R505*%
X42346359Y-51620000D02*
X42653641Y-51620000D01*
X42346359Y-52380000D02*
X42653641Y-52380000D01*
%TO.C,C492*%
X60392164Y-42640000D02*
X60607836Y-42640000D01*
X60392164Y-43360000D02*
X60607836Y-43360000D01*
%TO.C,C453*%
X31892164Y-23140000D02*
X32107836Y-23140000D01*
X31892164Y-23860000D02*
X32107836Y-23860000D01*
%TO.C,C4125*%
X39392164Y-20640000D02*
X39607836Y-20640000D01*
X39392164Y-21360000D02*
X39607836Y-21360000D01*
%TO.C,R711*%
X9071359Y-58650000D02*
X9378641Y-58650000D01*
X9071359Y-59410000D02*
X9378641Y-59410000D01*
%TO.C,C621*%
X13359420Y-28490000D02*
X13640580Y-28490000D01*
X13359420Y-29510000D02*
X13640580Y-29510000D01*
%TO.C,C703*%
X4392164Y-39640000D02*
X4607836Y-39640000D01*
X4392164Y-40360000D02*
X4607836Y-40360000D01*
%TO.C,C803*%
X68359420Y-45490000D02*
X68640580Y-45490000D01*
X68359420Y-46510000D02*
X68640580Y-46510000D01*
%TO.C,C606*%
X24892164Y-42140000D02*
X25107836Y-42140000D01*
X24892164Y-42860000D02*
X25107836Y-42860000D01*
%TO.C,C4117*%
X44892164Y-20140000D02*
X45107836Y-20140000D01*
X44892164Y-20860000D02*
X45107836Y-20860000D01*
%TO.C,C455*%
X38892164Y-17640000D02*
X39107836Y-17640000D01*
X38892164Y-18360000D02*
X39107836Y-18360000D01*
%TO.C,C4127*%
X36892164Y-22140000D02*
X37107836Y-22140000D01*
X36892164Y-22860000D02*
X37107836Y-22860000D01*
%TO.C,C709*%
X11392164Y-38140000D02*
X11607836Y-38140000D01*
X11392164Y-38860000D02*
X11607836Y-38860000D01*
%TO.C,C624*%
X12892164Y-32640000D02*
X13107836Y-32640000D01*
X12892164Y-33360000D02*
X13107836Y-33360000D01*
%TO.C,C486*%
X62392164Y-38140000D02*
X62607836Y-38140000D01*
X62392164Y-38860000D02*
X62607836Y-38860000D01*
%TO.C,C4119*%
X54892164Y-40640000D02*
X55107836Y-40640000D01*
X54892164Y-41360000D02*
X55107836Y-41360000D01*
%TO.C,C425*%
X57392164Y-25640000D02*
X57607836Y-25640000D01*
X57392164Y-26360000D02*
X57607836Y-26360000D01*
%TO.C,C450*%
X50392164Y-47640000D02*
X50607836Y-47640000D01*
X50392164Y-48360000D02*
X50607836Y-48360000D01*
%TO.C,C405*%
X34892164Y-34640000D02*
X35107836Y-34640000D01*
X34892164Y-35360000D02*
X35107836Y-35360000D01*
%TO.C,C413*%
X50392164Y-44640000D02*
X50607836Y-44640000D01*
X50392164Y-45360000D02*
X50607836Y-45360000D01*
%TO.C,C633*%
X13892164Y-26640000D02*
X14107836Y-26640000D01*
X13892164Y-27360000D02*
X14107836Y-27360000D01*
%TO.C,R1002*%
X50846359Y-14620000D02*
X51153641Y-14620000D01*
X50846359Y-15380000D02*
X51153641Y-15380000D01*
%TO.C,C627*%
X12892164Y-31140000D02*
X13107836Y-31140000D01*
X12892164Y-31860000D02*
X13107836Y-31860000D01*
%TO.C,R506*%
X52846359Y-50120000D02*
X53153641Y-50120000D01*
X52846359Y-50880000D02*
X53153641Y-50880000D01*
%TO.C,C421*%
X44892164Y-18640000D02*
X45107836Y-18640000D01*
X44892164Y-19360000D02*
X45107836Y-19360000D01*
%TO.C,C477*%
X52892164Y-48640000D02*
X53107836Y-48640000D01*
X52892164Y-49360000D02*
X53107836Y-49360000D01*
%TO.C,C4116*%
X47892164Y-44640000D02*
X48107836Y-44640000D01*
X47892164Y-45360000D02*
X48107836Y-45360000D01*
%TO.C,C611*%
X16392164Y-38140000D02*
X16607836Y-38140000D01*
X16392164Y-38860000D02*
X16607836Y-38860000D01*
%TO.C,C4109*%
X50392164Y-22140000D02*
X50607836Y-22140000D01*
X50392164Y-22860000D02*
X50607836Y-22860000D01*
%TO.C,C444*%
X55859420Y-20490000D02*
X56140580Y-20490000D01*
X55859420Y-21510000D02*
X56140580Y-21510000D01*
%TO.C,C707*%
X63392164Y-20640000D02*
X63607836Y-20640000D01*
X63392164Y-21360000D02*
X63607836Y-21360000D01*
%TO.C,C607*%
X22392164Y-23140000D02*
X22607836Y-23140000D01*
X22392164Y-23860000D02*
X22607836Y-23860000D01*
%TO.C,C447*%
X36392164Y-19140000D02*
X36607836Y-19140000D01*
X36392164Y-19860000D02*
X36607836Y-19860000D01*
%TO.C,C4100*%
X41892164Y-22140000D02*
X42107836Y-22140000D01*
X41892164Y-22860000D02*
X42107836Y-22860000D01*
%TO.C,C4121*%
X39892164Y-44640000D02*
X40107836Y-44640000D01*
X39892164Y-45360000D02*
X40107836Y-45360000D01*
%TO.C,C615*%
X24859420Y-43990000D02*
X25140580Y-43990000D01*
X24859420Y-45010000D02*
X25140580Y-45010000D01*
%TO.C,C622*%
X27892164Y-43640000D02*
X28107836Y-43640000D01*
X27892164Y-44360000D02*
X28107836Y-44360000D01*
%TO.C,C491*%
X60392164Y-22640000D02*
X60607836Y-22640000D01*
X60392164Y-23360000D02*
X60607836Y-23360000D01*
%TO.C,R510*%
X62346359Y-24120000D02*
X62653641Y-24120000D01*
X62346359Y-24880000D02*
X62653641Y-24880000D01*
%TO.C,C4120*%
X57392164Y-36140000D02*
X57607836Y-36140000D01*
X57392164Y-36860000D02*
X57607836Y-36860000D01*
%TO.C,C439*%
X55392164Y-43640000D02*
X55607836Y-43640000D01*
X55392164Y-44360000D02*
X55607836Y-44360000D01*
%TO.C,R710*%
X67846359Y-23620000D02*
X68153641Y-23620000D01*
X67846359Y-24380000D02*
X68153641Y-24380000D01*
%TO.C,C485*%
X36892164Y-49140000D02*
X37107836Y-49140000D01*
X36892164Y-49860000D02*
X37107836Y-49860000D01*
%TO.C,R601*%
X27346359Y-20120000D02*
X27653641Y-20120000D01*
X27346359Y-20880000D02*
X27653641Y-20880000D01*
%TO.C,C446*%
X53359420Y-46490000D02*
X53640580Y-46490000D01*
X53359420Y-47510000D02*
X53640580Y-47510000D01*
%TO.C,C423*%
X37392164Y-44640000D02*
X37607836Y-44640000D01*
X37392164Y-45360000D02*
X37607836Y-45360000D01*
%TO.C,C449*%
X59892164Y-38140000D02*
X60107836Y-38140000D01*
X59892164Y-38860000D02*
X60107836Y-38860000D01*
%TO.C,C4118*%
X57392164Y-34640000D02*
X57607836Y-34640000D01*
X57392164Y-35360000D02*
X57607836Y-35360000D01*
%TO.C,C620*%
X21892164Y-43640000D02*
X22107836Y-43640000D01*
X21892164Y-44360000D02*
X22107836Y-44360000D01*
%TO.C,C625*%
X16392164Y-24140000D02*
X16607836Y-24140000D01*
X16392164Y-24860000D02*
X16607836Y-24860000D01*
%TO.C,C628*%
X12892164Y-34140000D02*
X13107836Y-34140000D01*
X12892164Y-34860000D02*
X13107836Y-34860000D01*
%TO.C,C481*%
X29392164Y-23140000D02*
X29607836Y-23140000D01*
X29392164Y-23860000D02*
X29607836Y-23860000D01*
%TO.C,R804*%
X69346359Y-38620000D02*
X69653641Y-38620000D01*
X69346359Y-39380000D02*
X69653641Y-39380000D01*
%TO.C,C497*%
X58892164Y-45140000D02*
X59107836Y-45140000D01*
X58892164Y-45860000D02*
X59107836Y-45860000D01*
%TO.C,R503*%
X63346359Y-28120000D02*
X63653641Y-28120000D01*
X63346359Y-28880000D02*
X63653641Y-28880000D01*
%TO.C,C473*%
X38892164Y-16140000D02*
X39107836Y-16140000D01*
X38892164Y-16860000D02*
X39107836Y-16860000D01*
%TO.C,C458*%
X59892164Y-25640000D02*
X60107836Y-25640000D01*
X59892164Y-26360000D02*
X60107836Y-26360000D01*
%TO.C,C401*%
X44859420Y-21990000D02*
X45140580Y-21990000D01*
X44859420Y-23010000D02*
X45140580Y-23010000D01*
%TO.C,C457*%
X57892164Y-22640000D02*
X58107836Y-22640000D01*
X57892164Y-23360000D02*
X58107836Y-23360000D01*
%TO.C,C480*%
X56392164Y-46640000D02*
X56607836Y-46640000D01*
X56392164Y-47360000D02*
X56607836Y-47360000D01*
%TO.C,R701*%
X68346359Y-20620000D02*
X68653641Y-20620000D01*
X68346359Y-21380000D02*
X68653641Y-21380000D01*
%TO.C,C4111*%
X54892164Y-39140000D02*
X55107836Y-39140000D01*
X54892164Y-39860000D02*
X55107836Y-39860000D01*
%TO.C,C430*%
X52892164Y-44640000D02*
X53107836Y-44640000D01*
X52892164Y-45360000D02*
X53107836Y-45360000D01*
%TO.C,C806*%
X78392164Y-40640000D02*
X78607836Y-40640000D01*
X78392164Y-41360000D02*
X78607836Y-41360000D01*
%TO.C,C488*%
X31392164Y-20140000D02*
X31607836Y-20140000D01*
X31392164Y-20860000D02*
X31607836Y-20860000D01*
%TO.C,C494*%
X36392164Y-16140000D02*
X36607836Y-16140000D01*
X36392164Y-16860000D02*
X36607836Y-16860000D01*
%TO.C,C495*%
X63392164Y-31140000D02*
X63607836Y-31140000D01*
X63392164Y-31860000D02*
X63607836Y-31860000D01*
%TO.C,C408*%
X54892164Y-36140000D02*
X55107836Y-36140000D01*
X54892164Y-36860000D02*
X55107836Y-36860000D01*
%TO.C,C440*%
X59892164Y-29640000D02*
X60107836Y-29640000D01*
X59892164Y-30360000D02*
X60107836Y-30360000D01*
%TO.C,R713*%
X11571359Y-58650000D02*
X11878641Y-58650000D01*
X11571359Y-59410000D02*
X11878641Y-59410000D01*
%TO.C,C472*%
X50392164Y-49140000D02*
X50607836Y-49140000D01*
X50392164Y-49860000D02*
X50607836Y-49860000D01*
%TO.C,C312*%
X33859420Y-32490000D02*
X34140580Y-32490000D01*
X33859420Y-33510000D02*
X34140580Y-33510000D01*
%TO.C,C436*%
X60359420Y-34490000D02*
X60640580Y-34490000D01*
X60359420Y-35510000D02*
X60640580Y-35510000D01*
%TO.C,C452*%
X60892164Y-31140000D02*
X61107836Y-31140000D01*
X60892164Y-31860000D02*
X61107836Y-31860000D01*
%TO.C,C315*%
X68359420Y-43490000D02*
X68640580Y-43490000D01*
X68359420Y-44510000D02*
X68640580Y-44510000D01*
%TO.C,C445*%
X60359420Y-27490000D02*
X60640580Y-27490000D01*
X60359420Y-28510000D02*
X60640580Y-28510000D01*
%TO.C,C415*%
X58392164Y-32640000D02*
X58607836Y-32640000D01*
X58392164Y-33360000D02*
X58607836Y-33360000D01*
%TO.C,C634*%
X22392164Y-20140000D02*
X22607836Y-20140000D01*
X22392164Y-20860000D02*
X22607836Y-20860000D01*
%TO.C,R602*%
X21846359Y-45120000D02*
X22153641Y-45120000D01*
X21846359Y-45880000D02*
X22153641Y-45880000D01*
%TO.C,C626*%
X19892164Y-21640000D02*
X20107836Y-21640000D01*
X19892164Y-22360000D02*
X20107836Y-22360000D01*
%TO.C,C706*%
X66666928Y-24778605D02*
X66882600Y-24778605D01*
X66666928Y-25498605D02*
X66882600Y-25498605D01*
%TO.C,C407*%
X34892164Y-36140000D02*
X35107836Y-36140000D01*
X34892164Y-36860000D02*
X35107836Y-36860000D01*
%TO.C,C461*%
X47892164Y-49140000D02*
X48107836Y-49140000D01*
X47892164Y-49860000D02*
X48107836Y-49860000D01*
%TO.C,C504*%
X38892164Y-14640000D02*
X39107836Y-14640000D01*
X38892164Y-15360000D02*
X39107836Y-15360000D01*
%TO.C,C482*%
X33892164Y-18140000D02*
X34107836Y-18140000D01*
X33892164Y-18860000D02*
X34107836Y-18860000D01*
%TO.C,C613*%
X19892164Y-42140000D02*
X20107836Y-42140000D01*
X19892164Y-42860000D02*
X20107836Y-42860000D01*
%TO.C,C496*%
X63392164Y-34140000D02*
X63607836Y-34140000D01*
X63392164Y-34860000D02*
X63607836Y-34860000D01*
%TO.C,C631*%
X24892164Y-20140000D02*
X25107836Y-20140000D01*
X24892164Y-20860000D02*
X25107836Y-20860000D01*
%TO.C,C805*%
X78392164Y-45640000D02*
X78607836Y-45640000D01*
X78392164Y-46360000D02*
X78607836Y-46360000D01*
%TO.C,C412*%
X37392164Y-43140000D02*
X37607836Y-43140000D01*
X37392164Y-43860000D02*
X37607836Y-43860000D01*
%TO.C,C804*%
X68359420Y-40490000D02*
X68640580Y-40490000D01*
X68359420Y-41510000D02*
X68640580Y-41510000D01*
%TO.C,C604*%
X16392164Y-36640000D02*
X16607836Y-36640000D01*
X16392164Y-37360000D02*
X16607836Y-37360000D01*
%TO.C,C442*%
X59892164Y-36640000D02*
X60107836Y-36640000D01*
X59892164Y-37360000D02*
X60107836Y-37360000D01*
%TO.C,C4123*%
X54892164Y-24140000D02*
X55107836Y-24140000D01*
X54892164Y-24860000D02*
X55107836Y-24860000D01*
%TO.C,C427*%
X39359420Y-46490000D02*
X39640580Y-46490000D01*
X39359420Y-47510000D02*
X39640580Y-47510000D01*
%TO.C,C490*%
X54892164Y-17140000D02*
X55107836Y-17140000D01*
X54892164Y-17860000D02*
X55107836Y-17860000D01*
%TO.C,C605*%
X24892164Y-23140000D02*
X25107836Y-23140000D01*
X24892164Y-23860000D02*
X25107836Y-23860000D01*
%TO.C,C4102*%
X47892164Y-43140000D02*
X48107836Y-43140000D01*
X47892164Y-43860000D02*
X48107836Y-43860000D01*
%TO.C,R801*%
X78346359Y-47120000D02*
X78653641Y-47120000D01*
X78346359Y-47880000D02*
X78653641Y-47880000D01*
%TO.C,C602*%
X15859420Y-34490000D02*
X16140580Y-34490000D01*
X15859420Y-35510000D02*
X16140580Y-35510000D01*
%TO.C,C503*%
X62392164Y-39640000D02*
X62607836Y-39640000D01*
X62392164Y-40360000D02*
X62607836Y-40360000D01*
%TO.C,C435*%
X51359420Y-18490000D02*
X51640580Y-18490000D01*
X51359420Y-19510000D02*
X51640580Y-19510000D01*
%TO.C,C431*%
X34392164Y-22640000D02*
X34607836Y-22640000D01*
X34392164Y-23360000D02*
X34607836Y-23360000D01*
%TO.C,C459*%
X44859420Y-49490000D02*
X45140580Y-49490000D01*
X44859420Y-50510000D02*
X45140580Y-50510000D01*
%TO.C,C4105*%
X34892164Y-27140000D02*
X35107836Y-27140000D01*
X34892164Y-27860000D02*
X35107836Y-27860000D01*
%TO.C,C610*%
X16392164Y-27140000D02*
X16607836Y-27140000D01*
X16392164Y-27860000D02*
X16607836Y-27860000D01*
%TO.C,C428*%
X36892164Y-20640000D02*
X37107836Y-20640000D01*
X36892164Y-21360000D02*
X37107836Y-21360000D01*
%TO.C,R716*%
X14071359Y-58650000D02*
X14378641Y-58650000D01*
X14071359Y-59410000D02*
X14378641Y-59410000D01*
%TO.C,C409*%
X34892164Y-28640000D02*
X35107836Y-28640000D01*
X34892164Y-29360000D02*
X35107836Y-29360000D01*
%TO.C,C438*%
X57392164Y-24140000D02*
X57607836Y-24140000D01*
X57392164Y-24860000D02*
X57607836Y-24860000D01*
%TO.C,C469*%
X36392164Y-17640000D02*
X36607836Y-17640000D01*
X36392164Y-18360000D02*
X36607836Y-18360000D01*
%TO.C,R715*%
X4071359Y-58650000D02*
X4378641Y-58650000D01*
X4071359Y-59410000D02*
X4378641Y-59410000D01*
%TO.C,C4112*%
X34892164Y-25640000D02*
X35107836Y-25640000D01*
X34892164Y-26360000D02*
X35107836Y-26360000D01*
%TO.C,C4110*%
X34892164Y-39140000D02*
X35107836Y-39140000D01*
X34892164Y-39860000D02*
X35107836Y-39860000D01*
%TO.C,C316*%
X79359420Y-43490000D02*
X79640580Y-43490000D01*
X79359420Y-44510000D02*
X79640580Y-44510000D01*
%TO.C,J701*%
X840000Y-44715000D02*
X840000Y-47025000D01*
X840000Y-44715000D02*
X1040000Y-44515000D01*
X840000Y-47025000D02*
X1190000Y-47535000D01*
X840000Y-54115000D02*
X1040000Y-53905000D01*
X840000Y-55975000D02*
X840000Y-54115000D01*
X840000Y-55975000D02*
X1040000Y-56175000D01*
X1040000Y-44515000D02*
X1040000Y-44255000D01*
X1190000Y-53905000D02*
X1040000Y-53905000D01*
X1190000Y-53905000D02*
X1190000Y-47535000D01*
X5800000Y-57005000D02*
X4000000Y-57005000D01*
X11800000Y-57005000D02*
X7100000Y-57005000D01*
X17110000Y-43035000D02*
X3100000Y-43035000D01*
X17110000Y-44955000D02*
X17110000Y-43035000D01*
X17110000Y-56555000D02*
X17110000Y-57005000D01*
X17110000Y-57005000D02*
X13500000Y-57005000D01*
%TO.C,C448*%
X36392164Y-46140000D02*
X36607836Y-46140000D01*
X36392164Y-46860000D02*
X36607836Y-46860000D01*
%TO.C,C701*%
X65892164Y-20640000D02*
X66107836Y-20640000D01*
X65892164Y-21360000D02*
X66107836Y-21360000D01*
%TO.C,C419*%
X57392164Y-27140000D02*
X57607836Y-27140000D01*
X57392164Y-27860000D02*
X57607836Y-27860000D01*
%TO.C,C418*%
X47859420Y-18490000D02*
X48140580Y-18490000D01*
X47859420Y-19510000D02*
X48140580Y-19510000D01*
%TO.C,R508*%
X33846359Y-48620000D02*
X34153641Y-48620000D01*
X33846359Y-49380000D02*
X34153641Y-49380000D01*
%TO.C,C462*%
X54392164Y-18640000D02*
X54607836Y-18640000D01*
X54392164Y-19360000D02*
X54607836Y-19360000D01*
%TO.C,C451*%
X60892164Y-32640000D02*
X61107836Y-32640000D01*
X60892164Y-33360000D02*
X61107836Y-33360000D01*
%TO.C,C614*%
X24892164Y-21640000D02*
X25107836Y-21640000D01*
X24892164Y-22360000D02*
X25107836Y-22360000D01*
%TO.C,C416*%
X58392164Y-31140000D02*
X58607836Y-31140000D01*
X58392164Y-31860000D02*
X58607836Y-31860000D01*
%TO.C,C429*%
X52892164Y-20640000D02*
X53107836Y-20640000D01*
X52892164Y-21360000D02*
X53107836Y-21360000D01*
%TO.C,R712*%
X6571359Y-58650000D02*
X6878641Y-58650000D01*
X6571359Y-59410000D02*
X6878641Y-59410000D01*
%TO.C,R714*%
X13571359Y-40650000D02*
X13878641Y-40650000D01*
X13571359Y-41410000D02*
X13878641Y-41410000D01*
%TO.C,C406*%
X54892164Y-34640000D02*
X55107836Y-34640000D01*
X54892164Y-35360000D02*
X55107836Y-35360000D01*
%TO.C,C476*%
X41892164Y-50140000D02*
X42107836Y-50140000D01*
X41892164Y-50860000D02*
X42107836Y-50860000D01*
%TO.C,C705*%
X65501077Y-16670779D02*
X65716749Y-16670779D01*
X65501077Y-17390779D02*
X65716749Y-17390779D01*
%TO.C,C414*%
X57392164Y-37640000D02*
X57607836Y-37640000D01*
X57392164Y-38360000D02*
X57607836Y-38360000D01*
%TO.C,C426*%
X44859420Y-47490000D02*
X45140580Y-47490000D01*
X44859420Y-48510000D02*
X45140580Y-48510000D01*
%TO.C,R504*%
X55346359Y-48620000D02*
X55653641Y-48620000D01*
X55346359Y-49380000D02*
X55653641Y-49380000D01*
%TO.C,C4101*%
X47892164Y-22140000D02*
X48107836Y-22140000D01*
X47892164Y-22860000D02*
X48107836Y-22860000D01*
%TO.C,R507*%
X33846359Y-16620000D02*
X34153641Y-16620000D01*
X33846359Y-17380000D02*
X34153641Y-17380000D01*
%TO.C,C601*%
X15859420Y-30490000D02*
X16140580Y-30490000D01*
X15859420Y-31510000D02*
X16140580Y-31510000D01*
%TO.C,C464*%
X56392164Y-45140000D02*
X56607836Y-45140000D01*
X56392164Y-45860000D02*
X56607836Y-45860000D01*
%TO.C,C616*%
X16392164Y-25640000D02*
X16607836Y-25640000D01*
X16392164Y-26360000D02*
X16607836Y-26360000D01*
%TO.C,C619*%
X27392164Y-21640000D02*
X27607836Y-21640000D01*
X27392164Y-22360000D02*
X27607836Y-22360000D01*
%TO.C,C4128*%
X52892164Y-22140000D02*
X53107836Y-22140000D01*
X52892164Y-22860000D02*
X53107836Y-22860000D01*
%TO.C,C311*%
X15859420Y-32490000D02*
X16140580Y-32490000D01*
X15859420Y-33510000D02*
X16140580Y-33510000D01*
%TO.C,C623*%
X13892164Y-36640000D02*
X14107836Y-36640000D01*
X13892164Y-37360000D02*
X14107836Y-37360000D01*
%TO.C,C403*%
X34359420Y-30490000D02*
X34640580Y-30490000D01*
X34359420Y-31510000D02*
X34640580Y-31510000D01*
%TO.C,C4106*%
X54892164Y-27140000D02*
X55107836Y-27140000D01*
X54892164Y-27860000D02*
X55107836Y-27860000D01*
%TO.C,R803*%
X78346359Y-39120000D02*
X78653641Y-39120000D01*
X78346359Y-39880000D02*
X78653641Y-39880000D01*
%TO.C,C702*%
X7892164Y-36640000D02*
X8107836Y-36640000D01*
X7892164Y-37360000D02*
X8107836Y-37360000D01*
%TO.C,C456*%
X41892164Y-48640000D02*
X42107836Y-48640000D01*
X41892164Y-49360000D02*
X42107836Y-49360000D01*
%TO.C,C441*%
X47892164Y-47640000D02*
X48107836Y-47640000D01*
X47892164Y-48360000D02*
X48107836Y-48360000D01*
%TO.C,C466*%
X31892164Y-21640000D02*
X32107836Y-21640000D01*
X31892164Y-22360000D02*
X32107836Y-22360000D01*
%TO.C,U702*%
X7090000Y-38440000D02*
X7090000Y-38490000D01*
X7090000Y-39610000D02*
X7090000Y-40390000D01*
X7090000Y-41510000D02*
X7090000Y-41560000D01*
X7090000Y-41560000D02*
X8910000Y-41560000D01*
X8910000Y-38440000D02*
X7090000Y-38440000D01*
X8910000Y-38490000D02*
X8910000Y-38440000D01*
X8910000Y-41560000D02*
X8910000Y-41510000D01*
X9450000Y-38490000D02*
X9210000Y-38160000D01*
X9690000Y-38160000D01*
X9450000Y-38490000D01*
G36*
X9450000Y-38490000D02*
G01*
X9210000Y-38160000D01*
X9690000Y-38160000D01*
X9450000Y-38490000D01*
G37*
%TO.C,C4122*%
X34892164Y-24140000D02*
X35107836Y-24140000D01*
X34892164Y-24860000D02*
X35107836Y-24860000D01*
%TO.C,C630*%
X19392164Y-43640000D02*
X19607836Y-43640000D01*
X19392164Y-44360000D02*
X19607836Y-44360000D01*
%TO.C,C499*%
X62392164Y-25640000D02*
X62607836Y-25640000D01*
X62392164Y-26360000D02*
X62607836Y-26360000D01*
%TO.C,C420*%
X47892164Y-46140000D02*
X48107836Y-46140000D01*
X47892164Y-46860000D02*
X48107836Y-46860000D01*
%TO.C,C484*%
X47892164Y-50640000D02*
X48107836Y-50640000D01*
X47892164Y-51360000D02*
X48107836Y-51360000D01*
%TO.C,C402*%
X55359420Y-32490000D02*
X55640580Y-32490000D01*
X55359420Y-33510000D02*
X55640580Y-33510000D01*
%TO.C,C4107*%
X39892164Y-43140000D02*
X40107836Y-43140000D01*
X39892164Y-43860000D02*
X40107836Y-43860000D01*
%TO.C,C609*%
X27392164Y-42140000D02*
X27607836Y-42140000D01*
X27392164Y-42860000D02*
X27607836Y-42860000D01*
%TO.C,C603*%
X16392164Y-28640000D02*
X16607836Y-28640000D01*
X16392164Y-29360000D02*
X16607836Y-29360000D01*
%TO.C,C467*%
X51859420Y-16490000D02*
X52140580Y-16490000D01*
X51859420Y-17510000D02*
X52140580Y-17510000D01*
%TO.C,R502*%
X44846359Y-51620000D02*
X45153641Y-51620000D01*
X44846359Y-52380000D02*
X45153641Y-52380000D01*
%TO.C,C411*%
X50392164Y-43140000D02*
X50607836Y-43140000D01*
X50392164Y-43860000D02*
X50607836Y-43860000D01*
%TO.C,C432*%
X55392164Y-22640000D02*
X55607836Y-22640000D01*
X55392164Y-23360000D02*
X55607836Y-23360000D01*
%TO.C,C422*%
X57392164Y-39140000D02*
X57607836Y-39140000D01*
X57392164Y-39860000D02*
X57607836Y-39860000D01*
%TO.C,C4113*%
X54892164Y-25640000D02*
X55107836Y-25640000D01*
X54892164Y-26360000D02*
X55107836Y-26360000D01*
%TO.C,C608*%
X22392164Y-42140000D02*
X22607836Y-42140000D01*
X22392164Y-42860000D02*
X22607836Y-42860000D01*
%TO.C,C483*%
X33892164Y-47140000D02*
X34107836Y-47140000D01*
X33892164Y-47860000D02*
X34107836Y-47860000D01*
%TO.C,C410*%
X54892164Y-28640000D02*
X55107836Y-28640000D01*
X54892164Y-29360000D02*
X55107836Y-29360000D01*
%TD*%
%LPC*%
D13*
%TO.C,H1202*%
X94475000Y-3500000D03*
X95068109Y-2068109D03*
X95068109Y-4931891D03*
X96500000Y-1475000D03*
D14*
X96500000Y-3500000D03*
D13*
X96500000Y-5525000D03*
X97931891Y-2068109D03*
X97931891Y-4931891D03*
X98525000Y-3500000D03*
%TD*%
%TO.C,H1204*%
X94475000Y-68500000D03*
X95068109Y-67068109D03*
X95068109Y-69931891D03*
X96500000Y-66475000D03*
D14*
X96500000Y-68500000D03*
D13*
X96500000Y-70525000D03*
X97931891Y-67068109D03*
X97931891Y-69931891D03*
X98525000Y-68500000D03*
%TD*%
%TO.C,H1203*%
X1475000Y-68500000D03*
X2068109Y-67068109D03*
X2068109Y-69931891D03*
X3500000Y-66475000D03*
D14*
X3500000Y-68500000D03*
D13*
X3500000Y-70525000D03*
X4931891Y-67068109D03*
X4931891Y-69931891D03*
X5525000Y-68500000D03*
%TD*%
D15*
%TO.C,J101*%
X9110000Y-66205000D03*
X14890000Y-66205000D03*
D16*
X7680000Y-65675000D03*
D17*
X7680000Y-69855000D03*
D16*
X16320000Y-65675000D03*
D17*
X16320000Y-69855000D03*
%TD*%
D18*
%TO.C,J901*%
X41250000Y-61900000D03*
X26750000Y-61900000D03*
D19*
X41250000Y-67860000D03*
X26750000Y-67860000D03*
%TD*%
D20*
%TO.C,J1301*%
X90905000Y-50300000D03*
X90905000Y-61700000D03*
D21*
X95855000Y-62600000D03*
X95855000Y-60060000D03*
X95855000Y-51940000D03*
X95855000Y-49400000D03*
D22*
X82015000Y-61720000D03*
D23*
X84555000Y-60450000D03*
X82015000Y-59180000D03*
X84555000Y-57910000D03*
X82015000Y-56640000D03*
X84555000Y-55370000D03*
X82015000Y-54090000D03*
X84555000Y-52830000D03*
X82015000Y-51560000D03*
X84555000Y-50290000D03*
D24*
X87855000Y-48250000D03*
X87855000Y-63750000D03*
%TD*%
D25*
%TO.C,J501*%
X50000000Y-68600000D03*
D21*
X52540000Y-68600000D03*
X55080000Y-68600000D03*
%TD*%
D13*
%TO.C,H1201*%
X1475000Y-3500000D03*
X2068109Y-2068109D03*
X2068109Y-4931891D03*
X3500000Y-1475000D03*
D14*
X3500000Y-3500000D03*
D13*
X3500000Y-5525000D03*
X4931891Y-2068109D03*
X4931891Y-4931891D03*
X5525000Y-3500000D03*
%TD*%
D26*
%TO.C,J1001*%
X89655000Y-19500000D03*
D27*
X89655000Y-17000000D03*
X89655000Y-15000000D03*
X89655000Y-12500000D03*
X88155000Y-12000000D03*
X88155000Y-14000000D03*
X88155000Y-16000000D03*
X88155000Y-18000000D03*
X88155000Y-20000000D03*
D28*
X88905000Y-22400000D03*
D29*
X97405000Y-22400000D03*
D28*
X88905000Y-9600000D03*
D29*
X97405000Y-9600000D03*
%TD*%
D30*
%TO.C,J1401*%
X88445000Y-38300000D03*
D31*
X88445000Y-35800000D03*
X88445000Y-33800000D03*
X88445000Y-31300000D03*
X85825000Y-38300000D03*
X85825000Y-35800000D03*
X85825000Y-33800000D03*
X85825000Y-31300000D03*
D32*
X91155000Y-41370000D03*
X91155000Y-28230000D03*
X85475000Y-41370000D03*
X85475000Y-28230000D03*
%TD*%
D33*
%TO.C,C489*%
X56520000Y-19000000D03*
X57480000Y-19000000D03*
%TD*%
%TO.C,C433*%
X50020000Y-46500000D03*
X50980000Y-46500000D03*
%TD*%
%TO.C,C4124*%
X57020000Y-29000000D03*
X57980000Y-29000000D03*
%TD*%
%TO.C,C470*%
X59520000Y-24500000D03*
X60480000Y-24500000D03*
%TD*%
%TO.C,C617*%
X16020000Y-40000000D03*
X16980000Y-40000000D03*
%TD*%
D34*
%TO.C,R916*%
X58990000Y-20000000D03*
X60010000Y-20000000D03*
%TD*%
D33*
%TO.C,C4114*%
X41520000Y-21000000D03*
X42480000Y-21000000D03*
%TD*%
%TO.C,C4104*%
X54520000Y-38000000D03*
X55480000Y-38000000D03*
%TD*%
%TO.C,C424*%
X55020000Y-42500000D03*
X55980000Y-42500000D03*
%TD*%
%TO.C,C4129*%
X52520000Y-43500000D03*
X53480000Y-43500000D03*
%TD*%
%TO.C,C618*%
X22020000Y-22000000D03*
X22980000Y-22000000D03*
%TD*%
%TO.C,C478*%
X62020000Y-37000000D03*
X62980000Y-37000000D03*
%TD*%
D35*
%TO.C,R703*%
X67680000Y-19500000D03*
X68320000Y-19500000D03*
%TD*%
D33*
%TO.C,C443*%
X34020000Y-21500000D03*
X34980000Y-21500000D03*
%TD*%
%TO.C,C498*%
X50020000Y-51000000D03*
X50980000Y-51000000D03*
%TD*%
%TO.C,C4126*%
X50020000Y-21000000D03*
X50980000Y-21000000D03*
%TD*%
%TO.C,C612*%
X19520000Y-23500000D03*
X20480000Y-23500000D03*
%TD*%
%TO.C,C632*%
X17020000Y-23000000D03*
X17980000Y-23000000D03*
%TD*%
D35*
%TO.C,R702*%
X63680000Y-19500000D03*
X64320000Y-19500000D03*
%TD*%
D33*
%TO.C,C434*%
X38520000Y-19500000D03*
X39480000Y-19500000D03*
%TD*%
D36*
%TO.C,C417*%
X41225000Y-19000000D03*
X42775000Y-19000000D03*
%TD*%
D33*
%TO.C,C4103*%
X34520000Y-38000000D03*
X35480000Y-38000000D03*
%TD*%
D36*
%TO.C,C708*%
X4225000Y-37000000D03*
X5775000Y-37000000D03*
%TD*%
D33*
%TO.C,C468*%
X57520000Y-44000000D03*
X58480000Y-44000000D03*
%TD*%
%TO.C,C4108*%
X39020000Y-22500000D03*
X39980000Y-22500000D03*
%TD*%
%TO.C,C704*%
X11020000Y-40000000D03*
X11980000Y-40000000D03*
%TD*%
%TO.C,C474*%
X60020000Y-41500000D03*
X60980000Y-41500000D03*
%TD*%
%TO.C,C471*%
X36020000Y-48000000D03*
X36980000Y-48000000D03*
%TD*%
%TO.C,C487*%
X39020000Y-50500000D03*
X39980000Y-50500000D03*
%TD*%
D34*
%TO.C,R802*%
X68990000Y-48000000D03*
X70010000Y-48000000D03*
%TD*%
D33*
%TO.C,C475*%
X62020000Y-30000000D03*
X62980000Y-30000000D03*
%TD*%
%TO.C,C479*%
X58520000Y-21500000D03*
X59480000Y-21500000D03*
%TD*%
%TO.C,C465*%
X33520000Y-20000000D03*
X34480000Y-20000000D03*
%TD*%
%TO.C,C437*%
X57020000Y-41000000D03*
X57980000Y-41000000D03*
%TD*%
D34*
%TO.C,R509*%
X30990000Y-19000000D03*
X32010000Y-19000000D03*
%TD*%
D37*
%TO.C,J801*%
X75350000Y-53250000D03*
X72650000Y-53000000D03*
X75350000Y-52750000D03*
X72650000Y-52500000D03*
X75350000Y-52250000D03*
X72650000Y-52000000D03*
X75350000Y-51750000D03*
X72650000Y-51500000D03*
X75350000Y-51250000D03*
X72650000Y-51000000D03*
X75350000Y-50750000D03*
X72650000Y-50500000D03*
X75350000Y-50250000D03*
X72650000Y-50000000D03*
X75350000Y-49750000D03*
X72650000Y-49500000D03*
X75350000Y-49250000D03*
X72650000Y-49000000D03*
X75350000Y-48750000D03*
X72650000Y-48500000D03*
X75350000Y-48250000D03*
X72650000Y-48000000D03*
X75350000Y-47750000D03*
X72650000Y-47500000D03*
X75350000Y-47250000D03*
X72650000Y-47000000D03*
X75350000Y-46750000D03*
X72650000Y-46500000D03*
X75350000Y-46250000D03*
X72650000Y-46000000D03*
X75350000Y-45750000D03*
X72650000Y-45500000D03*
X75350000Y-45250000D03*
X72650000Y-45000000D03*
X75350000Y-44750000D03*
X72650000Y-44500000D03*
X75350000Y-44250000D03*
X72650000Y-44000000D03*
X75350000Y-43750000D03*
X72650000Y-43500000D03*
X75350000Y-43250000D03*
X72650000Y-43000000D03*
X75350000Y-42750000D03*
X72650000Y-42500000D03*
X75350000Y-42250000D03*
X72650000Y-42000000D03*
X75350000Y-41750000D03*
X72650000Y-41500000D03*
X75350000Y-41250000D03*
X72650000Y-41000000D03*
X75350000Y-40750000D03*
X72650000Y-40500000D03*
X75350000Y-40250000D03*
X72650000Y-40000000D03*
X75350000Y-39750000D03*
X72650000Y-39500000D03*
X75350000Y-39250000D03*
X72650000Y-39000000D03*
X75350000Y-36750000D03*
X72650000Y-36500000D03*
X75350000Y-36250000D03*
X72650000Y-36000000D03*
X75350000Y-35750000D03*
X72650000Y-35500000D03*
X75350000Y-35250000D03*
X72650000Y-35000000D03*
X75350000Y-34750000D03*
D38*
X74000000Y-55600000D03*
X74000000Y-32400000D03*
%TD*%
D33*
%TO.C,C460*%
X59520000Y-40000000D03*
X60480000Y-40000000D03*
%TD*%
D36*
%TO.C,C404*%
X54725000Y-31000000D03*
X56275000Y-31000000D03*
%TD*%
D33*
%TO.C,C4115*%
X47520000Y-21000000D03*
X48480000Y-21000000D03*
%TD*%
%TO.C,C454*%
X57520000Y-42500000D03*
X58480000Y-42500000D03*
%TD*%
%TO.C,C493*%
X63020000Y-33000000D03*
X63980000Y-33000000D03*
%TD*%
%TO.C,C463*%
X39020000Y-49000000D03*
X39980000Y-49000000D03*
%TD*%
%TO.C,C629*%
X13520000Y-38500000D03*
X14480000Y-38500000D03*
%TD*%
D34*
%TO.C,R505*%
X41990000Y-52000000D03*
X43010000Y-52000000D03*
%TD*%
D33*
%TO.C,C492*%
X60020000Y-43000000D03*
X60980000Y-43000000D03*
%TD*%
%TO.C,C453*%
X31520000Y-23500000D03*
X32480000Y-23500000D03*
%TD*%
%TO.C,C4125*%
X39020000Y-21000000D03*
X39980000Y-21000000D03*
%TD*%
D34*
%TO.C,R711*%
X8715000Y-59030000D03*
X9735000Y-59030000D03*
%TD*%
D36*
%TO.C,C621*%
X12725000Y-29000000D03*
X14275000Y-29000000D03*
%TD*%
D35*
%TO.C,R704*%
X63856776Y-22676776D03*
X64496776Y-22676776D03*
%TD*%
D33*
%TO.C,C703*%
X4020000Y-40000000D03*
X4980000Y-40000000D03*
%TD*%
D36*
%TO.C,C803*%
X67725000Y-46000000D03*
X69275000Y-46000000D03*
%TD*%
D33*
%TO.C,C606*%
X24520000Y-42500000D03*
X25480000Y-42500000D03*
%TD*%
%TO.C,C4117*%
X44520000Y-20500000D03*
X45480000Y-20500000D03*
%TD*%
%TO.C,C455*%
X38520000Y-18000000D03*
X39480000Y-18000000D03*
%TD*%
%TO.C,C4127*%
X36520000Y-22500000D03*
X37480000Y-22500000D03*
%TD*%
%TO.C,C709*%
X11020000Y-38500000D03*
X11980000Y-38500000D03*
%TD*%
%TO.C,C624*%
X12520000Y-33000000D03*
X13480000Y-33000000D03*
%TD*%
%TO.C,C486*%
X62020000Y-38500000D03*
X62980000Y-38500000D03*
%TD*%
%TO.C,C4119*%
X54520000Y-41000000D03*
X55480000Y-41000000D03*
%TD*%
D35*
%TO.C,R707*%
X65856776Y-24176776D03*
X66496776Y-24176776D03*
%TD*%
D33*
%TO.C,C425*%
X57020000Y-26000000D03*
X57980000Y-26000000D03*
%TD*%
%TO.C,C450*%
X50020000Y-48000000D03*
X50980000Y-48000000D03*
%TD*%
%TO.C,C405*%
X34520000Y-35000000D03*
X35480000Y-35000000D03*
%TD*%
%TO.C,C413*%
X50020000Y-45000000D03*
X50980000Y-45000000D03*
%TD*%
%TO.C,C633*%
X13520000Y-27000000D03*
X14480000Y-27000000D03*
%TD*%
D34*
%TO.C,R1002*%
X50490000Y-15000000D03*
X51510000Y-15000000D03*
%TD*%
D33*
%TO.C,C627*%
X12520000Y-31500000D03*
X13480000Y-31500000D03*
%TD*%
D34*
%TO.C,R506*%
X52490000Y-50500000D03*
X53510000Y-50500000D03*
%TD*%
D33*
%TO.C,C421*%
X44520000Y-19000000D03*
X45480000Y-19000000D03*
%TD*%
%TO.C,C477*%
X52520000Y-49000000D03*
X53480000Y-49000000D03*
%TD*%
%TO.C,C4116*%
X47520000Y-45000000D03*
X48480000Y-45000000D03*
%TD*%
%TO.C,C611*%
X16020000Y-38500000D03*
X16980000Y-38500000D03*
%TD*%
%TO.C,C4109*%
X50020000Y-22500000D03*
X50980000Y-22500000D03*
%TD*%
D36*
%TO.C,C444*%
X55225000Y-21000000D03*
X56775000Y-21000000D03*
%TD*%
D33*
%TO.C,C707*%
X63020000Y-21000000D03*
X63980000Y-21000000D03*
%TD*%
%TO.C,C607*%
X22020000Y-23500000D03*
X22980000Y-23500000D03*
%TD*%
%TO.C,C447*%
X36020000Y-19500000D03*
X36980000Y-19500000D03*
%TD*%
%TO.C,C4100*%
X41520000Y-22500000D03*
X42480000Y-22500000D03*
%TD*%
%TO.C,C4121*%
X39520000Y-45000000D03*
X40480000Y-45000000D03*
%TD*%
D36*
%TO.C,C615*%
X24225000Y-44500000D03*
X25775000Y-44500000D03*
%TD*%
D33*
%TO.C,C622*%
X27520000Y-44000000D03*
X28480000Y-44000000D03*
%TD*%
D35*
%TO.C,R706*%
X65930000Y-18000000D03*
X66570000Y-18000000D03*
%TD*%
D33*
%TO.C,C491*%
X60020000Y-23000000D03*
X60980000Y-23000000D03*
%TD*%
D34*
%TO.C,R510*%
X61990000Y-24500000D03*
X63010000Y-24500000D03*
%TD*%
D33*
%TO.C,C4120*%
X57020000Y-36500000D03*
X57980000Y-36500000D03*
%TD*%
%TO.C,C439*%
X55020000Y-44000000D03*
X55980000Y-44000000D03*
%TD*%
D34*
%TO.C,R710*%
X67490000Y-24000000D03*
X68510000Y-24000000D03*
%TD*%
D39*
%TO.C,H802*%
X44000000Y-44000000D03*
%TD*%
D33*
%TO.C,C485*%
X36520000Y-49500000D03*
X37480000Y-49500000D03*
%TD*%
D34*
%TO.C,R601*%
X26990000Y-20500000D03*
X28010000Y-20500000D03*
%TD*%
D36*
%TO.C,C446*%
X52725000Y-47000000D03*
X54275000Y-47000000D03*
%TD*%
D33*
%TO.C,C423*%
X37020000Y-45000000D03*
X37980000Y-45000000D03*
%TD*%
%TO.C,C449*%
X59520000Y-38500000D03*
X60480000Y-38500000D03*
%TD*%
%TO.C,C4118*%
X57020000Y-35000000D03*
X57980000Y-35000000D03*
%TD*%
%TO.C,C620*%
X21520000Y-44000000D03*
X22480000Y-44000000D03*
%TD*%
%TO.C,C625*%
X16020000Y-24500000D03*
X16980000Y-24500000D03*
%TD*%
%TO.C,C628*%
X12520000Y-34500000D03*
X13480000Y-34500000D03*
%TD*%
%TO.C,C481*%
X29020000Y-23500000D03*
X29980000Y-23500000D03*
%TD*%
D34*
%TO.C,R804*%
X68990000Y-39000000D03*
X70010000Y-39000000D03*
%TD*%
D33*
%TO.C,C497*%
X58520000Y-45500000D03*
X59480000Y-45500000D03*
%TD*%
D34*
%TO.C,R503*%
X62990000Y-28500000D03*
X64010000Y-28500000D03*
%TD*%
D33*
%TO.C,C473*%
X38520000Y-16500000D03*
X39480000Y-16500000D03*
%TD*%
%TO.C,C458*%
X59520000Y-26000000D03*
X60480000Y-26000000D03*
%TD*%
D36*
%TO.C,C401*%
X44225000Y-22500000D03*
X45775000Y-22500000D03*
%TD*%
D33*
%TO.C,C457*%
X57520000Y-23000000D03*
X58480000Y-23000000D03*
%TD*%
%TO.C,C480*%
X56020000Y-47000000D03*
X56980000Y-47000000D03*
%TD*%
D34*
%TO.C,R701*%
X67990000Y-21000000D03*
X69010000Y-21000000D03*
%TD*%
D33*
%TO.C,C4111*%
X54520000Y-39500000D03*
X55480000Y-39500000D03*
%TD*%
%TO.C,C430*%
X52520000Y-45000000D03*
X53480000Y-45000000D03*
%TD*%
%TO.C,C806*%
X78020000Y-41000000D03*
X78980000Y-41000000D03*
%TD*%
%TO.C,C488*%
X31020000Y-20500000D03*
X31980000Y-20500000D03*
%TD*%
%TO.C,C494*%
X36020000Y-16500000D03*
X36980000Y-16500000D03*
%TD*%
%TO.C,C495*%
X63020000Y-31500000D03*
X63980000Y-31500000D03*
%TD*%
%TO.C,C408*%
X54520000Y-36500000D03*
X55480000Y-36500000D03*
%TD*%
%TO.C,C440*%
X59520000Y-30000000D03*
X60480000Y-30000000D03*
%TD*%
D34*
%TO.C,R713*%
X11215000Y-59030000D03*
X12235000Y-59030000D03*
%TD*%
D33*
%TO.C,C472*%
X50020000Y-49500000D03*
X50980000Y-49500000D03*
%TD*%
D36*
%TO.C,C312*%
X33225000Y-33000000D03*
X34775000Y-33000000D03*
%TD*%
%TO.C,C436*%
X59725000Y-35000000D03*
X61275000Y-35000000D03*
%TD*%
D33*
%TO.C,C452*%
X60520000Y-31500000D03*
X61480000Y-31500000D03*
%TD*%
D36*
%TO.C,C315*%
X67725000Y-44000000D03*
X69275000Y-44000000D03*
%TD*%
%TO.C,C445*%
X59725000Y-28000000D03*
X61275000Y-28000000D03*
%TD*%
D33*
%TO.C,C415*%
X58020000Y-33000000D03*
X58980000Y-33000000D03*
%TD*%
%TO.C,C634*%
X22020000Y-20500000D03*
X22980000Y-20500000D03*
%TD*%
D34*
%TO.C,R602*%
X21490000Y-45500000D03*
X22510000Y-45500000D03*
%TD*%
D33*
%TO.C,C626*%
X19520000Y-22000000D03*
X20480000Y-22000000D03*
%TD*%
%TO.C,C706*%
X66294764Y-25138605D03*
X67254764Y-25138605D03*
%TD*%
%TO.C,C407*%
X34520000Y-36500000D03*
X35480000Y-36500000D03*
%TD*%
%TO.C,C461*%
X47520000Y-49500000D03*
X48480000Y-49500000D03*
%TD*%
%TO.C,C504*%
X38520000Y-15000000D03*
X39480000Y-15000000D03*
%TD*%
%TO.C,C482*%
X33520000Y-18500000D03*
X34480000Y-18500000D03*
%TD*%
%TO.C,C613*%
X19520000Y-42500000D03*
X20480000Y-42500000D03*
%TD*%
%TO.C,C496*%
X63020000Y-34500000D03*
X63980000Y-34500000D03*
%TD*%
%TO.C,C631*%
X24520000Y-20500000D03*
X25480000Y-20500000D03*
%TD*%
%TO.C,C805*%
X78020000Y-46000000D03*
X78980000Y-46000000D03*
%TD*%
%TO.C,C412*%
X37020000Y-43500000D03*
X37980000Y-43500000D03*
%TD*%
D36*
%TO.C,C804*%
X67725000Y-41000000D03*
X69275000Y-41000000D03*
%TD*%
D35*
%TO.C,R708*%
X63293728Y-17311179D03*
X63933728Y-17311179D03*
%TD*%
D33*
%TO.C,C604*%
X16020000Y-37000000D03*
X16980000Y-37000000D03*
%TD*%
%TO.C,C442*%
X59520000Y-37000000D03*
X60480000Y-37000000D03*
%TD*%
%TO.C,C4123*%
X54520000Y-24500000D03*
X55480000Y-24500000D03*
%TD*%
D36*
%TO.C,C427*%
X38725000Y-47000000D03*
X40275000Y-47000000D03*
%TD*%
D33*
%TO.C,C490*%
X54520000Y-17500000D03*
X55480000Y-17500000D03*
%TD*%
%TO.C,C605*%
X24520000Y-23500000D03*
X25480000Y-23500000D03*
%TD*%
%TO.C,C4102*%
X47520000Y-43500000D03*
X48480000Y-43500000D03*
%TD*%
D34*
%TO.C,R801*%
X77990000Y-47500000D03*
X79010000Y-47500000D03*
%TD*%
D36*
%TO.C,C602*%
X15225000Y-35000000D03*
X16775000Y-35000000D03*
%TD*%
D33*
%TO.C,C503*%
X62020000Y-40000000D03*
X62980000Y-40000000D03*
%TD*%
D36*
%TO.C,C435*%
X50725000Y-19000000D03*
X52275000Y-19000000D03*
%TD*%
D33*
%TO.C,C431*%
X34020000Y-23000000D03*
X34980000Y-23000000D03*
%TD*%
D36*
%TO.C,C459*%
X44225000Y-50000000D03*
X45775000Y-50000000D03*
%TD*%
D33*
%TO.C,C4105*%
X34520000Y-27500000D03*
X35480000Y-27500000D03*
%TD*%
%TO.C,C610*%
X16020000Y-27500000D03*
X16980000Y-27500000D03*
%TD*%
%TO.C,C428*%
X36520000Y-21000000D03*
X37480000Y-21000000D03*
%TD*%
D34*
%TO.C,R716*%
X13715000Y-59030000D03*
X14735000Y-59030000D03*
%TD*%
D33*
%TO.C,C409*%
X34520000Y-29000000D03*
X35480000Y-29000000D03*
%TD*%
%TO.C,C438*%
X57020000Y-24500000D03*
X57980000Y-24500000D03*
%TD*%
%TO.C,C469*%
X36020000Y-18000000D03*
X36980000Y-18000000D03*
%TD*%
D34*
%TO.C,R715*%
X3715000Y-59030000D03*
X4735000Y-59030000D03*
%TD*%
D33*
%TO.C,C4112*%
X34520000Y-26000000D03*
X35480000Y-26000000D03*
%TD*%
%TO.C,C4110*%
X34520000Y-39500000D03*
X35480000Y-39500000D03*
%TD*%
D36*
%TO.C,C316*%
X78725000Y-44000000D03*
X80275000Y-44000000D03*
%TD*%
D40*
%TO.C,J701*%
X16950000Y-47255000D03*
X16950000Y-48355000D03*
X16950000Y-49455000D03*
X16950000Y-50555000D03*
X16950000Y-51655000D03*
X16950000Y-52755000D03*
X16950000Y-53855000D03*
X16950000Y-54955000D03*
X16950000Y-55905000D03*
D41*
X6450000Y-56855000D03*
D42*
X2300000Y-56855000D03*
D43*
X12650000Y-56855000D03*
X16950000Y-45705000D03*
D44*
X1850000Y-43355000D03*
%TD*%
D33*
%TO.C,C448*%
X36020000Y-46500000D03*
X36980000Y-46500000D03*
%TD*%
%TO.C,C701*%
X65520000Y-21000000D03*
X66480000Y-21000000D03*
%TD*%
%TO.C,C419*%
X57020000Y-27500000D03*
X57980000Y-27500000D03*
%TD*%
D35*
%TO.C,R709*%
X67680000Y-18500000D03*
X68320000Y-18500000D03*
%TD*%
D36*
%TO.C,C418*%
X47225000Y-19000000D03*
X48775000Y-19000000D03*
%TD*%
D34*
%TO.C,R508*%
X33490000Y-49000000D03*
X34510000Y-49000000D03*
%TD*%
D33*
%TO.C,C462*%
X54020000Y-19000000D03*
X54980000Y-19000000D03*
%TD*%
%TO.C,C451*%
X60520000Y-33000000D03*
X61480000Y-33000000D03*
%TD*%
%TO.C,C614*%
X24520000Y-22000000D03*
X25480000Y-22000000D03*
%TD*%
%TO.C,C416*%
X58020000Y-31500000D03*
X58980000Y-31500000D03*
%TD*%
D35*
%TO.C,C801*%
X69180000Y-42500000D03*
X69820000Y-42500000D03*
%TD*%
D33*
%TO.C,C429*%
X52520000Y-21000000D03*
X53480000Y-21000000D03*
%TD*%
D34*
%TO.C,R712*%
X6215000Y-59030000D03*
X7235000Y-59030000D03*
%TD*%
%TO.C,R714*%
X13215000Y-41030000D03*
X14235000Y-41030000D03*
%TD*%
D33*
%TO.C,C406*%
X54520000Y-35000000D03*
X55480000Y-35000000D03*
%TD*%
%TO.C,C476*%
X41520000Y-50500000D03*
X42480000Y-50500000D03*
%TD*%
%TO.C,C705*%
X65128913Y-17030779D03*
X66088913Y-17030779D03*
%TD*%
%TO.C,C414*%
X57020000Y-38000000D03*
X57980000Y-38000000D03*
%TD*%
D36*
%TO.C,C426*%
X44225000Y-48000000D03*
X45775000Y-48000000D03*
%TD*%
D34*
%TO.C,R504*%
X54990000Y-49000000D03*
X56010000Y-49000000D03*
%TD*%
D33*
%TO.C,C4101*%
X47520000Y-22500000D03*
X48480000Y-22500000D03*
%TD*%
D35*
%TO.C,R705*%
X67680000Y-22500000D03*
X68320000Y-22500000D03*
%TD*%
D34*
%TO.C,R507*%
X33490000Y-17000000D03*
X34510000Y-17000000D03*
%TD*%
D36*
%TO.C,C601*%
X15225000Y-31000000D03*
X16775000Y-31000000D03*
%TD*%
D33*
%TO.C,C464*%
X56020000Y-45500000D03*
X56980000Y-45500000D03*
%TD*%
%TO.C,C616*%
X16020000Y-26000000D03*
X16980000Y-26000000D03*
%TD*%
%TO.C,C619*%
X27020000Y-22000000D03*
X27980000Y-22000000D03*
%TD*%
D35*
%TO.C,C802*%
X78180000Y-42500000D03*
X78820000Y-42500000D03*
%TD*%
D33*
%TO.C,C4128*%
X52520000Y-22500000D03*
X53480000Y-22500000D03*
%TD*%
D36*
%TO.C,C311*%
X15225000Y-33000000D03*
X16775000Y-33000000D03*
%TD*%
D33*
%TO.C,C623*%
X13520000Y-37000000D03*
X14480000Y-37000000D03*
%TD*%
D36*
%TO.C,C403*%
X33725000Y-31000000D03*
X35275000Y-31000000D03*
%TD*%
D33*
%TO.C,C4106*%
X54520000Y-27500000D03*
X55480000Y-27500000D03*
%TD*%
D34*
%TO.C,R803*%
X77990000Y-39500000D03*
X79010000Y-39500000D03*
%TD*%
D33*
%TO.C,C702*%
X7520000Y-37000000D03*
X8480000Y-37000000D03*
%TD*%
%TO.C,C456*%
X41520000Y-49000000D03*
X42480000Y-49000000D03*
%TD*%
%TO.C,C441*%
X47520000Y-48000000D03*
X48480000Y-48000000D03*
%TD*%
%TO.C,C466*%
X31520000Y-22000000D03*
X32480000Y-22000000D03*
%TD*%
D45*
%TO.C,U702*%
X9137500Y-39050000D03*
X9137500Y-40000000D03*
X9137500Y-40950000D03*
X6862500Y-40950000D03*
X6862500Y-39050000D03*
%TD*%
D39*
%TO.C,H801*%
X32000000Y-44000000D03*
%TD*%
D33*
%TO.C,C4122*%
X34520000Y-24500000D03*
X35480000Y-24500000D03*
%TD*%
%TO.C,C630*%
X19020000Y-44000000D03*
X19980000Y-44000000D03*
%TD*%
%TO.C,C499*%
X62020000Y-26000000D03*
X62980000Y-26000000D03*
%TD*%
%TO.C,C420*%
X47520000Y-46500000D03*
X48480000Y-46500000D03*
%TD*%
%TO.C,C484*%
X47520000Y-51000000D03*
X48480000Y-51000000D03*
%TD*%
D36*
%TO.C,C402*%
X54725000Y-33000000D03*
X56275000Y-33000000D03*
%TD*%
D33*
%TO.C,C4107*%
X39520000Y-43500000D03*
X40480000Y-43500000D03*
%TD*%
%TO.C,C609*%
X27020000Y-42500000D03*
X27980000Y-42500000D03*
%TD*%
%TO.C,C603*%
X16020000Y-29000000D03*
X16980000Y-29000000D03*
%TD*%
D36*
%TO.C,C467*%
X51225000Y-17000000D03*
X52775000Y-17000000D03*
%TD*%
D34*
%TO.C,R502*%
X44490000Y-52000000D03*
X45510000Y-52000000D03*
%TD*%
D33*
%TO.C,C411*%
X50020000Y-43500000D03*
X50980000Y-43500000D03*
%TD*%
%TO.C,C432*%
X55020000Y-23000000D03*
X55980000Y-23000000D03*
%TD*%
%TO.C,C422*%
X57020000Y-39500000D03*
X57980000Y-39500000D03*
%TD*%
%TO.C,C4113*%
X54520000Y-26000000D03*
X55480000Y-26000000D03*
%TD*%
%TO.C,C608*%
X22020000Y-42500000D03*
X22980000Y-42500000D03*
%TD*%
%TO.C,C483*%
X33520000Y-47500000D03*
X34480000Y-47500000D03*
%TD*%
%TO.C,C410*%
X54520000Y-29000000D03*
X55480000Y-29000000D03*
%TD*%
%LPD*%
M02*
