%TF.GenerationSoftware,KiCad,Pcbnew,9.0.9-9.0.9~ubuntu24.04.1*%
%TF.CreationDate,2026-10-04T04:00:44+00:00*%
%TF.ProjectId,rk3576-sbc,726b3335-3736-42d7-9362-632e6b696361,rev?*%
%TF.SameCoordinates,Original*%
%TF.FileFunction,Copper,L1,Top*%
%TF.FilePolarity,Positive*%
%FSLAX46Y46*%
G04 Gerber Fmt 4.6, Leading zero omitted, Abs format (unit mm)*
G04 Created by KiCad (PCBNEW 9.0.9-9.0.9~ubuntu24.04.1) date 2026-10-04 04:00:44*
%MOMM*%
%LPD*%
G01*
G04 APERTURE LIST*
G04 Aperture macros list*
%AMRoundRect*
0 Rectangle with rounded corners*
0 $1 Rounding radius*
0 $2 $3 $4 $5 $6 $7 $8 $9 X,Y pos of 4 corners*
0 Add a 4 corners polygon primitive as box body*
4,1,4,$2,$3,$4,$5,$6,$7,$8,$9,$2,$3,0*
0 Add four circle primitives for the rounded corners*
1,1,$1+$1,$2,$3*
1,1,$1+$1,$4,$5*
1,1,$1+$1,$6,$7*
1,1,$1+$1,$8,$9*
0 Add four rect primitives between the rounded corners*
20,1,$1+$1,$2,$3,$4,$5,0*
20,1,$1+$1,$4,$5,$6,$7,0*
20,1,$1+$1,$6,$7,$8,$9,0*
20,1,$1+$1,$8,$9,$2,$3,0*%
G04 Aperture macros list end*
%TA.AperFunction,SMDPad,CuDef*%
%ADD10RoundRect,0.245000X-0.245000X-1.455000X0.245000X-1.455000X0.245000X1.455000X-0.245000X1.455000X0*%
%TD*%
%TA.AperFunction,SMDPad,CuDef*%
%ADD11R,0.600000X1.450000*%
%TD*%
%TA.AperFunction,SMDPad,CuDef*%
%ADD12R,0.300000X1.450000*%
%TD*%
%TA.AperFunction,HeatsinkPad*%
%ADD13O,1.000000X2.100000*%
%TD*%
%TA.AperFunction,HeatsinkPad*%
%ADD14O,1.000000X1.600000*%
%TD*%
%TA.AperFunction,SMDPad,CuDef*%
%ADD15RoundRect,0.135000X-0.135000X-0.185000X0.135000X-0.185000X0.135000X0.185000X-0.135000X0.185000X0*%
%TD*%
%TA.AperFunction,SMDPad,CuDef*%
%ADD16RoundRect,0.225000X-0.225000X-0.250000X0.225000X-0.250000X0.225000X0.250000X-0.225000X0.250000X0*%
%TD*%
%TA.AperFunction,SMDPad,CuDef*%
%ADD17RoundRect,0.140000X-0.140000X-0.170000X0.140000X-0.170000X0.140000X0.170000X-0.140000X0.170000X0*%
%TD*%
%TA.AperFunction,SMDPad,CuDef*%
%ADD18RoundRect,0.250000X-0.450000X-0.350000X0.450000X-0.350000X0.450000X0.350000X-0.450000X0.350000X0*%
%TD*%
%TA.AperFunction,SMDPad,CuDef*%
%ADD19RoundRect,0.250000X-0.300000X-1.600000X0.300000X-1.600000X0.300000X1.600000X-0.300000X1.600000X0*%
%TD*%
%TA.AperFunction,SMDPad,CuDef*%
%ADD20RoundRect,0.150000X-0.512500X-0.150000X0.512500X-0.150000X0.512500X0.150000X-0.512500X0.150000X0*%
%TD*%
%TA.AperFunction,SMDPad,CuDef*%
%ADD21RoundRect,0.150000X-0.587500X-0.150000X0.587500X-0.150000X0.587500X0.150000X-0.587500X0.150000X0*%
%TD*%
%TA.AperFunction,SMDPad,CuDef*%
%ADD22RoundRect,0.100000X-0.130000X-0.100000X0.130000X-0.100000X0.130000X0.100000X-0.130000X0.100000X0*%
%TD*%
%TA.AperFunction,SMDPad,CuDef*%
%ADD23RoundRect,0.075000X-0.200000X0.075000X-0.200000X-0.075000X0.200000X-0.075000X0.200000X0.075000X0*%
%TD*%
%TA.AperFunction,ComponentPad*%
%ADD24RoundRect,0.250000X0.350000X-0.350000X0.350000X0.350000X-0.350000X0.350000X-0.350000X-0.350000X0*%
%TD*%
%TA.AperFunction,ComponentPad*%
%ADD25C,1.200000*%
%TD*%
%TA.AperFunction,ComponentPad*%
%ADD26O,2.400000X1.200000*%
%TD*%
%TA.AperFunction,ComponentPad*%
%ADD27O,2.100000X1.200000*%
%TD*%
%TA.AperFunction,SMDPad,CuDef*%
%ADD28RoundRect,0.225000X-0.225000X-0.375000X0.225000X-0.375000X0.225000X0.375000X-0.225000X0.375000X0*%
%TD*%
%TA.AperFunction,ComponentPad*%
%ADD29C,0.800000*%
%TD*%
%TA.AperFunction,ComponentPad*%
%ADD30C,5.400000*%
%TD*%
%TA.AperFunction,SMDPad,CuDef*%
%ADD31RoundRect,0.050000X-0.362500X-0.050000X0.362500X-0.050000X0.362500X0.050000X-0.362500X0.050000X0*%
%TD*%
%TA.AperFunction,SMDPad,CuDef*%
%ADD32RoundRect,0.050000X-0.050000X-0.362500X0.050000X-0.362500X0.050000X0.362500X-0.050000X0.362500X0*%
%TD*%
%TA.AperFunction,HeatsinkPad*%
%ADD33C,0.500000*%
%TD*%
%TA.AperFunction,HeatsinkPad*%
%ADD34R,5.200000X5.200000*%
%TD*%
%TA.AperFunction,SMDPad,CuDef*%
%ADD35C,0.250000*%
%TD*%
%TA.AperFunction,SMDPad,CuDef*%
%ADD36R,1.050000X0.650000*%
%TD*%
%TA.AperFunction,SMDPad,CuDef*%
%ADD37RoundRect,0.250000X-0.250000X-0.475000X0.250000X-0.475000X0.250000X0.475000X-0.250000X0.475000X0*%
%TD*%
%TA.AperFunction,SMDPad,CuDef*%
%ADD38RoundRect,0.218750X-0.218750X-0.256250X0.218750X-0.256250X0.218750X0.256250X-0.218750X0.256250X0*%
%TD*%
%TA.AperFunction,SMDPad,CuDef*%
%ADD39C,0.280000*%
%TD*%
%TA.AperFunction,SMDPad,CuDef*%
%ADD40C,1.000000*%
%TD*%
%TA.AperFunction,SMDPad,CuDef*%
%ADD41RoundRect,0.250000X-0.375000X-0.625000X0.375000X-0.625000X0.375000X0.625000X-0.375000X0.625000X0*%
%TD*%
%TA.AperFunction,SMDPad,CuDef*%
%ADD42C,0.350000*%
%TD*%
%TA.AperFunction,ComponentPad*%
%ADD43R,1.700000X1.700000*%
%TD*%
%TA.AperFunction,ComponentPad*%
%ADD44C,1.700000*%
%TD*%
%TA.AperFunction,SMDPad,CuDef*%
%ADD45RoundRect,0.250000X-0.300000X-0.300000X0.300000X-0.300000X0.300000X0.300000X-0.300000X0.300000X0*%
%TD*%
%TA.AperFunction,SMDPad,CuDef*%
%ADD46R,0.300000X2.600000*%
%TD*%
%TA.AperFunction,ComponentPad*%
%ADD47O,1.500000X3.300000*%
%TD*%
%TA.AperFunction,ComponentPad*%
%ADD48O,1.500000X2.300000*%
%TD*%
G04 APERTURE END LIST*
D10*
%TO.P,L202,1*%
%TO.N,PMIC_SW2*%
X46315000Y-8000000D03*
%TO.P,L202,2*%
%TO.N,VDD_NPU_S0*%
X48685000Y-8000000D03*
%TD*%
D11*
%TO.P,J101,A1*%
%TO.N,GND*%
X10750000Y-48760000D03*
%TO.P,J101,A4*%
%TO.N,VBUS_IN*%
X11550000Y-48760000D03*
D12*
%TO.P,J101,A5*%
%TO.N,USBC_CC1*%
X12750000Y-48760000D03*
%TO.P,J101,A6*%
%TO.N,USBC_DP*%
X13750000Y-48760000D03*
%TO.P,J101,A7*%
%TO.N,USBC_DM*%
X14250000Y-48760000D03*
%TO.P,J101,A8*%
%TO.N,unconnected-(J101-SBU1-PadA8)*%
X15250000Y-48760000D03*
D11*
%TO.P,J101,A9*%
%TO.N,VBUS_IN*%
X16450000Y-48760000D03*
%TO.P,J101,A12*%
%TO.N,GND*%
X17250000Y-48760000D03*
%TO.P,J101,B1*%
X17250000Y-48760000D03*
%TO.P,J101,B4*%
%TO.N,VBUS_IN*%
X16450000Y-48760000D03*
D12*
%TO.P,J101,B5*%
%TO.N,USBC_CC2*%
X15750000Y-48760000D03*
%TO.P,J101,B6*%
%TO.N,USBC_DP*%
X14750000Y-48760000D03*
%TO.P,J101,B7*%
%TO.N,USBC_DM*%
X13250000Y-48760000D03*
%TO.P,J101,B8*%
%TO.N,unconnected-(J101-SBU2-PadB8)*%
X12250000Y-48760000D03*
D11*
%TO.P,J101,B9*%
%TO.N,VBUS_IN*%
X11550000Y-48760000D03*
%TO.P,J101,B12*%
%TO.N,GND*%
X10750000Y-48760000D03*
D13*
%TO.P,J101,S1*%
X9680000Y-49675000D03*
D14*
X9680000Y-53855000D03*
D13*
X18320000Y-49675000D03*
D14*
X18320000Y-53855000D03*
%TD*%
D15*
%TO.P,R211,1*%
%TO.N,PMIC_SCL*%
X49490000Y-35500000D03*
%TO.P,R211,2*%
%TO.N,VCC_1V8_S3*%
X50510000Y-35500000D03*
%TD*%
D16*
%TO.P,C228,1*%
%TO.N,VCC5V0_SYS_S5*%
X53725000Y-27500000D03*
%TO.P,C228,2*%
%TO.N,GND*%
X55275000Y-27500000D03*
%TD*%
D17*
%TO.P,C309,1*%
%TO.N,BUCK_VDD2L_BST*%
X5520000Y-21000000D03*
%TO.P,C309,2*%
%TO.N,BUCK_VDD2L_SW*%
X6480000Y-21000000D03*
%TD*%
%TO.P,C243,1*%
%TO.N,VCCA1V8_PLDO2_S0*%
X45520000Y-1500000D03*
%TO.P,C243,2*%
%TO.N,GND*%
X46480000Y-1500000D03*
%TD*%
D18*
%TO.P,Y501,1*%
%TO.N,OSC_24M_IN*%
X52400000Y-37350000D03*
%TO.P,Y501,2*%
%TO.N,GND*%
X54600000Y-37350000D03*
%TO.P,Y501,3*%
%TO.N,OSC_24M_OUT*%
X54600000Y-35650000D03*
%TO.P,Y501,4*%
%TO.N,GND*%
X52400000Y-35650000D03*
%TD*%
D15*
%TO.P,R907,1*%
%TO.N,HDMI_D3P_C*%
X19490000Y-35000000D03*
%TO.P,R907,2*%
%TO.N,HDMI_D3_TERM*%
X20510000Y-35000000D03*
%TD*%
D16*
%TO.P,C230,1*%
%TO.N,VDD2H_DDR_S3*%
X13225000Y-11500000D03*
%TO.P,C230,2*%
%TO.N,GND*%
X14775000Y-11500000D03*
%TD*%
D19*
%TO.P,L303,1*%
%TO.N,BUCK_VDD2L_SW*%
X8000000Y-25500000D03*
%TO.P,L303,2*%
%TO.N,VDD2L_DDR_S3*%
X11000000Y-25500000D03*
%TD*%
D15*
%TO.P,R210,1*%
%TO.N,PMIC_FB9*%
X44990000Y-36500000D03*
%TO.P,R210,2*%
%TO.N,GND*%
X46010000Y-36500000D03*
%TD*%
D20*
%TO.P,U301,1*%
%TO.N,GND*%
X8362500Y-7050000D03*
%TO.P,U301,2*%
%TO.N,BUCK_2V0_SW*%
X8362500Y-8000000D03*
%TO.P,U301,3*%
%TO.N,VCC5V0_SYS_S5*%
X8362500Y-8950000D03*
%TO.P,U301,4*%
%TO.N,BUCK_2V0_FB*%
X10637500Y-8950000D03*
%TO.P,U301,5*%
%TO.N,VCC5V0_SYS_S5*%
X10637500Y-8000000D03*
%TO.P,U301,6*%
%TO.N,BUCK_2V0_BST*%
X10637500Y-7050000D03*
%TD*%
D21*
%TO.P,Q906,1*%
%TO.N,VCC_3V3_S0*%
X30562500Y-39975000D03*
%TO.P,Q906,2*%
%TO.N,HDMI_SDA*%
X30562500Y-41875000D03*
%TO.P,Q906,3*%
%TO.N,HDMI_SDA_5V*%
X32437500Y-40925000D03*
%TD*%
D22*
%TO.P,C904,1*%
%TO.N,HDMI_TX_D1N*%
X50180000Y-40000000D03*
%TO.P,C904,2*%
%TO.N,HDMI_D1N_C*%
X50820000Y-40000000D03*
%TD*%
D15*
%TO.P,R101,1*%
%TO.N,USBC_CC1*%
X13490000Y-46305000D03*
%TO.P,R101,2*%
%TO.N,GND*%
X14510000Y-46305000D03*
%TD*%
D17*
%TO.P,C910,1*%
%TO.N,VCC5V_HDMI*%
X27520000Y-42425000D03*
%TO.P,C910,2*%
%TO.N,GND*%
X28480000Y-42425000D03*
%TD*%
D15*
%TO.P,R915,1*%
%TO.N,HDMI_HPD_5V*%
X45490000Y-48425000D03*
%TO.P,R915,2*%
%TO.N,HDMI_HPD*%
X46510000Y-48425000D03*
%TD*%
D22*
%TO.P,C902,1*%
%TO.N,HDMI_TX_D0N*%
X46180000Y-40000000D03*
%TO.P,C902,2*%
%TO.N,HDMI_D0N_C*%
X46820000Y-40000000D03*
%TD*%
D23*
%TO.P,U901,1*%
%TO.N,HDMI_D2P_C*%
X48115000Y-40000000D03*
%TO.P,U901,2*%
%TO.N,HDMI_D2N_C*%
X48115000Y-40500000D03*
%TO.P,U901,3*%
%TO.N,GND*%
X48115000Y-41000000D03*
%TO.P,U901,4*%
%TO.N,HDMI_D1P_C*%
X48115000Y-41500000D03*
%TO.P,U901,5*%
%TO.N,HDMI_D1N_C*%
X48115000Y-42000000D03*
%TO.P,U901,6*%
%TO.N,unconnected-(U901-NC-Pad6)*%
X48885000Y-42000000D03*
%TO.P,U901,7*%
%TO.N,unconnected-(U901-NC-Pad7)*%
X48885000Y-41500000D03*
%TO.P,U901,8*%
%TO.N,GND*%
X48885000Y-41000000D03*
%TO.P,U901,9*%
%TO.N,unconnected-(U901-NC-Pad9)*%
X48885000Y-40500000D03*
%TO.P,U901,10*%
%TO.N,unconnected-(U901-NC-Pad10)*%
X48885000Y-40000000D03*
%TD*%
D24*
%TO.P,J1001,1*%
%TO.N,VBUS_USB3A*%
X74655000Y-31500000D03*
D25*
%TO.P,J1001,2*%
%TO.N,USB3A_DM*%
X74655000Y-29000000D03*
%TO.P,J1001,3*%
%TO.N,USB3A_DP*%
X74655000Y-27000000D03*
%TO.P,J1001,4*%
%TO.N,GND*%
X74655000Y-24500000D03*
%TO.P,J1001,5*%
%TO.N,USB3_RXN*%
X73155000Y-24000000D03*
%TO.P,J1001,6*%
%TO.N,USB3_RXP*%
X73155000Y-26000000D03*
%TO.P,J1001,7*%
%TO.N,GND*%
X73155000Y-28000000D03*
%TO.P,J1001,8*%
%TO.N,USB3A_SSTXN*%
X73155000Y-30000000D03*
%TO.P,J1001,9*%
%TO.N,USB3A_SSTXP*%
X73155000Y-32000000D03*
D26*
%TO.P,J1001,10*%
%TO.N,GND*%
X73905000Y-34400000D03*
D27*
X82405000Y-34400000D03*
D26*
X73905000Y-21600000D03*
D27*
X82405000Y-21600000D03*
%TD*%
D17*
%TO.P,C251,1*%
%TO.N,VCC_1V8_S3*%
X12020000Y-1500000D03*
%TO.P,C251,2*%
%TO.N,GND*%
X12980000Y-1500000D03*
%TD*%
D15*
%TO.P,R209,1*%
%TO.N,PMIC_FB9*%
X33990000Y-36500000D03*
%TO.P,R209,2*%
%TO.N,VCC_1V8_S3*%
X35010000Y-36500000D03*
%TD*%
D21*
%TO.P,Q902,1*%
%TO.N,HDMI_TX_ON_H*%
X28062500Y-21050000D03*
%TO.P,Q902,2*%
%TO.N,GND*%
X28062500Y-22950000D03*
%TO.P,Q902,3*%
%TO.N,HDMI_D1_TERM*%
X29937500Y-22000000D03*
%TD*%
D15*
%TO.P,R903,1*%
%TO.N,HDMI_D1P_C*%
X21990000Y-35000000D03*
%TO.P,R903,2*%
%TO.N,HDMI_D1_TERM*%
X23010000Y-35000000D03*
%TD*%
D16*
%TO.P,C204,1*%
%TO.N,VDD_CPU_BIG_S0*%
X28725000Y-3000000D03*
%TO.P,C204,2*%
%TO.N,GND*%
X30275000Y-3000000D03*
%TD*%
D28*
%TO.P,D901,1*%
%TO.N,HDMI_5V_PTC*%
X77350000Y-17500000D03*
%TO.P,D901,2*%
%TO.N,VCC5V0_SYS_S5*%
X80650000Y-17500000D03*
%TD*%
D19*
%TO.P,L208,1*%
%TO.N,PMIC_SW8*%
X20500000Y-7000000D03*
%TO.P,L208,2*%
%TO.N,VDD2H_DDR_S3*%
X23500000Y-7000000D03*
%TD*%
D16*
%TO.P,C203,1*%
%TO.N,VDD_CPU_BIG_S0*%
X32225000Y-3000000D03*
%TO.P,C203,2*%
%TO.N,GND*%
X33775000Y-3000000D03*
%TD*%
%TO.P,C220,1*%
%TO.N,VDD_CPU_LIT_S0*%
X50225000Y-27500000D03*
%TO.P,C220,2*%
%TO.N,GND*%
X51775000Y-27500000D03*
%TD*%
D15*
%TO.P,R1004,1*%
%TO.N,USB_HOST_PWREN*%
X78990000Y-9000000D03*
%TO.P,R1004,2*%
%TO.N,GND*%
X80010000Y-9000000D03*
%TD*%
D17*
%TO.P,C318,1*%
%TO.N,VCC_3V3_S0*%
X73520000Y-8500000D03*
%TO.P,C318,2*%
%TO.N,GND*%
X74480000Y-8500000D03*
%TD*%
D19*
%TO.P,L207,1*%
%TO.N,PMIC_SW7*%
X50000000Y-19000000D03*
%TO.P,L207,2*%
%TO.N,VCC_3V3_S3*%
X53000000Y-19000000D03*
%TD*%
D15*
%TO.P,R912,1*%
%TO.N,HDMI_SDA_5V*%
X27490000Y-40925000D03*
%TO.P,R912,2*%
%TO.N,VCC5V_HDMI*%
X28510000Y-40925000D03*
%TD*%
D22*
%TO.P,C906,1*%
%TO.N,HDMI_TX_D2N*%
X50180000Y-42000000D03*
%TO.P,C906,2*%
%TO.N,HDMI_D2N_C*%
X50820000Y-42000000D03*
%TD*%
D17*
%TO.P,C247,1*%
%TO.N,VCC_1V1_NLDO_S3*%
X62020000Y-23000000D03*
%TO.P,C247,2*%
%TO.N,GND*%
X62980000Y-23000000D03*
%TD*%
D16*
%TO.P,C218,1*%
%TO.N,VDD_GPU_S0*%
X16725000Y-11500000D03*
%TO.P,C218,2*%
%TO.N,GND*%
X18275000Y-11500000D03*
%TD*%
D17*
%TO.P,C301,1*%
%TO.N,BUCK_2V0_BST*%
X9020000Y-5000000D03*
%TO.P,C301,2*%
%TO.N,BUCK_2V0_SW*%
X9980000Y-5000000D03*
%TD*%
%TO.P,C909,1*%
%TO.N,VCC5V_HDMI*%
X35520000Y-38425000D03*
%TO.P,C909,2*%
%TO.N,GND*%
X36480000Y-38425000D03*
%TD*%
D29*
%TO.P,H1203,1*%
%TO.N,GND*%
X1475000Y-52500000D03*
X2068109Y-51068109D03*
X2068109Y-53931891D03*
X3500000Y-50475000D03*
D30*
X3500000Y-52500000D03*
D29*
X3500000Y-54525000D03*
X4931891Y-51068109D03*
X4931891Y-53931891D03*
X5525000Y-52500000D03*
%TD*%
D31*
%TO.P,U201,1*%
%TO.N,VCC5V0_SYS_S5*%
X36062500Y-3800000D03*
%TO.P,U201,2*%
%TO.N,unconnected-(U201B-SYNC-Pad2)*%
X36062500Y-4200000D03*
%TO.P,U201,3*%
%TO.N,unconnected-(U201B-SYNC_CLK-Pad3)*%
X36062500Y-4600000D03*
%TO.P,U201,4*%
%TO.N,PWRON_L*%
X36062500Y-5000000D03*
%TO.P,U201,5*%
%TO.N,VDD2H_DDR_S3*%
X36062500Y-5400000D03*
%TO.P,U201,6*%
%TO.N,PMIC_SW8*%
X36062500Y-5800000D03*
%TO.P,U201,7*%
%TO.N,VCC5V0_SYS_S5*%
X36062500Y-6200000D03*
%TO.P,U201,8*%
%TO.N,VDDA_DDR_PLL_S0*%
X36062500Y-6600000D03*
%TO.P,U201,9*%
%TO.N,VCC_1V1_NLDO_S3*%
X36062500Y-7000000D03*
%TO.P,U201,10*%
%TO.N,VDDA0V75_HDMI_S0*%
X36062500Y-7400000D03*
%TO.P,U201,11*%
%TO.N,VDDA_0V75_S0*%
X36062500Y-7800000D03*
%TO.P,U201,12*%
%TO.N,VDDA_0V85_S0*%
X36062500Y-8200000D03*
%TO.P,U201,13*%
%TO.N,VCC_1V1_NLDO_S3*%
X36062500Y-8600000D03*
%TO.P,U201,14*%
%TO.N,VDD_0V75_S3*%
X36062500Y-9000000D03*
%TO.P,U201,15*%
%TO.N,PMIC_SDA*%
X36062500Y-9400000D03*
%TO.P,U201,16*%
%TO.N,PMIC_PWRCTRL3*%
X36062500Y-9800000D03*
%TO.P,U201,17*%
%TO.N,PMIC_SCL*%
X36062500Y-10200000D03*
D32*
%TO.P,U201,18*%
%TO.N,GND*%
X36800000Y-10937500D03*
%TO.P,U201,19*%
%TO.N,PMIC_INT_L*%
X37200000Y-10937500D03*
%TO.P,U201,20*%
%TO.N,VCC_1V8_S3*%
X37600000Y-10937500D03*
%TO.P,U201,21*%
%TO.N,VCC5V0_SYS_S5*%
X38000000Y-10937500D03*
%TO.P,U201,22*%
X38400000Y-10937500D03*
%TO.P,U201,23*%
%TO.N,PMIC_SW4*%
X38800000Y-10937500D03*
%TO.P,U201,24*%
%TO.N,VDD_GPU_S0*%
X39200000Y-10937500D03*
%TO.P,U201,25*%
%TO.N,VDDQ_DDR_S0*%
X39600000Y-10937500D03*
%TO.P,U201,26*%
%TO.N,PMIC_SW10*%
X40000000Y-10937500D03*
%TO.P,U201,27*%
%TO.N,VCC5V0_SYS_S5*%
X40400000Y-10937500D03*
%TO.P,U201,28*%
X40800000Y-10937500D03*
%TO.P,U201,29*%
%TO.N,PMIC_SW6*%
X41200000Y-10937500D03*
%TO.P,U201,30*%
%TO.N,VDD_DDR_S0*%
X41600000Y-10937500D03*
%TO.P,U201,31*%
%TO.N,PMIC_FB6*%
X42000000Y-10937500D03*
%TO.P,U201,32*%
%TO.N,VCC5V0_SYS_S5*%
X42400000Y-10937500D03*
%TO.P,U201,33*%
X42800000Y-10937500D03*
%TO.P,U201,34*%
X43200000Y-10937500D03*
D31*
%TO.P,U201,35*%
%TO.N,PMIC_SW2*%
X43937500Y-10200000D03*
%TO.P,U201,36*%
X43937500Y-9800000D03*
%TO.P,U201,37*%
%TO.N,VDD_NPU_S0*%
X43937500Y-9400000D03*
%TO.P,U201,38*%
%TO.N,PMIC_FB2*%
X43937500Y-9000000D03*
%TO.P,U201,39*%
%TO.N,PMIC_EXT_EN*%
X43937500Y-8600000D03*
%TO.P,U201,40*%
%TO.N,SYS_RESET_L*%
X43937500Y-8200000D03*
%TO.P,U201,41*%
%TO.N,VCC_3V3_S3*%
X43937500Y-7800000D03*
%TO.P,U201,42*%
%TO.N,PMIC_SW7*%
X43937500Y-7400000D03*
%TO.P,U201,43*%
%TO.N,VCC5V0_SYS_S5*%
X43937500Y-7000000D03*
%TO.P,U201,44*%
X43937500Y-6600000D03*
%TO.P,U201,45*%
%TO.N,PMIC_SW5*%
X43937500Y-6200000D03*
%TO.P,U201,46*%
%TO.N,VDD_CPU_LIT_S0*%
X43937500Y-5800000D03*
%TO.P,U201,47*%
%TO.N,PMIC_FB5*%
X43937500Y-5400000D03*
%TO.P,U201,48*%
%TO.N,PMIC_FB1*%
X43937500Y-5000000D03*
%TO.P,U201,49*%
%TO.N,VDD_CPU_BIG_S0*%
X43937500Y-4600000D03*
%TO.P,U201,50*%
%TO.N,PMIC_SW1*%
X43937500Y-4200000D03*
%TO.P,U201,51*%
X43937500Y-3800000D03*
D32*
%TO.P,U201,52*%
%TO.N,VCC5V0_SYS_S5*%
X43200000Y-3062500D03*
%TO.P,U201,53*%
X42800000Y-3062500D03*
%TO.P,U201,54*%
X42400000Y-3062500D03*
%TO.P,U201,55*%
%TO.N,PMIC_SW3*%
X42000000Y-3062500D03*
%TO.P,U201,56*%
%TO.N,VDD_LOGIC_S0*%
X41600000Y-3062500D03*
%TO.P,U201,57*%
%TO.N,VDDA_1V2_S0*%
X41200000Y-3062500D03*
%TO.P,U201,58*%
%TO.N,VCCA1V8_PLDO2_S0*%
X40800000Y-3062500D03*
%TO.P,U201,59*%
%TO.N,VCC_2V0_PLDO_S3*%
X40400000Y-3062500D03*
%TO.P,U201,60*%
%TO.N,VCCA_1V8_S0*%
X40000000Y-3062500D03*
%TO.P,U201,61*%
%TO.N,PMIC_PWRCTRL2*%
X39600000Y-3062500D03*
%TO.P,U201,62*%
%TO.N,PMIC_PWRCTRL1*%
X39200000Y-3062500D03*
%TO.P,U201,63*%
%TO.N,VCCA_3V3_S0*%
X38800000Y-3062500D03*
%TO.P,U201,64*%
%TO.N,VCC5V0_SYS_S5*%
X38400000Y-3062500D03*
%TO.P,U201,65*%
%TO.N,VCCIO_SD_S0*%
X38000000Y-3062500D03*
%TO.P,U201,66*%
%TO.N,PMIC_FB9*%
X37600000Y-3062500D03*
%TO.P,U201,67*%
%TO.N,VCC_1V8_S3*%
X37200000Y-3062500D03*
%TO.P,U201,68*%
%TO.N,PMIC_SW9*%
X36800000Y-3062500D03*
D33*
%TO.P,U201,69*%
%TO.N,GND*%
X37650000Y-4650000D03*
X37650000Y-5825000D03*
X37650000Y-7000000D03*
X37650000Y-8175000D03*
X37650000Y-9350000D03*
X38825000Y-4650000D03*
X38825000Y-5825000D03*
X38825000Y-7000000D03*
X38825000Y-8175000D03*
X38825000Y-9350000D03*
X40000000Y-4650000D03*
X40000000Y-5825000D03*
X40000000Y-7000000D03*
D34*
X40000000Y-7000000D03*
D33*
X40000000Y-8175000D03*
X40000000Y-9350000D03*
X41175000Y-4650000D03*
X41175000Y-5825000D03*
X41175000Y-7000000D03*
X41175000Y-8175000D03*
X41175000Y-9350000D03*
X42350000Y-4650000D03*
X42350000Y-5825000D03*
X42350000Y-7000000D03*
X42350000Y-8175000D03*
X42350000Y-9350000D03*
%TD*%
D35*
%TO.P,U401,1A1*%
%TO.N,LP5_DQ8_B*%
X32850000Y-19125000D03*
%TO.P,U401,1A2*%
%TO.N,GND*%
X33400000Y-19125000D03*
%TO.P,U401,1A3*%
X33950000Y-19125000D03*
%TO.P,U401,1A4*%
%TO.N,unconnected-(U401G-GPIO4_B5{slash}SPDIF_TX0_M0-Pad1A4)*%
X34500000Y-19125000D03*
%TO.P,U401,1A5*%
%TO.N,unconnected-(U401G-GPIO4_B0{slash}SAI1_SDO1_M0-Pad1A5)*%
X35050000Y-19125000D03*
%TO.P,U401,1A6*%
%TO.N,unconnected-(U401G-GPIO4_B3{slash}SAI1_SDI0_M0-Pad1A6)*%
X35600000Y-19125000D03*
%TO.P,U401,1A7*%
%TO.N,unconnected-(U401F-GPIO3_A6{slash}VO_LCDC_D21-Pad1A7)*%
X36150000Y-19125000D03*
%TO.P,U401,1A8*%
%TO.N,unconnected-(U401F-GPIO3_C3{slash}VO_LCDC_D8-Pad1A8)*%
X36700000Y-19125000D03*
%TO.P,U401,1A9*%
%TO.N,unconnected-(U401F-GPIO3_B5{slash}VO_LCDC_D14-Pad1A9)*%
X37250000Y-19125000D03*
%TO.P,U401,1A10*%
%TO.N,unconnected-(U401F-GPIO3_D2{slash}VO_LCDC_D1-Pad1A10)*%
X37800000Y-19125000D03*
%TO.P,U401,1A11*%
%TO.N,unconnected-(U401F-GPIO3_B1{slash}VO_LCDC_D18-Pad1A11)*%
X38350000Y-19125000D03*
%TO.P,U401,1A12*%
%TO.N,unconnected-(U401F-GPIO3_D1{slash}VO_LCDC_D2-Pad1A12)*%
X38900000Y-19125000D03*
%TO.P,U401,1A13*%
%TO.N,unconnected-(U401E-GPIO2_C4{slash}VI_CIF_D1-Pad1A13)*%
X39450000Y-19125000D03*
%TO.P,U401,1A14*%
%TO.N,unconnected-(U401E-GPIO2_C6{slash}ETH1_TXD0_M0-Pad1A14)*%
X40000000Y-19125000D03*
%TO.P,U401,1A15*%
%TO.N,unconnected-(U401E-GPIO2_C1{slash}VI_CIF_D4-Pad1A15)*%
X40550000Y-19125000D03*
%TO.P,U401,1A16*%
%TO.N,unconnected-(U401E-GPIO2_D1{slash}ETH1_RXD0_M0-Pad1A16)*%
X41100000Y-19125000D03*
%TO.P,U401,1A17*%
%TO.N,unconnected-(U401E-GPIO2_B2{slash}VI_CIF_D11-Pad1A17)*%
X41650000Y-19125000D03*
%TO.P,U401,1A18*%
%TO.N,unconnected-(U401E-GPIO2_B1{slash}VI_CIF_D12-Pad1A18)*%
X42200000Y-19125000D03*
%TO.P,U401,1A19*%
%TO.N,unconnected-(U401F-GPIO3_A3{slash}VI_CIF_CLKI-Pad1A19)*%
X42750000Y-19125000D03*
%TO.P,U401,1A20*%
%TO.N,unconnected-(U401F-GPIO3_A2{slash}VI_CIF_CLKO-Pad1A20)*%
X43300000Y-19125000D03*
%TO.P,U401,1A21*%
%TO.N,SD_CMD*%
X43850000Y-19125000D03*
%TO.P,U401,1A22*%
%TO.N,unconnected-(U401B-SARADC_IN1-Pad1A22)*%
X44400000Y-19125000D03*
%TO.P,U401,1A23*%
%TO.N,unconnected-(U401D-GPIO1_B6{slash}ETH1_RXCLK_M1-Pad1A23)*%
X44950000Y-19125000D03*
%TO.P,U401,1A24*%
%TO.N,unconnected-(U401D-GPIO1_D2{slash}ETH1_MDC_M1-Pad1A24)*%
X45500000Y-19125000D03*
%TO.P,U401,1AA1*%
%TO.N,LP5_DQ15_A*%
X46050000Y-19125000D03*
%TO.P,U401,1AA2*%
%TO.N,GND*%
X46600000Y-19125000D03*
%TO.P,U401,1AA3*%
%TO.N,LP5_DQ14_A*%
X47150000Y-19125000D03*
%TO.P,U401,1AA4*%
%TO.N,GND*%
X32850000Y-19675000D03*
%TO.P,U401,1AA5*%
%TO.N,LP5_WCK1N_A*%
X33400000Y-19675000D03*
%TO.P,U401,1AA6*%
%TO.N,LP5_WCK1P_A*%
X33950000Y-19675000D03*
%TO.P,U401,1AA20*%
%TO.N,HDMI_TX_REXT*%
X34500000Y-19675000D03*
%TO.P,U401,1AA21*%
%TO.N,GND*%
X35050000Y-19675000D03*
%TO.P,U401,1AA22*%
%TO.N,LED_SYS_L*%
X35600000Y-19675000D03*
%TO.P,U401,1AA23*%
%TO.N,unconnected-(U401C-GPIO0_D3{slash}SAI0_SDI3_M1-Pad1AA23)*%
X36150000Y-19675000D03*
%TO.P,U401,1AA24*%
%TO.N,GND*%
X36700000Y-19675000D03*
%TO.P,U401,1AB1*%
%TO.N,LP5_DQ9_A*%
X37250000Y-19675000D03*
%TO.P,U401,1AB2*%
%TO.N,GND*%
X37800000Y-19675000D03*
%TO.P,U401,1AB3*%
%TO.N,LP5_RDQS1N_A*%
X38350000Y-19675000D03*
%TO.P,U401,1AB4*%
%TO.N,LP5_RDQS1P_A*%
X38900000Y-19675000D03*
%TO.P,U401,1AB5*%
%TO.N,GND*%
X39450000Y-19675000D03*
%TO.P,U401,1AB6*%
X40000000Y-19675000D03*
%TO.P,U401,1AB20*%
X40550000Y-19675000D03*
%TO.P,U401,1AB21*%
X41100000Y-19675000D03*
%TO.P,U401,1AB22*%
X41650000Y-19675000D03*
%TO.P,U401,1AB23*%
X42200000Y-19675000D03*
%TO.P,U401,1AB24*%
X42750000Y-19675000D03*
%TO.P,U401,1AC1*%
X43300000Y-19675000D03*
%TO.P,U401,1AC2*%
X43850000Y-19675000D03*
%TO.P,U401,1AC3*%
X44400000Y-19675000D03*
%TO.P,U401,1AC4*%
X44950000Y-19675000D03*
%TO.P,U401,1AC5*%
X45500000Y-19675000D03*
%TO.P,U401,1AC6*%
%TO.N,unconnected-(U401B-UFS_TX_D0N-Pad1AC6)*%
X46050000Y-19675000D03*
%TO.P,U401,1AC20*%
%TO.N,GND*%
X46600000Y-19675000D03*
%TO.P,U401,1AC21*%
X47150000Y-19675000D03*
%TO.P,U401,1AC22*%
%TO.N,unconnected-(U401B-MIPI_DPHY_CSI1_RX_CLKP-Pad1AC22)*%
X32850000Y-20225000D03*
%TO.P,U401,1AC23*%
%TO.N,unconnected-(U401B-MIPI_DPHY_CSI1_RX_CLKN-Pad1AC23)*%
X33400000Y-20225000D03*
%TO.P,U401,1AC24*%
%TO.N,GND*%
X33950000Y-20225000D03*
%TO.P,U401,1AD1*%
%TO.N,LP5_DQ10_A*%
X34500000Y-20225000D03*
%TO.P,U401,1AD2*%
%TO.N,unconnected-(U401G-GPIO4_D0{slash}UFS_RSTN-Pad1AD2)*%
X35050000Y-20225000D03*
%TO.P,U401,1AD3*%
%TO.N,GND*%
X35600000Y-20225000D03*
%TO.P,U401,1AD4*%
%TO.N,unconnected-(U401B-UFS_TX_D1P-Pad1AD4)*%
X36150000Y-20225000D03*
%TO.P,U401,1AD5*%
%TO.N,unconnected-(U401B-UFS_TX_D1N-Pad1AD5)*%
X36700000Y-20225000D03*
%TO.P,U401,1AD6*%
%TO.N,unconnected-(U401B-UFS_TX_D0P-Pad1AD6)*%
X37250000Y-20225000D03*
%TO.P,U401,1AD20*%
%TO.N,GND*%
X37800000Y-20225000D03*
%TO.P,U401,1AD21*%
%TO.N,unconnected-(U401B-MIPI_DPHY_CSI2_RX_CLKP-Pad1AD21)*%
X38350000Y-20225000D03*
%TO.P,U401,1AD22*%
%TO.N,unconnected-(U401B-MIPI_DPHY_CSI2_RX_CLKN-Pad1AD22)*%
X38900000Y-20225000D03*
%TO.P,U401,1AD23*%
%TO.N,GND*%
X39450000Y-20225000D03*
%TO.P,U401,1AD24*%
X40000000Y-20225000D03*
%TO.P,U401,1AE1*%
%TO.N,PCIE0_CLKREQ_L*%
X40550000Y-20225000D03*
%TO.P,U401,1AE2*%
%TO.N,HDMI_SDA*%
X41100000Y-20225000D03*
%TO.P,U401,1AE3*%
%TO.N,GND*%
X41650000Y-20225000D03*
%TO.P,U401,1AE4*%
X42200000Y-20225000D03*
%TO.P,U401,1AE6*%
X42750000Y-20225000D03*
%TO.P,U401,1AE20*%
X43300000Y-20225000D03*
%TO.P,U401,1AE21*%
X43850000Y-20225000D03*
%TO.P,U401,1AE23*%
X44400000Y-20225000D03*
%TO.P,U401,1AE24*%
%TO.N,HDMI_TX_D0P*%
X44950000Y-20225000D03*
%TO.P,U401,1B1*%
%TO.N,LP5_DMI1_B*%
X45500000Y-20225000D03*
%TO.P,U401,1B2*%
%TO.N,GND*%
X46050000Y-20225000D03*
%TO.P,U401,1B3*%
%TO.N,LP5_DQ5_B*%
X46600000Y-20225000D03*
%TO.P,U401,1B5*%
%TO.N,unconnected-(U401G-GPIO4_A6{slash}SAI4_LRCK_M0-Pad1B5)*%
X47150000Y-20225000D03*
%TO.P,U401,1B6*%
%TO.N,unconnected-(U401G-GPIO4_A5{slash}SAI1_LRCK_M0-Pad1B6)*%
X32850000Y-20775000D03*
%TO.P,U401,1B7*%
%TO.N,unconnected-(U401G-GPIO4_A1{slash}VO_POST_EMPTY-Pad1B7)*%
X33400000Y-20775000D03*
%TO.P,U401,1B9*%
%TO.N,unconnected-(U401F-GPIO3_C5{slash}VO_LCDC_D6-Pad1B9)*%
X33950000Y-20775000D03*
%TO.P,U401,1B10*%
%TO.N,unconnected-(U401F-GPIO3_C1{slash}VO_LCDC_D10-Pad1B10)*%
X34500000Y-20775000D03*
%TO.P,U401,1B12*%
%TO.N,unconnected-(U401G-GPIO4_A0{slash}SPDIF_RX0_M1-Pad1B12)*%
X35050000Y-20775000D03*
%TO.P,U401,1B13*%
%TO.N,unconnected-(U401E-GPIO2_D4{slash}ISP_PRELIGHT_TRIG_M0-Pad1B13)*%
X35600000Y-20775000D03*
%TO.P,U401,1B15*%
%TO.N,unconnected-(U401E-GPIO2_D5{slash}ISP_FLASH_TRIGOUT_M0-Pad1B15)*%
X36150000Y-20775000D03*
%TO.P,U401,1B16*%
%TO.N,unconnected-(U401E-GPIO2_B3{slash}VI_CIF_D10-Pad1B16)*%
X36700000Y-20775000D03*
%TO.P,U401,1B18*%
%TO.N,unconnected-(U401F-GPIO3_A1{slash}VI_CIF_VSYNC-Pad1B18)*%
X37250000Y-20775000D03*
%TO.P,U401,1B19*%
%TO.N,unconnected-(U401B-SARADC_IN2-Pad1B19)*%
X37800000Y-20775000D03*
%TO.P,U401,1B21*%
%TO.N,SD_CLK*%
X38350000Y-20775000D03*
%TO.P,U401,1B22*%
%TO.N,unconnected-(U401D-GPIO1_C1{slash}ETH1_TXCLK_M1-Pad1B22)*%
X38900000Y-20775000D03*
%TO.P,U401,1B23*%
%TO.N,unconnected-(U401D-GPIO1_C4{slash}ETH1_TXD0_M1-Pad1B23)*%
X39450000Y-20775000D03*
%TO.P,U401,1B24*%
%TO.N,EMMC_DAT7*%
X40000000Y-20775000D03*
%TO.P,U401,1C1*%
%TO.N,LP5_DQ13_B*%
X40550000Y-20775000D03*
%TO.P,U401,1C2*%
%TO.N,GND*%
X41100000Y-20775000D03*
%TO.P,U401,1C3*%
%TO.N,LP5_DQ4_B*%
X41650000Y-20775000D03*
%TO.P,U401,1C4*%
%TO.N,GND*%
X42200000Y-20775000D03*
%TO.P,U401,1C5*%
%TO.N,unconnected-(U401G-GPIO4_A4{slash}SAI4_SCLK_M0-Pad1C5)*%
X42750000Y-20775000D03*
%TO.P,U401,1C6*%
%TO.N,unconnected-(U401G-GPIO4_A3{slash}SAI1_SCLK_M0-Pad1C6)*%
X43300000Y-20775000D03*
%TO.P,U401,1C7*%
%TO.N,unconnected-(U401F-GPIO3_C7{slash}VO_LCDC_D4-Pad1C7)*%
X43850000Y-20775000D03*
%TO.P,U401,1C9*%
%TO.N,GND*%
X44400000Y-20775000D03*
%TO.P,U401,1C10*%
%TO.N,unconnected-(U401F-GPIO3_D6{slash}VO_LCDC_VSYNC-Pad1C10)*%
X44950000Y-20775000D03*
%TO.P,U401,1C12*%
%TO.N,unconnected-(U401F-GPIO3_D0{slash}VO_LCDC_D3-Pad1C12)*%
X45500000Y-20775000D03*
%TO.P,U401,1C13*%
%TO.N,GND*%
X46050000Y-20775000D03*
%TO.P,U401,1C15*%
%TO.N,unconnected-(U401E-GPIO2_C5{slash}VI_CIF_D0-Pad1C15)*%
X46600000Y-20775000D03*
%TO.P,U401,1C16*%
%TO.N,GND*%
X47150000Y-20775000D03*
%TO.P,U401,1C18*%
%TO.N,unconnected-(U401E-GPIO2_B5{slash}VI_CIF_D8-Pad1C18)*%
X32850000Y-21325000D03*
%TO.P,U401,1C19*%
%TO.N,unconnected-(U401B-SARADC_IN3-Pad1C19)*%
X33400000Y-21325000D03*
%TO.P,U401,1C21*%
%TO.N,GND*%
X33950000Y-21325000D03*
%TO.P,U401,1C22*%
%TO.N,unconnected-(U401D-GPIO1_C7{slash}ETH1_RXD0_M1-Pad1C22)*%
X34500000Y-21325000D03*
%TO.P,U401,1C23*%
%TO.N,unconnected-(U401D-GPIO1_C3{slash}ETH1_PPSTRIG_M1-Pad1C23)*%
X35050000Y-21325000D03*
%TO.P,U401,1C24*%
%TO.N,EMMC_DAT2*%
X35600000Y-21325000D03*
%TO.P,U401,1D1*%
%TO.N,GND*%
X36150000Y-21325000D03*
%TO.P,U401,1D2*%
%TO.N,LP5_DQ0_B*%
X36700000Y-21325000D03*
%TO.P,U401,1D3*%
%TO.N,GND*%
X37250000Y-21325000D03*
%TO.P,U401,1D4*%
%TO.N,LP5_WCK1P_B*%
X37800000Y-21325000D03*
%TO.P,U401,1D5*%
%TO.N,GND*%
X38350000Y-21325000D03*
%TO.P,U401,1D6*%
%TO.N,unconnected-(U401G-GPIO4_A2{slash}SAI1_MCLK_M0-Pad1D6)*%
X38900000Y-21325000D03*
%TO.P,U401,1D7*%
%TO.N,unconnected-(U401F-GPIO3_C6{slash}VO_LCDC_D5-Pad1D7)*%
X39450000Y-21325000D03*
%TO.P,U401,1D9*%
%TO.N,unconnected-(U401F-GPIO3_C4{slash}VO_LCDC_D7-Pad1D9)*%
X40000000Y-21325000D03*
%TO.P,U401,1D10*%
%TO.N,unconnected-(U401F-GPIO3_D5{slash}VO_LCDC_HSYNC-Pad1D10)*%
X40550000Y-21325000D03*
%TO.P,U401,1D12*%
%TO.N,unconnected-(U401F-GPIO3_B7{slash}VO_LCDC_D12-Pad1D12)*%
X41100000Y-21325000D03*
%TO.P,U401,1D13*%
%TO.N,unconnected-(U401F-GPIO3_A4{slash}VO_LCDC_D23-Pad1D13)*%
X41650000Y-21325000D03*
%TO.P,U401,1D15*%
%TO.N,unconnected-(U401E-GPIO2_C2{slash}VI_CIF_D3-Pad1D15)*%
X42200000Y-21325000D03*
%TO.P,U401,1D16*%
%TO.N,unconnected-(U401F-GPIO3_A0{slash}VI_CIF_HREF-Pad1D16)*%
X42750000Y-21325000D03*
%TO.P,U401,1D18*%
%TO.N,unconnected-(U401E-GPIO2_D6{slash}CAM_CLK1_OUT_M1-Pad1D18)*%
X43300000Y-21325000D03*
%TO.P,U401,1D19*%
%TO.N,unconnected-(U401B-SARADC_IN5-Pad1D19)*%
X43850000Y-21325000D03*
%TO.P,U401,1D21*%
%TO.N,unconnected-(U401B-SARADC_IN6-Pad1D21)*%
X44400000Y-21325000D03*
%TO.P,U401,1D22*%
%TO.N,unconnected-(U401D-GPIO1_D1{slash}ETH1_RXCTL_M1-Pad1D22)*%
X44950000Y-21325000D03*
%TO.P,U401,1D23*%
%TO.N,EMMC_RSTN*%
X45500000Y-21325000D03*
%TO.P,U401,1D24*%
%TO.N,EMMC_DAT4*%
X46050000Y-21325000D03*
%TO.P,U401,1E1*%
%TO.N,LP5_DQ12_B*%
X46600000Y-21325000D03*
%TO.P,U401,1E2*%
%TO.N,GND*%
X47150000Y-21325000D03*
%TO.P,U401,1E3*%
X32850000Y-21875000D03*
%TO.P,U401,1E4*%
%TO.N,LP5_WCK1N_B*%
X33400000Y-21875000D03*
%TO.P,U401,1E5*%
%TO.N,GND*%
X33950000Y-21875000D03*
%TO.P,U401,1E6*%
X34500000Y-21875000D03*
%TO.P,U401,1E7*%
%TO.N,unconnected-(U401F-GPIO3_D7{slash}VO_LCDC_CLK-Pad1E7)*%
X35050000Y-21875000D03*
%TO.P,U401,1E9*%
%TO.N,unconnected-(U401F-GPIO3_C0{slash}VO_LCDC_D11-Pad1E9)*%
X35600000Y-21875000D03*
%TO.P,U401,1E10*%
%TO.N,GND*%
X36150000Y-21875000D03*
%TO.P,U401,1E12*%
%TO.N,unconnected-(U401F-GPIO3_D4{slash}VO_LCDC_DEN-Pad1E12)*%
X36700000Y-21875000D03*
%TO.P,U401,1E13*%
%TO.N,GND*%
X37250000Y-21875000D03*
%TO.P,U401,1E15*%
%TO.N,unconnected-(U401E-GPIO2_D7{slash}CAM_CLK2_OUT_M1-Pad1E15)*%
X37800000Y-21875000D03*
%TO.P,U401,1E16*%
%TO.N,GND*%
X38350000Y-21875000D03*
%TO.P,U401,1E18*%
%TO.N,unconnected-(U401B-SARADC_IN4-Pad1E18)*%
X38900000Y-21875000D03*
%TO.P,U401,1E19*%
%TO.N,unconnected-(U401B-SARADC_IN7-Pad1E19)*%
X39450000Y-21875000D03*
%TO.P,U401,1E21*%
%TO.N,unconnected-(U401D-GPIO1_D4{slash}ETH1_MCLK_M1-Pad1E21)*%
X40000000Y-21875000D03*
%TO.P,U401,1E22*%
%TO.N,unconnected-(U401D-GPIO1_D5{slash}ETH_CLK1_25M_OUT_M1-Pad1E22)*%
X40550000Y-21875000D03*
%TO.P,U401,1E23*%
%TO.N,GND*%
X41100000Y-21875000D03*
%TO.P,U401,1E24*%
X41650000Y-21875000D03*
%TO.P,U401,1F1*%
%TO.N,LP5_RDQS0N_B*%
X42200000Y-21875000D03*
%TO.P,U401,1F2*%
%TO.N,LP5_DQ1_B*%
X42750000Y-21875000D03*
%TO.P,U401,1F3*%
%TO.N,GND*%
X43300000Y-21875000D03*
%TO.P,U401,1F4*%
%TO.N,LP5_A4_B*%
X43850000Y-21875000D03*
%TO.P,U401,1F5*%
%TO.N,GND*%
X44400000Y-21875000D03*
%TO.P,U401,1F6*%
X44950000Y-21875000D03*
%TO.P,U401,1F20*%
X45500000Y-21875000D03*
%TO.P,U401,1F21*%
X46050000Y-21875000D03*
%TO.P,U401,1F22*%
%TO.N,EMMC_CMD*%
X46600000Y-21875000D03*
%TO.P,U401,1F23*%
%TO.N,EMMC_DS*%
X47150000Y-21875000D03*
%TO.P,U401,1F24*%
%TO.N,GND*%
X32850000Y-22425000D03*
%TO.P,U401,1G1*%
%TO.N,LP5_DQ2_B*%
X33400000Y-22425000D03*
%TO.P,U401,1G2*%
%TO.N,LP5_A3_B*%
X33950000Y-22425000D03*
%TO.P,U401,1G3*%
%TO.N,GND*%
X34500000Y-22425000D03*
%TO.P,U401,1G4*%
%TO.N,LP5_WCK0N_B*%
X35050000Y-22425000D03*
%TO.P,U401,1G5*%
%TO.N,LP5_WCK0P_B*%
X35600000Y-22425000D03*
%TO.P,U401,1G6*%
%TO.N,GND*%
X36150000Y-22425000D03*
%TO.P,U401,1G20*%
X36700000Y-22425000D03*
%TO.P,U401,1G21*%
X37250000Y-22425000D03*
%TO.P,U401,1G22*%
X37800000Y-22425000D03*
%TO.P,U401,1G23*%
%TO.N,EMMC_CLK*%
X38350000Y-22425000D03*
%TO.P,U401,1G24*%
%TO.N,GND*%
X38900000Y-22425000D03*
%TO.P,U401,1H1*%
X39450000Y-22425000D03*
%TO.P,U401,1H2*%
X40000000Y-22425000D03*
%TO.P,U401,1H3*%
X40550000Y-22425000D03*
%TO.P,U401,1H4*%
X41100000Y-22425000D03*
%TO.P,U401,1H5*%
%TO.N,LP5_A6_B*%
X41650000Y-22425000D03*
%TO.P,U401,1H6*%
%TO.N,GND*%
X42200000Y-22425000D03*
%TO.P,U401,1H20*%
X42750000Y-22425000D03*
%TO.P,U401,1H21*%
X43300000Y-22425000D03*
%TO.P,U401,1H22*%
%TO.N,unconnected-(U401B-MIPI_DPHY_CSI3_RX_CLKP-Pad1H22)*%
X43850000Y-22425000D03*
%TO.P,U401,1H23*%
%TO.N,unconnected-(U401B-MIPI_DPHY_CSI3_RX_CLKN-Pad1H23)*%
X44400000Y-22425000D03*
%TO.P,U401,1H24*%
%TO.N,GND*%
X44950000Y-22425000D03*
%TO.P,U401,1J1*%
%TO.N,LP5_A1_B*%
X45500000Y-22425000D03*
%TO.P,U401,1J2*%
%TO.N,GND*%
X46050000Y-22425000D03*
%TO.P,U401,1J3*%
%TO.N,LP5_A2_B*%
X46600000Y-22425000D03*
%TO.P,U401,1J4*%
%TO.N,GND*%
X47150000Y-22425000D03*
%TO.P,U401,1J5*%
%TO.N,unconnected-(U401A-LP4_CSN0_B-Pad1J5)*%
X32850000Y-22975000D03*
%TO.P,U401,1J6*%
%TO.N,DDR_ZQ_B*%
X33400000Y-22975000D03*
%TO.P,U401,1J20*%
%TO.N,VCC_1V8_S3*%
X33950000Y-22975000D03*
%TO.P,U401,1J21*%
%TO.N,GND*%
X34500000Y-22975000D03*
%TO.P,U401,1J22*%
X35050000Y-22975000D03*
%TO.P,U401,1J23*%
X35600000Y-22975000D03*
%TO.P,U401,1J24*%
X36150000Y-22975000D03*
%TO.P,U401,1K1*%
%TO.N,LP5_CLKP_B*%
X36700000Y-22975000D03*
%TO.P,U401,1K2*%
%TO.N,LP5_CSN0_B*%
X37250000Y-22975000D03*
%TO.P,U401,1K3*%
%TO.N,GND*%
X37800000Y-22975000D03*
%TO.P,U401,1K4*%
%TO.N,unconnected-(U401A-LP4_CSN1_B-Pad1K4)*%
X38350000Y-22975000D03*
%TO.P,U401,1K5*%
%TO.N,LP5_A5_B*%
X38900000Y-22975000D03*
%TO.P,U401,1K6*%
%TO.N,GND*%
X39450000Y-22975000D03*
%TO.P,U401,1K20*%
X40000000Y-22975000D03*
%TO.P,U401,1K21*%
X40550000Y-22975000D03*
%TO.P,U401,1K22*%
%TO.N,unconnected-(U401B-MIPI_DPHY_CSI4_RX_CLKP-Pad1K22)*%
X41100000Y-22975000D03*
%TO.P,U401,1K23*%
%TO.N,unconnected-(U401B-MIPI_DPHY_CSI4_RX_CLKN-Pad1K23)*%
X41650000Y-22975000D03*
%TO.P,U401,1K24*%
%TO.N,GND*%
X42200000Y-22975000D03*
%TO.P,U401,1L1*%
%TO.N,LP5_CLKP_A*%
X42750000Y-22975000D03*
%TO.P,U401,1L2*%
%TO.N,GND*%
X43300000Y-22975000D03*
%TO.P,U401,1L3*%
X43850000Y-22975000D03*
%TO.P,U401,1L4*%
X44400000Y-22975000D03*
%TO.P,U401,1L5*%
X44950000Y-22975000D03*
%TO.P,U401,1L6*%
X45500000Y-22975000D03*
%TO.P,U401,1L20*%
X46050000Y-22975000D03*
%TO.P,U401,1L21*%
X46600000Y-22975000D03*
%TO.P,U401,1L22*%
X47150000Y-22975000D03*
%TO.P,U401,1L23*%
%TO.N,unconnected-(U401B-PCIE1_REFCLKP-Pad1L23)*%
X32850000Y-23525000D03*
%TO.P,U401,1L24*%
%TO.N,GND*%
X33400000Y-23525000D03*
%TO.P,U401,1M1*%
X33950000Y-23525000D03*
%TO.P,U401,1M2*%
X34500000Y-23525000D03*
%TO.P,U401,1M3*%
%TO.N,LP5_CSN1_B*%
X35050000Y-23525000D03*
%TO.P,U401,1M4*%
%TO.N,GND*%
X35600000Y-23525000D03*
%TO.P,U401,1M5*%
%TO.N,LP5_A4_A*%
X36150000Y-23525000D03*
%TO.P,U401,1M6*%
%TO.N,GND*%
X36700000Y-23525000D03*
%TO.P,U401,1M20*%
X37250000Y-23525000D03*
%TO.P,U401,1M21*%
X37800000Y-23525000D03*
%TO.P,U401,1M22*%
X38350000Y-23525000D03*
%TO.P,U401,1M23*%
%TO.N,unconnected-(U401B-PCIE1_REFCLKN-Pad1M23)*%
X38900000Y-23525000D03*
%TO.P,U401,1M24*%
%TO.N,GND*%
X39450000Y-23525000D03*
%TO.P,U401,1N1*%
%TO.N,LP5_A1_A*%
X40000000Y-23525000D03*
%TO.P,U401,1N2*%
%TO.N,GND*%
X40550000Y-23525000D03*
%TO.P,U401,1N3*%
%TO.N,LP5_CSN0_A*%
X41100000Y-23525000D03*
%TO.P,U401,1N4*%
%TO.N,GND*%
X41650000Y-23525000D03*
%TO.P,U401,1N5*%
%TO.N,LP5_CSN1_A*%
X42200000Y-23525000D03*
%TO.P,U401,1N6*%
%TO.N,GND*%
X42750000Y-23525000D03*
%TO.P,U401,1N20*%
X43300000Y-23525000D03*
%TO.P,U401,1N21*%
X43850000Y-23525000D03*
%TO.P,U401,1N22*%
%TO.N,PCIE0_REFCLKP*%
X44400000Y-23525000D03*
%TO.P,U401,1N23*%
%TO.N,PCIE0_REFCLKN*%
X44950000Y-23525000D03*
%TO.P,U401,1N24*%
%TO.N,GND*%
X45500000Y-23525000D03*
%TO.P,U401,1P1*%
%TO.N,LP5_DQ2_A*%
X46050000Y-23525000D03*
%TO.P,U401,1P2*%
%TO.N,GND*%
X46600000Y-23525000D03*
%TO.P,U401,1P3*%
X47150000Y-23525000D03*
%TO.P,U401,1P4*%
X32850000Y-24075000D03*
%TO.P,U401,1P5*%
%TO.N,LP5_A5_A*%
X33400000Y-24075000D03*
%TO.P,U401,1P6*%
%TO.N,GND*%
X33950000Y-24075000D03*
%TO.P,U401,1P20*%
X34500000Y-24075000D03*
%TO.P,U401,1P21*%
X35050000Y-24075000D03*
%TO.P,U401,1P22*%
X35600000Y-24075000D03*
%TO.P,U401,1P23*%
%TO.N,unconnected-(U401C-GPIO0_B1{slash}SPI2_MISO_M0-Pad1P23)*%
X36150000Y-24075000D03*
%TO.P,U401,1P24*%
%TO.N,GND*%
X36700000Y-24075000D03*
%TO.P,U401,1R1*%
X37250000Y-24075000D03*
%TO.P,U401,1R2*%
X37800000Y-24075000D03*
%TO.P,U401,1R3*%
%TO.N,LP5_A2_A*%
X38350000Y-24075000D03*
%TO.P,U401,1R4*%
%TO.N,unconnected-(U401A-LP4_CSN0_A-Pad1R4)*%
X38900000Y-24075000D03*
%TO.P,U401,1R5*%
%TO.N,LP5_A6_A*%
X39450000Y-24075000D03*
%TO.P,U401,1R6*%
%TO.N,DDR_ZQ_A*%
X40000000Y-24075000D03*
%TO.P,U401,1R24*%
%TO.N,unconnected-(U401C-GPIO0_A1{slash}TSADC_CTRL_M0-Pad1R24)*%
X40550000Y-24075000D03*
%TO.P,U401,1T1*%
%TO.N,LP5_DQ1_A*%
X41100000Y-24075000D03*
%TO.P,U401,1T2*%
%TO.N,LP5_A3_A*%
X41650000Y-24075000D03*
%TO.P,U401,1T3*%
%TO.N,GND*%
X42200000Y-24075000D03*
%TO.P,U401,1T4*%
%TO.N,unconnected-(U401A-LP4_CSN1_A-Pad1T4)*%
X42750000Y-24075000D03*
%TO.P,U401,1T5*%
%TO.N,GND*%
X43300000Y-24075000D03*
%TO.P,U401,1T6*%
X43850000Y-24075000D03*
%TO.P,U401,1T20*%
X44400000Y-24075000D03*
%TO.P,U401,1T21*%
%TO.N,PMIC_INT_L*%
X44950000Y-24075000D03*
%TO.P,U401,1T22*%
%TO.N,PMIC_SCL*%
X45500000Y-24075000D03*
%TO.P,U401,1T23*%
%TO.N,PMIC_SDA*%
X46050000Y-24075000D03*
%TO.P,U401,1T24*%
%TO.N,PMIC_PWRCTRL2*%
X46600000Y-24075000D03*
%TO.P,U401,1U1*%
%TO.N,LP5_RDQS0P_A*%
X47150000Y-24075000D03*
%TO.P,U401,1U2*%
%TO.N,GND*%
X32850000Y-24625000D03*
%TO.P,U401,1U3*%
X33400000Y-24625000D03*
%TO.P,U401,1U4*%
X33950000Y-24625000D03*
%TO.P,U401,1U5*%
%TO.N,DDR_RESET_L*%
X34500000Y-24625000D03*
%TO.P,U401,1U6*%
%TO.N,GND*%
X35050000Y-24625000D03*
%TO.P,U401,1U20*%
%TO.N,VCC_3V3_S3*%
X35600000Y-24625000D03*
%TO.P,U401,1U21*%
%TO.N,SD_DET_L*%
X36150000Y-24625000D03*
%TO.P,U401,1U22*%
%TO.N,unconnected-(U401C-GPIO0_B0{slash}AUPLL_CLK_IN_M1-Pad1U22)*%
X36700000Y-24625000D03*
%TO.P,U401,1U23*%
%TO.N,unconnected-(U401C-GPIO0_A2{slash}CLK_32K_IN-Pad1U23)*%
X37250000Y-24625000D03*
%TO.P,U401,1U24*%
%TO.N,DBG_UART_TX*%
X37800000Y-24625000D03*
%TO.P,U401,1V1*%
%TO.N,LP5_DMI0_A*%
X38350000Y-24625000D03*
%TO.P,U401,1V2*%
%TO.N,GND*%
X38900000Y-24625000D03*
%TO.P,U401,1V3*%
%TO.N,LP5_DQ4_A*%
X39450000Y-24625000D03*
%TO.P,U401,1V4*%
%TO.N,LP5_WCK0N_A*%
X40000000Y-24625000D03*
%TO.P,U401,1V5*%
%TO.N,LP5_WCK0P_A*%
X40550000Y-24625000D03*
%TO.P,U401,1V6*%
%TO.N,GND*%
X41100000Y-24625000D03*
%TO.P,U401,1V24*%
%TO.N,unconnected-(U401C-GPIO0_C2{slash}I2C0_SDA_M1-Pad1V24)*%
X41650000Y-24625000D03*
%TO.P,U401,1W1*%
%TO.N,GND*%
X42200000Y-24625000D03*
%TO.P,U401,1W2*%
%TO.N,LP5_DQ13_A*%
X42750000Y-24625000D03*
%TO.P,U401,1W3*%
%TO.N,GND*%
X43300000Y-24625000D03*
%TO.P,U401,1W4*%
%TO.N,LP5_DQ5_A*%
X43850000Y-24625000D03*
%TO.P,U401,1W5*%
%TO.N,GND*%
X44400000Y-24625000D03*
%TO.P,U401,1W6*%
X44950000Y-24625000D03*
%TO.P,U401,1W20*%
%TO.N,unconnected-(U401B-MIPI_DPHY_CSI1-Pad1W20)*%
X45500000Y-24625000D03*
%TO.P,U401,1W21*%
%TO.N,unconnected-(U401C-GPIO0_C3{slash}PDM0_CLK1_M0-Pad1W21)*%
X46050000Y-24625000D03*
%TO.P,U401,1W22*%
%TO.N,USB_HOST_PWREN*%
X46600000Y-24625000D03*
%TO.P,U401,1W23*%
%TO.N,unconnected-(U401C-GPIO0_D0{slash}SAI0_SDI0_M1-Pad1W23)*%
X47150000Y-24625000D03*
%TO.P,U401,1W24*%
%TO.N,unconnected-(U401C-GPIO0_B7{slash}I2C2_SCL_M0-Pad1W24)*%
X32850000Y-25175000D03*
%TO.P,U401,1Y1*%
%TO.N,LP5_DQ12_A*%
X33400000Y-25175000D03*
%TO.P,U401,1Y2*%
%TO.N,GND*%
X33950000Y-25175000D03*
%TO.P,U401,1Y3*%
X34500000Y-25175000D03*
%TO.P,U401,1Y4*%
X35050000Y-25175000D03*
%TO.P,U401,1Y5*%
X35600000Y-25175000D03*
%TO.P,U401,1Y6*%
X36150000Y-25175000D03*
%TO.P,U401,1Y20*%
X36700000Y-25175000D03*
%TO.P,U401,1Y21*%
%TO.N,USB3A_OC_L*%
X37250000Y-25175000D03*
%TO.P,U401,1Y22*%
%TO.N,unconnected-(U401C-GPIO0_D2{slash}SAI0_SDI2_M1-Pad1Y22)*%
X37800000Y-25175000D03*
%TO.P,U401,1Y23*%
%TO.N,unconnected-(U401C-GPIO0_C7{slash}SAI0_LRCK_M1-Pad1Y23)*%
X38350000Y-25175000D03*
%TO.P,U401,1Y24*%
%TO.N,SD_PWREN*%
X38900000Y-25175000D03*
%TO.P,U401,2A1*%
%TO.N,GND*%
X39450000Y-25175000D03*
%TO.P,U401,2A2*%
%TO.N,VCC_3V3_S0*%
X40000000Y-25175000D03*
%TO.P,U401,2A3*%
%TO.N,GND*%
X40550000Y-25175000D03*
%TO.P,U401,2A4*%
%TO.N,VCC_1V8_S3*%
X41100000Y-25175000D03*
%TO.P,U401,2A5*%
X41650000Y-25175000D03*
%TO.P,U401,2A6*%
%TO.N,GND*%
X42200000Y-25175000D03*
%TO.P,U401,2A7*%
%TO.N,VCC_1V8_S3*%
X42750000Y-25175000D03*
%TO.P,U401,2A8*%
%TO.N,VCCIO_SD_S0*%
X43300000Y-25175000D03*
%TO.P,U401,2A9*%
%TO.N,GND*%
X43850000Y-25175000D03*
%TO.P,U401,2A10*%
%TO.N,VCCA_1V8_S0*%
X44400000Y-25175000D03*
%TO.P,U401,2A11*%
%TO.N,GND*%
X44950000Y-25175000D03*
%TO.P,U401,2A12*%
X45500000Y-25175000D03*
%TO.P,U401,2B1*%
X46050000Y-25175000D03*
%TO.P,U401,2B2*%
%TO.N,VDDQ_DDR_S0*%
X46600000Y-25175000D03*
%TO.P,U401,2B3*%
%TO.N,GND*%
X47150000Y-25175000D03*
%TO.P,U401,2B4*%
X32850000Y-25725000D03*
%TO.P,U401,2B5*%
X33400000Y-25725000D03*
%TO.P,U401,2B6*%
X33950000Y-25725000D03*
%TO.P,U401,2B7*%
X34500000Y-25725000D03*
%TO.P,U401,2B8*%
X35050000Y-25725000D03*
%TO.P,U401,2B9*%
X35600000Y-25725000D03*
%TO.P,U401,2B10*%
%TO.N,VCC_3V3_S0*%
X36150000Y-25725000D03*
%TO.P,U401,2B11*%
%TO.N,GND*%
X36700000Y-25725000D03*
%TO.P,U401,2B12*%
X37250000Y-25725000D03*
%TO.P,U401,2C1*%
X37800000Y-25725000D03*
%TO.P,U401,2C2*%
X38350000Y-25725000D03*
%TO.P,U401,2C3*%
%TO.N,VDDA_DDR_PLL_S0*%
X38900000Y-25725000D03*
%TO.P,U401,2C4*%
%TO.N,VDD_GPU_S0*%
X39450000Y-25725000D03*
%TO.P,U401,2C5*%
X40000000Y-25725000D03*
%TO.P,U401,2C6*%
%TO.N,GND*%
X40550000Y-25725000D03*
%TO.P,U401,2C7*%
%TO.N,VDD_NPU_S0*%
X41100000Y-25725000D03*
%TO.P,U401,2C8*%
X41650000Y-25725000D03*
%TO.P,U401,2C9*%
X42200000Y-25725000D03*
%TO.P,U401,2C10*%
%TO.N,GND*%
X42750000Y-25725000D03*
%TO.P,U401,2C11*%
X43300000Y-25725000D03*
%TO.P,U401,2C12*%
X43850000Y-25725000D03*
%TO.P,U401,2D1*%
%TO.N,VDDQ_DDR_S0*%
X44400000Y-25725000D03*
%TO.P,U401,2D2*%
%TO.N,VCCA_1V8_S0*%
X44950000Y-25725000D03*
%TO.P,U401,2D3*%
%TO.N,GND*%
X45500000Y-25725000D03*
%TO.P,U401,2D4*%
%TO.N,VDD_GPU_S0*%
X46050000Y-25725000D03*
%TO.P,U401,2D5*%
X46600000Y-25725000D03*
%TO.P,U401,2D6*%
%TO.N,GND*%
X47150000Y-25725000D03*
%TO.P,U401,2D7*%
%TO.N,VDD_NPU_S0*%
X32850000Y-26275000D03*
%TO.P,U401,2D8*%
X33400000Y-26275000D03*
%TO.P,U401,2D9*%
%TO.N,GND*%
X33950000Y-26275000D03*
%TO.P,U401,2D10*%
X34500000Y-26275000D03*
%TO.P,U401,2D11*%
%TO.N,unconnected-(U401B-MIPI_DPHY_CSI3-Pad2D11)*%
X35050000Y-26275000D03*
%TO.P,U401,2D12*%
%TO.N,unconnected-(U401B-MIPI_DPHY_CSI3-Pad2D12)*%
X35600000Y-26275000D03*
%TO.P,U401,2E1*%
%TO.N,VDDQ_DDR_S0*%
X36150000Y-26275000D03*
%TO.P,U401,2E2*%
%TO.N,VDD_DDR_S0*%
X36700000Y-26275000D03*
%TO.P,U401,2E3*%
%TO.N,GND*%
X37250000Y-26275000D03*
%TO.P,U401,2E4*%
%TO.N,VDD_GPU_S0*%
X37800000Y-26275000D03*
%TO.P,U401,2E5*%
%TO.N,GND*%
X38350000Y-26275000D03*
%TO.P,U401,2E6*%
X38900000Y-26275000D03*
%TO.P,U401,2E7*%
%TO.N,VDD_LOGIC_S0*%
X39450000Y-26275000D03*
%TO.P,U401,2E8*%
%TO.N,GND*%
X40000000Y-26275000D03*
%TO.P,U401,2E9*%
X40550000Y-26275000D03*
%TO.P,U401,2E10*%
X41100000Y-26275000D03*
%TO.P,U401,2E11*%
%TO.N,VDDA_0V85_S0*%
X41650000Y-26275000D03*
%TO.P,U401,2E12*%
%TO.N,VCCA_1V8_S0*%
X42200000Y-26275000D03*
%TO.P,U401,2F1*%
%TO.N,VDDQ_DDR_S0*%
X42750000Y-26275000D03*
%TO.P,U401,2F2*%
X43300000Y-26275000D03*
%TO.P,U401,2F3*%
%TO.N,VDD_DDR_S0*%
X43850000Y-26275000D03*
%TO.P,U401,2F4*%
%TO.N,GND*%
X44400000Y-26275000D03*
%TO.P,U401,2F5*%
X44950000Y-26275000D03*
%TO.P,U401,2F6*%
X45500000Y-26275000D03*
%TO.P,U401,2F7*%
%TO.N,VDD_LOGIC_S0*%
X46050000Y-26275000D03*
%TO.P,U401,2F8*%
X46600000Y-26275000D03*
%TO.P,U401,2F9*%
X47150000Y-26275000D03*
%TO.P,U401,2F10*%
%TO.N,unconnected-(U401B-TSADC_TEST_OUT_TS-Pad2F10)*%
X32850000Y-26825000D03*
%TO.P,U401,2F11*%
%TO.N,VDDA_0V85_S0*%
X33400000Y-26825000D03*
%TO.P,U401,2F12*%
%TO.N,VCCA_1V8_S0*%
X33950000Y-26825000D03*
%TO.P,U401,2G1*%
%TO.N,VDDQ_DDR_S0*%
X34500000Y-26825000D03*
%TO.P,U401,2G2*%
%TO.N,VDD_DDR_S0*%
X35050000Y-26825000D03*
%TO.P,U401,2G3*%
X35600000Y-26825000D03*
%TO.P,U401,2G4*%
%TO.N,GND*%
X36150000Y-26825000D03*
%TO.P,U401,2G5*%
%TO.N,VDD_CPU_BIG_S0*%
X36700000Y-26825000D03*
%TO.P,U401,2G6*%
X37250000Y-26825000D03*
%TO.P,U401,2G7*%
%TO.N,GND*%
X37800000Y-26825000D03*
%TO.P,U401,2G8*%
%TO.N,VDD_LOGIC_S0*%
X38350000Y-26825000D03*
%TO.P,U401,2G9*%
X38900000Y-26825000D03*
%TO.P,U401,2G10*%
%TO.N,GND*%
X39450000Y-26825000D03*
%TO.P,U401,2G11*%
%TO.N,VDDA_0V75_S0*%
X40000000Y-26825000D03*
%TO.P,U401,2G12*%
%TO.N,GND*%
X40550000Y-26825000D03*
%TO.P,U401,2H1*%
%TO.N,VDDQ_DDR_S0*%
X41100000Y-26825000D03*
%TO.P,U401,2H2*%
%TO.N,VDD_DDR_S0*%
X41650000Y-26825000D03*
%TO.P,U401,2H3*%
%TO.N,GND*%
X42200000Y-26825000D03*
%TO.P,U401,2H4*%
%TO.N,VDD_CPU_LIT_S0*%
X42750000Y-26825000D03*
%TO.P,U401,2H5*%
%TO.N,GND*%
X43300000Y-26825000D03*
%TO.P,U401,2H6*%
%TO.N,VDD_CPU_BIG_S0*%
X43850000Y-26825000D03*
%TO.P,U401,2H7*%
X44400000Y-26825000D03*
%TO.P,U401,2H8*%
%TO.N,VDD_LOGIC_S0*%
X44950000Y-26825000D03*
%TO.P,U401,2H9*%
X45500000Y-26825000D03*
%TO.P,U401,2H10*%
%TO.N,GND*%
X46050000Y-26825000D03*
%TO.P,U401,2H11*%
%TO.N,VDDA_0V75_S0*%
X46600000Y-26825000D03*
%TO.P,U401,2H12*%
%TO.N,VCCA_1V8_S0*%
X47150000Y-26825000D03*
%TO.P,U401,2J1*%
%TO.N,GND*%
X32850000Y-27375000D03*
%TO.P,U401,2J2*%
%TO.N,VDDQ_DDR_S0*%
X33400000Y-27375000D03*
%TO.P,U401,2J3*%
%TO.N,VDD_CPU_LIT_S0*%
X33950000Y-27375000D03*
%TO.P,U401,2J4*%
X34500000Y-27375000D03*
%TO.P,U401,2J5*%
%TO.N,GND*%
X35050000Y-27375000D03*
%TO.P,U401,2J6*%
%TO.N,VDD_CPU_BIG_S0*%
X35600000Y-27375000D03*
%TO.P,U401,2J7*%
X36150000Y-27375000D03*
%TO.P,U401,2J8*%
%TO.N,GND*%
X36700000Y-27375000D03*
%TO.P,U401,2J9*%
%TO.N,VDD_LOGIC_S0*%
X37250000Y-27375000D03*
%TO.P,U401,2J10*%
%TO.N,VCCA_1V8_S0*%
X37800000Y-27375000D03*
%TO.P,U401,2J11*%
%TO.N,GND*%
X38350000Y-27375000D03*
%TO.P,U401,2J12*%
X38900000Y-27375000D03*
%TO.P,U401,2K1*%
X39450000Y-27375000D03*
%TO.P,U401,2K2*%
X40000000Y-27375000D03*
%TO.P,U401,2K3*%
%TO.N,VDD_CPU_LIT_S0*%
X40550000Y-27375000D03*
%TO.P,U401,2K4*%
X41100000Y-27375000D03*
%TO.P,U401,2K5*%
%TO.N,GND*%
X41650000Y-27375000D03*
%TO.P,U401,2K6*%
%TO.N,VDD_CPU_BIG_S0*%
X42200000Y-27375000D03*
%TO.P,U401,2K7*%
X42750000Y-27375000D03*
%TO.P,U401,2K8*%
%TO.N,GND*%
X43300000Y-27375000D03*
%TO.P,U401,2K9*%
X43850000Y-27375000D03*
%TO.P,U401,2K10*%
X44400000Y-27375000D03*
%TO.P,U401,2K11*%
%TO.N,VCC_1V8_S3*%
X44950000Y-27375000D03*
%TO.P,U401,2K12*%
%TO.N,GND*%
X45500000Y-27375000D03*
%TO.P,U401,2L1*%
X46050000Y-27375000D03*
%TO.P,U401,2L2*%
%TO.N,VDD_0V75_S3*%
X46600000Y-27375000D03*
%TO.P,U401,2L3*%
%TO.N,GND*%
X47150000Y-27375000D03*
%TO.P,U401,2L4*%
X32850000Y-27925000D03*
%TO.P,U401,2L5*%
X33400000Y-27925000D03*
%TO.P,U401,2L6*%
X33950000Y-27925000D03*
%TO.P,U401,2L7*%
X34500000Y-27925000D03*
%TO.P,U401,2L8*%
X35050000Y-27925000D03*
%TO.P,U401,2L9*%
X35600000Y-27925000D03*
%TO.P,U401,2L10*%
%TO.N,VDD_0V75_S3*%
X36150000Y-27925000D03*
%TO.P,U401,2L11*%
%TO.N,unconnected-(U401B-MIPI_DPHY_CSI1-Pad2L11)*%
X36700000Y-27925000D03*
%TO.P,U401,2L12*%
%TO.N,GND*%
X37250000Y-27925000D03*
%TO.P,U401,2M1*%
X37800000Y-27925000D03*
%TO.P,U401,2M2*%
%TO.N,VCCA_1V8_S0*%
X38350000Y-27925000D03*
%TO.P,U401,2M3*%
%TO.N,VCC_1V8_S3*%
X38900000Y-27925000D03*
%TO.P,U401,2M4*%
%TO.N,GND*%
X39450000Y-27925000D03*
%TO.P,U401,2M5*%
%TO.N,VDDA_0V85_S0*%
X40000000Y-27925000D03*
%TO.P,U401,2M6*%
%TO.N,GND*%
X40550000Y-27925000D03*
%TO.P,U401,2M7*%
%TO.N,VDDA_0V75_S0*%
X41100000Y-27925000D03*
%TO.P,U401,2M8*%
%TO.N,VDDA_1V2_S0*%
X41650000Y-27925000D03*
%TO.P,U401,2M9*%
%TO.N,GND*%
X42200000Y-27925000D03*
%TO.P,U401,2M10*%
X42750000Y-27925000D03*
%TO.P,U401,2M11*%
X43300000Y-27925000D03*
%TO.P,U401,2M12*%
X43850000Y-27925000D03*
%TO.P,U401,2N1*%
X44400000Y-27925000D03*
%TO.P,U401,2N2*%
%TO.N,VDDA_0V85_S0*%
X44950000Y-27925000D03*
%TO.P,U401,2N3*%
%TO.N,VCC_3V3_S0*%
X45500000Y-27925000D03*
%TO.P,U401,2N4*%
%TO.N,VCCA_1V8_S0*%
X46050000Y-27925000D03*
%TO.P,U401,2N5*%
%TO.N,VDDA_0V85_S0*%
X46600000Y-27925000D03*
%TO.P,U401,2N6*%
%TO.N,GND*%
X47150000Y-27925000D03*
%TO.P,U401,2N7*%
%TO.N,DCPHY_VREG*%
X32850000Y-28475000D03*
%TO.P,U401,2N8*%
%TO.N,GND*%
X33400000Y-28475000D03*
%TO.P,U401,2N9*%
X33950000Y-28475000D03*
%TO.P,U401,2N10*%
%TO.N,VCCA1V8_PLDO2_S0*%
X34500000Y-28475000D03*
%TO.P,U401,2N11*%
%TO.N,VDDA0V75_HDMI_S0*%
X35050000Y-28475000D03*
%TO.P,U401,2N12*%
%TO.N,GND*%
X35600000Y-28475000D03*
%TO.P,U401,2P1*%
X36150000Y-28475000D03*
%TO.P,U401,2P2*%
%TO.N,VCCA_1V8_S0*%
X36700000Y-28475000D03*
%TO.P,U401,2P3*%
%TO.N,USB_OTG0_VBUSDET*%
X37250000Y-28475000D03*
%TO.P,U401,2P4*%
%TO.N,VCCA_1V8_S0*%
X37800000Y-28475000D03*
%TO.P,U401,2P5*%
%TO.N,VDDA_0V75_S0*%
X38350000Y-28475000D03*
%TO.P,U401,2P6*%
%TO.N,GND*%
X38900000Y-28475000D03*
%TO.P,U401,2P7*%
%TO.N,VCCA_3V3_S0*%
X39450000Y-28475000D03*
%TO.P,U401,2P8*%
%TO.N,VCCA_1V8_S0*%
X40000000Y-28475000D03*
%TO.P,U401,2P9*%
%TO.N,GND*%
X40550000Y-28475000D03*
%TO.P,U401,2P10*%
%TO.N,VCCA1V8_PLDO2_S0*%
X41100000Y-28475000D03*
%TO.P,U401,2P11*%
%TO.N,VDDA0V75_HDMI_S0*%
X41650000Y-28475000D03*
%TO.P,U401,2P12*%
%TO.N,GND*%
X42200000Y-28475000D03*
%TO.P,U401,2R1*%
X42750000Y-28475000D03*
%TO.P,U401,2R2*%
%TO.N,unconnected-(U401B-UFS_TX_REXT-Pad2R2)*%
X43300000Y-28475000D03*
%TO.P,U401,2R3*%
%TO.N,USB2_OTG0_REXT*%
X43850000Y-28475000D03*
%TO.P,U401,2R4*%
%TO.N,GND*%
X44400000Y-28475000D03*
%TO.P,U401,2R5*%
X44950000Y-28475000D03*
%TO.P,U401,2R6*%
%TO.N,unconnected-(U401B-USB2_OTG0_ID-Pad2R6)*%
X45500000Y-28475000D03*
%TO.P,U401,2R7*%
%TO.N,GND*%
X46050000Y-28475000D03*
%TO.P,U401,2R8*%
X46600000Y-28475000D03*
%TO.P,U401,2R9*%
X47150000Y-28475000D03*
%TO.P,U401,2R10*%
X32850000Y-29025000D03*
%TO.P,U401,2R11*%
X33400000Y-29025000D03*
%TO.P,U401,2R12*%
X33950000Y-29025000D03*
%TO.P,U401,2T1*%
X34500000Y-29025000D03*
%TO.P,U401,2T2*%
%TO.N,unconnected-(U401B-DP_TX_AUXP-Pad2T2)*%
X35050000Y-29025000D03*
%TO.P,U401,2T3*%
%TO.N,unconnected-(U401B-DP_TX_AUXN-Pad2T3)*%
X35600000Y-29025000D03*
%TO.P,U401,2T4*%
%TO.N,USB3A_DP*%
X36150000Y-29025000D03*
%TO.P,U401,2T5*%
%TO.N,USB3A_DM*%
X36700000Y-29025000D03*
%TO.P,U401,2T6*%
%TO.N,GND*%
X37250000Y-29025000D03*
%TO.P,U401,2T7*%
%TO.N,USB3_OTG0_REXT*%
X37800000Y-29025000D03*
%TO.P,U401,2T8*%
%TO.N,GND*%
X38350000Y-29025000D03*
%TO.P,U401,2T9*%
%TO.N,unconnected-(U401B-USB2_OTG1_ID-Pad2T9)*%
X38900000Y-29025000D03*
%TO.P,U401,2T10*%
%TO.N,VBUS_USB3A*%
X39450000Y-29025000D03*
%TO.P,U401,2T11*%
%TO.N,GND*%
X40000000Y-29025000D03*
%TO.P,U401,2T12*%
%TO.N,unconnected-(U401B-HDMI_TX_SBDP-Pad2T12)*%
X40550000Y-29025000D03*
%TO.P,U401,2U1*%
%TO.N,GND*%
X41100000Y-29025000D03*
%TO.P,U401,2U2*%
X41650000Y-29025000D03*
%TO.P,U401,2U3*%
X42200000Y-29025000D03*
%TO.P,U401,2U4*%
X42750000Y-29025000D03*
%TO.P,U401,2U5*%
X43300000Y-29025000D03*
%TO.P,U401,2U6*%
X43850000Y-29025000D03*
%TO.P,U401,2U7*%
X44400000Y-29025000D03*
%TO.P,U401,2U8*%
%TO.N,USB2_OTG1_REXT*%
X44950000Y-29025000D03*
%TO.P,U401,2U9*%
%TO.N,GND*%
X45500000Y-29025000D03*
%TO.P,U401,2U10*%
X46050000Y-29025000D03*
%TO.P,U401,2U11*%
X46600000Y-29025000D03*
%TO.P,U401,2U12*%
%TO.N,unconnected-(U401B-HDMI_TX_SBDN-Pad2U12)*%
X47150000Y-29025000D03*
%TO.P,U401,2V1*%
%TO.N,GND*%
X32850000Y-29575000D03*
%TO.P,U401,2V2*%
X33400000Y-29575000D03*
%TO.P,U401,2V3*%
X33950000Y-29575000D03*
%TO.P,U401,2V4*%
X34500000Y-29575000D03*
%TO.P,U401,2V5*%
X35050000Y-29575000D03*
%TO.P,U401,2V6*%
X35600000Y-29575000D03*
%TO.P,U401,2V7*%
X36150000Y-29575000D03*
%TO.P,U401,2V8*%
X36700000Y-29575000D03*
%TO.P,U401,2V9*%
X37250000Y-29575000D03*
%TO.P,U401,2V10*%
X37800000Y-29575000D03*
%TO.P,U401,2V11*%
X38350000Y-29575000D03*
%TO.P,U401,2V12*%
X38900000Y-29575000D03*
%TO.P,U401,A1*%
X39450000Y-29575000D03*
%TO.P,U401,A2*%
%TO.N,LP5_DQ11_B*%
X40000000Y-29575000D03*
%TO.P,U401,A3*%
%TO.N,LP5_RDQS1P_B*%
X40550000Y-29575000D03*
%TO.P,U401,A4*%
%TO.N,GND*%
X41100000Y-29575000D03*
%TO.P,U401,A5*%
%TO.N,LP5_DQ6_B*%
X41650000Y-29575000D03*
%TO.P,U401,A7*%
%TO.N,unconnected-(U401G-GPIO4_A7{slash}SAI1_SDO0_M0-PadA7)*%
X42200000Y-29575000D03*
%TO.P,U401,A9*%
%TO.N,unconnected-(U401F-GPIO3_A5{slash}VO_LCDC_D22-PadA9)*%
X42750000Y-29575000D03*
%TO.P,U401,A11*%
%TO.N,unconnected-(U401F-GPIO3_B3{slash}VO_LCDC_D16-PadA11)*%
X43300000Y-29575000D03*
%TO.P,U401,A13*%
%TO.N,unconnected-(U401F-GPIO3_B2{slash}VO_LCDC_D17-PadA13)*%
X43850000Y-29575000D03*
%TO.P,U401,A15*%
%TO.N,unconnected-(U401E-GPIO2_C3{slash}VI_CIF_D2-PadA15)*%
X44400000Y-29575000D03*
%TO.P,U401,A17*%
%TO.N,unconnected-(U401E-GPIO2_C0{slash}VI_CIF_D5-PadA17)*%
X44950000Y-29575000D03*
%TO.P,U401,A19*%
%TO.N,unconnected-(U401E-GPIO2_B4{slash}VI_CIF_D9-PadA19)*%
X45500000Y-29575000D03*
%TO.P,U401,A21*%
%TO.N,unconnected-(U401E-GPIO2_B6{slash}VI_CIF_D7-PadA21)*%
X46050000Y-29575000D03*
%TO.P,U401,A23*%
%TO.N,SD_D2*%
X46600000Y-29575000D03*
%TO.P,U401,A25*%
%TO.N,SARADC_IN0_BOOT*%
X47150000Y-29575000D03*
%TO.P,U401,A26*%
%TO.N,unconnected-(U401D-GPIO1_C6{slash}ETH1_TXCTL_M1-PadA26)*%
X32850000Y-30125000D03*
%TO.P,U401,A27*%
%TO.N,unconnected-(U401D-GPIO1_B7{slash}ETH1_TXD2_M1-PadA27)*%
X33400000Y-30125000D03*
%TO.P,U401,A28*%
%TO.N,unconnected-(U401D-GPIO1_B4{slash}ETH1_RXD2_M1-PadA28)*%
X33950000Y-30125000D03*
%TO.P,U401,A29*%
%TO.N,GND*%
X34500000Y-30125000D03*
%TO.P,U401,AA28*%
%TO.N,DBG_UART_RX*%
X35050000Y-30125000D03*
%TO.P,U401,AB1*%
%TO.N,LP5_DQ7_A*%
X35600000Y-30125000D03*
%TO.P,U401,AB28*%
%TO.N,unconnected-(U401C-GPIO0_C1{slash}I2C0_SCL_M1-PadAB28)*%
X36150000Y-30125000D03*
%TO.P,U401,AB29*%
%TO.N,unconnected-(U401C-GPIO0_C0{slash}I2C2_SDA_M0-PadAB29)*%
X36700000Y-30125000D03*
%TO.P,U401,AC1*%
%TO.N,LP5_DQ6_A*%
X37250000Y-30125000D03*
%TO.P,U401,AC28*%
%TO.N,unconnected-(U401C-GPIO0_D1{slash}SAI0_SDI1_M1-PadAC28)*%
X37800000Y-30125000D03*
%TO.P,U401,AD28*%
%TO.N,unconnected-(U401C-GPIO0_B4{slash}REF_CLK1_OUT-PadAD28)*%
X38350000Y-30125000D03*
%TO.P,U401,AD29*%
%TO.N,unconnected-(U401C-GPIO0_B5{slash}REF_CLK2_OUT-PadAD29)*%
X38900000Y-30125000D03*
%TO.P,U401,AE1*%
%TO.N,LP5_DMI1_A*%
X39450000Y-30125000D03*
%TO.P,U401,AE28*%
%TO.N,unconnected-(U401B-MIPI_DPHY_CSI1_RX_D0N-PadAE28)*%
X40000000Y-30125000D03*
%TO.P,U401,AE29*%
%TO.N,unconnected-(U401B-MIPI_DPHY_CSI1_RX_D0P-PadAE29)*%
X40550000Y-30125000D03*
%TO.P,U401,AF1*%
%TO.N,LP5_DQ8_A*%
X41100000Y-30125000D03*
%TO.P,U401,AF28*%
%TO.N,unconnected-(U401B-MIPI_DPHY_CSI1_RX_D1N-PadAF28)*%
X41650000Y-30125000D03*
%TO.P,U401,AF29*%
%TO.N,unconnected-(U401B-MIPI_DPHY_CSI1_RX_D1P-PadAF29)*%
X42200000Y-30125000D03*
%TO.P,U401,AG28*%
%TO.N,unconnected-(U401B-MIPI_DPHY_CSI1_RX_D2N-PadAG28)*%
X42750000Y-30125000D03*
%TO.P,U401,AG29*%
%TO.N,unconnected-(U401B-MIPI_DPHY_CSI1_RX_D2P-PadAG29)*%
X43300000Y-30125000D03*
%TO.P,U401,AH1*%
%TO.N,LP5_DQ11_A*%
X43850000Y-30125000D03*
%TO.P,U401,AH28*%
%TO.N,unconnected-(U401B-MIPI_DPHY_CSI1_RX_D3N-PadAH28)*%
X44400000Y-30125000D03*
%TO.P,U401,AH29*%
%TO.N,unconnected-(U401B-MIPI_DPHY_CSI1_RX_D3P-PadAH29)*%
X44950000Y-30125000D03*
%TO.P,U401,AJ1*%
%TO.N,PCIE0_PERST_L*%
X45500000Y-30125000D03*
%TO.P,U401,AJ28*%
%TO.N,HDMI_TX_D2P*%
X46050000Y-30125000D03*
%TO.P,U401,AJ29*%
%TO.N,GND*%
X46600000Y-30125000D03*
%TO.P,U401,AK1*%
%TO.N,unconnected-(U401G-GPIO4_C5{slash}ISP_FLASH_TRIGOUT_M1-PadAK1)*%
X47150000Y-30125000D03*
%TO.P,U401,AK2*%
%TO.N,HDMI_HPD*%
X32850000Y-30675000D03*
%TO.P,U401,AK3*%
%TO.N,HDMI_CEC*%
X33400000Y-30675000D03*
%TO.P,U401,AK4*%
%TO.N,HDMI_TX_ON_H*%
X33950000Y-30675000D03*
%TO.P,U401,AK5*%
%TO.N,unconnected-(U401B-OSC_UFS_XIN-PadAK5)*%
X34500000Y-30675000D03*
%TO.P,U401,AK6*%
%TO.N,GND*%
X35050000Y-30675000D03*
%TO.P,U401,AK7*%
%TO.N,unconnected-(U401B-UFS_RX_D1P-PadAK7)*%
X35600000Y-30675000D03*
%TO.P,U401,AK8*%
%TO.N,unconnected-(U401B-UFS_RX_D0P-PadAK8)*%
X36150000Y-30675000D03*
%TO.P,U401,AK9*%
%TO.N,USBC_DP*%
X36700000Y-30675000D03*
%TO.P,U401,AK10*%
%TO.N,unconnected-(U401B-USB3_OTG0_SSRX1P-PadAK10)*%
X37250000Y-30675000D03*
%TO.P,U401,AK11*%
%TO.N,unconnected-(U401B-USB3_OTG0_SSTX1N-PadAK11)*%
X37800000Y-30675000D03*
%TO.P,U401,AK12*%
%TO.N,unconnected-(U401B-USB3_OTG0_SSRX2P-PadAK12)*%
X38350000Y-30675000D03*
%TO.P,U401,AK13*%
%TO.N,unconnected-(U401B-USB3_OTG0_SSTX2N-PadAK13)*%
X38900000Y-30675000D03*
%TO.P,U401,AK14*%
%TO.N,GND*%
X39450000Y-30675000D03*
%TO.P,U401,AK15*%
%TO.N,unconnected-(U401B-MIPI_DPHY_DSI_TX_D0N-PadAK15)*%
X40000000Y-30675000D03*
%TO.P,U401,AK16*%
%TO.N,unconnected-(U401B-MIPI_DPHY_DSI_TX_D1N-PadAK16)*%
X40550000Y-30675000D03*
%TO.P,U401,AK17*%
%TO.N,unconnected-(U401B-MIPI_DPHY_DSI_TX_CLKN-PadAK17)*%
X41100000Y-30675000D03*
%TO.P,U401,AK18*%
%TO.N,unconnected-(U401B-MIPI_DPHY_DSI_TX_D2N-PadAK18)*%
X41650000Y-30675000D03*
%TO.P,U401,AK19*%
%TO.N,unconnected-(U401B-MIPI_DPHY_DSI_TX_D3N-PadAK19)*%
X42200000Y-30675000D03*
%TO.P,U401,AK20*%
%TO.N,unconnected-(U401B-MIPI_DPHY_CSI0_RX_D0P-PadAK20)*%
X42750000Y-30675000D03*
%TO.P,U401,AK21*%
%TO.N,unconnected-(U401B-MIPI_DPHY_CSI0_RX_D1P-PadAK21)*%
X43300000Y-30675000D03*
%TO.P,U401,AK22*%
%TO.N,unconnected-(U401B-MIPI_DPHY_CSI0_RX_CLKP-PadAK22)*%
X43850000Y-30675000D03*
%TO.P,U401,AK23*%
%TO.N,unconnected-(U401B-MIPI_DPHY_CSI0_RX_D2P-PadAK23)*%
X44400000Y-30675000D03*
%TO.P,U401,AK24*%
%TO.N,unconnected-(U401B-MIPI_DPHY_CSI0_RX_D3P-PadAK24)*%
X44950000Y-30675000D03*
%TO.P,U401,AK25*%
%TO.N,GND*%
X45500000Y-30675000D03*
%TO.P,U401,AK26*%
%TO.N,HDMI_TX_D3N*%
X46050000Y-30675000D03*
%TO.P,U401,AK27*%
%TO.N,HDMI_TX_D0N*%
X46600000Y-30675000D03*
%TO.P,U401,AK28*%
%TO.N,HDMI_TX_D1P*%
X47150000Y-30675000D03*
%TO.P,U401,AK29*%
%TO.N,HDMI_TX_D2N*%
X32850000Y-31225000D03*
%TO.P,U401,AL1*%
%TO.N,GND*%
X33400000Y-31225000D03*
%TO.P,U401,AL2*%
%TO.N,HDMI_SCL*%
X33950000Y-31225000D03*
%TO.P,U401,AL3*%
%TO.N,PCIE0_WAKE_L*%
X34500000Y-31225000D03*
%TO.P,U401,AL4*%
%TO.N,GND*%
X35050000Y-31225000D03*
%TO.P,U401,AL5*%
%TO.N,unconnected-(U401B-OSC_UFS_XOUT-PadAL5)*%
X35600000Y-31225000D03*
%TO.P,U401,AL6*%
%TO.N,unconnected-(U401B-UFS_RX_D1N-PadAL6)*%
X36150000Y-31225000D03*
%TO.P,U401,AL7*%
%TO.N,unconnected-(U401B-UFS_RX_D0N-PadAL7)*%
X36700000Y-31225000D03*
%TO.P,U401,AL8*%
%TO.N,GND*%
X37250000Y-31225000D03*
%TO.P,U401,AL9*%
%TO.N,USBC_DM*%
X37800000Y-31225000D03*
%TO.P,U401,AL10*%
%TO.N,unconnected-(U401B-USB3_OTG0_SSRX1N-PadAL10)*%
X38350000Y-31225000D03*
%TO.P,U401,AL11*%
%TO.N,unconnected-(U401B-USB3_OTG0_SSTX1P-PadAL11)*%
X38900000Y-31225000D03*
%TO.P,U401,AL12*%
%TO.N,unconnected-(U401B-USB3_OTG0_SSRX2N-PadAL12)*%
X39450000Y-31225000D03*
%TO.P,U401,AL13*%
%TO.N,unconnected-(U401B-USB3_OTG0_SSTX2P-PadAL13)*%
X40000000Y-31225000D03*
%TO.P,U401,AL14*%
%TO.N,GND*%
X40550000Y-31225000D03*
%TO.P,U401,AL15*%
%TO.N,unconnected-(U401B-MIPI_DPHY_DSI_TX_D0P-PadAL15)*%
X41100000Y-31225000D03*
%TO.P,U401,AL16*%
%TO.N,unconnected-(U401B-MIPI_DPHY_DSI_TX_D1P-PadAL16)*%
X41650000Y-31225000D03*
%TO.P,U401,AL17*%
%TO.N,unconnected-(U401B-MIPI_DPHY_DSI_TX_CLKP-PadAL17)*%
X42200000Y-31225000D03*
%TO.P,U401,AL18*%
%TO.N,unconnected-(U401B-MIPI_DPHY_DSI_TX_D2P-PadAL18)*%
X42750000Y-31225000D03*
%TO.P,U401,AL19*%
%TO.N,unconnected-(U401B-MIPI_DPHY_DSI_TX_D3P-PadAL19)*%
X43300000Y-31225000D03*
%TO.P,U401,AL20*%
%TO.N,unconnected-(U401B-MIPI_DPHY_CSI0_RX_D0N-PadAL20)*%
X43850000Y-31225000D03*
%TO.P,U401,AL21*%
%TO.N,unconnected-(U401B-MIPI_DPHY_CSI0_RX_D1N-PadAL21)*%
X44400000Y-31225000D03*
%TO.P,U401,AL22*%
%TO.N,unconnected-(U401B-MIPI_DPHY_CSI0_RX_CLKN-PadAL22)*%
X44950000Y-31225000D03*
%TO.P,U401,AL23*%
%TO.N,unconnected-(U401B-MIPI_DPHY_CSI0_RX_D2N-PadAL23)*%
X45500000Y-31225000D03*
%TO.P,U401,AL24*%
%TO.N,unconnected-(U401B-MIPI_DPHY_CSI0_RX_D3N-PadAL24)*%
X46050000Y-31225000D03*
%TO.P,U401,AL25*%
%TO.N,GND*%
X46600000Y-31225000D03*
%TO.P,U401,AL26*%
%TO.N,HDMI_TX_D3P*%
X47150000Y-31225000D03*
%TO.P,U401,AL28*%
%TO.N,HDMI_TX_D1N*%
X32850000Y-31775000D03*
%TO.P,U401,AL29*%
%TO.N,GND*%
X33400000Y-31775000D03*
%TO.P,U401,B1*%
%TO.N,LP5_DQ9_B*%
X33950000Y-31775000D03*
%TO.P,U401,B2*%
%TO.N,LP5_DQ10_B*%
X34500000Y-31775000D03*
%TO.P,U401,B3*%
%TO.N,LP5_RDQS1N_B*%
X35050000Y-31775000D03*
%TO.P,U401,B4*%
%TO.N,LP5_DMI0_B*%
X35600000Y-31775000D03*
%TO.P,U401,B5*%
%TO.N,GND*%
X36150000Y-31775000D03*
%TO.P,U401,B6*%
%TO.N,unconnected-(U401G-GPIO4_B2{slash}SAI1_SDO3_M0-PadB6)*%
X36700000Y-31775000D03*
%TO.P,U401,B7*%
%TO.N,unconnected-(U401G-GPIO4_B1{slash}SAI1_SDO2_M0-PadB7)*%
X37250000Y-31775000D03*
%TO.P,U401,B8*%
%TO.N,unconnected-(U401G-GPIO4_B4{slash}SPDIF_RX0_M0-PadB8)*%
X37800000Y-31775000D03*
%TO.P,U401,B9*%
%TO.N,unconnected-(U401F-GPIO3_C2{slash}VO_LCDC_D9-PadB9)*%
X38350000Y-31775000D03*
%TO.P,U401,B10*%
%TO.N,unconnected-(U401F-GPIO3_B4{slash}VO_LCDC_D15-PadB10)*%
X38900000Y-31775000D03*
%TO.P,U401,B11*%
%TO.N,unconnected-(U401F-GPIO3_B6{slash}VO_LCDC_D13-PadB11)*%
X39450000Y-31775000D03*
%TO.P,U401,B12*%
%TO.N,unconnected-(U401F-GPIO3_D3{slash}VO_LCDC_D0-PadB12)*%
X40000000Y-31775000D03*
%TO.P,U401,B13*%
%TO.N,unconnected-(U401F-GPIO3_A7{slash}VO_LCDC_D20-PadB13)*%
X40550000Y-31775000D03*
%TO.P,U401,B14*%
%TO.N,unconnected-(U401F-GPIO3_B0{slash}VO_LCDC_D19-PadB14)*%
X41100000Y-31775000D03*
%TO.P,U401,B15*%
%TO.N,unconnected-(U401E-GPIO2_C7{slash}ETH1_TXD1_M0-PadB15)*%
X41650000Y-31775000D03*
%TO.P,U401,B16*%
%TO.N,unconnected-(U401E-GPIO2_D0{slash}ETH1_TXCTL_M0-PadB16)*%
X42200000Y-31775000D03*
%TO.P,U401,B17*%
%TO.N,unconnected-(U401E-GPIO2_D2{slash}CAM_CLK0_OUT_M1-PadB17)*%
X42750000Y-31775000D03*
%TO.P,U401,B18*%
%TO.N,unconnected-(U401E-GPIO2_D3{slash}ETH1_RXCTL_M0-PadB18)*%
X43300000Y-31775000D03*
%TO.P,U401,B19*%
%TO.N,unconnected-(U401E-GPIO2_B0{slash}VI_CIF_D13-PadB19)*%
X43850000Y-31775000D03*
%TO.P,U401,B20*%
%TO.N,unconnected-(U401E-GPIO2_A7{slash}VI_CIF_D14-PadB20)*%
X44400000Y-31775000D03*
%TO.P,U401,B21*%
%TO.N,unconnected-(U401E-GPIO2_B7{slash}VI_CIF_D6-PadB21)*%
X44950000Y-31775000D03*
%TO.P,U401,B22*%
%TO.N,unconnected-(U401E-GPIO2_A6{slash}VI_CIF_D15-PadB22)*%
X45500000Y-31775000D03*
%TO.P,U401,B23*%
%TO.N,SD_D3*%
X46050000Y-31775000D03*
%TO.P,U401,B24*%
%TO.N,SD_D0*%
X46600000Y-31775000D03*
%TO.P,U401,B25*%
%TO.N,SD_D1*%
X47150000Y-31775000D03*
%TO.P,U401,B26*%
%TO.N,unconnected-(U401D-GPIO1_C0{slash}ETH1_TXD3_M1-PadB26)*%
X32850000Y-32325000D03*
%TO.P,U401,B27*%
%TO.N,unconnected-(U401D-GPIO1_B5{slash}ETH1_RXD3_M1-PadB27)*%
X33400000Y-32325000D03*
%TO.P,U401,B28*%
%TO.N,unconnected-(U401D-GPIO1_C5{slash}ETH1_TXD1_M1-PadB28)*%
X33950000Y-32325000D03*
%TO.P,U401,B29*%
%TO.N,unconnected-(U401D-GPIO1_C2{slash}ETH1_PPSCLK_M1-PadB29)*%
X34500000Y-32325000D03*
%TO.P,U401,C1*%
%TO.N,GND*%
X35050000Y-32325000D03*
%TO.P,U401,C28*%
%TO.N,unconnected-(U401D-GPIO1_D3{slash}ETH1_MDIO_M1-PadC28)*%
X35600000Y-32325000D03*
%TO.P,U401,C29*%
%TO.N,unconnected-(U401D-GPIO1_D0{slash}ETH1_RXD1_M1-PadC29)*%
X36150000Y-32325000D03*
%TO.P,U401,D1*%
%TO.N,LP5_DQ15_B*%
X36700000Y-32325000D03*
%TO.P,U401,D28*%
%TO.N,EMMC_DAT6*%
X37250000Y-32325000D03*
%TO.P,U401,E1*%
%TO.N,LP5_DQ14_B*%
X37800000Y-32325000D03*
%TO.P,U401,E28*%
%TO.N,EMMC_DAT0*%
X38350000Y-32325000D03*
%TO.P,U401,E29*%
%TO.N,EMMC_DAT1*%
X38900000Y-32325000D03*
%TO.P,U401,F28*%
%TO.N,EMMC_DAT3*%
X39450000Y-32325000D03*
%TO.P,U401,G1*%
%TO.N,LP5_DQ7_B*%
X40000000Y-32325000D03*
%TO.P,U401,G28*%
%TO.N,EMMC_DAT5*%
X40550000Y-32325000D03*
%TO.P,U401,G29*%
%TO.N,GND*%
X41100000Y-32325000D03*
%TO.P,U401,H1*%
%TO.N,LP5_RDQS0P_B*%
X41650000Y-32325000D03*
%TO.P,U401,H28*%
%TO.N,unconnected-(U401B-MIPI_DPHY_CSI3_RX_D0P-PadH28)*%
X42200000Y-32325000D03*
%TO.P,U401,H29*%
%TO.N,unconnected-(U401B-MIPI_DPHY_CSI3_RX_D0N-PadH29)*%
X42750000Y-32325000D03*
%TO.P,U401,J28*%
%TO.N,unconnected-(U401B-MIPI_DPHY_CSI3_RX_D1P-PadJ28)*%
X43300000Y-32325000D03*
%TO.P,U401,J29*%
%TO.N,unconnected-(U401B-MIPI_DPHY_CSI3_RX_D1N-PadJ29)*%
X43850000Y-32325000D03*
%TO.P,U401,K1*%
%TO.N,LP5_DQ3_B*%
X44400000Y-32325000D03*
%TO.P,U401,K28*%
%TO.N,unconnected-(U401B-MIPI_DPHY_CSI3_RX_D2P-PadK28)*%
X44950000Y-32325000D03*
%TO.P,U401,K29*%
%TO.N,unconnected-(U401B-MIPI_DPHY_CSI3_RX_D2N-PadK29)*%
X45500000Y-32325000D03*
%TO.P,U401,L1*%
%TO.N,LP5_A0_B*%
X46050000Y-32325000D03*
%TO.P,U401,L28*%
%TO.N,unconnected-(U401B-MIPI_DPHY_CSI3_RX_D3P-PadL28)*%
X46600000Y-32325000D03*
%TO.P,U401,L29*%
%TO.N,unconnected-(U401B-MIPI_DPHY_CSI3_RX_D3N-PadL29)*%
X47150000Y-32325000D03*
%TO.P,U401,M28*%
%TO.N,USB3_RXP*%
X32850000Y-32875000D03*
%TO.P,U401,M29*%
%TO.N,USB3_RXN*%
X33400000Y-32875000D03*
%TO.P,U401,N1*%
%TO.N,LP5_CLKN_B*%
X33950000Y-32875000D03*
%TO.P,U401,N28*%
%TO.N,USB3_TXP*%
X34500000Y-32875000D03*
%TO.P,U401,N29*%
%TO.N,USB3_TXN*%
X35050000Y-32875000D03*
%TO.P,U401,P1*%
%TO.N,LP5_CLKN_A*%
X35600000Y-32875000D03*
%TO.P,U401,P28*%
%TO.N,PCIE0_TXN*%
X36150000Y-32875000D03*
%TO.P,U401,P29*%
%TO.N,PCIE0_TXP*%
X36700000Y-32875000D03*
%TO.P,U401,R28*%
%TO.N,PCIE0_RXP*%
X37250000Y-32875000D03*
%TO.P,U401,R29*%
%TO.N,PCIE0_RXN*%
X37800000Y-32875000D03*
%TO.P,U401,T1*%
%TO.N,LP5_A0_A*%
X38350000Y-32875000D03*
%TO.P,U401,T28*%
%TO.N,GND*%
X38900000Y-32875000D03*
%TO.P,U401,T29*%
X39450000Y-32875000D03*
%TO.P,U401,U1*%
%TO.N,LP5_DQ3_A*%
X40000000Y-32875000D03*
%TO.P,U401,U28*%
%TO.N,OSC_24M_IN*%
X40550000Y-32875000D03*
%TO.P,U401,U29*%
%TO.N,OSC_24M_OUT*%
X41100000Y-32875000D03*
%TO.P,U401,V28*%
%TO.N,GND*%
X41650000Y-32875000D03*
%TO.P,U401,V29*%
%TO.N,unconnected-(U401C-GPIO0_A0{slash}REF_CLK0_OUT-PadV29)*%
X42200000Y-32875000D03*
%TO.P,U401,W1*%
%TO.N,LP5_DQ0_A*%
X42750000Y-32875000D03*
%TO.P,U401,W28*%
%TO.N,SYS_RESET_L*%
X43300000Y-32875000D03*
%TO.P,U401,Y1*%
%TO.N,LP5_RDQS0N_A*%
X43850000Y-32875000D03*
%TO.P,U401,Y28*%
%TO.N,PMIC_PWRCTRL1*%
X44400000Y-32875000D03*
%TO.P,U401,Y29*%
%TO.N,PMIC_PWRCTRL3*%
X44950000Y-32875000D03*
%TD*%
D19*
%TO.P,L301,1*%
%TO.N,BUCK_2V0_SW*%
X13000000Y-8000000D03*
%TO.P,L301,2*%
%TO.N,VCC_2V0_PLDO_S3*%
X16000000Y-8000000D03*
%TD*%
D15*
%TO.P,R302,1*%
%TO.N,BUCK_2V0_FB*%
X6490000Y-18000000D03*
%TO.P,R302,2*%
%TO.N,GND*%
X7510000Y-18000000D03*
%TD*%
D16*
%TO.P,C207,1*%
%TO.N,VCC5V0_SYS_S5*%
X51225000Y-12000000D03*
%TO.P,C207,2*%
%TO.N,GND*%
X52775000Y-12000000D03*
%TD*%
D17*
%TO.P,C252,1*%
%TO.N,VCC5V0_SYS_S5*%
X53520000Y-31500000D03*
%TO.P,C252,2*%
%TO.N,GND*%
X54480000Y-31500000D03*
%TD*%
D15*
%TO.P,R911,1*%
%TO.N,HDMI_SDA*%
X40490000Y-38425000D03*
%TO.P,R911,2*%
%TO.N,VCC_3V3_S0*%
X41510000Y-38425000D03*
%TD*%
%TO.P,R902,1*%
%TO.N,HDMI_D0N_C*%
X28490000Y-36500000D03*
%TO.P,R902,2*%
%TO.N,HDMI_D0_TERM*%
X29510000Y-36500000D03*
%TD*%
D23*
%TO.P,U902,1*%
%TO.N,HDMI_D0P_C*%
X44115000Y-40000000D03*
%TO.P,U902,2*%
%TO.N,HDMI_D0N_C*%
X44115000Y-40500000D03*
%TO.P,U902,3*%
%TO.N,GND*%
X44115000Y-41000000D03*
%TO.P,U902,4*%
%TO.N,HDMI_D3P_C*%
X44115000Y-41500000D03*
%TO.P,U902,5*%
%TO.N,HDMI_D3N_C*%
X44115000Y-42000000D03*
%TO.P,U902,6*%
%TO.N,unconnected-(U902-NC-Pad6)*%
X44885000Y-42000000D03*
%TO.P,U902,7*%
%TO.N,unconnected-(U902-NC-Pad7)*%
X44885000Y-41500000D03*
%TO.P,U902,8*%
%TO.N,GND*%
X44885000Y-41000000D03*
%TO.P,U902,9*%
%TO.N,unconnected-(U902-NC-Pad9)*%
X44885000Y-40500000D03*
%TO.P,U902,10*%
%TO.N,unconnected-(U902-NC-Pad10)*%
X44885000Y-40000000D03*
%TD*%
D20*
%TO.P,U1004,1*%
%TO.N,VBUS_USB3A*%
X72862500Y-13050000D03*
%TO.P,U1004,2*%
%TO.N,GND*%
X72862500Y-14000000D03*
%TO.P,U1004,3*%
%TO.N,USB3A_OC_L*%
X72862500Y-14950000D03*
%TO.P,U1004,4*%
%TO.N,USB_HOST_PWREN*%
X75137500Y-14950000D03*
%TO.P,U1004,5*%
%TO.N,VCC5V0_SYS_S5*%
X75137500Y-13050000D03*
%TD*%
D22*
%TO.P,C905,1*%
%TO.N,HDMI_TX_D2P*%
X46180000Y-42000000D03*
%TO.P,C905,2*%
%TO.N,HDMI_D2P_C*%
X46820000Y-42000000D03*
%TD*%
D17*
%TO.P,C246,1*%
%TO.N,VCCIO_SD_S0*%
X18020000Y-8500000D03*
%TO.P,C246,2*%
%TO.N,GND*%
X18980000Y-8500000D03*
%TD*%
D16*
%TO.P,C201,1*%
%TO.N,VCC5V0_SYS_S5*%
X39225000Y-13000000D03*
%TO.P,C201,2*%
%TO.N,GND*%
X40775000Y-13000000D03*
%TD*%
D15*
%TO.P,R304,1*%
%TO.N,BUCK_1V1_FB*%
X5490000Y-19500000D03*
%TO.P,R304,2*%
%TO.N,GND*%
X6510000Y-19500000D03*
%TD*%
D36*
%TO.P,SW502,1*%
%TO.N,PWRON_L*%
X55925000Y-1925000D03*
X60075000Y-1925000D03*
%TO.P,SW502,2*%
%TO.N,GND*%
X55925000Y-4075000D03*
X60075000Y-4075000D03*
%TD*%
D15*
%TO.P,R204,1*%
%TO.N,PMIC_FB2*%
X42490000Y-36500000D03*
%TO.P,R204,2*%
%TO.N,GND*%
X43510000Y-36500000D03*
%TD*%
D21*
%TO.P,Q907,1*%
%TO.N,VCC_3V3_S0*%
X39562500Y-39975000D03*
%TO.P,Q907,2*%
%TO.N,HDMI_CEC*%
X39562500Y-41875000D03*
%TO.P,Q907,3*%
%TO.N,HDMI_CEC_5V*%
X41437500Y-40925000D03*
%TD*%
D16*
%TO.P,C235,1*%
%TO.N,VDDQ_DDR_S0*%
X58725000Y-25500000D03*
%TO.P,C235,2*%
%TO.N,GND*%
X60275000Y-25500000D03*
%TD*%
%TO.P,C104,1*%
%TO.N,VCC5V0_SYS_S5*%
X68725000Y-11500000D03*
%TO.P,C104,2*%
%TO.N,GND*%
X70275000Y-11500000D03*
%TD*%
D20*
%TO.P,U302,1*%
%TO.N,GND*%
X8362500Y-13550000D03*
%TO.P,U302,2*%
%TO.N,BUCK_1V1_SW*%
X8362500Y-14500000D03*
%TO.P,U302,3*%
%TO.N,VCC5V0_SYS_S5*%
X8362500Y-15450000D03*
%TO.P,U302,4*%
%TO.N,BUCK_1V1_FB*%
X10637500Y-15450000D03*
%TO.P,U302,5*%
%TO.N,VCC5V0_SYS_S5*%
X10637500Y-14500000D03*
%TO.P,U302,6*%
%TO.N,BUCK_1V1_BST*%
X10637500Y-13550000D03*
%TD*%
D16*
%TO.P,C219,1*%
%TO.N,VCC5V0_SYS_S5*%
X55225000Y-23500000D03*
%TO.P,C219,2*%
%TO.N,GND*%
X56775000Y-23500000D03*
%TD*%
D15*
%TO.P,R908,1*%
%TO.N,HDMI_D3N_C*%
X20990000Y-36500000D03*
%TO.P,R908,2*%
%TO.N,HDMI_D3_TERM*%
X22010000Y-36500000D03*
%TD*%
%TO.P,R910,1*%
%TO.N,HDMI_SCL_5V*%
X37990000Y-38425000D03*
%TO.P,R910,2*%
%TO.N,VCC5V_HDMI*%
X39010000Y-38425000D03*
%TD*%
%TO.P,R307,1*%
%TO.N,VCC3V3_PCIE*%
X53990000Y-46000000D03*
%TO.P,R307,2*%
%TO.N,BUCK_M2_FB*%
X55010000Y-46000000D03*
%TD*%
D16*
%TO.P,C234,1*%
%TO.N,VCC5V0_SYS_S5*%
X13725000Y-15500000D03*
%TO.P,C234,2*%
%TO.N,GND*%
X15275000Y-15500000D03*
%TD*%
D15*
%TO.P,R901,1*%
%TO.N,HDMI_D0P_C*%
X24490000Y-35000000D03*
%TO.P,R901,2*%
%TO.N,HDMI_D0_TERM*%
X25510000Y-35000000D03*
%TD*%
%TO.P,R212,1*%
%TO.N,PMIC_SDA*%
X60490000Y-29000000D03*
%TO.P,R212,2*%
%TO.N,VCC_1V8_S3*%
X61510000Y-29000000D03*
%TD*%
D17*
%TO.P,C244,1*%
%TO.N,VCCA_1V8_S0*%
X18020000Y-7000000D03*
%TO.P,C244,2*%
%TO.N,GND*%
X18980000Y-7000000D03*
%TD*%
D37*
%TO.P,C101,1*%
%TO.N,VCC5V0_SYS_S5*%
X68550000Y-17500000D03*
%TO.P,C101,2*%
%TO.N,GND*%
X70450000Y-17500000D03*
%TD*%
D15*
%TO.P,R301,1*%
%TO.N,VCC_2V0_PLDO_S3*%
X1490000Y-8000000D03*
%TO.P,R301,2*%
%TO.N,BUCK_2V0_FB*%
X2510000Y-8000000D03*
%TD*%
%TO.P,R206,1*%
%TO.N,PMIC_FB5*%
X68990000Y-3500000D03*
%TO.P,R206,2*%
%TO.N,GND*%
X70010000Y-3500000D03*
%TD*%
D16*
%TO.P,C317,1*%
%TO.N,VCC_3V3_S0*%
X69725000Y-5500000D03*
%TO.P,C317,2*%
%TO.N,GND*%
X71275000Y-5500000D03*
%TD*%
D38*
%TO.P,FB301,1*%
%TO.N,VCC_1V8_S3*%
X60212500Y-6500000D03*
%TO.P,FB301,2*%
%TO.N,VDD1_DDR_S3*%
X61787500Y-6500000D03*
%TD*%
D17*
%TO.P,C501,1*%
%TO.N,OSC_24M_IN*%
X53020000Y-39500000D03*
%TO.P,C501,2*%
%TO.N,GND*%
X53980000Y-39500000D03*
%TD*%
D39*
%TO.P,U701,A1*%
%TO.N,N/C*%
X57750000Y-11750000D03*
%TO.P,U701,A2*%
X58250000Y-11750000D03*
%TO.P,U701,A3*%
%TO.N,EMMC_DAT0*%
X58750000Y-11750000D03*
%TO.P,U701,A4*%
%TO.N,EMMC_DAT1*%
X59250000Y-11750000D03*
%TO.P,U701,A5*%
%TO.N,EMMC_DAT2*%
X59750000Y-11750000D03*
%TO.P,U701,A6*%
%TO.N,GND*%
X60250000Y-11750000D03*
%TO.P,U701,A7*%
%TO.N,N/C*%
X60750000Y-11750000D03*
%TO.P,U701,A8*%
X61250000Y-11750000D03*
%TO.P,U701,A9*%
X61750000Y-11750000D03*
%TO.P,U701,A10*%
X62250000Y-11750000D03*
%TO.P,U701,A11*%
X62750000Y-11750000D03*
%TO.P,U701,A12*%
X63250000Y-11750000D03*
%TO.P,U701,A13*%
X63750000Y-11750000D03*
%TO.P,U701,A14*%
X64250000Y-11750000D03*
%TO.P,U701,B1*%
X57750000Y-12250000D03*
%TO.P,U701,B2*%
%TO.N,EMMC_DAT3*%
X58250000Y-12250000D03*
%TO.P,U701,B3*%
%TO.N,EMMC_DAT4*%
X58750000Y-12250000D03*
%TO.P,U701,B4*%
%TO.N,EMMC_DAT5*%
X59250000Y-12250000D03*
%TO.P,U701,B5*%
%TO.N,EMMC_DAT6*%
X59750000Y-12250000D03*
%TO.P,U701,B6*%
%TO.N,EMMC_DAT7*%
X60250000Y-12250000D03*
%TO.P,U701,B7*%
%TO.N,N/C*%
X60750000Y-12250000D03*
%TO.P,U701,B8*%
X61250000Y-12250000D03*
%TO.P,U701,B9*%
X61750000Y-12250000D03*
%TO.P,U701,B10*%
X62250000Y-12250000D03*
%TO.P,U701,B11*%
X62750000Y-12250000D03*
%TO.P,U701,B12*%
X63250000Y-12250000D03*
%TO.P,U701,B13*%
X63750000Y-12250000D03*
%TO.P,U701,B14*%
X64250000Y-12250000D03*
%TO.P,U701,C1*%
X57750000Y-12750000D03*
%TO.P,U701,C2*%
%TO.N,EMMC_VDDI*%
X58250000Y-12750000D03*
%TO.P,U701,C3*%
%TO.N,N/C*%
X58750000Y-12750000D03*
%TO.P,U701,C4*%
%TO.N,GND*%
X59250000Y-12750000D03*
%TO.P,U701,C5*%
%TO.N,N/C*%
X59750000Y-12750000D03*
%TO.P,U701,C6*%
%TO.N,VCC_1V8_S3*%
X60250000Y-12750000D03*
%TO.P,U701,C7*%
%TO.N,N/C*%
X60750000Y-12750000D03*
%TO.P,U701,C8*%
X61250000Y-12750000D03*
%TO.P,U701,C9*%
X61750000Y-12750000D03*
%TO.P,U701,C10*%
X62250000Y-12750000D03*
%TO.P,U701,C11*%
X62750000Y-12750000D03*
%TO.P,U701,C12*%
X63250000Y-12750000D03*
%TO.P,U701,C13*%
X63750000Y-12750000D03*
%TO.P,U701,C14*%
X64250000Y-12750000D03*
%TO.P,U701,D1*%
X57750000Y-13250000D03*
%TO.P,U701,D2*%
X58250000Y-13250000D03*
%TO.P,U701,D3*%
X58750000Y-13250000D03*
%TO.P,U701,D4*%
X59250000Y-13250000D03*
%TO.P,U701,D12*%
X63250000Y-13250000D03*
%TO.P,U701,D13*%
X63750000Y-13250000D03*
%TO.P,U701,D14*%
X64250000Y-13250000D03*
%TO.P,U701,E1*%
X57750000Y-13750000D03*
%TO.P,U701,E2*%
X58250000Y-13750000D03*
%TO.P,U701,E3*%
X58750000Y-13750000D03*
%TO.P,U701,E5*%
X59750000Y-13750000D03*
%TO.P,U701,E6*%
%TO.N,VCC_3V3_S0*%
X60250000Y-13750000D03*
%TO.P,U701,E7*%
%TO.N,GND*%
X60750000Y-13750000D03*
%TO.P,U701,E8*%
%TO.N,N/C*%
X61250000Y-13750000D03*
%TO.P,U701,E9*%
X61750000Y-13750000D03*
%TO.P,U701,E10*%
X62250000Y-13750000D03*
%TO.P,U701,E12*%
X63250000Y-13750000D03*
%TO.P,U701,E13*%
X63750000Y-13750000D03*
%TO.P,U701,E14*%
X64250000Y-13750000D03*
%TO.P,U701,F1*%
X57750000Y-14250000D03*
%TO.P,U701,F2*%
X58250000Y-14250000D03*
%TO.P,U701,F3*%
X58750000Y-14250000D03*
%TO.P,U701,F5*%
%TO.N,VCC_3V3_S0*%
X59750000Y-14250000D03*
%TO.P,U701,F10*%
%TO.N,N/C*%
X62250000Y-14250000D03*
%TO.P,U701,F12*%
X63250000Y-14250000D03*
%TO.P,U701,F13*%
X63750000Y-14250000D03*
%TO.P,U701,F14*%
X64250000Y-14250000D03*
%TO.P,U701,G1*%
X57750000Y-14750000D03*
%TO.P,U701,G2*%
X58250000Y-14750000D03*
%TO.P,U701,G3*%
X58750000Y-14750000D03*
%TO.P,U701,G5*%
%TO.N,GND*%
X59750000Y-14750000D03*
%TO.P,U701,G10*%
%TO.N,N/C*%
X62250000Y-14750000D03*
%TO.P,U701,G12*%
X63250000Y-14750000D03*
%TO.P,U701,G13*%
X63750000Y-14750000D03*
%TO.P,U701,G14*%
X64250000Y-14750000D03*
%TO.P,U701,H1*%
X57750000Y-15250000D03*
%TO.P,U701,H2*%
X58250000Y-15250000D03*
%TO.P,U701,H3*%
X58750000Y-15250000D03*
%TO.P,U701,H5*%
%TO.N,EMMC_DS*%
X59750000Y-15250000D03*
%TO.P,U701,H10*%
%TO.N,GND*%
X62250000Y-15250000D03*
%TO.P,U701,H12*%
%TO.N,N/C*%
X63250000Y-15250000D03*
%TO.P,U701,H13*%
X63750000Y-15250000D03*
%TO.P,U701,H14*%
X64250000Y-15250000D03*
%TO.P,U701,J1*%
X57750000Y-15750000D03*
%TO.P,U701,J2*%
X58250000Y-15750000D03*
%TO.P,U701,J3*%
X58750000Y-15750000D03*
%TO.P,U701,J5*%
%TO.N,GND*%
X59750000Y-15750000D03*
%TO.P,U701,J10*%
%TO.N,VCC_3V3_S0*%
X62250000Y-15750000D03*
%TO.P,U701,J12*%
%TO.N,N/C*%
X63250000Y-15750000D03*
%TO.P,U701,J13*%
X63750000Y-15750000D03*
%TO.P,U701,J14*%
X64250000Y-15750000D03*
%TO.P,U701,K1*%
X57750000Y-16250000D03*
%TO.P,U701,K2*%
X58250000Y-16250000D03*
%TO.P,U701,K3*%
X58750000Y-16250000D03*
%TO.P,U701,K5*%
%TO.N,EMMC_RSTN*%
X59750000Y-16250000D03*
%TO.P,U701,K6*%
%TO.N,N/C*%
X60250000Y-16250000D03*
%TO.P,U701,K7*%
X60750000Y-16250000D03*
%TO.P,U701,K8*%
%TO.N,GND*%
X61250000Y-16250000D03*
%TO.P,U701,K9*%
%TO.N,VCC_3V3_S0*%
X61750000Y-16250000D03*
%TO.P,U701,K10*%
%TO.N,N/C*%
X62250000Y-16250000D03*
%TO.P,U701,K12*%
X63250000Y-16250000D03*
%TO.P,U701,K13*%
X63750000Y-16250000D03*
%TO.P,U701,K14*%
X64250000Y-16250000D03*
%TO.P,U701,L1*%
X57750000Y-16750000D03*
%TO.P,U701,L2*%
X58250000Y-16750000D03*
%TO.P,U701,L3*%
X58750000Y-16750000D03*
%TO.P,U701,L12*%
X63250000Y-16750000D03*
%TO.P,U701,L13*%
X63750000Y-16750000D03*
%TO.P,U701,L14*%
X64250000Y-16750000D03*
%TO.P,U701,M1*%
X57750000Y-17250000D03*
%TO.P,U701,M2*%
X58250000Y-17250000D03*
%TO.P,U701,M3*%
X58750000Y-17250000D03*
%TO.P,U701,M4*%
%TO.N,VCC_1V8_S3*%
X59250000Y-17250000D03*
%TO.P,U701,M5*%
%TO.N,EMMC_CMD*%
X59750000Y-17250000D03*
%TO.P,U701,M6*%
%TO.N,EMMC_CLK*%
X60250000Y-17250000D03*
%TO.P,U701,M7*%
%TO.N,N/C*%
X60750000Y-17250000D03*
%TO.P,U701,M8*%
X61250000Y-17250000D03*
%TO.P,U701,M9*%
X61750000Y-17250000D03*
%TO.P,U701,M10*%
X62250000Y-17250000D03*
%TO.P,U701,M11*%
X62750000Y-17250000D03*
%TO.P,U701,M12*%
X63250000Y-17250000D03*
%TO.P,U701,M13*%
X63750000Y-17250000D03*
%TO.P,U701,M14*%
X64250000Y-17250000D03*
%TO.P,U701,N1*%
X57750000Y-17750000D03*
%TO.P,U701,N2*%
%TO.N,GND*%
X58250000Y-17750000D03*
%TO.P,U701,N3*%
%TO.N,N/C*%
X58750000Y-17750000D03*
%TO.P,U701,N4*%
%TO.N,VCC_1V8_S3*%
X59250000Y-17750000D03*
%TO.P,U701,N5*%
%TO.N,GND*%
X59750000Y-17750000D03*
%TO.P,U701,N6*%
%TO.N,N/C*%
X60250000Y-17750000D03*
%TO.P,U701,N7*%
X60750000Y-17750000D03*
%TO.P,U701,N8*%
X61250000Y-17750000D03*
%TO.P,U701,N9*%
X61750000Y-17750000D03*
%TO.P,U701,N10*%
X62250000Y-17750000D03*
%TO.P,U701,N11*%
X62750000Y-17750000D03*
%TO.P,U701,N12*%
X63250000Y-17750000D03*
%TO.P,U701,N13*%
X63750000Y-17750000D03*
%TO.P,U701,N14*%
X64250000Y-17750000D03*
%TO.P,U701,P1*%
X57750000Y-18250000D03*
%TO.P,U701,P2*%
X58250000Y-18250000D03*
%TO.P,U701,P3*%
%TO.N,VCC_1V8_S3*%
X58750000Y-18250000D03*
%TO.P,U701,P4*%
%TO.N,GND*%
X59250000Y-18250000D03*
%TO.P,U701,P5*%
%TO.N,VCC_1V8_S3*%
X59750000Y-18250000D03*
%TO.P,U701,P6*%
%TO.N,GND*%
X60250000Y-18250000D03*
%TO.P,U701,P7*%
%TO.N,N/C*%
X60750000Y-18250000D03*
%TO.P,U701,P8*%
X61250000Y-18250000D03*
%TO.P,U701,P9*%
X61750000Y-18250000D03*
%TO.P,U701,P10*%
X62250000Y-18250000D03*
%TO.P,U701,P11*%
X62750000Y-18250000D03*
%TO.P,U701,P12*%
X63250000Y-18250000D03*
%TO.P,U701,P13*%
X63750000Y-18250000D03*
%TO.P,U701,P14*%
X64250000Y-18250000D03*
%TD*%
D19*
%TO.P,L304,1*%
%TO.N,BUCK_M2_SW*%
X56500000Y-41500000D03*
%TO.P,L304,2*%
%TO.N,VCC3V3_PCIE*%
X59500000Y-41500000D03*
%TD*%
%TO.P,L302,1*%
%TO.N,BUCK_1V1_SW*%
X3000000Y-14500000D03*
%TO.P,L302,2*%
%TO.N,VCC_1V1_NLDO_S3*%
X6000000Y-14500000D03*
%TD*%
D20*
%TO.P,U1001,1*%
%TO.N,USBC_DP*%
X22862500Y-45050000D03*
%TO.P,U1001,2*%
%TO.N,GND*%
X22862500Y-46000000D03*
%TO.P,U1001,3*%
%TO.N,USBC_DM*%
X22862500Y-46950000D03*
%TO.P,U1001,4*%
X25137500Y-46950000D03*
%TO.P,U1001,5*%
%TO.N,VBUS_IN*%
X25137500Y-46000000D03*
%TO.P,U1001,6*%
%TO.N,USBC_DP*%
X25137500Y-45050000D03*
%TD*%
D21*
%TO.P,Q901,1*%
%TO.N,HDMI_TX_ON_H*%
X28062500Y-25050000D03*
%TO.P,Q901,2*%
%TO.N,GND*%
X28062500Y-26950000D03*
%TO.P,Q901,3*%
%TO.N,HDMI_D0_TERM*%
X29937500Y-26000000D03*
%TD*%
D16*
%TO.P,C226,1*%
%TO.N,VCC_3V3_S3*%
X14725000Y-2500000D03*
%TO.P,C226,2*%
%TO.N,GND*%
X16275000Y-2500000D03*
%TD*%
%TO.P,C224,1*%
%TO.N,VDD_DDR_S0*%
X63725000Y-6500000D03*
%TO.P,C224,2*%
%TO.N,GND*%
X65275000Y-6500000D03*
%TD*%
D40*
%TO.P,FID1203,*%
%TO.N,*%
X23000000Y-53000000D03*
%TD*%
D15*
%TO.P,R917,1*%
%TO.N,HDMI_HPD_5V*%
X25490000Y-48925000D03*
%TO.P,R917,2*%
%TO.N,GND*%
X26510000Y-48925000D03*
%TD*%
%TO.P,R203,1*%
%TO.N,PMIC_FB2*%
X36490000Y-36500000D03*
%TO.P,R203,2*%
%TO.N,VDD_NPU_S0*%
X37510000Y-36500000D03*
%TD*%
D22*
%TO.P,C907,1*%
%TO.N,HDMI_TX_D3P*%
X44180000Y-38500000D03*
%TO.P,C907,2*%
%TO.N,HDMI_D3P_C*%
X44820000Y-38500000D03*
%TD*%
D41*
%TO.P,F101,1*%
%TO.N,VBUS_IN*%
X77600000Y-14500000D03*
%TO.P,F101,2*%
%TO.N,VCC5V0_SYS_S5*%
X80400000Y-14500000D03*
%TD*%
D38*
%TO.P,LED101,1*%
%TO.N,LED_PWR_K*%
X2712500Y-46000000D03*
%TO.P,LED101,2*%
%TO.N,VCC5V0_SYS_S5*%
X4287500Y-46000000D03*
%TD*%
D16*
%TO.P,C314,1*%
%TO.N,VCC5V0_SYS_S5*%
X1725000Y-10000000D03*
%TO.P,C314,2*%
%TO.N,GND*%
X3275000Y-10000000D03*
%TD*%
D17*
%TO.P,C238,1*%
%TO.N,VDDA0V75_HDMI_S0*%
X36520000Y-13000000D03*
%TO.P,C238,2*%
%TO.N,GND*%
X37480000Y-13000000D03*
%TD*%
D16*
%TO.P,C210,1*%
%TO.N,VDD_NPU_S0*%
X25225000Y-1500000D03*
%TO.P,C210,2*%
%TO.N,GND*%
X26775000Y-1500000D03*
%TD*%
%TO.P,C307,1*%
%TO.N,VCC_1V1_NLDO_S3*%
X62225000Y-25000000D03*
%TO.P,C307,2*%
%TO.N,GND*%
X63775000Y-25000000D03*
%TD*%
D36*
%TO.P,SW501,1*%
%TO.N,SARADC_IN0_BOOT*%
X48925000Y-1925000D03*
X53075000Y-1925000D03*
%TO.P,SW501,2*%
%TO.N,GND*%
X48925000Y-4075000D03*
X53075000Y-4075000D03*
%TD*%
D21*
%TO.P,Q904,1*%
%TO.N,HDMI_TX_ON_H*%
X28062500Y-17050000D03*
%TO.P,Q904,2*%
%TO.N,GND*%
X28062500Y-18950000D03*
%TO.P,Q904,3*%
%TO.N,HDMI_D3_TERM*%
X29937500Y-18000000D03*
%TD*%
D16*
%TO.P,C223,1*%
%TO.N,VDD_DDR_S0*%
X55225000Y-25500000D03*
%TO.P,C223,2*%
%TO.N,GND*%
X56775000Y-25500000D03*
%TD*%
D17*
%TO.P,C241,1*%
%TO.N,VDD_0V75_S3*%
X36520000Y-14500000D03*
%TO.P,C241,2*%
%TO.N,GND*%
X37480000Y-14500000D03*
%TD*%
D38*
%TO.P,LED501,1*%
%TO.N,LED_SYS_L*%
X2712500Y-43000000D03*
%TO.P,LED501,2*%
%TO.N,LED_SYS_A*%
X4287500Y-43000000D03*
%TD*%
D16*
%TO.P,C236,1*%
%TO.N,VDDQ_DDR_S0*%
X57225000Y-27500000D03*
%TO.P,C236,2*%
%TO.N,GND*%
X58775000Y-27500000D03*
%TD*%
D15*
%TO.P,R909,1*%
%TO.N,HDMI_SCL*%
X32990000Y-38425000D03*
%TO.P,R909,2*%
%TO.N,VCC_3V3_S0*%
X34010000Y-38425000D03*
%TD*%
D22*
%TO.P,C908,1*%
%TO.N,HDMI_TX_D3N*%
X45180000Y-43500000D03*
%TO.P,C908,2*%
%TO.N,HDMI_D3N_C*%
X45820000Y-43500000D03*
%TD*%
D16*
%TO.P,C306,1*%
%TO.N,VCC5V0_SYS_S5*%
X4225000Y-8000000D03*
%TO.P,C306,2*%
%TO.N,GND*%
X5775000Y-8000000D03*
%TD*%
%TO.P,C227,1*%
%TO.N,VCC_3V3_S3*%
X50225000Y-29500000D03*
%TO.P,C227,2*%
%TO.N,GND*%
X51775000Y-29500000D03*
%TD*%
D42*
%TO.P,U601,A1*%
%TO.N,N/C*%
X14400000Y-19000000D03*
%TO.P,U601,A2*%
X15200000Y-19000000D03*
%TO.P,U601,A3*%
%TO.N,VDDQ_DDR_S0*%
X16000000Y-19000000D03*
%TO.P,U601,A4*%
%TO.N,LP5_DMI0_A*%
X16800000Y-19000000D03*
%TO.P,U601,A5*%
%TO.N,GND*%
X17600000Y-19000000D03*
%TO.P,U601,A6*%
%TO.N,VDD2L_DDR_S3*%
X18400000Y-19000000D03*
%TO.P,U601,A7*%
%TO.N,VDD2H_DDR_S3*%
X19200000Y-19000000D03*
%TO.P,U601,A8*%
X20000000Y-19000000D03*
%TO.P,U601,A9*%
X20800000Y-19000000D03*
%TO.P,U601,A10*%
%TO.N,VDD2L_DDR_S3*%
X21600000Y-19000000D03*
%TO.P,U601,A11*%
%TO.N,GND*%
X22400000Y-19000000D03*
%TO.P,U601,A12*%
%TO.N,LP5_DMI1_A*%
X23200000Y-19000000D03*
%TO.P,U601,A13*%
%TO.N,VDDQ_DDR_S0*%
X24000000Y-19000000D03*
%TO.P,U601,A14*%
%TO.N,N/C*%
X24800000Y-19000000D03*
%TO.P,U601,A15*%
X25600000Y-19000000D03*
%TO.P,U601,AA1*%
X14400000Y-33000000D03*
%TO.P,U601,AA2*%
X15200000Y-33000000D03*
%TO.P,U601,AA3*%
%TO.N,VDDQ_DDR_S0*%
X16000000Y-33000000D03*
%TO.P,U601,AA4*%
%TO.N,LP5_DMI1_B*%
X16800000Y-33000000D03*
%TO.P,U601,AA5*%
%TO.N,GND*%
X17600000Y-33000000D03*
%TO.P,U601,AA6*%
%TO.N,VDD2L_DDR_S3*%
X18400000Y-33000000D03*
%TO.P,U601,AA7*%
%TO.N,VDD2H_DDR_S3*%
X19200000Y-33000000D03*
%TO.P,U601,AA8*%
X20000000Y-33000000D03*
%TO.P,U601,AA9*%
X20800000Y-33000000D03*
%TO.P,U601,AA10*%
%TO.N,VDD2L_DDR_S3*%
X21600000Y-33000000D03*
%TO.P,U601,AA11*%
%TO.N,GND*%
X22400000Y-33000000D03*
%TO.P,U601,AA12*%
%TO.N,LP5_DMI0_B*%
X23200000Y-33000000D03*
%TO.P,U601,AA13*%
%TO.N,VDDQ_DDR_S0*%
X24000000Y-33000000D03*
%TO.P,U601,AA14*%
%TO.N,N/C*%
X24800000Y-33000000D03*
%TO.P,U601,AA15*%
X25600000Y-33000000D03*
%TO.P,U601,B1*%
X14400000Y-19700000D03*
%TO.P,U601,B2*%
%TO.N,VDDQ_DDR_S0*%
X15200000Y-19700000D03*
%TO.P,U601,B3*%
%TO.N,LP5_RDQS0P_A*%
X16000000Y-19700000D03*
%TO.P,U601,B4*%
%TO.N,GND*%
X16800000Y-19700000D03*
%TO.P,U601,B5*%
%TO.N,LP5_DQ4_A*%
X17600000Y-19700000D03*
%TO.P,U601,B6*%
%TO.N,VDD2L_DDR_S3*%
X18400000Y-19700000D03*
%TO.P,U601,B7*%
%TO.N,VDD2H_DDR_S3*%
X19200000Y-19700000D03*
%TO.P,U601,B8*%
%TO.N,GND*%
X20000000Y-19700000D03*
%TO.P,U601,B9*%
%TO.N,VDD2H_DDR_S3*%
X20800000Y-19700000D03*
%TO.P,U601,B10*%
%TO.N,VDD2L_DDR_S3*%
X21600000Y-19700000D03*
%TO.P,U601,B11*%
%TO.N,LP5_DQ12_A*%
X22400000Y-19700000D03*
%TO.P,U601,B12*%
%TO.N,GND*%
X23200000Y-19700000D03*
%TO.P,U601,B13*%
%TO.N,LP5_RDQS1P_A*%
X24000000Y-19700000D03*
%TO.P,U601,B14*%
%TO.N,VDDQ_DDR_S0*%
X24800000Y-19700000D03*
%TO.P,U601,B15*%
%TO.N,N/C*%
X25600000Y-19700000D03*
%TO.P,U601,C1*%
%TO.N,VDD1_DDR_S3*%
X14400000Y-20400000D03*
%TO.P,U601,C2*%
%TO.N,LP5_DQ1_A*%
X15200000Y-20400000D03*
%TO.P,U601,C3*%
%TO.N,VDDQ_DDR_S0*%
X16000000Y-20400000D03*
%TO.P,U601,C4*%
%TO.N,LP5_RDQS0N_A*%
X16800000Y-20400000D03*
%TO.P,U601,C5*%
%TO.N,GND*%
X17600000Y-20400000D03*
%TO.P,U601,C6*%
%TO.N,LP5_DQ5_A*%
X18400000Y-20400000D03*
%TO.P,U601,C7*%
%TO.N,VDD2H_DDR_S3*%
X19200000Y-20400000D03*
%TO.P,U601,C8*%
%TO.N,GND*%
X20000000Y-20400000D03*
%TO.P,U601,C9*%
%TO.N,VDD2H_DDR_S3*%
X20800000Y-20400000D03*
%TO.P,U601,C10*%
%TO.N,LP5_DQ13_A*%
X21600000Y-20400000D03*
%TO.P,U601,C11*%
%TO.N,GND*%
X22400000Y-20400000D03*
%TO.P,U601,C12*%
%TO.N,LP5_RDQS1N_A*%
X23200000Y-20400000D03*
%TO.P,U601,C13*%
%TO.N,VDDQ_DDR_S0*%
X24000000Y-20400000D03*
%TO.P,U601,C14*%
%TO.N,LP5_DQ9_A*%
X24800000Y-20400000D03*
%TO.P,U601,C15*%
%TO.N,VDD1_DDR_S3*%
X25600000Y-20400000D03*
%TO.P,U601,D1*%
%TO.N,LP5_DQ0_A*%
X14400000Y-21100000D03*
%TO.P,U601,D2*%
%TO.N,GND*%
X15200000Y-21100000D03*
%TO.P,U601,D3*%
%TO.N,LP5_DQ3_A*%
X16000000Y-21100000D03*
%TO.P,U601,D4*%
%TO.N,VDDQ_DDR_S0*%
X16800000Y-21100000D03*
%TO.P,U601,D5*%
%TO.N,LP5_WCK0N_A*%
X17600000Y-21100000D03*
%TO.P,U601,D6*%
%TO.N,GND*%
X18400000Y-21100000D03*
%TO.P,U601,D7*%
X19200000Y-21100000D03*
%TO.P,U601,D8*%
%TO.N,VDD2H_DDR_S3*%
X20000000Y-21100000D03*
%TO.P,U601,D9*%
%TO.N,GND*%
X20800000Y-21100000D03*
%TO.P,U601,D10*%
X21600000Y-21100000D03*
%TO.P,U601,D11*%
%TO.N,LP5_WCK1N_A*%
X22400000Y-21100000D03*
%TO.P,U601,D12*%
%TO.N,VDDQ_DDR_S0*%
X23200000Y-21100000D03*
%TO.P,U601,D13*%
%TO.N,LP5_DQ11_A*%
X24000000Y-21100000D03*
%TO.P,U601,D14*%
%TO.N,GND*%
X24800000Y-21100000D03*
%TO.P,U601,D15*%
%TO.N,LP5_DQ8_A*%
X25600000Y-21100000D03*
%TO.P,U601,E1*%
%TO.N,GND*%
X14400000Y-21800000D03*
%TO.P,U601,E2*%
%TO.N,LP5_DQ2_A*%
X15200000Y-21800000D03*
%TO.P,U601,E3*%
%TO.N,GND*%
X16000000Y-21800000D03*
%TO.P,U601,E4*%
%TO.N,LP5_WCK0P_A*%
X16800000Y-21800000D03*
%TO.P,U601,E5*%
%TO.N,VDDQ_DDR_S0*%
X17600000Y-21800000D03*
%TO.P,U601,E6*%
%TO.N,LP5_DQ6_A*%
X18400000Y-21800000D03*
%TO.P,U601,E7*%
%TO.N,VDD2H_DDR_S3*%
X19200000Y-21800000D03*
%TO.P,U601,E8*%
%TO.N,GND*%
X20000000Y-21800000D03*
%TO.P,U601,E9*%
%TO.N,VDD2H_DDR_S3*%
X20800000Y-21800000D03*
%TO.P,U601,E10*%
%TO.N,LP5_DQ14_A*%
X21600000Y-21800000D03*
%TO.P,U601,E11*%
%TO.N,VDDQ_DDR_S0*%
X22400000Y-21800000D03*
%TO.P,U601,E12*%
%TO.N,LP5_WCK1P_A*%
X23200000Y-21800000D03*
%TO.P,U601,E13*%
%TO.N,GND*%
X24000000Y-21800000D03*
%TO.P,U601,E14*%
%TO.N,LP5_DQ10_A*%
X24800000Y-21800000D03*
%TO.P,U601,E15*%
%TO.N,GND*%
X25600000Y-21800000D03*
%TO.P,U601,F1*%
%TO.N,VDDQ_DDR_S0*%
X14400000Y-22500000D03*
%TO.P,U601,F2*%
%TO.N,GND*%
X15200000Y-22500000D03*
%TO.P,U601,F3*%
%TO.N,VDDQ_DDR_S0*%
X16000000Y-22500000D03*
%TO.P,U601,F4*%
X16800000Y-22500000D03*
%TO.P,U601,F5*%
%TO.N,LP5_DQ7_A*%
X17600000Y-22500000D03*
%TO.P,U601,F6*%
%TO.N,VDD2H_DDR_S3*%
X18400000Y-22500000D03*
%TO.P,U601,F7*%
X19200000Y-22500000D03*
%TO.P,U601,F8*%
%TO.N,GND*%
X20000000Y-22500000D03*
%TO.P,U601,F9*%
%TO.N,VDD2H_DDR_S3*%
X20800000Y-22500000D03*
%TO.P,U601,F10*%
X21600000Y-22500000D03*
%TO.P,U601,F11*%
%TO.N,LP5_DQ15_A*%
X22400000Y-22500000D03*
%TO.P,U601,F12*%
%TO.N,VDDQ_DDR_S0*%
X23200000Y-22500000D03*
%TO.P,U601,F13*%
X24000000Y-22500000D03*
%TO.P,U601,F14*%
%TO.N,GND*%
X24800000Y-22500000D03*
%TO.P,U601,F15*%
%TO.N,VDDQ_DDR_S0*%
X25600000Y-22500000D03*
%TO.P,U601,G1*%
X14400000Y-23200000D03*
%TO.P,U601,G2*%
X15200000Y-23200000D03*
%TO.P,U601,G3*%
%TO.N,GND*%
X16000000Y-23200000D03*
%TO.P,U601,G4*%
%TO.N,LP5_A0_A*%
X16800000Y-23200000D03*
%TO.P,U601,G5*%
%TO.N,GND*%
X17600000Y-23200000D03*
%TO.P,U601,G6*%
%TO.N,LP5_CSN1_A*%
X18400000Y-23200000D03*
%TO.P,U601,G7*%
%TO.N,GND*%
X19200000Y-23200000D03*
%TO.P,U601,G8*%
%TO.N,LP5_A2_A*%
X20000000Y-23200000D03*
%TO.P,U601,G9*%
%TO.N,GND*%
X20800000Y-23200000D03*
%TO.P,U601,G10*%
%TO.N,LP5_A4_A*%
X21600000Y-23200000D03*
%TO.P,U601,G11*%
%TO.N,GND*%
X22400000Y-23200000D03*
%TO.P,U601,G12*%
%TO.N,LP5_A6_A*%
X23200000Y-23200000D03*
%TO.P,U601,G13*%
%TO.N,GND*%
X24000000Y-23200000D03*
%TO.P,U601,G14*%
%TO.N,VDDQ_DDR_S0*%
X24800000Y-23200000D03*
%TO.P,U601,G15*%
X25600000Y-23200000D03*
%TO.P,U601,H1*%
%TO.N,DDR_RESET_L*%
X14400000Y-23900000D03*
%TO.P,U601,H2*%
%TO.N,VDD2L_DDR_S3*%
X15200000Y-23900000D03*
%TO.P,U601,H3*%
%TO.N,GND*%
X16000000Y-23900000D03*
%TO.P,U601,H4*%
X16800000Y-23900000D03*
%TO.P,U601,H5*%
%TO.N,LP5_A1_A*%
X17600000Y-23900000D03*
%TO.P,U601,H6*%
%TO.N,GND*%
X18400000Y-23900000D03*
%TO.P,U601,H7*%
%TO.N,LP5_CSN0_A*%
X19200000Y-23900000D03*
%TO.P,U601,H8*%
%TO.N,GND*%
X20000000Y-23900000D03*
%TO.P,U601,H9*%
%TO.N,LP5_CLKP_A*%
X20800000Y-23900000D03*
%TO.P,U601,H10*%
%TO.N,GND*%
X21600000Y-23900000D03*
%TO.P,U601,H11*%
%TO.N,LP5_A3_A*%
X22400000Y-23900000D03*
%TO.P,U601,H12*%
%TO.N,GND*%
X23200000Y-23900000D03*
%TO.P,U601,H13*%
%TO.N,LP5_A5_A*%
X24000000Y-23900000D03*
%TO.P,U601,H14*%
%TO.N,VDD2L_DDR_S3*%
X24800000Y-23900000D03*
%TO.P,U601,H15*%
%TO.N,LP5_ZQ*%
X25600000Y-23900000D03*
%TO.P,U601,J1*%
%TO.N,GND*%
X14400000Y-24600000D03*
%TO.P,U601,J2*%
%TO.N,VDD2L_DDR_S3*%
X15200000Y-24600000D03*
%TO.P,U601,J3*%
%TO.N,GND*%
X16000000Y-24600000D03*
%TO.P,U601,J4*%
%TO.N,N/C*%
X16800000Y-24600000D03*
%TO.P,U601,J5*%
%TO.N,VDD2H_DDR_S3*%
X17600000Y-24600000D03*
%TO.P,U601,J6*%
%TO.N,N/C*%
X18400000Y-24600000D03*
%TO.P,U601,J7*%
%TO.N,GND*%
X19200000Y-24600000D03*
%TO.P,U601,J8*%
X20000000Y-24600000D03*
%TO.P,U601,J9*%
%TO.N,LP5_CLKN_A*%
X20800000Y-24600000D03*
%TO.P,U601,J10*%
%TO.N,GND*%
X21600000Y-24600000D03*
%TO.P,U601,J11*%
%TO.N,VDD2H_DDR_S3*%
X22400000Y-24600000D03*
%TO.P,U601,J12*%
%TO.N,GND*%
X23200000Y-24600000D03*
%TO.P,U601,J13*%
X24000000Y-24600000D03*
%TO.P,U601,J14*%
%TO.N,VDD2L_DDR_S3*%
X24800000Y-24600000D03*
%TO.P,U601,J15*%
%TO.N,GND*%
X25600000Y-24600000D03*
%TO.P,U601,K1*%
%TO.N,VDD2H_DDR_S3*%
X14400000Y-25300000D03*
%TO.P,U601,K2*%
X15200000Y-25300000D03*
%TO.P,U601,K3*%
X16000000Y-25300000D03*
%TO.P,U601,K4*%
X16800000Y-25300000D03*
%TO.P,U601,K5*%
X17600000Y-25300000D03*
%TO.P,U601,K6*%
X18400000Y-25300000D03*
%TO.P,U601,K7*%
%TO.N,GND*%
X19200000Y-25300000D03*
%TO.P,U601,K8*%
X20000000Y-25300000D03*
%TO.P,U601,K9*%
X20800000Y-25300000D03*
%TO.P,U601,K10*%
%TO.N,VDD2H_DDR_S3*%
X21600000Y-25300000D03*
%TO.P,U601,K11*%
X22400000Y-25300000D03*
%TO.P,U601,K12*%
X23200000Y-25300000D03*
%TO.P,U601,K13*%
X24000000Y-25300000D03*
%TO.P,U601,K14*%
X24800000Y-25300000D03*
%TO.P,U601,K15*%
X25600000Y-25300000D03*
%TO.P,U601,L1*%
%TO.N,GND*%
X14400000Y-26000000D03*
%TO.P,U601,L2*%
X15200000Y-26000000D03*
%TO.P,U601,L3*%
X16000000Y-26000000D03*
%TO.P,U601,L4*%
X16800000Y-26000000D03*
%TO.P,U601,L5*%
X17600000Y-26000000D03*
%TO.P,U601,L6*%
%TO.N,VDD2H_DDR_S3*%
X18400000Y-26000000D03*
%TO.P,U601,L7*%
X19200000Y-26000000D03*
%TO.P,U601,L8*%
X20000000Y-26000000D03*
%TO.P,U601,L9*%
X20800000Y-26000000D03*
%TO.P,U601,L10*%
X21600000Y-26000000D03*
%TO.P,U601,L11*%
%TO.N,GND*%
X22400000Y-26000000D03*
%TO.P,U601,L12*%
X23200000Y-26000000D03*
%TO.P,U601,L13*%
X24000000Y-26000000D03*
%TO.P,U601,L14*%
X24800000Y-26000000D03*
%TO.P,U601,L15*%
X25600000Y-26000000D03*
%TO.P,U601,M1*%
%TO.N,VDD2H_DDR_S3*%
X14400000Y-26700000D03*
%TO.P,U601,M2*%
X15200000Y-26700000D03*
%TO.P,U601,M3*%
X16000000Y-26700000D03*
%TO.P,U601,M4*%
X16800000Y-26700000D03*
%TO.P,U601,M5*%
X17600000Y-26700000D03*
%TO.P,U601,M6*%
X18400000Y-26700000D03*
%TO.P,U601,M7*%
%TO.N,GND*%
X19200000Y-26700000D03*
%TO.P,U601,M8*%
X20000000Y-26700000D03*
%TO.P,U601,M9*%
X20800000Y-26700000D03*
%TO.P,U601,M10*%
%TO.N,VDD2H_DDR_S3*%
X21600000Y-26700000D03*
%TO.P,U601,M11*%
X22400000Y-26700000D03*
%TO.P,U601,M12*%
X23200000Y-26700000D03*
%TO.P,U601,M13*%
X24000000Y-26700000D03*
%TO.P,U601,M14*%
X24800000Y-26700000D03*
%TO.P,U601,M15*%
X25600000Y-26700000D03*
%TO.P,U601,N1*%
%TO.N,GND*%
X14400000Y-27400000D03*
%TO.P,U601,N2*%
%TO.N,VDD2L_DDR_S3*%
X15200000Y-27400000D03*
%TO.P,U601,N3*%
%TO.N,GND*%
X16000000Y-27400000D03*
%TO.P,U601,N4*%
X16800000Y-27400000D03*
%TO.P,U601,N5*%
%TO.N,VDD2H_DDR_S3*%
X17600000Y-27400000D03*
%TO.P,U601,N6*%
%TO.N,GND*%
X18400000Y-27400000D03*
%TO.P,U601,N7*%
%TO.N,LP5_CLKN_B*%
X19200000Y-27400000D03*
%TO.P,U601,N8*%
%TO.N,GND*%
X20000000Y-27400000D03*
%TO.P,U601,N9*%
X20800000Y-27400000D03*
%TO.P,U601,N10*%
X21600000Y-27400000D03*
%TO.P,U601,N11*%
%TO.N,VDD2H_DDR_S3*%
X22400000Y-27400000D03*
%TO.P,U601,N12*%
%TO.N,GND*%
X23200000Y-27400000D03*
%TO.P,U601,N13*%
X24000000Y-27400000D03*
%TO.P,U601,N14*%
%TO.N,VDD2L_DDR_S3*%
X24800000Y-27400000D03*
%TO.P,U601,N15*%
%TO.N,GND*%
X25600000Y-27400000D03*
%TO.P,U601,P1*%
%TO.N,N/C*%
X14400000Y-28100000D03*
%TO.P,U601,P2*%
%TO.N,VDD2L_DDR_S3*%
X15200000Y-28100000D03*
%TO.P,U601,P3*%
%TO.N,LP5_A5_B*%
X16000000Y-28100000D03*
%TO.P,U601,P4*%
%TO.N,GND*%
X16800000Y-28100000D03*
%TO.P,U601,P5*%
%TO.N,LP5_A3_B*%
X17600000Y-28100000D03*
%TO.P,U601,P6*%
%TO.N,GND*%
X18400000Y-28100000D03*
%TO.P,U601,P7*%
%TO.N,LP5_CLKP_B*%
X19200000Y-28100000D03*
%TO.P,U601,P8*%
%TO.N,GND*%
X20000000Y-28100000D03*
%TO.P,U601,P9*%
%TO.N,LP5_CSN0_B*%
X20800000Y-28100000D03*
%TO.P,U601,P10*%
%TO.N,GND*%
X21600000Y-28100000D03*
%TO.P,U601,P11*%
%TO.N,LP5_A1_B*%
X22400000Y-28100000D03*
%TO.P,U601,P12*%
%TO.N,GND*%
X23200000Y-28100000D03*
%TO.P,U601,P13*%
X24000000Y-28100000D03*
%TO.P,U601,P14*%
%TO.N,VDD2L_DDR_S3*%
X24800000Y-28100000D03*
%TO.P,U601,P15*%
%TO.N,N/C*%
X25600000Y-28100000D03*
%TO.P,U601,R1*%
%TO.N,VDDQ_DDR_S0*%
X14400000Y-28800000D03*
%TO.P,U601,R2*%
X15200000Y-28800000D03*
%TO.P,U601,R3*%
%TO.N,GND*%
X16000000Y-28800000D03*
%TO.P,U601,R4*%
%TO.N,LP5_A6_B*%
X16800000Y-28800000D03*
%TO.P,U601,R5*%
%TO.N,GND*%
X17600000Y-28800000D03*
%TO.P,U601,R6*%
%TO.N,LP5_A4_B*%
X18400000Y-28800000D03*
%TO.P,U601,R7*%
%TO.N,GND*%
X19200000Y-28800000D03*
%TO.P,U601,R8*%
%TO.N,LP5_A2_B*%
X20000000Y-28800000D03*
%TO.P,U601,R9*%
%TO.N,GND*%
X20800000Y-28800000D03*
%TO.P,U601,R10*%
%TO.N,LP5_CSN1_B*%
X21600000Y-28800000D03*
%TO.P,U601,R11*%
%TO.N,GND*%
X22400000Y-28800000D03*
%TO.P,U601,R12*%
%TO.N,LP5_A0_B*%
X23200000Y-28800000D03*
%TO.P,U601,R13*%
%TO.N,GND*%
X24000000Y-28800000D03*
%TO.P,U601,R14*%
%TO.N,VDDQ_DDR_S0*%
X24800000Y-28800000D03*
%TO.P,U601,R15*%
X25600000Y-28800000D03*
%TO.P,U601,T1*%
X14400000Y-29500000D03*
%TO.P,U601,T2*%
%TO.N,GND*%
X15200000Y-29500000D03*
%TO.P,U601,T3*%
%TO.N,VDDQ_DDR_S0*%
X16000000Y-29500000D03*
%TO.P,U601,T4*%
X16800000Y-29500000D03*
%TO.P,U601,T5*%
%TO.N,LP5_DQ15_B*%
X17600000Y-29500000D03*
%TO.P,U601,T6*%
%TO.N,VDD2H_DDR_S3*%
X18400000Y-29500000D03*
%TO.P,U601,T7*%
X19200000Y-29500000D03*
%TO.P,U601,T8*%
%TO.N,GND*%
X20000000Y-29500000D03*
%TO.P,U601,T9*%
%TO.N,VDD2H_DDR_S3*%
X20800000Y-29500000D03*
%TO.P,U601,T10*%
X21600000Y-29500000D03*
%TO.P,U601,T11*%
%TO.N,LP5_DQ7_B*%
X22400000Y-29500000D03*
%TO.P,U601,T12*%
%TO.N,VDDQ_DDR_S0*%
X23200000Y-29500000D03*
%TO.P,U601,T13*%
X24000000Y-29500000D03*
%TO.P,U601,T14*%
%TO.N,GND*%
X24800000Y-29500000D03*
%TO.P,U601,T15*%
%TO.N,VDDQ_DDR_S0*%
X25600000Y-29500000D03*
%TO.P,U601,U1*%
%TO.N,GND*%
X14400000Y-30200000D03*
%TO.P,U601,U2*%
%TO.N,LP5_DQ10_B*%
X15200000Y-30200000D03*
%TO.P,U601,U3*%
%TO.N,GND*%
X16000000Y-30200000D03*
%TO.P,U601,U4*%
%TO.N,LP5_WCK1P_B*%
X16800000Y-30200000D03*
%TO.P,U601,U5*%
%TO.N,VDDQ_DDR_S0*%
X17600000Y-30200000D03*
%TO.P,U601,U6*%
%TO.N,LP5_DQ14_B*%
X18400000Y-30200000D03*
%TO.P,U601,U7*%
%TO.N,VDD2H_DDR_S3*%
X19200000Y-30200000D03*
%TO.P,U601,U8*%
%TO.N,GND*%
X20000000Y-30200000D03*
%TO.P,U601,U9*%
%TO.N,VDD2H_DDR_S3*%
X20800000Y-30200000D03*
%TO.P,U601,U10*%
%TO.N,LP5_DQ6_B*%
X21600000Y-30200000D03*
%TO.P,U601,U11*%
%TO.N,VDDQ_DDR_S0*%
X22400000Y-30200000D03*
%TO.P,U601,U12*%
%TO.N,LP5_WCK0P_B*%
X23200000Y-30200000D03*
%TO.P,U601,U13*%
%TO.N,GND*%
X24000000Y-30200000D03*
%TO.P,U601,U14*%
%TO.N,LP5_DQ2_B*%
X24800000Y-30200000D03*
%TO.P,U601,U15*%
%TO.N,GND*%
X25600000Y-30200000D03*
%TO.P,U601,V1*%
%TO.N,LP5_DQ8_B*%
X14400000Y-30900000D03*
%TO.P,U601,V2*%
%TO.N,GND*%
X15200000Y-30900000D03*
%TO.P,U601,V3*%
%TO.N,LP5_DQ11_B*%
X16000000Y-30900000D03*
%TO.P,U601,V4*%
%TO.N,VDDQ_DDR_S0*%
X16800000Y-30900000D03*
%TO.P,U601,V5*%
%TO.N,LP5_WCK1N_B*%
X17600000Y-30900000D03*
%TO.P,U601,V6*%
%TO.N,GND*%
X18400000Y-30900000D03*
%TO.P,U601,V7*%
X19200000Y-30900000D03*
%TO.P,U601,V8*%
%TO.N,VDD2H_DDR_S3*%
X20000000Y-30900000D03*
%TO.P,U601,V9*%
%TO.N,GND*%
X20800000Y-30900000D03*
%TO.P,U601,V10*%
X21600000Y-30900000D03*
%TO.P,U601,V11*%
%TO.N,LP5_WCK0N_B*%
X22400000Y-30900000D03*
%TO.P,U601,V12*%
%TO.N,VDDQ_DDR_S0*%
X23200000Y-30900000D03*
%TO.P,U601,V13*%
%TO.N,LP5_DQ3_B*%
X24000000Y-30900000D03*
%TO.P,U601,V14*%
%TO.N,GND*%
X24800000Y-30900000D03*
%TO.P,U601,V15*%
%TO.N,LP5_DQ0_B*%
X25600000Y-30900000D03*
%TO.P,U601,W1*%
%TO.N,VDD1_DDR_S3*%
X14400000Y-31600000D03*
%TO.P,U601,W2*%
%TO.N,LP5_DQ9_B*%
X15200000Y-31600000D03*
%TO.P,U601,W3*%
%TO.N,VDDQ_DDR_S0*%
X16000000Y-31600000D03*
%TO.P,U601,W4*%
%TO.N,LP5_RDQS1N_B*%
X16800000Y-31600000D03*
%TO.P,U601,W5*%
%TO.N,GND*%
X17600000Y-31600000D03*
%TO.P,U601,W6*%
%TO.N,LP5_DQ13_B*%
X18400000Y-31600000D03*
%TO.P,U601,W7*%
%TO.N,VDD2H_DDR_S3*%
X19200000Y-31600000D03*
%TO.P,U601,W8*%
%TO.N,GND*%
X20000000Y-31600000D03*
%TO.P,U601,W9*%
%TO.N,VDD2H_DDR_S3*%
X20800000Y-31600000D03*
%TO.P,U601,W10*%
%TO.N,LP5_DQ5_B*%
X21600000Y-31600000D03*
%TO.P,U601,W11*%
%TO.N,GND*%
X22400000Y-31600000D03*
%TO.P,U601,W12*%
%TO.N,LP5_RDQS0N_B*%
X23200000Y-31600000D03*
%TO.P,U601,W13*%
%TO.N,VDDQ_DDR_S0*%
X24000000Y-31600000D03*
%TO.P,U601,W14*%
%TO.N,LP5_DQ1_B*%
X24800000Y-31600000D03*
%TO.P,U601,W15*%
%TO.N,VDD1_DDR_S3*%
X25600000Y-31600000D03*
%TO.P,U601,Y1*%
%TO.N,N/C*%
X14400000Y-32300000D03*
%TO.P,U601,Y2*%
%TO.N,VDDQ_DDR_S0*%
X15200000Y-32300000D03*
%TO.P,U601,Y3*%
%TO.N,LP5_RDQS1P_B*%
X16000000Y-32300000D03*
%TO.P,U601,Y4*%
%TO.N,GND*%
X16800000Y-32300000D03*
%TO.P,U601,Y5*%
%TO.N,LP5_DQ12_B*%
X17600000Y-32300000D03*
%TO.P,U601,Y6*%
%TO.N,VDD2L_DDR_S3*%
X18400000Y-32300000D03*
%TO.P,U601,Y7*%
%TO.N,VDD2H_DDR_S3*%
X19200000Y-32300000D03*
%TO.P,U601,Y8*%
%TO.N,GND*%
X20000000Y-32300000D03*
%TO.P,U601,Y9*%
%TO.N,VDD2H_DDR_S3*%
X20800000Y-32300000D03*
%TO.P,U601,Y10*%
%TO.N,VDD2L_DDR_S3*%
X21600000Y-32300000D03*
%TO.P,U601,Y11*%
%TO.N,LP5_DQ4_B*%
X22400000Y-32300000D03*
%TO.P,U601,Y12*%
%TO.N,GND*%
X23200000Y-32300000D03*
%TO.P,U601,Y13*%
%TO.N,LP5_RDQS0P_B*%
X24000000Y-32300000D03*
%TO.P,U601,Y14*%
%TO.N,VDDQ_DDR_S0*%
X24800000Y-32300000D03*
%TO.P,U601,Y15*%
%TO.N,N/C*%
X25600000Y-32300000D03*
%TD*%
D20*
%TO.P,U304,1*%
%TO.N,GND*%
X56862500Y-45050000D03*
%TO.P,U304,2*%
%TO.N,BUCK_M2_SW*%
X56862500Y-46000000D03*
%TO.P,U304,3*%
%TO.N,VCC5V0_SYS_S5*%
X56862500Y-46950000D03*
%TO.P,U304,4*%
%TO.N,BUCK_M2_FB*%
X59137500Y-46950000D03*
%TO.P,U304,5*%
%TO.N,VCC_3V3_S0*%
X59137500Y-46000000D03*
%TO.P,U304,6*%
%TO.N,BUCK_M2_BST*%
X59137500Y-45050000D03*
%TD*%
D15*
%TO.P,R501,1*%
%TO.N,OSC_24M_IN*%
X56490000Y-36500000D03*
%TO.P,R501,2*%
%TO.N,OSC_24M_OUT*%
X57510000Y-36500000D03*
%TD*%
D17*
%TO.P,C305,1*%
%TO.N,BUCK_1V1_BST*%
X9020000Y-17500000D03*
%TO.P,C305,2*%
%TO.N,BUCK_1V1_SW*%
X9980000Y-17500000D03*
%TD*%
%TO.P,C249,1*%
%TO.N,VCC_2V0_PLDO_S3*%
X12020000Y-3000000D03*
%TO.P,C249,2*%
%TO.N,GND*%
X12980000Y-3000000D03*
%TD*%
D16*
%TO.P,C211,1*%
%TO.N,VCC5V0_SYS_S5*%
X55225000Y-6500000D03*
%TO.P,C211,2*%
%TO.N,GND*%
X56775000Y-6500000D03*
%TD*%
D19*
%TO.P,L209,1*%
%TO.N,PMIC_SW9*%
X20500000Y-12000000D03*
%TO.P,L209,2*%
%TO.N,VCC_1V8_S3*%
X23500000Y-12000000D03*
%TD*%
D38*
%TO.P,LED801,1*%
%TO.N,M2_LED_L*%
X2712500Y-40000000D03*
%TO.P,LED801,2*%
%TO.N,M2_LED_A*%
X4287500Y-40000000D03*
%TD*%
D43*
%TO.P,J501,1*%
%TO.N,GND*%
X64000000Y-52600000D03*
D44*
%TO.P,J501,2*%
%TO.N,DBG_UART_TX*%
X66540000Y-52600000D03*
%TO.P,J501,3*%
%TO.N,DBG_UART_RX*%
X69080000Y-52600000D03*
%TD*%
D22*
%TO.P,C1002,1*%
%TO.N,USB3_TXN*%
X69835000Y-30500000D03*
%TO.P,C1002,2*%
%TO.N,USB3A_SSTXN*%
X70475000Y-30500000D03*
%TD*%
D16*
%TO.P,C213,1*%
%TO.N,VDD_LOGIC_S0*%
X21725000Y-3500000D03*
%TO.P,C213,2*%
%TO.N,GND*%
X23275000Y-3500000D03*
%TD*%
%TO.P,C308,1*%
%TO.N,VCC_1V1_NLDO_S3*%
X39225000Y-36500000D03*
%TO.P,C308,2*%
%TO.N,GND*%
X40775000Y-36500000D03*
%TD*%
D20*
%TO.P,U303,1*%
%TO.N,GND*%
X8362500Y-20050000D03*
%TO.P,U303,2*%
%TO.N,BUCK_VDD2L_SW*%
X8362500Y-21000000D03*
%TO.P,U303,3*%
%TO.N,VCC5V0_SYS_S5*%
X8362500Y-21950000D03*
%TO.P,U303,4*%
%TO.N,BUCK_VDD2L_FB*%
X10637500Y-21950000D03*
%TO.P,U303,5*%
%TO.N,VCC5V0_SYS_S5*%
X10637500Y-21000000D03*
%TO.P,U303,6*%
%TO.N,BUCK_VDD2L_BST*%
X10637500Y-20050000D03*
%TD*%
D16*
%TO.P,C222,1*%
%TO.N,VCC5V0_SYS_S5*%
X17225000Y-15500000D03*
%TO.P,C222,2*%
%TO.N,GND*%
X18775000Y-15500000D03*
%TD*%
D15*
%TO.P,R207,1*%
%TO.N,PMIC_FB6*%
X11490000Y-17500000D03*
%TO.P,R207,2*%
%TO.N,VDD_DDR_S0*%
X12510000Y-17500000D03*
%TD*%
D45*
%TO.P,D101,1*%
%TO.N,VCC5V0_SYS_S5*%
X72600000Y-17500000D03*
%TO.P,D101,2*%
%TO.N,GND*%
X75400000Y-17500000D03*
%TD*%
D16*
%TO.P,C304,1*%
%TO.N,VCC_2V0_PLDO_S3*%
X57225000Y-29500000D03*
%TO.P,C304,2*%
%TO.N,GND*%
X58775000Y-29500000D03*
%TD*%
D15*
%TO.P,R906,1*%
%TO.N,HDMI_D2N_C*%
X23490000Y-36500000D03*
%TO.P,R906,2*%
%TO.N,HDMI_D2_TERM*%
X24510000Y-36500000D03*
%TD*%
D16*
%TO.P,C103,1*%
%TO.N,VCC5V0_SYS_S5*%
X68725000Y-22500000D03*
%TO.P,C103,2*%
%TO.N,GND*%
X70275000Y-22500000D03*
%TD*%
D15*
%TO.P,R306,1*%
%TO.N,BUCK_VDD2L_FB*%
X5490000Y-24000000D03*
%TO.P,R306,2*%
%TO.N,GND*%
X6510000Y-24000000D03*
%TD*%
D37*
%TO.P,C206,1*%
%TO.N,VDD_CPU_BIG_S0*%
X51050000Y-9500000D03*
%TO.P,C206,2*%
%TO.N,GND*%
X52950000Y-9500000D03*
%TD*%
D17*
%TO.P,C240,1*%
%TO.N,VDDA_0V85_S0*%
X45520000Y-3000000D03*
%TO.P,C240,2*%
%TO.N,GND*%
X46480000Y-3000000D03*
%TD*%
%TO.P,C250,1*%
%TO.N,VCC5V0_SYS_S5*%
X29520000Y-33000000D03*
%TO.P,C250,2*%
%TO.N,GND*%
X30480000Y-33000000D03*
%TD*%
D23*
%TO.P,U1002,1*%
%TO.N,USB3_RXP*%
X73615000Y-39000000D03*
%TO.P,U1002,2*%
%TO.N,USB3_RXN*%
X73615000Y-39500000D03*
%TO.P,U1002,3*%
%TO.N,GND*%
X73615000Y-40000000D03*
%TO.P,U1002,4*%
%TO.N,USB3A_SSTXP*%
X73615000Y-40500000D03*
%TO.P,U1002,5*%
%TO.N,USB3A_SSTXN*%
X73615000Y-41000000D03*
%TO.P,U1002,6*%
%TO.N,unconnected-(U1002-NC-Pad6)*%
X74385000Y-41000000D03*
%TO.P,U1002,7*%
%TO.N,unconnected-(U1002-NC-Pad7)*%
X74385000Y-40500000D03*
%TO.P,U1002,8*%
%TO.N,GND*%
X74385000Y-40000000D03*
%TO.P,U1002,9*%
%TO.N,unconnected-(U1002-NC-Pad9)*%
X74385000Y-39500000D03*
%TO.P,U1002,10*%
%TO.N,unconnected-(U1002-NC-Pad10)*%
X74385000Y-39000000D03*
%TD*%
D16*
%TO.P,C209,1*%
%TO.N,VDD_NPU_S0*%
X25225000Y-3500000D03*
%TO.P,C209,2*%
%TO.N,GND*%
X26775000Y-3500000D03*
%TD*%
%TO.P,C212,1*%
%TO.N,VDD_LOGIC_S0*%
X24225000Y-15500000D03*
%TO.P,C212,2*%
%TO.N,GND*%
X25775000Y-15500000D03*
%TD*%
D29*
%TO.P,H1204,1*%
%TO.N,GND*%
X79475000Y-52500000D03*
X80068109Y-51068109D03*
X80068109Y-53931891D03*
X81500000Y-50475000D03*
D30*
X81500000Y-52500000D03*
D29*
X81500000Y-54525000D03*
X82931891Y-51068109D03*
X82931891Y-53931891D03*
X83525000Y-52500000D03*
%TD*%
D15*
%TO.P,R102,1*%
%TO.N,USBC_CC2*%
X10990000Y-46305000D03*
%TO.P,R102,2*%
%TO.N,GND*%
X12010000Y-46305000D03*
%TD*%
D22*
%TO.P,C1001,1*%
%TO.N,USB3_TXP*%
X69835000Y-31500000D03*
%TO.P,C1001,2*%
%TO.N,USB3A_SSTXP*%
X70475000Y-31500000D03*
%TD*%
D17*
%TO.P,C105,1*%
%TO.N,VCC5V0_SYS_S5*%
X77020000Y-12000000D03*
%TO.P,C105,2*%
%TO.N,GND*%
X77980000Y-12000000D03*
%TD*%
D16*
%TO.P,C217,1*%
%TO.N,VDD_GPU_S0*%
X18225000Y-1500000D03*
%TO.P,C217,2*%
%TO.N,GND*%
X19775000Y-1500000D03*
%TD*%
D17*
%TO.P,C237,1*%
%TO.N,VDDA_DDR_PLL_S0*%
X45520000Y-4500000D03*
%TO.P,C237,2*%
%TO.N,GND*%
X46480000Y-4500000D03*
%TD*%
D19*
%TO.P,L205,1*%
%TO.N,PMIC_SW5*%
X25500000Y-7000000D03*
%TO.P,L205,2*%
%TO.N,VDD_CPU_LIT_S0*%
X28500000Y-7000000D03*
%TD*%
D16*
%TO.P,C214,1*%
%TO.N,VDD_LOGIC_S0*%
X21725000Y-1500000D03*
%TO.P,C214,2*%
%TO.N,GND*%
X23275000Y-1500000D03*
%TD*%
D36*
%TO.P,SW503,1*%
%TO.N,RESET_KEY*%
X62925000Y-1925000D03*
X67075000Y-1925000D03*
%TO.P,SW503,2*%
%TO.N,GND*%
X62925000Y-4075000D03*
X67075000Y-4075000D03*
%TD*%
D37*
%TO.P,C102,1*%
%TO.N,VCC5V0_SYS_S5*%
X68550000Y-20000000D03*
%TO.P,C102,2*%
%TO.N,GND*%
X70450000Y-20000000D03*
%TD*%
D15*
%TO.P,R201,1*%
%TO.N,PMIC_FB1*%
X60490000Y-27500000D03*
%TO.P,R201,2*%
%TO.N,VDD_CPU_BIG_S0*%
X61510000Y-27500000D03*
%TD*%
D19*
%TO.P,L210,1*%
%TO.N,PMIC_SW10*%
X50000000Y-24000000D03*
%TO.P,L210,2*%
%TO.N,VDDQ_DDR_S0*%
X53000000Y-24000000D03*
%TD*%
D15*
%TO.P,R208,1*%
%TO.N,PMIC_FB6*%
X68990000Y-2000000D03*
%TO.P,R208,2*%
%TO.N,GND*%
X70010000Y-2000000D03*
%TD*%
%TO.P,R913,1*%
%TO.N,HDMI_CEC*%
X27490000Y-39425000D03*
%TO.P,R913,2*%
%TO.N,VCC_3V3_S0*%
X28510000Y-39425000D03*
%TD*%
%TO.P,R202,1*%
%TO.N,PMIC_FB1*%
X55990000Y-31500000D03*
%TO.P,R202,2*%
%TO.N,GND*%
X57010000Y-31500000D03*
%TD*%
D20*
%TO.P,U1003,1*%
%TO.N,USB3A_DP*%
X72862500Y-43050000D03*
%TO.P,U1003,2*%
%TO.N,GND*%
X72862500Y-44000000D03*
%TO.P,U1003,3*%
%TO.N,USB3A_DM*%
X72862500Y-44950000D03*
%TO.P,U1003,4*%
X75137500Y-44950000D03*
%TO.P,U1003,5*%
%TO.N,VBUS_USB3A*%
X75137500Y-44000000D03*
%TO.P,U1003,6*%
%TO.N,USB3A_DP*%
X75137500Y-43050000D03*
%TD*%
D17*
%TO.P,C505,1*%
%TO.N,PWRON_L*%
X29520000Y-34500000D03*
%TO.P,C505,2*%
%TO.N,GND*%
X30480000Y-34500000D03*
%TD*%
%TO.P,C313,1*%
%TO.N,BUCK_M2_BST*%
X57520000Y-49000000D03*
%TO.P,C313,2*%
%TO.N,BUCK_M2_SW*%
X58480000Y-49000000D03*
%TD*%
%TO.P,C242,1*%
%TO.N,VDDA_1V2_S0*%
X42520000Y-14500000D03*
%TO.P,C242,2*%
%TO.N,GND*%
X43480000Y-14500000D03*
%TD*%
D16*
%TO.P,C208,1*%
%TO.N,VDD_NPU_S0*%
X51225000Y-14000000D03*
%TO.P,C208,2*%
%TO.N,GND*%
X52775000Y-14000000D03*
%TD*%
D22*
%TO.P,C903,1*%
%TO.N,HDMI_TX_D1P*%
X50180000Y-41000000D03*
%TO.P,C903,2*%
%TO.N,HDMI_D1P_C*%
X50820000Y-41000000D03*
%TD*%
%TO.P,C901,1*%
%TO.N,HDMI_TX_D0P*%
X46180000Y-41000000D03*
%TO.P,C901,2*%
%TO.N,HDMI_D0P_C*%
X46820000Y-41000000D03*
%TD*%
D15*
%TO.P,R1001,1*%
%TO.N,VBUS_IN*%
X23490000Y-43000000D03*
%TO.P,R1001,2*%
%TO.N,USB_OTG0_VBUSDET*%
X24510000Y-43000000D03*
%TD*%
D17*
%TO.P,C245,1*%
%TO.N,VCCA_3V3_S0*%
X18020000Y-5500000D03*
%TO.P,C245,2*%
%TO.N,GND*%
X18980000Y-5500000D03*
%TD*%
D16*
%TO.P,C202,1*%
%TO.N,VDD_CPU_BIG_S0*%
X39225000Y-15000000D03*
%TO.P,C202,2*%
%TO.N,GND*%
X40775000Y-15000000D03*
%TD*%
D21*
%TO.P,Q905,1*%
%TO.N,VCC_3V3_S0*%
X35062500Y-39975000D03*
%TO.P,Q905,2*%
%TO.N,HDMI_SCL*%
X35062500Y-41875000D03*
%TO.P,Q905,3*%
%TO.N,HDMI_SCL_5V*%
X36937500Y-40925000D03*
%TD*%
D15*
%TO.P,R904,1*%
%TO.N,HDMI_D1N_C*%
X25990000Y-36500000D03*
%TO.P,R904,2*%
%TO.N,HDMI_D1_TERM*%
X27010000Y-36500000D03*
%TD*%
D16*
%TO.P,C310,1*%
%TO.N,VCC5V0_SYS_S5*%
X5225000Y-11000000D03*
%TO.P,C310,2*%
%TO.N,GND*%
X6775000Y-11000000D03*
%TD*%
D29*
%TO.P,H1201,1*%
%TO.N,GND*%
X1475000Y-3500000D03*
X2068109Y-2068109D03*
X2068109Y-4931891D03*
X3500000Y-1475000D03*
D30*
X3500000Y-3500000D03*
D29*
X3500000Y-5525000D03*
X4931891Y-2068109D03*
X4931891Y-4931891D03*
X5525000Y-3500000D03*
%TD*%
D37*
%TO.P,C1003,1*%
%TO.N,VBUS_USB3A*%
X68550000Y-14000000D03*
%TO.P,C1003,2*%
%TO.N,GND*%
X70450000Y-14000000D03*
%TD*%
D17*
%TO.P,C248,1*%
%TO.N,VCC_1V1_NLDO_S3*%
X12020000Y-4500000D03*
%TO.P,C248,2*%
%TO.N,GND*%
X12980000Y-4500000D03*
%TD*%
D15*
%TO.P,R305,1*%
%TO.N,VDD2L_DDR_S3*%
X5490000Y-22500000D03*
%TO.P,R305,2*%
%TO.N,BUCK_VDD2L_FB*%
X6510000Y-22500000D03*
%TD*%
D16*
%TO.P,C232,1*%
%TO.N,VCC_1V8_S3*%
X13225000Y-13500000D03*
%TO.P,C232,2*%
%TO.N,GND*%
X14775000Y-13500000D03*
%TD*%
D37*
%TO.P,C205,1*%
%TO.N,VDD_CPU_BIG_S0*%
X51050000Y-7000000D03*
%TO.P,C205,2*%
%TO.N,GND*%
X52950000Y-7000000D03*
%TD*%
D40*
%TO.P,FID1202,*%
%TO.N,*%
X77000000Y-9000000D03*
%TD*%
D15*
%TO.P,R303,1*%
%TO.N,VCC_1V1_NLDO_S3*%
X3990000Y-18000000D03*
%TO.P,R303,2*%
%TO.N,BUCK_1V1_FB*%
X5010000Y-18000000D03*
%TD*%
D16*
%TO.P,C221,1*%
%TO.N,VDD_CPU_LIT_S0*%
X16725000Y-13500000D03*
%TO.P,C221,2*%
%TO.N,GND*%
X18275000Y-13500000D03*
%TD*%
%TO.P,C216,1*%
%TO.N,VDD_GPU_S0*%
X18225000Y-3500000D03*
%TO.P,C216,2*%
%TO.N,GND*%
X19775000Y-3500000D03*
%TD*%
D21*
%TO.P,Q903,1*%
%TO.N,HDMI_TX_ON_H*%
X28062500Y-29050000D03*
%TO.P,Q903,2*%
%TO.N,GND*%
X28062500Y-30950000D03*
%TO.P,Q903,3*%
%TO.N,HDMI_D2_TERM*%
X29937500Y-30000000D03*
%TD*%
D15*
%TO.P,R205,1*%
%TO.N,PMIC_FB5*%
X64490000Y-23000000D03*
%TO.P,R205,2*%
%TO.N,VDD_CPU_LIT_S0*%
X65510000Y-23000000D03*
%TD*%
D17*
%TO.P,C502,1*%
%TO.N,OSC_24M_OUT*%
X53520000Y-33500000D03*
%TO.P,C502,2*%
%TO.N,GND*%
X54480000Y-33500000D03*
%TD*%
D15*
%TO.P,R213,1*%
%TO.N,PMIC_INT_L*%
X31490000Y-36500000D03*
%TO.P,R213,2*%
%TO.N,VCC_1V8_S3*%
X32510000Y-36500000D03*
%TD*%
D41*
%TO.P,F901,1*%
%TO.N,HDMI_5V_PTC*%
X79600000Y-11500000D03*
%TO.P,F901,2*%
%TO.N,VCC5V_HDMI*%
X82400000Y-11500000D03*
%TD*%
D16*
%TO.P,C229,1*%
%TO.N,VDD2H_DDR_S3*%
X58725000Y-23500000D03*
%TO.P,C229,2*%
%TO.N,GND*%
X60275000Y-23500000D03*
%TD*%
%TO.P,C215,1*%
%TO.N,VCC5V0_SYS_S5*%
X20725000Y-15500000D03*
%TO.P,C215,2*%
%TO.N,GND*%
X22275000Y-15500000D03*
%TD*%
D15*
%TO.P,R905,1*%
%TO.N,HDMI_D2P_C*%
X28490000Y-38000000D03*
%TO.P,R905,2*%
%TO.N,HDMI_D2_TERM*%
X29510000Y-38000000D03*
%TD*%
D46*
%TO.P,J901,1*%
%TO.N,HDMI_D2P_C*%
X40500000Y-45140000D03*
%TO.P,J901,2*%
%TO.N,GND*%
X40000000Y-45140000D03*
%TO.P,J901,3*%
%TO.N,HDMI_D2N_C*%
X39500000Y-45140000D03*
%TO.P,J901,4*%
%TO.N,HDMI_D1P_C*%
X39000000Y-45140000D03*
%TO.P,J901,5*%
%TO.N,GND*%
X38500000Y-45140000D03*
%TO.P,J901,6*%
%TO.N,HDMI_D1N_C*%
X38000000Y-45140000D03*
%TO.P,J901,7*%
%TO.N,HDMI_D0P_C*%
X37500000Y-45140000D03*
%TO.P,J901,8*%
%TO.N,GND*%
X37000000Y-45140000D03*
%TO.P,J901,9*%
%TO.N,HDMI_D0N_C*%
X36500000Y-45140000D03*
%TO.P,J901,10*%
%TO.N,HDMI_D3P_C*%
X36000000Y-45140000D03*
%TO.P,J901,11*%
%TO.N,GND*%
X35500000Y-45140000D03*
%TO.P,J901,12*%
%TO.N,HDMI_D3N_C*%
X35000000Y-45140000D03*
%TO.P,J901,13*%
%TO.N,HDMI_CEC_5V*%
X34500000Y-45140000D03*
%TO.P,J901,14*%
%TO.N,unconnected-(J901-UTILITY-Pad14)*%
X34000000Y-45140000D03*
%TO.P,J901,15*%
%TO.N,HDMI_SCL_5V*%
X33500000Y-45140000D03*
%TO.P,J901,16*%
%TO.N,HDMI_SDA_5V*%
X33000000Y-45140000D03*
%TO.P,J901,17*%
%TO.N,GND*%
X32500000Y-45140000D03*
%TO.P,J901,18*%
%TO.N,VCC5V_HDMI*%
X32000000Y-45140000D03*
%TO.P,J901,19*%
%TO.N,HDMI_HPD_5V*%
X31500000Y-45140000D03*
D47*
%TO.P,J901,SH*%
%TO.N,GND*%
X43250000Y-45900000D03*
X28750000Y-45900000D03*
D48*
X43250000Y-51860000D03*
X28750000Y-51860000D03*
%TD*%
D15*
%TO.P,R214,1*%
%TO.N,SYS_RESET_L*%
X26990000Y-35000000D03*
%TO.P,R214,2*%
%TO.N,VCC_1V8_S3*%
X28010000Y-35000000D03*
%TD*%
D40*
%TO.P,FID1201,*%
%TO.N,*%
X9000000Y-2500000D03*
%TD*%
D16*
%TO.P,C303,1*%
%TO.N,VCC_2V0_PLDO_S3*%
X50225000Y-33500000D03*
%TO.P,C303,2*%
%TO.N,GND*%
X51775000Y-33500000D03*
%TD*%
D15*
%TO.P,R103,1*%
%TO.N,LED_PWR_K*%
X15990000Y-46305000D03*
%TO.P,R103,2*%
%TO.N,GND*%
X17010000Y-46305000D03*
%TD*%
D16*
%TO.P,C233,1*%
%TO.N,VCC_1V8_S3*%
X50225000Y-31500000D03*
%TO.P,C233,2*%
%TO.N,GND*%
X51775000Y-31500000D03*
%TD*%
%TO.P,C225,1*%
%TO.N,VCC5V0_SYS_S5*%
X14725000Y-4500000D03*
%TO.P,C225,2*%
%TO.N,GND*%
X16275000Y-4500000D03*
%TD*%
%TO.P,C231,1*%
%TO.N,VCC5V0_SYS_S5*%
X53725000Y-29500000D03*
%TO.P,C231,2*%
%TO.N,GND*%
X55275000Y-29500000D03*
%TD*%
D15*
%TO.P,R308,1*%
%TO.N,BUCK_M2_FB*%
X60990000Y-46000000D03*
%TO.P,R308,2*%
%TO.N,GND*%
X62010000Y-46000000D03*
%TD*%
D10*
%TO.P,L204,1*%
%TO.N,PMIC_SW4*%
X46315000Y-13500000D03*
%TO.P,L204,2*%
%TO.N,VDD_GPU_S0*%
X48685000Y-13500000D03*
%TD*%
D29*
%TO.P,H1202,1*%
%TO.N,GND*%
X79475000Y-3500000D03*
X80068109Y-2068109D03*
X80068109Y-4931891D03*
X81500000Y-1475000D03*
D30*
X81500000Y-3500000D03*
D29*
X81500000Y-5525000D03*
X82931891Y-2068109D03*
X82931891Y-4931891D03*
X83525000Y-3500000D03*
%TD*%
D16*
%TO.P,C302,1*%
%TO.N,VCC5V0_SYS_S5*%
X8725000Y-11000000D03*
%TO.P,C302,2*%
%TO.N,GND*%
X10275000Y-11000000D03*
%TD*%
D10*
%TO.P,L201,1*%
%TO.N,PMIC_SW1*%
X31315000Y-7000000D03*
%TO.P,L201,2*%
%TO.N,VDD_CPU_BIG_S0*%
X33685000Y-7000000D03*
%TD*%
%TO.P,L203,1*%
%TO.N,PMIC_SW3*%
X31315000Y-12500000D03*
%TO.P,L203,2*%
%TO.N,VDD_LOGIC_S0*%
X33685000Y-12500000D03*
%TD*%
D20*
%TO.P,U305,1*%
%TO.N,VCC_3V3_S0*%
X69362500Y-7550000D03*
%TO.P,U305,2*%
%TO.N,GND*%
X69362500Y-8500000D03*
%TO.P,U305,3*%
%TO.N,unconnected-(U305-~{FLG}-Pad3)*%
X69362500Y-9450000D03*
%TO.P,U305,4*%
%TO.N,PMIC_EXT_EN*%
X71637500Y-9450000D03*
%TO.P,U305,5*%
%TO.N,VCC_3V3_S3*%
X71637500Y-7550000D03*
%TD*%
D17*
%TO.P,C239,1*%
%TO.N,VDDA_0V75_S0*%
X42520000Y-13000000D03*
%TO.P,C239,2*%
%TO.N,GND*%
X43480000Y-13000000D03*
%TD*%
D15*
%TO.P,R914,1*%
%TO.N,HDMI_CEC_5V*%
X25990000Y-37925000D03*
%TO.P,R914,2*%
%TO.N,VCC_3V3_S0*%
X27010000Y-37925000D03*
%TD*%
D17*
%TO.P,C1004,1*%
%TO.N,VBUS_USB3A*%
X73520000Y-11000000D03*
%TO.P,C1004,2*%
%TO.N,GND*%
X74480000Y-11000000D03*
%TD*%
D15*
%TO.P,R1003,1*%
%TO.N,USB3A_OC_L*%
X73490000Y-7000000D03*
%TO.P,R1003,2*%
%TO.N,VCC_3V3_S3*%
X74510000Y-7000000D03*
%TD*%
D19*
%TO.P,L206,1*%
%TO.N,PMIC_SW6*%
X25500000Y-12000000D03*
%TO.P,L206,2*%
%TO.N,VDD_DDR_S0*%
X28500000Y-12000000D03*
%TD*%
M02*
