M48
; DRILL file {KiCad 9.0.9-9.0.9~ubuntu24.04.1} date 2026-10-04T04:00:44+0000
; FORMAT={-:-/ absolute / metric / decimal}
; #@! TF.CreationDate,2026-10-04T04:00:44+00:00
; #@! TF.GenerationSoftware,Kicad,Pcbnew,9.0.9-9.0.9~ubuntu24.04.1
; #@! TF.FileFunction,Plated,1,8,PTH
FMAT,2
METRIC
; #@! TA.AperFunction,Plated,PTH,ComponentDrill
T1C0.200
; #@! TA.AperFunction,Plated,PTH,ComponentDrill
T2C0.500
; #@! TA.AperFunction,Plated,PTH,ComponentDrill
T3C0.600
; #@! TA.AperFunction,Plated,PTH,ComponentDrill
T4C0.700
; #@! TA.AperFunction,Plated,PTH,ComponentDrill
T5C0.900
; #@! TA.AperFunction,Plated,PTH,ComponentDrill
T6C1.000
; #@! TA.AperFunction,Plated,PTH,ComponentDrill
T7C2.700
%
G90
G05
T1
X37.65Y-4.65
X37.65Y-5.825
X37.65Y-7.0
X37.65Y-8.175
X37.65Y-9.35
X38.825Y-4.65
X38.825Y-5.825
X38.825Y-7.0
X38.825Y-8.175
X38.825Y-9.35
X40.0Y-4.65
X40.0Y-5.825
X40.0Y-7.0
X40.0Y-8.175
X40.0Y-9.35
X41.175Y-4.65
X41.175Y-5.825
X41.175Y-7.0
X41.175Y-8.175
X41.175Y-9.35
X42.35Y-4.65
X42.35Y-5.825
X42.35Y-7.0
X42.35Y-8.175
X42.35Y-9.35
T2
X1.475Y-3.5
X1.475Y-52.5
X2.068Y-2.068
X2.068Y-4.932
X2.068Y-51.068
X2.068Y-53.932
X3.5Y-1.475
X3.5Y-5.525
X3.5Y-50.475
X3.5Y-54.525
X4.932Y-2.068
X4.932Y-4.932
X4.932Y-51.068
X4.932Y-53.932
X5.525Y-3.5
X5.525Y-52.5
X79.475Y-3.5
X79.475Y-52.5
X80.068Y-2.068
X80.068Y-4.932
X80.068Y-51.068
X80.068Y-53.932
X81.5Y-1.475
X81.5Y-5.525
X81.5Y-50.475
X81.5Y-54.525
X82.932Y-2.068
X82.932Y-4.932
X82.932Y-51.068
X82.932Y-53.932
X83.525Y-3.5
X83.525Y-52.5
T4
X73.155Y-24.0
X73.155Y-26.0
X73.155Y-28.0
X73.155Y-30.0
X73.155Y-32.0
X74.655Y-24.5
X74.655Y-27.0
X74.655Y-29.0
X74.655Y-31.5
T6
X64.0Y-52.6
X66.54Y-52.6
X69.08Y-52.6
T7
X3.5Y-3.5
X3.5Y-52.5
X81.5Y-3.5
X81.5Y-52.5
T3
X9.68Y-49.125G85X9.68Y-50.225
G05
X9.68Y-53.555G85X9.68Y-54.155
G05
X18.32Y-49.125G85X18.32Y-50.225
G05
X18.32Y-53.555G85X18.32Y-54.155
G05
X73.355Y-21.6G85X74.455Y-21.6
G05
X73.355Y-34.4G85X74.455Y-34.4
G05
X82.005Y-21.6G85X82.805Y-21.6
G05
X82.005Y-34.4G85X82.805Y-34.4
G05
T5
X28.75Y-45.0G85X28.75Y-46.8
G05
X28.75Y-51.46G85X28.75Y-52.26
G05
X43.25Y-45.0G85X43.25Y-46.8
G05
X43.25Y-51.46G85X43.25Y-52.26
G05
M30
