%TF.GenerationSoftware,KiCad,Pcbnew,9.0.9-9.0.9~ubuntu24.04.1*%
%TF.CreationDate,2026-10-06T12:06:27+00:00*%
%TF.ProjectId,rk3576-sbc,726b3335-3736-42d7-9362-632e6b696361,rev?*%
%TF.SameCoordinates,Original*%
%TF.FileFunction,Soldermask,Bot*%
%TF.FilePolarity,Negative*%
%FSLAX46Y46*%
G04 Gerber Fmt 4.6, Leading zero omitted, Abs format (unit mm)*
G04 Created by KiCad (PCBNEW 9.0.9-9.0.9~ubuntu24.04.1) date 2026-10-06 12:06:27*
%MOMM*%
%LPD*%
G01*
G04 APERTURE LIST*
G04 Aperture macros list*
%AMRoundRect*
0 Rectangle with rounded corners*
0 $1 Rounding radius*
0 $2 $3 $4 $5 $6 $7 $8 $9 X,Y pos of 4 corners*
0 Add a 4 corners polygon primitive as box body*
4,1,4,$2,$3,$4,$5,$6,$7,$8,$9,$2,$3,0*
0 Add four circle primitives for the rounded corners*
1,1,$1+$1,$2,$3*
1,1,$1+$1,$4,$5*
1,1,$1+$1,$6,$7*
1,1,$1+$1,$8,$9*
0 Add four rect primitives between the rounded corners*
20,1,$1+$1,$2,$3,$4,$5,0*
20,1,$1+$1,$4,$5,$6,$7,0*
20,1,$1+$1,$6,$7,$8,$9,0*
20,1,$1+$1,$8,$9,$2,$3,0*%
G04 Aperture macros list end*
%ADD10C,0.800000*%
%ADD11C,5.400000*%
%ADD12C,0.650000*%
%ADD13O,1.000000X2.100000*%
%ADD14O,1.000000X1.600000*%
%ADD15O,1.500000X3.300000*%
%ADD16O,1.500000X2.300000*%
%ADD17C,3.250000*%
%ADD18C,1.700000*%
%ADD19R,1.524000X1.524000*%
%ADD20C,1.524000*%
%ADD21C,2.159000*%
%ADD22R,1.700000X1.700000*%
%ADD23RoundRect,0.250000X0.350000X-0.350000X0.350000X0.350000X-0.350000X0.350000X-0.350000X-0.350000X0*%
%ADD24C,1.200000*%
%ADD25O,2.400000X1.200000*%
%ADD26O,2.100000X1.200000*%
%ADD27R,1.500000X1.500000*%
%ADD28C,1.500000*%
%ADD29C,3.500000*%
%ADD30RoundRect,0.140000X-0.140000X-0.170000X0.140000X-0.170000X0.140000X0.170000X-0.140000X0.170000X0*%
%ADD31RoundRect,0.135000X-0.135000X-0.185000X0.135000X-0.185000X0.135000X0.185000X-0.135000X0.185000X0*%
%ADD32RoundRect,0.100000X-0.130000X-0.100000X0.130000X-0.100000X0.130000X0.100000X-0.130000X0.100000X0*%
%ADD33RoundRect,0.225000X-0.225000X-0.250000X0.225000X-0.250000X0.225000X0.250000X-0.225000X0.250000X0*%
%ADD34R,1.200000X0.300000*%
%ADD35R,2.600000X1.400000*%
%ADD36C,4.000000*%
%ADD37R,1.200000X0.700000*%
%ADD38R,0.800000X1.000000*%
%ADD39R,2.800000X1.000000*%
%ADD40R,1.200000X1.000000*%
%ADD41R,1.900000X1.300000*%
%ADD42RoundRect,0.150000X0.512500X0.150000X-0.512500X0.150000X-0.512500X-0.150000X0.512500X-0.150000X0*%
G04 APERTURE END LIST*
D10*
%TO.C,H1202*%
X94475000Y-3500000D03*
X95068109Y-2068109D03*
X95068109Y-4931891D03*
X96500000Y-1475000D03*
D11*
X96500000Y-3500000D03*
D10*
X96500000Y-5525000D03*
X97931891Y-2068109D03*
X97931891Y-4931891D03*
X98525000Y-3500000D03*
%TD*%
%TO.C,H1204*%
X94475000Y-68500000D03*
X95068109Y-67068109D03*
X95068109Y-69931891D03*
X96500000Y-66475000D03*
D11*
X96500000Y-68500000D03*
D10*
X96500000Y-70525000D03*
X97931891Y-67068109D03*
X97931891Y-69931891D03*
X98525000Y-68500000D03*
%TD*%
%TO.C,H1203*%
X1475000Y-68500000D03*
X2068109Y-67068109D03*
X2068109Y-69931891D03*
X3500000Y-66475000D03*
D11*
X3500000Y-68500000D03*
D10*
X3500000Y-70525000D03*
X4931891Y-67068109D03*
X4931891Y-69931891D03*
X5525000Y-68500000D03*
%TD*%
D12*
%TO.C,J101*%
X9110000Y-66205000D03*
X14890000Y-66205000D03*
D13*
X7680000Y-65675000D03*
D14*
X7680000Y-69855000D03*
D13*
X16320000Y-65675000D03*
D14*
X16320000Y-69855000D03*
%TD*%
D15*
%TO.C,J901*%
X41250000Y-61900000D03*
X26750000Y-61900000D03*
D16*
X41250000Y-67860000D03*
X26750000Y-67860000D03*
%TD*%
D17*
%TO.C,J1301*%
X90905000Y-50300000D03*
X90905000Y-61700000D03*
D18*
X95855000Y-62600000D03*
X95855000Y-60060000D03*
X95855000Y-51940000D03*
X95855000Y-49400000D03*
D19*
X82015000Y-61720000D03*
D20*
X84555000Y-60450000D03*
X82015000Y-59180000D03*
X84555000Y-57910000D03*
X82015000Y-56640000D03*
X84555000Y-55370000D03*
X82015000Y-54090000D03*
X84555000Y-52830000D03*
X82015000Y-51560000D03*
X84555000Y-50290000D03*
D21*
X87855000Y-48250000D03*
X87855000Y-63750000D03*
%TD*%
D22*
%TO.C,J501*%
X50000000Y-68600000D03*
D18*
X52540000Y-68600000D03*
X55080000Y-68600000D03*
%TD*%
D10*
%TO.C,H1201*%
X1475000Y-3500000D03*
X2068109Y-2068109D03*
X2068109Y-4931891D03*
X3500000Y-1475000D03*
D11*
X3500000Y-3500000D03*
D10*
X3500000Y-5525000D03*
X4931891Y-2068109D03*
X4931891Y-4931891D03*
X5525000Y-3500000D03*
%TD*%
D23*
%TO.C,J1001*%
X89655000Y-19500000D03*
D24*
X89655000Y-17000000D03*
X89655000Y-15000000D03*
X89655000Y-12500000D03*
X88155000Y-12000000D03*
X88155000Y-14000000D03*
X88155000Y-16000000D03*
X88155000Y-18000000D03*
X88155000Y-20000000D03*
D25*
X88905000Y-22400000D03*
D26*
X97405000Y-22400000D03*
D25*
X88905000Y-9600000D03*
D26*
X97405000Y-9600000D03*
%TD*%
D27*
%TO.C,J1401*%
X88445000Y-38300000D03*
D28*
X88445000Y-35800000D03*
X88445000Y-33800000D03*
X88445000Y-31300000D03*
X85825000Y-38300000D03*
X85825000Y-35800000D03*
X85825000Y-33800000D03*
X85825000Y-31300000D03*
D29*
X91155000Y-41370000D03*
X91155000Y-28230000D03*
X85475000Y-41370000D03*
X85475000Y-28230000D03*
%TD*%
D30*
%TO.C,C489*%
X56520000Y-19000000D03*
X57480000Y-19000000D03*
%TD*%
%TO.C,C433*%
X50020000Y-46500000D03*
X50980000Y-46500000D03*
%TD*%
%TO.C,C4124*%
X57020000Y-29000000D03*
X57980000Y-29000000D03*
%TD*%
%TO.C,C470*%
X59520000Y-24500000D03*
X60480000Y-24500000D03*
%TD*%
%TO.C,C617*%
X16020000Y-40000000D03*
X16980000Y-40000000D03*
%TD*%
D31*
%TO.C,R916*%
X58990000Y-20000000D03*
X60010000Y-20000000D03*
%TD*%
D30*
%TO.C,C4114*%
X41520000Y-21000000D03*
X42480000Y-21000000D03*
%TD*%
%TO.C,C4104*%
X54520000Y-38000000D03*
X55480000Y-38000000D03*
%TD*%
%TO.C,C424*%
X55020000Y-42500000D03*
X55980000Y-42500000D03*
%TD*%
%TO.C,C4129*%
X52520000Y-43500000D03*
X53480000Y-43500000D03*
%TD*%
%TO.C,C618*%
X22020000Y-22000000D03*
X22980000Y-22000000D03*
%TD*%
%TO.C,C478*%
X62020000Y-37000000D03*
X62980000Y-37000000D03*
%TD*%
D32*
%TO.C,R703*%
X67680000Y-19500000D03*
X68320000Y-19500000D03*
%TD*%
D30*
%TO.C,C443*%
X34020000Y-21500000D03*
X34980000Y-21500000D03*
%TD*%
%TO.C,C498*%
X50020000Y-51000000D03*
X50980000Y-51000000D03*
%TD*%
%TO.C,C4126*%
X50020000Y-21000000D03*
X50980000Y-21000000D03*
%TD*%
%TO.C,C612*%
X19520000Y-23500000D03*
X20480000Y-23500000D03*
%TD*%
%TO.C,C632*%
X17020000Y-23000000D03*
X17980000Y-23000000D03*
%TD*%
D32*
%TO.C,R702*%
X63680000Y-19500000D03*
X64320000Y-19500000D03*
%TD*%
D30*
%TO.C,C434*%
X38520000Y-19500000D03*
X39480000Y-19500000D03*
%TD*%
D33*
%TO.C,C417*%
X41225000Y-19000000D03*
X42775000Y-19000000D03*
%TD*%
D30*
%TO.C,C4103*%
X34520000Y-38000000D03*
X35480000Y-38000000D03*
%TD*%
D33*
%TO.C,C708*%
X4225000Y-37000000D03*
X5775000Y-37000000D03*
%TD*%
D30*
%TO.C,C468*%
X57520000Y-44000000D03*
X58480000Y-44000000D03*
%TD*%
%TO.C,C4108*%
X39020000Y-22500000D03*
X39980000Y-22500000D03*
%TD*%
%TO.C,C704*%
X11020000Y-40000000D03*
X11980000Y-40000000D03*
%TD*%
%TO.C,C474*%
X60020000Y-41500000D03*
X60980000Y-41500000D03*
%TD*%
%TO.C,C471*%
X36020000Y-48000000D03*
X36980000Y-48000000D03*
%TD*%
%TO.C,C487*%
X39020000Y-50500000D03*
X39980000Y-50500000D03*
%TD*%
D31*
%TO.C,R802*%
X68990000Y-48000000D03*
X70010000Y-48000000D03*
%TD*%
D30*
%TO.C,C475*%
X62020000Y-30000000D03*
X62980000Y-30000000D03*
%TD*%
%TO.C,C479*%
X58520000Y-21500000D03*
X59480000Y-21500000D03*
%TD*%
%TO.C,C465*%
X33520000Y-20000000D03*
X34480000Y-20000000D03*
%TD*%
%TO.C,C437*%
X57020000Y-41000000D03*
X57980000Y-41000000D03*
%TD*%
D31*
%TO.C,R509*%
X30990000Y-19000000D03*
X32010000Y-19000000D03*
%TD*%
D34*
%TO.C,J801*%
X75350000Y-53250000D03*
X72650000Y-53000000D03*
X75350000Y-52750000D03*
X72650000Y-52500000D03*
X75350000Y-52250000D03*
X72650000Y-52000000D03*
X75350000Y-51750000D03*
X72650000Y-51500000D03*
X75350000Y-51250000D03*
X72650000Y-51000000D03*
X75350000Y-50750000D03*
X72650000Y-50500000D03*
X75350000Y-50250000D03*
X72650000Y-50000000D03*
X75350000Y-49750000D03*
X72650000Y-49500000D03*
X75350000Y-49250000D03*
X72650000Y-49000000D03*
X75350000Y-48750000D03*
X72650000Y-48500000D03*
X75350000Y-48250000D03*
X72650000Y-48000000D03*
X75350000Y-47750000D03*
X72650000Y-47500000D03*
X75350000Y-47250000D03*
X72650000Y-47000000D03*
X75350000Y-46750000D03*
X72650000Y-46500000D03*
X75350000Y-46250000D03*
X72650000Y-46000000D03*
X75350000Y-45750000D03*
X72650000Y-45500000D03*
X75350000Y-45250000D03*
X72650000Y-45000000D03*
X75350000Y-44750000D03*
X72650000Y-44500000D03*
X75350000Y-44250000D03*
X72650000Y-44000000D03*
X75350000Y-43750000D03*
X72650000Y-43500000D03*
X75350000Y-43250000D03*
X72650000Y-43000000D03*
X75350000Y-42750000D03*
X72650000Y-42500000D03*
X75350000Y-42250000D03*
X72650000Y-42000000D03*
X75350000Y-41750000D03*
X72650000Y-41500000D03*
X75350000Y-41250000D03*
X72650000Y-41000000D03*
X75350000Y-40750000D03*
X72650000Y-40500000D03*
X75350000Y-40250000D03*
X72650000Y-40000000D03*
X75350000Y-39750000D03*
X72650000Y-39500000D03*
X75350000Y-39250000D03*
X72650000Y-39000000D03*
X75350000Y-36750000D03*
X72650000Y-36500000D03*
X75350000Y-36250000D03*
X72650000Y-36000000D03*
X75350000Y-35750000D03*
X72650000Y-35500000D03*
X75350000Y-35250000D03*
X72650000Y-35000000D03*
X75350000Y-34750000D03*
D35*
X74000000Y-55600000D03*
X74000000Y-32400000D03*
%TD*%
D30*
%TO.C,C460*%
X59520000Y-40000000D03*
X60480000Y-40000000D03*
%TD*%
D33*
%TO.C,C404*%
X54725000Y-31000000D03*
X56275000Y-31000000D03*
%TD*%
D30*
%TO.C,C4115*%
X47520000Y-21000000D03*
X48480000Y-21000000D03*
%TD*%
%TO.C,C454*%
X57520000Y-42500000D03*
X58480000Y-42500000D03*
%TD*%
%TO.C,C493*%
X63020000Y-33000000D03*
X63980000Y-33000000D03*
%TD*%
%TO.C,C463*%
X39020000Y-49000000D03*
X39980000Y-49000000D03*
%TD*%
%TO.C,C629*%
X13520000Y-38500000D03*
X14480000Y-38500000D03*
%TD*%
D31*
%TO.C,R505*%
X41990000Y-52000000D03*
X43010000Y-52000000D03*
%TD*%
D30*
%TO.C,C492*%
X60020000Y-43000000D03*
X60980000Y-43000000D03*
%TD*%
%TO.C,C453*%
X31520000Y-23500000D03*
X32480000Y-23500000D03*
%TD*%
%TO.C,C4125*%
X39020000Y-21000000D03*
X39980000Y-21000000D03*
%TD*%
D31*
%TO.C,R711*%
X8715000Y-59030000D03*
X9735000Y-59030000D03*
%TD*%
D33*
%TO.C,C621*%
X12725000Y-29000000D03*
X14275000Y-29000000D03*
%TD*%
D32*
%TO.C,R704*%
X63856776Y-22676776D03*
X64496776Y-22676776D03*
%TD*%
D30*
%TO.C,C703*%
X4020000Y-40000000D03*
X4980000Y-40000000D03*
%TD*%
D33*
%TO.C,C803*%
X67725000Y-46000000D03*
X69275000Y-46000000D03*
%TD*%
D30*
%TO.C,C606*%
X24520000Y-42500000D03*
X25480000Y-42500000D03*
%TD*%
%TO.C,C4117*%
X44520000Y-20500000D03*
X45480000Y-20500000D03*
%TD*%
%TO.C,C455*%
X38520000Y-18000000D03*
X39480000Y-18000000D03*
%TD*%
%TO.C,C4127*%
X36520000Y-22500000D03*
X37480000Y-22500000D03*
%TD*%
%TO.C,C709*%
X11020000Y-38500000D03*
X11980000Y-38500000D03*
%TD*%
%TO.C,C624*%
X12520000Y-33000000D03*
X13480000Y-33000000D03*
%TD*%
%TO.C,C486*%
X62020000Y-38500000D03*
X62980000Y-38500000D03*
%TD*%
%TO.C,C4119*%
X54520000Y-41000000D03*
X55480000Y-41000000D03*
%TD*%
D32*
%TO.C,R707*%
X65856776Y-24176776D03*
X66496776Y-24176776D03*
%TD*%
D30*
%TO.C,C425*%
X57020000Y-26000000D03*
X57980000Y-26000000D03*
%TD*%
%TO.C,C450*%
X50020000Y-48000000D03*
X50980000Y-48000000D03*
%TD*%
%TO.C,C405*%
X34520000Y-35000000D03*
X35480000Y-35000000D03*
%TD*%
%TO.C,C413*%
X50020000Y-45000000D03*
X50980000Y-45000000D03*
%TD*%
%TO.C,C633*%
X13520000Y-27000000D03*
X14480000Y-27000000D03*
%TD*%
D31*
%TO.C,R1002*%
X50490000Y-15000000D03*
X51510000Y-15000000D03*
%TD*%
D30*
%TO.C,C627*%
X12520000Y-31500000D03*
X13480000Y-31500000D03*
%TD*%
D31*
%TO.C,R506*%
X52490000Y-50500000D03*
X53510000Y-50500000D03*
%TD*%
D30*
%TO.C,C421*%
X44520000Y-19000000D03*
X45480000Y-19000000D03*
%TD*%
%TO.C,C477*%
X52520000Y-49000000D03*
X53480000Y-49000000D03*
%TD*%
%TO.C,C4116*%
X47520000Y-45000000D03*
X48480000Y-45000000D03*
%TD*%
%TO.C,C611*%
X16020000Y-38500000D03*
X16980000Y-38500000D03*
%TD*%
%TO.C,C4109*%
X50020000Y-22500000D03*
X50980000Y-22500000D03*
%TD*%
D33*
%TO.C,C444*%
X55225000Y-21000000D03*
X56775000Y-21000000D03*
%TD*%
D30*
%TO.C,C707*%
X63020000Y-21000000D03*
X63980000Y-21000000D03*
%TD*%
%TO.C,C607*%
X22020000Y-23500000D03*
X22980000Y-23500000D03*
%TD*%
%TO.C,C447*%
X36020000Y-19500000D03*
X36980000Y-19500000D03*
%TD*%
%TO.C,C4100*%
X41520000Y-22500000D03*
X42480000Y-22500000D03*
%TD*%
%TO.C,C4121*%
X39520000Y-45000000D03*
X40480000Y-45000000D03*
%TD*%
D33*
%TO.C,C615*%
X24225000Y-44500000D03*
X25775000Y-44500000D03*
%TD*%
D30*
%TO.C,C622*%
X27520000Y-44000000D03*
X28480000Y-44000000D03*
%TD*%
D32*
%TO.C,R706*%
X65930000Y-18000000D03*
X66570000Y-18000000D03*
%TD*%
D30*
%TO.C,C491*%
X60020000Y-23000000D03*
X60980000Y-23000000D03*
%TD*%
D31*
%TO.C,R510*%
X61990000Y-24500000D03*
X63010000Y-24500000D03*
%TD*%
D30*
%TO.C,C4120*%
X57020000Y-36500000D03*
X57980000Y-36500000D03*
%TD*%
%TO.C,C439*%
X55020000Y-44000000D03*
X55980000Y-44000000D03*
%TD*%
D31*
%TO.C,R710*%
X67490000Y-24000000D03*
X68510000Y-24000000D03*
%TD*%
D36*
%TO.C,H802*%
X44000000Y-44000000D03*
%TD*%
D30*
%TO.C,C485*%
X36520000Y-49500000D03*
X37480000Y-49500000D03*
%TD*%
D31*
%TO.C,R601*%
X26990000Y-20500000D03*
X28010000Y-20500000D03*
%TD*%
D33*
%TO.C,C446*%
X52725000Y-47000000D03*
X54275000Y-47000000D03*
%TD*%
D30*
%TO.C,C423*%
X37020000Y-45000000D03*
X37980000Y-45000000D03*
%TD*%
%TO.C,C449*%
X59520000Y-38500000D03*
X60480000Y-38500000D03*
%TD*%
%TO.C,C4118*%
X57020000Y-35000000D03*
X57980000Y-35000000D03*
%TD*%
%TO.C,C620*%
X21520000Y-44000000D03*
X22480000Y-44000000D03*
%TD*%
%TO.C,C625*%
X16020000Y-24500000D03*
X16980000Y-24500000D03*
%TD*%
%TO.C,C628*%
X12520000Y-34500000D03*
X13480000Y-34500000D03*
%TD*%
%TO.C,C481*%
X29020000Y-23500000D03*
X29980000Y-23500000D03*
%TD*%
D31*
%TO.C,R804*%
X68990000Y-39000000D03*
X70010000Y-39000000D03*
%TD*%
D30*
%TO.C,C497*%
X58520000Y-45500000D03*
X59480000Y-45500000D03*
%TD*%
D31*
%TO.C,R503*%
X62990000Y-28500000D03*
X64010000Y-28500000D03*
%TD*%
D30*
%TO.C,C473*%
X38520000Y-16500000D03*
X39480000Y-16500000D03*
%TD*%
%TO.C,C458*%
X59520000Y-26000000D03*
X60480000Y-26000000D03*
%TD*%
D33*
%TO.C,C401*%
X44225000Y-22500000D03*
X45775000Y-22500000D03*
%TD*%
D30*
%TO.C,C457*%
X57520000Y-23000000D03*
X58480000Y-23000000D03*
%TD*%
%TO.C,C480*%
X56020000Y-47000000D03*
X56980000Y-47000000D03*
%TD*%
D31*
%TO.C,R701*%
X67990000Y-21000000D03*
X69010000Y-21000000D03*
%TD*%
D30*
%TO.C,C4111*%
X54520000Y-39500000D03*
X55480000Y-39500000D03*
%TD*%
%TO.C,C430*%
X52520000Y-45000000D03*
X53480000Y-45000000D03*
%TD*%
%TO.C,C806*%
X78020000Y-41000000D03*
X78980000Y-41000000D03*
%TD*%
%TO.C,C488*%
X31020000Y-20500000D03*
X31980000Y-20500000D03*
%TD*%
%TO.C,C494*%
X36020000Y-16500000D03*
X36980000Y-16500000D03*
%TD*%
%TO.C,C495*%
X63020000Y-31500000D03*
X63980000Y-31500000D03*
%TD*%
%TO.C,C408*%
X54520000Y-36500000D03*
X55480000Y-36500000D03*
%TD*%
%TO.C,C440*%
X59520000Y-30000000D03*
X60480000Y-30000000D03*
%TD*%
D31*
%TO.C,R713*%
X11215000Y-59030000D03*
X12235000Y-59030000D03*
%TD*%
D30*
%TO.C,C472*%
X50020000Y-49500000D03*
X50980000Y-49500000D03*
%TD*%
D33*
%TO.C,C312*%
X33225000Y-33000000D03*
X34775000Y-33000000D03*
%TD*%
%TO.C,C436*%
X59725000Y-35000000D03*
X61275000Y-35000000D03*
%TD*%
D30*
%TO.C,C452*%
X60520000Y-31500000D03*
X61480000Y-31500000D03*
%TD*%
D33*
%TO.C,C315*%
X67725000Y-44000000D03*
X69275000Y-44000000D03*
%TD*%
%TO.C,C445*%
X59725000Y-28000000D03*
X61275000Y-28000000D03*
%TD*%
D30*
%TO.C,C415*%
X58020000Y-33000000D03*
X58980000Y-33000000D03*
%TD*%
%TO.C,C634*%
X22020000Y-20500000D03*
X22980000Y-20500000D03*
%TD*%
D31*
%TO.C,R602*%
X21490000Y-45500000D03*
X22510000Y-45500000D03*
%TD*%
D30*
%TO.C,C626*%
X19520000Y-22000000D03*
X20480000Y-22000000D03*
%TD*%
%TO.C,C706*%
X66294764Y-25138605D03*
X67254764Y-25138605D03*
%TD*%
%TO.C,C407*%
X34520000Y-36500000D03*
X35480000Y-36500000D03*
%TD*%
%TO.C,C461*%
X47520000Y-49500000D03*
X48480000Y-49500000D03*
%TD*%
%TO.C,C504*%
X38520000Y-15000000D03*
X39480000Y-15000000D03*
%TD*%
%TO.C,C482*%
X33520000Y-18500000D03*
X34480000Y-18500000D03*
%TD*%
%TO.C,C613*%
X19520000Y-42500000D03*
X20480000Y-42500000D03*
%TD*%
%TO.C,C496*%
X63020000Y-34500000D03*
X63980000Y-34500000D03*
%TD*%
%TO.C,C631*%
X24520000Y-20500000D03*
X25480000Y-20500000D03*
%TD*%
%TO.C,C805*%
X78020000Y-46000000D03*
X78980000Y-46000000D03*
%TD*%
%TO.C,C412*%
X37020000Y-43500000D03*
X37980000Y-43500000D03*
%TD*%
D33*
%TO.C,C804*%
X67725000Y-41000000D03*
X69275000Y-41000000D03*
%TD*%
D32*
%TO.C,R708*%
X63293728Y-17311179D03*
X63933728Y-17311179D03*
%TD*%
D30*
%TO.C,C604*%
X16020000Y-37000000D03*
X16980000Y-37000000D03*
%TD*%
%TO.C,C442*%
X59520000Y-37000000D03*
X60480000Y-37000000D03*
%TD*%
%TO.C,C4123*%
X54520000Y-24500000D03*
X55480000Y-24500000D03*
%TD*%
D33*
%TO.C,C427*%
X38725000Y-47000000D03*
X40275000Y-47000000D03*
%TD*%
D30*
%TO.C,C490*%
X54520000Y-17500000D03*
X55480000Y-17500000D03*
%TD*%
%TO.C,C605*%
X24520000Y-23500000D03*
X25480000Y-23500000D03*
%TD*%
%TO.C,C4102*%
X47520000Y-43500000D03*
X48480000Y-43500000D03*
%TD*%
D31*
%TO.C,R801*%
X77990000Y-47500000D03*
X79010000Y-47500000D03*
%TD*%
D33*
%TO.C,C602*%
X15225000Y-35000000D03*
X16775000Y-35000000D03*
%TD*%
D30*
%TO.C,C503*%
X62020000Y-40000000D03*
X62980000Y-40000000D03*
%TD*%
D33*
%TO.C,C435*%
X50725000Y-19000000D03*
X52275000Y-19000000D03*
%TD*%
D30*
%TO.C,C431*%
X34020000Y-23000000D03*
X34980000Y-23000000D03*
%TD*%
D33*
%TO.C,C459*%
X44225000Y-50000000D03*
X45775000Y-50000000D03*
%TD*%
D30*
%TO.C,C4105*%
X34520000Y-27500000D03*
X35480000Y-27500000D03*
%TD*%
%TO.C,C610*%
X16020000Y-27500000D03*
X16980000Y-27500000D03*
%TD*%
%TO.C,C428*%
X36520000Y-21000000D03*
X37480000Y-21000000D03*
%TD*%
D31*
%TO.C,R716*%
X13715000Y-59030000D03*
X14735000Y-59030000D03*
%TD*%
D30*
%TO.C,C409*%
X34520000Y-29000000D03*
X35480000Y-29000000D03*
%TD*%
%TO.C,C438*%
X57020000Y-24500000D03*
X57980000Y-24500000D03*
%TD*%
%TO.C,C469*%
X36020000Y-18000000D03*
X36980000Y-18000000D03*
%TD*%
D31*
%TO.C,R715*%
X3715000Y-59030000D03*
X4735000Y-59030000D03*
%TD*%
D30*
%TO.C,C4112*%
X34520000Y-26000000D03*
X35480000Y-26000000D03*
%TD*%
%TO.C,C4110*%
X34520000Y-39500000D03*
X35480000Y-39500000D03*
%TD*%
D33*
%TO.C,C316*%
X78725000Y-44000000D03*
X80275000Y-44000000D03*
%TD*%
D37*
%TO.C,J701*%
X16950000Y-47255000D03*
X16950000Y-48355000D03*
X16950000Y-49455000D03*
X16950000Y-50555000D03*
X16950000Y-51655000D03*
X16950000Y-52755000D03*
X16950000Y-53855000D03*
X16950000Y-54955000D03*
X16950000Y-55905000D03*
D38*
X6450000Y-56855000D03*
D39*
X2300000Y-56855000D03*
D40*
X12650000Y-56855000D03*
X16950000Y-45705000D03*
D41*
X1850000Y-43355000D03*
%TD*%
D30*
%TO.C,C448*%
X36020000Y-46500000D03*
X36980000Y-46500000D03*
%TD*%
%TO.C,C701*%
X65520000Y-21000000D03*
X66480000Y-21000000D03*
%TD*%
%TO.C,C419*%
X57020000Y-27500000D03*
X57980000Y-27500000D03*
%TD*%
D32*
%TO.C,R709*%
X67680000Y-18500000D03*
X68320000Y-18500000D03*
%TD*%
D33*
%TO.C,C418*%
X47225000Y-19000000D03*
X48775000Y-19000000D03*
%TD*%
D31*
%TO.C,R508*%
X33490000Y-49000000D03*
X34510000Y-49000000D03*
%TD*%
D30*
%TO.C,C462*%
X54020000Y-19000000D03*
X54980000Y-19000000D03*
%TD*%
%TO.C,C451*%
X60520000Y-33000000D03*
X61480000Y-33000000D03*
%TD*%
%TO.C,C614*%
X24520000Y-22000000D03*
X25480000Y-22000000D03*
%TD*%
%TO.C,C416*%
X58020000Y-31500000D03*
X58980000Y-31500000D03*
%TD*%
D32*
%TO.C,C801*%
X69180000Y-42500000D03*
X69820000Y-42500000D03*
%TD*%
D30*
%TO.C,C429*%
X52520000Y-21000000D03*
X53480000Y-21000000D03*
%TD*%
D31*
%TO.C,R712*%
X6215000Y-59030000D03*
X7235000Y-59030000D03*
%TD*%
%TO.C,R714*%
X13215000Y-41030000D03*
X14235000Y-41030000D03*
%TD*%
D30*
%TO.C,C406*%
X54520000Y-35000000D03*
X55480000Y-35000000D03*
%TD*%
%TO.C,C476*%
X41520000Y-50500000D03*
X42480000Y-50500000D03*
%TD*%
%TO.C,C705*%
X65128913Y-17030779D03*
X66088913Y-17030779D03*
%TD*%
%TO.C,C414*%
X57020000Y-38000000D03*
X57980000Y-38000000D03*
%TD*%
D33*
%TO.C,C426*%
X44225000Y-48000000D03*
X45775000Y-48000000D03*
%TD*%
D31*
%TO.C,R504*%
X54990000Y-49000000D03*
X56010000Y-49000000D03*
%TD*%
D30*
%TO.C,C4101*%
X47520000Y-22500000D03*
X48480000Y-22500000D03*
%TD*%
D32*
%TO.C,R705*%
X67680000Y-22500000D03*
X68320000Y-22500000D03*
%TD*%
D31*
%TO.C,R507*%
X33490000Y-17000000D03*
X34510000Y-17000000D03*
%TD*%
D33*
%TO.C,C601*%
X15225000Y-31000000D03*
X16775000Y-31000000D03*
%TD*%
D30*
%TO.C,C464*%
X56020000Y-45500000D03*
X56980000Y-45500000D03*
%TD*%
%TO.C,C616*%
X16020000Y-26000000D03*
X16980000Y-26000000D03*
%TD*%
%TO.C,C619*%
X27020000Y-22000000D03*
X27980000Y-22000000D03*
%TD*%
D32*
%TO.C,C802*%
X78180000Y-42500000D03*
X78820000Y-42500000D03*
%TD*%
D30*
%TO.C,C4128*%
X52520000Y-22500000D03*
X53480000Y-22500000D03*
%TD*%
D33*
%TO.C,C311*%
X15225000Y-33000000D03*
X16775000Y-33000000D03*
%TD*%
D30*
%TO.C,C623*%
X13520000Y-37000000D03*
X14480000Y-37000000D03*
%TD*%
D33*
%TO.C,C403*%
X33725000Y-31000000D03*
X35275000Y-31000000D03*
%TD*%
D30*
%TO.C,C4106*%
X54520000Y-27500000D03*
X55480000Y-27500000D03*
%TD*%
D31*
%TO.C,R803*%
X77990000Y-39500000D03*
X79010000Y-39500000D03*
%TD*%
D30*
%TO.C,C702*%
X7520000Y-37000000D03*
X8480000Y-37000000D03*
%TD*%
%TO.C,C456*%
X41520000Y-49000000D03*
X42480000Y-49000000D03*
%TD*%
%TO.C,C441*%
X47520000Y-48000000D03*
X48480000Y-48000000D03*
%TD*%
%TO.C,C466*%
X31520000Y-22000000D03*
X32480000Y-22000000D03*
%TD*%
D42*
%TO.C,U702*%
X9137500Y-39050000D03*
X9137500Y-40000000D03*
X9137500Y-40950000D03*
X6862500Y-40950000D03*
X6862500Y-39050000D03*
%TD*%
D36*
%TO.C,H801*%
X32000000Y-44000000D03*
%TD*%
D30*
%TO.C,C4122*%
X34520000Y-24500000D03*
X35480000Y-24500000D03*
%TD*%
%TO.C,C630*%
X19020000Y-44000000D03*
X19980000Y-44000000D03*
%TD*%
%TO.C,C499*%
X62020000Y-26000000D03*
X62980000Y-26000000D03*
%TD*%
%TO.C,C420*%
X47520000Y-46500000D03*
X48480000Y-46500000D03*
%TD*%
%TO.C,C484*%
X47520000Y-51000000D03*
X48480000Y-51000000D03*
%TD*%
D33*
%TO.C,C402*%
X54725000Y-33000000D03*
X56275000Y-33000000D03*
%TD*%
D30*
%TO.C,C4107*%
X39520000Y-43500000D03*
X40480000Y-43500000D03*
%TD*%
%TO.C,C609*%
X27020000Y-42500000D03*
X27980000Y-42500000D03*
%TD*%
%TO.C,C603*%
X16020000Y-29000000D03*
X16980000Y-29000000D03*
%TD*%
D33*
%TO.C,C467*%
X51225000Y-17000000D03*
X52775000Y-17000000D03*
%TD*%
D31*
%TO.C,R502*%
X44490000Y-52000000D03*
X45510000Y-52000000D03*
%TD*%
D30*
%TO.C,C411*%
X50020000Y-43500000D03*
X50980000Y-43500000D03*
%TD*%
%TO.C,C432*%
X55020000Y-23000000D03*
X55980000Y-23000000D03*
%TD*%
%TO.C,C422*%
X57020000Y-39500000D03*
X57980000Y-39500000D03*
%TD*%
%TO.C,C4113*%
X54520000Y-26000000D03*
X55480000Y-26000000D03*
%TD*%
%TO.C,C608*%
X22020000Y-42500000D03*
X22980000Y-42500000D03*
%TD*%
%TO.C,C483*%
X33520000Y-47500000D03*
X34480000Y-47500000D03*
%TD*%
%TO.C,C410*%
X54520000Y-29000000D03*
X55480000Y-29000000D03*
%TD*%
M02*
