%TF.GenerationSoftware,KiCad,Pcbnew,9.0.9-9.0.9~ubuntu24.04.1*%
%TF.CreationDate,2026-10-06T12:06:27+00:00*%
%TF.ProjectId,rk3576-sbc,726b3335-3736-42d7-9362-632e6b696361,rev?*%
%TF.SameCoordinates,Original*%
%TF.FileFunction,Copper,L7,Inr*%
%TF.FilePolarity,Positive*%
%FSLAX46Y46*%
G04 Gerber Fmt 4.6, Leading zero omitted, Abs format (unit mm)*
G04 Created by KiCad (PCBNEW 9.0.9-9.0.9~ubuntu24.04.1) date 2026-10-06 12:06:27*
%MOMM*%
%LPD*%
G01*
G04 APERTURE LIST*
G04 Aperture macros list*
%AMRoundRect*
0 Rectangle with rounded corners*
0 $1 Rounding radius*
0 $2 $3 $4 $5 $6 $7 $8 $9 X,Y pos of 4 corners*
0 Add a 4 corners polygon primitive as box body*
4,1,4,$2,$3,$4,$5,$6,$7,$8,$9,$2,$3,0*
0 Add four circle primitives for the rounded corners*
1,1,$1+$1,$2,$3*
1,1,$1+$1,$4,$5*
1,1,$1+$1,$6,$7*
1,1,$1+$1,$8,$9*
0 Add four rect primitives between the rounded corners*
20,1,$1+$1,$2,$3,$4,$5,0*
20,1,$1+$1,$4,$5,$6,$7,0*
20,1,$1+$1,$6,$7,$8,$9,0*
20,1,$1+$1,$8,$9,$2,$3,0*%
G04 Aperture macros list end*
%TA.AperFunction,ComponentPad*%
%ADD10C,0.800000*%
%TD*%
%TA.AperFunction,ComponentPad*%
%ADD11C,5.400000*%
%TD*%
%TA.AperFunction,HeatsinkPad*%
%ADD12O,1.000000X2.100000*%
%TD*%
%TA.AperFunction,HeatsinkPad*%
%ADD13O,1.000000X1.600000*%
%TD*%
%TA.AperFunction,ComponentPad*%
%ADD14O,1.500000X3.300000*%
%TD*%
%TA.AperFunction,ComponentPad*%
%ADD15O,1.500000X2.300000*%
%TD*%
%TA.AperFunction,ComponentPad*%
%ADD16C,1.700000*%
%TD*%
%TA.AperFunction,ComponentPad*%
%ADD17R,1.524000X1.524000*%
%TD*%
%TA.AperFunction,ComponentPad*%
%ADD18C,1.524000*%
%TD*%
%TA.AperFunction,ComponentPad*%
%ADD19C,2.159000*%
%TD*%
%TA.AperFunction,ComponentPad*%
%ADD20R,1.700000X1.700000*%
%TD*%
%TA.AperFunction,HeatsinkPad*%
%ADD21C,0.500000*%
%TD*%
%TA.AperFunction,ComponentPad*%
%ADD22RoundRect,0.250000X0.350000X-0.350000X0.350000X0.350000X-0.350000X0.350000X-0.350000X-0.350000X0*%
%TD*%
%TA.AperFunction,ComponentPad*%
%ADD23C,1.200000*%
%TD*%
%TA.AperFunction,ComponentPad*%
%ADD24O,2.400000X1.200000*%
%TD*%
%TA.AperFunction,ComponentPad*%
%ADD25O,2.100000X1.200000*%
%TD*%
%TA.AperFunction,ComponentPad*%
%ADD26R,1.500000X1.500000*%
%TD*%
%TA.AperFunction,ComponentPad*%
%ADD27C,1.500000*%
%TD*%
%TA.AperFunction,ComponentPad*%
%ADD28C,3.500000*%
%TD*%
%TA.AperFunction,ViaPad*%
%ADD29C,0.350000*%
%TD*%
%TA.AperFunction,ViaPad*%
%ADD30C,0.300000*%
%TD*%
%TA.AperFunction,ViaPad*%
%ADD31C,0.250000*%
%TD*%
%TA.AperFunction,Conductor*%
%ADD32C,0.100000*%
%TD*%
%TA.AperFunction,Conductor*%
%ADD33C,0.090000*%
%TD*%
%TA.AperFunction,Conductor*%
%ADD34C,0.130000*%
%TD*%
%TA.AperFunction,Conductor*%
%ADD35C,0.200000*%
%TD*%
%TA.AperFunction,Conductor*%
%ADD36C,0.110000*%
%TD*%
%TA.AperFunction,Conductor*%
%ADD37C,0.120000*%
%TD*%
G04 APERTURE END LIST*
D10*
%TO.N,GND*%
%TO.C,H1202*%
X94475000Y-3500000D03*
X95068109Y-2068109D03*
X95068109Y-4931891D03*
X96500000Y-1475000D03*
D11*
X96500000Y-3500000D03*
D10*
X96500000Y-5525000D03*
X97931891Y-2068109D03*
X97931891Y-4931891D03*
X98525000Y-3500000D03*
%TD*%
%TO.N,GND*%
%TO.C,H1204*%
X94475000Y-68500000D03*
X95068109Y-67068109D03*
X95068109Y-69931891D03*
X96500000Y-66475000D03*
D11*
X96500000Y-68500000D03*
D10*
X96500000Y-70525000D03*
X97931891Y-67068109D03*
X97931891Y-69931891D03*
X98525000Y-68500000D03*
%TD*%
%TO.N,GND*%
%TO.C,H1203*%
X1475000Y-68500000D03*
X2068109Y-67068109D03*
X2068109Y-69931891D03*
X3500000Y-66475000D03*
D11*
X3500000Y-68500000D03*
D10*
X3500000Y-70525000D03*
X4931891Y-67068109D03*
X4931891Y-69931891D03*
X5525000Y-68500000D03*
%TD*%
D12*
%TO.N,GND*%
%TO.C,J101*%
X7680000Y-65675000D03*
D13*
X7680000Y-69855000D03*
D12*
X16320000Y-65675000D03*
D13*
X16320000Y-69855000D03*
%TD*%
D14*
%TO.N,GND*%
%TO.C,J901*%
X41250000Y-61900000D03*
X26750000Y-61900000D03*
D15*
X41250000Y-67860000D03*
X26750000Y-67860000D03*
%TD*%
D16*
%TO.N,ETH_LED_G_A*%
%TO.C,J1301*%
X95855000Y-62600000D03*
%TO.N,GND*%
X95855000Y-60060000D03*
%TO.N,ETH_LED_Y_A*%
X95855000Y-51940000D03*
%TO.N,PHY_LED2*%
X95855000Y-49400000D03*
D17*
%TO.N,ETH_CT_A*%
X82015000Y-61720000D03*
D18*
%TO.N,ETH_MDI0_P*%
X84555000Y-60450000D03*
%TO.N,ETH_MDI0_N*%
X82015000Y-59180000D03*
%TO.N,ETH_MDI1_P*%
X84555000Y-57910000D03*
%TO.N,ETH_MDI2_P*%
X82015000Y-56640000D03*
%TO.N,ETH_MDI2_N*%
X84555000Y-55370000D03*
%TO.N,ETH_MDI1_N*%
X82015000Y-54090000D03*
%TO.N,ETH_MDI3_P*%
X84555000Y-52830000D03*
%TO.N,ETH_MDI3_N*%
X82015000Y-51560000D03*
%TO.N,ETH_CT_B*%
X84555000Y-50290000D03*
D19*
%TO.N,GND*%
X87855000Y-48250000D03*
X87855000Y-63750000D03*
%TD*%
D20*
%TO.N,GND*%
%TO.C,J501*%
X50000000Y-68600000D03*
D16*
%TO.N,DBG_UART_TX*%
X52540000Y-68600000D03*
%TO.N,DBG_UART_RX*%
X55080000Y-68600000D03*
%TD*%
D10*
%TO.N,GND*%
%TO.C,H1201*%
X1475000Y-3500000D03*
X2068109Y-2068109D03*
X2068109Y-4931891D03*
X3500000Y-1475000D03*
D11*
X3500000Y-3500000D03*
D10*
X3500000Y-5525000D03*
X4931891Y-2068109D03*
X4931891Y-4931891D03*
X5525000Y-3500000D03*
%TD*%
D21*
%TO.N,GND*%
%TO.C,U201*%
X42650000Y-9650000D03*
X42650000Y-10825000D03*
X42650000Y-12000000D03*
X42650000Y-13175000D03*
X42650000Y-14350000D03*
X43825000Y-9650000D03*
X43825000Y-10825000D03*
X43825000Y-12000000D03*
X43825000Y-13175000D03*
X43825000Y-14350000D03*
X45000000Y-9650000D03*
X45000000Y-10825000D03*
X45000000Y-12000000D03*
X45000000Y-13175000D03*
X45000000Y-14350000D03*
X46175000Y-9650000D03*
X46175000Y-10825000D03*
X46175000Y-12000000D03*
X46175000Y-13175000D03*
X46175000Y-14350000D03*
X47350000Y-9650000D03*
X47350000Y-10825000D03*
X47350000Y-12000000D03*
X47350000Y-13175000D03*
X47350000Y-14350000D03*
%TD*%
D22*
%TO.N,VBUS_USB3A*%
%TO.C,J1001*%
X89655000Y-19500000D03*
D23*
%TO.N,USB3A_DM*%
X89655000Y-17000000D03*
%TO.N,USB3A_DP*%
X89655000Y-15000000D03*
%TO.N,GND*%
X89655000Y-12500000D03*
%TO.N,USB3_RXN*%
X88155000Y-12000000D03*
%TO.N,USB3_RXP*%
X88155000Y-14000000D03*
%TO.N,GND*%
X88155000Y-16000000D03*
%TO.N,USB3A_SSTXN*%
X88155000Y-18000000D03*
%TO.N,USB3A_SSTXP*%
X88155000Y-20000000D03*
D24*
%TO.N,GND*%
X88905000Y-22400000D03*
D25*
X97405000Y-22400000D03*
D24*
X88905000Y-9600000D03*
D25*
X97405000Y-9600000D03*
%TD*%
D26*
%TO.N,VBUS_USB2A*%
%TO.C,J1401*%
X88445000Y-38300000D03*
D27*
%TO.N,USBA1_DM*%
X88445000Y-35800000D03*
%TO.N,USBA1_DP*%
X88445000Y-33800000D03*
%TO.N,GND*%
X88445000Y-31300000D03*
%TO.N,VBUS_USB2A*%
X85825000Y-38300000D03*
%TO.N,USBA2_DM*%
X85825000Y-35800000D03*
%TO.N,USBA2_DP*%
X85825000Y-33800000D03*
%TO.N,GND*%
X85825000Y-31300000D03*
D28*
X91155000Y-41370000D03*
X91155000Y-28230000D03*
X85475000Y-41370000D03*
X85475000Y-28230000D03*
%TD*%
D29*
%TO.N,BUCK_1V1_BST*%
X7712500Y-29462500D03*
X8512500Y-26337500D03*
%TO.N,BUCK_2V0_FB*%
X8187500Y-17312500D03*
X8812500Y-20612500D03*
D30*
%TO.N,DBG_UART_RX*%
X51287500Y-38087500D03*
D29*
%TO.N,DBG_UART_TX*%
X55087500Y-65612500D03*
X55212500Y-47812500D03*
%TO.N,DDR_ZQ_A*%
X40437500Y-39937500D03*
X41837500Y-51637500D03*
%TO.N,DDR_ZQ_B*%
X44987500Y-38512500D03*
X47762500Y-44437500D03*
%TO.N,EMMC_DAT1*%
X67462500Y-19287500D03*
X63387500Y-16837500D03*
D31*
X64250000Y-17750000D03*
D29*
X62437500Y-20487500D03*
%TO.N,EMMC_DAT2*%
X62137500Y-20962500D03*
X54912500Y-17037500D03*
D31*
%TO.N,EMMC_DAT3*%
X63250000Y-18250000D03*
D29*
X66812500Y-21687500D03*
%TO.N,EMMC_DAT5*%
X64987500Y-19112500D03*
D31*
X64250000Y-18250000D03*
D29*
%TO.N,EMMC_DS*%
X64062500Y-16612500D03*
X61462500Y-17012500D03*
X56262500Y-22187500D03*
X49487500Y-27887500D03*
D31*
%TO.N,EMMC_VDDI*%
X63250000Y-18750000D03*
D29*
X65312500Y-20437500D03*
%TO.N,ETH_LED_Y_A*%
X87437500Y-65962500D03*
%TO.N,ETH_MDC*%
X53012500Y-44587500D03*
X48312500Y-38562500D03*
X48637500Y-41562500D03*
X41162500Y-24337500D03*
X68512500Y-58012500D03*
X51612500Y-44537500D03*
X75187500Y-60987500D03*
D31*
X41400000Y-25800000D03*
D29*
%TO.N,ETH_MDI1_N*%
X70987500Y-64387500D03*
D30*
X72312500Y-63362500D03*
D31*
%TO.N,ETH_MDI2_N*%
X72687500Y-62987500D03*
D29*
X79437500Y-60387500D03*
%TO.N,ETH_MDI2_P*%
X72187500Y-62912500D03*
X72187500Y-62912500D03*
%TO.N,ETH_MDI3_P*%
X77487500Y-62912500D03*
%TO.N,GND*%
X16425000Y-64760000D03*
%TO.N,HDMI_CEC_5V*%
X31162500Y-56662500D03*
X35887500Y-53512500D03*
%TO.N,HDMI_D0N_C*%
X47512500Y-54887500D03*
X50712500Y-54762500D03*
D30*
%TO.N,HDMI_D0_TERM*%
X45637500Y-30062500D03*
X45662500Y-34662500D03*
D29*
%TO.N,HDMI_D1P_C*%
X36037500Y-43662500D03*
X35887500Y-59087500D03*
%TO.N,HDMI_D1_TERM*%
X40812500Y-42587500D03*
X41762500Y-23962500D03*
%TO.N,HDMI_D2N_C*%
X54337500Y-41537500D03*
X51812500Y-54462500D03*
%TO.N,HDMI_D2_TERM*%
X55487500Y-30712500D03*
X57837500Y-38637500D03*
%TO.N,HDMI_D3N_C*%
X27612500Y-52162500D03*
X32887500Y-59637500D03*
%TO.N,HDMI_D3P_C*%
X19012500Y-38937500D03*
X33962500Y-59812500D03*
D30*
X45662500Y-55262500D03*
D29*
X34387500Y-59512500D03*
%TO.N,HDMI_D3_TERM*%
X38012500Y-17612500D03*
X19212500Y-24387500D03*
%TO.N,HDMI_HPD*%
X39137500Y-41662500D03*
X45662500Y-28762500D03*
X45737500Y-23887500D03*
X57512500Y-20662500D03*
X40337500Y-58062500D03*
D31*
X37850000Y-40700000D03*
D29*
X49737500Y-24437500D03*
%TO.N,HDMI_SCL*%
X37137500Y-54537500D03*
D31*
X37850000Y-41250000D03*
D29*
%TO.N,HDMI_TX_D2N*%
X49537500Y-44612500D03*
D31*
X52700000Y-40700000D03*
%TO.N,HDMI_TX_D2P*%
X52150000Y-40150000D03*
D30*
X51812500Y-41512500D03*
D29*
%TO.N,HDMI_TX_D3N*%
X46262500Y-55762500D03*
D31*
X51050000Y-40700000D03*
D29*
%TO.N,HDMI_TX_D3P*%
X51012500Y-41687500D03*
X45362500Y-54837500D03*
%TO.N,HDMI_TX_REXT*%
X50137500Y-35762500D03*
X61687500Y-24712500D03*
%TO.N,HUB_REXT*%
X76212500Y-29712500D03*
X68937500Y-29762500D03*
%TO.N,HUB_XI*%
X74037500Y-42787500D03*
X74237500Y-40912500D03*
D30*
%TO.N,LED_SYS_L*%
X41537500Y-44662500D03*
X44112500Y-40962500D03*
D29*
%TO.N,LP5_A0_A*%
X34987500Y-26787500D03*
D31*
X37300000Y-33000000D03*
D30*
%TO.N,LP5_A1_A*%
X22600000Y-30900000D03*
D29*
X32912500Y-37262500D03*
D30*
%TO.N,LP5_A2_A*%
X30337500Y-34737500D03*
X25287500Y-30537500D03*
X36962500Y-35462500D03*
D31*
X39000000Y-34200000D03*
D29*
%TO.N,LP5_A3_A*%
X36962500Y-34337500D03*
X27762500Y-30637500D03*
D30*
%TO.N,LP5_A5_A*%
X29000000Y-30900000D03*
D31*
X40200000Y-33600000D03*
D29*
%TO.N,LP5_CLKN_A*%
X34562500Y-31162500D03*
D31*
X37300000Y-31900000D03*
D29*
%TO.N,LP5_CLKP_B*%
X37437500Y-30912500D03*
X36712500Y-28937500D03*
D31*
%TO.N,LP5_CSN0_A*%
X39000000Y-33000000D03*
D29*
X36862500Y-27987500D03*
D30*
%TO.N,LP5_CSN0_B*%
X25800000Y-35100000D03*
D29*
X32687500Y-34587500D03*
D30*
%TO.N,LP5_CSN1_A*%
X23400000Y-30200000D03*
D29*
X34712500Y-25387500D03*
D30*
%TO.N,LP5_DMI0_B*%
X39887500Y-39337500D03*
D29*
X36012500Y-40162500D03*
D31*
X38950000Y-25300000D03*
D30*
%TO.N,LP5_DQ10_A*%
X29800000Y-28800000D03*
D31*
X37800000Y-39600000D03*
D29*
X31287500Y-30512500D03*
X31887500Y-32712500D03*
%TO.N,LP5_DQ11_B*%
X18662500Y-34062500D03*
D30*
X21000000Y-37900000D03*
D31*
%TO.N,LP5_DQ13_B*%
X37800000Y-27000000D03*
D29*
X37812500Y-24312500D03*
%TO.N,LP5_DQ15_A*%
X31487500Y-34387500D03*
D30*
X27400000Y-29500000D03*
D31*
%TO.N,LP5_DQ15_B*%
X37300000Y-26400000D03*
D29*
X37337500Y-24312500D03*
%TO.N,LP5_DQ4_A*%
X38662500Y-41612500D03*
D31*
X39000000Y-36000000D03*
D30*
%TO.N,LP5_DQ5_A*%
X36737500Y-39137500D03*
X31912500Y-39212500D03*
D29*
%TO.N,LP5_DQ6_B*%
X32387500Y-30337500D03*
D30*
X36412500Y-25312500D03*
X36037500Y-24012500D03*
D29*
X32387500Y-27337500D03*
%TO.N,LP5_DQ7_A*%
X33187500Y-38662500D03*
D30*
X22600000Y-29500000D03*
D31*
%TO.N,LP5_DQ8_A*%
X37300000Y-38500000D03*
D30*
X30600000Y-28100000D03*
D29*
X32512500Y-33162500D03*
X32387500Y-31737500D03*
%TO.N,LP5_RDQS0N_A*%
X36937500Y-36587500D03*
D30*
X21800000Y-27400000D03*
D29*
%TO.N,LP5_RDQS0P_A*%
X36737500Y-35862500D03*
X39012500Y-23887500D03*
%TO.N,LP5_RDQS0P_B*%
X36687500Y-33087500D03*
D31*
X37300000Y-28600000D03*
D30*
%TO.N,LP5_RDQS1N_A*%
X28200000Y-27400000D03*
D29*
X33437500Y-26737500D03*
D30*
%TO.N,LP5_RDQS1P_A*%
X29000000Y-26700000D03*
D29*
X33012500Y-26187500D03*
D30*
%TO.N,LP5_WCK0N_A*%
X22600000Y-28100000D03*
D29*
X35887500Y-23462500D03*
D30*
%TO.N,LP5_WCK0N_B*%
X27400000Y-37900000D03*
D29*
X35937500Y-38387500D03*
%TO.N,LP5_WCK0P_A*%
X33487500Y-22937500D03*
X21487500Y-28462500D03*
D30*
%TO.N,LP5_WCK0P_B*%
X28200000Y-37200000D03*
D29*
X32737500Y-35062500D03*
D30*
%TO.N,LP5_WCK1N_A*%
X27400000Y-28100000D03*
D29*
X32962500Y-25712500D03*
X36862500Y-26237500D03*
D31*
X40200000Y-37800000D03*
D29*
%TO.N,LP5_WCK1N_B*%
X37987500Y-22462500D03*
D31*
X39600000Y-28200000D03*
D29*
X24637500Y-26962500D03*
X40537500Y-27287500D03*
%TO.N,LP5_WCK1P_B*%
X23712500Y-38962500D03*
D30*
X21800000Y-37200000D03*
D29*
%TO.N,M2_LED_A*%
X67887500Y-40087500D03*
X65712500Y-40387500D03*
%TO.N,M2_LED_L*%
X73262500Y-51037500D03*
X61362500Y-53212500D03*
X5762500Y-52987500D03*
X51637500Y-53237500D03*
X19512500Y-53612500D03*
X50237500Y-53287500D03*
%TO.N,OSC_24M_IN*%
X57212500Y-41562500D03*
D31*
X52150000Y-33550000D03*
D29*
%TO.N,PCIE0_CLKREQ_L*%
X73537500Y-40087500D03*
X76337500Y-45712500D03*
D30*
X37112500Y-47062500D03*
X58912500Y-42012500D03*
X71737500Y-40862500D03*
D31*
X37800000Y-40200000D03*
D29*
%TO.N,PCIE0_PERST_L*%
X53837500Y-41487500D03*
X36687500Y-40837500D03*
X49237500Y-45537500D03*
X35662500Y-45387500D03*
D30*
%TO.N,PCIE0_REFCLKN*%
X57487500Y-39037500D03*
X74562500Y-40137500D03*
%TO.N,PCIE0_RXN*%
X53437500Y-35962500D03*
X53887500Y-33637500D03*
D29*
%TO.N,PCIE0_RXP*%
X50912500Y-36212500D03*
X53987500Y-37987500D03*
%TO.N,PCIE0_WAKE_L*%
X60987500Y-44737500D03*
X66437500Y-43337500D03*
%TO.N,PHY_INT_L*%
X76712500Y-54762500D03*
X69662500Y-58062500D03*
%TO.N,PHY_LED0*%
X69187500Y-56912500D03*
X73712500Y-52762500D03*
%TO.N,PHY_LED1*%
X69062500Y-58987500D03*
X65437500Y-55712500D03*
X69062500Y-58987500D03*
D31*
%TO.N,PHY_RSET*%
X66887500Y-63537500D03*
X69087500Y-61337500D03*
D30*
%TO.N,PHY_RST_GPIO*%
X58437500Y-25662500D03*
X53937500Y-25837500D03*
X55712500Y-25162500D03*
D31*
X52700000Y-25850000D03*
D29*
%TO.N,PHY_XO*%
X69062500Y-60587500D03*
X72537500Y-64062500D03*
D30*
%TO.N,PMIC_FB1*%
X57562500Y-30712500D03*
D29*
X57587500Y-27012500D03*
X53987500Y-24537500D03*
D30*
X57037500Y-32062500D03*
D29*
%TO.N,PMIC_FB2*%
X18412500Y-22562500D03*
X47887500Y-14387500D03*
%TO.N,PMIC_FB5*%
X50287500Y-11862500D03*
X53512500Y-39062500D03*
%TO.N,PMIC_FB9*%
X62337500Y-25312500D03*
X42587500Y-7612500D03*
X50137500Y-10037500D03*
X62512500Y-27012500D03*
%TO.N,PMIC_INT_L*%
X72737500Y-20862500D03*
X64862500Y-37312500D03*
%TO.N,PMIC_PWRCTRL2*%
X47837500Y-11062500D03*
X44587500Y-8487500D03*
%TO.N,PMIC_SW10*%
X44987500Y-15487500D03*
X28637500Y-15487500D03*
%TO.N,PMIC_SW4*%
X50712500Y-16362500D03*
X43787500Y-16362500D03*
%TO.N,PMIC_SW7*%
X37987500Y-14937500D03*
X48337500Y-12462500D03*
%TO.N,PMIC_SW8*%
X41487500Y-10787500D03*
X56412500Y-11462500D03*
%TO.N,RGMII_RXC*%
X46262500Y-28737500D03*
X44787500Y-41887500D03*
%TO.N,RGMII_TXC_SOC*%
X53487500Y-38062500D03*
X60187500Y-44737500D03*
D31*
%TO.N,RGMII_TXD1*%
X46087500Y-41762500D03*
X45662500Y-37262500D03*
D29*
%TO.N,RGMII_TXD3*%
X60287500Y-49387500D03*
X55537500Y-41587500D03*
X47562500Y-32087500D03*
X53962500Y-40987500D03*
%TO.N,SARADC_IN0_BOOT*%
X60987500Y-38912500D03*
X56937500Y-34237500D03*
%TO.N,SD_CMD*%
X5337500Y-57437500D03*
X51487500Y-24137500D03*
D31*
X49800000Y-25800000D03*
D29*
X12237500Y-53887500D03*
%TO.N,SD_D3*%
X38262500Y-21462500D03*
X43987500Y-26212500D03*
X40487500Y-23662500D03*
X13412500Y-40687500D03*
%TO.N,SD_PWREN*%
X50162500Y-39287500D03*
X43462500Y-48212500D03*
%TO.N,USB3A_DM*%
X78812500Y-31412500D03*
%TO.N,USB3A_DP*%
X78012500Y-31637500D03*
D30*
%TO.N,USB3A_OC_L*%
X73037500Y-7137500D03*
X49462500Y-26087500D03*
D29*
X77187500Y-7187500D03*
X62287500Y-14412500D03*
X74512500Y-7187500D03*
X59637500Y-17312500D03*
%TO.N,USB3_RXP*%
X59987500Y-25612500D03*
X53387500Y-30162500D03*
X84362500Y-15312500D03*
%TO.N,USB3_TXN*%
X67487500Y-22937500D03*
D30*
X60412500Y-27062500D03*
X55587500Y-26887500D03*
D29*
X65137500Y-25062500D03*
D30*
X73512500Y-18862500D03*
X53537500Y-29337500D03*
%TO.N,USB3_TXP*%
X63612500Y-24787500D03*
X54537500Y-31712500D03*
X52862500Y-34387500D03*
X58787500Y-23812500D03*
X54012500Y-27312500D03*
X50137500Y-31462500D03*
D29*
%TO.N,USBA2_DM*%
X78862500Y-42037500D03*
X82812500Y-42562500D03*
X78487500Y-37637500D03*
%TO.N,USBC_DP*%
X15737500Y-63737500D03*
X12762500Y-63987500D03*
%TO.N,USB_HOST_PWREN*%
X50737500Y-20087500D03*
X58562500Y-19462500D03*
X60862500Y-18512500D03*
X47937500Y-28562500D03*
%TO.N,USB_OTG0_VBUSDET*%
X48937500Y-17162500D03*
D31*
X42730000Y-37550000D03*
D29*
%TO.N,VBUS_IN*%
X54287500Y-56062500D03*
X43737500Y-57137500D03*
D31*
%TO.N,VBUS_USB3A*%
X47280000Y-38850000D03*
D29*
X58687500Y-17387500D03*
X51412500Y-21912500D03*
X47887500Y-24187500D03*
X75135558Y-9949653D03*
X80437500Y-10962500D03*
%TO.N,VCC5V0_SYS_S5*%
X80062500Y-6837500D03*
X60837500Y-56587500D03*
X48837500Y-11862500D03*
X43462500Y-19287500D03*
X55512500Y-28437500D03*
X48262500Y-15937500D03*
X31112500Y-21312500D03*
X43871017Y-18854588D03*
X57137500Y-28437500D03*
X34379073Y-26654073D03*
X53817851Y-36290839D03*
X34162500Y-33512500D03*
X25379073Y-21154073D03*
X79187500Y-7712500D03*
D31*
%TO.N,VCC5V_HDMI*%
X53587500Y-47237500D03*
X61112500Y-46512500D03*
D29*
X37287500Y-58162500D03*
X34312500Y-50737500D03*
D31*
X68862500Y-41662500D03*
X54462500Y-44487500D03*
X51837500Y-49937500D03*
D29*
X31362500Y-54162500D03*
X37087500Y-57437500D03*
D31*
X49112500Y-52187500D03*
D30*
%TO.N,VCCA_1V8_S0*%
X39737500Y-45862500D03*
D29*
X47812500Y-43362500D03*
D30*
X39612500Y-20512500D03*
X45787500Y-45712500D03*
X43237500Y-46737500D03*
D29*
X35812500Y-50562500D03*
X39437500Y-44387500D03*
X34787500Y-41012500D03*
D31*
X45980000Y-37550000D03*
D30*
X37712500Y-20212500D03*
D29*
%TO.N,VCCA_3V3_S0*%
X38012500Y-14112500D03*
X43800000Y-8925000D03*
%TO.N,VCCIO_SD_S0*%
X57187500Y-16387500D03*
X50487500Y-21437500D03*
X60287500Y-15962500D03*
X63312500Y-27837500D03*
X55537500Y-47362500D03*
X57712500Y-33562500D03*
X65012500Y-25912500D03*
X59587500Y-30562500D03*
X57537500Y-46662500D03*
X65637500Y-25212500D03*
X14187500Y-42262500D03*
X65237500Y-30462500D03*
X65237500Y-36462500D03*
X54587500Y-18087500D03*
X54412500Y-12412500D03*
X13737500Y-52937500D03*
X66862500Y-20112500D03*
D30*
%TO.N,VCC_1V1_NLDO_S3*%
X42037500Y-14037500D03*
D29*
X63437500Y-33412500D03*
X64412500Y-32137500D03*
X45712500Y-15062500D03*
%TO.N,VCC_1V8_S3*%
X46487500Y-27812500D03*
D31*
X38787500Y-49737500D03*
D29*
X46487500Y-24887500D03*
X65412500Y-17137500D03*
X43287500Y-49462500D03*
X47462500Y-21887500D03*
D31*
X45362500Y-46212500D03*
X65250000Y-18750000D03*
X38037500Y-46162500D03*
D29*
X47287500Y-26162500D03*
D30*
%TO.N,VCC_2V0_PLDO_S3*%
X45462500Y-5387500D03*
X60487500Y-13112500D03*
D29*
X60912500Y-34087500D03*
X64912500Y-30087500D03*
%TO.N,VCC_3V3_S0*%
X27787500Y-55937500D03*
X41712500Y-43662500D03*
X61787500Y-32437500D03*
X67562500Y-20487500D03*
X71987500Y-15312500D03*
X41937500Y-45987500D03*
X11557401Y-40537401D03*
X47962500Y-52337500D03*
X43062500Y-41512500D03*
X51262500Y-50462500D03*
X70780000Y-48000000D03*
X48312500Y-17262500D03*
X66662500Y-22687500D03*
X44537500Y-23537500D03*
X41937500Y-46912500D03*
D31*
X37087500Y-23037500D03*
D29*
X78712500Y-47537500D03*
D30*
%TO.N,VCC_3V3_S3*%
X43487500Y-41812500D03*
X47512500Y-53962500D03*
X54312500Y-54462500D03*
X61687500Y-54687500D03*
D29*
X32637500Y-24662500D03*
X53837500Y-25012500D03*
X34112500Y-24687500D03*
D30*
X69637500Y-54737500D03*
D29*
X54237500Y-26537500D03*
D30*
X43612500Y-41012500D03*
D29*
X57162500Y-18112500D03*
X53362500Y-25037500D03*
%TO.N,VDD1_DDR_S3*%
X43287500Y-4737500D03*
D30*
X25412500Y-30012500D03*
D29*
X64437500Y-11737500D03*
X23987500Y-20387500D03*
X27287500Y-17087500D03*
X18887500Y-26837500D03*
X17557401Y-23537401D03*
%TO.N,VDD2H_DDR_S3*%
X42437500Y-8962500D03*
X54412500Y-11062500D03*
D30*
X19400000Y-33700000D03*
X20200000Y-33700000D03*
D31*
X23662500Y-30537500D03*
D30*
X23400000Y-36500000D03*
D29*
X61262500Y-26737500D03*
D30*
X21800000Y-33700000D03*
X22600000Y-33700000D03*
X20200000Y-32300000D03*
D29*
X21337500Y-22937500D03*
X28462500Y-17087500D03*
D30*
X22600000Y-34400000D03*
D29*
X58512500Y-30562500D03*
X15412500Y-31637500D03*
X23562500Y-21287500D03*
D30*
X25800000Y-29500000D03*
D29*
X21137500Y-21412500D03*
X21462500Y-32612500D03*
D30*
X25000000Y-33000000D03*
X21000000Y-32300000D03*
X21000000Y-33700000D03*
X26600000Y-29500000D03*
D29*
X24562500Y-36237500D03*
X15237500Y-33762500D03*
%TO.N,VDDA0V75_HDMI_S0*%
X40937500Y-48512500D03*
D31*
X47930000Y-37550000D03*
D29*
X47612500Y-41762500D03*
X46137500Y-43312500D03*
D31*
%TO.N,VDDA_0V75_S0*%
X37687500Y-50512500D03*
D29*
X33520000Y-19260000D03*
X41812500Y-18112500D03*
D30*
X24162500Y-23962500D03*
X44387500Y-37912500D03*
X29537500Y-19637500D03*
D31*
X44020000Y-37550000D03*
X38787500Y-51687500D03*
D30*
X26287500Y-21587500D03*
D29*
X33337500Y-18812500D03*
D31*
%TO.N,VDDA_0V85_S0*%
X44020000Y-36250000D03*
D29*
X64087500Y-38987500D03*
D31*
X44020000Y-36900000D03*
D29*
X62442148Y-34395058D03*
D30*
%TO.N,VDDQ_DDR_S0*%
X29000000Y-36500000D03*
X29800000Y-39300000D03*
D29*
X15262500Y-37887500D03*
D30*
X21000000Y-36500000D03*
D29*
X32337500Y-30812500D03*
D30*
X22600000Y-37200000D03*
D29*
X24562500Y-36837500D03*
D30*
X32112500Y-36487500D03*
D29*
X60037500Y-33912500D03*
D30*
X33187500Y-30037500D03*
X21800000Y-36500000D03*
D29*
X32712500Y-28912500D03*
D30*
X19400000Y-36500000D03*
D29*
X62137500Y-30962500D03*
D30*
X29000000Y-29500000D03*
X32837500Y-37887500D03*
X30987500Y-39287500D03*
D29*
X27612500Y-44312500D03*
D30*
X29800000Y-30200000D03*
X28200000Y-29500000D03*
X29800000Y-35800000D03*
D29*
X31462500Y-39362500D03*
X33337500Y-48412500D03*
%TO.N,VDD_0V75_S3*%
X59912500Y-19287500D03*
X53262500Y-14362500D03*
X62037500Y-36187500D03*
X64887500Y-32637500D03*
X58812500Y-21612500D03*
X60587500Y-14862500D03*
X63037500Y-26612500D03*
X62812500Y-25287500D03*
%TO.N,VDD_CPU_BIG_S0*%
X35987500Y-20837500D03*
D31*
X44670000Y-34950000D03*
X44020000Y-33000000D03*
D30*
X49662500Y-41462500D03*
X53062500Y-31587500D03*
D29*
X41437500Y-16362500D03*
X43112500Y-22562500D03*
D30*
X49287500Y-42687500D03*
D29*
X42987500Y-20887500D03*
X55057401Y-29537401D03*
D31*
X45330000Y-34950000D03*
X44670000Y-33000000D03*
D29*
X43712500Y-21787500D03*
X41637500Y-20412500D03*
%TO.N,VDD_CPU_LIT_S0*%
X41412500Y-19487500D03*
X47687500Y-19212500D03*
D31*
X52037500Y-11112500D03*
D29*
X46512500Y-6812500D03*
D30*
X47112500Y-46612500D03*
D29*
X46587500Y-19987500D03*
D30*
X48112500Y-48987500D03*
D29*
X58879073Y-2154073D03*
D30*
X52937500Y-43012500D03*
D29*
X48687500Y-6062500D03*
X59387500Y-6037500D03*
X44687500Y-18637500D03*
D31*
X46537500Y-8487500D03*
D30*
X46812500Y-48737500D03*
D29*
%TO.N,VDD_DDR_S0*%
X53512500Y-15537500D03*
X40362500Y-18737500D03*
X44587500Y-17087500D03*
X49662500Y-16737500D03*
X54187500Y-46212500D03*
X59587500Y-40312500D03*
X44112500Y-17262500D03*
X59537500Y-39662500D03*
X37137500Y-20162500D03*
X53237500Y-51062500D03*
X63437500Y-40387500D03*
X62537500Y-13537500D03*
X58162500Y-40062500D03*
X33887500Y-20037500D03*
D30*
%TO.N,VDD_GPU_S0*%
X56462500Y-18462500D03*
X51837500Y-20387500D03*
D29*
%TO.N,VDD_LOGIC_S0*%
X39812500Y-11312500D03*
D30*
X59537500Y-20737500D03*
D29*
X52062500Y-17212500D03*
X38487500Y-13937500D03*
D30*
X52887500Y-46487500D03*
D29*
X54512500Y-18587500D03*
D30*
X50412500Y-48062500D03*
X56037500Y-20737500D03*
%TO.N,VDD_NPU_S0*%
X57537500Y-25062500D03*
D29*
X51562500Y-14387500D03*
D30*
X52412500Y-48337500D03*
X49162500Y-48437500D03*
D29*
X56537500Y-21712500D03*
D30*
X59537500Y-25037500D03*
D29*
X60804666Y-36211387D03*
X56712500Y-24337500D03*
X53062500Y-13137500D03*
X61487500Y-38937500D03*
%TO.N,WIFI_CHIP_EN*%
X17287500Y-16387500D03*
X17062500Y-3512500D03*
%TO.N,WIFI_PD_GPIO*%
X38762500Y-17437500D03*
X28537500Y-18712500D03*
%TO.N,WIFI_USB_DM*%
X42587500Y-6912500D03*
X70312500Y-25212500D03*
X74462500Y-29362500D03*
X52937500Y-10437500D03*
%TO.N,WIFI_USB_DP*%
X75112500Y-29362500D03*
X70762500Y-25012500D03*
%TD*%
D32*
%TO.N,BUCK_1V1_BST*%
X7712500Y-29462500D02*
X8512500Y-27537500D01*
X8512500Y-27537500D02*
X8512500Y-26337500D01*
%TO.N,BUCK_2V0_FB*%
X8812500Y-20612500D02*
X8187500Y-17312500D01*
%TO.N,DBG_UART_RX*%
X51712500Y-38137500D02*
X54762500Y-41237500D01*
X54737500Y-62512500D02*
X54737500Y-67837500D01*
X54762500Y-41237500D02*
X54787500Y-42937500D01*
X55037500Y-43187500D02*
X54987500Y-44437500D01*
X54537500Y-44887500D02*
X54737500Y-62512500D01*
X54987500Y-44437500D02*
X54537500Y-44887500D01*
X51287500Y-38087500D02*
X51712500Y-38137500D01*
X54787500Y-42937500D02*
X55037500Y-43187500D01*
%TO.N,DBG_UART_TX*%
X55212500Y-47812500D02*
X55087500Y-65612500D01*
%TO.N,DDR_ZQ_A*%
X40437500Y-49787500D02*
X41762500Y-51112500D01*
X41762500Y-51112500D02*
X41837500Y-51637500D01*
X40437500Y-39937500D02*
X40437500Y-49787500D01*
%TO.N,DDR_ZQ_B*%
X44987500Y-38512500D02*
X45137500Y-41812500D01*
X45137500Y-41812500D02*
X47762500Y-44437500D01*
%TO.N,EMMC_DAT1*%
X62962500Y-17262500D02*
X63387500Y-16837500D01*
X62437500Y-20487500D02*
X62962500Y-19962500D01*
X65237500Y-16787500D02*
X65562500Y-16787500D01*
X65562500Y-16787500D02*
X67462500Y-18712500D01*
X67462500Y-18712500D02*
X67462500Y-19287500D01*
X64312500Y-17712500D02*
X65237500Y-16787500D01*
X62962500Y-19962500D02*
X62962500Y-17262500D01*
%TO.N,EMMC_DAT2*%
X62087500Y-18287500D02*
X62087500Y-20912500D01*
X62087500Y-20912500D02*
X62137500Y-20962500D01*
X56287500Y-16012500D02*
X59837500Y-16012500D01*
X54912500Y-17037500D02*
X56287500Y-16012500D01*
X59837500Y-16012500D02*
X62087500Y-18287500D01*
%TO.N,EMMC_DAT3*%
X64137500Y-19037500D02*
X64087500Y-19037500D01*
X64537500Y-19437500D02*
X64137500Y-19037500D01*
X65512500Y-19062500D02*
X65112500Y-19462500D01*
X64087500Y-19037500D02*
X63312500Y-18262500D01*
X66412500Y-19937500D02*
X65512500Y-19037500D01*
X65112500Y-19462500D02*
X64537500Y-19437500D01*
X66812500Y-21687500D02*
X66412500Y-19937500D01*
%TO.N,EMMC_DAT5*%
X64262500Y-18387500D02*
X64262500Y-18312500D01*
X64987500Y-19112500D02*
X64262500Y-18387500D01*
%TO.N,EMMC_DS*%
X56887500Y-22712500D02*
X57112500Y-22712500D01*
X50062500Y-26212500D02*
X50062500Y-27312500D01*
X50712500Y-25562500D02*
X50062500Y-26212500D01*
X57112500Y-22712500D02*
X53812500Y-22712500D01*
X53812500Y-22712500D02*
X51012500Y-25512500D01*
X51012500Y-25512500D02*
X50712500Y-25562500D01*
X50062500Y-27312500D02*
X49487500Y-27887500D01*
X63762500Y-16312500D02*
X64062500Y-16612500D01*
X62162500Y-16312500D02*
X63762500Y-16312500D01*
X61462500Y-17012500D02*
X62162500Y-16312500D01*
X56262500Y-22187500D02*
X56887500Y-22712500D01*
%TO.N,EMMC_VDDI*%
X64887500Y-20012500D02*
X65312500Y-20437500D01*
X63312500Y-18762500D02*
X64887500Y-20012500D01*
%TO.N,ETH_LED_Y_A*%
X89087500Y-58912500D02*
X95387500Y-52612500D01*
X87437500Y-65962500D02*
X89087500Y-64312500D01*
X89087500Y-64312500D02*
X89087500Y-58912500D01*
%TO.N,ETH_MDC*%
X48637500Y-41412500D02*
X48637500Y-41562500D01*
X48312500Y-38562500D02*
X48862500Y-39287500D01*
X41362500Y-25712500D02*
X41162500Y-24337500D01*
X48862500Y-41187500D02*
X48637500Y-41412500D01*
X68512500Y-58012500D02*
X74837500Y-60987500D01*
X48862500Y-39287500D02*
X48862500Y-41187500D01*
X74837500Y-60987500D02*
X75187500Y-60987500D01*
X51612500Y-44537500D02*
X53012500Y-44587500D01*
%TO.N,ETH_MDI1_N*%
X72362500Y-63362500D02*
X72312500Y-63362500D01*
X72912500Y-63912500D02*
X72362500Y-63362500D01*
X70987500Y-64387500D02*
X72687500Y-64412500D01*
X72687500Y-64412500D02*
X72912500Y-64187500D01*
X72912500Y-64187500D02*
X72912500Y-63912500D01*
%TO.N,ETH_MDI2_N*%
X77312500Y-62387500D02*
X78312500Y-61387500D01*
X78612500Y-61512500D02*
X78437500Y-61687500D01*
X76262500Y-62962500D02*
X76262500Y-62912500D01*
X72712500Y-62987500D02*
X72762500Y-63037500D01*
X72762500Y-63037500D02*
X75387500Y-63262500D01*
X75512500Y-63387500D02*
X75837500Y-63387500D01*
X78437500Y-61687500D02*
X78162500Y-61687500D01*
X75387500Y-63262500D02*
X75487500Y-63362500D01*
X75837500Y-63387500D02*
X76262500Y-62962500D01*
X75487500Y-63362500D02*
X75512500Y-63387500D01*
X78162500Y-61687500D02*
X78087500Y-61612500D01*
X79437500Y-60387500D02*
X78612500Y-61512500D01*
X76262500Y-62912500D02*
X76662500Y-62512500D01*
X76662500Y-62512500D02*
X77312500Y-62387500D01*
%TO.N,ETH_MDI2_P*%
X80463846Y-57786154D02*
X80605267Y-57644733D01*
X80888110Y-57220469D02*
X81029531Y-57220469D01*
X79685391Y-57290543D02*
X79826813Y-57290543D01*
X80039582Y-56937626D02*
X80039582Y-56796205D01*
X80039582Y-56796205D02*
X80181003Y-56654784D01*
X76337500Y-61912500D02*
X80039582Y-58210418D01*
X76137500Y-62087500D02*
X76312500Y-61912500D01*
X80181003Y-56654784D02*
X80322424Y-56654784D01*
X80605267Y-57644733D02*
X80605267Y-57503312D01*
X80322424Y-57786154D02*
X80463846Y-57786154D01*
X80322424Y-56654784D02*
X80888110Y-57220469D01*
X79543970Y-57573385D02*
X79543970Y-57431964D01*
X79826813Y-57290543D02*
X80322424Y-57786154D01*
X72187500Y-62912500D02*
X73087500Y-62087500D01*
X73087500Y-62087500D02*
X76137500Y-62087500D01*
X81029531Y-57220469D02*
X81337500Y-56912500D01*
X80605267Y-57503312D02*
X80039582Y-56937626D01*
X79543970Y-57431964D02*
X79685391Y-57290543D01*
X80039582Y-58068997D02*
X79543970Y-57573385D01*
X80039582Y-58210418D02*
X80039582Y-58068997D01*
%TO.N,ETH_MDI3_P*%
X81062500Y-58762500D02*
X82312500Y-57512500D01*
X77862500Y-62787500D02*
X81062500Y-59537500D01*
X82437500Y-57512500D02*
X82487500Y-57462500D01*
X82312500Y-57512500D02*
X82437500Y-57512500D01*
X82487500Y-57462500D02*
X83612500Y-56337500D01*
X77487500Y-62912500D02*
X77862500Y-62787500D01*
X83612500Y-54087500D02*
X84237500Y-53462500D01*
X83612500Y-56337500D02*
X83612500Y-54087500D01*
X81062500Y-59537500D02*
X81062500Y-58762500D01*
%TO.N,HDMI_CEC_5V*%
X35887500Y-53512500D02*
X31162500Y-56662500D01*
%TO.N,HDMI_D0N_C*%
X48387500Y-54712500D02*
X47512500Y-54887500D01*
X50712500Y-54762500D02*
X48387500Y-54712500D01*
%TO.N,HDMI_D0_TERM*%
X45637500Y-30062500D02*
X45662500Y-34662500D01*
%TO.N,HDMI_D1P_C*%
X36262500Y-53912500D02*
X35887500Y-59087500D01*
X36037500Y-43662500D02*
X36262500Y-53912500D01*
%TO.N,HDMI_D1_TERM*%
X42337500Y-25762500D02*
X42362500Y-29012500D01*
X42362500Y-29012500D02*
X42387500Y-29037500D01*
X42387500Y-29037500D02*
X42387500Y-41012500D01*
X41762500Y-23962500D02*
X41987500Y-24687500D01*
X41987500Y-25412500D02*
X42337500Y-25762500D01*
X42387500Y-41012500D02*
X40812500Y-42587500D01*
X41987500Y-24687500D02*
X41987500Y-25412500D01*
%TO.N,HDMI_D2N_C*%
X51812500Y-54462500D02*
X54112500Y-41762500D01*
X54112500Y-41762500D02*
X54337500Y-41537500D01*
%TO.N,HDMI_D2_TERM*%
X57837500Y-38637500D02*
X55487500Y-30712500D01*
%TO.N,HDMI_D3N_C*%
X27612500Y-52162500D02*
X31587500Y-58012500D01*
X31587500Y-58012500D02*
X32887500Y-59637500D01*
%TO.N,HDMI_D3P_C*%
X31962500Y-59162500D02*
X32512500Y-59712500D01*
X32737500Y-60012500D02*
X33787500Y-59987500D01*
X25912500Y-53387500D02*
X31687500Y-59162500D01*
X32512500Y-59712500D02*
X32512500Y-59787500D01*
X33787500Y-59987500D02*
X33962500Y-59812500D01*
X45562500Y-55312500D02*
X40837500Y-58687500D01*
X32512500Y-59787500D02*
X32737500Y-60012500D01*
X40012500Y-59512500D02*
X34387500Y-59512500D01*
X31687500Y-59162500D02*
X31962500Y-59162500D01*
X19012500Y-38937500D02*
X25912500Y-53387500D01*
X40837500Y-58687500D02*
X40012500Y-59512500D01*
%TO.N,HDMI_D3_TERM*%
X21562500Y-24387500D02*
X19212500Y-24387500D01*
X27512500Y-18437500D02*
X21562500Y-24387500D01*
X38012500Y-17612500D02*
X27512500Y-18437500D01*
%TO.N,HDMI_HPD*%
X46212500Y-25437500D02*
X45737500Y-24962500D01*
X57512500Y-20662500D02*
X52962500Y-22062500D01*
X38812500Y-41962500D02*
X38512500Y-41962500D01*
X38137500Y-41037500D02*
X37862500Y-40762500D01*
X37862500Y-40762500D02*
X38137500Y-41087500D01*
X38512500Y-41962500D02*
X38137500Y-41587500D01*
X52962500Y-22062500D02*
X49737500Y-24437500D01*
X39087500Y-43162500D02*
X39112500Y-56837500D01*
X38137500Y-41587500D02*
X38137500Y-41037500D01*
X45662500Y-28762500D02*
X45637500Y-28737500D01*
X39137500Y-41662500D02*
X38812500Y-41962500D01*
X45637500Y-28737500D02*
X45687500Y-27737500D01*
X38137500Y-41087500D02*
X38162500Y-42237500D01*
X46862500Y-25987500D02*
X46462500Y-26962500D01*
X46462500Y-26962500D02*
X46462500Y-27337500D01*
X46187500Y-27237500D02*
X46462500Y-27237500D01*
X45737500Y-24962500D02*
X45737500Y-23887500D01*
X45687500Y-27737500D02*
X46187500Y-27237500D01*
X39112500Y-56837500D02*
X40337500Y-58062500D01*
X46887500Y-26012500D02*
X46212500Y-25437500D01*
X38162500Y-42237500D02*
X39087500Y-43162500D01*
%TO.N,HDMI_SCL*%
X37862500Y-42937500D02*
X37787500Y-42862500D01*
X37862500Y-45662500D02*
X37862500Y-42937500D01*
X37437500Y-49012500D02*
X37437500Y-46087500D01*
X37437500Y-46087500D02*
X37862500Y-45662500D01*
X37787500Y-42862500D02*
X37812500Y-41312500D01*
X37137500Y-54537500D02*
X37437500Y-49012500D01*
%TO.N,HDMI_TX_D2N*%
X49537500Y-44612500D02*
X52437500Y-41362500D01*
X52437500Y-41362500D02*
X52437500Y-40987500D01*
X52437500Y-40987500D02*
X52662500Y-40762500D01*
%TO.N,HDMI_TX_D2P*%
X51862500Y-40612500D02*
X51837500Y-41487500D01*
X51837500Y-41487500D02*
X51812500Y-41512500D01*
X51887500Y-40587500D02*
X51862500Y-40612500D01*
X52112500Y-40212500D02*
X51887500Y-40587500D01*
%TO.N,HDMI_TX_D3N*%
X51387500Y-42112500D02*
X51387500Y-41087500D01*
X48962500Y-44537500D02*
X51387500Y-42112500D01*
X47787500Y-46237500D02*
X48937500Y-45087500D01*
X48937500Y-45087500D02*
X48962500Y-44537500D01*
X46262500Y-55762500D02*
X47137500Y-54062500D01*
X51387500Y-41087500D02*
X50537500Y-40237500D01*
X47137500Y-54062500D02*
X47787500Y-46237500D01*
%TO.N,HDMI_TX_D3P*%
X47315076Y-45976346D02*
X47385786Y-46047056D01*
X49898361Y-42902776D02*
X50002082Y-43006497D01*
X46587500Y-46562500D02*
X47173654Y-45976346D01*
X47597918Y-45552082D02*
X48022183Y-45127817D01*
X50002082Y-43006497D02*
X50143503Y-43006497D01*
X47385786Y-46047056D02*
X47527208Y-46047056D01*
X48375736Y-45198528D02*
X48517157Y-45057107D01*
X47668629Y-45764214D02*
X47597918Y-45693503D01*
X45362500Y-54837500D02*
X46587500Y-46562500D01*
X50143503Y-43006497D02*
X51012500Y-42137500D01*
X48234315Y-45198528D02*
X48375736Y-45198528D01*
X47597918Y-45693503D02*
X47597918Y-45552082D01*
X49615518Y-43185619D02*
X49615518Y-43044198D01*
X49719239Y-43289340D02*
X49615518Y-43185619D01*
X51012500Y-42137500D02*
X51012500Y-41687500D01*
X48446447Y-44703553D02*
X49719239Y-43430761D01*
X48517157Y-45057107D02*
X48517157Y-44915685D01*
X48022183Y-45127817D02*
X48163604Y-45127817D01*
X49615518Y-43044198D02*
X49756939Y-42902776D01*
X49719239Y-43430761D02*
X49719239Y-43289340D01*
X47527208Y-46047056D02*
X47668629Y-45905635D01*
X47173654Y-45976346D02*
X47315076Y-45976346D01*
X48517157Y-44915685D02*
X48446447Y-44844975D01*
X48446447Y-44844975D02*
X48446447Y-44703553D01*
X49756939Y-42902776D02*
X49898361Y-42902776D01*
X48163604Y-45127817D02*
X48234315Y-45198528D01*
X47668629Y-45905635D02*
X47668629Y-45764214D01*
%TO.N,HDMI_TX_REXT*%
X51712500Y-33862500D02*
X51862500Y-33712500D01*
X51562500Y-33862500D02*
X51712500Y-33862500D01*
X50187500Y-35762500D02*
X50737500Y-34812500D01*
X51862500Y-33712500D02*
X51862500Y-33412500D01*
X57287500Y-28787500D02*
X59687500Y-26362500D01*
X55987500Y-29287500D02*
X56487500Y-28787500D01*
X50137500Y-35637500D02*
X50287500Y-35487500D01*
X51862500Y-33412500D02*
X52012500Y-33262500D01*
X52437500Y-33087500D02*
X52437500Y-32887500D01*
X50737500Y-34687500D02*
X51562500Y-33862500D01*
X52812500Y-32712500D02*
X55987500Y-29487500D01*
X55987500Y-29487500D02*
X55987500Y-29287500D01*
X52612500Y-32712500D02*
X52812500Y-32712500D01*
X52012500Y-33262500D02*
X52262500Y-33262500D01*
X52437500Y-32887500D02*
X52612500Y-32712500D01*
X59687500Y-26362500D02*
X61687500Y-24712500D01*
X50737500Y-34812500D02*
X50737500Y-34687500D01*
X50137500Y-35762500D02*
X50137500Y-35637500D01*
X52262500Y-33262500D02*
X52437500Y-33087500D01*
X56487500Y-28787500D02*
X57287500Y-28787500D01*
%TO.N,HUB_REXT*%
X68937500Y-29762500D02*
X70512500Y-29712500D01*
X70512500Y-29712500D02*
X76212500Y-29712500D01*
%TO.N,HUB_XI*%
X74037500Y-41562500D02*
X74037500Y-42787500D01*
X74237500Y-40912500D02*
X74037500Y-41562500D01*
%TO.N,LED_SYS_L*%
X44112500Y-42087500D02*
X44112500Y-40962500D01*
X41537500Y-44662500D02*
X44112500Y-42087500D01*
D33*
%TO.N,LP5_A0_A*%
X38137500Y-28312500D02*
X38362500Y-28537500D01*
X37837500Y-27937500D02*
X37912500Y-27937500D01*
X38737500Y-28912500D02*
X38962500Y-29137500D01*
X37637500Y-33287500D02*
X37362500Y-33012500D01*
X39112500Y-33287500D02*
X37637500Y-33287500D01*
X39287500Y-33112500D02*
X39112500Y-33287500D01*
X38137500Y-28162500D02*
X38137500Y-28312500D01*
X38962500Y-29137500D02*
X39112500Y-29137500D01*
X39287500Y-29312500D02*
X39287500Y-33112500D01*
X34987500Y-26787500D02*
X37837500Y-27937500D01*
X39112500Y-29137500D02*
X39287500Y-29312500D01*
X38362500Y-28537500D02*
X38512500Y-28537500D01*
X38737500Y-28762500D02*
X38737500Y-28912500D01*
X37912500Y-27937500D02*
X38137500Y-28162500D01*
X38512500Y-28537500D02*
X38737500Y-28762500D01*
%TO.N,LP5_A1_A*%
X31826449Y-37382022D02*
X31821718Y-36942048D01*
X23937500Y-33112500D02*
X24262500Y-33437500D01*
X32277391Y-37467179D02*
X32712500Y-37462500D01*
X25062500Y-34837500D02*
X25112500Y-34837500D01*
X31910745Y-36851085D02*
X32090735Y-36849150D01*
X24312500Y-33437500D02*
X24737500Y-33862500D01*
X22612500Y-30987500D02*
X22853991Y-31256330D01*
X27912500Y-37362500D02*
X28062500Y-37512500D01*
X23097089Y-32005799D02*
X23224186Y-32012607D01*
X31468405Y-37565883D02*
X31557432Y-37474920D01*
X27912500Y-37337500D02*
X27912500Y-37362500D01*
X23224186Y-32012607D02*
X23328335Y-31919050D01*
X31203044Y-37998761D02*
X31383034Y-37996825D01*
X23234652Y-31156342D02*
X23354940Y-31290248D01*
X31821718Y-36942048D02*
X31910745Y-36851085D01*
X25962500Y-35537500D02*
X26662500Y-36237500D01*
X31112082Y-37909734D02*
X31203044Y-37998761D01*
X23937500Y-32462500D02*
X23937500Y-33112500D01*
X32186428Y-37378151D02*
X32277391Y-37467179D01*
X22976801Y-31871893D02*
X23097089Y-32005799D01*
X23455432Y-31925859D02*
X23937500Y-32462500D01*
X32712500Y-37462500D02*
X32912500Y-37262500D01*
X25512500Y-35262500D02*
X25787500Y-35537500D01*
X27462500Y-36937500D02*
X27512500Y-36937500D01*
X31383034Y-37996825D02*
X31472061Y-37905863D01*
X24737500Y-33862500D02*
X24737500Y-34512500D01*
X31737422Y-37472985D02*
X31826449Y-37382022D01*
X23348131Y-31417345D02*
X22983610Y-31744796D01*
X24262500Y-33437500D02*
X24312500Y-33437500D01*
X31017464Y-37480726D02*
X31108426Y-37569753D01*
X31472061Y-37905863D02*
X31468405Y-37565883D01*
X28062500Y-37512500D02*
X31017464Y-37480726D01*
X31108426Y-37569753D02*
X31112082Y-37909734D01*
X26762500Y-36237500D02*
X27462500Y-36937500D01*
X27512500Y-36937500D02*
X27912500Y-37337500D01*
X22981088Y-31263139D02*
X23107555Y-31149533D01*
X32090735Y-36849150D02*
X32181697Y-36938177D01*
X22983610Y-31744796D02*
X22976801Y-31871893D01*
X23107555Y-31149533D02*
X23234652Y-31156342D01*
X22853991Y-31256330D02*
X22981088Y-31263139D01*
X23354940Y-31290248D02*
X23348131Y-31417345D01*
X31557432Y-37474920D02*
X31737422Y-37472985D01*
X23328335Y-31919050D02*
X23455432Y-31925859D01*
X25112500Y-34837500D02*
X25512500Y-35237500D01*
X24737500Y-34512500D02*
X25062500Y-34837500D01*
X25787500Y-35537500D02*
X25962500Y-35537500D01*
X25512500Y-35237500D02*
X25512500Y-35262500D01*
X26662500Y-36237500D02*
X26762500Y-36237500D01*
X32181697Y-36938177D02*
X32186428Y-37378151D01*
%TO.N,LP5_A2_A*%
X37562500Y-35262500D02*
X37762500Y-35062500D01*
X28937500Y-34712500D02*
X30337500Y-34737500D01*
X37562500Y-35287500D02*
X37562500Y-35262500D01*
X25537500Y-31012500D02*
X25837500Y-31312500D01*
X37762500Y-35062500D02*
X37912500Y-35062500D01*
X38137500Y-34687500D02*
X38362500Y-34462500D01*
X25287500Y-30537500D02*
X25537500Y-31012500D01*
X38662500Y-34462500D02*
X38912500Y-34212500D01*
X25987500Y-31362500D02*
X26662500Y-32037500D01*
X28737500Y-34512500D02*
X28937500Y-34712500D01*
X37912500Y-35062500D02*
X38137500Y-34837500D01*
X37412500Y-35462500D02*
X37537500Y-35337500D01*
X27462500Y-32737500D02*
X27562500Y-32737500D01*
X27562500Y-32737500D02*
X28262500Y-33437500D01*
X26662500Y-32037500D02*
X26762500Y-32037500D01*
X28312500Y-33437500D02*
X28737500Y-33862500D01*
X38362500Y-34462500D02*
X38662500Y-34462500D01*
X37537500Y-35312500D02*
X37562500Y-35287500D01*
X25837500Y-31312500D02*
X25987500Y-31362500D01*
X26762500Y-32037500D02*
X27462500Y-32737500D01*
X37537500Y-35337500D02*
X37537500Y-35312500D01*
X28262500Y-33437500D02*
X28312500Y-33437500D01*
X36962500Y-35462500D02*
X37412500Y-35462500D01*
X38137500Y-34837500D02*
X38137500Y-34687500D01*
X28737500Y-33862500D02*
X28737500Y-34512500D01*
%TO.N,LP5_A3_A*%
X35755000Y-34517500D02*
X35845000Y-34607500D01*
X31418192Y-32816528D02*
X31426362Y-32146578D01*
X29162500Y-31337500D02*
X29862500Y-32037500D01*
X28712500Y-31037500D02*
X28712500Y-31062500D01*
X35845000Y-34607500D02*
X36025000Y-34607500D01*
X31517453Y-32057682D02*
X31912500Y-32062500D01*
X35665000Y-34337500D02*
X35755000Y-34427500D01*
X31147115Y-32903229D02*
X31327101Y-32905424D01*
X29862500Y-32037500D02*
X30977493Y-32051097D01*
X36205000Y-34337500D02*
X36962500Y-34337500D01*
X28312500Y-30637500D02*
X28712500Y-31037500D01*
X31066389Y-32142188D02*
X31058219Y-32812138D01*
X30977493Y-32051097D02*
X31066389Y-32142188D01*
X31912500Y-32062500D02*
X34187500Y-34337500D01*
X27762500Y-30637500D02*
X28312500Y-30637500D01*
X31327101Y-32905424D02*
X31418192Y-32816528D01*
X28987500Y-31337500D02*
X29162500Y-31337500D01*
X31426362Y-32146578D02*
X31517453Y-32057682D01*
X36025000Y-34607500D02*
X36115000Y-34517500D01*
X28712500Y-31062500D02*
X28987500Y-31337500D01*
X31058219Y-32812138D02*
X31147115Y-32903229D01*
X36115000Y-34517500D02*
X36115000Y-34427500D01*
X36115000Y-34427500D02*
X36205000Y-34337500D01*
X35755000Y-34427500D02*
X35755000Y-34517500D01*
X34187500Y-34337500D02*
X35665000Y-34337500D01*
%TO.N,LP5_A5_A*%
X33512033Y-32117525D02*
X33639312Y-32117525D01*
X34784233Y-32932413D02*
X34871897Y-32840136D01*
X29087500Y-30912500D02*
X30087500Y-31337500D01*
X35531936Y-34003599D02*
X35529630Y-33913629D01*
X31512500Y-31362500D02*
X32826140Y-32676140D01*
X32953419Y-32676140D02*
X33512033Y-32117525D01*
X35529630Y-33913629D02*
X35617293Y-33821351D01*
X33766592Y-32372084D02*
X33207977Y-32930698D01*
X34717589Y-33844421D02*
X34805252Y-33752143D01*
X33207977Y-33057977D02*
X34012500Y-33862500D01*
X34871897Y-32840136D02*
X35051838Y-32835522D01*
X33639312Y-32117525D02*
X33766592Y-32244804D01*
X36062500Y-33712500D02*
X37112500Y-33737500D01*
X37112500Y-33737500D02*
X37237500Y-33862500D01*
X35264332Y-34100490D02*
X35444273Y-34095877D01*
X32826140Y-32676140D02*
X32953419Y-32676140D01*
X35444273Y-34095877D02*
X35531936Y-34003599D01*
X35962500Y-33812500D02*
X36062500Y-33712500D01*
X33766592Y-32244804D02*
X33766592Y-32372084D01*
X35144115Y-32923185D02*
X35172055Y-34012827D01*
X33207977Y-32930698D02*
X33207977Y-33057977D01*
X35051838Y-32835522D02*
X35144115Y-32923185D01*
X30087500Y-31337500D02*
X31512500Y-31362500D01*
X39862500Y-33862500D02*
X40112500Y-33612500D01*
X35172055Y-34012827D02*
X35264332Y-34100490D01*
X34012500Y-33862500D02*
X34717589Y-33844421D01*
X37237500Y-33862500D02*
X39862500Y-33862500D01*
X35617293Y-33821351D02*
X35962500Y-33812500D01*
X34805252Y-33752143D02*
X34784233Y-32932413D01*
%TO.N,LP5_CLKN_A*%
X36982398Y-30891535D02*
X36780639Y-31655337D01*
X36744337Y-30735564D02*
X36918368Y-30781534D01*
X36634337Y-30799594D02*
X36744337Y-30735564D01*
X35278392Y-31351604D02*
X35342422Y-31461604D01*
X34562500Y-31162500D02*
X35278392Y-31351604D01*
X35800485Y-31489515D02*
X36322577Y-31627426D01*
X36322577Y-31627426D02*
X36432578Y-31563396D01*
X35690484Y-31553545D02*
X35800485Y-31489515D01*
X36844669Y-31765337D02*
X37212500Y-31862500D01*
X35523277Y-32186541D02*
X35690484Y-31553545D01*
X36780639Y-31655337D02*
X36844669Y-31765337D01*
X35342422Y-31461604D02*
X35175216Y-32094601D01*
X36432578Y-31563396D02*
X36634337Y-30799594D01*
X35239246Y-32204601D02*
X35413277Y-32250572D01*
X36918368Y-30781534D02*
X36982398Y-30891535D01*
X35413277Y-32250572D02*
X35523277Y-32186541D01*
X35175216Y-32094601D02*
X35239246Y-32204601D01*
%TO.N,LP5_CLKP_B*%
X37037500Y-29312500D02*
X37037500Y-30512500D01*
X36712500Y-28937500D02*
X37037500Y-29312500D01*
X37037500Y-30512500D02*
X37437500Y-30912500D01*
%TO.N,LP5_CSN0_A*%
X38737500Y-32687500D02*
X38962500Y-32912500D01*
X37537500Y-28312500D02*
X37737500Y-28512500D01*
X37912500Y-28537500D02*
X38112500Y-28737500D01*
X38712500Y-29337500D02*
X38737500Y-32687500D01*
X38337500Y-29112500D02*
X38512500Y-29137500D01*
X38137500Y-28912500D02*
X38337500Y-29112500D01*
X37187500Y-28312500D02*
X37537500Y-28312500D01*
X38112500Y-28737500D02*
X38137500Y-28912500D01*
X38512500Y-29137500D02*
X38712500Y-29337500D01*
X36862500Y-27987500D02*
X37187500Y-28312500D01*
X37737500Y-28512500D02*
X37912500Y-28537500D01*
%TO.N,LP5_CSN0_B*%
X31450000Y-35362500D02*
X31912500Y-35362500D01*
X30640000Y-35152500D02*
X30640000Y-35272500D01*
X26487500Y-35362500D02*
X30190000Y-35362500D01*
X31912500Y-35362500D02*
X32687500Y-34587500D01*
X31360000Y-35002500D02*
X31360000Y-35272500D01*
X30280000Y-35272500D02*
X30280000Y-35152500D01*
X31090000Y-34912500D02*
X31270000Y-34912500D01*
X30280000Y-35152500D02*
X30370000Y-35062500D01*
X30190000Y-35362500D02*
X30280000Y-35272500D01*
X30640000Y-35272500D02*
X30730000Y-35362500D01*
X30550000Y-35062500D02*
X30640000Y-35152500D01*
X31270000Y-34912500D02*
X31360000Y-35002500D01*
X31360000Y-35272500D02*
X31450000Y-35362500D01*
X30370000Y-35062500D02*
X30550000Y-35062500D01*
X30730000Y-35362500D02*
X30910000Y-35362500D01*
X25887500Y-35112500D02*
X26487500Y-35362500D01*
X31000000Y-35272500D02*
X31000000Y-35002500D01*
X31000000Y-35002500D02*
X31090000Y-34912500D01*
X30910000Y-35362500D02*
X31000000Y-35272500D01*
%TO.N,LP5_CSN1_A*%
X34087500Y-25587500D02*
X34512500Y-25587500D01*
X25062500Y-29062500D02*
X25162500Y-29062500D01*
X26662500Y-27662500D02*
X26762500Y-27662500D01*
X25962500Y-28362500D02*
X26662500Y-27662500D01*
X34512500Y-25587500D02*
X34712500Y-25387500D01*
X23487500Y-30162500D02*
X24387500Y-29737500D01*
X28362500Y-26262500D02*
X29262500Y-25362500D01*
X33862500Y-25362500D02*
X34087500Y-25587500D01*
X28262500Y-26262500D02*
X28362500Y-26262500D01*
X27462500Y-26962500D02*
X27562500Y-26962500D01*
X25162500Y-29062500D02*
X25862500Y-28362500D01*
X27562500Y-26962500D02*
X28262500Y-26262500D01*
X29262500Y-25362500D02*
X33862500Y-25362500D01*
X26762500Y-27662500D02*
X27462500Y-26962500D01*
X25862500Y-28362500D02*
X25962500Y-28362500D01*
X24387500Y-29737500D02*
X25062500Y-29062500D01*
%TO.N,LP5_DMI0_B*%
X36012500Y-40162500D02*
X34037500Y-40087500D01*
X41062500Y-27062500D02*
X39562500Y-25562500D01*
X33987500Y-40112500D02*
X34037500Y-40087500D01*
X39912500Y-38887500D02*
X40137500Y-38662500D01*
X39212500Y-25562500D02*
X38962500Y-25312500D01*
X40537500Y-38462500D02*
X40537500Y-38262500D01*
X40337500Y-38662500D02*
X40537500Y-38462500D01*
X39562500Y-25562500D02*
X39212500Y-25562500D01*
X34037500Y-40087500D02*
X35987500Y-40112500D01*
X39887500Y-39337500D02*
X39912500Y-38887500D01*
X40937500Y-38062500D02*
X41062500Y-37937500D01*
X40537500Y-38262500D02*
X40737500Y-38062500D01*
X40137500Y-38662500D02*
X40337500Y-38662500D01*
X40737500Y-38062500D02*
X40937500Y-38062500D01*
X41062500Y-37937500D02*
X41062500Y-27062500D01*
%TO.N,LP5_DQ10_A*%
X36625115Y-37895984D02*
X36751356Y-38024293D01*
X36178101Y-38083274D02*
X36305376Y-38084309D01*
X31887500Y-33687500D02*
X32437500Y-34237500D01*
X36305376Y-38084309D02*
X36497840Y-37894949D01*
X34764854Y-37958644D02*
X34892129Y-37959679D01*
X33437500Y-34862500D02*
X33462500Y-35437500D01*
X31887500Y-32712500D02*
X31887500Y-33687500D01*
X34639648Y-37703059D02*
X34638613Y-37830334D01*
X29812500Y-28887500D02*
X30337500Y-29612500D01*
X37512500Y-39362500D02*
X37712500Y-39562500D01*
X35168179Y-37056796D02*
X35167144Y-37184071D01*
X34892129Y-37959679D02*
X35419624Y-37440691D01*
X30662500Y-29937500D02*
X30712500Y-29937500D01*
X34638613Y-37830334D02*
X34764854Y-37958644D01*
X34330141Y-37502546D02*
X34914663Y-36927452D01*
X34663218Y-36543557D02*
X34662183Y-36670832D01*
X34914663Y-36927452D02*
X35041938Y-36928486D01*
X36750321Y-38151568D02*
X36557856Y-38340929D01*
X35167144Y-37184071D02*
X34639648Y-37703059D01*
X33462500Y-35437500D02*
X34237500Y-36212500D01*
X30712500Y-29937500D02*
X31287500Y-30512500D01*
X36497840Y-37894949D02*
X36625115Y-37895984D01*
X33437500Y-34862500D02*
X33462500Y-35437500D01*
X35041938Y-36928486D02*
X35168179Y-37056796D01*
X35546899Y-37441726D02*
X36178101Y-38083274D01*
X32437500Y-34237500D02*
X32812500Y-34237500D01*
X36556821Y-38468204D02*
X37387500Y-39312500D01*
X34076626Y-37373202D02*
X34202866Y-37501511D01*
X34662183Y-36670832D02*
X34077661Y-37245927D01*
X36557856Y-38340929D02*
X36556821Y-38468204D01*
X34077661Y-37245927D02*
X34076626Y-37373202D01*
X37387500Y-39337500D02*
X37512500Y-39362500D01*
X30337500Y-29612500D02*
X30662500Y-29937500D01*
X35419624Y-37440691D02*
X35546899Y-37441726D01*
X32812500Y-34237500D02*
X33437500Y-34862500D01*
X36751356Y-38024293D02*
X36750321Y-38151568D01*
X34202866Y-37501511D02*
X34330141Y-37502546D01*
X34237500Y-36212500D02*
X34337500Y-36212500D01*
X34337500Y-36212500D02*
X34663218Y-36543557D01*
X37387500Y-39312500D02*
X37387500Y-39337500D01*
%TO.N,LP5_DQ11_B*%
X19662500Y-35062500D02*
X18662500Y-34062500D01*
X20062500Y-36762500D02*
X19712500Y-36412500D01*
X19712500Y-36412500D02*
X19662500Y-35062500D01*
X20487500Y-37087500D02*
X20187500Y-36787500D01*
X20187500Y-36787500D02*
X20062500Y-36762500D01*
X21012500Y-37887500D02*
X20487500Y-37087500D01*
%TO.N,LP5_DQ13_B*%
X38062500Y-26362500D02*
X38062500Y-26662500D01*
X38662500Y-25187500D02*
X38662500Y-25912500D01*
X38437500Y-26137500D02*
X38287500Y-26137500D01*
X38512500Y-25037500D02*
X38662500Y-25187500D01*
X38062500Y-26662500D02*
X37812500Y-26912500D01*
X38312500Y-25037500D02*
X38512500Y-25037500D01*
X38137500Y-24862500D02*
X38312500Y-25037500D01*
X38287500Y-26137500D02*
X38062500Y-26362500D01*
X38662500Y-25912500D02*
X38437500Y-26137500D01*
X37812500Y-24312500D02*
X38137500Y-24662500D01*
X38137500Y-24662500D02*
X38137500Y-24862500D01*
%TO.N,LP5_DQ15_A*%
X27587500Y-31362500D02*
X28262500Y-32037500D01*
X27437500Y-31312500D02*
X27587500Y-31362500D01*
X29062500Y-32737500D02*
X29162500Y-32737500D01*
X30662500Y-34137500D02*
X31337500Y-34237500D01*
X29162500Y-32737500D02*
X29862500Y-33437500D01*
X27362500Y-29587500D02*
X27137500Y-30087500D01*
X29962500Y-33437500D02*
X30662500Y-34137500D01*
X29862500Y-33437500D02*
X29962500Y-33437500D01*
X27137500Y-31012500D02*
X27437500Y-31312500D01*
X28262500Y-32037500D02*
X28362500Y-32037500D01*
X31337500Y-34237500D02*
X31487500Y-34387500D01*
X28362500Y-32037500D02*
X29062500Y-32737500D01*
X27137500Y-30087500D02*
X27137500Y-31012500D01*
%TO.N,LP5_DQ15_B*%
X37962500Y-25037500D02*
X38112500Y-25187500D01*
X37587500Y-26137500D02*
X37362500Y-26362500D01*
X37762500Y-25037500D02*
X37962500Y-25037500D01*
X38112500Y-25187500D02*
X38087500Y-25887500D01*
X37587500Y-24662500D02*
X37587500Y-24862500D01*
X37337500Y-24312500D02*
X37587500Y-24662500D01*
X37837500Y-26137500D02*
X37587500Y-26137500D01*
X37587500Y-24862500D02*
X37762500Y-25037500D01*
X38087500Y-25887500D02*
X37837500Y-26137500D01*
%TO.N,LP5_DQ4_A*%
X38662500Y-41612500D02*
X38712500Y-36312500D01*
X38712500Y-36312500D02*
X38962500Y-36062500D01*
%TO.N,LP5_DQ5_A*%
X33396435Y-39412361D02*
X33476798Y-39313661D01*
X33002651Y-39100858D02*
X33101352Y-39181221D01*
X36737500Y-39037500D02*
X36737500Y-39137500D01*
X36412500Y-38712500D02*
X36737500Y-39037500D01*
X33539841Y-39045845D02*
X36062500Y-38787500D01*
X31912500Y-39212500D02*
X33002651Y-39100858D01*
X33217371Y-39430699D02*
X33396435Y-39412361D01*
X36137500Y-38712500D02*
X36412500Y-38712500D01*
X33459479Y-39144545D02*
X33539841Y-39045845D01*
X36112500Y-38737500D02*
X36137500Y-38712500D01*
X33118671Y-39350336D02*
X33217371Y-39430699D01*
X36062500Y-38787500D02*
X36112500Y-38737500D01*
X33476798Y-39313661D02*
X33459479Y-39144545D01*
X33101352Y-39181221D02*
X33118671Y-39350336D01*
%TO.N,LP5_DQ6_B*%
X36662500Y-25062500D02*
X36412500Y-25312500D01*
X36037500Y-24012500D02*
X36512500Y-24012500D01*
X36512500Y-24012500D02*
X36687500Y-24187500D01*
X32387500Y-30337500D02*
X32387500Y-27337500D01*
X36687500Y-24187500D02*
X36662500Y-25062500D01*
%TO.N,LP5_DQ7_A*%
X32247500Y-38862500D02*
X32987500Y-38862500D01*
X23462500Y-32737500D02*
X23512500Y-32737500D01*
X31077500Y-38532500D02*
X31167500Y-38442500D01*
X26712500Y-37637500D02*
X27112500Y-38037500D01*
X31707500Y-38862500D02*
X31797500Y-38772500D01*
X31797500Y-38532500D02*
X31887500Y-38442500D01*
X25162500Y-35537500D02*
X25862500Y-36237500D01*
X26662500Y-37637500D02*
X26712500Y-37637500D01*
X31437500Y-38772500D02*
X31527500Y-38862500D01*
X23512500Y-32737500D02*
X23712500Y-32937500D01*
X31167500Y-38442500D02*
X31347500Y-38442500D01*
X24512500Y-34337500D02*
X24537500Y-35012500D01*
X32987500Y-38862500D02*
X33187500Y-38662500D01*
X22562500Y-29587500D02*
X22287500Y-30162500D01*
X26337500Y-37312500D02*
X26662500Y-37637500D01*
X31077500Y-38772500D02*
X31077500Y-38532500D01*
X27112500Y-38037500D02*
X27112500Y-38062500D01*
X24262500Y-34137500D02*
X24312500Y-34137500D01*
X25862500Y-36237500D02*
X25912500Y-36237500D01*
X22662500Y-32037500D02*
X22762500Y-32037500D01*
X27387500Y-38337500D02*
X27562500Y-38337500D01*
X27112500Y-38062500D02*
X27387500Y-38337500D01*
X22762500Y-32037500D02*
X23462500Y-32737500D01*
X31887500Y-38442500D02*
X32067500Y-38442500D01*
X22287500Y-31662500D02*
X22662500Y-32037500D01*
X32067500Y-38442500D02*
X32157500Y-38532500D01*
X24312500Y-34137500D02*
X24512500Y-34337500D01*
X31797500Y-38772500D02*
X31797500Y-38532500D01*
X31527500Y-38862500D02*
X31707500Y-38862500D01*
X26337500Y-36662500D02*
X26337500Y-37312500D01*
X32157500Y-38772500D02*
X32247500Y-38862500D01*
X25912500Y-36237500D02*
X26337500Y-36662500D01*
X25062500Y-35537500D02*
X25162500Y-35537500D01*
X31347500Y-38442500D02*
X31437500Y-38532500D01*
X28087500Y-38862500D02*
X30987500Y-38862500D01*
X22287500Y-30162500D02*
X22287500Y-31662500D01*
X23737500Y-33612500D02*
X24262500Y-34137500D01*
X24537500Y-35012500D02*
X25062500Y-35537500D01*
X23712500Y-32937500D02*
X23737500Y-33612500D01*
X32157500Y-38532500D02*
X32157500Y-38772500D01*
X31437500Y-38532500D02*
X31437500Y-38772500D01*
X30987500Y-38862500D02*
X31077500Y-38772500D01*
X27562500Y-38337500D02*
X28087500Y-38862500D01*
%TO.N,LP5_DQ8_A*%
X34022247Y-34746896D02*
X33865088Y-34900847D01*
X33266485Y-33975388D02*
X33145044Y-34094351D01*
X36034081Y-36884081D02*
X37037500Y-37887500D01*
X32073412Y-30036351D02*
X31743908Y-30204658D01*
X30864378Y-29340120D02*
X30985467Y-29379330D01*
X31704698Y-30325748D02*
X31950336Y-30806645D01*
X31131415Y-29709026D02*
X31092205Y-29830115D01*
X35565114Y-37098490D02*
X35692393Y-37098490D01*
X35906802Y-36884081D02*
X36034081Y-36884081D01*
X33989737Y-35156704D02*
X34117009Y-35158016D01*
X31858334Y-28428171D02*
X31819124Y-28549260D01*
X31776455Y-28267872D02*
X31858334Y-28428171D01*
X33143732Y-34221623D02*
X33269692Y-34350208D01*
X35492368Y-34818623D02*
X35619641Y-34819935D01*
X31911127Y-30927734D02*
X31759733Y-31005064D01*
X35619641Y-34819935D02*
X35745601Y-34948520D01*
X32030742Y-29754963D02*
X32112622Y-29915262D01*
X32195974Y-31287542D02*
X32387500Y-31662500D01*
X35412500Y-36262500D02*
X35652244Y-36502244D01*
X32075398Y-29226847D02*
X31131415Y-29709026D01*
X30782499Y-29179821D02*
X30864378Y-29340120D01*
X35744289Y-35075792D02*
X35158515Y-35649612D01*
X31802403Y-31286452D02*
X31923492Y-31325662D01*
X31655366Y-28228662D02*
X31776455Y-28267872D01*
X32512500Y-33162500D02*
X33012500Y-33587500D01*
X33645678Y-34233870D02*
X34023559Y-34619623D01*
X31295173Y-30029624D02*
X31909653Y-29715753D01*
X32032728Y-28945459D02*
X32114608Y-29105758D01*
X31720523Y-31126153D02*
X31802403Y-31286452D01*
X34918986Y-34876355D02*
X34368930Y-35415185D01*
X30821708Y-29058732D02*
X30782499Y-29179821D01*
X31743908Y-30204658D02*
X31704698Y-30325748D01*
X37037500Y-37887500D02*
X37037500Y-38187500D01*
X31923492Y-31325662D02*
X32074885Y-31248332D01*
X30804026Y-28562458D02*
X30925115Y-28601668D01*
X34920298Y-34749082D02*
X34918986Y-34876355D01*
X31819124Y-28549260D02*
X30821708Y-29058732D01*
X31911639Y-28906249D02*
X32032728Y-28945459D01*
X35157203Y-35776884D02*
X35412500Y-36037500D01*
X34023559Y-34619623D02*
X34022247Y-34746896D01*
X33865088Y-34900847D02*
X33863776Y-35028120D01*
X30925115Y-28601668D02*
X31655366Y-28228662D01*
X33267797Y-33848116D02*
X33266485Y-33975388D01*
X32074885Y-31248332D02*
X32195974Y-31287542D01*
X31759733Y-31005064D02*
X31720523Y-31126153D01*
X32114608Y-29105758D02*
X32075398Y-29226847D01*
X33145044Y-34094351D02*
X33143732Y-34221623D01*
X34368930Y-35415185D02*
X34367618Y-35542458D01*
X35412500Y-36037500D02*
X35412500Y-36262500D01*
X30985467Y-29379330D02*
X31911639Y-28906249D01*
X31950336Y-30806645D02*
X31911127Y-30927734D01*
X33863776Y-35028120D02*
X33989737Y-35156704D01*
X37037500Y-38187500D02*
X37262500Y-38412500D01*
X35437835Y-36971211D02*
X35565114Y-37098490D01*
X35652244Y-36629523D02*
X35437835Y-36843932D01*
X34367618Y-35542458D02*
X34493578Y-35671042D01*
X32387500Y-31662500D02*
X32387500Y-31737500D01*
X35158515Y-35649612D02*
X35157203Y-35776884D01*
X31092205Y-29830115D02*
X31174084Y-29990414D01*
X34117009Y-35158016D02*
X34667065Y-34619186D01*
X35652244Y-36502244D02*
X35652244Y-36629523D01*
X35437835Y-36843932D02*
X35437835Y-36971211D01*
X33269692Y-34350208D02*
X33396965Y-34351520D01*
X35692393Y-37098490D02*
X35906802Y-36884081D01*
X34493578Y-35671042D02*
X34620851Y-35672354D01*
X31174084Y-29990414D02*
X31295173Y-30029624D01*
X35745601Y-34948520D02*
X35744289Y-35075792D01*
X33518406Y-34232557D02*
X33645678Y-34233870D01*
X34794338Y-34620498D02*
X34920298Y-34749082D01*
X32112622Y-29915262D02*
X32073412Y-30036351D01*
X33012500Y-33587500D02*
X33267797Y-33848116D01*
X34667065Y-34619186D02*
X34794338Y-34620498D01*
X34620851Y-35672354D02*
X35492368Y-34818623D01*
X30612500Y-28187500D02*
X30804026Y-28562458D01*
X33396965Y-34351520D02*
X33518406Y-34232557D01*
X31909653Y-29715753D02*
X32030742Y-29754963D01*
%TO.N,LP5_RDQS0N_A*%
X29590052Y-40754385D02*
X29770037Y-40756663D01*
X32469821Y-40790837D02*
X32649807Y-40793116D01*
X22062500Y-27962500D02*
X22062500Y-31220000D01*
X32031375Y-39875214D02*
X32122507Y-39786361D01*
X35722219Y-39831927D02*
X36162500Y-39837500D01*
X23137500Y-33812500D02*
X23462500Y-34137500D01*
X30489980Y-40765776D02*
X30581112Y-40676922D01*
X34193481Y-39722568D02*
X34282334Y-39813700D01*
X29861169Y-40667809D02*
X29871548Y-39847875D01*
X26112500Y-37137500D02*
X26137500Y-37812500D01*
X28262500Y-39737500D02*
X29422723Y-39752186D01*
X37912500Y-39887500D02*
X38087500Y-39712500D01*
X31671404Y-39870658D02*
X31661025Y-40690592D01*
X34282334Y-39813700D02*
X35182262Y-39825092D01*
X33838825Y-39298046D02*
X33929957Y-39209192D01*
X35273394Y-39736238D02*
X35280862Y-39146286D01*
X29501198Y-40663253D02*
X29590052Y-40754385D01*
X32302493Y-39788639D02*
X32391346Y-39879771D01*
X37537500Y-37462500D02*
X36937500Y-36862500D01*
X21292500Y-31580000D02*
X21382500Y-31670000D01*
X31749879Y-40781724D02*
X31929864Y-40784002D01*
X31582550Y-39779526D02*
X31671404Y-39870658D01*
X31311433Y-39866101D02*
X31402565Y-39777248D01*
X25912500Y-36937500D02*
X26112500Y-37137500D01*
X31209922Y-40774889D02*
X31301054Y-40686036D01*
X27562500Y-39037500D02*
X28262500Y-39737500D01*
X32122507Y-39786361D02*
X32302493Y-39788639D01*
X23462500Y-34137500D02*
X23512500Y-34137500D01*
X26762500Y-38337500D02*
X27462500Y-39037500D01*
X33369749Y-40802229D02*
X33460881Y-40713375D01*
X30951462Y-39861545D02*
X30941083Y-40681479D01*
X34198797Y-39302602D02*
X34193481Y-39722568D01*
X32380968Y-40699705D02*
X32469821Y-40790837D01*
X33111289Y-39888884D02*
X33100910Y-40708819D01*
X23937500Y-35212500D02*
X24262500Y-35537500D01*
X22712500Y-32737500D02*
X23137500Y-33162500D01*
X25062500Y-36237500D02*
X25162500Y-36237500D01*
X23512500Y-34137500D02*
X23937500Y-34562500D01*
X33562392Y-39804587D02*
X33742377Y-39806866D01*
X29770037Y-40756663D02*
X29861169Y-40667809D01*
X26662500Y-38337500D02*
X26762500Y-38337500D01*
X33189763Y-40799951D02*
X33369749Y-40802229D01*
X30142666Y-39761300D02*
X30231519Y-39852432D01*
X29962680Y-39759021D02*
X30142666Y-39761300D01*
X31029937Y-40772611D02*
X31209922Y-40774889D01*
X22062500Y-31760000D02*
X22062500Y-32137500D01*
X33022435Y-39797752D02*
X33111289Y-39888884D01*
X21972500Y-31670000D02*
X22062500Y-31760000D01*
X32391346Y-39879771D02*
X32380968Y-40699705D01*
X35633365Y-39740795D02*
X35722219Y-39831927D01*
X32649807Y-40793116D02*
X32740939Y-40704262D01*
X23137500Y-33162500D02*
X23137500Y-33812500D01*
X32740939Y-40704262D02*
X32751318Y-39884328D01*
X29871548Y-39847875D02*
X29962680Y-39759021D01*
X37537500Y-39887500D02*
X37912500Y-39887500D01*
X33742377Y-39806866D02*
X33833509Y-39718012D01*
X30682623Y-39768134D02*
X30862608Y-39770413D01*
X22062500Y-32137500D02*
X22662500Y-32737500D01*
X31301054Y-40686036D02*
X31311433Y-39866101D01*
X33471260Y-39893441D02*
X33562392Y-39804587D01*
X35280862Y-39146286D02*
X35371994Y-39057432D01*
X35182262Y-39825092D02*
X35273394Y-39736238D01*
X22062500Y-31220000D02*
X21972500Y-31310000D01*
X24362500Y-35537500D02*
X25062500Y-36237500D01*
X30862608Y-39770413D02*
X30951462Y-39861545D01*
X38087500Y-37712500D02*
X37837500Y-37462500D01*
X30581112Y-40676922D02*
X30591491Y-39856988D01*
X33460881Y-40713375D02*
X33471260Y-39893441D01*
X36937500Y-36862500D02*
X36937500Y-36587500D01*
X30231519Y-39852432D02*
X30221141Y-40672366D01*
X30941083Y-40681479D02*
X31029937Y-40772611D01*
X35371994Y-39057432D02*
X35551979Y-39059710D01*
X35640833Y-39150842D02*
X35633365Y-39740795D01*
X34109943Y-39211470D02*
X34198797Y-39302602D01*
X31402565Y-39777248D02*
X31582550Y-39779526D01*
X30591491Y-39856988D02*
X30682623Y-39768134D01*
X36162500Y-39837500D02*
X37537500Y-39887500D01*
X25162500Y-36237500D02*
X25862500Y-36937500D01*
X29422723Y-39752186D02*
X29511577Y-39843318D01*
X21972500Y-31310000D02*
X21382500Y-31310000D01*
X32751318Y-39884328D02*
X32842450Y-39795474D01*
X35551979Y-39059710D02*
X35640833Y-39150842D01*
X32842450Y-39795474D02*
X33022435Y-39797752D01*
X30221141Y-40672366D02*
X30309994Y-40763498D01*
X33100910Y-40708819D02*
X33189763Y-40799951D01*
X23937500Y-34562500D02*
X23937500Y-35212500D01*
X21292500Y-31400000D02*
X21292500Y-31580000D01*
X21382500Y-31670000D02*
X21972500Y-31670000D01*
X21382500Y-31310000D02*
X21292500Y-31400000D01*
X26137500Y-37812500D02*
X26662500Y-38337500D01*
X27462500Y-39037500D02*
X27562500Y-39037500D01*
X24262500Y-35537500D02*
X24362500Y-35537500D01*
X38087500Y-39712500D02*
X38087500Y-37712500D01*
X37837500Y-37462500D02*
X37537500Y-37462500D01*
X32020996Y-40695149D02*
X32031375Y-39875214D01*
X29511577Y-39843318D02*
X29501198Y-40663253D01*
X30309994Y-40763498D02*
X30489980Y-40765776D01*
X31929864Y-40784002D02*
X32020996Y-40695149D01*
X33929957Y-39209192D02*
X34109943Y-39211470D01*
X25862500Y-36937500D02*
X25912500Y-36937500D01*
X22662500Y-32737500D02*
X22712500Y-32737500D01*
X31661025Y-40690592D02*
X31749879Y-40781724D01*
X33833509Y-39718012D02*
X33838825Y-39298046D01*
X21812500Y-27487500D02*
X22062500Y-27962500D01*
%TO.N,LP5_RDQS0P_A*%
X42112500Y-38337500D02*
X42137500Y-38362500D01*
X42137500Y-38612500D02*
X41512500Y-39237500D01*
X39762500Y-39712500D02*
X39287500Y-39237500D01*
X39287500Y-39237500D02*
X39287500Y-35887500D01*
X39012500Y-23887500D02*
X41812500Y-26687500D01*
X41512500Y-39237500D02*
X40612500Y-39262500D01*
X37012500Y-35862500D02*
X36737500Y-35862500D01*
X40612500Y-39262500D02*
X40162500Y-39712500D01*
X39287500Y-35887500D02*
X39112500Y-35712500D01*
X41812500Y-26687500D02*
X41812500Y-38037500D01*
X37162500Y-35712500D02*
X37012500Y-35862500D01*
X40162500Y-39712500D02*
X39762500Y-39712500D01*
X42137500Y-38362500D02*
X42137500Y-38612500D01*
X39112500Y-35712500D02*
X37162500Y-35712500D01*
X41812500Y-38037500D02*
X42112500Y-38337500D01*
%TO.N,LP5_RDQS0P_B*%
X37912500Y-32062500D02*
X38062500Y-31912500D01*
X38062500Y-31912500D02*
X38062500Y-29287500D01*
X38062500Y-29287500D02*
X37837500Y-29062500D01*
X37837500Y-29062500D02*
X37687500Y-29062500D01*
X36687500Y-33087500D02*
X37737500Y-32062500D01*
X37312500Y-28687500D02*
X37312500Y-28662500D01*
X37687500Y-29062500D02*
X37312500Y-28687500D01*
X37737500Y-32062500D02*
X37912500Y-32062500D01*
%TO.N,LP5_RDQS1N_A*%
X28287500Y-27362500D02*
X29312500Y-26962500D01*
X33287500Y-26887500D02*
X33437500Y-26737500D01*
X29312500Y-26962500D02*
X33287500Y-26887500D01*
%TO.N,LP5_RDQS1P_A*%
X29087500Y-26662500D02*
X30312500Y-26187500D01*
X30312500Y-26187500D02*
X33012500Y-26187500D01*
%TO.N,LP5_WCK0N_A*%
X30285000Y-23577500D02*
X30195000Y-23487500D01*
X25962500Y-27662500D02*
X26662500Y-26962500D01*
X34280000Y-23892500D02*
X34190000Y-23982500D01*
X33560000Y-23742500D02*
X33470000Y-23832500D01*
X31815000Y-24337500D02*
X31725000Y-24427500D01*
X28928051Y-25321213D02*
X29055330Y-25193934D01*
X34190000Y-23982500D02*
X34190000Y-24172500D01*
X31725000Y-24427500D02*
X31725000Y-25047500D01*
X28722990Y-24607035D02*
X28850269Y-24479756D01*
X27959315Y-25497990D02*
X28079523Y-25618198D01*
X28079523Y-25618198D02*
X28206802Y-25618198D01*
X27704756Y-25752548D02*
X27704756Y-25625269D01*
X32262500Y-24262500D02*
X32187500Y-24337500D01*
X31005000Y-23577500D02*
X31005000Y-24247500D01*
X29097756Y-24599964D02*
X29225036Y-24599964D01*
X31365000Y-23577500D02*
X31275000Y-23487500D01*
X31725000Y-25047500D02*
X31635000Y-25137500D01*
X33470000Y-23832500D02*
X33470000Y-24172500D01*
X26762500Y-26962500D02*
X27462500Y-26262500D01*
X31005000Y-24247500D02*
X30915000Y-24337500D01*
X22687500Y-28062500D02*
X23712500Y-27662500D01*
X29055330Y-25066655D02*
X28722990Y-24734315D01*
X23712500Y-27662500D02*
X25962500Y-27662500D01*
X33830000Y-24172500D02*
X33830000Y-23832500D01*
X27704756Y-25625269D02*
X27832035Y-25497990D01*
X29925000Y-24247500D02*
X29835000Y-24337500D01*
X31635000Y-25137500D02*
X31455000Y-25137500D01*
X28850269Y-24479756D02*
X28977548Y-24479756D01*
X32660000Y-24262500D02*
X32262500Y-24262500D01*
X27824964Y-26000036D02*
X27824964Y-25872756D01*
X29055330Y-25193934D02*
X29055330Y-25066655D01*
X35037500Y-24262500D02*
X34640000Y-24262500D01*
X34640000Y-24262500D02*
X34550000Y-24172500D01*
X30195000Y-23487500D02*
X30015000Y-23487500D01*
X28334081Y-25490919D02*
X28334081Y-25363640D01*
X30015000Y-23487500D02*
X29925000Y-23577500D01*
X32840000Y-23492500D02*
X32750000Y-23582500D01*
X28334081Y-25363640D02*
X28213873Y-25243431D01*
X31095000Y-23487500D02*
X31005000Y-23577500D01*
X35037500Y-24312500D02*
X35887500Y-23462500D01*
X28341152Y-24988873D02*
X28468431Y-24988873D01*
X28468431Y-24988873D02*
X28800772Y-25321213D01*
X27824964Y-25872756D02*
X27704756Y-25752548D01*
X33470000Y-24172500D02*
X33380000Y-24262500D01*
X29225036Y-24599964D02*
X29487500Y-24337500D01*
X28213873Y-25243431D02*
X28213873Y-25116152D01*
X30285000Y-24247500D02*
X30285000Y-23577500D01*
X34190000Y-24172500D02*
X34100000Y-24262500D01*
X30375000Y-24337500D02*
X30285000Y-24247500D01*
X33920000Y-24262500D02*
X33830000Y-24172500D01*
X33200000Y-24262500D02*
X33110000Y-24172500D01*
X29925000Y-23577500D02*
X29925000Y-24247500D01*
X28213873Y-25116152D02*
X28341152Y-24988873D01*
X27832035Y-25497990D02*
X27959315Y-25497990D01*
X33830000Y-23832500D02*
X33740000Y-23742500D01*
X31455000Y-25137500D02*
X31365000Y-25047500D01*
X34460000Y-23892500D02*
X34280000Y-23892500D01*
X32750000Y-24172500D02*
X32660000Y-24262500D01*
X28800772Y-25321213D02*
X28928051Y-25321213D01*
X30915000Y-24337500D02*
X30375000Y-24337500D01*
X33740000Y-23742500D02*
X33560000Y-23742500D01*
X28977548Y-24479756D02*
X29097756Y-24599964D01*
X28206802Y-25618198D02*
X28334081Y-25490919D01*
X31275000Y-23487500D02*
X31095000Y-23487500D01*
X29835000Y-24337500D02*
X29462500Y-24337500D01*
X26662500Y-26962500D02*
X26762500Y-26962500D01*
X27462500Y-26262500D02*
X27562500Y-26262500D01*
X34550000Y-24172500D02*
X34550000Y-23982500D01*
X34100000Y-24262500D02*
X33920000Y-24262500D01*
X31365000Y-25047500D02*
X31365000Y-23577500D01*
X34550000Y-23982500D02*
X34460000Y-23892500D01*
X32750000Y-23582500D02*
X32750000Y-24172500D01*
X28722990Y-24734315D02*
X28722990Y-24607035D01*
X32187500Y-24337500D02*
X31815000Y-24337500D01*
X27562500Y-26262500D02*
X27824964Y-26000036D01*
X33110000Y-23582500D02*
X33020000Y-23492500D01*
X33020000Y-23492500D02*
X32840000Y-23492500D01*
X33110000Y-24172500D02*
X33110000Y-23582500D01*
X33380000Y-24262500D02*
X33200000Y-24262500D01*
%TO.N,LP5_WCK0N_B*%
X35762500Y-38562500D02*
X35937500Y-38387500D01*
X27487500Y-37912500D02*
X28237500Y-38237500D01*
X34687500Y-38237500D02*
X35037500Y-38587500D01*
X35037500Y-38587500D02*
X35762500Y-38562500D01*
X28237500Y-38237500D02*
X34687500Y-38237500D01*
%TO.N,LP5_WCK0P_A*%
X24362500Y-26262500D02*
X27687500Y-22937500D01*
X24262500Y-26262500D02*
X24362500Y-26262500D01*
X21487500Y-28462500D02*
X21487500Y-27262500D01*
X33287500Y-22737500D02*
X33487500Y-22937500D01*
X23562500Y-26962500D02*
X24262500Y-26262500D01*
X27687500Y-22937500D02*
X32362500Y-22912500D01*
X32562500Y-22712500D02*
X33287500Y-22737500D01*
X21487500Y-27262500D02*
X21787500Y-26962500D01*
X21787500Y-26962500D02*
X23562500Y-26962500D01*
X32362500Y-22912500D02*
X32562500Y-22712500D01*
%TO.N,LP5_WCK0P_B*%
X31277907Y-35812024D02*
X31569302Y-36103419D01*
X31023349Y-36066582D02*
X31023349Y-35939303D01*
X29312500Y-36762500D02*
X31037500Y-36762500D01*
X31023349Y-35939303D02*
X31150628Y-35812024D01*
X31037500Y-36762500D02*
X31314744Y-36485256D01*
X31314744Y-36485256D02*
X31314744Y-36357977D01*
X31569302Y-36103419D02*
X31696581Y-36103419D01*
X31314744Y-36357977D02*
X31023349Y-36066582D01*
X31696581Y-36103419D02*
X32737500Y-35062500D01*
X31150628Y-35812024D02*
X31277907Y-35812024D01*
X28287500Y-37162500D02*
X29312500Y-36762500D01*
%TO.N,LP5_WCK1N_A*%
X28712500Y-26562500D02*
X28712500Y-26537500D01*
X29612500Y-26162500D02*
X30887500Y-25712500D01*
X27412500Y-27987500D02*
X27887500Y-27262500D01*
X38937500Y-28512500D02*
X39112500Y-28537500D01*
X28712500Y-26537500D02*
X28962500Y-26287500D01*
X39537500Y-29112500D02*
X39712500Y-29137500D01*
X40487500Y-37437500D02*
X40212500Y-37712500D01*
X39962500Y-30587500D02*
X40487500Y-31112500D01*
X37312500Y-27337500D02*
X37912500Y-27337500D01*
X38337500Y-27912500D02*
X38512500Y-27937500D01*
X37037500Y-27062500D02*
X37312500Y-27337500D01*
X39337500Y-28912500D02*
X39537500Y-29112500D01*
X39912500Y-29337500D02*
X39962500Y-30587500D01*
X28187500Y-26962500D02*
X28312500Y-26962500D01*
X27887500Y-27262500D02*
X28187500Y-26962500D01*
X36862500Y-26237500D02*
X37037500Y-27062500D01*
X38137500Y-27712500D02*
X38337500Y-27912500D01*
X38737500Y-28312500D02*
X38937500Y-28512500D01*
X39312500Y-28737500D02*
X39337500Y-28912500D01*
X38112500Y-27537500D02*
X38137500Y-27712500D01*
X40487500Y-31112500D02*
X40487500Y-37437500D01*
X38512500Y-27937500D02*
X38712500Y-28137500D01*
X39712500Y-29137500D02*
X39912500Y-29337500D01*
X39112500Y-28537500D02*
X39312500Y-28737500D01*
X28962500Y-26287500D02*
X29612500Y-26162500D01*
X28312500Y-26962500D02*
X28712500Y-26562500D01*
X38712500Y-28137500D02*
X38737500Y-28312500D01*
X37912500Y-27337500D02*
X38112500Y-27537500D01*
X30887500Y-25712500D02*
X32962500Y-25712500D01*
%TO.N,LP5_WCK1N_B*%
X25962500Y-26962500D02*
X26662500Y-26262500D01*
X26662500Y-26262500D02*
X26762500Y-26262500D01*
X40262500Y-27912500D02*
X39837500Y-27987500D01*
X36737500Y-22937500D02*
X37087500Y-22587500D01*
X26762500Y-26262500D02*
X29737500Y-23287500D01*
X32712500Y-23287500D02*
X29712500Y-23287500D01*
X37087500Y-22587500D02*
X37887500Y-22562500D01*
X39837500Y-27987500D02*
X39662500Y-28162500D01*
X34712500Y-22962500D02*
X36737500Y-22937500D01*
X34387500Y-23262500D02*
X32712500Y-23287500D01*
X40537500Y-27287500D02*
X40462500Y-27712500D01*
X24637500Y-26962500D02*
X25962500Y-26962500D01*
X34387500Y-23287500D02*
X34712500Y-22962500D01*
X37887500Y-22562500D02*
X37987500Y-22462500D01*
X40462500Y-27712500D02*
X40262500Y-27912500D01*
%TO.N,LP5_WCK1P_B*%
X22337500Y-38037500D02*
X22637500Y-38337500D01*
X23362500Y-38962500D02*
X23712500Y-38962500D01*
X22737500Y-38337500D02*
X23362500Y-38962500D01*
X21812500Y-37212500D02*
X22337500Y-38037500D01*
X22637500Y-38337500D02*
X22737500Y-38337500D01*
D32*
%TO.N,M2_LED_A*%
X65712500Y-40387500D02*
X67887500Y-40087500D01*
%TO.N,M2_LED_L*%
X5762500Y-52987500D02*
X19512500Y-53612500D01*
X51562500Y-53162500D02*
X51637500Y-53237500D01*
X50787500Y-53137500D02*
X51562500Y-53162500D01*
X50237500Y-53287500D02*
X50787500Y-53137500D01*
X61362500Y-53212500D02*
X73262500Y-51037500D01*
%TO.N,OSC_24M_IN*%
X57212500Y-41537500D02*
X52412500Y-35312500D01*
X52412500Y-33862500D02*
X52162500Y-33612500D01*
X52412500Y-35312500D02*
X52412500Y-33862500D01*
X57212500Y-41562500D02*
X57187500Y-41512500D01*
%TO.N,PCIE0_CLKREQ_L*%
X61862500Y-41787500D02*
X60312500Y-41737500D01*
X36712500Y-44112500D02*
X36837500Y-41187500D01*
X70137500Y-41362500D02*
X62237500Y-41412500D01*
X37112500Y-47062500D02*
X36712500Y-44112500D01*
X62237500Y-41412500D02*
X61862500Y-41787500D01*
X36837500Y-41187500D02*
X37762500Y-40262500D01*
X60312500Y-41737500D02*
X58912500Y-42012500D01*
X76337500Y-45712500D02*
X73537500Y-42812500D01*
X73537500Y-42812500D02*
X73537500Y-40087500D01*
X71737500Y-40862500D02*
X70137500Y-41362500D01*
%TO.N,PCIE0_PERST_L*%
X53362500Y-41487500D02*
X53837500Y-41487500D01*
X35662500Y-43487500D02*
X35662500Y-45387500D01*
X51437500Y-43587500D02*
X51437500Y-43387500D01*
X49237500Y-45537500D02*
X50712500Y-44312500D01*
X50712500Y-44312500D02*
X51437500Y-43587500D01*
X36687500Y-40837500D02*
X35662500Y-43487500D01*
X51437500Y-43387500D02*
X53362500Y-41487500D01*
D34*
%TO.N,PCIE0_REFCLKN*%
X71737500Y-40125362D02*
X71867500Y-39995362D01*
X73557500Y-39687500D02*
X74112500Y-39687500D01*
X71217500Y-39687500D02*
X71347500Y-39817500D01*
X72517500Y-40687500D02*
X72777500Y-40687500D01*
X72777500Y-40687500D02*
X72907500Y-40557500D01*
X71347500Y-39817500D02*
X71347500Y-39995362D01*
X74112500Y-39687500D02*
X74562500Y-40137500D01*
X60262500Y-39687500D02*
X71217500Y-39687500D01*
X71997500Y-38687500D02*
X72257500Y-38687500D01*
X72907500Y-40557500D02*
X72907500Y-38817500D01*
X72387500Y-40557500D02*
X72517500Y-40687500D01*
X73297500Y-38687500D02*
X73427500Y-38817500D01*
X59887500Y-39312500D02*
X60262500Y-39687500D01*
X72387500Y-38817500D02*
X72387500Y-40557500D01*
X73037500Y-38687500D02*
X73297500Y-38687500D01*
X57487500Y-39037500D02*
X59887500Y-39312500D01*
X73427500Y-38817500D02*
X73427500Y-39557500D01*
X71867500Y-39995362D02*
X71867500Y-38817500D01*
X71867500Y-38817500D02*
X71997500Y-38687500D01*
X73427500Y-39557500D02*
X73557500Y-39687500D01*
X71347500Y-39995362D02*
X71477500Y-40125362D01*
X71477500Y-40125362D02*
X71737500Y-40125362D01*
X72257500Y-38687500D02*
X72387500Y-38817500D01*
X72907500Y-38817500D02*
X73037500Y-38687500D01*
%TO.N,PCIE0_RXN*%
X53437500Y-34087500D02*
X53887500Y-33637500D01*
X53437500Y-35962500D02*
X53437500Y-34087500D01*
%TO.N,PCIE0_RXP*%
X50187500Y-36312500D02*
X52387500Y-36387500D01*
X52387500Y-36387500D02*
X53987500Y-37987500D01*
X50912500Y-36212500D02*
X50912500Y-36312500D01*
D32*
%TO.N,PCIE0_WAKE_L*%
X60987500Y-44737500D02*
X60962500Y-44762500D01*
X66437500Y-43337500D02*
X60962500Y-44762500D01*
%TO.N,PHY_INT_L*%
X73162500Y-58012500D02*
X76412500Y-54762500D01*
X76412500Y-54762500D02*
X76712500Y-54762500D01*
X69662500Y-58062500D02*
X69937500Y-58137500D01*
X69937500Y-58137500D02*
X73162500Y-58012500D01*
%TO.N,PHY_LED0*%
X72937500Y-53387500D02*
X73562500Y-52762500D01*
X72187500Y-54337500D02*
X72937500Y-53587500D01*
X73562500Y-52762500D02*
X73712500Y-52762500D01*
X72937500Y-53587500D02*
X72937500Y-53387500D01*
X69187500Y-56912500D02*
X72187500Y-54337500D01*
%TO.N,PHY_LED1*%
X65437500Y-55712500D02*
X66862500Y-56712500D01*
X68162500Y-58162500D02*
X68987500Y-58987500D01*
X68162500Y-58012500D02*
X68162500Y-58162500D01*
X68987500Y-58987500D02*
X69062500Y-58987500D01*
X66862500Y-56712500D02*
X68162500Y-58012500D01*
%TO.N,PHY_RSET*%
X66887500Y-63537500D02*
X69087500Y-61337500D01*
%TO.N,PHY_RST_GPIO*%
X56612500Y-25162500D02*
X55712500Y-25162500D01*
X53937500Y-25837500D02*
X53087500Y-25912500D01*
X52812500Y-25912500D02*
X52762500Y-25862500D01*
X56962500Y-25512500D02*
X56612500Y-25162500D01*
X53087500Y-25912500D02*
X52812500Y-25912500D01*
X58437500Y-25662500D02*
X56962500Y-25512500D01*
%TO.N,PHY_XO*%
X69062500Y-60587500D02*
X72537500Y-64062500D01*
%TO.N,PMIC_FB1*%
X57387500Y-31712500D02*
X57037500Y-32062500D01*
X57437500Y-26737500D02*
X56987500Y-26287500D01*
X56112500Y-26287500D02*
X55112500Y-25287500D01*
X55112500Y-25087500D02*
X54562500Y-24537500D01*
X57587500Y-27012500D02*
X57437500Y-26737500D01*
X57562500Y-30712500D02*
X57387500Y-31712500D01*
X56987500Y-26287500D02*
X56112500Y-26287500D01*
X55112500Y-25287500D02*
X55112500Y-25087500D01*
X54562500Y-24537500D02*
X53987500Y-24537500D01*
%TO.N,PMIC_FB2*%
X24212500Y-16762500D02*
X18412500Y-22562500D01*
X47887500Y-14387500D02*
X46262500Y-16012500D01*
X46262500Y-16012500D02*
X39062500Y-16037500D01*
X38387500Y-16712500D02*
X24212500Y-16762500D01*
X39062500Y-16037500D02*
X38387500Y-16712500D01*
%TO.N,PMIC_FB5*%
X48862500Y-34837500D02*
X48612500Y-34587500D01*
X48862500Y-28087500D02*
X48662500Y-27887500D01*
X48612500Y-34587500D02*
X48462500Y-34562500D01*
X51187500Y-14587500D02*
X51137500Y-12712500D01*
X51087500Y-20362500D02*
X51162500Y-14612500D01*
X48662500Y-27887500D02*
X48837500Y-22612500D01*
X48312500Y-34412500D02*
X48312500Y-32237500D01*
X53512500Y-39062500D02*
X53087500Y-38787500D01*
X51662500Y-37462500D02*
X50837500Y-37412500D01*
X51162500Y-14612500D02*
X51187500Y-14587500D01*
X52787500Y-38487500D02*
X52762500Y-38012500D01*
X51137500Y-12712500D02*
X50287500Y-11862500D01*
X48837500Y-22612500D02*
X51087500Y-20362500D01*
X48712500Y-31962500D02*
X48862500Y-31812500D01*
X50837500Y-37412500D02*
X48862500Y-35437500D01*
X52762500Y-38012500D02*
X52237500Y-37487500D01*
X52237500Y-37487500D02*
X51437500Y-37487500D01*
X48862500Y-35437500D02*
X48862500Y-34837500D01*
X48312500Y-32237500D02*
X48562500Y-31987500D01*
X48562500Y-31987500D02*
X48712500Y-31962500D01*
X48462500Y-34562500D02*
X48312500Y-34412500D01*
X53087500Y-38787500D02*
X52787500Y-38487500D01*
X48862500Y-31812500D02*
X48862500Y-28087500D01*
%TO.N,PMIC_FB9*%
X62312500Y-25337500D02*
X62337500Y-25312500D01*
X62262500Y-26687500D02*
X62312500Y-25337500D01*
X62512500Y-27012500D02*
X62262500Y-26687500D01*
X50137500Y-10037500D02*
X50087500Y-9462500D01*
X48987500Y-8362500D02*
X42587500Y-7612500D01*
X50087500Y-9462500D02*
X48987500Y-8362500D01*
%TO.N,PMIC_INT_L*%
X72337500Y-22187500D02*
X72412500Y-21187500D01*
X72412500Y-21187500D02*
X72737500Y-20862500D01*
X68587500Y-33587500D02*
X68587500Y-25887500D01*
X64862500Y-37312500D02*
X68587500Y-33587500D01*
X68587500Y-25887500D02*
X72312500Y-22162500D01*
%TO.N,PMIC_PWRCTRL2*%
X44587500Y-8487500D02*
X45137500Y-8637500D01*
X47537500Y-10437500D02*
X47562500Y-10437500D01*
X46962500Y-9837500D02*
X46962500Y-9862500D01*
X45662500Y-9212500D02*
X46337500Y-9212500D01*
X45512500Y-9062500D02*
X45662500Y-9212500D01*
X47562500Y-10437500D02*
X47837500Y-10712500D01*
X45512500Y-9012500D02*
X45512500Y-9062500D01*
X45137500Y-8637500D02*
X45512500Y-9012500D01*
X46962500Y-9862500D02*
X47537500Y-10437500D01*
X46337500Y-9212500D02*
X46962500Y-9837500D01*
X47837500Y-10712500D02*
X47837500Y-11062500D01*
D35*
%TO.N,PMIC_SW10*%
X28637500Y-15487500D02*
X44987500Y-15487500D01*
%TO.N,PMIC_SW4*%
X43787500Y-16362500D02*
X50712500Y-16362500D01*
%TO.N,PMIC_SW7*%
X37987500Y-14937500D02*
X40537500Y-12737500D01*
X40537500Y-12737500D02*
X41812500Y-12462500D01*
X41812500Y-12462500D02*
X48337500Y-12462500D01*
%TO.N,PMIC_SW8*%
X42562500Y-11462500D02*
X56412500Y-11462500D01*
X41762500Y-11537500D02*
X42512500Y-11512500D01*
X41587500Y-11362500D02*
X41762500Y-11537500D01*
X41487500Y-10787500D02*
X41587500Y-11362500D01*
X42512500Y-11512500D02*
X42562500Y-11462500D01*
D32*
%TO.N,RGMII_RXC*%
X44937500Y-36912500D02*
X44937500Y-38037500D01*
X44662500Y-38462500D02*
X44412500Y-38712500D01*
X45337500Y-36637500D02*
X45212500Y-36637500D01*
X44412500Y-38712500D02*
X44387500Y-38737500D01*
X45612500Y-36237500D02*
X45612500Y-36362500D01*
X44387500Y-38737500D02*
X44387500Y-40237500D01*
X45612500Y-36362500D02*
X45337500Y-36637500D01*
X44387500Y-40262500D02*
X44787500Y-40662500D01*
X45212500Y-36637500D02*
X44937500Y-36912500D01*
X46262500Y-35712500D02*
X45987500Y-35987500D01*
X45862500Y-35987500D02*
X45612500Y-36237500D01*
X44787500Y-40662500D02*
X44787500Y-41887500D01*
X44662500Y-38312500D02*
X44662500Y-38462500D01*
X46262500Y-28737500D02*
X46262500Y-35712500D01*
X44937500Y-38037500D02*
X44662500Y-38312500D01*
X45987500Y-35987500D02*
X45862500Y-35987500D01*
%TO.N,RGMII_TXC_SOC*%
X54137500Y-39012500D02*
X54887500Y-39762500D01*
X54912500Y-40312500D02*
X56812500Y-42212500D01*
X57812500Y-42362500D02*
X60187500Y-44737500D01*
X56812500Y-42212500D02*
X57812500Y-42362500D01*
X53487500Y-38062500D02*
X53687500Y-38662500D01*
X54037500Y-39012500D02*
X54137500Y-39012500D01*
X53687500Y-38662500D02*
X54037500Y-39012500D01*
X54887500Y-39762500D02*
X54912500Y-40312500D01*
%TO.N,RGMII_TXD1*%
X45712500Y-41387500D02*
X46087500Y-41762500D01*
X45662500Y-37262500D02*
X45712500Y-41387500D01*
%TO.N,RGMII_TXD3*%
X49537500Y-37162500D02*
X49537500Y-37312500D01*
X47562500Y-32087500D02*
X47662500Y-35587500D01*
X51562500Y-39337500D02*
X52387500Y-39387500D01*
X48312500Y-36362500D02*
X48587500Y-36637500D01*
X47662500Y-35587500D02*
X48312500Y-36237500D01*
X58762500Y-46087500D02*
X60287500Y-47687500D01*
X49537500Y-37312500D02*
X49762500Y-37537500D01*
X48312500Y-36237500D02*
X48312500Y-36362500D01*
X50137500Y-37762500D02*
X50137500Y-37912500D01*
X52387500Y-39387500D02*
X53987500Y-40987500D01*
X55537500Y-41587500D02*
X58762500Y-46087500D01*
X50512500Y-38137500D02*
X50737500Y-38362500D01*
X50737500Y-38362500D02*
X50737500Y-38512500D01*
X49912500Y-37537500D02*
X50137500Y-37762500D01*
X48587500Y-36637500D02*
X49037500Y-36662500D01*
X50362500Y-38137500D02*
X50512500Y-38137500D01*
X60287500Y-47687500D02*
X60287500Y-49387500D01*
X49037500Y-36662500D02*
X49537500Y-37162500D01*
X50737500Y-38512500D02*
X51562500Y-39337500D01*
X50137500Y-37912500D02*
X50362500Y-38137500D01*
X49762500Y-37537500D02*
X49912500Y-37537500D01*
%TO.N,SARADC_IN0_BOOT*%
X60987500Y-38912500D02*
X59087500Y-37012500D01*
X59087500Y-37012500D02*
X59087500Y-36387500D01*
X59087500Y-36387500D02*
X56937500Y-34237500D01*
%TO.N,SD_CMD*%
X50412500Y-25012500D02*
X50612500Y-25012500D01*
X50237500Y-25387500D02*
X50237500Y-25187500D01*
X50237500Y-25187500D02*
X50412500Y-25012500D01*
X49862500Y-25762500D02*
X50237500Y-25387500D01*
X50612500Y-25012500D02*
X51487500Y-24137500D01*
X12237500Y-53887500D02*
X5337500Y-57437500D01*
%TO.N,SD_D3*%
X28187500Y-22287500D02*
X27537500Y-22237500D01*
X38262500Y-21462500D02*
X31662500Y-21487500D01*
X40537500Y-23612500D02*
X40487500Y-23662500D01*
X20462500Y-31012500D02*
X20137500Y-31337500D01*
X19287500Y-32737500D02*
X15537500Y-36562500D01*
X27537500Y-22237500D02*
X26287500Y-22337500D01*
X20937500Y-27837500D02*
X20887500Y-27837500D01*
X43987500Y-26212500D02*
X43712500Y-26087500D01*
X43562500Y-25937500D02*
X43537500Y-25912500D01*
X21262500Y-27512500D02*
X20937500Y-27837500D01*
X43612500Y-25412500D02*
X43612500Y-25187500D01*
X20462500Y-28262500D02*
X20462500Y-31012500D01*
X22437500Y-25737500D02*
X21737500Y-26437500D01*
X20887500Y-27837500D02*
X20462500Y-28262500D01*
X43537500Y-25912500D02*
X43537500Y-25487500D01*
X20087500Y-31337500D02*
X19662500Y-31762500D01*
X19337500Y-32737500D02*
X19287500Y-32737500D01*
X30912500Y-22237500D02*
X28187500Y-22287500D01*
X19662500Y-31762500D02*
X19662500Y-32412500D01*
X21687500Y-26437500D02*
X21262500Y-26862500D01*
X15537500Y-37137500D02*
X13412500Y-39262500D01*
X22887500Y-25737500D02*
X22437500Y-25737500D01*
X42012500Y-23587500D02*
X40537500Y-23612500D01*
X43612500Y-25187500D02*
X42012500Y-23587500D01*
X15537500Y-36562500D02*
X15537500Y-37137500D01*
X20137500Y-31337500D02*
X20087500Y-31337500D01*
X43537500Y-25487500D02*
X43612500Y-25412500D01*
X43712500Y-26087500D02*
X43562500Y-25937500D01*
X21737500Y-26437500D02*
X21687500Y-26437500D01*
X31662500Y-21487500D02*
X30912500Y-22237500D01*
X21262500Y-26862500D02*
X21262500Y-27512500D01*
X19662500Y-32412500D02*
X19337500Y-32737500D01*
X13412500Y-39262500D02*
X13412500Y-40687500D01*
X26287500Y-22337500D02*
X22887500Y-25737500D01*
%TO.N,SD_PWREN*%
X48937500Y-43762500D02*
X48987500Y-41387500D01*
X50162500Y-40212500D02*
X50162500Y-39287500D01*
X47937500Y-44762500D02*
X48937500Y-43762500D01*
X48987500Y-41387500D02*
X50162500Y-40212500D01*
X43462500Y-48212500D02*
X47937500Y-44762500D01*
D36*
%TO.N,USB3A_DM*%
X88487500Y-18787500D02*
X89462500Y-17812500D01*
X87462500Y-19512500D02*
X88187500Y-18787500D01*
X78812500Y-31412500D02*
X87462500Y-19512500D01*
X89462500Y-17812500D02*
X89462500Y-17512500D01*
X88187500Y-18787500D02*
X88487500Y-18787500D01*
%TO.N,USB3A_DP*%
X88487500Y-16787500D02*
X89462500Y-15812500D01*
X88187500Y-16787500D02*
X88487500Y-16787500D01*
X87462500Y-17512500D02*
X88187500Y-16787500D01*
X89462500Y-15812500D02*
X89462500Y-15512500D01*
X78012500Y-31637500D02*
X87462500Y-17512500D01*
D32*
%TO.N,USB3A_OC_L*%
X68762500Y-7937500D02*
X62287500Y-14412500D01*
X49837500Y-23837500D02*
X49137500Y-24537500D01*
X49137500Y-24537500D02*
X49137500Y-25812500D01*
X77187500Y-7187500D02*
X74512500Y-7187500D01*
X50862500Y-23162500D02*
X50262500Y-23762500D01*
X59637500Y-17312500D02*
X56162500Y-20362500D01*
X50862500Y-22962500D02*
X50862500Y-23162500D01*
X49137500Y-25812500D02*
X49437500Y-26112500D01*
X56187500Y-20387500D02*
X53437500Y-20387500D01*
X50262500Y-23762500D02*
X49837500Y-23837500D01*
X73037500Y-7137500D02*
X68662500Y-7962500D01*
X49412500Y-26087500D02*
X49462500Y-26087500D01*
X53437500Y-20387500D02*
X50862500Y-22962500D01*
D36*
%TO.N,USB3_RXP*%
X55137500Y-28812500D02*
X55137500Y-28262500D01*
X55612500Y-27787500D02*
X57387500Y-27762500D01*
X59462500Y-26137500D02*
X59987500Y-25612500D01*
X58887500Y-26262500D02*
X59462500Y-26137500D01*
X57387500Y-27762500D02*
X58887500Y-26262500D01*
X53437500Y-30162500D02*
X53987500Y-29962500D01*
X53987500Y-29962500D02*
X55137500Y-28812500D01*
X84362500Y-15312500D02*
X87612500Y-14162500D01*
X53387500Y-30162500D02*
X53412500Y-30162500D01*
X55137500Y-28262500D02*
X55612500Y-27787500D01*
%TO.N,USB3_TXN*%
X67998063Y-21318838D02*
X67842519Y-21321261D01*
X69385091Y-22203730D02*
X69231969Y-22361698D01*
X53937500Y-28337500D02*
X54137500Y-28337500D01*
X61255488Y-28103189D02*
X61346167Y-28229590D01*
X68010266Y-22556235D02*
X67854721Y-22558658D01*
X61816300Y-27404984D02*
X61942701Y-27314305D01*
X61291460Y-27207139D02*
X61382139Y-27333540D01*
X61346167Y-28229590D02*
X61563248Y-28265313D01*
X61382139Y-27333540D02*
X61255488Y-28103189D01*
X68876576Y-22783187D02*
X68878998Y-22938731D01*
X62387500Y-27387500D02*
X62937500Y-27387500D01*
X68842744Y-21065236D02*
X68689623Y-21223203D01*
X68725877Y-23096699D02*
X68570332Y-23099122D01*
X67689397Y-21479229D02*
X67691820Y-21634773D01*
X68570332Y-23099122D02*
X68010266Y-22556235D01*
X62887500Y-27337500D02*
X62887500Y-27362500D01*
X67842519Y-21321261D02*
X67689397Y-21479229D01*
X54332170Y-27704424D02*
X54332170Y-27548860D01*
X54473591Y-27845845D02*
X54332170Y-27704424D01*
X61689649Y-28174633D02*
X61816300Y-27404984D01*
X69077273Y-21139374D02*
X68998289Y-21062813D01*
X69231969Y-22361698D02*
X69076424Y-22364121D01*
X68998289Y-21062813D02*
X68842744Y-21065236D01*
X68692045Y-21378748D02*
X69382668Y-22048186D01*
X71437500Y-18862500D02*
X69232817Y-21136951D01*
X68689623Y-21223203D02*
X68692045Y-21378748D01*
X60412500Y-27062500D02*
X61291460Y-27207139D01*
X54784718Y-27534718D02*
X54940282Y-27534718D01*
X61942701Y-27314305D02*
X62387500Y-27387500D01*
X69076424Y-22364121D02*
X67998063Y-21318838D01*
X69232817Y-21136951D02*
X69077273Y-21139374D01*
X67691820Y-21634773D02*
X68876576Y-22783187D01*
X54137500Y-28337500D02*
X54473591Y-28001409D01*
X54332170Y-27548860D02*
X54487733Y-27393297D01*
X53562500Y-28712500D02*
X53937500Y-28337500D01*
X69382668Y-22048186D02*
X69385091Y-22203730D01*
X53537500Y-29337500D02*
X53562500Y-28712500D01*
X54487733Y-27393297D02*
X54643297Y-27393297D01*
X71462500Y-18862500D02*
X73512500Y-18862500D01*
X54940282Y-27534718D02*
X55587500Y-26887500D01*
X67854721Y-22558658D02*
X67487500Y-22937500D01*
X61563248Y-28265313D02*
X61689649Y-28174633D01*
X54473591Y-28001409D02*
X54473591Y-27845845D01*
X65137500Y-25062500D02*
X62887500Y-27337500D01*
X68878998Y-22938731D02*
X68725877Y-23096699D01*
X54643297Y-27393297D02*
X54784718Y-27534718D01*
%TO.N,USB3_TXP*%
X51737500Y-29662500D02*
X53137500Y-28237500D01*
X58812500Y-23837500D02*
X58787500Y-23812500D01*
X52937500Y-34312500D02*
X52862500Y-34387500D01*
X53737500Y-27312500D02*
X54012500Y-27312500D01*
X51537500Y-29662500D02*
X51737500Y-29662500D01*
X52962500Y-33287500D02*
X52937500Y-34312500D01*
X53137500Y-27912500D02*
X53737500Y-27312500D01*
X53137500Y-28237500D02*
X53137500Y-27912500D01*
X61337500Y-24187500D02*
X59162500Y-24187500D01*
X50737500Y-30462500D02*
X51537500Y-29662500D01*
X59162500Y-24187500D02*
X58812500Y-23837500D01*
X50737500Y-30662500D02*
X50737500Y-30462500D01*
X63612500Y-24787500D02*
X61337500Y-24187500D01*
X50137500Y-31462500D02*
X50737500Y-30662500D01*
X54537500Y-31712500D02*
X52962500Y-33287500D01*
D32*
%TO.N,USBA2_DM*%
X82812500Y-42562500D02*
X83637500Y-38312500D01*
X78862500Y-38112500D02*
X78862500Y-42037500D01*
X78487500Y-37637500D02*
X78862500Y-38112500D01*
X83637500Y-38312500D02*
X85512500Y-36437500D01*
D36*
%TO.N,USBC_DP*%
X15737500Y-63737500D02*
X12762500Y-63987500D01*
D32*
%TO.N,USB_HOST_PWREN*%
X48212500Y-20087500D02*
X50737500Y-20087500D01*
X46087500Y-22387500D02*
X46087500Y-24987500D01*
X48037500Y-21287500D02*
X48037500Y-20637500D01*
X47862500Y-24562500D02*
X48062500Y-24762500D01*
X58562500Y-19462500D02*
X59887500Y-18862500D01*
X60862500Y-18862500D02*
X60862500Y-18512500D01*
X47162500Y-21312500D02*
X46087500Y-22387500D01*
X46637500Y-25262500D02*
X46387500Y-25262500D01*
X47937500Y-28562500D02*
X48062500Y-25012500D01*
X48087500Y-21312500D02*
X47162500Y-21312500D01*
X48012500Y-20287500D02*
X48212500Y-20087500D01*
X47587500Y-24562500D02*
X47237500Y-24737500D01*
X59887500Y-18862500D02*
X61212500Y-18862500D01*
X48062500Y-20637500D02*
X48012500Y-20587500D01*
X47237500Y-24737500D02*
X46637500Y-25262500D01*
X48062500Y-25012500D02*
X48087500Y-24987500D01*
X48062500Y-24762500D02*
X48062500Y-24987500D01*
X47587500Y-24562500D02*
X47862500Y-24562500D01*
X48012500Y-20587500D02*
X48012500Y-20287500D01*
X46387500Y-25262500D02*
X46337500Y-25212500D01*
X46087500Y-24987500D02*
X46337500Y-25237500D01*
%TO.N,USB_OTG0_VBUSDET*%
X42737500Y-37462500D02*
X43112500Y-36887500D01*
X43112500Y-28662500D02*
X44737500Y-27037500D01*
X45012500Y-21087500D02*
X48937500Y-17162500D01*
X44737500Y-27037500D02*
X45012500Y-21087500D01*
X43112500Y-36887500D02*
X43112500Y-28662500D01*
D35*
%TO.N,VBUS_IN*%
X43737500Y-57137500D02*
X54137500Y-56212500D01*
X54137500Y-56212500D02*
X54287500Y-56062500D01*
%TO.N,VBUS_USB3A*%
X79487500Y-10012500D02*
X75237500Y-10012500D01*
X80437500Y-10962500D02*
X79487500Y-10012500D01*
X46962500Y-38487500D02*
X47237500Y-38762500D01*
X55387500Y-20112500D02*
X53212500Y-20112500D01*
D37*
X48287500Y-28587500D02*
X48262500Y-29187500D01*
D35*
X53212500Y-20112500D02*
X51412500Y-21912500D01*
D37*
X47887500Y-24187500D02*
X48337500Y-24687500D01*
D35*
X46962500Y-28962500D02*
X46962500Y-38487500D01*
D37*
X48262500Y-29187500D02*
X48062500Y-29387500D01*
D35*
X58687500Y-17387500D02*
X55387500Y-20112500D01*
D37*
X46962500Y-29187500D02*
X46962500Y-29012500D01*
X47162500Y-29387500D02*
X46962500Y-29187500D01*
X48337500Y-24687500D02*
X48312500Y-28562500D01*
X48312500Y-28562500D02*
X48287500Y-28587500D01*
X48062500Y-29387500D02*
X47162500Y-29387500D01*
D35*
%TO.N,VCC5V0_SYS_S5*%
X41337500Y-21312500D02*
X43737500Y-18912500D01*
X55787500Y-38262500D02*
X53887500Y-36362500D01*
X57037500Y-39262500D02*
X56087500Y-38312500D01*
X38962500Y-22062500D02*
X39837500Y-22062500D01*
X30612500Y-20812500D02*
X26387500Y-20812500D01*
X56087500Y-38312500D02*
X55787500Y-38262500D01*
D37*
X40012500Y-22012500D02*
X40712500Y-21312500D01*
D35*
X39837500Y-22062500D02*
X40562500Y-21337500D01*
D37*
X40712500Y-21312500D02*
X41487500Y-21262500D01*
D35*
X57037500Y-40787500D02*
X57037500Y-39262500D01*
X34187500Y-26887500D02*
X34312500Y-26762500D01*
D37*
X41487500Y-21262500D02*
X43462500Y-19287500D01*
X39012500Y-22037500D02*
X40012500Y-22012500D01*
D35*
X80062500Y-6837500D02*
X79187500Y-7712500D01*
X40562500Y-21337500D02*
X41337500Y-21312500D01*
X48262500Y-15787500D02*
X48837500Y-11862500D01*
X31112500Y-21312500D02*
X30612500Y-20812500D01*
X60587500Y-44337500D02*
X57037500Y-40787500D01*
X34162500Y-33512500D02*
X34187500Y-26887500D01*
X26387500Y-20812500D02*
X26112500Y-21087500D01*
X26112500Y-21087500D02*
X25487500Y-21087500D01*
X55512500Y-28437500D02*
X57137500Y-28437500D01*
X60837500Y-56587500D02*
X60587500Y-44337500D01*
%TO.N,VCC5V_HDMI*%
X51487500Y-51737500D02*
X52087500Y-51137500D01*
X37087500Y-57437500D02*
X37287500Y-58162500D01*
X52162500Y-50662500D02*
X52162500Y-50262500D01*
X53787500Y-45187500D02*
X53737500Y-46587500D01*
X49112500Y-52187500D02*
X51487500Y-51737500D01*
X53737500Y-46587500D02*
X53587500Y-47237500D01*
X61437500Y-46212500D02*
X64362500Y-46162500D01*
X31362500Y-54162500D02*
X34312500Y-50737500D01*
X64362500Y-46162500D02*
X68862500Y-41662500D01*
X54462500Y-44487500D02*
X53787500Y-45187500D01*
X52087500Y-51137500D02*
X52087500Y-50737500D01*
X52162500Y-50262500D02*
X51837500Y-49937500D01*
X61112500Y-46512500D02*
X61437500Y-46212500D01*
X52087500Y-50737500D02*
X52162500Y-50662500D01*
%TO.N,VCCA_1V8_S0*%
X37712500Y-20212500D02*
X39612500Y-20512500D01*
D37*
X43237500Y-46737500D02*
X45787500Y-45712500D01*
D35*
X35812500Y-50562500D02*
X35637500Y-50312500D01*
X39737500Y-44387500D02*
X39437500Y-44387500D01*
X46312500Y-41062500D02*
X47812500Y-42562500D01*
X46312500Y-38037500D02*
X46312500Y-41062500D01*
D37*
X39762500Y-44312500D02*
X39737500Y-45862500D01*
D35*
X34787500Y-49412500D02*
X34787500Y-41012500D01*
X47812500Y-42562500D02*
X47812500Y-43362500D01*
X35637500Y-50287500D02*
X34787500Y-49412500D01*
X35637500Y-50312500D02*
X35637500Y-50287500D01*
X45987500Y-37612500D02*
X46312500Y-38037500D01*
%TO.N,VCCA_3V3_S0*%
X43337500Y-9612500D02*
X43337500Y-9412500D01*
X38587500Y-11587500D02*
X40537500Y-9637500D01*
X42437500Y-10112500D02*
X42837500Y-10112500D01*
X43337500Y-9412500D02*
X43712500Y-9037500D01*
X42837500Y-10112500D02*
X43337500Y-9612500D01*
X40537500Y-9637500D02*
X41962500Y-9637500D01*
X38012500Y-14112500D02*
X38587500Y-11587500D01*
X41962500Y-9637500D02*
X42437500Y-10112500D01*
%TO.N,VCCIO_SD_S0*%
X67637500Y-19662500D02*
X67862500Y-19437500D01*
D37*
X63187500Y-27512500D02*
X63162500Y-27512500D01*
X60062500Y-31612500D02*
X58162500Y-33487500D01*
D35*
X51737500Y-19887500D02*
X51362500Y-20262500D01*
X51362500Y-20562500D02*
X50487500Y-21437500D01*
X51662500Y-17037500D02*
X51737500Y-19887500D01*
X66862500Y-20112500D02*
X67637500Y-19662500D01*
D37*
X60062500Y-31212500D02*
X60062500Y-31612500D01*
D35*
X65512500Y-15712500D02*
X60762500Y-15762500D01*
D37*
X65237500Y-36462500D02*
X65237500Y-30462500D01*
D35*
X60762500Y-15762500D02*
X60562500Y-15962500D01*
D37*
X65637500Y-25212500D02*
X63187500Y-27512500D01*
D35*
X67812500Y-18012500D02*
X65512500Y-15712500D01*
D37*
X63312500Y-27837500D02*
X62087500Y-29187500D01*
D35*
X51362500Y-20262500D02*
X51362500Y-20562500D01*
X52637500Y-14187500D02*
X52637500Y-16062500D01*
X67862500Y-19437500D02*
X67812500Y-18012500D01*
D37*
X55537500Y-47362500D02*
X57537500Y-46662500D01*
X56287500Y-16387500D02*
X57187500Y-16387500D01*
D35*
X52637500Y-16062500D02*
X51662500Y-17037500D01*
X14187500Y-42262500D02*
X13737500Y-52937500D01*
X60562500Y-15962500D02*
X60287500Y-15962500D01*
D37*
X54587500Y-18087500D02*
X54787500Y-17862500D01*
X62062500Y-28612500D02*
X61112500Y-28637500D01*
X59587500Y-30162500D02*
X59587500Y-30562500D01*
D35*
X54412500Y-12412500D02*
X52637500Y-14187500D01*
D37*
X63162500Y-27512500D02*
X62062500Y-28612500D01*
X62087500Y-29187500D02*
X60062500Y-31212500D01*
X58162500Y-33487500D02*
X57712500Y-33562500D01*
D35*
X64962500Y-25862500D02*
X65012500Y-25912500D01*
D37*
X61112500Y-28637500D02*
X59587500Y-30162500D01*
X54787500Y-17862500D02*
X56287500Y-16387500D01*
D35*
%TO.N,VCC_1V1_NLDO_S3*%
X42037500Y-14037500D02*
X42437500Y-13862500D01*
X45687500Y-14362500D02*
X45712500Y-15062500D01*
X45187500Y-13862500D02*
X45687500Y-14362500D01*
X42437500Y-13862500D02*
X45187500Y-13862500D01*
X63437500Y-33412500D02*
X64412500Y-32137500D01*
%TO.N,VCC_1V8_S3*%
X43212500Y-49462500D02*
X43287500Y-49462500D01*
X47412500Y-22037500D02*
X47412500Y-22387500D01*
X46487500Y-24887500D02*
X47412500Y-22462500D01*
X41987500Y-48212500D02*
X43037500Y-49287500D01*
X43037500Y-49287500D02*
X43212500Y-49462500D01*
X65412500Y-17137500D02*
X65562500Y-17637500D01*
D37*
X41562500Y-48462500D02*
X45362500Y-46212500D01*
D35*
X46637500Y-27712500D02*
X47287500Y-27062500D01*
D37*
X38837500Y-48112500D02*
X38787500Y-49737500D01*
D35*
X65562500Y-18412500D02*
X65287500Y-18687500D01*
D37*
X38037500Y-46162500D02*
X38837500Y-48112500D01*
D35*
X47287500Y-27062500D02*
X47287500Y-26162500D01*
X65562500Y-17637500D02*
X65562500Y-18412500D01*
X47612500Y-21837500D02*
X47412500Y-22037500D01*
X46487500Y-27812500D02*
X46637500Y-27712500D01*
%TO.N,VCC_2V0_PLDO_S3*%
X63087500Y-32637500D02*
X63112500Y-32062500D01*
X60912500Y-34087500D02*
X61737500Y-33337500D01*
X63112500Y-32062500D02*
X64912500Y-30087500D01*
X50437500Y-5337500D02*
X45512500Y-5337500D01*
X62387500Y-33337500D02*
X63087500Y-32637500D01*
X45512500Y-5337500D02*
X45462500Y-5387500D01*
X60487500Y-13112500D02*
X50437500Y-5337500D01*
X61737500Y-33337500D02*
X62387500Y-33337500D01*
D37*
%TO.N,VCC_3V3_S0*%
X64637500Y-29212500D02*
X66012500Y-27712500D01*
D35*
X11662500Y-40587500D02*
X14362500Y-41862500D01*
D37*
X62187500Y-32362500D02*
X62487500Y-32062500D01*
D35*
X41937500Y-45987500D02*
X41937500Y-46912500D01*
X42612500Y-23062500D02*
X42612500Y-23237500D01*
X42612500Y-23237500D02*
X42862500Y-23487500D01*
D37*
X62487500Y-32037500D02*
X64537500Y-29987500D01*
X46162500Y-19562500D02*
X44537500Y-21187500D01*
D35*
X17662500Y-45187500D02*
X17662500Y-45862500D01*
D37*
X66012500Y-23612500D02*
X64937500Y-22537500D01*
X66012500Y-27712500D02*
X66012500Y-23612500D01*
D35*
X14362500Y-41862500D02*
X17662500Y-45187500D01*
X67562500Y-20487500D02*
X71987500Y-15312500D01*
X42862500Y-42512500D02*
X41712500Y-43662500D01*
X70887500Y-47912500D02*
X78712500Y-47537500D01*
X43062500Y-41512500D02*
X42862500Y-42512500D01*
D37*
X61787500Y-32437500D02*
X62187500Y-32362500D01*
D35*
X42162500Y-22612500D02*
X42612500Y-23062500D01*
D37*
X48312500Y-17262500D02*
X46162500Y-19562500D01*
X44537500Y-21187500D02*
X44537500Y-23537500D01*
D35*
X42862500Y-23487500D02*
X44412500Y-23462500D01*
X40437500Y-22587500D02*
X42162500Y-22612500D01*
X66662500Y-22687500D02*
X65887500Y-23437500D01*
D37*
X64537500Y-29987500D02*
X64637500Y-29212500D01*
D35*
X48162500Y-52337500D02*
X47962500Y-52337500D01*
D37*
X62487500Y-32062500D02*
X62487500Y-32037500D01*
D35*
X37087500Y-23037500D02*
X38362500Y-23412500D01*
X38362500Y-23412500D02*
X39662500Y-23362500D01*
X17662500Y-45862500D02*
X27787500Y-55937500D01*
X51262500Y-50462500D02*
X48162500Y-52337500D01*
X39662500Y-23362500D02*
X40437500Y-22587500D01*
%TO.N,VCC_3V3_S3*%
X59887500Y-22337500D02*
X61612500Y-20612500D01*
D37*
X61687500Y-54687500D02*
X69637500Y-54737500D01*
D35*
X53562500Y-24362500D02*
X53762500Y-24162500D01*
D37*
X47087500Y-55012500D02*
X47387500Y-55312500D01*
D35*
X34212500Y-24612500D02*
X33537500Y-24587500D01*
X33537500Y-24587500D02*
X32637500Y-24662500D01*
X53362500Y-25037500D02*
X53562500Y-24362500D01*
X56937500Y-24812500D02*
X59412500Y-22337500D01*
X53837500Y-25012500D02*
X54312500Y-25662500D01*
X56087500Y-24837500D02*
X56937500Y-24812500D01*
X61612500Y-20612500D02*
X61612500Y-18687500D01*
D37*
X53837500Y-54462500D02*
X54312500Y-54462500D01*
D35*
X58612500Y-16662500D02*
X57162500Y-18112500D01*
D37*
X47087500Y-54762500D02*
X47087500Y-55012500D01*
D35*
X53762500Y-24162500D02*
X53787500Y-24137500D01*
D37*
X52987500Y-55312500D02*
X53837500Y-54462500D01*
X47512500Y-53962500D02*
X47087500Y-54762500D01*
D35*
X34112500Y-24637500D02*
X34112500Y-24687500D01*
X55437500Y-24187500D02*
X56087500Y-24837500D01*
X43562500Y-41112500D02*
X43487500Y-41812500D01*
X59562500Y-16662500D02*
X58612500Y-16662500D01*
D37*
X47387500Y-55312500D02*
X52987500Y-55312500D01*
D35*
X61612500Y-18687500D02*
X59562500Y-16662500D01*
X54287500Y-26487500D02*
X54237500Y-26537500D01*
X54312500Y-25662500D02*
X54287500Y-26487500D01*
X59412500Y-22337500D02*
X59887500Y-22337500D01*
X53787500Y-24137500D02*
X55437500Y-24187500D01*
%TO.N,VDD1_DDR_S3*%
X43287500Y-4737500D02*
X57512500Y-4812500D01*
X25537500Y-29887500D02*
X25412500Y-30012500D01*
X17612500Y-23637500D02*
X18887500Y-26837500D01*
X57512500Y-4812500D02*
X64437500Y-11737500D01*
X23987500Y-20387500D02*
X27287500Y-17087500D01*
%TO.N,VDD2H_DDR_S3*%
X41862500Y-7037500D02*
X41887500Y-7812500D01*
X23887500Y-31737500D02*
X24137500Y-31987500D01*
D37*
X61262500Y-26737500D02*
X61312500Y-25962500D01*
D35*
X21887500Y-33662500D02*
X22487500Y-33662500D01*
X24712500Y-32637500D02*
X24962500Y-32887500D01*
X24512500Y-36187500D02*
X24562500Y-36237500D01*
X21587500Y-22387500D02*
X21412500Y-22562500D01*
X23537500Y-35487500D02*
X23887500Y-35837500D01*
X42437500Y-8362500D02*
X42437500Y-8962500D01*
D37*
X23912500Y-21362500D02*
X24187500Y-21362500D01*
X60012500Y-26537500D02*
X59962500Y-28187500D01*
D35*
X20087500Y-33687500D02*
X19487500Y-33687500D01*
X21737500Y-34087500D02*
X21937500Y-34087500D01*
X23887500Y-35937500D02*
X24137500Y-36187500D01*
X22912500Y-35687500D02*
X22912500Y-34787500D01*
D37*
X58512500Y-29637500D02*
X58512500Y-30562500D01*
D35*
X21412500Y-22562500D02*
X21387500Y-22887500D01*
D37*
X61312500Y-25962500D02*
X61312500Y-25887500D01*
D35*
X21137500Y-21412500D02*
X21587500Y-21862500D01*
X21387500Y-22887500D02*
X21337500Y-22937500D01*
X23662500Y-30537500D02*
X23887500Y-31387500D01*
X21462500Y-32612500D02*
X21487500Y-33837500D01*
X21487500Y-33837500D02*
X21737500Y-34087500D01*
X24137500Y-36187500D02*
X24512500Y-36187500D01*
X24687500Y-32337500D02*
X24712500Y-32637500D01*
X21687500Y-33662500D02*
X21087500Y-33662500D01*
X54412500Y-11062500D02*
X48887500Y-5662500D01*
X21587500Y-21862500D02*
X21587500Y-22387500D01*
X24137500Y-31987500D02*
X24337500Y-31987500D01*
X24337500Y-31987500D02*
X24687500Y-32337500D01*
X48887500Y-5662500D02*
X43062500Y-5837500D01*
D37*
X23562500Y-21287500D02*
X23912500Y-21362500D01*
D35*
X23087500Y-35237500D02*
X23337500Y-35487500D01*
X21937500Y-34087500D02*
X22287500Y-34437500D01*
X20287500Y-33712500D02*
X20887500Y-33712500D01*
X22912500Y-34787500D02*
X22612500Y-34487500D01*
X20287500Y-32312500D02*
X20887500Y-32312500D01*
X15237500Y-33762500D02*
X15412500Y-31637500D01*
X43062500Y-5837500D02*
X41862500Y-7037500D01*
D37*
X61312500Y-25887500D02*
X61112500Y-25687500D01*
D35*
X41887500Y-7812500D02*
X42437500Y-8362500D01*
X25887500Y-29487500D02*
X26487500Y-29487500D01*
X22537500Y-34787500D02*
X22737500Y-34787500D01*
X22287500Y-34437500D02*
X22287500Y-34537500D01*
X22287500Y-34537500D02*
X22537500Y-34787500D01*
D37*
X59962500Y-28187500D02*
X58512500Y-29637500D01*
D35*
X23362500Y-36387500D02*
X22912500Y-35687500D01*
X23087500Y-35137500D02*
X23087500Y-35237500D01*
X23887500Y-35837500D02*
X23887500Y-35937500D01*
D37*
X61112500Y-25687500D02*
X60862500Y-25687500D01*
D35*
X23337500Y-35487500D02*
X23537500Y-35487500D01*
D37*
X24187500Y-21362500D02*
X28462500Y-17087500D01*
D35*
X23887500Y-31387500D02*
X23887500Y-31737500D01*
X22737500Y-34787500D02*
X23087500Y-35137500D01*
D37*
X60862500Y-25687500D02*
X60012500Y-26537500D01*
D35*
%TO.N,VDDA0V75_HDMI_S0*%
X47612500Y-37887500D02*
X47887500Y-37612500D01*
X47612500Y-41762500D02*
X47612500Y-37887500D01*
X40937500Y-48512500D02*
X46137500Y-43312500D01*
%TO.N,VDDA_0V75_S0*%
X33337500Y-18812500D02*
X37262500Y-18837500D01*
X44387500Y-37912500D02*
X44062500Y-37587500D01*
D37*
X29537500Y-19637500D02*
X33387500Y-19312500D01*
D35*
X37687500Y-50512500D02*
X38787500Y-51687500D01*
X37262500Y-18837500D02*
X38712500Y-18337500D01*
X41587500Y-18337500D02*
X41812500Y-18112500D01*
D37*
X24162500Y-23962500D02*
X25412500Y-22312500D01*
D35*
X38712500Y-18337500D02*
X41587500Y-18337500D01*
D37*
X26137500Y-21587500D02*
X26287500Y-21587500D01*
X25412500Y-22312500D02*
X26137500Y-21587500D01*
D35*
%TO.N,VDDA_0V85_S0*%
X63637500Y-37912500D02*
X64087500Y-38362500D01*
X64087500Y-38362500D02*
X64087500Y-38987500D01*
X62462500Y-34512500D02*
X63637500Y-37912500D01*
X44012500Y-36312500D02*
X44012500Y-36812500D01*
%TO.N,VDDQ_DDR_S0*%
X28887500Y-29462500D02*
X28287500Y-29462500D01*
X21887500Y-36512500D02*
X22512500Y-37112500D01*
X21687500Y-36462500D02*
X21087500Y-36462500D01*
X61362500Y-32587500D02*
X60037500Y-33912500D01*
X32112500Y-36487500D02*
X33537500Y-36812500D01*
X61412500Y-32087500D02*
X61362500Y-32587500D01*
X32912500Y-30812500D02*
X32337500Y-30812500D01*
X28987500Y-44237500D02*
X33287500Y-48412500D01*
X19287500Y-36512500D02*
X16987500Y-37887500D01*
X33737500Y-37312500D02*
X33562500Y-37487500D01*
X33212500Y-30237500D02*
X33212500Y-30512500D01*
X16987500Y-37887500D02*
X15262500Y-37887500D01*
X33562500Y-37487500D02*
X33062500Y-37662500D01*
X30987500Y-39287500D02*
X29887500Y-39287500D01*
X31462500Y-39362500D02*
X29862500Y-39362500D01*
X32712500Y-28912500D02*
X33212500Y-30237500D01*
X33062500Y-37662500D02*
X32837500Y-37887500D01*
X33212500Y-30512500D02*
X32912500Y-30812500D01*
X24562500Y-36837500D02*
X22937500Y-36912500D01*
X33537500Y-36812500D02*
X33737500Y-37012500D01*
X33737500Y-37012500D02*
X33737500Y-37312500D01*
X27962500Y-44187500D02*
X28987500Y-44237500D01*
X33287500Y-48412500D02*
X33337500Y-48412500D01*
X62137500Y-30962500D02*
X61412500Y-32087500D01*
X29062500Y-36412500D02*
X29687500Y-35812500D01*
X29687500Y-30162500D02*
X29062500Y-29562500D01*
X27612500Y-44312500D02*
X27962500Y-44187500D01*
X22937500Y-36912500D02*
X22687500Y-37162500D01*
%TO.N,VDD_0V75_S3*%
X59912500Y-20912500D02*
X59212500Y-21612500D01*
X58537500Y-14862500D02*
X60587500Y-14862500D01*
X63312500Y-34212500D02*
X64887500Y-32637500D01*
X62087500Y-35862500D02*
X62037500Y-34212500D01*
X58462500Y-14787500D02*
X58537500Y-14862500D01*
X62037500Y-36187500D02*
X62087500Y-35862500D01*
X59912500Y-19287500D02*
X59912500Y-20912500D01*
X62987500Y-34212500D02*
X63312500Y-34212500D01*
X63037500Y-26612500D02*
X62812500Y-25287500D01*
X62762500Y-33987500D02*
X62987500Y-34212500D01*
X62037500Y-34212500D02*
X62262500Y-33987500D01*
X62262500Y-33987500D02*
X62762500Y-33987500D01*
X53262500Y-14362500D02*
X58462500Y-14787500D01*
X59212500Y-21612500D02*
X58812500Y-21612500D01*
%TO.N,VDD_CPU_BIG_S0*%
X45412500Y-18787500D02*
X45412500Y-19887500D01*
X45337500Y-34962500D02*
X44662500Y-34962500D01*
X42987500Y-20887500D02*
X43712500Y-21787500D01*
X38462500Y-20662500D02*
X38687500Y-20887500D01*
X53887500Y-30312500D02*
X54162500Y-30287500D01*
X44062500Y-21937500D02*
X43437500Y-22562500D01*
X41437500Y-16362500D02*
X42762500Y-16462500D01*
D37*
X49637500Y-41937500D02*
X49662500Y-41462500D01*
D35*
X35987500Y-20837500D02*
X38237500Y-20662500D01*
X42987500Y-16887500D02*
X44262500Y-18162500D01*
X53062500Y-31587500D02*
X53512500Y-30687500D01*
X42987500Y-16687500D02*
X42987500Y-16887500D01*
X40062500Y-20887500D02*
X40837500Y-20112500D01*
X44062500Y-21237500D02*
X44062500Y-21937500D01*
X38237500Y-20662500D02*
X38462500Y-20662500D01*
X44087500Y-32987500D02*
X44587500Y-32987500D01*
X43437500Y-22562500D02*
X43112500Y-22562500D01*
X42762500Y-16462500D02*
X42987500Y-16687500D01*
D37*
X49287500Y-42687500D02*
X49637500Y-41937500D01*
D35*
X53512500Y-30687500D02*
X53887500Y-30312500D01*
X45412500Y-19887500D02*
X44062500Y-21237500D01*
X41337500Y-20112500D02*
X41637500Y-20412500D01*
X44837500Y-18212500D02*
X45412500Y-18787500D01*
X40837500Y-20112500D02*
X41337500Y-20112500D01*
X38687500Y-20887500D02*
X40062500Y-20887500D01*
X54162500Y-30287500D02*
X54912500Y-29537500D01*
X44262500Y-18162500D02*
X44837500Y-18212500D01*
%TO.N,VDD_CPU_LIT_S0*%
X43987500Y-18437500D02*
X42612500Y-18487500D01*
X49937500Y-11137500D02*
X49512500Y-11137500D01*
X51437500Y-44112500D02*
X49587500Y-45962500D01*
X49962500Y-11112500D02*
X49937500Y-11137500D01*
X46837500Y-47237500D02*
X46837500Y-46887500D01*
X52037500Y-11112500D02*
X49962500Y-11112500D01*
X47012500Y-47412500D02*
X46837500Y-47237500D01*
X51562500Y-44112500D02*
X51437500Y-44112500D01*
X49587500Y-45962500D02*
X49587500Y-47162500D01*
X41787500Y-19312500D02*
X41562500Y-19337500D01*
X48412500Y-48687500D02*
X48112500Y-48987500D01*
X49587500Y-47162500D02*
X48412500Y-48337500D01*
X52937500Y-43012500D02*
X51562500Y-44112500D01*
X42612500Y-18487500D02*
X41787500Y-19312500D01*
X44687500Y-18637500D02*
X43987500Y-18437500D01*
X49512500Y-11137500D02*
X46862500Y-8487500D01*
X46512500Y-6812500D02*
X48687500Y-6062500D01*
X48412500Y-48337500D02*
X48412500Y-48687500D01*
X59387500Y-6037500D02*
X58937500Y-2262500D01*
X46862500Y-8487500D02*
X46537500Y-8487500D01*
X47037500Y-48187500D02*
X47012500Y-47412500D01*
X47687500Y-19212500D02*
X46587500Y-19987500D01*
X41562500Y-19337500D02*
X41412500Y-19487500D01*
X46812500Y-48737500D02*
X47037500Y-48187500D01*
X46837500Y-46887500D02*
X47112500Y-46612500D01*
%TO.N,VDD_DDR_S0*%
X33887500Y-20037500D02*
X35212500Y-19612500D01*
X44812500Y-17312500D02*
X44587500Y-17087500D01*
X38137500Y-19062500D02*
X40062500Y-19037500D01*
X44337500Y-17337500D02*
X44537500Y-17137500D01*
X59862500Y-39987500D02*
X59537500Y-39662500D01*
X53237500Y-51062500D02*
X54187500Y-46212500D01*
X60587500Y-15487500D02*
X62537500Y-13537500D01*
X40062500Y-19037500D02*
X40362500Y-18737500D01*
X53512500Y-15537500D02*
X54287500Y-15562500D01*
X62687500Y-40037500D02*
X61662500Y-40062500D01*
D37*
X37137500Y-19637500D02*
X37137500Y-20162500D01*
D35*
X61662500Y-40062500D02*
X61387500Y-40337500D01*
X59587500Y-40312500D02*
X58162500Y-40062500D01*
X54287500Y-15562500D02*
X60587500Y-15487500D01*
X35212500Y-19612500D02*
X37587500Y-19612500D01*
X49662500Y-16737500D02*
X47137500Y-16762500D01*
X60762500Y-40337500D02*
X60412500Y-39987500D01*
X47137500Y-16762500D02*
X46562500Y-17337500D01*
X60412500Y-39987500D02*
X59862500Y-39987500D01*
X37587500Y-19612500D02*
X38137500Y-19062500D01*
X61387500Y-40337500D02*
X60762500Y-40337500D01*
X63437500Y-40387500D02*
X62687500Y-40037500D01*
X46562500Y-17337500D02*
X44812500Y-17312500D01*
X44112500Y-17262500D02*
X44337500Y-17337500D01*
%TO.N,VDD_GPU_S0*%
X56462500Y-18462500D02*
X56137500Y-18887500D01*
X55887500Y-19137500D02*
X52962500Y-19137500D01*
X51837500Y-20262500D02*
X51837500Y-20387500D01*
X56137500Y-18887500D02*
X55887500Y-19137500D01*
X52962500Y-19137500D02*
X51837500Y-20262500D01*
%TO.N,VDD_LOGIC_S0*%
X58812500Y-20012500D02*
X59537500Y-20737500D01*
X56837500Y-20512500D02*
X56962500Y-20512500D01*
X39312500Y-11337500D02*
X39337500Y-11312500D01*
X57037500Y-20487500D02*
X57537500Y-20012500D01*
X52062500Y-17212500D02*
X53937500Y-18012500D01*
X53937500Y-18012500D02*
X54512500Y-18587500D01*
X57537500Y-20012500D02*
X58812500Y-20012500D01*
X39337500Y-11312500D02*
X39812500Y-11312500D01*
X39112500Y-11537500D02*
X39312500Y-11337500D01*
X56962500Y-20512500D02*
X56987500Y-20487500D01*
X56987500Y-20487500D02*
X57037500Y-20487500D01*
X52362500Y-46487500D02*
X52887500Y-46487500D01*
X50412500Y-48062500D02*
X52362500Y-46487500D01*
X38487500Y-13937500D02*
X39112500Y-11537500D01*
X56037500Y-20737500D02*
X56287500Y-20687500D01*
X56287500Y-20687500D02*
X56837500Y-20512500D01*
%TO.N,VDD_NPU_S0*%
X58037500Y-24562500D02*
X57537500Y-25062500D01*
X51962500Y-48337500D02*
X52412500Y-48337500D01*
X57537500Y-21762500D02*
X57537500Y-23512500D01*
X61012500Y-36212500D02*
X60812500Y-36212500D01*
X51437500Y-48862500D02*
X51962500Y-48337500D01*
X57287500Y-21512500D02*
X57537500Y-21762500D01*
X50437500Y-48887500D02*
X51437500Y-48862500D01*
X61487500Y-38937500D02*
X61662500Y-38487500D01*
X56537500Y-21712500D02*
X56987500Y-21512500D01*
X61662500Y-38487500D02*
X61662500Y-36862500D01*
X49162500Y-48437500D02*
X50437500Y-48887500D01*
X56987500Y-21512500D02*
X57287500Y-21512500D01*
X58837500Y-24537500D02*
X58037500Y-24562500D01*
X61662500Y-36862500D02*
X61012500Y-36212500D01*
X51562500Y-14387500D02*
X53062500Y-13137500D01*
X57537500Y-23512500D02*
X56712500Y-24337500D01*
X59537500Y-25037500D02*
X58837500Y-24537500D01*
D32*
%TO.N,WIFI_CHIP_EN*%
X17287500Y-16387500D02*
X17062500Y-3512500D01*
%TO.N,WIFI_PD_GPIO*%
X37862500Y-18287500D02*
X35112500Y-18212500D01*
X35112500Y-18212500D02*
X33162500Y-18412500D01*
X33162500Y-18412500D02*
X32862500Y-18712500D01*
X32862500Y-18712500D02*
X28537500Y-18712500D01*
X38762500Y-17437500D02*
X37862500Y-18287500D01*
%TO.N,WIFI_USB_DM*%
X70312500Y-25212500D02*
X74462500Y-29362500D01*
X45112500Y-7262500D02*
X45112500Y-7337500D01*
X47262500Y-7912500D02*
X48837500Y-7862500D01*
X42587500Y-6912500D02*
X44787500Y-6937500D01*
X48837500Y-7862500D02*
X48937500Y-7762500D01*
X47237500Y-7887500D02*
X47262500Y-7912500D01*
X47137500Y-7787500D02*
X47237500Y-7887500D01*
X50312500Y-7812500D02*
X52937500Y-10437500D01*
X45112500Y-7337500D02*
X45487500Y-7712500D01*
X48937500Y-7762500D02*
X50312500Y-7812500D01*
X45487500Y-7712500D02*
X47137500Y-7787500D01*
X44787500Y-6937500D02*
X45112500Y-7262500D01*
%TO.N,WIFI_USB_DP*%
X70762500Y-25012500D02*
X75112500Y-29362500D01*
%TD*%
M02*
