M48
; DRILL file {KiCad 9.0.9-9.0.9~ubuntu24.04.1} date 2026-10-06T11:00:13+0000
; FORMAT={-:-/ absolute / metric / decimal}
; #@! TF.CreationDate,2026-10-06T11:00:13+00:00
; #@! TF.GenerationSoftware,Kicad,Pcbnew,9.0.9-9.0.9~ubuntu24.04.1
; #@! TF.FileFunction,Plated,1,10,PTH
FMAT,2
METRIC
; #@! TA.AperFunction,Plated,PTH,ViaDrill
T1C0.150
; #@! TA.AperFunction,Plated,PTH,ViaDrill
T2C0.200
; #@! TA.AperFunction,Plated,PTH,ComponentDrill
T3C0.200
; #@! TA.AperFunction,Plated,PTH,ComponentDrill
T4C0.500
; #@! TA.AperFunction,Plated,PTH,ComponentDrill
T5C0.600
; #@! TA.AperFunction,Plated,PTH,ComponentDrill
T6C0.700
; #@! TA.AperFunction,Plated,PTH,ComponentDrill
T7C0.900
; #@! TA.AperFunction,Plated,PTH,ComponentDrill
T8C0.910
; #@! TA.AperFunction,Plated,PTH,ComponentDrill
T9C0.920
; #@! TA.AperFunction,Plated,PTH,ComponentDrill
T10C1.000
; #@! TA.AperFunction,Plated,PTH,ComponentDrill
T11C1.100
; #@! TA.AperFunction,Plated,PTH,ComponentDrill
T12C1.651
; #@! TA.AperFunction,Plated,PTH,ComponentDrill
T13C2.300
; #@! TA.AperFunction,Plated,PTH,ComponentDrill
T14C2.700
%
G90
G05
T1
X4.062Y-54.662
X19.4Y-27.4
X19.4Y-28.1
X19.4Y-28.8
X19.4Y-29.5
X19.4Y-30.2
X19.4Y-30.9
X19.4Y-31.6
X19.4Y-32.3
X19.4Y-33.0
X19.4Y-33.7
X19.4Y-34.4
X19.4Y-35.8
X19.4Y-36.5
X19.4Y-37.2
X19.4Y-37.9
X19.4Y-38.6
X20.2Y-26.7
X20.2Y-27.4
X20.2Y-28.1
X20.2Y-28.8
X20.2Y-29.5
X20.2Y-30.2
X20.2Y-30.9
X20.2Y-31.6
X20.2Y-32.3
X20.2Y-33.0
X20.2Y-33.7
X20.2Y-34.4
X20.2Y-35.1
X20.2Y-35.8
X20.2Y-36.5
X20.2Y-37.2
X20.2Y-37.9
X20.2Y-38.6
X20.2Y-39.3
X20.488Y-20.062
X20.562Y-24.062
X21.0Y-26.0
X21.0Y-26.7
X21.0Y-27.4
X21.0Y-28.1
X21.0Y-28.8
X21.0Y-29.5
X21.0Y-30.2
X21.0Y-30.9
X21.0Y-31.6
X21.0Y-32.3
X21.0Y-33.0
X21.0Y-33.7
X21.0Y-34.4
X21.0Y-35.1
X21.0Y-35.8
X21.0Y-36.5
X21.0Y-37.2
X21.0Y-37.9
X21.0Y-38.6
X21.0Y-39.3
X21.0Y-40.0
X21.8Y-26.0
X21.8Y-26.7
X21.8Y-27.4
X21.8Y-28.1
X21.8Y-28.8
X21.8Y-29.5
X21.8Y-30.2
X21.8Y-30.9
X21.8Y-32.3
X21.8Y-33.0
X21.8Y-33.7
X21.8Y-34.4
X21.8Y-35.1
X21.8Y-35.8
X21.8Y-36.5
X21.8Y-37.2
X21.8Y-37.9
X21.8Y-38.6
X21.8Y-39.3
X21.8Y-40.0
X22.137Y-20.812
X22.6Y-26.0
X22.6Y-26.7
X22.6Y-27.4
X22.6Y-28.1
X22.6Y-28.8
X22.6Y-29.5
X22.6Y-30.2
X22.6Y-30.9
X22.6Y-31.6
X22.6Y-32.3
X22.6Y-33.0
X22.6Y-33.7
X22.6Y-34.4
X22.6Y-35.1
X22.6Y-35.8
X22.6Y-36.5
X22.6Y-37.2
X22.6Y-37.9
X22.6Y-38.6
X22.6Y-39.3
X22.6Y-40.0
X23.4Y-26.0
X23.4Y-26.7
X23.4Y-27.4
X23.4Y-28.1
X23.4Y-28.8
X23.4Y-29.5
X23.4Y-30.2
X23.4Y-30.9
X23.4Y-32.3
X23.4Y-33.0
X23.4Y-33.7
X23.4Y-34.4
X23.4Y-35.1
X23.4Y-35.8
X23.4Y-36.5
X23.4Y-37.2
X23.4Y-37.9
X23.4Y-38.6
X23.4Y-39.3
X23.4Y-40.0
X23.662Y-30.537
X24.162Y-23.962
X24.2Y-26.0
X24.2Y-26.7
X24.2Y-27.4
X24.2Y-28.1
X24.2Y-28.8
X24.2Y-29.5
X24.2Y-30.2
X24.2Y-30.9
X24.2Y-31.6
X24.2Y-32.3
X24.2Y-33.0
X24.2Y-33.7
X24.2Y-34.4
X24.2Y-35.1
X24.2Y-35.8
X24.2Y-36.5
X24.2Y-37.2
X24.2Y-37.9
X24.2Y-38.6
X24.2Y-39.3
X24.2Y-40.0
X25.0Y-26.0
X25.0Y-26.7
X25.0Y-27.4
X25.0Y-28.1
X25.0Y-28.8
X25.0Y-29.5
X25.0Y-30.2
X25.0Y-30.9
X25.0Y-31.6
X25.0Y-32.3
X25.0Y-33.0
X25.0Y-33.7
X25.0Y-34.4
X25.0Y-35.1
X25.0Y-35.8
X25.0Y-36.5
X25.0Y-37.2
X25.0Y-37.9
X25.0Y-38.6
X25.0Y-39.3
X25.0Y-40.0
X25.287Y-30.537
X25.412Y-30.012
X25.8Y-26.0
X25.8Y-26.7
X25.8Y-27.4
X25.8Y-28.1
X25.8Y-28.8
X25.8Y-29.5
X25.8Y-30.2
X25.8Y-30.9
X25.8Y-31.6
X25.8Y-32.3
X25.8Y-33.0
X25.8Y-33.7
X25.8Y-34.4
X25.8Y-35.1
X25.8Y-35.8
X25.8Y-36.5
X25.8Y-37.2
X25.8Y-37.9
X25.8Y-38.6
X25.8Y-39.3
X25.8Y-40.0
X26.287Y-21.587
X26.6Y-26.0
X26.6Y-26.7
X26.6Y-27.4
X26.6Y-28.1
X26.6Y-28.8
X26.6Y-29.5
X26.6Y-30.2
X26.6Y-30.9
X26.6Y-31.6
X26.6Y-32.3
X26.6Y-33.0
X26.6Y-33.7
X26.6Y-34.4
X26.6Y-35.1
X26.6Y-35.8
X26.6Y-36.5
X26.6Y-37.2
X26.6Y-37.9
X26.6Y-38.6
X26.6Y-39.3
X26.6Y-40.0
X27.012Y-23.987
X27.4Y-26.0
X27.4Y-26.7
X27.4Y-27.4
X27.4Y-28.1
X27.4Y-28.8
X27.4Y-29.5
X27.4Y-30.2
X27.4Y-30.9
X27.4Y-31.6
X27.4Y-32.3
X27.4Y-33.0
X27.4Y-33.7
X27.4Y-34.4
X27.4Y-35.1
X27.4Y-35.8
X27.4Y-36.5
X27.4Y-37.2
X27.4Y-37.9
X27.4Y-38.6
X27.4Y-39.3
X27.4Y-40.0
X27.887Y-28.412
X28.2Y-26.0
X28.2Y-26.7
X28.2Y-27.4
X28.2Y-28.1
X28.2Y-28.8
X28.2Y-29.5
X28.2Y-30.2
X28.2Y-30.9
X28.2Y-31.6
X28.2Y-32.3
X28.2Y-33.0
X28.2Y-33.7
X28.2Y-34.4
X28.2Y-35.1
X28.2Y-35.8
X28.2Y-36.5
X28.2Y-37.2
X28.2Y-37.9
X28.2Y-38.6
X28.2Y-39.3
X28.2Y-40.0
X28.537Y-25.662
X28.662Y-40.262
X28.712Y-23.637
X29.0Y-26.0
X29.0Y-26.7
X29.0Y-27.4
X29.0Y-28.1
X29.0Y-28.8
X29.0Y-29.5
X29.0Y-30.2
X29.0Y-30.9
X29.0Y-31.6
X29.0Y-32.3
X29.0Y-33.0
X29.0Y-33.7
X29.0Y-34.4
X29.0Y-35.1
X29.0Y-35.8
X29.0Y-36.5
X29.0Y-37.2
X29.0Y-37.9
X29.0Y-38.6
X29.0Y-39.3
X29.0Y-40.0
X29.537Y-19.637
X29.762Y-21.688
X29.8Y-26.7
X29.8Y-27.4
X29.8Y-28.1
X29.8Y-28.8
X29.8Y-29.5
X29.8Y-30.2
X29.8Y-30.9
X29.8Y-31.6
X29.8Y-32.3
X29.8Y-33.0
X29.8Y-33.7
X29.8Y-34.4
X29.8Y-35.1
X29.8Y-35.8
X29.8Y-36.5
X29.8Y-37.2
X29.8Y-37.9
X29.8Y-38.6
X29.8Y-39.3
X29.812Y-51.212
X30.337Y-34.737
X30.6Y-27.4
X30.6Y-28.1
X30.6Y-28.8
X30.6Y-29.5
X30.6Y-30.2
X30.6Y-30.9
X30.6Y-31.6
X30.6Y-32.3
X30.6Y-33.0
X30.6Y-33.7
X30.6Y-34.4
X30.6Y-35.8
X30.6Y-36.5
X30.6Y-37.2
X30.6Y-37.9
X30.6Y-38.6
X30.987Y-39.288
X31.412Y-37.188
X31.737Y-35.637
X31.912Y-39.212
X32.112Y-36.487
X32.837Y-37.887
X32.837Y-39.512
X33.112Y-35.538
X33.188Y-30.037
X33.938Y-40.612
X34.462Y-38.512
X34.562Y-62.462
X35.913Y-50.112
X36.038Y-24.012
X36.038Y-62.462
X36.413Y-25.312
X36.737Y-39.137
X36.962Y-35.462
X37.038Y-50.962
X37.087Y-23.037
X37.112Y-47.062
X37.3Y-24.75
X37.3Y-25.3
X37.3Y-25.85
X37.3Y-26.4
X37.3Y-26.95
X37.3Y-28.05
X37.3Y-28.6
X37.3Y-29.7
X37.3Y-30.25
X37.3Y-31.35
X37.3Y-31.9
X37.3Y-33.0
X37.3Y-33.55
X37.3Y-34.65
X37.3Y-35.2
X37.3Y-36.3
X37.3Y-36.85
X37.3Y-37.95
X37.3Y-38.5
X37.3Y-39.6
X37.3Y-40.15
X37.3Y-41.25
X37.562Y-3.262
X37.688Y-50.512
X37.712Y-20.212
X37.8Y-25.8
X37.8Y-26.4
X37.8Y-27.0
X37.8Y-27.6
X37.8Y-28.2
X37.8Y-28.8
X37.8Y-29.4
X37.8Y-30.0
X37.8Y-30.6
X37.8Y-31.2
X37.8Y-31.8
X37.8Y-32.4
X37.8Y-33.0
X37.8Y-33.6
X37.8Y-34.2
X37.8Y-34.8
X37.8Y-35.4
X37.8Y-36.0
X37.8Y-36.6
X37.8Y-37.2
X37.8Y-37.8
X37.8Y-38.4
X37.8Y-39.0
X37.8Y-39.6
X37.8Y-40.2
X37.85Y-24.75
X37.85Y-25.3
X37.85Y-40.7
X37.85Y-41.25
X38.038Y-46.163
X38.4Y-24.75
X38.4Y-25.3
X38.4Y-25.8
X38.4Y-26.4
X38.4Y-27.0
X38.4Y-27.6
X38.4Y-28.2
X38.4Y-28.8
X38.4Y-29.4
X38.4Y-30.0
X38.4Y-30.6
X38.4Y-31.2
X38.4Y-31.8
X38.4Y-32.4
X38.4Y-33.0
X38.4Y-33.6
X38.4Y-34.2
X38.4Y-34.8
X38.4Y-35.4
X38.4Y-36.0
X38.4Y-36.6
X38.4Y-37.2
X38.4Y-37.8
X38.4Y-38.4
X38.4Y-39.0
X38.4Y-40.2
X38.4Y-40.7
X38.4Y-41.25
X38.788Y-49.737
X38.788Y-51.688
X38.812Y-44.387
X38.95Y-24.75
X38.95Y-25.3
X38.95Y-40.7
X38.95Y-41.25
X39.0Y-25.8
X39.0Y-26.4
X39.0Y-27.0
X39.0Y-27.6
X39.0Y-28.2
X39.0Y-28.8
X39.0Y-29.4
X39.0Y-30.0
X39.0Y-30.6
X39.0Y-31.2
X39.0Y-31.8
X39.0Y-32.4
X39.0Y-33.0
X39.0Y-33.6
X39.0Y-34.2
X39.0Y-34.8
X39.0Y-35.4
X39.0Y-36.0
X39.0Y-36.6
X39.0Y-37.2
X39.0Y-37.8
X39.0Y-38.4
X39.0Y-39.0
X39.0Y-39.6
X39.0Y-40.2
X39.5Y-24.75
X39.5Y-25.3
X39.6Y-27.0
X39.6Y-27.6
X39.6Y-28.2
X39.6Y-28.8
X39.6Y-29.4
X39.6Y-30.0
X39.6Y-30.6
X39.6Y-31.8
X39.6Y-32.4
X39.6Y-33.0
X39.6Y-33.6
X39.6Y-35.4
X39.6Y-36.0
X39.6Y-36.6
X39.6Y-37.2
X39.6Y-37.8
X39.6Y-38.4
X39.6Y-39.0
X39.6Y-40.2
X39.612Y-20.512
X39.737Y-45.862
X39.887Y-39.337
X39.938Y-10.862
X40.05Y-40.7
X40.2Y-27.6
X40.2Y-28.2
X40.2Y-28.8
X40.2Y-29.4
X40.2Y-30.0
X40.2Y-31.2
X40.2Y-31.8
X40.2Y-32.4
X40.2Y-33.0
X40.2Y-33.6
X40.2Y-34.2
X40.2Y-34.8
X40.2Y-35.4
X40.2Y-36.0
X40.2Y-36.6
X40.2Y-37.2
X40.2Y-37.8
X40.2Y-38.4
X40.2Y-39.0
X40.8Y-28.2
X40.8Y-28.8
X40.8Y-29.4
X40.8Y-30.0
X40.8Y-30.6
X40.8Y-31.2
X40.8Y-31.8
X40.8Y-32.4
X40.8Y-33.0
X40.8Y-33.6
X40.8Y-34.2
X40.8Y-34.8
X40.8Y-35.4
X40.8Y-36.0
X40.8Y-36.6
X40.8Y-37.2
X40.8Y-37.8
X40.8Y-38.4
X40.8Y-40.2
X41.15Y-41.25
X41.387Y-51.712
X41.4Y-25.8
X41.43Y-29.1
X41.43Y-29.75
X41.43Y-30.4
X41.43Y-31.05
X41.43Y-31.7
X41.43Y-32.35
X41.43Y-33.0
X41.43Y-33.65
X41.43Y-34.3
X41.43Y-34.95
X41.43Y-35.6
X41.43Y-36.25
X41.43Y-36.9
X41.43Y-37.55
X41.43Y-38.2
X41.43Y-38.85
X41.43Y-39.5
X41.43Y-40.15
X41.487Y-9.987
X41.538Y-44.663
X41.7Y-24.75
X41.7Y-25.3
X41.7Y-40.7
X41.7Y-41.25
X42.0Y-25.8
X42.038Y-14.037
X42.038Y-42.788
X42.08Y-29.1
X42.08Y-29.75
X42.08Y-30.4
X42.08Y-31.05
X42.08Y-31.7
X42.08Y-32.35
X42.08Y-33.0
X42.08Y-33.65
X42.08Y-34.3
X42.08Y-34.95
X42.08Y-35.6
X42.08Y-36.25
X42.08Y-36.9
X42.08Y-37.55
X42.08Y-39.5
X42.08Y-40.15
X42.25Y-25.3
X42.262Y-21.562
X42.6Y-25.8
X42.6Y-27.0
X42.663Y-28.688
X42.73Y-29.1
X42.73Y-29.75
X42.73Y-30.4
X42.73Y-31.05
X42.73Y-31.7
X42.73Y-32.35
X42.73Y-33.0
X42.73Y-33.65
X42.73Y-34.3
X42.73Y-34.95
X42.73Y-35.6
X42.73Y-36.25
X42.73Y-36.9
X42.73Y-37.55
X42.73Y-38.2
X42.73Y-39.5
X42.73Y-40.15
X42.8Y-24.75
X42.8Y-25.3
X42.962Y-53.587
X43.062Y-40.438
X43.2Y-25.8
X43.2Y-28.2
X43.237Y-46.737
X43.35Y-25.3
X43.38Y-29.1
X43.38Y-29.75
X43.38Y-30.4
X43.38Y-31.05
X43.38Y-31.7
X43.38Y-32.35
X43.38Y-33.0
X43.38Y-33.65
X43.38Y-34.3
X43.38Y-34.95
X43.38Y-35.6
X43.38Y-36.25
X43.38Y-36.9
X43.38Y-37.55
X43.38Y-38.2
X43.38Y-38.85
X43.38Y-39.5
X43.38Y-40.15
X43.487Y-27.862
X43.487Y-41.812
X43.512Y-28.662
X43.612Y-41.012
X43.688Y-14.862
X43.8Y-25.8
X43.9Y-24.75
X43.9Y-25.3
X44.02Y-29.1
X44.02Y-29.75
X44.02Y-30.4
X44.02Y-31.05
X44.02Y-31.7
X44.02Y-32.35
X44.02Y-33.0
X44.02Y-33.65
X44.02Y-34.3
X44.02Y-34.95
X44.02Y-35.6
X44.02Y-36.25
X44.02Y-36.9
X44.02Y-37.55
X44.02Y-38.2
X44.02Y-38.85
X44.02Y-39.5
X44.02Y-40.15
X44.112Y-40.962
X44.337Y-31.362
X44.387Y-37.913
X44.4Y-25.8
X44.45Y-40.7
X44.45Y-41.25
X44.562Y-49.287
X44.67Y-29.1
X44.67Y-29.75
X44.67Y-30.4
X44.67Y-31.05
X44.67Y-31.7
X44.67Y-32.35
X44.67Y-33.0
X44.67Y-33.65
X44.67Y-34.3
X44.67Y-34.95
X44.67Y-35.6
X44.67Y-36.25
X44.67Y-36.9
X44.67Y-37.55
X44.67Y-38.85
X44.67Y-39.5
X44.67Y-40.15
X44.762Y-28.562
X45.0Y-27.0
X45.0Y-28.2
X45.212Y-28.612
X45.212Y-51.387
X45.33Y-29.1
X45.33Y-29.75
X45.33Y-30.4
X45.33Y-31.05
X45.33Y-31.7
X45.33Y-32.35
X45.33Y-33.0
X45.33Y-33.65
X45.33Y-34.3
X45.33Y-34.95
X45.33Y-35.6
X45.33Y-36.25
X45.33Y-36.9
X45.33Y-37.55
X45.33Y-38.2
X45.33Y-38.85
X45.33Y-39.5
X45.33Y-40.15
X45.362Y-46.212
X45.387Y-8.487
X45.462Y-5.388
X45.637Y-30.062
X45.663Y-34.663
X45.663Y-37.262
X45.663Y-55.262
X45.688Y-46.812
X45.788Y-45.712
X45.98Y-29.1
X45.98Y-29.75
X45.98Y-30.4
X45.98Y-31.05
X45.98Y-31.7
X45.98Y-32.35
X45.98Y-33.0
X45.98Y-33.65
X45.98Y-34.3
X45.98Y-34.95
X45.98Y-35.6
X45.98Y-36.25
X45.98Y-36.9
X45.98Y-37.55
X45.98Y-38.2
X45.98Y-38.85
X45.98Y-39.5
X45.98Y-40.15
X46.087Y-41.762
X46.387Y-24.062
X46.538Y-8.487
X46.538Y-54.462
X46.63Y-29.1
X46.63Y-29.75
X46.63Y-30.4
X46.63Y-31.05
X46.63Y-31.7
X46.63Y-32.35
X46.63Y-33.0
X46.63Y-33.65
X46.63Y-34.3
X46.63Y-34.95
X46.63Y-35.6
X46.63Y-36.25
X46.63Y-36.9
X46.63Y-37.55
X46.63Y-38.2
X46.63Y-39.5
X46.63Y-40.15
X46.8Y-27.0
X46.8Y-28.2
X46.812Y-48.737
X47.012Y-22.312
X47.038Y-51.562
X47.112Y-46.612
X47.162Y-24.362
X47.28Y-29.1
X47.28Y-29.75
X47.28Y-30.4
X47.28Y-31.05
X47.28Y-31.7
X47.28Y-33.0
X47.28Y-33.65
X47.28Y-34.3
X47.28Y-34.95
X47.28Y-35.6
X47.28Y-36.25
X47.28Y-36.9
X47.28Y-37.55
X47.28Y-38.2
X47.28Y-38.85
X47.28Y-39.5
X47.28Y-40.15
X47.512Y-53.962
X47.587Y-36.587
X47.812Y-54.537
X47.837Y-51.362
X47.93Y-29.1
X47.93Y-29.75
X47.93Y-30.4
X47.93Y-31.7
X47.93Y-32.35
X47.93Y-33.0
X47.93Y-33.65
X47.93Y-34.3
X47.93Y-34.95
X47.93Y-36.25
X47.93Y-36.9
X47.93Y-37.55
X47.93Y-38.2
X47.93Y-38.85
X47.93Y-39.5
X47.93Y-40.15
X48.112Y-48.987
X48.287Y-39.137
X48.462Y-53.587
X48.487Y-24.412
X48.512Y-51.637
X48.58Y-29.1
X48.58Y-29.75
X48.58Y-30.4
X48.58Y-31.7
X48.58Y-32.35
X48.58Y-33.0
X48.58Y-33.65
X48.58Y-34.3
X48.58Y-34.95
X48.58Y-35.6
X48.58Y-36.25
X48.58Y-36.9
X48.58Y-37.55
X48.58Y-38.2
X48.58Y-40.15
X48.587Y-28.688
X48.637Y-19.712
X48.662Y-48.912
X49.112Y-52.188
X49.162Y-48.438
X49.2Y-28.8
X49.2Y-29.4
X49.2Y-30.0
X49.2Y-30.6
X49.2Y-31.2
X49.2Y-31.8
X49.2Y-32.4
X49.2Y-33.0
X49.2Y-33.6
X49.2Y-34.8
X49.2Y-35.4
X49.2Y-37.2
X49.2Y-37.8
X49.2Y-38.4
X49.2Y-39.0
X49.2Y-39.6
X49.2Y-40.2
X49.262Y-34.362
X49.262Y-41.762
X49.287Y-42.688
X49.362Y-9.537
X49.4Y-24.75
X49.4Y-25.3
X49.462Y-26.087
X49.662Y-41.462
X49.8Y-25.8
X49.8Y-26.4
X49.8Y-27.0
X49.8Y-28.8
X49.8Y-29.4
X49.8Y-30.0
X49.8Y-30.6
X49.8Y-31.2
X49.8Y-31.8
X49.8Y-32.4
X49.8Y-33.0
X49.8Y-33.6
X49.8Y-34.8
X49.8Y-35.4
X49.8Y-37.2
X49.8Y-37.8
X49.8Y-38.4
X49.8Y-39.0
X49.8Y-40.2
X49.95Y-25.3
X50.137Y-31.462
X50.262Y-45.887
X50.312Y-54.487
X50.362Y-52.412
X50.4Y-27.6
X50.4Y-28.8
X50.4Y-29.4
X50.4Y-30.6
X50.4Y-31.8
X50.4Y-32.4
X50.4Y-33.0
X50.4Y-33.6
X50.4Y-34.8
X50.4Y-36.6
X50.4Y-37.8
X50.4Y-38.4
X50.412Y-48.062
X50.462Y-34.362
X50.5Y-24.75
X50.5Y-25.3
X50.5Y-40.7
X50.5Y-41.25
X50.688Y-39.262
X50.862Y-15.562
X51.0Y-27.6
X51.0Y-28.2
X51.0Y-28.8
X51.0Y-29.4
X51.0Y-30.6
X51.0Y-33.0
X51.0Y-34.8
X51.0Y-38.4
X51.0Y-39.6
X51.0Y-40.2
X51.05Y-40.7
X51.05Y-41.25
X51.287Y-38.087
X51.362Y-43.038
X51.6Y-25.8
X51.6Y-26.4
X51.6Y-27.0
X51.6Y-27.6
X51.6Y-28.2
X51.6Y-28.8
X51.6Y-29.4
X51.6Y-30.0
X51.6Y-30.6
X51.6Y-31.2
X51.6Y-31.8
X51.6Y-32.4
X51.6Y-33.0
X51.6Y-33.6
X51.6Y-34.8
X51.6Y-35.4
X51.6Y-37.2
X51.6Y-37.8
X51.6Y-38.4
X51.6Y-39.0
X51.6Y-39.6
X51.6Y-40.2
X51.6Y-40.7
X51.787Y-42.587
X51.812Y-41.512
X51.837Y-20.387
X51.837Y-49.938
X52.037Y-11.112
X52.037Y-11.912
X52.15Y-26.4
X52.15Y-26.95
X52.15Y-27.5
X52.15Y-28.05
X52.15Y-30.8
X52.15Y-31.35
X52.15Y-31.9
X52.15Y-32.45
X52.15Y-33.0
X52.15Y-33.55
X52.15Y-34.1
X52.15Y-34.65
X52.15Y-35.2
X52.15Y-35.75
X52.15Y-40.15
X52.15Y-40.7
X52.15Y-41.25
X52.237Y-53.537
X52.387Y-12.412
X52.412Y-38.163
X52.412Y-48.337
X52.7Y-24.75
X52.7Y-25.85
X52.7Y-26.95
X52.7Y-28.05
X52.7Y-30.8
X52.7Y-31.35
X52.7Y-31.9
X52.7Y-32.45
X52.7Y-33.0
X52.7Y-33.55
X52.7Y-35.2
X52.7Y-40.15
X52.7Y-40.7
X52.7Y-41.25
X52.762Y-42.462
X52.862Y-34.387
X52.887Y-46.487
X52.938Y-43.012
X53.062Y-31.587
X53.062Y-40.462
X53.188Y-48.412
X53.438Y-35.962
X53.537Y-29.337
X53.587Y-47.237
X53.887Y-32.012
X53.887Y-33.637
X53.912Y-53.938
X53.938Y-25.837
X54.012Y-27.312
X54.012Y-39.312
X54.162Y-43.062
X54.312Y-54.462
X54.462Y-44.487
X54.537Y-31.712
X54.662Y-43.938
X54.912Y-39.387
X55.062Y-41.512
X55.087Y-37.038
X55.512Y-29.537
X55.587Y-26.887
X55.712Y-25.162
X55.837Y-37.512
X55.887Y-34.137
X55.912Y-48.337
X56.012Y-35.587
X56.012Y-37.112
X56.037Y-20.738
X56.188Y-39.762
X56.462Y-18.462
X56.688Y-23.887
X56.787Y-22.162
X57.012Y-37.038
X57.037Y-30.037
X57.037Y-32.062
X57.212Y-22.962
X57.212Y-44.487
X57.387Y-38.413
X57.487Y-39.038
X57.537Y-25.062
X57.562Y-30.712
X58.438Y-25.662
X58.787Y-23.812
X58.912Y-42.012
X59.087Y-30.562
X59.087Y-34.362
X59.137Y-18.462
X59.137Y-36.038
X59.212Y-23.837
X59.512Y-22.012
X59.537Y-20.738
X59.537Y-25.037
X60.412Y-27.062
X60.487Y-13.112
X61.112Y-46.512
X61.137Y-23.688
X61.688Y-54.688
X62.262Y-14.887
X63.25Y-18.25
X63.25Y-18.75
X63.25Y-23.75
X63.612Y-24.787
X63.75Y-17.75
X63.75Y-18.25
X63.75Y-24.25
X64.112Y-20.312
X64.25Y-17.75
X64.25Y-18.25
X64.25Y-18.75
X64.25Y-23.25
X64.25Y-23.75
X64.25Y-24.25
X64.75Y-17.75
X64.75Y-18.25
X64.75Y-20.25
X64.75Y-20.75
X64.75Y-21.25
X64.75Y-21.75
X64.75Y-22.25
X64.75Y-23.25
X64.75Y-23.75
X64.75Y-24.25
X65.25Y-17.75
X65.25Y-18.25
X65.25Y-18.75
X65.25Y-19.75
X65.25Y-23.25
X65.25Y-24.25
X65.75Y-19.75
X66.087Y-35.612
X66.087Y-58.688
X66.25Y-22.25
X66.75Y-22.25
X66.888Y-63.537
X67.25Y-21.25
X67.25Y-21.75
X68.612Y-60.562
X68.862Y-39.962
X68.862Y-41.663
X69.087Y-61.337
X69.638Y-54.737
X69.688Y-23.812
X70.312Y-66.737
X71.462Y-30.688
X71.737Y-40.862
X71.837Y-56.938
X72.312Y-63.362
X72.688Y-62.987
X73.037Y-7.137
X73.388Y-21.262
X73.513Y-18.863
X74.112Y-62.762
X74.562Y-40.137
X78.487Y-19.988
X84.587Y-18.662
X84.587Y-19.662
X86.487Y-14.212
T2
X3.25Y-43.355
X3.28Y-16.5
X4.15Y-56.855
X4.263Y-15.637
X4.263Y-16.537
X4.388Y-32.913
X4.557Y-40.537
X4.712Y-16.337
X4.879Y-24.154
X4.879Y-37.654
X5.062Y-19.387
X5.337Y-57.438
X5.421Y-37.855
X5.505Y-59.03
X5.517Y-40.537
X5.662Y-54.162
X5.712Y-58.0
X5.74Y-9.5
X5.763Y-52.987
X5.78Y-32.5
X5.812Y-52.312
X5.837Y-18.613
X6.126Y-21.626
X6.126Y-28.626
X6.387Y-13.987
X6.525Y-11.525
X6.525Y-14.475
X6.612Y-58.587
X6.7Y-23.5
X7.4Y-56.855
X7.462Y-20.287
X7.462Y-27.287
X7.534Y-17.544
X7.649Y-39.837
X7.712Y-21.363
X7.712Y-22.462
X7.712Y-28.362
X7.712Y-29.462
X7.811Y-37.702
X7.975Y-19.05
X7.975Y-20.95
X7.975Y-26.05
X7.975Y-27.95
X7.975Y-33.05
X7.975Y-34.95
X8.005Y-59.03
X8.11Y-39.476
X8.11Y-40.426
X8.188Y-17.312
X8.287Y-19.512
X8.3Y-65.846
X8.438Y-34.987
X8.48Y-37.76
X8.512Y-26.337
X8.78Y-7.5
X8.78Y-9.0
X8.812Y-20.613
X9.938Y-27.462
X10.0Y-65.846
X10.237Y-38.737
X10.25Y-20.0
X10.25Y-27.0
X10.25Y-34.0
X10.483Y-37.963
X10.505Y-59.03
X10.78Y-62.305
X10.879Y-23.654
X11.412Y-58.688
X11.534Y-27.544
X11.534Y-34.544
X11.557Y-40.537
X11.625Y-39.38
X11.715Y-29.211
X11.837Y-7.337
X12.237Y-53.887
X12.35Y-4.83
X12.35Y-11.97
X12.379Y-20.654
X12.379Y-25.654
X12.7Y-23.0
X12.74Y-38.5
X12.74Y-40.0
X12.762Y-63.987
X13.005Y-59.03
X13.057Y-32.037
X13.057Y-33.537
X13.28Y-62.305
X13.379Y-29.654
X13.392Y-57.597
X13.412Y-40.688
X13.557Y-18.037
X13.737Y-52.938
X14.0Y-65.846
X14.057Y-27.537
X14.057Y-37.537
X14.057Y-39.037
X14.188Y-42.262
X14.2Y-20.0
X14.2Y-25.0
X14.24Y-31.5
X14.24Y-33.0
X14.24Y-34.5
X14.74Y-17.5
X15.005Y-41.03
X15.2Y-29.0
X15.237Y-33.762
X15.24Y-27.0
X15.24Y-37.0
X15.24Y-38.5
X15.262Y-37.887
X15.412Y-31.637
X15.505Y-59.03
X15.712Y-39.913
X15.737Y-63.737
X15.78Y-22.0
X15.78Y-62.305
X15.879Y-31.654
X15.879Y-33.654
X15.879Y-35.654
X16.262Y-55.237
X16.311Y-25.202
X16.311Y-26.702
X16.425Y-64.76
X16.512Y-47.612
X16.557Y-28.037
X16.557Y-37.537
X16.557Y-39.037
X16.557Y-40.537
X16.787Y-17.787
X17.062Y-3.512
X17.25Y-19.45
X17.271Y-25.202
X17.287Y-16.387
X17.557Y-23.537
X17.562Y-49.062
X17.7Y-31.0
X17.7Y-33.0
X17.7Y-35.0
X17.74Y-27.5
X17.74Y-29.0
X17.74Y-37.0
X17.74Y-38.5
X17.74Y-40.0
X18.0Y-45.705
X18.0Y-50.555
X18.0Y-52.755
X18.262Y-22.087
X18.28Y-21.5
X18.287Y-60.337
X18.412Y-22.562
X18.562Y-23.562
X18.637Y-25.262
X18.662Y-34.062
X18.662Y-34.562
X18.712Y-43.837
X18.887Y-26.837
X18.962Y-16.387
X19.012Y-38.938
X19.037Y-27.762
X19.212Y-24.387
X19.512Y-53.612
X19.557Y-44.537
X19.637Y-22.938
X19.738Y-24.688
X19.887Y-27.062
X20.057Y-22.537
X20.057Y-24.037
X20.057Y-43.037
X20.188Y-51.712
X20.637Y-51.962
X20.74Y-44.0
X20.912Y-41.612
X20.962Y-24.688
X21.057Y-22.537
X21.057Y-24.037
X21.137Y-21.412
X21.225Y-20.925
X21.24Y-22.0
X21.24Y-23.5
X21.24Y-42.5
X21.287Y-45.163
X21.337Y-22.938
X21.337Y-29.112
X21.462Y-32.612
X21.488Y-28.462
X21.712Y-20.613
X21.729Y-21.298
X21.74Y-17.5
X21.771Y-22.702
X21.975Y-60.0
X22.034Y-57.544
X22.057Y-44.537
X22.363Y-22.012
X22.443Y-22.537
X22.557Y-21.037
X22.557Y-24.037
X22.557Y-43.037
X22.637Y-51.337
X22.787Y-60.312
X22.962Y-26.387
X23.037Y-29.162
X23.137Y-19.537
X23.188Y-20.787
X23.238Y-20.012
X23.24Y-44.0
X23.28Y-45.5
X23.379Y-18.654
X23.512Y-18.188
X23.562Y-21.287
X23.612Y-24.162
X23.612Y-59.362
X23.7Y-20.0
X23.712Y-38.962
X23.737Y-26.337
X23.74Y-42.5
X23.818Y-21.709
X23.879Y-23.154
X23.983Y-21.037
X23.987Y-20.387
X24.037Y-60.462
X24.15Y-5.33
X24.15Y-14.13
X24.25Y-60.0
X24.487Y-40.362
X24.562Y-36.237
X24.562Y-36.837
X24.612Y-38.137
X24.637Y-26.962
X24.712Y-25.462
X24.879Y-45.154
X25.057Y-24.037
X25.057Y-43.037
X25.062Y-52.312
X25.2Y-18.0
X25.379Y-21.154
X25.412Y-28.387
X25.557Y-7.537
X25.7Y-22.5
X25.867Y-9.654
X25.879Y-11.654
X26.212Y-22.037
X26.24Y-20.5
X26.24Y-42.5
X26.487Y-53.212
X26.7Y-44.5
X26.74Y-7.0
X26.887Y-21.662
X26.9Y-5.075
X26.929Y-21.154
X27.112Y-19.262
X27.287Y-17.087
X27.379Y-13.654
X27.379Y-23.654
X27.466Y-19.956
X27.487Y-21.537
X27.557Y-22.537
X27.557Y-43.037
X27.612Y-44.312
X27.612Y-52.162
X27.7Y-11.0
X27.712Y-9.0
X27.737Y-43.688
X27.762Y-30.637
X27.787Y-55.938
X27.812Y-34.712
X28.057Y-7.537
X28.057Y-44.537
X28.275Y-23.925
X28.462Y-17.087
X28.537Y-18.712
X28.579Y-20.145
X28.637Y-15.487
X28.688Y-21.162
X28.688Y-31.938
X28.74Y-22.0
X28.74Y-42.5
X29.2Y-13.0
X29.212Y-20.312
X29.24Y-7.0
X29.24Y-44.0
X29.312Y-33.337
X29.337Y-31.938
X29.37Y-22.646
X29.412Y-30.438
X29.438Y-34.062
X29.537Y-62.737
X29.75Y-55.975
X29.787Y-25.062
X29.912Y-19.087
X30.0Y-62.89
X30.062Y-24.612
X30.062Y-54.762
X30.137Y-52.562
X30.318Y-20.209
X30.38Y-19.125
X30.5Y-62.89
X30.587Y-24.837
X30.612Y-3.237
X30.612Y-23.762
X30.63Y-21.354
X30.737Y-55.087
X30.737Y-59.537
X30.879Y-9.154
X30.93Y-21.795
X30.983Y-22.537
X31.037Y-34.587
X31.05Y-5.075
X31.087Y-58.037
X31.112Y-21.312
X31.137Y-54.812
X31.162Y-56.662
X31.262Y-27.362
X31.287Y-30.512
X31.362Y-54.162
X31.462Y-33.237
X31.462Y-39.362
X31.487Y-34.387
X31.737Y-23.787
X31.78Y-52.925
X31.78Y-54.425
X31.812Y-59.537
X31.887Y-32.712
X32.237Y-33.562
X32.237Y-55.387
X32.288Y-39.512
X32.312Y-25.037
X32.337Y-30.812
X32.375Y-18.38
X32.387Y-27.337
X32.387Y-30.337
X32.387Y-31.737
X32.462Y-20.113
X32.512Y-33.163
X32.637Y-24.662
X32.688Y-34.587
X32.7Y-8.5
X32.7Y-23.0
X32.712Y-28.912
X32.737Y-35.062
X32.74Y-20.5
X32.78Y-19.0
X32.8Y-32.0
X32.837Y-18.312
X32.87Y-30.354
X32.871Y-33.855
X32.887Y-59.637
X32.913Y-37.262
X32.962Y-17.613
X32.962Y-25.712
X32.962Y-28.188
X33.012Y-26.188
X33.038Y-31.537
X33.188Y-38.663
X33.275Y-21.925
X33.337Y-18.812
X33.337Y-48.412
X33.387Y-37.163
X33.438Y-26.737
X33.487Y-22.938
X33.5Y-62.89
X33.52Y-19.26
X33.663Y-37.837
X33.725Y-28.925
X33.725Y-34.925
X33.818Y-27.209
X33.862Y-52.262
X33.887Y-20.037
X33.9Y-5.075
X33.938Y-48.512
X33.962Y-59.812
X33.983Y-35.537
X33.987Y-38.512
X34.02Y-22.26
X34.057Y-20.537
X34.057Y-48.037
X34.112Y-23.562
X34.112Y-24.688
X34.163Y-33.512
X34.188Y-57.162
X34.212Y-36.512
X34.229Y-25.298
X34.237Y-53.212
X34.25Y-51.975
X34.25Y-55.975
X34.312Y-50.737
X34.379Y-8.654
X34.379Y-26.654
X34.387Y-59.512
X34.45Y-44.0
X34.52Y-30.51
X34.562Y-31.162
X34.689Y-22.202
X34.712Y-25.387
X34.788Y-41.012
X34.812Y-39.487
X34.987Y-26.787
X35.0Y-62.89
X35.012Y-19.262
X35.057Y-25.037
X35.126Y-13.626
X35.163Y-20.512
X35.163Y-36.512
X35.188Y-38.237
X35.24Y-20.0
X35.24Y-47.5
X35.28Y-49.0
X35.28Y-50.425
X35.337Y-16.412
X35.44Y-18.5
X35.48Y-17.0
X35.538Y-17.512
X35.55Y-22.675
X35.663Y-45.387
X35.7Y-33.0
X35.737Y-24.737
X35.737Y-26.237
X35.737Y-27.737
X35.737Y-45.862
X35.762Y-35.987
X35.812Y-50.562
X35.887Y-23.462
X35.887Y-53.512
X35.887Y-59.087
X35.938Y-38.387
X35.987Y-16.162
X35.987Y-20.837
X36.012Y-40.163
X36.02Y-17.26
X36.038Y-43.663
X36.137Y-39.462
X36.163Y-33.012
X36.2Y-8.0
X36.2Y-26.0
X36.2Y-28.0
X36.2Y-30.0
X36.2Y-31.0
X36.2Y-32.0
X36.2Y-34.0
X36.212Y-24.787
X36.24Y-29.0
X36.24Y-35.0
X36.24Y-36.0
X36.24Y-37.5
X36.28Y-39.0
X36.387Y-24.312
X36.443Y-15.963
X36.5Y-62.89
X36.512Y-50.537
X36.52Y-21.76
X36.557Y-20.037
X36.557Y-47.037
X36.562Y-48.512
X36.637Y-29.412
X36.688Y-33.087
X36.688Y-40.837
X36.712Y-28.938
X36.712Y-35.087
X36.737Y-35.862
X36.788Y-40.262
X36.862Y-25.362
X36.862Y-26.237
X36.862Y-27.987
X36.938Y-36.587
X36.962Y-34.337
X36.962Y-59.812
X37.038Y-50.512
X37.038Y-56.462
X37.057Y-50.037
X37.062Y-44.038
X37.087Y-57.438
X37.137Y-20.162
X37.137Y-54.537
X37.188Y-22.238
X37.288Y-42.587
X37.288Y-58.162
X37.312Y-19.262
X37.337Y-24.312
X37.438Y-30.912
X37.557Y-44.037
X37.557Y-45.537
X37.557Y-57.462
X37.74Y-18.0
X37.74Y-46.5
X37.74Y-48.0
X37.762Y-51.512
X37.762Y-52.112
X37.812Y-24.312
X37.879Y-8.654
X37.902Y-19.79
X37.987Y-14.938
X37.987Y-22.462
X38.0Y-62.89
X38.012Y-14.112
X38.012Y-17.613
X38.05Y-5.075
X38.062Y-48.487
X38.137Y-42.712
X38.163Y-11.438
X38.24Y-49.5
X38.262Y-21.462
X38.362Y-17.137
X38.483Y-23.037
X38.487Y-13.938
X38.487Y-45.413
X38.512Y-48.262
X38.536Y-21.95
X38.663Y-41.612
X38.712Y-15.887
X38.74Y-43.5
X38.74Y-45.0
X38.74Y-56.925
X38.74Y-58.425
X38.762Y-17.438
X38.78Y-52.425
X38.78Y-53.925
X38.78Y-55.425
X38.811Y-18.702
X39.012Y-23.887
X39.057Y-17.037
X39.057Y-20.037
X39.137Y-41.663
X39.163Y-57.812
X39.212Y-58.688
X39.311Y-21.702
X39.362Y-10.287
X39.379Y-47.654
X39.387Y-12.787
X39.387Y-42.887
X39.387Y-50.387
X39.413Y-26.587
X39.438Y-44.387
X39.512Y-11.713
X39.512Y-23.962
X39.512Y-47.188
X39.557Y-49.537
X39.557Y-51.037
X39.7Y-8.0
X39.737Y-26.188
X39.812Y-11.312
X39.862Y-21.537
X39.887Y-18.688
X39.913Y-11.987
X40.0Y-14.0
X40.012Y-9.588
X40.012Y-23.537
X40.038Y-40.212
X40.038Y-51.087
X40.057Y-44.037
X40.057Y-45.537
X40.2Y-11.6
X40.2Y-12.4
X40.205Y-13.52
X40.237Y-22.238
X40.24Y-15.0
X40.24Y-16.5
X40.24Y-18.0
X40.24Y-19.5
X40.337Y-14.462
X40.337Y-58.062
X40.362Y-18.738
X40.438Y-39.938
X40.487Y-23.662
X40.538Y-27.287
X40.587Y-16.837
X40.737Y-24.087
X40.74Y-21.0
X40.74Y-49.0
X40.74Y-50.5
X40.75Y-22.95
X40.762Y-17.587
X40.812Y-42.587
X40.9Y-5.075
X40.938Y-48.512
X40.983Y-20.463
X40.987Y-49.512
X41.062Y-50.862
X41.163Y-24.337
X41.182Y-43.791
X41.2Y-47.0
X41.212Y-20.887
X41.24Y-45.0
X41.28Y-56.925
X41.387Y-7.637
X41.387Y-23.287
X41.387Y-28.612
X41.413Y-19.488
X41.438Y-16.363
X41.487Y-10.787
X41.487Y-17.188
X41.538Y-44.137
X41.562Y-43.188
X41.587Y-49.387
X41.637Y-20.412
X41.663Y-8.088
X41.712Y-43.663
X41.762Y-14.637
X41.762Y-23.962
X41.762Y-26.188
X41.788Y-38.487
X41.8Y-16.8
X41.812Y-18.113
X41.812Y-50.612
X41.837Y-51.637
X41.879Y-19.654
X41.925Y-8.8
X41.925Y-10.4
X41.925Y-11.2
X41.925Y-12.0
X41.925Y-12.8
X41.925Y-13.6
X41.938Y-45.987
X41.938Y-46.913
X42.057Y-18.537
X42.057Y-23.037
X42.057Y-49.537
X42.057Y-51.037
X42.2Y-7.2
X42.237Y-17.387
X42.438Y-8.963
X42.587Y-6.912
X42.587Y-7.612
X42.6Y-16.8
X42.612Y-41.837
X42.762Y-18.037
X42.862Y-17.337
X42.962Y-20.262
X42.987Y-20.887
X43.0Y-8.925
X43.012Y-39.137
X43.017Y-21.537
X43.038Y-23.062
X43.062Y-41.512
X43.087Y-59.837
X43.112Y-22.562
X43.237Y-6.162
X43.24Y-18.0
X43.24Y-49.0
X43.24Y-50.5
X43.288Y-4.737
X43.288Y-49.462
X43.33Y-16.734
X43.37Y-22.146
X43.387Y-8.487
X43.4Y-7.2
X43.438Y-27.312
X43.462Y-19.287
X43.462Y-48.212
X43.487Y-19.837
X43.712Y-21.787
X43.737Y-57.137
X43.78Y-52.0
X43.788Y-16.363
X43.8Y-8.925
X43.818Y-20.209
X43.871Y-18.855
X43.887Y-23.837
X43.887Y-48.462
X43.962Y-28.637
X43.987Y-26.212
X44.087Y-26.688
X44.112Y-15.112
X44.112Y-17.262
X44.2Y-16.8
X44.212Y-24.212
X44.512Y-8.963
X44.538Y-23.537
X44.587Y-3.262
X44.587Y-8.487
X44.587Y-17.087
X44.6Y-15.075
X44.688Y-18.637
X44.762Y-50.188
X44.788Y-7.362
X44.788Y-41.887
X44.812Y-19.113
X44.879Y-48.654
X44.879Y-50.654
X44.987Y-15.487
X44.987Y-38.512
X45.0Y-8.925
X45.012Y-54.188
X45.05Y-5.075
X45.237Y-14.862
X45.25Y-22.95
X45.288Y-25.562
X45.362Y-54.837
X45.4Y-7.2
X45.413Y-47.212
X45.637Y-23.262
X45.637Y-41.788
X45.663Y-28.762
X45.712Y-15.062
X45.712Y-56.387
X45.73Y-16.734
X45.737Y-23.887
X45.762Y-26.112
X45.788Y-6.912
X45.8Y-8.925
X45.862Y-49.262
X45.987Y-21.337
X46.012Y-42.212
X46.137Y-16.988
X46.137Y-43.312
X46.137Y-54.712
X46.2Y-7.2
X46.237Y-6.412
X46.237Y-45.688
X46.24Y-19.0
X46.24Y-20.5
X46.262Y-28.737
X46.262Y-55.762
X46.28Y-52.0
X46.45Y-44.0
X46.462Y-22.962
X46.462Y-27.337
X46.487Y-23.438
X46.487Y-24.887
X46.487Y-27.812
X46.487Y-49.537
X46.512Y-6.812
X46.562Y-14.887
X46.562Y-42.312
X46.587Y-19.988
X46.6Y-8.925
X46.6Y-16.8
X46.688Y-52.262
X46.7Y-18.0
X46.7Y-48.0
X46.7Y-50.0
X46.913Y-39.137
X46.987Y-50.537
X47.237Y-23.887
X47.237Y-47.062
X47.287Y-26.162
X47.337Y-17.438
X47.387Y-7.612
X47.462Y-21.887
X47.462Y-25.012
X47.512Y-54.887
X47.52Y-23.26
X47.562Y-32.087
X47.612Y-41.762
X47.688Y-19.212
X47.762Y-23.712
X47.762Y-44.438
X47.812Y-43.362
X47.818Y-13.167
X47.837Y-11.062
X47.879Y-19.654
X47.887Y-14.387
X47.887Y-24.188
X47.938Y-28.562
X47.962Y-15.188
X47.962Y-52.337
X48.05Y-12.0
X48.057Y-18.537
X48.057Y-44.037
X48.057Y-45.537
X48.057Y-48.537
X48.057Y-50.037
X48.087Y-42.262
X48.13Y-8.859
X48.212Y-13.438
X48.262Y-12.938
X48.262Y-15.938
X48.262Y-31.362
X48.312Y-17.262
X48.312Y-38.562
X48.337Y-12.462
X48.362Y-20.438
X48.587Y-9.062
X48.637Y-41.562
X48.688Y-6.062
X48.771Y-21.702
X48.837Y-11.862
X48.84Y-55.0
X48.938Y-17.162
X48.938Y-35.938
X49.012Y-27.737
X49.062Y-8.062
X49.062Y-46.962
X49.188Y-23.262
X49.212Y-18.637
X49.212Y-27.287
X49.237Y-45.538
X49.24Y-18.0
X49.24Y-43.5
X49.24Y-45.0
X49.24Y-46.5
X49.24Y-48.0
X49.24Y-49.5
X49.24Y-51.0
X49.287Y-17.512
X49.362Y-9.987
X49.483Y-21.537
X49.487Y-19.762
X49.487Y-27.887
X49.537Y-15.712
X49.537Y-44.612
X49.66Y-23.404
X49.662Y-16.738
X49.737Y-10.312
X49.737Y-24.438
X49.8Y-9.6
X49.8Y-10.8
X49.8Y-12.0
X49.8Y-12.8
X49.8Y-14.4
X49.862Y-8.438
X49.862Y-20.412
X49.912Y-15.137
X50.012Y-41.913
X50.062Y-22.812
X50.062Y-42.487
X50.137Y-10.037
X50.137Y-35.762
X50.162Y-13.188
X50.162Y-39.288
X50.237Y-53.287
X50.287Y-11.862
X50.37Y-17.354
X50.487Y-20.512
X50.487Y-21.438
X50.512Y-13.537
X50.557Y-23.037
X50.557Y-44.037
X50.557Y-45.537
X50.557Y-47.037
X50.557Y-48.537
X50.557Y-50.037
X50.557Y-51.537
X50.562Y-17.812
X50.637Y-42.038
X50.688Y-26.087
X50.688Y-26.688
X50.688Y-31.438
X50.705Y-6.02
X50.712Y-16.363
X50.712Y-54.762
X50.737Y-20.087
X50.787Y-24.037
X50.837Y-14.438
X50.912Y-36.212
X50.912Y-53.512
X51.012Y-41.688
X51.012Y-54.188
X51.262Y-50.462
X51.379Y-19.654
X51.412Y-21.912
X51.412Y-53.887
X51.487Y-23.488
X51.487Y-24.137
X51.562Y-14.387
X51.562Y-52.612
X51.612Y-44.538
X51.637Y-53.237
X51.74Y-21.0
X51.74Y-22.5
X51.74Y-43.5
X51.74Y-45.0
X51.74Y-46.5
X51.74Y-48.0
X51.74Y-49.5
X51.74Y-51.0
X51.787Y-49.012
X51.812Y-46.012
X51.812Y-47.412
X51.812Y-54.462
X51.812Y-55.962
X51.987Y-51.762
X52.062Y-17.212
X52.062Y-17.712
X52.137Y-14.362
X52.28Y-15.0
X52.462Y-52.438
X52.52Y-21.76
X52.52Y-23.26
X52.562Y-37.012
X52.637Y-27.412
X52.775Y-17.925
X52.812Y-43.612
X52.837Y-18.387
X52.84Y-55.0
X52.929Y-19.654
X52.938Y-10.438
X52.938Y-10.938
X53.012Y-44.587
X53.037Y-29.312
X53.057Y-21.537
X53.057Y-44.037
X53.057Y-49.537
X53.062Y-13.137
X53.062Y-25.537
X53.162Y-23.787
X53.212Y-38.462
X53.237Y-51.062
X53.262Y-14.362
X53.287Y-26.487
X53.362Y-25.037
X53.379Y-47.654
X53.387Y-30.162
X53.487Y-38.062
X53.487Y-41.137
X53.487Y-52.762
X53.512Y-15.537
X53.512Y-28.087
X53.512Y-39.062
X53.537Y-51.887
X53.737Y-20.738
X53.737Y-22.238
X53.818Y-26.291
X53.818Y-34.791
X53.818Y-36.291
X53.837Y-25.012
X53.837Y-41.487
X53.87Y-26.854
X53.87Y-28.854
X53.87Y-30.854
X53.87Y-32.854
X53.887Y-34.288
X53.962Y-40.987
X53.962Y-54.787
X53.983Y-28.037
X53.983Y-38.537
X53.987Y-21.412
X53.987Y-24.537
X53.987Y-37.987
X54.017Y-23.037
X54.02Y-19.76
X54.037Y-15.212
X54.037Y-53.212
X54.182Y-45.291
X54.188Y-21.988
X54.188Y-46.212
X54.237Y-26.537
X54.237Y-33.188
X54.237Y-33.938
X54.237Y-47.862
X54.24Y-21.0
X54.24Y-43.5
X54.24Y-49.0
X54.28Y-50.5
X54.287Y-49.462
X54.287Y-56.062
X54.337Y-41.538
X54.412Y-11.062
X54.412Y-12.412
X54.412Y-12.987
X54.487Y-9.912
X54.508Y-19.486
X54.512Y-18.587
X54.587Y-18.087
X54.729Y-43.298
X54.811Y-25.202
X54.837Y-14.887
X54.862Y-16.037
X54.912Y-17.037
X54.912Y-45.362
X55.057Y-18.037
X55.057Y-29.537
X55.087Y-65.612
X55.2Y-47.0
X55.212Y-47.812
X55.237Y-39.788
X55.271Y-19.702
X55.287Y-44.637
X55.379Y-3.654
X55.379Y-33.654
X55.438Y-34.163
X55.487Y-30.712
X55.512Y-28.438
X55.537Y-41.587
X55.537Y-47.362
X55.557Y-43.037
X55.737Y-34.737
X55.737Y-43.688
X55.762Y-36.012
X55.787Y-22.162
X55.812Y-15.962
X55.818Y-18.709
X55.835Y-12.0
X55.837Y-7.512
X55.876Y-23.856
X55.879Y-21.654
X55.887Y-30.062
X56.017Y-18.037
X56.02Y-46.26
X56.02Y-47.76
X56.087Y-44.463
X56.087Y-49.337
X56.212Y-50.438
X56.24Y-24.5
X56.24Y-26.0
X56.24Y-27.5
X56.24Y-34.5
X56.24Y-36.0
X56.24Y-38.0
X56.24Y-41.0
X56.262Y-22.188
X56.275Y-29.425
X56.28Y-37.5
X56.28Y-39.0
X56.312Y-46.762
X56.412Y-11.463
X56.438Y-48.287
X56.483Y-25.463
X56.512Y-37.038
X56.537Y-21.712
X56.537Y-35.612
X56.612Y-39.962
X56.689Y-47.702
X56.712Y-24.337
X56.729Y-29.702
X56.729Y-41.702
X56.737Y-30.512
X56.737Y-30.987
X56.737Y-32.487
X56.74Y-23.0
X56.74Y-42.5
X56.762Y-27.188
X56.78Y-49.0
X56.787Y-49.462
X56.862Y-33.512
X56.879Y-15.154
X56.879Y-20.154
X56.938Y-34.237
X56.983Y-23.537
X57.087Y-46.438
X57.129Y-21.855
X57.13Y-26.854
X57.136Y-17.45
X57.137Y-28.438
X57.162Y-18.113
X57.188Y-16.387
X57.2Y-3.0
X57.2Y-31.0
X57.2Y-32.5
X57.212Y-41.562
X57.212Y-42.562
X57.262Y-49.938
X57.3Y-6.5
X57.318Y-33.291
X57.443Y-29.537
X57.483Y-32.037
X57.487Y-30.012
X57.512Y-20.662
X57.537Y-46.663
X57.557Y-28.037
X57.557Y-35.537
X57.557Y-40.037
X57.587Y-27.012
X57.659Y-46.179
X57.712Y-33.562
X57.737Y-36.788
X57.837Y-38.637
X57.837Y-45.312
X57.879Y-8.154
X58.057Y-43.037
X58.129Y-20.355
X58.162Y-40.062
X58.237Y-34.737
X58.24Y-19.0
X58.271Y-25.202
X58.462Y-28.487
X58.487Y-27.987
X58.487Y-32.538
X58.512Y-30.562
X58.52Y-46.26
X58.534Y-56.544
X58.537Y-27.012
X58.554Y-38.544
X58.562Y-19.462
X58.688Y-17.387
X58.688Y-24.912
X58.7Y-14.5
X58.712Y-20.938
X58.74Y-26.0
X58.74Y-35.0
X58.74Y-38.0
X58.74Y-39.5
X58.74Y-41.0
X58.771Y-44.702
X58.78Y-36.5
X58.812Y-21.613
X58.862Y-35.663
X58.879Y-2.154
X58.879Y-30.154
X58.879Y-32.154
X58.887Y-27.712
X58.938Y-33.913
X58.983Y-25.463
X59.012Y-29.662
X59.057Y-22.037
X59.125Y-17.0
X59.162Y-16.312
X59.237Y-41.012
X59.24Y-23.0
X59.24Y-41.5
X59.24Y-42.5
X59.24Y-47.5
X59.262Y-33.538
X59.387Y-6.037
X59.387Y-36.413
X59.412Y-34.012
X59.487Y-25.662
X59.537Y-39.663
X59.587Y-30.562
X59.587Y-40.312
X59.612Y-38.837
X59.637Y-17.312
X59.682Y-26.791
X59.7Y-7.5
X59.712Y-16.312
X59.712Y-45.887
X59.74Y-33.5
X59.78Y-54.5
X59.912Y-19.287
X59.912Y-28.762
X59.938Y-4.013
X59.938Y-42.288
X59.962Y-17.787
X59.975Y-3.55
X59.975Y-4.5
X59.987Y-25.612
X60.037Y-33.913
X60.057Y-25.037
X60.057Y-37.537
X60.057Y-39.037
X60.125Y-23.88
X60.162Y-54.212
X60.162Y-55.912
X60.188Y-44.737
X60.24Y-21.5
X60.25Y-45.35
X60.287Y-15.962
X60.287Y-49.387
X60.337Y-36.163
X60.379Y-28.654
X60.379Y-35.654
X60.429Y-32.154
X60.438Y-5.638
X60.462Y-27.612
X60.557Y-23.537
X60.557Y-42.037
X60.557Y-43.537
X60.587Y-14.862
X60.587Y-25.037
X60.7Y-1.5
X60.7Y-29.5
X60.78Y-20.0
X60.805Y-36.211
X60.812Y-37.038
X60.837Y-26.487
X60.837Y-56.587
X60.862Y-18.512
X60.862Y-20.762
X60.862Y-32.487
X60.912Y-34.087
X60.987Y-26.012
X60.987Y-38.913
X60.987Y-44.737
X61.057Y-32.037
X61.062Y-37.462
X61.212Y-18.863
X61.212Y-21.613
X61.24Y-24.5
X61.24Y-38.5
X61.24Y-40.0
X61.262Y-19.412
X61.262Y-26.737
X61.275Y-35.925
X61.28Y-37.0
X61.287Y-29.087
X61.287Y-45.413
X61.362Y-53.212
X61.371Y-30.355
X61.379Y-8.154
X61.379Y-34.154
X61.387Y-44.288
X61.462Y-17.012
X61.487Y-38.938
X61.512Y-22.287
X61.512Y-25.212
X61.562Y-46.637
X61.662Y-30.887
X61.688Y-24.712
X61.737Y-35.788
X61.74Y-23.0
X61.74Y-41.5
X61.74Y-43.0
X61.762Y-28.987
X61.762Y-45.812
X61.787Y-32.438
X61.812Y-58.912
X61.938Y-16.962
X61.975Y-55.05
X61.975Y-56.95
X62.037Y-36.188
X62.037Y-45.163
X62.057Y-2.037
X62.057Y-13.037
X62.057Y-32.037
X62.062Y-39.062
X62.112Y-21.462
X62.125Y-11.88
X62.137Y-20.962
X62.137Y-23.812
X62.137Y-30.962
X62.2Y-28.0
X62.24Y-31.5
X62.24Y-33.0
X62.25Y-3.55
X62.287Y-14.412
X62.337Y-25.312
X62.412Y-16.988
X62.412Y-41.688
X62.412Y-44.712
X62.438Y-17.462
X62.438Y-18.488
X62.438Y-19.988
X62.438Y-20.488
X62.442Y-34.395
X62.487Y-40.438
X62.512Y-27.012
X62.512Y-55.337
X62.537Y-13.537
X62.557Y-26.537
X62.557Y-30.537
X62.557Y-37.537
X62.557Y-39.037
X62.771Y-32.202
X62.812Y-25.287
X62.879Y-11.154
X62.938Y-16.613
X63.02Y-30.74
X63.037Y-26.612
X63.112Y-55.637
X63.13Y-33.854
X63.2Y-7.5
X63.24Y-1.5
X63.24Y-12.5
X63.312Y-27.837
X63.387Y-16.837
X63.438Y-25.237
X63.438Y-33.413
X63.438Y-40.387
X63.443Y-32.463
X63.487Y-34.887
X63.612Y-30.462
X63.637Y-36.512
X63.737Y-28.762
X63.74Y-26.0
X63.74Y-30.0
X63.74Y-37.0
X63.74Y-38.5
X63.74Y-40.0
X63.78Y-35.5
X63.78Y-62.0
X63.938Y-49.362
X64.057Y-5.037
X64.062Y-16.613
X64.087Y-21.988
X64.087Y-38.987
X64.138Y-21.312
X64.2Y-29.5
X64.25Y-56.0
X64.28Y-60.5
X64.337Y-62.037
X64.362Y-29.037
X64.412Y-32.137
X64.412Y-34.512
X64.438Y-11.737
X64.537Y-16.062
X64.537Y-40.062
X64.562Y-38.862
X64.638Y-16.637
X64.7Y-10.5
X64.712Y-30.837
X64.763Y-27.762
X64.837Y-31.688
X64.862Y-37.312
X64.879Y-32.154
X64.888Y-32.637
X64.912Y-30.087
X64.987Y-19.113
X65.013Y-25.912
X65.087Y-26.387
X65.138Y-25.062
X65.188Y-3.137
X65.188Y-50.462
X65.237Y-30.462
X65.237Y-36.462
X65.24Y-4.5
X65.312Y-20.438
X65.362Y-27.887
X65.412Y-17.137
X65.438Y-55.712
X65.487Y-3.938
X65.612Y-34.612
X65.636Y-2.95
X65.638Y-25.212
X65.712Y-40.387
X65.763Y-14.287
X65.763Y-22.787
X65.763Y-38.862
X65.78Y-33.5
X65.8Y-51.5
X65.867Y-13.154
X65.879Y-30.154
X66.062Y-20.087
X66.237Y-28.812
X66.28Y-63.0
X66.438Y-43.337
X66.438Y-53.188
X66.487Y-19.363
X66.487Y-41.688
X66.557Y-5.037
X66.638Y-17.337
X66.662Y-22.688
X66.7Y-31.5
X66.75Y-60.95
X66.78Y-55.5
X66.812Y-21.688
X66.862Y-20.113
X66.879Y-8.154
X66.987Y-19.037
X67.136Y-10.45
X67.28Y-64.5
X67.462Y-19.287
X67.487Y-22.938
X67.557Y-63.537
X67.562Y-20.488
X67.625Y-2.5
X67.688Y-20.988
X67.7Y-29.5
X67.712Y-12.5
X67.74Y-4.5
X67.888Y-40.087
X68.062Y-25.987
X68.188Y-59.912
X68.212Y-4.737
X68.379Y-41.654
X68.379Y-44.654
X68.379Y-46.654
X68.379Y-56.154
X68.412Y-41.038
X68.513Y-58.012
X68.537Y-25.087
X68.557Y-65.037
X68.557Y-66.537
X68.587Y-59.012
X68.65Y-61.0
X68.7Y-7.5
X68.74Y-63.0
X68.938Y-29.762
X69.013Y-24.987
X69.037Y-42.712
X69.057Y-34.537
X69.062Y-58.987
X69.062Y-58.987
X69.062Y-60.587
X69.062Y-62.212
X69.125Y-10.0
X69.188Y-56.912
X69.379Y-13.154
X69.462Y-5.737
X69.5Y-62.65
X69.638Y-23.287
X69.662Y-58.062
X69.74Y-64.5
X69.74Y-66.0
X69.867Y-2.154
X69.975Y-3.55
X70.062Y-57.787
X70.2Y-32.0
X70.2Y-41.0
X70.2Y-44.0
X70.2Y-46.0
X70.2Y-55.5
X70.24Y-34.0
X70.24Y-35.5
X70.24Y-37.0
X70.28Y-30.0
X70.312Y-25.212
X70.388Y-13.262
X70.513Y-63.387
X70.544Y-33.05
X70.587Y-62.912
X70.688Y-30.537
X70.763Y-25.012
X70.78Y-39.0
X70.78Y-48.0
X70.987Y-64.388
X71.0Y-63.35
X71.013Y-56.712
X71.062Y-54.688
X71.112Y-24.262
X71.136Y-9.95
X71.2Y-12.5
X71.388Y-57.062
X71.48Y-43.26
X71.557Y-8.037
X71.638Y-54.287
X71.68Y-52.598
X71.712Y-1.5
X71.712Y-41.337
X71.867Y-56.154
X71.912Y-5.638
X71.962Y-64.013
X71.987Y-15.312
X72.05Y-65.65
X72.057Y-54.037
X72.133Y-54.846
X72.188Y-62.912
X72.188Y-62.912
X72.25Y-3.55
X72.462Y-56.712
X72.537Y-64.062
X72.662Y-25.612
X72.688Y-22.212
X72.737Y-6.462
X72.737Y-20.863
X72.74Y-7.5
X72.879Y-12.654
X73.037Y-16.337
X73.037Y-33.688
X73.062Y-63.337
X73.125Y-9.5
X73.24Y-53.5
X73.24Y-69.5
X73.263Y-51.037
X73.362Y-18.412
X73.388Y-56.612
X73.537Y-40.087
X73.662Y-61.662
X73.7Y-35.0
X73.7Y-36.0
X73.7Y-49.5
X73.7Y-50.5
X73.712Y-52.762
X73.837Y-40.538
X73.862Y-56.762
X74.037Y-42.788
X74.162Y-57.962
X74.237Y-40.913
X74.25Y-67.35
X74.3Y-35.75
X74.362Y-53.387
X74.379Y-14.654
X74.443Y-46.037
X74.462Y-42.09
X74.462Y-29.362
X74.513Y-7.188
X74.537Y-41.337
X74.6Y-2.5
X74.612Y-43.188
X74.688Y-57.462
X74.7Y-12.0
X74.78Y-17.5
X74.78Y-19.0
X74.78Y-20.5
X74.78Y-22.0
X74.912Y-59.762
X74.912Y-61.387
X74.975Y-5.05
X74.975Y-6.0
X75.057Y-54.537
X75.062Y-59.287
X75.112Y-29.362
X75.136Y-9.95
X75.188Y-58.512
X75.188Y-60.987
X75.212Y-60.162
X75.362Y-61.737
X75.438Y-62.487
X75.462Y-59.737
X75.557Y-65.037
X75.688Y-63.062
X75.721Y-52.795
X75.74Y-27.5
X75.752Y-35.72
X75.787Y-59.012
X75.812Y-54.912
X75.837Y-56.787
X76.057Y-12.037
X76.2Y-14.0
X76.212Y-29.712
X76.212Y-36.062
X76.237Y-42.512
X76.24Y-54.0
X76.24Y-55.5
X76.337Y-45.712
X76.362Y-39.762
X76.4Y-39.25
X76.4Y-40.75
X76.4Y-43.75
X76.4Y-45.25
X76.4Y-48.25
X76.4Y-49.75
X76.4Y-51.25
X76.557Y-58.037
X76.712Y-14.262
X76.712Y-54.762
X76.74Y-64.5
X76.74Y-66.5
X76.75Y-43.35
X77.125Y-9.5
X77.188Y-7.188
X77.24Y-11.5
X77.25Y-5.05
X77.4Y-2.5
X77.487Y-62.912
X77.557Y-56.537
X77.587Y-6.812
X77.74Y-57.5
X77.74Y-62.5
X77.938Y-6.162
X78.013Y-31.637
X78.013Y-35.663
X78.312Y-61.387
X78.337Y-7.562
X78.388Y-64.337
X78.456Y-38.13
X78.487Y-37.637
X78.557Y-41.537
X78.557Y-46.537
X78.562Y-35.062
X78.712Y-47.537
X78.74Y-56.0
X78.78Y-14.0
X78.78Y-54.5
X78.812Y-31.412
X78.862Y-42.038
X78.962Y-20.087
X79.188Y-7.712
X79.212Y-40.438
X79.237Y-20.938
X79.271Y-41.702
X79.312Y-20.462
X79.312Y-21.962
X79.379Y-8.654
X79.379Y-44.654
X79.438Y-60.387
X79.74Y-46.0
X79.78Y-39.5
X79.78Y-47.5
X79.925Y-5.5
X79.975Y-11.0
X80.057Y-34.537
X80.062Y-6.837
X80.438Y-10.963
X80.962Y-20.837
X80.975Y-37.5
X80.975Y-42.0
X81.062Y-57.612
X81.2Y-8.0
X81.2Y-44.0
X81.24Y-31.0
X81.24Y-32.5
X81.24Y-34.0
X81.812Y-37.137
X82.25Y-11.0
X82.62Y-2.902
X82.725Y-5.5
X82.812Y-42.562
X83.25Y-37.5
X83.25Y-42.0
X83.78Y-8.0
X84.362Y-15.312
X84.763Y-37.762
X86.469Y-67.044
X86.638Y-45.587
X87.438Y-65.962
X87.715Y-45.5
X87.725Y-2.5
X88.237Y-45.812
X90.175Y-45.5
X90.175Y-66.5
X90.638Y-45.737
X92.087Y-47.562
T3
X42.65Y-9.65
X42.65Y-10.825
X42.65Y-12.0
X42.65Y-13.175
X42.65Y-14.35
X43.825Y-9.65
X43.825Y-10.825
X43.825Y-12.0
X43.825Y-13.175
X43.825Y-14.35
X45.0Y-9.65
X45.0Y-10.825
X45.0Y-12.0
X45.0Y-13.175
X45.0Y-14.35
X46.175Y-9.65
X46.175Y-10.825
X46.175Y-12.0
X46.175Y-13.175
X46.175Y-14.35
X47.35Y-9.65
X47.35Y-10.825
X47.35Y-12.0
X47.35Y-13.175
X47.35Y-14.35
T4
X1.475Y-3.5
X1.475Y-68.5
X2.068Y-2.068
X2.068Y-4.932
X2.068Y-67.068
X2.068Y-69.932
X3.5Y-1.475
X3.5Y-5.525
X3.5Y-66.475
X3.5Y-70.525
X4.932Y-2.068
X4.932Y-4.932
X4.932Y-67.068
X4.932Y-69.932
X5.525Y-3.5
X5.525Y-68.5
X94.475Y-3.5
X94.475Y-68.5
X95.068Y-2.068
X95.068Y-4.932
X95.068Y-67.068
X95.068Y-69.932
X96.5Y-1.475
X96.5Y-5.525
X96.5Y-66.475
X96.5Y-70.525
X97.932Y-2.068
X97.932Y-4.932
X97.932Y-67.068
X97.932Y-69.932
X98.525Y-3.5
X98.525Y-68.5
T6
X88.155Y-12.0
X88.155Y-14.0
X88.155Y-16.0
X88.155Y-18.0
X88.155Y-20.0
X89.655Y-12.5
X89.655Y-15.0
X89.655Y-17.0
X89.655Y-19.5
T8
X82.015Y-51.56
X82.015Y-54.09
X82.015Y-56.64
X82.015Y-59.18
X82.015Y-61.72
X84.555Y-50.29
X84.555Y-52.83
X84.555Y-55.37
X84.555Y-57.91
X84.555Y-60.45
T9
X85.825Y-31.3
X85.825Y-33.8
X85.825Y-35.8
X85.825Y-38.3
X88.445Y-31.3
X88.445Y-33.8
X88.445Y-35.8
X88.445Y-38.3
T10
X50.0Y-68.6
X52.54Y-68.6
X55.08Y-68.6
T11
X95.855Y-49.4
X95.855Y-51.94
X95.855Y-60.06
X95.855Y-62.6
T12
X87.855Y-48.25
X87.855Y-63.75
T13
X85.475Y-28.23
X85.475Y-41.37
X91.155Y-28.23
X91.155Y-41.37
T14
X3.5Y-3.5
X3.5Y-68.5
X96.5Y-3.5
X96.5Y-68.5
T5
X7.68Y-65.125G85X7.68Y-66.225
G05
X7.68Y-69.555G85X7.68Y-70.155
G05
X16.32Y-65.125G85X16.32Y-66.225
G05
X16.32Y-69.555G85X16.32Y-70.155
G05
X88.355Y-9.6G85X89.455Y-9.6
G05
X88.355Y-22.4G85X89.455Y-22.4
G05
X97.005Y-9.6G85X97.805Y-9.6
G05
X97.005Y-22.4G85X97.805Y-22.4
G05
T7
X26.75Y-61.0G85X26.75Y-62.8
G05
X26.75Y-67.46G85X26.75Y-68.26
G05
X41.25Y-61.0G85X41.25Y-62.8
G05
X41.25Y-67.46G85X41.25Y-68.26
G05
M30
