M48
; DRILL file {KiCad 9.0.9-9.0.9~ubuntu24.04.1} date 2026-10-05T04:16:13+0000
; FORMAT={-:-/ absolute / metric / decimal}
; #@! TF.CreationDate,2026-10-05T04:16:13+00:00
; #@! TF.GenerationSoftware,Kicad,Pcbnew,9.0.9-9.0.9~ubuntu24.04.1
; #@! TF.FileFunction,Plated,1,8,PTH
FMAT,2
METRIC
; #@! TA.AperFunction,Plated,PTH,ViaDrill
T1C0.150
; #@! TA.AperFunction,Plated,PTH,ViaDrill
T2C0.200
; #@! TA.AperFunction,Plated,PTH,ComponentDrill
T3C0.200
; #@! TA.AperFunction,Plated,PTH,ComponentDrill
T4C0.500
; #@! TA.AperFunction,Plated,PTH,ComponentDrill
T5C0.600
; #@! TA.AperFunction,Plated,PTH,ComponentDrill
T6C0.700
; #@! TA.AperFunction,Plated,PTH,ComponentDrill
T7C0.900
; #@! TA.AperFunction,Plated,PTH,ComponentDrill
T8C0.910
; #@! TA.AperFunction,Plated,PTH,ComponentDrill
T9C0.920
; #@! TA.AperFunction,Plated,PTH,ComponentDrill
T10C1.000
; #@! TA.AperFunction,Plated,PTH,ComponentDrill
T11C1.100
; #@! TA.AperFunction,Plated,PTH,ComponentDrill
T12C1.651
; #@! TA.AperFunction,Plated,PTH,ComponentDrill
T13C2.300
; #@! TA.AperFunction,Plated,PTH,ComponentDrill
T14C2.700
%
G90
G05
T1
X19.4Y-27.4
X19.4Y-28.1
X19.4Y-28.8
X19.4Y-29.5
X19.4Y-30.2
X19.4Y-30.9
X19.4Y-31.6
X19.4Y-32.3
X19.4Y-33.0
X19.4Y-33.7
X19.4Y-34.4
X19.4Y-35.8
X19.4Y-36.5
X19.4Y-37.2
X19.4Y-37.9
X19.4Y-38.6
X20.2Y-26.7
X20.2Y-27.4
X20.2Y-28.1
X20.2Y-28.8
X20.2Y-29.5
X20.2Y-30.2
X20.2Y-30.9
X20.2Y-31.6
X20.2Y-32.3
X20.2Y-33.0
X20.2Y-33.7
X20.2Y-34.4
X20.2Y-35.1
X20.2Y-35.8
X20.2Y-36.5
X20.2Y-37.2
X20.2Y-37.9
X20.2Y-38.6
X20.2Y-39.3
X21.0Y-26.0
X21.0Y-26.7
X21.0Y-27.4
X21.0Y-28.1
X21.0Y-28.8
X21.0Y-29.5
X21.0Y-30.2
X21.0Y-30.9
X21.0Y-31.6
X21.0Y-32.3
X21.0Y-33.0
X21.0Y-33.7
X21.0Y-34.4
X21.0Y-35.1
X21.0Y-35.8
X21.0Y-36.5
X21.0Y-37.2
X21.0Y-37.9
X21.0Y-38.6
X21.0Y-39.3
X21.0Y-40.0
X21.8Y-26.0
X21.8Y-26.7
X21.8Y-27.4
X21.8Y-28.1
X21.8Y-28.8
X21.8Y-29.5
X21.8Y-30.2
X21.8Y-30.9
X21.8Y-32.3
X21.8Y-33.0
X21.8Y-33.7
X21.8Y-34.4
X21.8Y-35.1
X21.8Y-35.8
X21.8Y-36.5
X21.8Y-37.2
X21.8Y-37.9
X21.8Y-38.6
X21.8Y-39.3
X21.8Y-40.0
X22.6Y-26.0
X22.6Y-26.7
X22.6Y-27.4
X22.6Y-28.1
X22.6Y-28.8
X22.6Y-29.5
X22.6Y-30.2
X22.6Y-30.9
X22.6Y-31.6
X22.6Y-32.3
X22.6Y-33.0
X22.6Y-33.7
X22.6Y-34.4
X22.6Y-35.1
X22.6Y-35.8
X22.6Y-36.5
X22.6Y-37.2
X22.6Y-37.9
X22.6Y-38.6
X22.6Y-39.3
X22.6Y-40.0
X23.4Y-26.0
X23.4Y-26.7
X23.4Y-27.4
X23.4Y-28.1
X23.4Y-28.8
X23.4Y-29.5
X23.4Y-30.2
X23.4Y-30.9
X23.4Y-32.3
X23.4Y-33.0
X23.4Y-33.7
X23.4Y-34.4
X23.4Y-35.1
X23.4Y-35.8
X23.4Y-36.5
X23.4Y-37.2
X23.4Y-37.9
X23.4Y-38.6
X23.4Y-39.3
X23.4Y-40.0
X24.2Y-26.0
X24.2Y-26.7
X24.2Y-27.4
X24.2Y-28.1
X24.2Y-28.8
X24.2Y-29.5
X24.2Y-30.2
X24.2Y-30.9
X24.2Y-31.6
X24.2Y-32.3
X24.2Y-33.0
X24.2Y-33.7
X24.2Y-34.4
X24.2Y-35.1
X24.2Y-35.8
X24.2Y-36.5
X24.2Y-37.2
X24.2Y-37.9
X24.2Y-38.6
X24.2Y-39.3
X24.2Y-40.0
X25.0Y-26.0
X25.0Y-26.7
X25.0Y-27.4
X25.0Y-28.1
X25.0Y-28.8
X25.0Y-29.5
X25.0Y-30.2
X25.0Y-30.9
X25.0Y-31.6
X25.0Y-32.3
X25.0Y-33.0
X25.0Y-33.7
X25.0Y-34.4
X25.0Y-35.1
X25.0Y-35.8
X25.0Y-36.5
X25.0Y-37.2
X25.0Y-37.9
X25.0Y-38.6
X25.0Y-39.3
X25.0Y-40.0
X25.8Y-26.0
X25.8Y-26.7
X25.8Y-27.4
X25.8Y-28.1
X25.8Y-28.8
X25.8Y-29.5
X25.8Y-30.2
X25.8Y-30.9
X25.8Y-31.6
X25.8Y-32.3
X25.8Y-33.0
X25.8Y-33.7
X25.8Y-34.4
X25.8Y-35.1
X25.8Y-35.8
X25.8Y-36.5
X25.8Y-37.2
X25.8Y-37.9
X25.8Y-38.6
X25.8Y-39.3
X25.8Y-40.0
X26.6Y-26.0
X26.6Y-26.7
X26.6Y-27.4
X26.6Y-28.1
X26.6Y-28.8
X26.6Y-29.5
X26.6Y-30.2
X26.6Y-30.9
X26.6Y-31.6
X26.6Y-32.3
X26.6Y-33.0
X26.6Y-33.7
X26.6Y-34.4
X26.6Y-35.1
X26.6Y-35.8
X26.6Y-36.5
X26.6Y-37.2
X26.6Y-37.9
X26.6Y-38.6
X26.6Y-39.3
X26.6Y-40.0
X27.4Y-26.0
X27.4Y-26.7
X27.4Y-27.4
X27.4Y-28.1
X27.4Y-28.8
X27.4Y-29.5
X27.4Y-30.2
X27.4Y-30.9
X27.4Y-31.6
X27.4Y-32.3
X27.4Y-33.0
X27.4Y-33.7
X27.4Y-34.4
X27.4Y-35.1
X27.4Y-35.8
X27.4Y-36.5
X27.4Y-37.2
X27.4Y-37.9
X27.4Y-38.6
X27.4Y-39.3
X27.4Y-40.0
X28.2Y-26.0
X28.2Y-26.7
X28.2Y-27.4
X28.2Y-28.1
X28.2Y-28.8
X28.2Y-29.5
X28.2Y-30.2
X28.2Y-30.9
X28.2Y-31.6
X28.2Y-32.3
X28.2Y-33.0
X28.2Y-33.7
X28.2Y-34.4
X28.2Y-35.1
X28.2Y-35.8
X28.2Y-36.5
X28.2Y-37.2
X28.2Y-37.9
X28.2Y-38.6
X28.2Y-39.3
X28.2Y-40.0
X29.0Y-26.0
X29.0Y-26.7
X29.0Y-27.4
X29.0Y-28.1
X29.0Y-28.8
X29.0Y-29.5
X29.0Y-30.2
X29.0Y-30.9
X29.0Y-31.6
X29.0Y-32.3
X29.0Y-33.0
X29.0Y-33.7
X29.0Y-34.4
X29.0Y-35.1
X29.0Y-35.8
X29.0Y-36.5
X29.0Y-37.2
X29.0Y-37.9
X29.0Y-38.6
X29.0Y-39.3
X29.0Y-40.0
X29.8Y-26.7
X29.8Y-27.4
X29.8Y-28.1
X29.8Y-28.8
X29.8Y-29.5
X29.8Y-30.2
X29.8Y-30.9
X29.8Y-31.6
X29.8Y-32.3
X29.8Y-33.0
X29.8Y-33.7
X29.8Y-34.4
X29.8Y-35.1
X29.8Y-35.8
X29.8Y-36.5
X29.8Y-37.2
X29.8Y-37.9
X29.8Y-38.6
X29.8Y-39.3
X30.6Y-27.4
X30.6Y-28.1
X30.6Y-28.8
X30.6Y-29.5
X30.6Y-30.2
X30.6Y-30.9
X30.6Y-31.6
X30.6Y-32.3
X30.6Y-33.0
X30.6Y-33.7
X30.6Y-34.4
X30.6Y-35.8
X30.6Y-36.5
X30.6Y-37.2
X30.6Y-37.9
X30.6Y-38.6
X37.3Y-24.75
X37.3Y-25.3
X37.3Y-25.85
X37.3Y-26.4
X37.3Y-26.95
X37.3Y-28.05
X37.3Y-28.6
X37.3Y-29.7
X37.3Y-30.25
X37.3Y-31.35
X37.3Y-31.9
X37.3Y-33.0
X37.3Y-33.55
X37.3Y-34.65
X37.3Y-35.2
X37.3Y-36.3
X37.3Y-36.85
X37.3Y-37.95
X37.3Y-38.5
X37.3Y-39.6
X37.3Y-40.15
X37.3Y-41.25
X37.8Y-25.8
X37.8Y-26.4
X37.8Y-27.0
X37.8Y-27.6
X37.8Y-28.2
X37.8Y-28.8
X37.8Y-29.4
X37.8Y-30.0
X37.8Y-30.6
X37.8Y-31.2
X37.8Y-31.8
X37.8Y-32.4
X37.8Y-33.0
X37.8Y-33.6
X37.8Y-34.2
X37.8Y-34.8
X37.8Y-35.4
X37.8Y-36.0
X37.8Y-36.6
X37.8Y-37.2
X37.8Y-37.8
X37.8Y-38.4
X37.8Y-39.0
X37.8Y-39.6
X37.8Y-40.2
X37.85Y-24.75
X37.85Y-25.3
X37.85Y-40.7
X37.85Y-41.25
X38.4Y-24.75
X38.4Y-25.3
X38.4Y-25.8
X38.4Y-26.4
X38.4Y-27.0
X38.4Y-27.6
X38.4Y-28.2
X38.4Y-28.8
X38.4Y-29.4
X38.4Y-30.0
X38.4Y-30.6
X38.4Y-31.2
X38.4Y-31.8
X38.4Y-32.4
X38.4Y-33.0
X38.4Y-33.6
X38.4Y-34.2
X38.4Y-34.8
X38.4Y-35.4
X38.4Y-36.0
X38.4Y-36.6
X38.4Y-37.2
X38.4Y-37.8
X38.4Y-38.4
X38.4Y-39.0
X38.4Y-40.2
X38.4Y-40.7
X38.4Y-41.25
X38.95Y-24.75
X38.95Y-25.3
X38.95Y-40.7
X38.95Y-41.25
X39.0Y-25.8
X39.0Y-26.4
X39.0Y-27.0
X39.0Y-27.6
X39.0Y-28.2
X39.0Y-28.8
X39.0Y-29.4
X39.0Y-30.0
X39.0Y-30.6
X39.0Y-31.2
X39.0Y-31.8
X39.0Y-32.4
X39.0Y-33.0
X39.0Y-33.6
X39.0Y-34.2
X39.0Y-34.8
X39.0Y-35.4
X39.0Y-36.0
X39.0Y-36.6
X39.0Y-37.2
X39.0Y-37.8
X39.0Y-38.4
X39.0Y-39.0
X39.0Y-39.6
X39.0Y-40.2
X39.5Y-24.75
X39.5Y-25.3
X39.6Y-27.0
X39.6Y-27.6
X39.6Y-28.2
X39.6Y-28.8
X39.6Y-29.4
X39.6Y-30.0
X39.6Y-30.6
X39.6Y-31.8
X39.6Y-32.4
X39.6Y-33.0
X39.6Y-33.6
X39.6Y-35.4
X39.6Y-36.0
X39.6Y-36.6
X39.6Y-37.2
X39.6Y-37.8
X39.6Y-38.4
X39.6Y-39.0
X39.6Y-40.2
X40.05Y-40.7
X40.2Y-27.6
X40.2Y-28.2
X40.2Y-28.8
X40.2Y-29.4
X40.2Y-30.0
X40.2Y-31.2
X40.2Y-31.8
X40.2Y-32.4
X40.2Y-33.0
X40.2Y-33.6
X40.2Y-34.2
X40.2Y-34.8
X40.2Y-35.4
X40.2Y-36.0
X40.2Y-36.6
X40.2Y-37.2
X40.2Y-37.8
X40.2Y-38.4
X40.2Y-39.0
X40.8Y-28.2
X40.8Y-28.8
X40.8Y-29.4
X40.8Y-30.0
X40.8Y-30.6
X40.8Y-31.2
X40.8Y-31.8
X40.8Y-32.4
X40.8Y-33.0
X40.8Y-33.6
X40.8Y-34.2
X40.8Y-34.8
X40.8Y-35.4
X40.8Y-36.0
X40.8Y-36.6
X40.8Y-37.2
X40.8Y-37.8
X40.8Y-38.4
X40.8Y-40.2
X41.15Y-41.25
X41.4Y-25.8
X41.43Y-29.1
X41.43Y-29.75
X41.43Y-30.4
X41.43Y-31.05
X41.43Y-31.7
X41.43Y-32.35
X41.43Y-33.0
X41.43Y-33.65
X41.43Y-34.3
X41.43Y-34.95
X41.43Y-35.6
X41.43Y-36.25
X41.43Y-36.9
X41.43Y-37.55
X41.43Y-38.2
X41.43Y-38.85
X41.43Y-39.5
X41.43Y-40.15
X41.7Y-24.75
X41.7Y-25.3
X41.7Y-40.7
X41.7Y-41.25
X42.0Y-25.8
X42.08Y-29.1
X42.08Y-29.75
X42.08Y-30.4
X42.08Y-31.05
X42.08Y-31.7
X42.08Y-32.35
X42.08Y-33.0
X42.08Y-33.65
X42.08Y-34.3
X42.08Y-34.95
X42.08Y-35.6
X42.08Y-36.25
X42.08Y-36.9
X42.08Y-37.55
X42.08Y-39.5
X42.08Y-40.15
X42.25Y-25.3
X42.6Y-25.8
X42.6Y-27.0
X42.73Y-29.1
X42.73Y-29.75
X42.73Y-30.4
X42.73Y-31.05
X42.73Y-31.7
X42.73Y-32.35
X42.73Y-33.0
X42.73Y-33.65
X42.73Y-34.3
X42.73Y-34.95
X42.73Y-35.6
X42.73Y-36.25
X42.73Y-36.9
X42.73Y-37.55
X42.73Y-38.2
X42.73Y-39.5
X42.73Y-40.15
X42.8Y-24.75
X42.8Y-25.3
X43.2Y-25.8
X43.2Y-28.2
X43.35Y-25.3
X43.38Y-29.1
X43.38Y-29.75
X43.38Y-30.4
X43.38Y-31.05
X43.38Y-31.7
X43.38Y-32.35
X43.38Y-33.0
X43.38Y-33.65
X43.38Y-34.3
X43.38Y-34.95
X43.38Y-35.6
X43.38Y-36.25
X43.38Y-36.9
X43.38Y-37.55
X43.38Y-38.2
X43.38Y-38.85
X43.38Y-39.5
X43.38Y-40.15
X43.8Y-25.8
X43.9Y-24.75
X43.9Y-25.3
X44.02Y-29.1
X44.02Y-29.75
X44.02Y-30.4
X44.02Y-31.05
X44.02Y-31.7
X44.02Y-32.35
X44.02Y-33.0
X44.02Y-33.65
X44.02Y-34.3
X44.02Y-34.95
X44.02Y-35.6
X44.02Y-36.25
X44.02Y-36.9
X44.02Y-37.55
X44.02Y-38.2
X44.02Y-38.85
X44.02Y-39.5
X44.02Y-40.15
X44.4Y-25.8
X44.45Y-40.7
X44.45Y-41.25
X44.67Y-29.1
X44.67Y-29.75
X44.67Y-30.4
X44.67Y-31.05
X44.67Y-31.7
X44.67Y-32.35
X44.67Y-33.0
X44.67Y-33.65
X44.67Y-34.3
X44.67Y-34.95
X44.67Y-35.6
X44.67Y-36.25
X44.67Y-36.9
X44.67Y-37.55
X44.67Y-38.85
X44.67Y-39.5
X44.67Y-40.15
X45.0Y-27.0
X45.0Y-28.2
X45.33Y-29.1
X45.33Y-29.75
X45.33Y-30.4
X45.33Y-31.05
X45.33Y-31.7
X45.33Y-32.35
X45.33Y-33.0
X45.33Y-33.65
X45.33Y-34.3
X45.33Y-34.95
X45.33Y-35.6
X45.33Y-36.25
X45.33Y-36.9
X45.33Y-37.55
X45.33Y-38.2
X45.33Y-38.85
X45.33Y-39.5
X45.33Y-40.15
X45.98Y-29.1
X45.98Y-29.75
X45.98Y-30.4
X45.98Y-31.05
X45.98Y-31.7
X45.98Y-32.35
X45.98Y-33.0
X45.98Y-33.65
X45.98Y-34.3
X45.98Y-34.95
X45.98Y-35.6
X45.98Y-36.25
X45.98Y-36.9
X45.98Y-37.55
X45.98Y-38.2
X45.98Y-38.85
X45.98Y-39.5
X45.98Y-40.15
X46.63Y-29.1
X46.63Y-29.75
X46.63Y-30.4
X46.63Y-31.05
X46.63Y-31.7
X46.63Y-32.35
X46.63Y-33.0
X46.63Y-33.65
X46.63Y-34.3
X46.63Y-34.95
X46.63Y-35.6
X46.63Y-36.25
X46.63Y-36.9
X46.63Y-37.55
X46.63Y-38.2
X46.63Y-39.5
X46.63Y-40.15
X46.8Y-27.0
X46.8Y-28.2
X47.28Y-29.1
X47.28Y-29.75
X47.28Y-30.4
X47.28Y-31.05
X47.28Y-31.7
X47.28Y-33.0
X47.28Y-33.65
X47.28Y-34.3
X47.28Y-34.95
X47.28Y-35.6
X47.28Y-36.25
X47.28Y-36.9
X47.28Y-37.55
X47.28Y-38.2
X47.28Y-38.85
X47.28Y-39.5
X47.28Y-40.15
X47.93Y-29.1
X47.93Y-29.75
X47.93Y-30.4
X47.93Y-31.7
X47.93Y-32.35
X47.93Y-33.0
X47.93Y-33.65
X47.93Y-34.3
X47.93Y-34.95
X47.93Y-36.25
X47.93Y-36.9
X47.93Y-37.55
X47.93Y-38.2
X47.93Y-38.85
X47.93Y-39.5
X47.93Y-40.15
X48.58Y-29.1
X48.58Y-29.75
X48.58Y-30.4
X48.58Y-31.7
X48.58Y-32.35
X48.58Y-33.0
X48.58Y-33.65
X48.58Y-34.3
X48.58Y-34.95
X48.58Y-35.6
X48.58Y-36.25
X48.58Y-36.9
X48.58Y-37.55
X48.58Y-38.2
X48.58Y-40.15
X49.2Y-28.8
X49.2Y-29.4
X49.2Y-30.0
X49.2Y-30.6
X49.2Y-31.2
X49.2Y-31.8
X49.2Y-32.4
X49.2Y-33.0
X49.2Y-33.6
X49.2Y-34.8
X49.2Y-35.4
X49.2Y-37.2
X49.2Y-37.8
X49.2Y-38.4
X49.2Y-39.0
X49.2Y-39.6
X49.2Y-40.2
X49.4Y-24.75
X49.4Y-25.3
X49.8Y-25.8
X49.8Y-26.4
X49.8Y-27.0
X49.8Y-28.8
X49.8Y-29.4
X49.8Y-30.0
X49.8Y-30.6
X49.8Y-31.2
X49.8Y-31.8
X49.8Y-32.4
X49.8Y-33.0
X49.8Y-33.6
X49.8Y-34.8
X49.8Y-35.4
X49.8Y-37.2
X49.8Y-37.8
X49.8Y-38.4
X49.8Y-39.0
X49.8Y-40.2
X49.95Y-25.3
X50.4Y-27.6
X50.4Y-28.8
X50.4Y-29.4
X50.4Y-30.6
X50.4Y-31.8
X50.4Y-32.4
X50.4Y-33.0
X50.4Y-33.6
X50.4Y-34.8
X50.4Y-36.6
X50.4Y-37.8
X50.4Y-38.4
X50.5Y-24.75
X50.5Y-25.3
X50.5Y-40.7
X50.5Y-41.25
X51.0Y-27.6
X51.0Y-28.2
X51.0Y-28.8
X51.0Y-29.4
X51.0Y-30.6
X51.0Y-33.0
X51.0Y-34.8
X51.0Y-38.4
X51.0Y-39.6
X51.0Y-40.2
X51.05Y-40.7
X51.05Y-41.25
X51.6Y-25.8
X51.6Y-26.4
X51.6Y-27.0
X51.6Y-27.6
X51.6Y-28.2
X51.6Y-28.8
X51.6Y-29.4
X51.6Y-30.0
X51.6Y-30.6
X51.6Y-31.2
X51.6Y-31.8
X51.6Y-32.4
X51.6Y-33.0
X51.6Y-33.6
X51.6Y-34.8
X51.6Y-35.4
X51.6Y-37.2
X51.6Y-37.8
X51.6Y-38.4
X51.6Y-39.0
X51.6Y-39.6
X51.6Y-40.2
X51.6Y-40.7
X52.15Y-26.4
X52.15Y-26.95
X52.15Y-27.5
X52.15Y-28.05
X52.15Y-30.8
X52.15Y-31.35
X52.15Y-31.9
X52.15Y-32.45
X52.15Y-33.0
X52.15Y-33.55
X52.15Y-34.1
X52.15Y-34.65
X52.15Y-35.2
X52.15Y-35.75
X52.15Y-40.15
X52.15Y-40.7
X52.15Y-41.25
X52.7Y-24.75
X52.7Y-25.85
X52.7Y-26.95
X52.7Y-28.05
X52.7Y-30.8
X52.7Y-31.35
X52.7Y-31.9
X52.7Y-32.45
X52.7Y-33.0
X52.7Y-33.55
X52.7Y-35.2
X52.7Y-40.15
X52.7Y-40.7
X52.7Y-41.25
T2
X0.86Y-44.345
X1.965Y-15.955
X2.375Y-26.12
X2.874Y-25.374
X3.62Y-22.125
X4.15Y-56.855
X4.23Y-42.845
X4.311Y-40.702
X4.5Y-22.3
X4.879Y-24.154
X4.879Y-37.654
X4.98Y-40.76
X5.421Y-37.855
X5.505Y-59.03
X5.568Y-20.437
X5.656Y-52.264
X5.656Y-40.608
X5.673Y-34.157
X5.712Y-58.0
X5.74Y-9.5
X5.78Y-32.5
X5.835Y-19.476
X6.525Y-11.525
X6.525Y-14.475
X6.7Y-23.5
X6.733Y-36.323
X7.4Y-56.855
X7.534Y-17.544
X7.649Y-28.737
X7.649Y-39.837
X7.811Y-37.702
X7.941Y-24.171
X7.975Y-20.95
X7.975Y-26.05
X7.975Y-33.05
X7.975Y-34.95
X8.0Y-41.07
X8.005Y-59.03
X8.025Y-27.0
X8.11Y-39.476
X8.11Y-40.426
X8.3Y-65.846
X8.48Y-37.76
X8.78Y-7.5
X8.78Y-9.0
X10.0Y-65.846
X10.25Y-34.0
X10.38Y-40.625
X10.445Y-34.544
X10.446Y-59.325
X10.483Y-37.963
X10.78Y-62.305
X10.879Y-23.654
X10.99Y-27.77
X11.557Y-40.537
X11.578Y-13.125
X11.625Y-39.38
X11.652Y-29.297
X12.35Y-4.83
X12.379Y-20.654
X12.379Y-25.654
X12.7Y-23.0
X12.74Y-38.5
X12.74Y-40.0
X12.89Y-52.87
X13.005Y-59.03
X13.057Y-32.037
X13.057Y-33.537
X13.229Y-39.202
X13.28Y-62.305
X13.379Y-29.654
X13.393Y-57.597
X13.557Y-18.037
X13.629Y-20.855
X14.0Y-65.846
X14.057Y-27.537
X14.057Y-37.537
X14.127Y-22.935
X14.2Y-25.0
X14.24Y-31.5
X14.24Y-33.0
X14.24Y-34.5
X14.74Y-17.5
X15.005Y-41.03
X15.2Y-29.0
X15.24Y-27.0
X15.24Y-37.0
X15.24Y-38.5
X15.279Y-58.485
X15.41Y-46.533
X15.483Y-37.963
X15.78Y-22.0
X15.78Y-62.305
X15.879Y-31.654
X15.879Y-33.654
X15.879Y-35.654
X16.02Y-26.76
X16.02Y-28.26
X16.02Y-40.76
X16.311Y-25.202
X16.425Y-64.76
X16.503Y-20.153
X16.689Y-23.798
X16.741Y-57.897
X16.98Y-28.26
X16.98Y-37.74
X17.02Y-22.24
X17.347Y-26.887
X17.385Y-56.708
X17.429Y-31.654
X17.429Y-33.654
X17.429Y-35.654
X17.51Y-22.27
X17.74Y-40.0
X17.838Y-20.437
X17.838Y-39.347
X18.0Y-45.705
X18.0Y-50.555
X18.0Y-52.755
X18.089Y-23.894
X18.119Y-24.636
X18.715Y-23.711
X18.818Y-22.291
X18.841Y-26.632
X19.229Y-24.202
X19.311Y-44.702
X19.511Y-40.576
X19.52Y-43.26
X19.841Y-21.321
X19.98Y-44.76
X20.312Y-45.335
X20.52Y-24.26
X20.571Y-20.654
X20.943Y-21.463
X21.096Y-18.19
X21.24Y-23.5
X21.24Y-42.5
X21.495Y-19.047
X21.549Y-25.214
X21.659Y-40.576
X21.771Y-24.202
X21.811Y-44.702
X21.975Y-60.0
X22.02Y-19.54
X22.02Y-43.26
X22.034Y-57.544
X22.311Y-24.202
X22.314Y-54.049
X22.443Y-21.463
X22.786Y-24.428
X22.981Y-30.544
X22.981Y-36.844
X23.221Y-45.795
X23.24Y-44.0
X23.37Y-44.854
X23.379Y-18.654
X23.579Y-21.645
X23.7Y-20.0
X23.74Y-23.5
X23.74Y-42.5
X23.76Y-20.5
X23.94Y-25.138
X24.023Y-46.579
X24.055Y-14.608
X24.15Y-5.33
X24.15Y-14.13
X24.165Y-59.574
X24.171Y-7.988
X24.171Y-11.722
X24.221Y-60.273
X24.371Y-21.355
X24.52Y-23.51
X24.52Y-25.01
X24.52Y-43.26
X24.962Y-21.376
X25.121Y-43.846
X25.2Y-18.0
X25.225Y-11.925
X25.261Y-24.981
X25.48Y-43.26
X25.557Y-7.537
X25.669Y-41.149
X25.867Y-9.654
X26.182Y-23.791
X26.26Y-22.0
X26.498Y-24.826
X26.498Y-40.576
X26.74Y-7.0
X26.9Y-5.075
X26.929Y-21.154
X26.983Y-43.463
X27.079Y-23.855
X27.379Y-13.654
X27.465Y-19.956
X27.7Y-11.0
X27.712Y-9.0
X27.735Y-15.66
X27.781Y-27.744
X27.8Y-34.116
X28.057Y-7.537
X28.275Y-23.925
X28.579Y-20.145
X28.74Y-42.5
X28.839Y-21.89
X29.017Y-57.072
X29.2Y-13.0
X29.24Y-7.0
X29.24Y-44.0
X29.5Y-19.3
X29.518Y-21.823
X29.571Y-22.346
X30.0Y-62.89
X30.0Y-63.64
X30.07Y-45.452
X30.075Y-6.05
X30.128Y-58.743
X30.147Y-53.788
X30.169Y-22.149
X30.209Y-59.476
X30.318Y-20.209
X30.38Y-19.125
X30.5Y-62.89
X30.543Y-51.798
X30.63Y-21.354
X30.682Y-23.791
X30.879Y-9.154
X30.929Y-21.796
X31.084Y-26.176
X31.188Y-28.111
X31.305Y-53.714
X31.344Y-29.477
X31.446Y-24.428
X31.465Y-36.533
X31.572Y-58.653
X31.673Y-54.049
X32.375Y-16.62
X32.496Y-24.865
X32.5Y-21.374
X32.554Y-19.544
X32.608Y-50.878
X32.63Y-8.854
X32.63Y-23.354
X32.699Y-50.314
X32.76Y-20.0
X32.841Y-17.821
X32.929Y-34.586
X32.931Y-25.917
X32.937Y-38.835
X32.956Y-27.974
X33.229Y-48.202
X33.286Y-35.122
X33.341Y-22.321
X33.5Y-62.89
X33.626Y-59.251
X33.647Y-17.863
X33.664Y-38.856
X33.819Y-37.515
X33.876Y-58.675
X33.9Y-5.075
X33.932Y-36.802
X33.937Y-53.374
X33.943Y-48.037
X34.103Y-58.169
X34.379Y-8.654
X34.38Y-14.125
X34.443Y-20.963
X34.45Y-44.0
X34.5Y-14.75
X34.621Y-23.346
X35.0Y-62.89
X35.1Y-20.414
X35.126Y-13.626
X35.134Y-54.299
X35.182Y-57.837
X35.189Y-23.798
X35.26Y-46.5
X35.28Y-49.0
X35.28Y-50.425
X35.336Y-19.356
X35.48Y-36.96
X35.625Y-44.078
X35.629Y-29.145
X35.693Y-56.303
X36.02Y-17.26
X36.02Y-20.26
X36.096Y-34.434
X36.13Y-8.354
X36.145Y-58.239
X36.164Y-44.356
X36.182Y-39.791
X36.248Y-52.768
X36.258Y-45.216
X36.274Y-32.664
X36.311Y-48.702
X36.443Y-15.963
X36.5Y-62.89
X36.518Y-38.492
X36.592Y-37.331
X36.624Y-34.816
X36.672Y-23.108
X36.721Y-40.409
X36.729Y-56.223
X36.811Y-20.298
X36.98Y-48.76
X37.057Y-50.037
X37.25Y-35.629
X37.271Y-18.702
X37.465Y-55.969
X37.557Y-57.888
X37.56Y-46.315
X37.734Y-23.118
X37.769Y-17.924
X37.818Y-16.209
X37.862Y-13.986
X37.879Y-8.654
X37.902Y-19.79
X37.98Y-44.24
X38.0Y-58.24
X38.01Y-51.655
X38.01Y-52.705
X38.05Y-5.075
X38.158Y-20.395
X38.229Y-17.298
X38.24Y-21.0
X38.536Y-21.95
X38.539Y-49.572
X38.74Y-56.333
X38.74Y-56.925
X38.75Y-45.216
X38.811Y-20.202
X38.818Y-43.791
X38.841Y-44.321
X38.869Y-47.961
X38.869Y-59.476
X38.891Y-42.453
X38.943Y-14.463
X38.943Y-18.963
X39.026Y-53.838
X39.069Y-60.289
X39.108Y-21.853
X39.48Y-17.26
X39.508Y-13.986
X39.557Y-48.463
X39.557Y-49.963
X39.63Y-8.354
X39.882Y-32.7
X39.9Y-38.718
X39.905Y-20.252
X39.943Y-45.537
X40.637Y-21.411
X40.682Y-20.709
X40.74Y-49.0
X40.74Y-50.5
X40.841Y-17.321
X40.868Y-16.261
X40.9Y-5.075
X40.983Y-51.037
X41.1Y-33.285
X41.172Y-52.617
X41.182Y-43.791
X41.2Y-47.0
X41.222Y-51.559
X41.28Y-56.925
X41.344Y-47.824
X41.361Y-45.335
X41.406Y-15.69
X41.588Y-42.488
X41.702Y-47.464
X41.728Y-30.12
X41.728Y-36.602
X41.879Y-19.654
X41.907Y-14.305
X41.925Y-8.8
X41.925Y-10.4
X41.925Y-11.2
X41.925Y-12.0
X41.925Y-12.8
X41.925Y-13.6
X41.943Y-20.463
X42.057Y-49.537
X42.083Y-3.008
X42.421Y-20.158
X42.48Y-24.063
X42.48Y-51.26
X42.542Y-21.663
X42.58Y-9.005
X42.982Y-51.308
X43.017Y-18.537
X43.079Y-22.184
X43.24Y-49.0
X43.305Y-52.711
X43.37Y-48.354
X43.4Y-6.05
X43.608Y-24.047
X43.665Y-20.357
X43.699Y-19.226
X43.715Y-27.526
X43.8Y-7.2
X44.49Y-51.308
X44.879Y-17.346
X44.879Y-50.654
X45.0Y-8.925
X45.032Y-56.417
X45.05Y-5.075
X45.054Y-16.837
X45.057Y-18.463
X45.121Y-23.154
X45.179Y-49.064
X45.215Y-52.711
X45.421Y-18.855
X45.49Y-42.052
X45.538Y-28.145
X45.557Y-55.485
X45.73Y-16.734
X45.771Y-21.202
X45.8Y-8.925
X46.264Y-44.938
X46.287Y-30.725
X46.316Y-28.812
X46.352Y-42.488
X46.367Y-43.52
X46.437Y-20.246
X46.518Y-23.213
X46.57Y-46.671
X46.6Y-8.925
X46.6Y-16.8
X46.63Y-50.354
X46.7Y-48.0
X46.818Y-51.291
X46.951Y-56.581
X46.983Y-20.463
X47.227Y-53.31
X47.407Y-55.123
X47.415Y-21.726
X47.453Y-44.174
X47.52Y-45.76
X47.52Y-48.76
X47.633Y-30.102
X47.676Y-20.235
X47.818Y-13.167
X47.879Y-19.654
X47.989Y-15.191
X48.05Y-12.0
X48.057Y-18.537
X48.057Y-21.963
X48.057Y-50.037
X48.075Y-9.6
X48.075Y-10.8
X48.075Y-14.4
X48.147Y-13.907
X48.2Y-8.925
X48.22Y-12.8
X48.255Y-45.769
X48.255Y-48.769
X48.262Y-15.938
X48.544Y-51.696
X48.771Y-21.702
X48.84Y-55.0
X49.017Y-24.047
X49.017Y-18.537
X49.017Y-44.037
X49.017Y-45.537
X49.017Y-48.537
X49.017Y-50.037
X49.023Y-28.186
X49.039Y-20.274
X49.072Y-50.743
X49.1Y-47.754
X49.483Y-21.537
X49.661Y-56.531
X49.734Y-11.67
X49.87Y-18.646
X49.896Y-15.077
X49.936Y-10.366
X49.968Y-9.198
X50.003Y-51.862
X50.008Y-6.486
X50.299Y-55.5
X50.311Y-23.202
X50.37Y-17.354
X50.443Y-20.463
X50.483Y-42.382
X50.511Y-53.051
X50.689Y-48.798
X50.705Y-6.02
X50.905Y-41.995
X50.933Y-23.18
X50.98Y-44.26
X50.98Y-45.76
X50.98Y-47.26
X50.991Y-55.5
X51.139Y-9.132
X51.271Y-51.702
X51.414Y-8.735
X51.439Y-50.0
X51.472Y-53.91
X51.696Y-53.266
X51.74Y-22.5
X51.789Y-24.265
X51.805Y-14.289
X51.983Y-20.463
X51.983Y-21.963
X52.52Y-42.29
X52.52Y-45.76
X52.52Y-49.76
X52.563Y-51.691
X52.587Y-47.961
X52.624Y-44.356
X52.775Y-17.925
X52.862Y-15.514
X52.875Y-7.38
X52.929Y-19.654
X53.057Y-21.537
X53.346Y-23.139
X53.518Y-39.11
X53.56Y-38.0
X53.59Y-55.0
X53.87Y-30.146
X53.87Y-32.146
X53.884Y-52.698
X53.909Y-45.816
X53.983Y-33.963
X54.02Y-19.76
X54.199Y-31.73
X54.24Y-49.0
X54.275Y-47.925
X54.28Y-50.5
X54.373Y-20.589
X54.508Y-19.486
X54.681Y-43.14
X54.683Y-52.806
X54.777Y-33.848
X54.964Y-16.55
X55.057Y-18.037
X55.271Y-19.702
X55.376Y-37.356
X55.379Y-3.654
X55.48Y-27.79
X55.48Y-34.99
X55.621Y-31.846
X55.671Y-12.823
X55.729Y-46.202
X55.729Y-47.702
X55.818Y-18.709
X55.835Y-12.0
X55.837Y-44.09
X55.879Y-21.654
X55.907Y-43.161
X56.009Y-10.477
X56.017Y-18.037
X56.017Y-23.963
X56.017Y-26.537
X56.182Y-34.791
X56.188Y-50.314
X56.188Y-55.294
X56.275Y-31.875
X56.28Y-39.0
X56.3Y-7.5
X56.338Y-36.754
X56.345Y-27.338
X56.367Y-38.367
X56.374Y-37.706
X56.44Y-41.0
X56.483Y-25.037
X56.499Y-18.249
X56.689Y-47.702
X56.76Y-23.0
X56.78Y-49.0
X56.879Y-15.154
X56.879Y-20.154
X56.966Y-42.013
X56.98Y-46.26
X57.02Y-26.96
X57.12Y-25.125
X57.128Y-17.525
X57.129Y-21.855
X57.13Y-3.354
X57.2Y-34.173
X57.293Y-55.28
X57.3Y-6.5
X57.387Y-38.613
X57.425Y-18.148
X57.664Y-46.356
X57.699Y-30.23
X57.98Y-27.79
X57.98Y-40.24
X58.01Y-34.98
X58.057Y-43.463
X58.121Y-8.154
X58.129Y-20.355
X58.358Y-25.216
X58.534Y-56.544
X58.557Y-27.037
X58.557Y-34.037
X58.69Y-46.573
X58.7Y-14.5
X58.771Y-44.702
X58.818Y-40.291
X58.841Y-38.115
X58.866Y-27.952
X58.879Y-2.154
X58.887Y-22.387
X58.889Y-38.648
X59.017Y-42.037
X59.048Y-37.568
X59.071Y-27.346
X59.071Y-34.346
X59.24Y-23.0
X59.376Y-46.356
X59.48Y-22.26
X59.517Y-30.963
X59.517Y-34.037
X59.541Y-42.487
X59.682Y-26.791
X59.773Y-55.732
X59.775Y-32.425
X59.78Y-54.5
X59.835Y-56.524
X59.943Y-37.963
X59.975Y-3.55
X59.975Y-4.5
X59.99Y-5.488
X60.057Y-25.037
X60.199Y-26.679
X60.206Y-30.539
X60.241Y-45.58
X60.557Y-22.463
X60.557Y-42.037
X60.557Y-43.537
X60.621Y-27.346
X60.621Y-34.346
X60.7Y-1.5
X60.78Y-20.0
X60.88Y-13.125
X61.24Y-24.5
X61.24Y-40.0
X61.251Y-32.23
X61.26Y-36.682
X61.379Y-8.154
X61.483Y-37.537
X61.517Y-42.037
X61.588Y-34.068
X61.729Y-26.702
X61.74Y-23.0
X61.81Y-21.0
X61.811Y-13.202
X61.811Y-32.202
X61.89Y-55.476
X62.057Y-2.037
X62.125Y-11.88
X62.148Y-32.644
X62.182Y-31.791
X62.182Y-22.748
X62.25Y-3.55
X62.251Y-34.291
X62.26Y-34.782
X62.272Y-61.401
X62.318Y-27.723
X62.394Y-30.659
X62.729Y-32.202
X62.879Y-11.154
X62.98Y-38.49
X63.2Y-7.5
X63.24Y-1.5
X63.24Y-12.5
X63.275Y-30.425
X63.311Y-33.702
X63.443Y-32.463
X63.5Y-53.8
X63.517Y-37.537
X63.721Y-24.795
X63.721Y-35.795
X63.74Y-26.0
X63.764Y-30.57
X63.78Y-62.0
X63.805Y-59.789
X64.0Y-25.524
X64.057Y-5.037
X64.205Y-20.976
X64.253Y-30.472
X64.253Y-21.81
X64.38Y-53.625
X64.476Y-24.795
X64.579Y-32.355
X64.7Y-10.5
X64.74Y-34.5
X64.848Y-16.702
X64.873Y-28.651
X64.97Y-62.44
X64.976Y-24.795
X65.24Y-4.5
X65.25Y-17.16
X65.308Y-30.967
X65.476Y-19.295
X65.512Y-36.504
X65.539Y-30.399
X65.554Y-34.044
X65.636Y-2.95
X65.867Y-13.154
X65.965Y-63.955
X65.983Y-17.187
X66.039Y-45.335
X66.04Y-21.71
X66.085Y-68.988
X66.263Y-20.988
X66.28Y-63.0
X66.557Y-5.037
X66.662Y-30.295
X66.732Y-21.651
X66.74Y-57.0
X66.75Y-60.95
X66.78Y-55.5
X66.879Y-8.154
X67.002Y-22.879
X67.02Y-63.76
X67.071Y-40.346
X67.071Y-43.346
X67.136Y-10.45
X67.15Y-34.982
X67.583Y-29.151
X67.625Y-2.5
X67.689Y-63.702
X67.712Y-12.5
X67.74Y-4.5
X67.773Y-17.179
X68.079Y-56.355
X68.261Y-61.271
X68.33Y-39.036
X68.379Y-46.654
X68.429Y-8.154
X68.51Y-24.77
X68.52Y-34.76
X68.52Y-59.35
X68.557Y-65.037
X68.557Y-66.537
X69.019Y-63.132
X69.036Y-10.45
X69.379Y-13.154
X69.51Y-31.92
X69.517Y-65.037
X69.589Y-57.581
X69.75Y-18.5
X69.751Y-62.403
X69.78Y-21.0
X69.796Y-56.538
X69.867Y-2.154
X69.975Y-3.55
X70.021Y-40.178
X70.021Y-41.783
X70.154Y-56.178
X70.167Y-32.471
X70.182Y-35.791
X70.2Y-41.0
X70.2Y-44.0
X70.2Y-46.0
X70.2Y-55.5
X70.24Y-34.0
X70.24Y-37.0
X70.617Y-34.658
X70.617Y-53.342
X70.629Y-13.355
X70.705Y-30.117
X70.78Y-39.0
X70.78Y-48.0
X70.858Y-56.355
X70.882Y-63.522
X71.033Y-27.867
X71.052Y-22.93
X71.136Y-9.95
X71.229Y-54.202
X71.286Y-40.603
X71.48Y-41.74
X71.557Y-8.037
X71.6Y-50.5
X71.712Y-1.5
X72.05Y-65.65
X72.149Y-56.489
X72.25Y-3.55
X72.27Y-64.008
X72.74Y-7.5
X72.781Y-10.331
X72.835Y-5.476
X72.835Y-6.426
X72.844Y-16.75
X72.879Y-12.654
X73.052Y-49.97
X73.052Y-50.47
X73.081Y-56.723
X73.152Y-63.791
X73.216Y-33.777
X73.24Y-53.5
X73.24Y-69.5
X73.662Y-61.662
X73.972Y-56.684
X73.974Y-28.169
X74.075Y-35.375
X74.15Y-36.0
X74.206Y-40.197
X74.213Y-40.837
X74.25Y-67.35
X74.256Y-33.822
X74.313Y-34.311
X74.315Y-62.607
X74.354Y-30.688
X74.379Y-14.654
X74.438Y-44.152
X74.438Y-51.168
X74.438Y-53.123
X74.443Y-26.963
X74.6Y-2.5
X74.63Y-12.354
X74.745Y-28.985
X74.78Y-17.5
X74.78Y-19.0
X74.78Y-20.5
X74.78Y-22.0
X75.057Y-54.537
X75.136Y-9.95
X75.181Y-60.616
X75.216Y-61.814
X75.254Y-59.748
X75.349Y-59.003
X75.419Y-62.719
X75.557Y-65.037
X75.721Y-52.795
X75.752Y-34.78
X75.771Y-56.202
X75.809Y-33.047
X75.861Y-56.769
X75.929Y-14.654
X76.02Y-58.46
X76.057Y-12.037
X76.18Y-54.049
X76.4Y-10.586
X76.4Y-46.75
X76.4Y-48.25
X76.4Y-49.75
X76.557Y-63.037
X76.6Y-42.25
X76.682Y-64.791
X76.74Y-66.5
X76.75Y-43.35
X77.045Y-12.967
X77.048Y-61.738
X77.16Y-40.279
X77.17Y-46.568
X77.219Y-42.019
X77.25Y-5.05
X77.26Y-41.0
X77.4Y-2.5
X77.518Y-63.067
X77.557Y-56.537
X77.699Y-26.595
X77.715Y-55.211
X77.74Y-57.5
X77.87Y-44.354
X77.982Y-61.432
X78.355Y-38.637
X78.415Y-34.304
X78.443Y-41.537
X78.54Y-29.734
X78.54Y-31.727
X78.557Y-33.815
X78.557Y-46.537
X78.575Y-61.55
X78.682Y-56.291
X78.719Y-37.787
X78.78Y-14.0
X79.229Y-33.298
X79.379Y-8.654
X79.502Y-31.651
X79.74Y-46.0
X79.78Y-47.5
X79.816Y-61.668
X79.824Y-6.007
X79.925Y-5.5
X79.975Y-11.0
X80.063Y-18.843
X80.34Y-21.0
X80.771Y-34.702
X81.104Y-41.157
X81.105Y-20.837
X81.11Y-37.926
X81.11Y-42.426
X81.2Y-8.0
X81.2Y-44.0
X81.24Y-31.0
X81.24Y-32.5
X82.25Y-11.0
X82.62Y-2.902
X82.624Y-6.007
X82.725Y-5.5
X83.263Y-41.75
X83.579Y-37.696
X83.78Y-8.0
X84.049Y-18.39
X84.641Y-20.437
X86.101Y-19.192
X86.469Y-67.044
X86.853Y-64.73
X87.135Y-37.958
X87.624Y-3.007
X87.715Y-45.5
X87.725Y-2.5
X89.921Y-44.982
X90.117Y-45.791
X90.175Y-66.5
T3
X42.65Y-9.65
X42.65Y-10.825
X42.65Y-12.0
X42.65Y-13.175
X42.65Y-14.35
X43.825Y-9.65
X43.825Y-10.825
X43.825Y-12.0
X43.825Y-13.175
X43.825Y-14.35
X45.0Y-9.65
X45.0Y-10.825
X45.0Y-12.0
X45.0Y-13.175
X45.0Y-14.35
X46.175Y-9.65
X46.175Y-10.825
X46.175Y-12.0
X46.175Y-13.175
X46.175Y-14.35
X47.35Y-9.65
X47.35Y-10.825
X47.35Y-12.0
X47.35Y-13.175
X47.35Y-14.35
T4
X1.475Y-3.5
X1.475Y-68.5
X2.068Y-2.068
X2.068Y-4.932
X2.068Y-67.068
X2.068Y-69.932
X3.5Y-1.475
X3.5Y-5.525
X3.5Y-66.475
X3.5Y-70.525
X4.932Y-2.068
X4.932Y-4.932
X4.932Y-67.068
X4.932Y-69.932
X5.525Y-3.5
X5.525Y-68.5
X94.475Y-3.5
X94.475Y-68.5
X95.068Y-2.068
X95.068Y-4.932
X95.068Y-67.068
X95.068Y-69.932
X96.5Y-1.475
X96.5Y-5.525
X96.5Y-66.475
X96.5Y-70.525
X97.932Y-2.068
X97.932Y-4.932
X97.932Y-67.068
X97.932Y-69.932
X98.525Y-3.5
X98.525Y-68.5
T6
X88.155Y-12.0
X88.155Y-14.0
X88.155Y-16.0
X88.155Y-18.0
X88.155Y-20.0
X89.655Y-12.5
X89.655Y-15.0
X89.655Y-17.0
X89.655Y-19.5
T8
X82.015Y-51.56
X82.015Y-54.09
X82.015Y-56.64
X82.015Y-59.18
X82.015Y-61.72
X84.555Y-50.29
X84.555Y-52.83
X84.555Y-55.37
X84.555Y-57.91
X84.555Y-60.45
T9
X85.825Y-31.3
X85.825Y-33.8
X85.825Y-35.8
X85.825Y-38.3
X88.445Y-31.3
X88.445Y-33.8
X88.445Y-35.8
X88.445Y-38.3
T10
X50.0Y-68.6
X52.54Y-68.6
X55.08Y-68.6
T11
X95.855Y-49.4
X95.855Y-51.94
X95.855Y-60.06
X95.855Y-62.6
T12
X87.855Y-48.25
X87.855Y-63.75
T13
X85.475Y-28.23
X85.475Y-41.37
X91.155Y-28.23
X91.155Y-41.37
T14
X3.5Y-3.5
X3.5Y-68.5
X96.5Y-3.5
X96.5Y-68.5
T5
X7.68Y-65.125G85X7.68Y-66.225
G05
X7.68Y-69.555G85X7.68Y-70.155
G05
X16.32Y-65.125G85X16.32Y-66.225
G05
X16.32Y-69.555G85X16.32Y-70.155
G05
X88.355Y-9.6G85X89.455Y-9.6
G05
X88.355Y-22.4G85X89.455Y-22.4
G05
X97.005Y-9.6G85X97.805Y-9.6
G05
X97.005Y-22.4G85X97.805Y-22.4
G05
T7
X26.75Y-61.0G85X26.75Y-62.8
G05
X26.75Y-67.46G85X26.75Y-68.26
G05
X41.25Y-61.0G85X41.25Y-62.8
G05
X41.25Y-67.46G85X41.25Y-68.26
G05
M30
